<?xml version="1.0" standalone="no"?>
<svg width="567" height="466" viewBox="0 0 567 466" xmlns="http://www.w3.org/2000/svg">
<title>
/bbx/output/_plots/example/sw/true/mute-freqs/j/plots/IGHJ3_star_02.svg
</title>
<desc>
Creator: ROOT Version 5.34/14
CreationDate: Wed Aug 19 22:00:03 2015</desc>
<defs>
</defs>
<rect x="0" y="0" width="567" height="466" fill="white"/>
<rect x="79" y="37" width="443" height="359" fill="none" stroke="black"/>
<rect x="79" y="37" width="443" height="359" fill="none" stroke="black"/>
<path d="M79,396h 443" fill="none" stroke="black" stroke-width="3"/>
<path d="M165,385v 11" fill="none" stroke="black" stroke-width="3"/>
<path d="M183,391v 5" fill="none" stroke="black" stroke-width="3"/>
<path d="M201,391v 5" fill="none" stroke="black" stroke-width="3"/>
<path d="M219,391v 5" fill="none" stroke="black" stroke-width="3"/>
<path d="M237,391v 5" fill="none" stroke="black" stroke-width="3"/>
<path d="M255,385v 11" fill="none" stroke="black" stroke-width="3"/>
<path d="M273,391v 5" fill="none" stroke="black" stroke-width="3"/>
<path d="M291,391v 5" fill="none" stroke="black" stroke-width="3"/>
<path d="M309,391v 5" fill="none" stroke="black" stroke-width="3"/>
<path d="M328,391v 5" fill="none" stroke="black" stroke-width="3"/>
<path d="M346,385v 11" fill="none" stroke="black" stroke-width="3"/>
<path d="M364,391v 5" fill="none" stroke="black" stroke-width="3"/>
<path d="M382,391v 5" fill="none" stroke="black" stroke-width="3"/>
<path d="M400,391v 5" fill="none" stroke="black" stroke-width="3"/>
<path d="M418,391v 5" fill="none" stroke="black" stroke-width="3"/>
<path d="M436,385v 11" fill="none" stroke="black" stroke-width="3"/>
<path d="M165,385v 11" fill="none" stroke="black" stroke-width="3"/>
<path d="M147,391v 5" fill="none" stroke="black" stroke-width="3"/>
<path d="M129,391v 5" fill="none" stroke="black" stroke-width="3"/>
<path d="M111,391v 5" fill="none" stroke="black" stroke-width="3"/>
<path d="M93,391v 5" fill="none" stroke="black" stroke-width="3"/>
<path d="M436,385v 11" fill="none" stroke="black" stroke-width="3"/>
<path d="M454,391v 5" fill="none" stroke="black" stroke-width="3"/>
<path d="M472,391v 5" fill="none" stroke="black" stroke-width="3"/>
<path d="M490,391v 5" fill="none" stroke="black" stroke-width="3"/>
<path d="M508,391v 5" fill="none" stroke="black" stroke-width="3"/>
<text x="153" y="416" fill="black" font-size="21" font-family="Times" font-weight="bold">
10
</text>
<text x="244" y="416" fill="black" font-size="21" font-family="Times" font-weight="bold">
20
</text>
<text x="334" y="416" fill="black" font-size="21" font-family="Times" font-weight="bold">
30
</text>
<text x="424" y="416" fill="black" font-size="21" font-family="Times" font-weight="bold">
40
</text>
<path d="M79,37h 443" fill="none" stroke="black" stroke-width="3"/>
<path d="M165,48v -11" fill="none" stroke="black" stroke-width="3"/>
<path d="M183,43v -6" fill="none" stroke="black" stroke-width="3"/>
<path d="M201,43v -6" fill="none" stroke="black" stroke-width="3"/>
<path d="M219,43v -6" fill="none" stroke="black" stroke-width="3"/>
<path d="M237,43v -6" fill="none" stroke="black" stroke-width="3"/>
<path d="M255,48v -11" fill="none" stroke="black" stroke-width="3"/>
<path d="M273,43v -6" fill="none" stroke="black" stroke-width="3"/>
<path d="M291,43v -6" fill="none" stroke="black" stroke-width="3"/>
<path d="M309,43v -6" fill="none" stroke="black" stroke-width="3"/>
<path d="M328,43v -6" fill="none" stroke="black" stroke-width="3"/>
<path d="M346,48v -11" fill="none" stroke="black" stroke-width="3"/>
<path d="M364,43v -6" fill="none" stroke="black" stroke-width="3"/>
<path d="M382,43v -6" fill="none" stroke="black" stroke-width="3"/>
<path d="M400,43v -6" fill="none" stroke="black" stroke-width="3"/>
<path d="M418,43v -6" fill="none" stroke="black" stroke-width="3"/>
<path d="M436,48v -11" fill="none" stroke="black" stroke-width="3"/>
<path d="M165,48v -11" fill="none" stroke="black" stroke-width="3"/>
<path d="M147,43v -6" fill="none" stroke="black" stroke-width="3"/>
<path d="M129,43v -6" fill="none" stroke="black" stroke-width="3"/>
<path d="M111,43v -6" fill="none" stroke="black" stroke-width="3"/>
<path d="M93,43v -6" fill="none" stroke="black" stroke-width="3"/>
<path d="M436,48v -11" fill="none" stroke="black" stroke-width="3"/>
<path d="M454,43v -6" fill="none" stroke="black" stroke-width="3"/>
<path d="M472,43v -6" fill="none" stroke="black" stroke-width="3"/>
<path d="M490,43v -6" fill="none" stroke="black" stroke-width="3"/>
<path d="M508,43v -6" fill="none" stroke="black" stroke-width="3"/>
<path d="M79,396v -359" fill="none" stroke="black" stroke-width="3"/>
<path d="M92,396h -13" fill="none" stroke="black" stroke-width="3"/>
<path d="M86,366h -7" fill="none" stroke="black" stroke-width="3"/>
<path d="M86,336h -7" fill="none" stroke="black" stroke-width="3"/>
<path d="M86,306h -7" fill="none" stroke="black" stroke-width="3"/>
<path d="M86,277h -7" fill="none" stroke="black" stroke-width="3"/>
<path d="M92,247h -13" fill="none" stroke="black" stroke-width="3"/>
<path d="M86,217h -7" fill="none" stroke="black" stroke-width="3"/>
<path d="M86,187h -7" fill="none" stroke="black" stroke-width="3"/>
<path d="M86,157h -7" fill="none" stroke="black" stroke-width="3"/>
<path d="M86,127h -7" fill="none" stroke="black" stroke-width="3"/>
<path d="M92,97h -13" fill="none" stroke="black" stroke-width="3"/>
<path d="M92,97h -13" fill="none" stroke="black" stroke-width="3"/>
<path d="M86,67h -7" fill="none" stroke="black" stroke-width="3"/>
<path d="M86,37h -7" fill="none" stroke="black" stroke-width="3"/>
<text x="46" y="404" fill="black" font-size="21" font-family="Times" font-weight="bold">
0.0
</text>
<text x="46" y="254" fill="black" font-size="21" font-family="Times" font-weight="bold">
0.5
</text>
<text x="46" y="105" fill="black" font-size="21" font-family="Times" font-weight="bold">
1.0
</text>
<path d="M522,396v -359" fill="none" stroke="black" stroke-width="3"/>
<path d="M508,396h 14" fill="none" stroke="black" stroke-width="3"/>
<path d="M515,366h 7" fill="none" stroke="black" stroke-width="3"/>
<path d="M515,336h 7" fill="none" stroke="black" stroke-width="3"/>
<path d="M515,306h 7" fill="none" stroke="black" stroke-width="3"/>
<path d="M515,277h 7" fill="none" stroke="black" stroke-width="3"/>
<path d="M508,247h 14" fill="none" stroke="black" stroke-width="3"/>
<path d="M515,217h 7" fill="none" stroke="black" stroke-width="3"/>
<path d="M515,187h 7" fill="none" stroke="black" stroke-width="3"/>
<path d="M515,157h 7" fill="none" stroke="black" stroke-width="3"/>
<path d="M515,127h 7" fill="none" stroke="black" stroke-width="3"/>
<path d="M508,97h 14" fill="none" stroke="black" stroke-width="3"/>
<path d="M508,97h 14" fill="none" stroke="black" stroke-width="3"/>
<path d="M515,67h 7" fill="none" stroke="black" stroke-width="3"/>
<path d="M515,37h 7" fill="none" stroke="black" stroke-width="3"/>
<rect x="113" y="-4" width="248" height="38" fill="white"/>
<text x="131" y="24" fill="black" font-size="30" font-family="Helvetica" font-weight="bold">
IGHJ3_star_02
</text>
<path d="M84,393v -60" fill="none" stroke="#ff0000" stroke-width="6"/>
<g stroke="#ff0000" stroke-width="6" fill="#ff0000">
<circle cx="84" cy="396" r="3.5"/>
</g>
<path d="M93,160v -60" fill="none" stroke="#ff0000" stroke-width="6"/>
<path d="M93,94v -57" fill="none" stroke="#ff0000" stroke-width="6"/>
<path d="M88,97h 2" fill="none" stroke="#ff0000" stroke-width="6"/>
<path d="M96,97h 1" fill="none" stroke="#ff0000" stroke-width="6"/>
<g stroke="#ff0000" stroke-width="6" fill="#ff0000">
<circle cx="93" cy="97" r="3.5"/>
</g>
<path d="M102,393v -60" fill="none" stroke="#ff0000" stroke-width="6"/>
<g stroke="#ff0000" stroke-width="6" fill="#ff0000">
<circle cx="102" cy="396" r="3.5"/>
</g>
<path d="M111,393v -60" fill="none" stroke="#ff0000" stroke-width="6"/>
<g stroke="#ff0000" stroke-width="6" fill="#ff0000">
<circle cx="111" cy="396" r="3.5"/>
</g>
<path d="M120,393v -60" fill="none" stroke="#ff0000" stroke-width="6"/>
<g stroke="#ff0000" stroke-width="6" fill="#ff0000">
<circle cx="120" cy="396" r="3.5"/>
</g>
<path d="M129,393v -60" fill="none" stroke="#ff0000" stroke-width="6"/>
<g stroke="#ff0000" stroke-width="6" fill="#ff0000">
<circle cx="129" cy="396" r="3.5"/>
</g>
<path d="M138,393v -60" fill="none" stroke="#ff0000" stroke-width="6"/>
<g stroke="#ff0000" stroke-width="6" fill="#ff0000">
<circle cx="138" cy="396" r="3.5"/>
</g>
<path d="M147,393v -60" fill="none" stroke="#ff0000" stroke-width="6"/>
<g stroke="#ff0000" stroke-width="6" fill="#ff0000">
<circle cx="147" cy="396" r="3.5"/>
</g>
<path d="M156,393v -60" fill="none" stroke="#ff0000" stroke-width="6"/>
<g stroke="#ff0000" stroke-width="6" fill="#ff0000">
<circle cx="156" cy="396" r="3.5"/>
</g>
<path d="M165,393v -60" fill="none" stroke="#ff0000" stroke-width="6"/>
<g stroke="#ff0000" stroke-width="6" fill="#ff0000">
<circle cx="165" cy="396" r="3.5"/>
</g>
<path d="M174,393v -60" fill="none" stroke="#ff0000" stroke-width="6"/>
<g stroke="#ff0000" stroke-width="6" fill="#ff0000">
<circle cx="174" cy="396" r="3.5"/>
</g>
<path d="M183,393v -60" fill="none" stroke="#ff0000" stroke-width="6"/>
<g stroke="#ff0000" stroke-width="6" fill="#ff0000">
<circle cx="183" cy="396" r="3.5"/>
</g>
<path d="M192,160v -60" fill="none" stroke="#ff0000" stroke-width="6"/>
<path d="M192,94v -57" fill="none" stroke="#ff0000" stroke-width="6"/>
<path d="M188,97h 1" fill="none" stroke="#ff0000" stroke-width="6"/>
<path d="M195,97h 2" fill="none" stroke="#ff0000" stroke-width="6"/>
<g stroke="#ff0000" stroke-width="6" fill="#ff0000">
<circle cx="192" cy="97" r="3.5"/>
</g>
<path d="M201,393v -60" fill="none" stroke="#ff0000" stroke-width="6"/>
<g stroke="#ff0000" stroke-width="6" fill="#ff0000">
<circle cx="201" cy="396" r="3.5"/>
</g>
<path d="M210,393v -60" fill="none" stroke="#ff0000" stroke-width="6"/>
<g stroke="#ff0000" stroke-width="6" fill="#ff0000">
<circle cx="210" cy="396" r="3.5"/>
</g>
<path d="M219,393v -60" fill="none" stroke="#ff0000" stroke-width="6"/>
<g stroke="#ff0000" stroke-width="6" fill="#ff0000">
<circle cx="219" cy="396" r="3.5"/>
</g>
<path d="M228,393v -60" fill="none" stroke="#ff0000" stroke-width="6"/>
<g stroke="#ff0000" stroke-width="6" fill="#ff0000">
<circle cx="228" cy="396" r="3.5"/>
</g>
<path d="M237,393v -60" fill="none" stroke="#ff0000" stroke-width="6"/>
<g stroke="#ff0000" stroke-width="6" fill="#ff0000">
<circle cx="237" cy="396" r="3.5"/>
</g>
<path d="M246,393v -60" fill="none" stroke="#ff0000" stroke-width="6"/>
<g stroke="#ff0000" stroke-width="6" fill="#ff0000">
<circle cx="246" cy="396" r="3.5"/>
</g>
<path d="M255,393v -60" fill="none" stroke="#ff0000" stroke-width="6"/>
<g stroke="#ff0000" stroke-width="6" fill="#ff0000">
<circle cx="255" cy="396" r="3.5"/>
</g>
<path d="M264,393v -60" fill="none" stroke="#ff0000" stroke-width="6"/>
<g stroke="#ff0000" stroke-width="6" fill="#ff0000">
<circle cx="264" cy="396" r="3.5"/>
</g>
<path d="M273,393v -60" fill="none" stroke="#ff0000" stroke-width="6"/>
<g stroke="#ff0000" stroke-width="6" fill="#ff0000">
<circle cx="273" cy="396" r="3.5"/>
</g>
<path d="M282,393v -60" fill="none" stroke="#ff0000" stroke-width="6"/>
<g stroke="#ff0000" stroke-width="6" fill="#ff0000">
<circle cx="282" cy="396" r="3.5"/>
</g>
<path d="M291,160v -60" fill="none" stroke="#ff0000" stroke-width="6"/>
<path d="M291,94v -57" fill="none" stroke="#ff0000" stroke-width="6"/>
<path d="M287,97h 1" fill="none" stroke="#ff0000" stroke-width="6"/>
<path d="M295,97h 1" fill="none" stroke="#ff0000" stroke-width="6"/>
<g stroke="#ff0000" stroke-width="6" fill="#ff0000">
<circle cx="291" cy="97" r="3.5"/>
</g>
<path d="M300,393v -60" fill="none" stroke="#ff0000" stroke-width="6"/>
<g stroke="#ff0000" stroke-width="6" fill="#ff0000">
<circle cx="300" cy="396" r="3.5"/>
</g>
<path d="M309,393v -60" fill="none" stroke="#ff0000" stroke-width="6"/>
<g stroke="#ff0000" stroke-width="6" fill="#ff0000">
<circle cx="309" cy="396" r="3.5"/>
</g>
<path d="M319,393v -60" fill="none" stroke="#ff0000" stroke-width="6"/>
<g stroke="#ff0000" stroke-width="6" fill="#ff0000">
<circle cx="319" cy="396" r="3.5"/>
</g>
<path d="M328,393v -60" fill="none" stroke="#ff0000" stroke-width="6"/>
<g stroke="#ff0000" stroke-width="6" fill="#ff0000">
<circle cx="328" cy="396" r="3.5"/>
</g>
<path d="M337,393v -60" fill="none" stroke="#ff0000" stroke-width="6"/>
<g stroke="#ff0000" stroke-width="6" fill="#ff0000">
<circle cx="337" cy="396" r="3.5"/>
</g>
<path d="M346,160v -60" fill="none" stroke="#ff0000" stroke-width="6"/>
<path d="M346,94v -57" fill="none" stroke="#ff0000" stroke-width="6"/>
<path d="M341,97h 1" fill="none" stroke="#ff0000" stroke-width="6"/>
<path d="M349,97h 1" fill="none" stroke="#ff0000" stroke-width="6"/>
<g stroke="#ff0000" stroke-width="6" fill="#ff0000">
<circle cx="346" cy="97" r="3.5"/>
</g>
<path d="M355,160v -60" fill="none" stroke="#ff0000" stroke-width="6"/>
<path d="M355,94v -57" fill="none" stroke="#ff0000" stroke-width="6"/>
<path d="M350,97h 1" fill="none" stroke="#ff0000" stroke-width="6"/>
<path d="M358,97h 1" fill="none" stroke="#ff0000" stroke-width="6"/>
<g stroke="#ff0000" stroke-width="6" fill="#ff0000">
<circle cx="355" cy="97" r="3.5"/>
</g>
<path d="M364,393v -60" fill="none" stroke="#ff0000" stroke-width="6"/>
<g stroke="#ff0000" stroke-width="6" fill="#ff0000">
<circle cx="364" cy="396" r="3.5"/>
</g>
<path d="M373,393v -60" fill="none" stroke="#ff0000" stroke-width="6"/>
<g stroke="#ff0000" stroke-width="6" fill="#ff0000">
<circle cx="373" cy="396" r="3.5"/>
</g>
<path d="M382,393v -60" fill="none" stroke="#ff0000" stroke-width="6"/>
<g stroke="#ff0000" stroke-width="6" fill="#ff0000">
<circle cx="382" cy="396" r="3.5"/>
</g>
<path d="M391,393v -60" fill="none" stroke="#ff0000" stroke-width="6"/>
<g stroke="#ff0000" stroke-width="6" fill="#ff0000">
<circle cx="391" cy="396" r="3.5"/>
</g>
<path d="M400,160v -60" fill="none" stroke="#ff0000" stroke-width="6"/>
<path d="M400,94v -57" fill="none" stroke="#ff0000" stroke-width="6"/>
<path d="M395,97h 1" fill="none" stroke="#ff0000" stroke-width="6"/>
<path d="M403,97h 1" fill="none" stroke="#ff0000" stroke-width="6"/>
<g stroke="#ff0000" stroke-width="6" fill="#ff0000">
<circle cx="400" cy="97" r="3.5"/>
</g>
<path d="M409,160v -60" fill="none" stroke="#ff0000" stroke-width="6"/>
<path d="M409,94v -57" fill="none" stroke="#ff0000" stroke-width="6"/>
<path d="M404,97h 2" fill="none" stroke="#ff0000" stroke-width="6"/>
<path d="M412,97h 1" fill="none" stroke="#ff0000" stroke-width="6"/>
<g stroke="#ff0000" stroke-width="6" fill="#ff0000">
<circle cx="409" cy="97" r="3.5"/>
</g>
<path d="M418,393v -60" fill="none" stroke="#ff0000" stroke-width="6"/>
<g stroke="#ff0000" stroke-width="6" fill="#ff0000">
<circle cx="418" cy="396" r="3.5"/>
</g>
<path d="M427,393v -60" fill="none" stroke="#ff0000" stroke-width="6"/>
<g stroke="#ff0000" stroke-width="6" fill="#ff0000">
<circle cx="427" cy="396" r="3.5"/>
</g>
<path d="M436,393v -60" fill="none" stroke="#ff0000" stroke-width="6"/>
<g stroke="#ff0000" stroke-width="6" fill="#ff0000">
<circle cx="436" cy="396" r="3.5"/>
</g>
<path d="M445,393v -60" fill="none" stroke="#ff0000" stroke-width="6"/>
<g stroke="#ff0000" stroke-width="6" fill="#ff0000">
<circle cx="445" cy="396" r="3.5"/>
</g>
<path d="M454,393v -60" fill="none" stroke="#ff0000" stroke-width="6"/>
<g stroke="#ff0000" stroke-width="6" fill="#ff0000">
<circle cx="454" cy="396" r="3.5"/>
</g>
<path d="M463,393v -60" fill="none" stroke="#ff0000" stroke-width="6"/>
<g stroke="#ff0000" stroke-width="6" fill="#ff0000">
<circle cx="463" cy="396" r="3.5"/>
</g>
<path d="M472,393v -60" fill="none" stroke="#ff0000" stroke-width="6"/>
<g stroke="#ff0000" stroke-width="6" fill="#ff0000">
<circle cx="472" cy="396" r="3.5"/>
</g>
<path d="M481,160v -60" fill="none" stroke="#ff0000" stroke-width="6"/>
<path d="M481,94v -57" fill="none" stroke="#ff0000" stroke-width="6"/>
<path d="M476,97h 2" fill="none" stroke="#ff0000" stroke-width="6"/>
<path d="M484,97h 1" fill="none" stroke="#ff0000" stroke-width="6"/>
<g stroke="#ff0000" stroke-width="6" fill="#ff0000">
<circle cx="481" cy="97" r="3.5"/>
</g>
<path d="M490,393v -60" fill="none" stroke="#ff0000" stroke-width="6"/>
<g stroke="#ff0000" stroke-width="6" fill="#ff0000">
<circle cx="490" cy="396" r="3.5"/>
</g>
<path d="M499,160v -60" fill="none" stroke="#ff0000" stroke-width="6"/>
<path d="M499,94v -57" fill="none" stroke="#ff0000" stroke-width="6"/>
<path d="M495,97h 1" fill="none" stroke="#ff0000" stroke-width="6"/>
<path d="M502,97h 2" fill="none" stroke="#ff0000" stroke-width="6"/>
<g stroke="#ff0000" stroke-width="6" fill="#ff0000">
<circle cx="499" cy="97" r="3.5"/>
</g>
<path d="M508,393v -60" fill="none" stroke="#ff0000" stroke-width="6"/>
<g stroke="#ff0000" stroke-width="6" fill="#ff0000">
<circle cx="508" cy="396" r="3.5"/>
</g>
<path d="M517,393v -60" fill="none" stroke="#ff0000" stroke-width="6"/>
<g stroke="#ff0000" stroke-width="6" fill="#ff0000">
<circle cx="517" cy="396" r="3.5"/>
</g>
<path d="M332,107h 42" fill="none" stroke="#ff0000" stroke-width="6"/>
<path d="M219,426v -179" fill="none" stroke="black" stroke-width="3" stroke-dasharray=" 3, 3"/>
<rect x="113" y="-4" width="248" height="38" fill="white"/>
<text x="131" y="24" fill="black" font-size="30" font-family="Helvetica" font-weight="bold">
IGHJ3_star_02
</text></svg>
