<?xml version="1.0" standalone="no"?>
<svg width="567" height="466" viewBox="0 0 567 466" xmlns="http://www.w3.org/2000/svg">
<title>
_plots/example/sw/performance/plots/vd_insertion.svg
</title>
<desc>
Creator: ROOT Version 5.34/14
CreationDate: Tue Jul 28 23:41:05 2015</desc>
<defs>
</defs>
<rect x="0" y="0" width="567" height="466" fill="white"/>
<rect x="79" y="37" width="443" height="359" fill="none" stroke="black"/>
<rect x="79" y="37" width="443" height="359" fill="none" stroke="black"/>
<path d="M79,396h 443" fill="none" stroke="black" stroke-width="3"/>
<text x="324" y="449" fill="black" font-size="32" font-family="Times" font-weight="bold">
inferred - true
</text>
<path d="M184,385v 11" fill="none" stroke="black" stroke-width="3"/>
<path d="M207,391v 5" fill="none" stroke="black" stroke-width="3"/>
<path d="M231,391v 5" fill="none" stroke="black" stroke-width="3"/>
<path d="M254,391v 5" fill="none" stroke="black" stroke-width="3"/>
<path d="M277,391v 5" fill="none" stroke="black" stroke-width="3"/>
<path d="M300,385v 11" fill="none" stroke="black" stroke-width="3"/>
<path d="M324,391v 5" fill="none" stroke="black" stroke-width="3"/>
<path d="M347,391v 5" fill="none" stroke="black" stroke-width="3"/>
<path d="M370,391v 5" fill="none" stroke="black" stroke-width="3"/>
<path d="M394,391v 5" fill="none" stroke="black" stroke-width="3"/>
<path d="M417,385v 11" fill="none" stroke="black" stroke-width="3"/>
<path d="M184,385v 11" fill="none" stroke="black" stroke-width="3"/>
<path d="M161,391v 5" fill="none" stroke="black" stroke-width="3"/>
<path d="M138,391v 5" fill="none" stroke="black" stroke-width="3"/>
<path d="M114,391v 5" fill="none" stroke="black" stroke-width="3"/>
<path d="M91,391v 5" fill="none" stroke="black" stroke-width="3"/>
<path d="M417,385v 11" fill="none" stroke="black" stroke-width="3"/>
<path d="M440,391v 5" fill="none" stroke="black" stroke-width="3"/>
<path d="M463,391v 5" fill="none" stroke="black" stroke-width="3"/>
<path d="M487,391v 5" fill="none" stroke="black" stroke-width="3"/>
<path d="M510,391v 5" fill="none" stroke="black" stroke-width="3"/>
<text x="178" y="416" fill="black" font-size="21" font-family="Times" font-weight="bold">
0
</text>
<text x="294" y="416" fill="black" font-size="21" font-family="Times" font-weight="bold">
5
</text>
<text x="405" y="416" fill="black" font-size="21" font-family="Times" font-weight="bold">
10
</text>
<path d="M79,37h 443" fill="none" stroke="black" stroke-width="3"/>
<path d="M184,48v -11" fill="none" stroke="black" stroke-width="3"/>
<path d="M207,43v -6" fill="none" stroke="black" stroke-width="3"/>
<path d="M231,43v -6" fill="none" stroke="black" stroke-width="3"/>
<path d="M254,43v -6" fill="none" stroke="black" stroke-width="3"/>
<path d="M277,43v -6" fill="none" stroke="black" stroke-width="3"/>
<path d="M300,48v -11" fill="none" stroke="black" stroke-width="3"/>
<path d="M324,43v -6" fill="none" stroke="black" stroke-width="3"/>
<path d="M347,43v -6" fill="none" stroke="black" stroke-width="3"/>
<path d="M370,43v -6" fill="none" stroke="black" stroke-width="3"/>
<path d="M394,43v -6" fill="none" stroke="black" stroke-width="3"/>
<path d="M417,48v -11" fill="none" stroke="black" stroke-width="3"/>
<path d="M184,48v -11" fill="none" stroke="black" stroke-width="3"/>
<path d="M161,43v -6" fill="none" stroke="black" stroke-width="3"/>
<path d="M138,43v -6" fill="none" stroke="black" stroke-width="3"/>
<path d="M114,43v -6" fill="none" stroke="black" stroke-width="3"/>
<path d="M91,43v -6" fill="none" stroke="black" stroke-width="3"/>
<path d="M417,48v -11" fill="none" stroke="black" stroke-width="3"/>
<path d="M440,43v -6" fill="none" stroke="black" stroke-width="3"/>
<path d="M463,43v -6" fill="none" stroke="black" stroke-width="3"/>
<path d="M487,43v -6" fill="none" stroke="black" stroke-width="3"/>
<path d="M510,43v -6" fill="none" stroke="black" stroke-width="3"/>
<path d="M79,396v -359" fill="none" stroke="black" stroke-width="3"/>
<path d="M92,396h -13" fill="none" stroke="black" stroke-width="3"/>
<path d="M86,374h -7" fill="none" stroke="black" stroke-width="3"/>
<path d="M86,352h -7" fill="none" stroke="black" stroke-width="3"/>
<path d="M86,331h -7" fill="none" stroke="black" stroke-width="3"/>
<path d="M92,309h -13" fill="none" stroke="black" stroke-width="3"/>
<path d="M86,287h -7" fill="none" stroke="black" stroke-width="3"/>
<path d="M86,265h -7" fill="none" stroke="black" stroke-width="3"/>
<path d="M86,243h -7" fill="none" stroke="black" stroke-width="3"/>
<path d="M92,222h -13" fill="none" stroke="black" stroke-width="3"/>
<path d="M86,200h -7" fill="none" stroke="black" stroke-width="3"/>
<path d="M86,178h -7" fill="none" stroke="black" stroke-width="3"/>
<path d="M86,156h -7" fill="none" stroke="black" stroke-width="3"/>
<path d="M92,134h -13" fill="none" stroke="black" stroke-width="3"/>
<path d="M86,112h -7" fill="none" stroke="black" stroke-width="3"/>
<path d="M86,91h -7" fill="none" stroke="black" stroke-width="3"/>
<path d="M86,69h -7" fill="none" stroke="black" stroke-width="3"/>
<path d="M92,47h -13" fill="none" stroke="black" stroke-width="3"/>
<path d="M92,47h -13" fill="none" stroke="black" stroke-width="3"/>
<text x="46" y="404" fill="black" font-size="21" font-family="Times" font-weight="bold">
0.0
</text>
<text x="46" y="317" fill="black" font-size="21" font-family="Times" font-weight="bold">
0.2
</text>
<text x="46" y="229" fill="black" font-size="21" font-family="Times" font-weight="bold">
0.4
</text>
<text x="46" y="142" fill="black" font-size="21" font-family="Times" font-weight="bold">
0.6
</text>
<text x="46" y="55" fill="black" font-size="21" font-family="Times" font-weight="bold">
0.8
</text>
<path d="M522,396v -359" fill="none" stroke="black" stroke-width="3"/>
<path d="M508,396h 14" fill="none" stroke="black" stroke-width="3"/>
<path d="M515,374h 7" fill="none" stroke="black" stroke-width="3"/>
<path d="M515,352h 7" fill="none" stroke="black" stroke-width="3"/>
<path d="M515,331h 7" fill="none" stroke="black" stroke-width="3"/>
<path d="M508,309h 14" fill="none" stroke="black" stroke-width="3"/>
<path d="M515,287h 7" fill="none" stroke="black" stroke-width="3"/>
<path d="M515,265h 7" fill="none" stroke="black" stroke-width="3"/>
<path d="M515,243h 7" fill="none" stroke="black" stroke-width="3"/>
<path d="M508,222h 14" fill="none" stroke="black" stroke-width="3"/>
<path d="M515,200h 7" fill="none" stroke="black" stroke-width="3"/>
<path d="M515,178h 7" fill="none" stroke="black" stroke-width="3"/>
<path d="M515,156h 7" fill="none" stroke="black" stroke-width="3"/>
<path d="M508,134h 14" fill="none" stroke="black" stroke-width="3"/>
<path d="M515,112h 7" fill="none" stroke="black" stroke-width="3"/>
<path d="M515,91h 7" fill="none" stroke="black" stroke-width="3"/>
<path d="M515,69h 7" fill="none" stroke="black" stroke-width="3"/>
<path d="M508,47h 14" fill="none" stroke="black" stroke-width="3"/>
<path d="M508,47h 14" fill="none" stroke="black" stroke-width="3"/>
<rect x="113" y="-4" width="201" height="38" fill="white"/>
<text x="124" y="23" fill="black" font-size="30" font-family="Helvetica" font-weight="bold">
vd_insertion
</text>
<path d="M80,395v -10h 23v -4h 23v -11h 23v 11h 23v -284h 24v 273h 23v 11h 47v 11h 23v 3h 46v -5h 24v 5h 139v -1h 24" fill="none" stroke="#ff0000" stroke-width="6"/>
<path d="M332,107h 42" fill="none" stroke="#ff0000" stroke-width="6"/>
<rect x="113" y="-4" width="201" height="38" fill="white"/>
<text x="124" y="23" fill="black" font-size="30" font-family="Helvetica" font-weight="bold">
vd_insertion
</text></svg>
