<?xml version="1.0" standalone="no"?>
<svg width="567" height="466" viewBox="0 0 567 466" xmlns="http://www.w3.org/2000/svg">
<title>
/bbx/output/_plots/example/sw/true/j_5p_del/plots/IGHJ6_star_03-j_5p_del.svg
</title>
<desc>
Creator: ROOT Version 5.34/14
CreationDate: Wed Aug 19 19:38:11 2015</desc>
<defs>
</defs>
<rect x="0" y="0" width="567" height="466" fill="white"/>
<rect x="79" y="37" width="443" height="359" fill="none" stroke="black"/>
<rect x="79" y="37" width="443" height="359" fill="none" stroke="black"/>
<path d="M79,396h 443" fill="none" stroke="black" stroke-width="3"/>
<path d="M79,385v 11" fill="none" stroke="black" stroke-width="3"/>
<path d="M101,391v 5" fill="none" stroke="black" stroke-width="3"/>
<path d="M124,391v 5" fill="none" stroke="black" stroke-width="3"/>
<path d="M146,391v 5" fill="none" stroke="black" stroke-width="3"/>
<path d="M168,391v 5" fill="none" stroke="black" stroke-width="3"/>
<path d="M190,385v 11" fill="none" stroke="black" stroke-width="3"/>
<path d="M212,391v 5" fill="none" stroke="black" stroke-width="3"/>
<path d="M234,391v 5" fill="none" stroke="black" stroke-width="3"/>
<path d="M256,391v 5" fill="none" stroke="black" stroke-width="3"/>
<path d="M278,391v 5" fill="none" stroke="black" stroke-width="3"/>
<path d="M300,385v 11" fill="none" stroke="black" stroke-width="3"/>
<path d="M323,391v 5" fill="none" stroke="black" stroke-width="3"/>
<path d="M345,391v 5" fill="none" stroke="black" stroke-width="3"/>
<path d="M367,391v 5" fill="none" stroke="black" stroke-width="3"/>
<path d="M389,391v 5" fill="none" stroke="black" stroke-width="3"/>
<path d="M411,385v 11" fill="none" stroke="black" stroke-width="3"/>
<path d="M433,391v 5" fill="none" stroke="black" stroke-width="3"/>
<path d="M455,391v 5" fill="none" stroke="black" stroke-width="3"/>
<path d="M477,391v 5" fill="none" stroke="black" stroke-width="3"/>
<path d="M499,391v 5" fill="none" stroke="black" stroke-width="3"/>
<path d="M522,385v 11" fill="none" stroke="black" stroke-width="3"/>
<text x="59" y="416" fill="black" font-size="21" font-family="Times" font-weight="bold">
13.5
</text>
<text x="170" y="416" fill="black" font-size="21" font-family="Times" font-weight="bold">
14.0
</text>
<text x="280" y="416" fill="black" font-size="21" font-family="Times" font-weight="bold">
14.5
</text>
<text x="391" y="416" fill="black" font-size="21" font-family="Times" font-weight="bold">
15.0
</text>
<text x="502" y="416" fill="black" font-size="21" font-family="Times" font-weight="bold">
15.5
</text>
<path d="M79,37h 443" fill="none" stroke="black" stroke-width="3"/>
<path d="M79,48v -11" fill="none" stroke="black" stroke-width="3"/>
<path d="M101,43v -6" fill="none" stroke="black" stroke-width="3"/>
<path d="M124,43v -6" fill="none" stroke="black" stroke-width="3"/>
<path d="M146,43v -6" fill="none" stroke="black" stroke-width="3"/>
<path d="M168,43v -6" fill="none" stroke="black" stroke-width="3"/>
<path d="M190,48v -11" fill="none" stroke="black" stroke-width="3"/>
<path d="M212,43v -6" fill="none" stroke="black" stroke-width="3"/>
<path d="M234,43v -6" fill="none" stroke="black" stroke-width="3"/>
<path d="M256,43v -6" fill="none" stroke="black" stroke-width="3"/>
<path d="M278,43v -6" fill="none" stroke="black" stroke-width="3"/>
<path d="M300,48v -11" fill="none" stroke="black" stroke-width="3"/>
<path d="M323,43v -6" fill="none" stroke="black" stroke-width="3"/>
<path d="M345,43v -6" fill="none" stroke="black" stroke-width="3"/>
<path d="M367,43v -6" fill="none" stroke="black" stroke-width="3"/>
<path d="M389,43v -6" fill="none" stroke="black" stroke-width="3"/>
<path d="M411,48v -11" fill="none" stroke="black" stroke-width="3"/>
<path d="M433,43v -6" fill="none" stroke="black" stroke-width="3"/>
<path d="M455,43v -6" fill="none" stroke="black" stroke-width="3"/>
<path d="M477,43v -6" fill="none" stroke="black" stroke-width="3"/>
<path d="M499,43v -6" fill="none" stroke="black" stroke-width="3"/>
<path d="M522,48v -11" fill="none" stroke="black" stroke-width="3"/>
<path d="M79,396v -359" fill="none" stroke="black" stroke-width="3"/>
<path d="M92,396h -13" fill="none" stroke="black" stroke-width="3"/>
<path d="M86,363h -7" fill="none" stroke="black" stroke-width="3"/>
<path d="M86,330h -7" fill="none" stroke="black" stroke-width="3"/>
<path d="M86,296h -7" fill="none" stroke="black" stroke-width="3"/>
<path d="M86,263h -7" fill="none" stroke="black" stroke-width="3"/>
<path d="M92,230h -13" fill="none" stroke="black" stroke-width="3"/>
<path d="M86,197h -7" fill="none" stroke="black" stroke-width="3"/>
<path d="M86,164h -7" fill="none" stroke="black" stroke-width="3"/>
<path d="M86,130h -7" fill="none" stroke="black" stroke-width="3"/>
<path d="M86,97h -7" fill="none" stroke="black" stroke-width="3"/>
<path d="M92,64h -13" fill="none" stroke="black" stroke-width="3"/>
<path d="M92,64h -13" fill="none" stroke="black" stroke-width="3"/>
<text x="63" y="404" fill="black" font-size="21" font-family="Times" font-weight="bold">
0
</text>
<text x="63" y="238" fill="black" font-size="21" font-family="Times" font-weight="bold">
5
</text>
<text x="51" y="72" fill="black" font-size="21" font-family="Times" font-weight="bold">
10
</text>
<path d="M522,396v -359" fill="none" stroke="black" stroke-width="3"/>
<path d="M508,396h 14" fill="none" stroke="black" stroke-width="3"/>
<path d="M515,363h 7" fill="none" stroke="black" stroke-width="3"/>
<path d="M515,330h 7" fill="none" stroke="black" stroke-width="3"/>
<path d="M515,296h 7" fill="none" stroke="black" stroke-width="3"/>
<path d="M515,263h 7" fill="none" stroke="black" stroke-width="3"/>
<path d="M508,230h 14" fill="none" stroke="black" stroke-width="3"/>
<path d="M515,197h 7" fill="none" stroke="black" stroke-width="3"/>
<path d="M515,164h 7" fill="none" stroke="black" stroke-width="3"/>
<path d="M515,130h 7" fill="none" stroke="black" stroke-width="3"/>
<path d="M515,97h 7" fill="none" stroke="black" stroke-width="3"/>
<path d="M508,64h 14" fill="none" stroke="black" stroke-width="3"/>
<path d="M508,64h 14" fill="none" stroke="black" stroke-width="3"/>
<rect x="113" y="-4" width="392" height="40" fill="white"/>
<text x="128" y="25" fill="black" font-size="31" font-family="Helvetica" font-weight="bold">
IGHJ6_star_03-j_5p_del
</text>
<path d="M190,278v -78" fill="none" stroke="#ff0000" stroke-width="6"/>
<path d="M190,194v -79" fill="none" stroke="#ff0000" stroke-width="6"/>
<g stroke="#ff0000" stroke-width="6" fill="#ff0000">
<circle cx="190" cy="197" r="3.5"/>
</g>
<path d="M411,197v -97" fill="none" stroke="#ff0000" stroke-width="6"/>
<path d="M411,94v -57" fill="none" stroke="#ff0000" stroke-width="6"/>
<g stroke="#ff0000" stroke-width="6" fill="#ff0000">
<circle cx="411" cy="97" r="3.5"/>
</g>
<path d="M80,395v -198h 220v -100h 222" fill="none" stroke="#ff0000" stroke-width="6"/>
<path d="M332,107h 42" fill="none" stroke="#ff0000" stroke-width="6"/>
<rect x="113" y="-4" width="392" height="40" fill="white"/>
<text x="128" y="25" fill="black" font-size="31" font-family="Helvetica" font-weight="bold">
IGHJ6_star_03-j_5p_del
</text></svg>
