<?xml version="1.0" standalone="no"?>
<svg width="567" height="466" viewBox="0 0 567 466" xmlns="http://www.w3.org/2000/svg">
<title>
_plots/example/hmm/performance/plots/d_hamming_to_true_naive.svg
</title>
<desc>
Creator: ROOT Version 5.34/14
CreationDate: Tue Jul 28 23:41:12 2015</desc>
<defs>
</defs>
<rect x="0" y="0" width="567" height="466" fill="white"/>
<rect x="79" y="37" width="443" height="359" fill="none" stroke="black"/>
<rect x="79" y="37" width="443" height="359" fill="none" stroke="black"/>
<path d="M79,396h 443" fill="none" stroke="black" stroke-width="3"/>
<text x="268" y="446" fill="black" font-size="32" font-family="Times" font-weight="bold">
hamming distance
</text>
<path d="M116,385v 11" fill="none" stroke="black" stroke-width="3"/>
<path d="M153,391v 5" fill="none" stroke="black" stroke-width="3"/>
<path d="M190,391v 5" fill="none" stroke="black" stroke-width="3"/>
<path d="M227,391v 5" fill="none" stroke="black" stroke-width="3"/>
<path d="M264,385v 11" fill="none" stroke="black" stroke-width="3"/>
<path d="M300,391v 5" fill="none" stroke="black" stroke-width="3"/>
<path d="M337,391v 5" fill="none" stroke="black" stroke-width="3"/>
<path d="M374,391v 5" fill="none" stroke="black" stroke-width="3"/>
<path d="M411,385v 11" fill="none" stroke="black" stroke-width="3"/>
<path d="M116,385v 11" fill="none" stroke="black" stroke-width="3"/>
<path d="M79,391v 5" fill="none" stroke="black" stroke-width="3"/>
<path d="M411,385v 11" fill="none" stroke="black" stroke-width="3"/>
<path d="M448,391v 5" fill="none" stroke="black" stroke-width="3"/>
<path d="M485,391v 5" fill="none" stroke="black" stroke-width="3"/>
<text x="110" y="416" fill="black" font-size="21" font-family="Times" font-weight="bold">
0
</text>
<text x="257" y="416" fill="black" font-size="21" font-family="Times" font-weight="bold">
2
</text>
<text x="405" y="416" fill="black" font-size="21" font-family="Times" font-weight="bold">
4
</text>
<path d="M79,37h 443" fill="none" stroke="black" stroke-width="3"/>
<path d="M116,48v -11" fill="none" stroke="black" stroke-width="3"/>
<path d="M153,43v -6" fill="none" stroke="black" stroke-width="3"/>
<path d="M190,43v -6" fill="none" stroke="black" stroke-width="3"/>
<path d="M227,43v -6" fill="none" stroke="black" stroke-width="3"/>
<path d="M264,48v -11" fill="none" stroke="black" stroke-width="3"/>
<path d="M300,43v -6" fill="none" stroke="black" stroke-width="3"/>
<path d="M337,43v -6" fill="none" stroke="black" stroke-width="3"/>
<path d="M374,43v -6" fill="none" stroke="black" stroke-width="3"/>
<path d="M411,48v -11" fill="none" stroke="black" stroke-width="3"/>
<path d="M116,48v -11" fill="none" stroke="black" stroke-width="3"/>
<path d="M79,43v -6" fill="none" stroke="black" stroke-width="3"/>
<path d="M411,48v -11" fill="none" stroke="black" stroke-width="3"/>
<path d="M448,43v -6" fill="none" stroke="black" stroke-width="3"/>
<path d="M485,43v -6" fill="none" stroke="black" stroke-width="3"/>
<path d="M79,396v -359" fill="none" stroke="black" stroke-width="3"/>
<path d="M92,396h -13" fill="none" stroke="black" stroke-width="3"/>
<path d="M86,375h -7" fill="none" stroke="black" stroke-width="3"/>
<path d="M86,355h -7" fill="none" stroke="black" stroke-width="3"/>
<path d="M86,334h -7" fill="none" stroke="black" stroke-width="3"/>
<path d="M92,313h -13" fill="none" stroke="black" stroke-width="3"/>
<path d="M86,292h -7" fill="none" stroke="black" stroke-width="3"/>
<path d="M86,272h -7" fill="none" stroke="black" stroke-width="3"/>
<path d="M86,251h -7" fill="none" stroke="black" stroke-width="3"/>
<path d="M92,230h -13" fill="none" stroke="black" stroke-width="3"/>
<path d="M86,209h -7" fill="none" stroke="black" stroke-width="3"/>
<path d="M86,188h -7" fill="none" stroke="black" stroke-width="3"/>
<path d="M86,168h -7" fill="none" stroke="black" stroke-width="3"/>
<path d="M92,147h -13" fill="none" stroke="black" stroke-width="3"/>
<path d="M86,126h -7" fill="none" stroke="black" stroke-width="3"/>
<path d="M86,105h -7" fill="none" stroke="black" stroke-width="3"/>
<path d="M86,85h -7" fill="none" stroke="black" stroke-width="3"/>
<path d="M92,64h -13" fill="none" stroke="black" stroke-width="3"/>
<path d="M92,64h -13" fill="none" stroke="black" stroke-width="3"/>
<path d="M86,43h -7" fill="none" stroke="black" stroke-width="3"/>
<text x="46" y="404" fill="black" font-size="21" font-family="Times" font-weight="bold">
0.0
</text>
<text x="46" y="321" fill="black" font-size="21" font-family="Times" font-weight="bold">
0.2
</text>
<text x="46" y="238" fill="black" font-size="21" font-family="Times" font-weight="bold">
0.4
</text>
<text x="46" y="155" fill="black" font-size="21" font-family="Times" font-weight="bold">
0.6
</text>
<text x="46" y="72" fill="black" font-size="21" font-family="Times" font-weight="bold">
0.8
</text>
<path d="M522,396v -359" fill="none" stroke="black" stroke-width="3"/>
<path d="M508,396h 14" fill="none" stroke="black" stroke-width="3"/>
<path d="M515,375h 7" fill="none" stroke="black" stroke-width="3"/>
<path d="M515,355h 7" fill="none" stroke="black" stroke-width="3"/>
<path d="M515,334h 7" fill="none" stroke="black" stroke-width="3"/>
<path d="M508,313h 14" fill="none" stroke="black" stroke-width="3"/>
<path d="M515,292h 7" fill="none" stroke="black" stroke-width="3"/>
<path d="M515,272h 7" fill="none" stroke="black" stroke-width="3"/>
<path d="M515,251h 7" fill="none" stroke="black" stroke-width="3"/>
<path d="M508,230h 14" fill="none" stroke="black" stroke-width="3"/>
<path d="M515,209h 7" fill="none" stroke="black" stroke-width="3"/>
<path d="M515,188h 7" fill="none" stroke="black" stroke-width="3"/>
<path d="M515,168h 7" fill="none" stroke="black" stroke-width="3"/>
<path d="M508,147h 14" fill="none" stroke="black" stroke-width="3"/>
<path d="M515,126h 7" fill="none" stroke="black" stroke-width="3"/>
<path d="M515,105h 7" fill="none" stroke="black" stroke-width="3"/>
<path d="M515,85h 7" fill="none" stroke="black" stroke-width="3"/>
<path d="M508,64h 14" fill="none" stroke="black" stroke-width="3"/>
<path d="M508,64h 14" fill="none" stroke="black" stroke-width="3"/>
<path d="M515,43h 7" fill="none" stroke="black" stroke-width="3"/>
<rect x="113" y="-4" width="397" height="40" fill="white"/>
<text x="130" y="24" fill="black" font-size="28" font-family="Helvetica" font-weight="bold">
d_hamming_to_true_naive
</text>
<path d="M80,395v -298h 73v 260h 74v -2h 73v 23h 74v 7h 74v 4h 74" fill="none" stroke="#ff0000" stroke-width="6"/>
<path d="M332,107h 42" fill="none" stroke="#ff0000" stroke-width="6"/>
<rect x="113" y="-4" width="397" height="40" fill="white"/>
<text x="130" y="24" fill="black" font-size="28" font-family="Helvetica" font-weight="bold">
d_hamming_to_true_naive
</text></svg>
