<?xml version="1.0" standalone="no"?>
<svg width="567" height="466" viewBox="0 0 567 466" xmlns="http://www.w3.org/2000/svg">
<title>
/bbx/output/_plots/example/hmm/d_5p_del/plots/IGHD2-2_star_03-d_5p_del.svg
</title>
<desc>
Creator: ROOT Version 5.34/14
CreationDate: Wed Aug 19 19:38:30 2015</desc>
<defs>
</defs>
<rect x="0" y="0" width="567" height="466" fill="white"/>
<rect x="79" y="37" width="443" height="359" fill="none" stroke="black"/>
<rect x="79" y="37" width="443" height="359" fill="none" stroke="black"/>
<path d="M79,396h 443" fill="none" stroke="black" stroke-width="3"/>
<path d="M92,385v 11" fill="none" stroke="black" stroke-width="3"/>
<path d="M118,391v 5" fill="none" stroke="black" stroke-width="3"/>
<path d="M144,391v 5" fill="none" stroke="black" stroke-width="3"/>
<path d="M170,391v 5" fill="none" stroke="black" stroke-width="3"/>
<path d="M196,391v 5" fill="none" stroke="black" stroke-width="3"/>
<path d="M222,385v 11" fill="none" stroke="black" stroke-width="3"/>
<path d="M248,391v 5" fill="none" stroke="black" stroke-width="3"/>
<path d="M274,391v 5" fill="none" stroke="black" stroke-width="3"/>
<path d="M300,391v 5" fill="none" stroke="black" stroke-width="3"/>
<path d="M326,391v 5" fill="none" stroke="black" stroke-width="3"/>
<path d="M352,385v 11" fill="none" stroke="black" stroke-width="3"/>
<path d="M379,391v 5" fill="none" stroke="black" stroke-width="3"/>
<path d="M405,391v 5" fill="none" stroke="black" stroke-width="3"/>
<path d="M431,391v 5" fill="none" stroke="black" stroke-width="3"/>
<path d="M457,391v 5" fill="none" stroke="black" stroke-width="3"/>
<path d="M483,385v 11" fill="none" stroke="black" stroke-width="3"/>
<path d="M92,385v 11" fill="none" stroke="black" stroke-width="3"/>
<path d="M483,385v 11" fill="none" stroke="black" stroke-width="3"/>
<path d="M509,391v 5" fill="none" stroke="black" stroke-width="3"/>
<text x="86" y="416" fill="black" font-size="21" font-family="Times" font-weight="bold">
0
</text>
<text x="217" y="416" fill="black" font-size="21" font-family="Times" font-weight="bold">
5
</text>
<text x="340" y="416" fill="black" font-size="21" font-family="Times" font-weight="bold">
10
</text>
<text x="471" y="416" fill="black" font-size="21" font-family="Times" font-weight="bold">
15
</text>
<path d="M79,37h 443" fill="none" stroke="black" stroke-width="3"/>
<path d="M92,48v -11" fill="none" stroke="black" stroke-width="3"/>
<path d="M118,43v -6" fill="none" stroke="black" stroke-width="3"/>
<path d="M144,43v -6" fill="none" stroke="black" stroke-width="3"/>
<path d="M170,43v -6" fill="none" stroke="black" stroke-width="3"/>
<path d="M196,43v -6" fill="none" stroke="black" stroke-width="3"/>
<path d="M222,48v -11" fill="none" stroke="black" stroke-width="3"/>
<path d="M248,43v -6" fill="none" stroke="black" stroke-width="3"/>
<path d="M274,43v -6" fill="none" stroke="black" stroke-width="3"/>
<path d="M300,43v -6" fill="none" stroke="black" stroke-width="3"/>
<path d="M326,43v -6" fill="none" stroke="black" stroke-width="3"/>
<path d="M352,48v -11" fill="none" stroke="black" stroke-width="3"/>
<path d="M379,43v -6" fill="none" stroke="black" stroke-width="3"/>
<path d="M405,43v -6" fill="none" stroke="black" stroke-width="3"/>
<path d="M431,43v -6" fill="none" stroke="black" stroke-width="3"/>
<path d="M457,43v -6" fill="none" stroke="black" stroke-width="3"/>
<path d="M483,48v -11" fill="none" stroke="black" stroke-width="3"/>
<path d="M92,48v -11" fill="none" stroke="black" stroke-width="3"/>
<path d="M483,48v -11" fill="none" stroke="black" stroke-width="3"/>
<path d="M509,43v -6" fill="none" stroke="black" stroke-width="3"/>
<path d="M79,396v -359" fill="none" stroke="black" stroke-width="3"/>
<path d="M92,396h -13" fill="none" stroke="black" stroke-width="3"/>
<path d="M86,371h -7" fill="none" stroke="black" stroke-width="3"/>
<path d="M86,346h -7" fill="none" stroke="black" stroke-width="3"/>
<path d="M86,321h -7" fill="none" stroke="black" stroke-width="3"/>
<path d="M92,296h -13" fill="none" stroke="black" stroke-width="3"/>
<path d="M86,272h -7" fill="none" stroke="black" stroke-width="3"/>
<path d="M86,247h -7" fill="none" stroke="black" stroke-width="3"/>
<path d="M86,222h -7" fill="none" stroke="black" stroke-width="3"/>
<path d="M92,197h -13" fill="none" stroke="black" stroke-width="3"/>
<path d="M86,172h -7" fill="none" stroke="black" stroke-width="3"/>
<path d="M86,147h -7" fill="none" stroke="black" stroke-width="3"/>
<path d="M86,122h -7" fill="none" stroke="black" stroke-width="3"/>
<path d="M92,97h -13" fill="none" stroke="black" stroke-width="3"/>
<path d="M92,97h -13" fill="none" stroke="black" stroke-width="3"/>
<path d="M86,72h -7" fill="none" stroke="black" stroke-width="3"/>
<path d="M86,47h -7" fill="none" stroke="black" stroke-width="3"/>
<text x="63" y="404" fill="black" font-size="21" font-family="Times" font-weight="bold">
0
</text>
<text x="63" y="304" fill="black" font-size="21" font-family="Times" font-weight="bold">
2
</text>
<text x="63" y="205" fill="black" font-size="21" font-family="Times" font-weight="bold">
4
</text>
<text x="63" y="105" fill="black" font-size="21" font-family="Times" font-weight="bold">
6
</text>
<path d="M522,396v -359" fill="none" stroke="black" stroke-width="3"/>
<path d="M508,396h 14" fill="none" stroke="black" stroke-width="3"/>
<path d="M515,371h 7" fill="none" stroke="black" stroke-width="3"/>
<path d="M515,346h 7" fill="none" stroke="black" stroke-width="3"/>
<path d="M515,321h 7" fill="none" stroke="black" stroke-width="3"/>
<path d="M508,296h 14" fill="none" stroke="black" stroke-width="3"/>
<path d="M515,272h 7" fill="none" stroke="black" stroke-width="3"/>
<path d="M515,247h 7" fill="none" stroke="black" stroke-width="3"/>
<path d="M515,222h 7" fill="none" stroke="black" stroke-width="3"/>
<path d="M508,197h 14" fill="none" stroke="black" stroke-width="3"/>
<path d="M515,172h 7" fill="none" stroke="black" stroke-width="3"/>
<path d="M515,147h 7" fill="none" stroke="black" stroke-width="3"/>
<path d="M515,122h 7" fill="none" stroke="black" stroke-width="3"/>
<path d="M508,97h 14" fill="none" stroke="black" stroke-width="3"/>
<path d="M508,97h 14" fill="none" stroke="black" stroke-width="3"/>
<path d="M515,72h 7" fill="none" stroke="black" stroke-width="3"/>
<path d="M515,47h 7" fill="none" stroke="black" stroke-width="3"/>
<rect x="113" y="-4" width="397" height="40" fill="white"/>
<text x="130" y="24" fill="black" font-size="28" font-family="Helvetica" font-weight="bold">
IGHD2-2_star_03-d_5p_del
</text>
<path d="M92,396v -46" fill="none" stroke="#ff0000" stroke-width="6"/>
<path d="M92,343v -47" fill="none" stroke="#ff0000" stroke-width="6"/>
<g stroke="#ff0000" stroke-width="6" fill="#ff0000">
<circle cx="92" cy="346" r="3.5"/>
</g>
<path d="M509,219v -119" fill="none" stroke="#ff0000" stroke-width="6"/>
<path d="M509,94v -57" fill="none" stroke="#ff0000" stroke-width="6"/>
<g stroke="#ff0000" stroke-width="6" fill="#ff0000">
<circle cx="509" cy="97" r="3.5"/>
</g>
<path d="M80,395v -49h 25v 49h 391v -298h 26" fill="none" stroke="#ff0000" stroke-width="6"/>
<path d="M332,107h 42" fill="none" stroke="#ff0000" stroke-width="6"/>
<rect x="113" y="-4" width="397" height="40" fill="white"/>
<text x="130" y="24" fill="black" font-size="28" font-family="Helvetica" font-weight="bold">
IGHD2-2_star_03-d_5p_del
</text></svg>
