<?xml version="1.0" standalone="no"?>
<svg width="567" height="466" viewBox="0 0 567 466" xmlns="http://www.w3.org/2000/svg">
<title>
/bbx/output/_plots/example/hmm/mute-freqs/v/plots/IGHV3-30_star_15.svg
</title>
<desc>
Creator: ROOT Version 5.34/14
CreationDate: Wed Aug 19 19:38:32 2015</desc>
<defs>
</defs>
<rect x="0" y="0" width="567" height="466" fill="white"/>
<rect x="79" y="37" width="443" height="359" fill="none" stroke="black"/>
<rect x="79" y="37" width="443" height="359" fill="none" stroke="black"/>
<path d="M79,396h 443" fill="none" stroke="black" stroke-width="3"/>
<path d="M138,385v 11" fill="none" stroke="black" stroke-width="3"/>
<path d="M163,391v 5" fill="none" stroke="black" stroke-width="3"/>
<path d="M189,391v 5" fill="none" stroke="black" stroke-width="3"/>
<path d="M214,391v 5" fill="none" stroke="black" stroke-width="3"/>
<path d="M239,385v 11" fill="none" stroke="black" stroke-width="3"/>
<path d="M265,391v 5" fill="none" stroke="black" stroke-width="3"/>
<path d="M290,391v 5" fill="none" stroke="black" stroke-width="3"/>
<path d="M316,391v 5" fill="none" stroke="black" stroke-width="3"/>
<path d="M341,385v 11" fill="none" stroke="black" stroke-width="3"/>
<path d="M367,391v 5" fill="none" stroke="black" stroke-width="3"/>
<path d="M392,391v 5" fill="none" stroke="black" stroke-width="3"/>
<path d="M417,391v 5" fill="none" stroke="black" stroke-width="3"/>
<path d="M443,385v 11" fill="none" stroke="black" stroke-width="3"/>
<path d="M138,385v 11" fill="none" stroke="black" stroke-width="3"/>
<path d="M112,391v 5" fill="none" stroke="black" stroke-width="3"/>
<path d="M87,391v 5" fill="none" stroke="black" stroke-width="3"/>
<path d="M443,385v 11" fill="none" stroke="black" stroke-width="3"/>
<path d="M468,391v 5" fill="none" stroke="black" stroke-width="3"/>
<path d="M494,391v 5" fill="none" stroke="black" stroke-width="3"/>
<path d="M519,391v 5" fill="none" stroke="black" stroke-width="3"/>
<text x="121" y="416" fill="black" font-size="21" font-family="Times" font-weight="bold">
220
</text>
<text x="223" y="416" fill="black" font-size="21" font-family="Times" font-weight="bold">
240
</text>
<text x="324" y="416" fill="black" font-size="21" font-family="Times" font-weight="bold">
260
</text>
<text x="426" y="416" fill="black" font-size="21" font-family="Times" font-weight="bold">
280
</text>
<path d="M79,37h 443" fill="none" stroke="black" stroke-width="3"/>
<path d="M138,48v -11" fill="none" stroke="black" stroke-width="3"/>
<path d="M163,43v -6" fill="none" stroke="black" stroke-width="3"/>
<path d="M189,43v -6" fill="none" stroke="black" stroke-width="3"/>
<path d="M214,43v -6" fill="none" stroke="black" stroke-width="3"/>
<path d="M239,48v -11" fill="none" stroke="black" stroke-width="3"/>
<path d="M265,43v -6" fill="none" stroke="black" stroke-width="3"/>
<path d="M290,43v -6" fill="none" stroke="black" stroke-width="3"/>
<path d="M316,43v -6" fill="none" stroke="black" stroke-width="3"/>
<path d="M341,48v -11" fill="none" stroke="black" stroke-width="3"/>
<path d="M367,43v -6" fill="none" stroke="black" stroke-width="3"/>
<path d="M392,43v -6" fill="none" stroke="black" stroke-width="3"/>
<path d="M417,43v -6" fill="none" stroke="black" stroke-width="3"/>
<path d="M443,48v -11" fill="none" stroke="black" stroke-width="3"/>
<path d="M138,48v -11" fill="none" stroke="black" stroke-width="3"/>
<path d="M112,43v -6" fill="none" stroke="black" stroke-width="3"/>
<path d="M87,43v -6" fill="none" stroke="black" stroke-width="3"/>
<path d="M443,48v -11" fill="none" stroke="black" stroke-width="3"/>
<path d="M468,43v -6" fill="none" stroke="black" stroke-width="3"/>
<path d="M494,43v -6" fill="none" stroke="black" stroke-width="3"/>
<path d="M519,43v -6" fill="none" stroke="black" stroke-width="3"/>
<path d="M79,396v -359" fill="none" stroke="black" stroke-width="3"/>
<path d="M92,396h -13" fill="none" stroke="black" stroke-width="3"/>
<path d="M86,366h -7" fill="none" stroke="black" stroke-width="3"/>
<path d="M86,336h -7" fill="none" stroke="black" stroke-width="3"/>
<path d="M86,306h -7" fill="none" stroke="black" stroke-width="3"/>
<path d="M92,277h -13" fill="none" stroke="black" stroke-width="3"/>
<path d="M86,247h -7" fill="none" stroke="black" stroke-width="3"/>
<path d="M86,217h -7" fill="none" stroke="black" stroke-width="3"/>
<path d="M86,187h -7" fill="none" stroke="black" stroke-width="3"/>
<path d="M92,157h -13" fill="none" stroke="black" stroke-width="3"/>
<path d="M86,127h -7" fill="none" stroke="black" stroke-width="3"/>
<path d="M86,97h -7" fill="none" stroke="black" stroke-width="3"/>
<path d="M86,67h -7" fill="none" stroke="black" stroke-width="3"/>
<path d="M92,37h -13" fill="none" stroke="black" stroke-width="3"/>
<path d="M92,37h -13" fill="none" stroke="black" stroke-width="3"/>
<text x="46" y="404" fill="black" font-size="21" font-family="Times" font-weight="bold">
0.0
</text>
<text x="46" y="284" fill="black" font-size="21" font-family="Times" font-weight="bold">
0.2
</text>
<text x="46" y="165" fill="black" font-size="21" font-family="Times" font-weight="bold">
0.4
</text>
<text x="46" y="45" fill="black" font-size="21" font-family="Times" font-weight="bold">
0.6
</text>
<path d="M522,396v -359" fill="none" stroke="black" stroke-width="3"/>
<path d="M508,396h 14" fill="none" stroke="black" stroke-width="3"/>
<path d="M515,366h 7" fill="none" stroke="black" stroke-width="3"/>
<path d="M515,336h 7" fill="none" stroke="black" stroke-width="3"/>
<path d="M515,306h 7" fill="none" stroke="black" stroke-width="3"/>
<path d="M508,277h 14" fill="none" stroke="black" stroke-width="3"/>
<path d="M515,247h 7" fill="none" stroke="black" stroke-width="3"/>
<path d="M515,217h 7" fill="none" stroke="black" stroke-width="3"/>
<path d="M515,187h 7" fill="none" stroke="black" stroke-width="3"/>
<path d="M508,157h 14" fill="none" stroke="black" stroke-width="3"/>
<path d="M515,127h 7" fill="none" stroke="black" stroke-width="3"/>
<path d="M515,97h 7" fill="none" stroke="black" stroke-width="3"/>
<path d="M515,67h 7" fill="none" stroke="black" stroke-width="3"/>
<path d="M508,37h 14" fill="none" stroke="black" stroke-width="3"/>
<path d="M508,37h 14" fill="none" stroke="black" stroke-width="3"/>
<rect x="113" y="-4" width="303" height="38" fill="white"/>
<text x="135" y="24" fill="black" font-size="30" font-family="Helvetica" font-weight="bold">
IGHV3-30_star_15
</text>
<path d="M82,393v -69" fill="none" stroke="#ff0000" stroke-width="6"/>
<g stroke="#ff0000" stroke-width="6" fill="#ff0000">
<circle cx="82" cy="396" r="3.5"/>
</g>
<path d="M87,393v -69" fill="none" stroke="#ff0000" stroke-width="6"/>
<g stroke="#ff0000" stroke-width="6" fill="#ff0000">
<circle cx="87" cy="396" r="3.5"/>
</g>
<path d="M92,322v -122" fill="none" stroke="#ff0000" stroke-width="6"/>
<path d="M92,194v -123" fill="none" stroke="#ff0000" stroke-width="6"/>
<g stroke="#ff0000" stroke-width="6" fill="#ff0000">
<circle cx="92" cy="197" r="3.5"/>
</g>
<path d="M97,393v -69" fill="none" stroke="#ff0000" stroke-width="6"/>
<g stroke="#ff0000" stroke-width="6" fill="#ff0000">
<circle cx="97" cy="396" r="3.5"/>
</g>
<path d="M102,393v -69" fill="none" stroke="#ff0000" stroke-width="6"/>
<g stroke="#ff0000" stroke-width="6" fill="#ff0000">
<circle cx="102" cy="396" r="3.5"/>
</g>
<path d="M107,393v -69" fill="none" stroke="#ff0000" stroke-width="6"/>
<g stroke="#ff0000" stroke-width="6" fill="#ff0000">
<circle cx="107" cy="396" r="3.5"/>
</g>
<path d="M112,393v -69" fill="none" stroke="#ff0000" stroke-width="6"/>
<g stroke="#ff0000" stroke-width="6" fill="#ff0000">
<circle cx="112" cy="396" r="3.5"/>
</g>
<path d="M117,393v -69" fill="none" stroke="#ff0000" stroke-width="6"/>
<g stroke="#ff0000" stroke-width="6" fill="#ff0000">
<circle cx="117" cy="396" r="3.5"/>
</g>
<path d="M123,393v -69" fill="none" stroke="#ff0000" stroke-width="6"/>
<g stroke="#ff0000" stroke-width="6" fill="#ff0000">
<circle cx="123" cy="396" r="3.5"/>
</g>
<path d="M128,393v -69" fill="none" stroke="#ff0000" stroke-width="6"/>
<g stroke="#ff0000" stroke-width="6" fill="#ff0000">
<circle cx="128" cy="396" r="3.5"/>
</g>
<path d="M133,393v -69" fill="none" stroke="#ff0000" stroke-width="6"/>
<g stroke="#ff0000" stroke-width="6" fill="#ff0000">
<circle cx="133" cy="396" r="3.5"/>
</g>
<path d="M138,393v -69" fill="none" stroke="#ff0000" stroke-width="6"/>
<g stroke="#ff0000" stroke-width="6" fill="#ff0000">
<circle cx="138" cy="396" r="3.5"/>
</g>
<path d="M143,393v -56" fill="none" stroke="#ff0000" stroke-width="6"/>
<g stroke="#ff0000" stroke-width="6" fill="#ff0000">
<circle cx="143" cy="396" r="3.5"/>
</g>
<path d="M148,356v -106" fill="none" stroke="#ff0000" stroke-width="6"/>
<path d="M148,243v -106" fill="none" stroke="#ff0000" stroke-width="6"/>
<g stroke="#ff0000" stroke-width="6" fill="#ff0000">
<circle cx="148" cy="247" r="3.5"/>
</g>
<path d="M153,393v -56" fill="none" stroke="#ff0000" stroke-width="6"/>
<g stroke="#ff0000" stroke-width="6" fill="#ff0000">
<circle cx="153" cy="396" r="3.5"/>
</g>
<path d="M158,393v -56" fill="none" stroke="#ff0000" stroke-width="6"/>
<g stroke="#ff0000" stroke-width="6" fill="#ff0000">
<circle cx="158" cy="396" r="3.5"/>
</g>
<path d="M163,393v -56" fill="none" stroke="#ff0000" stroke-width="6"/>
<g stroke="#ff0000" stroke-width="6" fill="#ff0000">
<circle cx="163" cy="396" r="3.5"/>
</g>
<path d="M168,393v -56" fill="none" stroke="#ff0000" stroke-width="6"/>
<g stroke="#ff0000" stroke-width="6" fill="#ff0000">
<circle cx="168" cy="396" r="3.5"/>
</g>
<path d="M173,393v -56" fill="none" stroke="#ff0000" stroke-width="6"/>
<g stroke="#ff0000" stroke-width="6" fill="#ff0000">
<circle cx="173" cy="396" r="3.5"/>
</g>
<path d="M178,393v -56" fill="none" stroke="#ff0000" stroke-width="6"/>
<g stroke="#ff0000" stroke-width="6" fill="#ff0000">
<circle cx="178" cy="396" r="3.5"/>
</g>
<path d="M184,393v -56" fill="none" stroke="#ff0000" stroke-width="6"/>
<g stroke="#ff0000" stroke-width="6" fill="#ff0000">
<circle cx="184" cy="396" r="3.5"/>
</g>
<path d="M189,393v -56" fill="none" stroke="#ff0000" stroke-width="6"/>
<g stroke="#ff0000" stroke-width="6" fill="#ff0000">
<circle cx="189" cy="396" r="3.5"/>
</g>
<path d="M194,393v -56" fill="none" stroke="#ff0000" stroke-width="6"/>
<g stroke="#ff0000" stroke-width="6" fill="#ff0000">
<circle cx="194" cy="396" r="3.5"/>
</g>
<path d="M199,393v -56" fill="none" stroke="#ff0000" stroke-width="6"/>
<g stroke="#ff0000" stroke-width="6" fill="#ff0000">
<circle cx="199" cy="396" r="3.5"/>
</g>
<path d="M204,393v -56" fill="none" stroke="#ff0000" stroke-width="6"/>
<g stroke="#ff0000" stroke-width="6" fill="#ff0000">
<circle cx="204" cy="396" r="3.5"/>
</g>
<path d="M209,356v -106" fill="none" stroke="#ff0000" stroke-width="6"/>
<path d="M209,243v -106" fill="none" stroke="#ff0000" stroke-width="6"/>
<g stroke="#ff0000" stroke-width="6" fill="#ff0000">
<circle cx="209" cy="247" r="3.5"/>
</g>
<path d="M214,393v -56" fill="none" stroke="#ff0000" stroke-width="6"/>
<g stroke="#ff0000" stroke-width="6" fill="#ff0000">
<circle cx="214" cy="396" r="3.5"/>
</g>
<path d="M219,393v -56" fill="none" stroke="#ff0000" stroke-width="6"/>
<g stroke="#ff0000" stroke-width="6" fill="#ff0000">
<circle cx="219" cy="396" r="3.5"/>
</g>
<path d="M224,393v -56" fill="none" stroke="#ff0000" stroke-width="6"/>
<g stroke="#ff0000" stroke-width="6" fill="#ff0000">
<circle cx="224" cy="396" r="3.5"/>
</g>
<path d="M229,393v -56" fill="none" stroke="#ff0000" stroke-width="6"/>
<g stroke="#ff0000" stroke-width="6" fill="#ff0000">
<circle cx="229" cy="396" r="3.5"/>
</g>
<path d="M234,393v -56" fill="none" stroke="#ff0000" stroke-width="6"/>
<g stroke="#ff0000" stroke-width="6" fill="#ff0000">
<circle cx="234" cy="396" r="3.5"/>
</g>
<path d="M239,356v -106" fill="none" stroke="#ff0000" stroke-width="6"/>
<path d="M239,243v -106" fill="none" stroke="#ff0000" stroke-width="6"/>
<g stroke="#ff0000" stroke-width="6" fill="#ff0000">
<circle cx="239" cy="247" r="3.5"/>
</g>
<path d="M245,393v -56" fill="none" stroke="#ff0000" stroke-width="6"/>
<g stroke="#ff0000" stroke-width="6" fill="#ff0000">
<circle cx="245" cy="396" r="3.5"/>
</g>
<path d="M250,393v -56" fill="none" stroke="#ff0000" stroke-width="6"/>
<g stroke="#ff0000" stroke-width="6" fill="#ff0000">
<circle cx="250" cy="396" r="3.5"/>
</g>
<path d="M255,393v -56" fill="none" stroke="#ff0000" stroke-width="6"/>
<g stroke="#ff0000" stroke-width="6" fill="#ff0000">
<circle cx="255" cy="396" r="3.5"/>
</g>
<path d="M260,393v -56" fill="none" stroke="#ff0000" stroke-width="6"/>
<g stroke="#ff0000" stroke-width="6" fill="#ff0000">
<circle cx="260" cy="396" r="3.5"/>
</g>
<path d="M265,393v -56" fill="none" stroke="#ff0000" stroke-width="6"/>
<g stroke="#ff0000" stroke-width="6" fill="#ff0000">
<circle cx="265" cy="396" r="3.5"/>
</g>
<path d="M270,393v -56" fill="none" stroke="#ff0000" stroke-width="6"/>
<g stroke="#ff0000" stroke-width="6" fill="#ff0000">
<circle cx="270" cy="396" r="3.5"/>
</g>
<path d="M275,393v -56" fill="none" stroke="#ff0000" stroke-width="6"/>
<g stroke="#ff0000" stroke-width="6" fill="#ff0000">
<circle cx="275" cy="396" r="3.5"/>
</g>
<path d="M280,393v -56" fill="none" stroke="#ff0000" stroke-width="6"/>
<g stroke="#ff0000" stroke-width="6" fill="#ff0000">
<circle cx="280" cy="396" r="3.5"/>
</g>
<path d="M285,393v -56" fill="none" stroke="#ff0000" stroke-width="6"/>
<g stroke="#ff0000" stroke-width="6" fill="#ff0000">
<circle cx="285" cy="396" r="3.5"/>
</g>
<path d="M290,393v -56" fill="none" stroke="#ff0000" stroke-width="6"/>
<g stroke="#ff0000" stroke-width="6" fill="#ff0000">
<circle cx="290" cy="396" r="3.5"/>
</g>
<path d="M295,393v -56" fill="none" stroke="#ff0000" stroke-width="6"/>
<g stroke="#ff0000" stroke-width="6" fill="#ff0000">
<circle cx="295" cy="396" r="3.5"/>
</g>
<path d="M300,393v -56" fill="none" stroke="#ff0000" stroke-width="6"/>
<g stroke="#ff0000" stroke-width="6" fill="#ff0000">
<circle cx="300" cy="396" r="3.5"/>
</g>
<path d="M306,356v -106" fill="none" stroke="#ff0000" stroke-width="6"/>
<path d="M306,243v -106" fill="none" stroke="#ff0000" stroke-width="6"/>
<g stroke="#ff0000" stroke-width="6" fill="#ff0000">
<circle cx="306" cy="247" r="3.5"/>
</g>
<path d="M311,215v -115" fill="none" stroke="#ff0000" stroke-width="6"/>
<path d="M311,94v -57" fill="none" stroke="#ff0000" stroke-width="6"/>
<g stroke="#ff0000" stroke-width="6" fill="#ff0000">
<circle cx="311" cy="97" r="3.5"/>
</g>
<path d="M316,393v -56" fill="none" stroke="#ff0000" stroke-width="6"/>
<g stroke="#ff0000" stroke-width="6" fill="#ff0000">
<circle cx="316" cy="396" r="3.5"/>
</g>
<path d="M321,393v -56" fill="none" stroke="#ff0000" stroke-width="6"/>
<g stroke="#ff0000" stroke-width="6" fill="#ff0000">
<circle cx="321" cy="396" r="3.5"/>
</g>
<path d="M326,393v -56" fill="none" stroke="#ff0000" stroke-width="6"/>
<g stroke="#ff0000" stroke-width="6" fill="#ff0000">
<circle cx="326" cy="396" r="3.5"/>
</g>
<path d="M331,393v -56" fill="none" stroke="#ff0000" stroke-width="6"/>
<g stroke="#ff0000" stroke-width="6" fill="#ff0000">
<circle cx="331" cy="396" r="3.5"/>
</g>
<path d="M336,393v -56" fill="none" stroke="#ff0000" stroke-width="6"/>
<g stroke="#ff0000" stroke-width="6" fill="#ff0000">
<circle cx="336" cy="396" r="3.5"/>
</g>
<path d="M341,393v -56" fill="none" stroke="#ff0000" stroke-width="6"/>
<g stroke="#ff0000" stroke-width="6" fill="#ff0000">
<circle cx="341" cy="396" r="3.5"/>
</g>
<path d="M346,215v -115" fill="none" stroke="#ff0000" stroke-width="6"/>
<path d="M346,94v -57" fill="none" stroke="#ff0000" stroke-width="6"/>
<g stroke="#ff0000" stroke-width="6" fill="#ff0000">
<circle cx="346" cy="97" r="3.5"/>
</g>
<path d="M351,393v -56" fill="none" stroke="#ff0000" stroke-width="6"/>
<g stroke="#ff0000" stroke-width="6" fill="#ff0000">
<circle cx="351" cy="396" r="3.5"/>
</g>
<path d="M356,393v -56" fill="none" stroke="#ff0000" stroke-width="6"/>
<g stroke="#ff0000" stroke-width="6" fill="#ff0000">
<circle cx="356" cy="396" r="3.5"/>
</g>
<path d="M361,356v -106" fill="none" stroke="#ff0000" stroke-width="6"/>
<path d="M361,243v -106" fill="none" stroke="#ff0000" stroke-width="6"/>
<g stroke="#ff0000" stroke-width="6" fill="#ff0000">
<circle cx="361" cy="247" r="3.5"/>
</g>
<path d="M367,393v -56" fill="none" stroke="#ff0000" stroke-width="6"/>
<g stroke="#ff0000" stroke-width="6" fill="#ff0000">
<circle cx="367" cy="396" r="3.5"/>
</g>
<path d="M372,356v -106" fill="none" stroke="#ff0000" stroke-width="6"/>
<path d="M372,243v -106" fill="none" stroke="#ff0000" stroke-width="6"/>
<g stroke="#ff0000" stroke-width="6" fill="#ff0000">
<circle cx="372" cy="247" r="3.5"/>
</g>
<path d="M377,356v -106" fill="none" stroke="#ff0000" stroke-width="6"/>
<path d="M377,243v -106" fill="none" stroke="#ff0000" stroke-width="6"/>
<g stroke="#ff0000" stroke-width="6" fill="#ff0000">
<circle cx="377" cy="247" r="3.5"/>
</g>
<path d="M382,393v -56" fill="none" stroke="#ff0000" stroke-width="6"/>
<g stroke="#ff0000" stroke-width="6" fill="#ff0000">
<circle cx="382" cy="396" r="3.5"/>
</g>
<path d="M387,393v -56" fill="none" stroke="#ff0000" stroke-width="6"/>
<g stroke="#ff0000" stroke-width="6" fill="#ff0000">
<circle cx="387" cy="396" r="3.5"/>
</g>
<path d="M392,393v -56" fill="none" stroke="#ff0000" stroke-width="6"/>
<g stroke="#ff0000" stroke-width="6" fill="#ff0000">
<circle cx="392" cy="396" r="3.5"/>
</g>
<path d="M397,393v -56" fill="none" stroke="#ff0000" stroke-width="6"/>
<g stroke="#ff0000" stroke-width="6" fill="#ff0000">
<circle cx="397" cy="396" r="3.5"/>
</g>
<path d="M402,356v -106" fill="none" stroke="#ff0000" stroke-width="6"/>
<path d="M402,243v -106" fill="none" stroke="#ff0000" stroke-width="6"/>
<g stroke="#ff0000" stroke-width="6" fill="#ff0000">
<circle cx="402" cy="247" r="3.5"/>
</g>
<path d="M407,356v -106" fill="none" stroke="#ff0000" stroke-width="6"/>
<path d="M407,243v -106" fill="none" stroke="#ff0000" stroke-width="6"/>
<g stroke="#ff0000" stroke-width="6" fill="#ff0000">
<circle cx="407" cy="247" r="3.5"/>
</g>
<path d="M412,356v -106" fill="none" stroke="#ff0000" stroke-width="6"/>
<path d="M412,243v -106" fill="none" stroke="#ff0000" stroke-width="6"/>
<g stroke="#ff0000" stroke-width="6" fill="#ff0000">
<circle cx="412" cy="247" r="3.5"/>
</g>
<path d="M417,393v -56" fill="none" stroke="#ff0000" stroke-width="6"/>
<g stroke="#ff0000" stroke-width="6" fill="#ff0000">
<circle cx="417" cy="396" r="3.5"/>
</g>
<path d="M422,393v -56" fill="none" stroke="#ff0000" stroke-width="6"/>
<g stroke="#ff0000" stroke-width="6" fill="#ff0000">
<circle cx="422" cy="396" r="3.5"/>
</g>
<path d="M428,393v -56" fill="none" stroke="#ff0000" stroke-width="6"/>
<g stroke="#ff0000" stroke-width="6" fill="#ff0000">
<circle cx="428" cy="396" r="3.5"/>
</g>
<path d="M433,393v -56" fill="none" stroke="#ff0000" stroke-width="6"/>
<g stroke="#ff0000" stroke-width="6" fill="#ff0000">
<circle cx="433" cy="396" r="3.5"/>
</g>
<path d="M438,393v -56" fill="none" stroke="#ff0000" stroke-width="6"/>
<g stroke="#ff0000" stroke-width="6" fill="#ff0000">
<circle cx="438" cy="396" r="3.5"/>
</g>
<path d="M443,393v -56" fill="none" stroke="#ff0000" stroke-width="6"/>
<g stroke="#ff0000" stroke-width="6" fill="#ff0000">
<circle cx="443" cy="396" r="3.5"/>
</g>
<path d="M448,393v -56" fill="none" stroke="#ff0000" stroke-width="6"/>
<g stroke="#ff0000" stroke-width="6" fill="#ff0000">
<circle cx="448" cy="396" r="3.5"/>
</g>
<path d="M453,393v -56" fill="none" stroke="#ff0000" stroke-width="6"/>
<g stroke="#ff0000" stroke-width="6" fill="#ff0000">
<circle cx="453" cy="396" r="3.5"/>
</g>
<path d="M458,393v -56" fill="none" stroke="#ff0000" stroke-width="6"/>
<g stroke="#ff0000" stroke-width="6" fill="#ff0000">
<circle cx="458" cy="396" r="3.5"/>
</g>
<path d="M463,393v -56" fill="none" stroke="#ff0000" stroke-width="6"/>
<g stroke="#ff0000" stroke-width="6" fill="#ff0000">
<circle cx="463" cy="396" r="3.5"/>
</g>
<path d="M468,393v -56" fill="none" stroke="#ff0000" stroke-width="6"/>
<g stroke="#ff0000" stroke-width="6" fill="#ff0000">
<circle cx="468" cy="396" r="3.5"/>
</g>
<path d="M473,393v -56" fill="none" stroke="#ff0000" stroke-width="6"/>
<g stroke="#ff0000" stroke-width="6" fill="#ff0000">
<circle cx="473" cy="396" r="3.5"/>
</g>
<path d="M478,393v -56" fill="none" stroke="#ff0000" stroke-width="6"/>
<g stroke="#ff0000" stroke-width="6" fill="#ff0000">
<circle cx="478" cy="396" r="3.5"/>
</g>
<path d="M483,356v -106" fill="none" stroke="#ff0000" stroke-width="6"/>
<path d="M483,243v -106" fill="none" stroke="#ff0000" stroke-width="6"/>
<g stroke="#ff0000" stroke-width="6" fill="#ff0000">
<circle cx="483" cy="247" r="3.5"/>
</g>
<path d="M489,356v -106" fill="none" stroke="#ff0000" stroke-width="6"/>
<path d="M489,243v -106" fill="none" stroke="#ff0000" stroke-width="6"/>
<g stroke="#ff0000" stroke-width="6" fill="#ff0000">
<circle cx="489" cy="247" r="3.5"/>
</g>
<path d="M494,356v -106" fill="none" stroke="#ff0000" stroke-width="6"/>
<path d="M494,243v -106" fill="none" stroke="#ff0000" stroke-width="6"/>
<g stroke="#ff0000" stroke-width="6" fill="#ff0000">
<circle cx="494" cy="247" r="3.5"/>
</g>
<path d="M499,356v -106" fill="none" stroke="#ff0000" stroke-width="6"/>
<path d="M499,243v -106" fill="none" stroke="#ff0000" stroke-width="6"/>
<g stroke="#ff0000" stroke-width="6" fill="#ff0000">
<circle cx="499" cy="247" r="3.5"/>
</g>
<path d="M504,393v -56" fill="none" stroke="#ff0000" stroke-width="6"/>
<g stroke="#ff0000" stroke-width="6" fill="#ff0000">
<circle cx="504" cy="396" r="3.5"/>
</g>
<path d="M509,356v -106" fill="none" stroke="#ff0000" stroke-width="6"/>
<path d="M509,243v -106" fill="none" stroke="#ff0000" stroke-width="6"/>
<g stroke="#ff0000" stroke-width="6" fill="#ff0000">
<circle cx="509" cy="247" r="3.5"/>
</g>
<path d="M514,393v -56" fill="none" stroke="#ff0000" stroke-width="6"/>
<g stroke="#ff0000" stroke-width="6" fill="#ff0000">
<circle cx="514" cy="396" r="3.5"/>
</g>
<path d="M519,393v -123" fill="none" stroke="#ff0000" stroke-width="6"/>
<g stroke="#ff0000" stroke-width="6" fill="#ff0000">
<circle cx="519" cy="396" r="3.5"/>
</g>
<path d="M332,107h 42" fill="none" stroke="#ff0000" stroke-width="6"/>
<path d="M468,426v -179" fill="none" stroke="black" stroke-width="3" stroke-dasharray=" 3, 3"/>
<rect x="113" y="-4" width="303" height="38" fill="white"/>
<text x="135" y="24" fill="black" font-size="30" font-family="Helvetica" font-weight="bold">
IGHV3-30_star_15
</text></svg>
