<?xml version="1.0" standalone="no"?>
<svg width="567" height="466" viewBox="0 0 567 466" xmlns="http://www.w3.org/2000/svg">
<title>
/bbx/output/_plots/example/hmm/mute-freqs/v/plots/IGHV4-59_star_08.svg
</title>
<desc>
Creator: ROOT Version 5.34/14
CreationDate: Wed Aug 19 19:38:33 2015</desc>
<defs>
</defs>
<rect x="0" y="0" width="567" height="466" fill="white"/>
<rect x="79" y="37" width="443" height="359" fill="none" stroke="black"/>
<rect x="79" y="37" width="443" height="359" fill="none" stroke="black"/>
<path d="M79,396h 443" fill="none" stroke="black" stroke-width="3"/>
<path d="M165,385v 11" fill="none" stroke="black" stroke-width="3"/>
<path d="M190,391v 5" fill="none" stroke="black" stroke-width="3"/>
<path d="M214,391v 5" fill="none" stroke="black" stroke-width="3"/>
<path d="M239,391v 5" fill="none" stroke="black" stroke-width="3"/>
<path d="M264,385v 11" fill="none" stroke="black" stroke-width="3"/>
<path d="M288,391v 5" fill="none" stroke="black" stroke-width="3"/>
<path d="M313,391v 5" fill="none" stroke="black" stroke-width="3"/>
<path d="M337,391v 5" fill="none" stroke="black" stroke-width="3"/>
<path d="M362,385v 11" fill="none" stroke="black" stroke-width="3"/>
<path d="M386,391v 5" fill="none" stroke="black" stroke-width="3"/>
<path d="M411,391v 5" fill="none" stroke="black" stroke-width="3"/>
<path d="M436,391v 5" fill="none" stroke="black" stroke-width="3"/>
<path d="M460,385v 11" fill="none" stroke="black" stroke-width="3"/>
<path d="M165,385v 11" fill="none" stroke="black" stroke-width="3"/>
<path d="M141,391v 5" fill="none" stroke="black" stroke-width="3"/>
<path d="M116,391v 5" fill="none" stroke="black" stroke-width="3"/>
<path d="M92,391v 5" fill="none" stroke="black" stroke-width="3"/>
<path d="M460,385v 11" fill="none" stroke="black" stroke-width="3"/>
<path d="M485,391v 5" fill="none" stroke="black" stroke-width="3"/>
<path d="M509,391v 5" fill="none" stroke="black" stroke-width="3"/>
<text x="149" y="416" fill="black" font-size="21" font-family="Times" font-weight="bold">
220
</text>
<text x="247" y="416" fill="black" font-size="21" font-family="Times" font-weight="bold">
240
</text>
<text x="345" y="416" fill="black" font-size="21" font-family="Times" font-weight="bold">
260
</text>
<text x="443" y="416" fill="black" font-size="21" font-family="Times" font-weight="bold">
280
</text>
<path d="M79,37h 443" fill="none" stroke="black" stroke-width="3"/>
<path d="M165,48v -11" fill="none" stroke="black" stroke-width="3"/>
<path d="M190,43v -6" fill="none" stroke="black" stroke-width="3"/>
<path d="M214,43v -6" fill="none" stroke="black" stroke-width="3"/>
<path d="M239,43v -6" fill="none" stroke="black" stroke-width="3"/>
<path d="M264,48v -11" fill="none" stroke="black" stroke-width="3"/>
<path d="M288,43v -6" fill="none" stroke="black" stroke-width="3"/>
<path d="M313,43v -6" fill="none" stroke="black" stroke-width="3"/>
<path d="M337,43v -6" fill="none" stroke="black" stroke-width="3"/>
<path d="M362,48v -11" fill="none" stroke="black" stroke-width="3"/>
<path d="M386,43v -6" fill="none" stroke="black" stroke-width="3"/>
<path d="M411,43v -6" fill="none" stroke="black" stroke-width="3"/>
<path d="M436,43v -6" fill="none" stroke="black" stroke-width="3"/>
<path d="M460,48v -11" fill="none" stroke="black" stroke-width="3"/>
<path d="M165,48v -11" fill="none" stroke="black" stroke-width="3"/>
<path d="M141,43v -6" fill="none" stroke="black" stroke-width="3"/>
<path d="M116,43v -6" fill="none" stroke="black" stroke-width="3"/>
<path d="M92,43v -6" fill="none" stroke="black" stroke-width="3"/>
<path d="M460,48v -11" fill="none" stroke="black" stroke-width="3"/>
<path d="M485,43v -6" fill="none" stroke="black" stroke-width="3"/>
<path d="M509,43v -6" fill="none" stroke="black" stroke-width="3"/>
<path d="M79,396v -359" fill="none" stroke="black" stroke-width="3"/>
<path d="M92,396h -13" fill="none" stroke="black" stroke-width="3"/>
<path d="M86,366h -7" fill="none" stroke="black" stroke-width="3"/>
<path d="M86,336h -7" fill="none" stroke="black" stroke-width="3"/>
<path d="M86,306h -7" fill="none" stroke="black" stroke-width="3"/>
<path d="M86,277h -7" fill="none" stroke="black" stroke-width="3"/>
<path d="M92,247h -13" fill="none" stroke="black" stroke-width="3"/>
<path d="M86,217h -7" fill="none" stroke="black" stroke-width="3"/>
<path d="M86,187h -7" fill="none" stroke="black" stroke-width="3"/>
<path d="M86,157h -7" fill="none" stroke="black" stroke-width="3"/>
<path d="M86,127h -7" fill="none" stroke="black" stroke-width="3"/>
<path d="M92,97h -13" fill="none" stroke="black" stroke-width="3"/>
<path d="M92,97h -13" fill="none" stroke="black" stroke-width="3"/>
<path d="M86,67h -7" fill="none" stroke="black" stroke-width="3"/>
<path d="M86,37h -7" fill="none" stroke="black" stroke-width="3"/>
<text x="46" y="404" fill="black" font-size="21" font-family="Times" font-weight="bold">
0.0
</text>
<text x="46" y="254" fill="black" font-size="21" font-family="Times" font-weight="bold">
0.5
</text>
<text x="46" y="105" fill="black" font-size="21" font-family="Times" font-weight="bold">
1.0
</text>
<path d="M522,396v -359" fill="none" stroke="black" stroke-width="3"/>
<path d="M508,396h 14" fill="none" stroke="black" stroke-width="3"/>
<path d="M515,366h 7" fill="none" stroke="black" stroke-width="3"/>
<path d="M515,336h 7" fill="none" stroke="black" stroke-width="3"/>
<path d="M515,306h 7" fill="none" stroke="black" stroke-width="3"/>
<path d="M515,277h 7" fill="none" stroke="black" stroke-width="3"/>
<path d="M508,247h 14" fill="none" stroke="black" stroke-width="3"/>
<path d="M515,217h 7" fill="none" stroke="black" stroke-width="3"/>
<path d="M515,187h 7" fill="none" stroke="black" stroke-width="3"/>
<path d="M515,157h 7" fill="none" stroke="black" stroke-width="3"/>
<path d="M515,127h 7" fill="none" stroke="black" stroke-width="3"/>
<path d="M508,97h 14" fill="none" stroke="black" stroke-width="3"/>
<path d="M508,97h 14" fill="none" stroke="black" stroke-width="3"/>
<path d="M515,67h 7" fill="none" stroke="black" stroke-width="3"/>
<path d="M515,37h 7" fill="none" stroke="black" stroke-width="3"/>
<rect x="113" y="-4" width="303" height="38" fill="white"/>
<text x="135" y="24" fill="black" font-size="30" font-family="Helvetica" font-weight="bold">
IGHV4-59_star_08
</text>
<path d="M82,393v -43" fill="none" stroke="#ff0000" stroke-width="6"/>
<g stroke="#ff0000" stroke-width="6" fill="#ff0000">
<circle cx="82" cy="396" r="3.5"/>
</g>
<path d="M87,393v -43" fill="none" stroke="#ff0000" stroke-width="6"/>
<g stroke="#ff0000" stroke-width="6" fill="#ff0000">
<circle cx="87" cy="396" r="3.5"/>
</g>
<path d="M92,393v -43" fill="none" stroke="#ff0000" stroke-width="6"/>
<g stroke="#ff0000" stroke-width="6" fill="#ff0000">
<circle cx="92" cy="396" r="3.5"/>
</g>
<path d="M97,393v -43" fill="none" stroke="#ff0000" stroke-width="6"/>
<g stroke="#ff0000" stroke-width="6" fill="#ff0000">
<circle cx="97" cy="396" r="3.5"/>
</g>
<path d="M101,393v -43" fill="none" stroke="#ff0000" stroke-width="6"/>
<g stroke="#ff0000" stroke-width="6" fill="#ff0000">
<circle cx="101" cy="396" r="3.5"/>
</g>
<path d="M106,393v -43" fill="none" stroke="#ff0000" stroke-width="6"/>
<g stroke="#ff0000" stroke-width="6" fill="#ff0000">
<circle cx="106" cy="396" r="3.5"/>
</g>
<path d="M111,393v -43" fill="none" stroke="#ff0000" stroke-width="6"/>
<g stroke="#ff0000" stroke-width="6" fill="#ff0000">
<circle cx="111" cy="396" r="3.5"/>
</g>
<path d="M116,393v -43" fill="none" stroke="#ff0000" stroke-width="6"/>
<g stroke="#ff0000" stroke-width="6" fill="#ff0000">
<circle cx="116" cy="396" r="3.5"/>
</g>
<path d="M121,393v -43" fill="none" stroke="#ff0000" stroke-width="6"/>
<g stroke="#ff0000" stroke-width="6" fill="#ff0000">
<circle cx="121" cy="396" r="3.5"/>
</g>
<path d="M126,393v -43" fill="none" stroke="#ff0000" stroke-width="6"/>
<g stroke="#ff0000" stroke-width="6" fill="#ff0000">
<circle cx="126" cy="396" r="3.5"/>
</g>
<path d="M131,393v -43" fill="none" stroke="#ff0000" stroke-width="6"/>
<g stroke="#ff0000" stroke-width="6" fill="#ff0000">
<circle cx="131" cy="396" r="3.5"/>
</g>
<path d="M136,393v -43" fill="none" stroke="#ff0000" stroke-width="6"/>
<g stroke="#ff0000" stroke-width="6" fill="#ff0000">
<circle cx="136" cy="396" r="3.5"/>
</g>
<path d="M141,393v -43" fill="none" stroke="#ff0000" stroke-width="6"/>
<g stroke="#ff0000" stroke-width="6" fill="#ff0000">
<circle cx="141" cy="396" r="3.5"/>
</g>
<path d="M146,393v -43" fill="none" stroke="#ff0000" stroke-width="6"/>
<g stroke="#ff0000" stroke-width="6" fill="#ff0000">
<circle cx="146" cy="396" r="3.5"/>
</g>
<path d="M151,393v -43" fill="none" stroke="#ff0000" stroke-width="6"/>
<g stroke="#ff0000" stroke-width="6" fill="#ff0000">
<circle cx="151" cy="396" r="3.5"/>
</g>
<path d="M156,393v -43" fill="none" stroke="#ff0000" stroke-width="6"/>
<g stroke="#ff0000" stroke-width="6" fill="#ff0000">
<circle cx="156" cy="396" r="3.5"/>
</g>
<path d="M160,393v -43" fill="none" stroke="#ff0000" stroke-width="6"/>
<g stroke="#ff0000" stroke-width="6" fill="#ff0000">
<circle cx="160" cy="396" r="3.5"/>
</g>
<path d="M165,393v -43" fill="none" stroke="#ff0000" stroke-width="6"/>
<g stroke="#ff0000" stroke-width="6" fill="#ff0000">
<circle cx="165" cy="396" r="3.5"/>
</g>
<path d="M170,393v -43" fill="none" stroke="#ff0000" stroke-width="6"/>
<g stroke="#ff0000" stroke-width="6" fill="#ff0000">
<circle cx="170" cy="396" r="3.5"/>
</g>
<path d="M175,393v -43" fill="none" stroke="#ff0000" stroke-width="6"/>
<g stroke="#ff0000" stroke-width="6" fill="#ff0000">
<circle cx="175" cy="396" r="3.5"/>
</g>
<path d="M180,393v -43" fill="none" stroke="#ff0000" stroke-width="6"/>
<g stroke="#ff0000" stroke-width="6" fill="#ff0000">
<circle cx="180" cy="396" r="3.5"/>
</g>
<path d="M185,393v -43" fill="none" stroke="#ff0000" stroke-width="6"/>
<g stroke="#ff0000" stroke-width="6" fill="#ff0000">
<circle cx="185" cy="396" r="3.5"/>
</g>
<path d="M190,393v -43" fill="none" stroke="#ff0000" stroke-width="6"/>
<g stroke="#ff0000" stroke-width="6" fill="#ff0000">
<circle cx="190" cy="396" r="3.5"/>
</g>
<path d="M195,393v -43" fill="none" stroke="#ff0000" stroke-width="6"/>
<g stroke="#ff0000" stroke-width="6" fill="#ff0000">
<circle cx="195" cy="396" r="3.5"/>
</g>
<path d="M200,393v -43" fill="none" stroke="#ff0000" stroke-width="6"/>
<g stroke="#ff0000" stroke-width="6" fill="#ff0000">
<circle cx="200" cy="396" r="3.5"/>
</g>
<path d="M205,393v -43" fill="none" stroke="#ff0000" stroke-width="6"/>
<g stroke="#ff0000" stroke-width="6" fill="#ff0000">
<circle cx="205" cy="396" r="3.5"/>
</g>
<path d="M210,393v -43" fill="none" stroke="#ff0000" stroke-width="6"/>
<g stroke="#ff0000" stroke-width="6" fill="#ff0000">
<circle cx="210" cy="396" r="3.5"/>
</g>
<path d="M214,393v -43" fill="none" stroke="#ff0000" stroke-width="6"/>
<g stroke="#ff0000" stroke-width="6" fill="#ff0000">
<circle cx="214" cy="396" r="3.5"/>
</g>
<path d="M219,393v -43" fill="none" stroke="#ff0000" stroke-width="6"/>
<g stroke="#ff0000" stroke-width="6" fill="#ff0000">
<circle cx="219" cy="396" r="3.5"/>
</g>
<path d="M224,393v -43" fill="none" stroke="#ff0000" stroke-width="6"/>
<g stroke="#ff0000" stroke-width="6" fill="#ff0000">
<circle cx="224" cy="396" r="3.5"/>
</g>
<path d="M229,393v -43" fill="none" stroke="#ff0000" stroke-width="6"/>
<g stroke="#ff0000" stroke-width="6" fill="#ff0000">
<circle cx="229" cy="396" r="3.5"/>
</g>
<path d="M234,393v -43" fill="none" stroke="#ff0000" stroke-width="6"/>
<g stroke="#ff0000" stroke-width="6" fill="#ff0000">
<circle cx="234" cy="396" r="3.5"/>
</g>
<path d="M239,393v -43" fill="none" stroke="#ff0000" stroke-width="6"/>
<g stroke="#ff0000" stroke-width="6" fill="#ff0000">
<circle cx="239" cy="396" r="3.5"/>
</g>
<path d="M244,393v -43" fill="none" stroke="#ff0000" stroke-width="6"/>
<g stroke="#ff0000" stroke-width="6" fill="#ff0000">
<circle cx="244" cy="396" r="3.5"/>
</g>
<path d="M249,393v -43" fill="none" stroke="#ff0000" stroke-width="6"/>
<g stroke="#ff0000" stroke-width="6" fill="#ff0000">
<circle cx="249" cy="396" r="3.5"/>
</g>
<path d="M254,393v -43" fill="none" stroke="#ff0000" stroke-width="6"/>
<g stroke="#ff0000" stroke-width="6" fill="#ff0000">
<circle cx="254" cy="396" r="3.5"/>
</g>
<path d="M259,393v -43" fill="none" stroke="#ff0000" stroke-width="6"/>
<g stroke="#ff0000" stroke-width="6" fill="#ff0000">
<circle cx="259" cy="396" r="3.5"/>
</g>
<path d="M264,393v -43" fill="none" stroke="#ff0000" stroke-width="6"/>
<g stroke="#ff0000" stroke-width="6" fill="#ff0000">
<circle cx="264" cy="396" r="3.5"/>
</g>
<path d="M269,393v -43" fill="none" stroke="#ff0000" stroke-width="6"/>
<g stroke="#ff0000" stroke-width="6" fill="#ff0000">
<circle cx="269" cy="396" r="3.5"/>
</g>
<path d="M273,393v -43" fill="none" stroke="#ff0000" stroke-width="6"/>
<g stroke="#ff0000" stroke-width="6" fill="#ff0000">
<circle cx="273" cy="396" r="3.5"/>
</g>
<path d="M278,393v -43" fill="none" stroke="#ff0000" stroke-width="6"/>
<g stroke="#ff0000" stroke-width="6" fill="#ff0000">
<circle cx="278" cy="396" r="3.5"/>
</g>
<path d="M283,393v -43" fill="none" stroke="#ff0000" stroke-width="6"/>
<g stroke="#ff0000" stroke-width="6" fill="#ff0000">
<circle cx="283" cy="396" r="3.5"/>
</g>
<path d="M288,393v -43" fill="none" stroke="#ff0000" stroke-width="6"/>
<g stroke="#ff0000" stroke-width="6" fill="#ff0000">
<circle cx="288" cy="396" r="3.5"/>
</g>
<path d="M293,393v -43" fill="none" stroke="#ff0000" stroke-width="6"/>
<g stroke="#ff0000" stroke-width="6" fill="#ff0000">
<circle cx="293" cy="396" r="3.5"/>
</g>
<path d="M298,393v -43" fill="none" stroke="#ff0000" stroke-width="6"/>
<g stroke="#ff0000" stroke-width="6" fill="#ff0000">
<circle cx="298" cy="396" r="3.5"/>
</g>
<path d="M303,393v -43" fill="none" stroke="#ff0000" stroke-width="6"/>
<g stroke="#ff0000" stroke-width="6" fill="#ff0000">
<circle cx="303" cy="396" r="3.5"/>
</g>
<path d="M308,393v -43" fill="none" stroke="#ff0000" stroke-width="6"/>
<g stroke="#ff0000" stroke-width="6" fill="#ff0000">
<circle cx="308" cy="396" r="3.5"/>
</g>
<path d="M313,393v -43" fill="none" stroke="#ff0000" stroke-width="6"/>
<g stroke="#ff0000" stroke-width="6" fill="#ff0000">
<circle cx="313" cy="396" r="3.5"/>
</g>
<path d="M318,393v -43" fill="none" stroke="#ff0000" stroke-width="6"/>
<g stroke="#ff0000" stroke-width="6" fill="#ff0000">
<circle cx="318" cy="396" r="3.5"/>
</g>
<path d="M323,393v -43" fill="none" stroke="#ff0000" stroke-width="6"/>
<g stroke="#ff0000" stroke-width="6" fill="#ff0000">
<circle cx="323" cy="396" r="3.5"/>
</g>
<path d="M327,393v -43" fill="none" stroke="#ff0000" stroke-width="6"/>
<g stroke="#ff0000" stroke-width="6" fill="#ff0000">
<circle cx="327" cy="396" r="3.5"/>
</g>
<path d="M332,393v -43" fill="none" stroke="#ff0000" stroke-width="6"/>
<g stroke="#ff0000" stroke-width="6" fill="#ff0000">
<circle cx="332" cy="396" r="3.5"/>
</g>
<path d="M337,393v -43" fill="none" stroke="#ff0000" stroke-width="6"/>
<g stroke="#ff0000" stroke-width="6" fill="#ff0000">
<circle cx="337" cy="396" r="3.5"/>
</g>
<path d="M342,393v -43" fill="none" stroke="#ff0000" stroke-width="6"/>
<g stroke="#ff0000" stroke-width="6" fill="#ff0000">
<circle cx="342" cy="396" r="3.5"/>
</g>
<path d="M347,393v -43" fill="none" stroke="#ff0000" stroke-width="6"/>
<g stroke="#ff0000" stroke-width="6" fill="#ff0000">
<circle cx="347" cy="396" r="3.5"/>
</g>
<path d="M352,393v -43" fill="none" stroke="#ff0000" stroke-width="6"/>
<g stroke="#ff0000" stroke-width="6" fill="#ff0000">
<circle cx="352" cy="396" r="3.5"/>
</g>
<path d="M357,319v -69" fill="none" stroke="#ff0000" stroke-width="6"/>
<path d="M357,243v -68" fill="none" stroke="#ff0000" stroke-width="6"/>
<g stroke="#ff0000" stroke-width="6" fill="#ff0000">
<circle cx="357" cy="247" r="3.5"/>
</g>
<path d="M362,143v -43" fill="none" stroke="#ff0000" stroke-width="6"/>
<path d="M362,94v -43" fill="none" stroke="#ff0000" stroke-width="6"/>
<g stroke="#ff0000" stroke-width="6" fill="#ff0000">
<circle cx="362" cy="97" r="3.5"/>
</g>
<path d="M367,393v -43" fill="none" stroke="#ff0000" stroke-width="6"/>
<g stroke="#ff0000" stroke-width="6" fill="#ff0000">
<circle cx="367" cy="396" r="3.5"/>
</g>
<path d="M372,393v -43" fill="none" stroke="#ff0000" stroke-width="6"/>
<g stroke="#ff0000" stroke-width="6" fill="#ff0000">
<circle cx="372" cy="396" r="3.5"/>
</g>
<path d="M377,393v -43" fill="none" stroke="#ff0000" stroke-width="6"/>
<g stroke="#ff0000" stroke-width="6" fill="#ff0000">
<circle cx="377" cy="396" r="3.5"/>
</g>
<path d="M382,393v -43" fill="none" stroke="#ff0000" stroke-width="6"/>
<g stroke="#ff0000" stroke-width="6" fill="#ff0000">
<circle cx="382" cy="396" r="3.5"/>
</g>
<path d="M386,393v -43" fill="none" stroke="#ff0000" stroke-width="6"/>
<g stroke="#ff0000" stroke-width="6" fill="#ff0000">
<circle cx="386" cy="396" r="3.5"/>
</g>
<path d="M391,393v -43" fill="none" stroke="#ff0000" stroke-width="6"/>
<g stroke="#ff0000" stroke-width="6" fill="#ff0000">
<circle cx="391" cy="396" r="3.5"/>
</g>
<path d="M396,393v -43" fill="none" stroke="#ff0000" stroke-width="6"/>
<g stroke="#ff0000" stroke-width="6" fill="#ff0000">
<circle cx="396" cy="396" r="3.5"/>
</g>
<path d="M401,393v -43" fill="none" stroke="#ff0000" stroke-width="6"/>
<g stroke="#ff0000" stroke-width="6" fill="#ff0000">
<circle cx="401" cy="396" r="3.5"/>
</g>
<path d="M406,393v -43" fill="none" stroke="#ff0000" stroke-width="6"/>
<g stroke="#ff0000" stroke-width="6" fill="#ff0000">
<circle cx="406" cy="396" r="3.5"/>
</g>
<path d="M411,393v -43" fill="none" stroke="#ff0000" stroke-width="6"/>
<g stroke="#ff0000" stroke-width="6" fill="#ff0000">
<circle cx="411" cy="396" r="3.5"/>
</g>
<path d="M416,393v -43" fill="none" stroke="#ff0000" stroke-width="6"/>
<g stroke="#ff0000" stroke-width="6" fill="#ff0000">
<circle cx="416" cy="396" r="3.5"/>
</g>
<path d="M421,393v -43" fill="none" stroke="#ff0000" stroke-width="6"/>
<g stroke="#ff0000" stroke-width="6" fill="#ff0000">
<circle cx="421" cy="396" r="3.5"/>
</g>
<path d="M426,393v -43" fill="none" stroke="#ff0000" stroke-width="6"/>
<g stroke="#ff0000" stroke-width="6" fill="#ff0000">
<circle cx="426" cy="396" r="3.5"/>
</g>
<path d="M431,393v -43" fill="none" stroke="#ff0000" stroke-width="6"/>
<g stroke="#ff0000" stroke-width="6" fill="#ff0000">
<circle cx="431" cy="396" r="3.5"/>
</g>
<path d="M436,393v -43" fill="none" stroke="#ff0000" stroke-width="6"/>
<g stroke="#ff0000" stroke-width="6" fill="#ff0000">
<circle cx="436" cy="396" r="3.5"/>
</g>
<path d="M441,393v -43" fill="none" stroke="#ff0000" stroke-width="6"/>
<g stroke="#ff0000" stroke-width="6" fill="#ff0000">
<circle cx="441" cy="396" r="3.5"/>
</g>
<path d="M445,393v -43" fill="none" stroke="#ff0000" stroke-width="6"/>
<g stroke="#ff0000" stroke-width="6" fill="#ff0000">
<circle cx="445" cy="396" r="3.5"/>
</g>
<path d="M450,393v -43" fill="none" stroke="#ff0000" stroke-width="6"/>
<g stroke="#ff0000" stroke-width="6" fill="#ff0000">
<circle cx="450" cy="396" r="3.5"/>
</g>
<path d="M455,393v -43" fill="none" stroke="#ff0000" stroke-width="6"/>
<g stroke="#ff0000" stroke-width="6" fill="#ff0000">
<circle cx="455" cy="396" r="3.5"/>
</g>
<path d="M460,393v -43" fill="none" stroke="#ff0000" stroke-width="6"/>
<g stroke="#ff0000" stroke-width="6" fill="#ff0000">
<circle cx="460" cy="396" r="3.5"/>
</g>
<path d="M465,393v -43" fill="none" stroke="#ff0000" stroke-width="6"/>
<g stroke="#ff0000" stroke-width="6" fill="#ff0000">
<circle cx="465" cy="396" r="3.5"/>
</g>
<path d="M470,393v -43" fill="none" stroke="#ff0000" stroke-width="6"/>
<g stroke="#ff0000" stroke-width="6" fill="#ff0000">
<circle cx="470" cy="396" r="3.5"/>
</g>
<path d="M475,393v -43" fill="none" stroke="#ff0000" stroke-width="6"/>
<g stroke="#ff0000" stroke-width="6" fill="#ff0000">
<circle cx="475" cy="396" r="3.5"/>
</g>
<path d="M480,393v -43" fill="none" stroke="#ff0000" stroke-width="6"/>
<g stroke="#ff0000" stroke-width="6" fill="#ff0000">
<circle cx="480" cy="396" r="3.5"/>
</g>
<path d="M485,393v -43" fill="none" stroke="#ff0000" stroke-width="6"/>
<g stroke="#ff0000" stroke-width="6" fill="#ff0000">
<circle cx="485" cy="396" r="3.5"/>
</g>
<path d="M490,393v -43" fill="none" stroke="#ff0000" stroke-width="6"/>
<g stroke="#ff0000" stroke-width="6" fill="#ff0000">
<circle cx="490" cy="396" r="3.5"/>
</g>
<path d="M495,393v -43" fill="none" stroke="#ff0000" stroke-width="6"/>
<g stroke="#ff0000" stroke-width="6" fill="#ff0000">
<circle cx="495" cy="396" r="3.5"/>
</g>
<path d="M499,393v -43" fill="none" stroke="#ff0000" stroke-width="6"/>
<g stroke="#ff0000" stroke-width="6" fill="#ff0000">
<circle cx="499" cy="396" r="3.5"/>
</g>
<path d="M504,393v -43" fill="none" stroke="#ff0000" stroke-width="6"/>
<g stroke="#ff0000" stroke-width="6" fill="#ff0000">
<circle cx="504" cy="396" r="3.5"/>
</g>
<path d="M509,393v -43" fill="none" stroke="#ff0000" stroke-width="6"/>
<g stroke="#ff0000" stroke-width="6" fill="#ff0000">
<circle cx="509" cy="396" r="3.5"/>
</g>
<path d="M514,393v -43" fill="none" stroke="#ff0000" stroke-width="6"/>
<g stroke="#ff0000" stroke-width="6" fill="#ff0000">
<circle cx="514" cy="396" r="3.5"/>
</g>
<path d="M519,393v -43" fill="none" stroke="#ff0000" stroke-width="6"/>
<g stroke="#ff0000" stroke-width="6" fill="#ff0000">
<circle cx="519" cy="396" r="3.5"/>
</g>
<path d="M332,107h 42" fill="none" stroke="#ff0000" stroke-width="6"/>
<path d="M470,426v -179" fill="none" stroke="black" stroke-width="3" stroke-dasharray=" 3, 3"/>
<rect x="113" y="-4" width="303" height="38" fill="white"/>
<text x="135" y="24" fill="black" font-size="30" font-family="Helvetica" font-weight="bold">
IGHV4-59_star_08
</text></svg>
