<?xml version="1.0" standalone="no"?>
<svg width="567" height="466" viewBox="0 0 567 466" xmlns="http://www.w3.org/2000/svg">
<title>
/bbx/output/_plots/example/hmm/plots/v_3p_del.svg
</title>
<desc>
Creator: ROOT Version 5.34/14
CreationDate: Thu Jul 30 17:06:12 2015</desc>
<defs>
</defs>
<rect x="0" y="0" width="567" height="466" fill="white"/>
<rect x="79" y="37" width="443" height="359" fill="none" stroke="black"/>
<rect x="79" y="37" width="443" height="359" fill="none" stroke="black"/>
<path d="M79,396h 443" fill="none" stroke="black" stroke-width="3"/>
<path d="M116,385v 11" fill="none" stroke="black" stroke-width="3"/>
<path d="M153,391v 5" fill="none" stroke="black" stroke-width="3"/>
<path d="M190,391v 5" fill="none" stroke="black" stroke-width="3"/>
<path d="M227,391v 5" fill="none" stroke="black" stroke-width="3"/>
<path d="M264,385v 11" fill="none" stroke="black" stroke-width="3"/>
<path d="M300,391v 5" fill="none" stroke="black" stroke-width="3"/>
<path d="M337,391v 5" fill="none" stroke="black" stroke-width="3"/>
<path d="M374,391v 5" fill="none" stroke="black" stroke-width="3"/>
<path d="M411,385v 11" fill="none" stroke="black" stroke-width="3"/>
<path d="M116,385v 11" fill="none" stroke="black" stroke-width="3"/>
<path d="M79,391v 5" fill="none" stroke="black" stroke-width="3"/>
<path d="M411,385v 11" fill="none" stroke="black" stroke-width="3"/>
<path d="M448,391v 5" fill="none" stroke="black" stroke-width="3"/>
<path d="M485,391v 5" fill="none" stroke="black" stroke-width="3"/>
<text x="110" y="416" fill="black" font-size="21" font-family="Times" font-weight="bold">
0
</text>
<text x="257" y="416" fill="black" font-size="21" font-family="Times" font-weight="bold">
2
</text>
<text x="405" y="416" fill="black" font-size="21" font-family="Times" font-weight="bold">
4
</text>
<path d="M79,37h 443" fill="none" stroke="black" stroke-width="3"/>
<path d="M116,48v -11" fill="none" stroke="black" stroke-width="3"/>
<path d="M153,43v -6" fill="none" stroke="black" stroke-width="3"/>
<path d="M190,43v -6" fill="none" stroke="black" stroke-width="3"/>
<path d="M227,43v -6" fill="none" stroke="black" stroke-width="3"/>
<path d="M264,48v -11" fill="none" stroke="black" stroke-width="3"/>
<path d="M300,43v -6" fill="none" stroke="black" stroke-width="3"/>
<path d="M337,43v -6" fill="none" stroke="black" stroke-width="3"/>
<path d="M374,43v -6" fill="none" stroke="black" stroke-width="3"/>
<path d="M411,48v -11" fill="none" stroke="black" stroke-width="3"/>
<path d="M116,48v -11" fill="none" stroke="black" stroke-width="3"/>
<path d="M79,43v -6" fill="none" stroke="black" stroke-width="3"/>
<path d="M411,48v -11" fill="none" stroke="black" stroke-width="3"/>
<path d="M448,43v -6" fill="none" stroke="black" stroke-width="3"/>
<path d="M485,43v -6" fill="none" stroke="black" stroke-width="3"/>
<path d="M79,396v -359" fill="none" stroke="black" stroke-width="3"/>
<path d="M92,396h -13" fill="none" stroke="black" stroke-width="3"/>
<path d="M86,374h -7" fill="none" stroke="black" stroke-width="3"/>
<path d="M86,352h -7" fill="none" stroke="black" stroke-width="3"/>
<path d="M86,330h -7" fill="none" stroke="black" stroke-width="3"/>
<path d="M86,308h -7" fill="none" stroke="black" stroke-width="3"/>
<path d="M92,285h -13" fill="none" stroke="black" stroke-width="3"/>
<path d="M86,263h -7" fill="none" stroke="black" stroke-width="3"/>
<path d="M86,241h -7" fill="none" stroke="black" stroke-width="3"/>
<path d="M86,219h -7" fill="none" stroke="black" stroke-width="3"/>
<path d="M86,197h -7" fill="none" stroke="black" stroke-width="3"/>
<path d="M92,175h -13" fill="none" stroke="black" stroke-width="3"/>
<path d="M86,153h -7" fill="none" stroke="black" stroke-width="3"/>
<path d="M86,130h -7" fill="none" stroke="black" stroke-width="3"/>
<path d="M86,108h -7" fill="none" stroke="black" stroke-width="3"/>
<path d="M86,86h -7" fill="none" stroke="black" stroke-width="3"/>
<path d="M92,64h -13" fill="none" stroke="black" stroke-width="3"/>
<path d="M92,64h -13" fill="none" stroke="black" stroke-width="3"/>
<path d="M86,42h -7" fill="none" stroke="black" stroke-width="3"/>
<text x="63" y="404" fill="black" font-size="21" font-family="Times" font-weight="bold">
0
</text>
<text x="51" y="293" fill="black" font-size="21" font-family="Times" font-weight="bold">
10
</text>
<text x="51" y="183" fill="black" font-size="21" font-family="Times" font-weight="bold">
20
</text>
<text x="51" y="72" fill="black" font-size="21" font-family="Times" font-weight="bold">
30
</text>
<path d="M522,396v -359" fill="none" stroke="black" stroke-width="3"/>
<path d="M508,396h 14" fill="none" stroke="black" stroke-width="3"/>
<path d="M515,374h 7" fill="none" stroke="black" stroke-width="3"/>
<path d="M515,352h 7" fill="none" stroke="black" stroke-width="3"/>
<path d="M515,330h 7" fill="none" stroke="black" stroke-width="3"/>
<path d="M515,308h 7" fill="none" stroke="black" stroke-width="3"/>
<path d="M508,285h 14" fill="none" stroke="black" stroke-width="3"/>
<path d="M515,263h 7" fill="none" stroke="black" stroke-width="3"/>
<path d="M515,241h 7" fill="none" stroke="black" stroke-width="3"/>
<path d="M515,219h 7" fill="none" stroke="black" stroke-width="3"/>
<path d="M515,197h 7" fill="none" stroke="black" stroke-width="3"/>
<path d="M508,175h 14" fill="none" stroke="black" stroke-width="3"/>
<path d="M515,153h 7" fill="none" stroke="black" stroke-width="3"/>
<path d="M515,130h 7" fill="none" stroke="black" stroke-width="3"/>
<path d="M515,108h 7" fill="none" stroke="black" stroke-width="3"/>
<path d="M515,86h 7" fill="none" stroke="black" stroke-width="3"/>
<path d="M508,64h 14" fill="none" stroke="black" stroke-width="3"/>
<path d="M508,64h 14" fill="none" stroke="black" stroke-width="3"/>
<path d="M515,42h 7" fill="none" stroke="black" stroke-width="3"/>
<rect x="113" y="-4" width="147" height="40" fill="white"/>
<text x="119" y="25" fill="black" font-size="31" font-family="Helvetica" font-weight="bold">
v_3p_del
</text>
<path d="M116,155v -55" fill="none" stroke="#ff0000" stroke-width="6"/>
<path d="M116,94v -54" fill="none" stroke="#ff0000" stroke-width="6"/>
<g stroke="#ff0000" stroke-width="6" fill="#ff0000">
<circle cx="116" cy="97" r="3.5"/>
</g>
<path d="M190,382v -16" fill="none" stroke="#ff0000" stroke-width="6"/>
<path d="M190,360v -16" fill="none" stroke="#ff0000" stroke-width="6"/>
<g stroke="#ff0000" stroke-width="6" fill="#ff0000">
<circle cx="190" cy="363" r="3.5"/>
</g>
<path d="M337,339v -28" fill="none" stroke="#ff0000" stroke-width="6"/>
<path d="M337,304v -28" fill="none" stroke="#ff0000" stroke-width="6"/>
<g stroke="#ff0000" stroke-width="6" fill="#ff0000">
<circle cx="337" cy="308" r="3.5"/>
</g>
<path d="M411,311v -33" fill="none" stroke="#ff0000" stroke-width="6"/>
<path d="M411,271v -33" fill="none" stroke="#ff0000" stroke-width="6"/>
<g stroke="#ff0000" stroke-width="6" fill="#ff0000">
<circle cx="411" cy="274" r="3.5"/>
</g>
<path d="M485,374v -19" fill="none" stroke="#ff0000" stroke-width="6"/>
<path d="M485,349v -19" fill="none" stroke="#ff0000" stroke-width="6"/>
<g stroke="#ff0000" stroke-width="6" fill="#ff0000">
<circle cx="485" cy="352" r="3.5"/>
</g>
<path d="M80,395v -298h 73v 266h 74v 32h 73v -87h 74v -34h 74v 78h 74" fill="none" stroke="#ff0000" stroke-width="6"/>
<path d="M332,107h 42" fill="none" stroke="#ff0000" stroke-width="6"/>
<rect x="113" y="-4" width="147" height="40" fill="white"/>
<text x="119" y="25" fill="black" font-size="31" font-family="Helvetica" font-weight="bold">
v_3p_del
</text></svg>
