<?xml version="1.0" standalone="no"?>
<svg width="567" height="466" viewBox="0 0 567 466" xmlns="http://www.w3.org/2000/svg">
<title>
/bbx/output/_plots/example/hmm/plots/vd_insertion.svg
</title>
<desc>
Creator: ROOT Version 5.34/14
CreationDate: Thu Jul 30 17:06:12 2015</desc>
<defs>
</defs>
<rect x="0" y="0" width="567" height="466" fill="white"/>
<rect x="79" y="37" width="443" height="359" fill="none" stroke="black"/>
<rect x="79" y="37" width="443" height="359" fill="none" stroke="black"/>
<path d="M79,396h 443" fill="none" stroke="black" stroke-width="3"/>
<path d="M91,385v 11" fill="none" stroke="black" stroke-width="3"/>
<path d="M114,391v 5" fill="none" stroke="black" stroke-width="3"/>
<path d="M138,391v 5" fill="none" stroke="black" stroke-width="3"/>
<path d="M161,391v 5" fill="none" stroke="black" stroke-width="3"/>
<path d="M184,391v 5" fill="none" stroke="black" stroke-width="3"/>
<path d="M207,385v 11" fill="none" stroke="black" stroke-width="3"/>
<path d="M231,391v 5" fill="none" stroke="black" stroke-width="3"/>
<path d="M254,391v 5" fill="none" stroke="black" stroke-width="3"/>
<path d="M277,391v 5" fill="none" stroke="black" stroke-width="3"/>
<path d="M300,391v 5" fill="none" stroke="black" stroke-width="3"/>
<path d="M324,385v 11" fill="none" stroke="black" stroke-width="3"/>
<path d="M347,391v 5" fill="none" stroke="black" stroke-width="3"/>
<path d="M370,391v 5" fill="none" stroke="black" stroke-width="3"/>
<path d="M394,391v 5" fill="none" stroke="black" stroke-width="3"/>
<path d="M417,391v 5" fill="none" stroke="black" stroke-width="3"/>
<path d="M440,385v 11" fill="none" stroke="black" stroke-width="3"/>
<path d="M91,385v 11" fill="none" stroke="black" stroke-width="3"/>
<path d="M440,385v 11" fill="none" stroke="black" stroke-width="3"/>
<path d="M463,391v 5" fill="none" stroke="black" stroke-width="3"/>
<path d="M487,391v 5" fill="none" stroke="black" stroke-width="3"/>
<path d="M510,391v 5" fill="none" stroke="black" stroke-width="3"/>
<text x="85" y="416" fill="black" font-size="21" font-family="Times" font-weight="bold">
0
</text>
<text x="201" y="416" fill="black" font-size="21" font-family="Times" font-weight="bold">
5
</text>
<text x="312" y="416" fill="black" font-size="21" font-family="Times" font-weight="bold">
10
</text>
<text x="428" y="416" fill="black" font-size="21" font-family="Times" font-weight="bold">
15
</text>
<path d="M79,37h 443" fill="none" stroke="black" stroke-width="3"/>
<path d="M91,48v -11" fill="none" stroke="black" stroke-width="3"/>
<path d="M114,43v -6" fill="none" stroke="black" stroke-width="3"/>
<path d="M138,43v -6" fill="none" stroke="black" stroke-width="3"/>
<path d="M161,43v -6" fill="none" stroke="black" stroke-width="3"/>
<path d="M184,43v -6" fill="none" stroke="black" stroke-width="3"/>
<path d="M207,48v -11" fill="none" stroke="black" stroke-width="3"/>
<path d="M231,43v -6" fill="none" stroke="black" stroke-width="3"/>
<path d="M254,43v -6" fill="none" stroke="black" stroke-width="3"/>
<path d="M277,43v -6" fill="none" stroke="black" stroke-width="3"/>
<path d="M300,43v -6" fill="none" stroke="black" stroke-width="3"/>
<path d="M324,48v -11" fill="none" stroke="black" stroke-width="3"/>
<path d="M347,43v -6" fill="none" stroke="black" stroke-width="3"/>
<path d="M370,43v -6" fill="none" stroke="black" stroke-width="3"/>
<path d="M394,43v -6" fill="none" stroke="black" stroke-width="3"/>
<path d="M417,43v -6" fill="none" stroke="black" stroke-width="3"/>
<path d="M440,48v -11" fill="none" stroke="black" stroke-width="3"/>
<path d="M91,48v -11" fill="none" stroke="black" stroke-width="3"/>
<path d="M440,48v -11" fill="none" stroke="black" stroke-width="3"/>
<path d="M463,43v -6" fill="none" stroke="black" stroke-width="3"/>
<path d="M487,43v -6" fill="none" stroke="black" stroke-width="3"/>
<path d="M510,43v -6" fill="none" stroke="black" stroke-width="3"/>
<path d="M79,396v -359" fill="none" stroke="black" stroke-width="3"/>
<path d="M92,396h -13" fill="none" stroke="black" stroke-width="3"/>
<path d="M86,369h -7" fill="none" stroke="black" stroke-width="3"/>
<path d="M86,342h -7" fill="none" stroke="black" stroke-width="3"/>
<path d="M86,315h -7" fill="none" stroke="black" stroke-width="3"/>
<path d="M86,287h -7" fill="none" stroke="black" stroke-width="3"/>
<path d="M92,260h -13" fill="none" stroke="black" stroke-width="3"/>
<path d="M86,233h -7" fill="none" stroke="black" stroke-width="3"/>
<path d="M86,206h -7" fill="none" stroke="black" stroke-width="3"/>
<path d="M86,179h -7" fill="none" stroke="black" stroke-width="3"/>
<path d="M86,152h -7" fill="none" stroke="black" stroke-width="3"/>
<path d="M92,124h -13" fill="none" stroke="black" stroke-width="3"/>
<path d="M92,124h -13" fill="none" stroke="black" stroke-width="3"/>
<path d="M86,97h -7" fill="none" stroke="black" stroke-width="3"/>
<path d="M86,70h -7" fill="none" stroke="black" stroke-width="3"/>
<path d="M86,43h -7" fill="none" stroke="black" stroke-width="3"/>
<text x="63" y="404" fill="black" font-size="21" font-family="Times" font-weight="bold">
0
</text>
<text x="63" y="268" fill="black" font-size="21" font-family="Times" font-weight="bold">
5
</text>
<text x="51" y="132" fill="black" font-size="21" font-family="Times" font-weight="bold">
10
</text>
<path d="M522,396v -359" fill="none" stroke="black" stroke-width="3"/>
<path d="M508,396h 14" fill="none" stroke="black" stroke-width="3"/>
<path d="M515,369h 7" fill="none" stroke="black" stroke-width="3"/>
<path d="M515,342h 7" fill="none" stroke="black" stroke-width="3"/>
<path d="M515,315h 7" fill="none" stroke="black" stroke-width="3"/>
<path d="M515,287h 7" fill="none" stroke="black" stroke-width="3"/>
<path d="M508,260h 14" fill="none" stroke="black" stroke-width="3"/>
<path d="M515,233h 7" fill="none" stroke="black" stroke-width="3"/>
<path d="M515,206h 7" fill="none" stroke="black" stroke-width="3"/>
<path d="M515,179h 7" fill="none" stroke="black" stroke-width="3"/>
<path d="M515,152h 7" fill="none" stroke="black" stroke-width="3"/>
<path d="M508,124h 14" fill="none" stroke="black" stroke-width="3"/>
<path d="M508,124h 14" fill="none" stroke="black" stroke-width="3"/>
<path d="M515,97h 7" fill="none" stroke="black" stroke-width="3"/>
<path d="M515,70h 7" fill="none" stroke="black" stroke-width="3"/>
<path d="M515,43h 7" fill="none" stroke="black" stroke-width="3"/>
<rect x="113" y="-4" width="201" height="38" fill="white"/>
<text x="124" y="23" fill="black" font-size="30" font-family="Helvetica" font-weight="bold">
vd_insertion
</text>
<path d="M91,278v -69" fill="none" stroke="#ff0000" stroke-width="6"/>
<path d="M91,203v -69" fill="none" stroke="#ff0000" stroke-width="6"/>
<g stroke="#ff0000" stroke-width="6" fill="#ff0000">
<circle cx="91" cy="206" r="3.5"/>
</g>
<path d="M114,210v -82" fill="none" stroke="#ff0000" stroke-width="6"/>
<path d="M114,121v -83" fill="none" stroke="#ff0000" stroke-width="6"/>
<g stroke="#ff0000" stroke-width="6" fill="#ff0000">
<circle cx="114" cy="124" r="3.5"/>
</g>
<path d="M138,233v -78" fill="none" stroke="#ff0000" stroke-width="6"/>
<path d="M138,148v -78" fill="none" stroke="#ff0000" stroke-width="6"/>
<g stroke="#ff0000" stroke-width="6" fill="#ff0000">
<circle cx="138" cy="152" r="3.5"/>
</g>
<path d="M161,210v -82" fill="none" stroke="#ff0000" stroke-width="6"/>
<path d="M161,121v -83" fill="none" stroke="#ff0000" stroke-width="6"/>
<g stroke="#ff0000" stroke-width="6" fill="#ff0000">
<circle cx="161" cy="124" r="3.5"/>
</g>
<path d="M231,396v -24" fill="none" stroke="#ff0000" stroke-width="6"/>
<path d="M231,366v -24" fill="none" stroke="#ff0000" stroke-width="6"/>
<g stroke="#ff0000" stroke-width="6" fill="#ff0000">
<circle cx="231" cy="369" r="3.5"/>
</g>
<path d="M254,187v -87" fill="none" stroke="#ff0000" stroke-width="6"/>
<path d="M254,94v -57" fill="none" stroke="#ff0000" stroke-width="6"/>
<g stroke="#ff0000" stroke-width="6" fill="#ff0000">
<circle cx="254" cy="97" r="3.5"/>
</g>
<path d="M277,396v -24" fill="none" stroke="#ff0000" stroke-width="6"/>
<path d="M277,366v -24" fill="none" stroke="#ff0000" stroke-width="6"/>
<g stroke="#ff0000" stroke-width="6" fill="#ff0000">
<circle cx="277" cy="369" r="3.5"/>
</g>
<path d="M417,362v -44" fill="none" stroke="#ff0000" stroke-width="6"/>
<path d="M417,311v -44" fill="none" stroke="#ff0000" stroke-width="6"/>
<g stroke="#ff0000" stroke-width="6" fill="#ff0000">
<circle cx="417" cy="315" r="3.5"/>
</g>
<path d="M510,396v -24" fill="none" stroke="#ff0000" stroke-width="6"/>
<path d="M510,366v -24" fill="none" stroke="#ff0000" stroke-width="6"/>
<g stroke="#ff0000" stroke-width="6" fill="#ff0000">
<circle cx="510" cy="369" r="3.5"/>
</g>
<path d="M80,395v -189h 23v -82h 23v 28h 23v -28h 23v 271h 47v -26h 23v -272h 24v 272h 23v 26h 116v -80h 23v 80h 70v -26h 24" fill="none" stroke="#ff0000" stroke-width="6"/>
<path d="M332,107h 42" fill="none" stroke="#ff0000" stroke-width="6"/>
<rect x="113" y="-4" width="201" height="38" fill="white"/>
<text x="124" y="23" fill="black" font-size="30" font-family="Helvetica" font-weight="bold">
vd_insertion
</text></svg>
