<?xml version="1.0" standalone="no"?>
<svg width="567" height="466" viewBox="0 0 567 466" xmlns="http://www.w3.org/2000/svg">
<title>
/bbx/output/_plots/example/sw/performance/plots/v_3p_del.svg
</title>
<desc>
Creator: ROOT Version 5.34/14
CreationDate: Wed Aug 19 21:40:17 2015</desc>
<defs>
</defs>
<rect x="0" y="0" width="567" height="466" fill="white"/>
<rect x="79" y="37" width="443" height="359" fill="none" stroke="black"/>
<rect x="79" y="37" width="443" height="359" fill="none" stroke="black"/>
<path d="M79,396h 443" fill="none" stroke="black" stroke-width="3"/>
<text x="324" y="449" fill="black" font-size="32" font-family="Times" font-weight="bold">
inferred - true
</text>
<path d="M208,385v 11" fill="none" stroke="black" stroke-width="3"/>
<path d="M245,391v 5" fill="none" stroke="black" stroke-width="3"/>
<path d="M282,391v 5" fill="none" stroke="black" stroke-width="3"/>
<path d="M319,391v 5" fill="none" stroke="black" stroke-width="3"/>
<path d="M356,391v 5" fill="none" stroke="black" stroke-width="3"/>
<path d="M393,385v 11" fill="none" stroke="black" stroke-width="3"/>
<path d="M208,385v 11" fill="none" stroke="black" stroke-width="3"/>
<path d="M171,391v 5" fill="none" stroke="black" stroke-width="3"/>
<path d="M135,391v 5" fill="none" stroke="black" stroke-width="3"/>
<path d="M98,391v 5" fill="none" stroke="black" stroke-width="3"/>
<path d="M393,385v 11" fill="none" stroke="black" stroke-width="3"/>
<path d="M429,391v 5" fill="none" stroke="black" stroke-width="3"/>
<path d="M466,391v 5" fill="none" stroke="black" stroke-width="3"/>
<path d="M503,391v 5" fill="none" stroke="black" stroke-width="3"/>
<text x="199" y="416" fill="black" font-size="21" font-family="Times" font-weight="bold">
-5
</text>
<text x="386" y="416" fill="black" font-size="21" font-family="Times" font-weight="bold">
0
</text>
<path d="M79,37h 443" fill="none" stroke="black" stroke-width="3"/>
<path d="M208,48v -11" fill="none" stroke="black" stroke-width="3"/>
<path d="M245,43v -6" fill="none" stroke="black" stroke-width="3"/>
<path d="M282,43v -6" fill="none" stroke="black" stroke-width="3"/>
<path d="M319,43v -6" fill="none" stroke="black" stroke-width="3"/>
<path d="M356,43v -6" fill="none" stroke="black" stroke-width="3"/>
<path d="M393,48v -11" fill="none" stroke="black" stroke-width="3"/>
<path d="M208,48v -11" fill="none" stroke="black" stroke-width="3"/>
<path d="M171,43v -6" fill="none" stroke="black" stroke-width="3"/>
<path d="M135,43v -6" fill="none" stroke="black" stroke-width="3"/>
<path d="M98,43v -6" fill="none" stroke="black" stroke-width="3"/>
<path d="M393,48v -11" fill="none" stroke="black" stroke-width="3"/>
<path d="M429,43v -6" fill="none" stroke="black" stroke-width="3"/>
<path d="M466,43v -6" fill="none" stroke="black" stroke-width="3"/>
<path d="M503,43v -6" fill="none" stroke="black" stroke-width="3"/>
<path d="M79,396v -359" fill="none" stroke="black" stroke-width="3"/>
<path d="M92,396h -13" fill="none" stroke="black" stroke-width="3"/>
<path d="M86,374h -7" fill="none" stroke="black" stroke-width="3"/>
<path d="M86,352h -7" fill="none" stroke="black" stroke-width="3"/>
<path d="M86,331h -7" fill="none" stroke="black" stroke-width="3"/>
<path d="M92,309h -13" fill="none" stroke="black" stroke-width="3"/>
<path d="M86,287h -7" fill="none" stroke="black" stroke-width="3"/>
<path d="M86,265h -7" fill="none" stroke="black" stroke-width="3"/>
<path d="M86,243h -7" fill="none" stroke="black" stroke-width="3"/>
<path d="M92,222h -13" fill="none" stroke="black" stroke-width="3"/>
<path d="M86,200h -7" fill="none" stroke="black" stroke-width="3"/>
<path d="M86,178h -7" fill="none" stroke="black" stroke-width="3"/>
<path d="M86,156h -7" fill="none" stroke="black" stroke-width="3"/>
<path d="M92,134h -13" fill="none" stroke="black" stroke-width="3"/>
<path d="M86,112h -7" fill="none" stroke="black" stroke-width="3"/>
<path d="M86,91h -7" fill="none" stroke="black" stroke-width="3"/>
<path d="M86,69h -7" fill="none" stroke="black" stroke-width="3"/>
<path d="M92,47h -13" fill="none" stroke="black" stroke-width="3"/>
<path d="M92,47h -13" fill="none" stroke="black" stroke-width="3"/>
<text x="46" y="404" fill="black" font-size="21" font-family="Times" font-weight="bold">
0.0
</text>
<text x="46" y="317" fill="black" font-size="21" font-family="Times" font-weight="bold">
0.2
</text>
<text x="46" y="229" fill="black" font-size="21" font-family="Times" font-weight="bold">
0.4
</text>
<text x="46" y="142" fill="black" font-size="21" font-family="Times" font-weight="bold">
0.6
</text>
<text x="46" y="55" fill="black" font-size="21" font-family="Times" font-weight="bold">
0.8
</text>
<path d="M522,396v -359" fill="none" stroke="black" stroke-width="3"/>
<path d="M508,396h 14" fill="none" stroke="black" stroke-width="3"/>
<path d="M515,374h 7" fill="none" stroke="black" stroke-width="3"/>
<path d="M515,352h 7" fill="none" stroke="black" stroke-width="3"/>
<path d="M515,331h 7" fill="none" stroke="black" stroke-width="3"/>
<path d="M508,309h 14" fill="none" stroke="black" stroke-width="3"/>
<path d="M515,287h 7" fill="none" stroke="black" stroke-width="3"/>
<path d="M515,265h 7" fill="none" stroke="black" stroke-width="3"/>
<path d="M515,243h 7" fill="none" stroke="black" stroke-width="3"/>
<path d="M508,222h 14" fill="none" stroke="black" stroke-width="3"/>
<path d="M515,200h 7" fill="none" stroke="black" stroke-width="3"/>
<path d="M515,178h 7" fill="none" stroke="black" stroke-width="3"/>
<path d="M515,156h 7" fill="none" stroke="black" stroke-width="3"/>
<path d="M508,134h 14" fill="none" stroke="black" stroke-width="3"/>
<path d="M515,112h 7" fill="none" stroke="black" stroke-width="3"/>
<path d="M515,91h 7" fill="none" stroke="black" stroke-width="3"/>
<path d="M515,69h 7" fill="none" stroke="black" stroke-width="3"/>
<path d="M508,47h 14" fill="none" stroke="black" stroke-width="3"/>
<path d="M508,47h 14" fill="none" stroke="black" stroke-width="3"/>
<rect x="113" y="-4" width="147" height="40" fill="white"/>
<text x="119" y="25" fill="black" font-size="31" font-family="Helvetica" font-weight="bold">
v_3p_del
</text>
<path d="M80,395v -1h 73v -2h 37v 3h 37v -14h 37v 11h 36v -48h 37v 26h 37v -273h 37v 279h 37v 16h 37v -2h 37" fill="none" stroke="#ff0000" stroke-width="6"/>
<path d="M332,107h 42" fill="none" stroke="#ff0000" stroke-width="6"/>
<rect x="113" y="-4" width="147" height="40" fill="white"/>
<text x="119" y="25" fill="black" font-size="31" font-family="Helvetica" font-weight="bold">
v_3p_del
</text></svg>
