<?xml version="1.0" standalone="no"?>
<svg width="567" height="466" viewBox="0 0 567 466" xmlns="http://www.w3.org/2000/svg">
<title>
/bbx/output/_plots/example/sw/true/mute-freqs/plots/v-mean-freq.svg
</title>
<desc>
Creator: ROOT Version 5.34/14
CreationDate: Wed Aug 19 22:00:03 2015</desc>
<defs>
</defs>
<rect x="0" y="0" width="567" height="466" fill="white"/>
<rect x="79" y="37" width="443" height="359" fill="none" stroke="black"/>
<rect x="79" y="37" width="443" height="359" fill="none" stroke="black"/>
<path d="M79,396h 443" fill="none" stroke="black" stroke-width="3"/>
<path d="M79,385v 11" fill="none" stroke="black" stroke-width="3"/>
<path d="M101,391v 5" fill="none" stroke="black" stroke-width="3"/>
<path d="M124,391v 5" fill="none" stroke="black" stroke-width="3"/>
<path d="M146,391v 5" fill="none" stroke="black" stroke-width="3"/>
<path d="M168,391v 5" fill="none" stroke="black" stroke-width="3"/>
<path d="M190,385v 11" fill="none" stroke="black" stroke-width="3"/>
<path d="M212,391v 5" fill="none" stroke="black" stroke-width="3"/>
<path d="M234,391v 5" fill="none" stroke="black" stroke-width="3"/>
<path d="M256,391v 5" fill="none" stroke="black" stroke-width="3"/>
<path d="M278,391v 5" fill="none" stroke="black" stroke-width="3"/>
<path d="M300,385v 11" fill="none" stroke="black" stroke-width="3"/>
<path d="M323,391v 5" fill="none" stroke="black" stroke-width="3"/>
<path d="M345,391v 5" fill="none" stroke="black" stroke-width="3"/>
<path d="M367,391v 5" fill="none" stroke="black" stroke-width="3"/>
<path d="M389,391v 5" fill="none" stroke="black" stroke-width="3"/>
<path d="M411,385v 11" fill="none" stroke="black" stroke-width="3"/>
<path d="M433,391v 5" fill="none" stroke="black" stroke-width="3"/>
<path d="M455,391v 5" fill="none" stroke="black" stroke-width="3"/>
<path d="M477,391v 5" fill="none" stroke="black" stroke-width="3"/>
<path d="M499,391v 5" fill="none" stroke="black" stroke-width="3"/>
<path d="M522,385v 11" fill="none" stroke="black" stroke-width="3"/>
<text x="65" y="416" fill="black" font-size="21" font-family="Times" font-weight="bold">
0.0
</text>
<text x="176" y="416" fill="black" font-size="21" font-family="Times" font-weight="bold">
0.1
</text>
<text x="286" y="416" fill="black" font-size="21" font-family="Times" font-weight="bold">
0.2
</text>
<text x="397" y="416" fill="black" font-size="21" font-family="Times" font-weight="bold">
0.3
</text>
<text x="507" y="416" fill="black" font-size="21" font-family="Times" font-weight="bold">
0.4
</text>
<path d="M79,37h 443" fill="none" stroke="black" stroke-width="3"/>
<path d="M79,48v -11" fill="none" stroke="black" stroke-width="3"/>
<path d="M101,43v -6" fill="none" stroke="black" stroke-width="3"/>
<path d="M124,43v -6" fill="none" stroke="black" stroke-width="3"/>
<path d="M146,43v -6" fill="none" stroke="black" stroke-width="3"/>
<path d="M168,43v -6" fill="none" stroke="black" stroke-width="3"/>
<path d="M190,48v -11" fill="none" stroke="black" stroke-width="3"/>
<path d="M212,43v -6" fill="none" stroke="black" stroke-width="3"/>
<path d="M234,43v -6" fill="none" stroke="black" stroke-width="3"/>
<path d="M256,43v -6" fill="none" stroke="black" stroke-width="3"/>
<path d="M278,43v -6" fill="none" stroke="black" stroke-width="3"/>
<path d="M300,48v -11" fill="none" stroke="black" stroke-width="3"/>
<path d="M323,43v -6" fill="none" stroke="black" stroke-width="3"/>
<path d="M345,43v -6" fill="none" stroke="black" stroke-width="3"/>
<path d="M367,43v -6" fill="none" stroke="black" stroke-width="3"/>
<path d="M389,43v -6" fill="none" stroke="black" stroke-width="3"/>
<path d="M411,48v -11" fill="none" stroke="black" stroke-width="3"/>
<path d="M433,43v -6" fill="none" stroke="black" stroke-width="3"/>
<path d="M455,43v -6" fill="none" stroke="black" stroke-width="3"/>
<path d="M477,43v -6" fill="none" stroke="black" stroke-width="3"/>
<path d="M499,43v -6" fill="none" stroke="black" stroke-width="3"/>
<path d="M522,48v -11" fill="none" stroke="black" stroke-width="3"/>
<path d="M79,396v -359" fill="none" stroke="black" stroke-width="3"/>
<path d="M92,396h -13" fill="none" stroke="black" stroke-width="3"/>
<path d="M86,376h -7" fill="none" stroke="black" stroke-width="3"/>
<path d="M86,356h -7" fill="none" stroke="black" stroke-width="3"/>
<path d="M86,337h -7" fill="none" stroke="black" stroke-width="3"/>
<path d="M86,317h -7" fill="none" stroke="black" stroke-width="3"/>
<path d="M92,297h -13" fill="none" stroke="black" stroke-width="3"/>
<path d="M86,277h -7" fill="none" stroke="black" stroke-width="3"/>
<path d="M86,257h -7" fill="none" stroke="black" stroke-width="3"/>
<path d="M86,238h -7" fill="none" stroke="black" stroke-width="3"/>
<path d="M86,218h -7" fill="none" stroke="black" stroke-width="3"/>
<path d="M92,198h -13" fill="none" stroke="black" stroke-width="3"/>
<path d="M86,178h -7" fill="none" stroke="black" stroke-width="3"/>
<path d="M86,158h -7" fill="none" stroke="black" stroke-width="3"/>
<path d="M86,139h -7" fill="none" stroke="black" stroke-width="3"/>
<path d="M86,119h -7" fill="none" stroke="black" stroke-width="3"/>
<path d="M92,99h -13" fill="none" stroke="black" stroke-width="3"/>
<path d="M92,99h -13" fill="none" stroke="black" stroke-width="3"/>
<path d="M86,79h -7" fill="none" stroke="black" stroke-width="3"/>
<path d="M86,59h -7" fill="none" stroke="black" stroke-width="3"/>
<path d="M86,40h -7" fill="none" stroke="black" stroke-width="3"/>
<text x="35" y="404" fill="black" font-size="21" font-family="Times" font-weight="bold">
0.00
</text>
<text x="35" y="305" fill="black" font-size="21" font-family="Times" font-weight="bold">
0.05
</text>
<text x="35" y="206" fill="black" font-size="21" font-family="Times" font-weight="bold">
0.10
</text>
<text x="35" y="107" fill="black" font-size="21" font-family="Times" font-weight="bold">
0.15
</text>
<path d="M522,396v -359" fill="none" stroke="black" stroke-width="3"/>
<path d="M508,396h 14" fill="none" stroke="black" stroke-width="3"/>
<path d="M515,376h 7" fill="none" stroke="black" stroke-width="3"/>
<path d="M515,356h 7" fill="none" stroke="black" stroke-width="3"/>
<path d="M515,337h 7" fill="none" stroke="black" stroke-width="3"/>
<path d="M515,317h 7" fill="none" stroke="black" stroke-width="3"/>
<path d="M508,297h 14" fill="none" stroke="black" stroke-width="3"/>
<path d="M515,277h 7" fill="none" stroke="black" stroke-width="3"/>
<path d="M515,257h 7" fill="none" stroke="black" stroke-width="3"/>
<path d="M515,238h 7" fill="none" stroke="black" stroke-width="3"/>
<path d="M515,218h 7" fill="none" stroke="black" stroke-width="3"/>
<path d="M508,198h 14" fill="none" stroke="black" stroke-width="3"/>
<path d="M515,178h 7" fill="none" stroke="black" stroke-width="3"/>
<path d="M515,158h 7" fill="none" stroke="black" stroke-width="3"/>
<path d="M515,139h 7" fill="none" stroke="black" stroke-width="3"/>
<path d="M515,119h 7" fill="none" stroke="black" stroke-width="3"/>
<path d="M508,99h 14" fill="none" stroke="black" stroke-width="3"/>
<path d="M508,99h 14" fill="none" stroke="black" stroke-width="3"/>
<path d="M515,79h 7" fill="none" stroke="black" stroke-width="3"/>
<path d="M515,59h 7" fill="none" stroke="black" stroke-width="3"/>
<path d="M515,40h 7" fill="none" stroke="black" stroke-width="3"/>
<rect x="113" y="-4" width="197" height="40" fill="white"/>
<text x="121" y="25" fill="black" font-size="31" font-family="Helvetica" font-weight="bold">
v-mean-freq
</text>
<path d="M80,395v -36h 5v 36h 5v -36h 6v 36h 22v -74h 6v 38h 5v -262h 6v 224h 5v -74h 6v -150h 5v 262h 6v -262h 5v 112h 6v 150h 5v -38h 6v -37h 5v 75h 6v -38h 5v 74h 12v -74h 5v 74h 22v -36h 6v 36h 282" fill="none" stroke="#ff0000" stroke-width="6"/>
<text x="382" y="130" fill="black" font-size="55" font-family="Helvetica" font-weight="bold">
 (0.07)
</text>
<path d="M332,107h 42" fill="none" stroke="#ff0000" stroke-width="6"/>
<rect x="113" y="-4" width="197" height="40" fill="white"/>
<text x="121" y="25" fill="black" font-size="31" font-family="Helvetica" font-weight="bold">
v-mean-freq
</text></svg>
