<?xml version="1.0" standalone="no"?>
<svg width="567" height="466" viewBox="0 0 567 466" xmlns="http://www.w3.org/2000/svg">
<title>
/bbx/output/_plots/example/hmm/true/plots/dj_insertion.svg
</title>
<desc>
Creator: ROOT Version 5.34/14
CreationDate: Wed Aug 19 22:00:18 2015</desc>
<defs>
</defs>
<rect x="0" y="0" width="567" height="466" fill="white"/>
<rect x="79" y="37" width="443" height="359" fill="none" stroke="black"/>
<rect x="79" y="37" width="443" height="359" fill="none" stroke="black"/>
<path d="M79,396h 443" fill="none" stroke="black" stroke-width="3"/>
<path d="M94,385v 11" fill="none" stroke="black" stroke-width="3"/>
<path d="M124,391v 5" fill="none" stroke="black" stroke-width="3"/>
<path d="M153,391v 5" fill="none" stroke="black" stroke-width="3"/>
<path d="M183,391v 5" fill="none" stroke="black" stroke-width="3"/>
<path d="M212,391v 5" fill="none" stroke="black" stroke-width="3"/>
<path d="M242,385v 11" fill="none" stroke="black" stroke-width="3"/>
<path d="M271,391v 5" fill="none" stroke="black" stroke-width="3"/>
<path d="M300,391v 5" fill="none" stroke="black" stroke-width="3"/>
<path d="M330,391v 5" fill="none" stroke="black" stroke-width="3"/>
<path d="M359,391v 5" fill="none" stroke="black" stroke-width="3"/>
<path d="M389,385v 11" fill="none" stroke="black" stroke-width="3"/>
<path d="M94,385v 11" fill="none" stroke="black" stroke-width="3"/>
<path d="M389,385v 11" fill="none" stroke="black" stroke-width="3"/>
<path d="M418,391v 5" fill="none" stroke="black" stroke-width="3"/>
<path d="M448,391v 5" fill="none" stroke="black" stroke-width="3"/>
<path d="M477,391v 5" fill="none" stroke="black" stroke-width="3"/>
<path d="M507,391v 5" fill="none" stroke="black" stroke-width="3"/>
<text x="88" y="416" fill="black" font-size="21" font-family="Times" font-weight="bold">
0
</text>
<text x="235" y="416" fill="black" font-size="21" font-family="Times" font-weight="bold">
5
</text>
<text x="377" y="416" fill="black" font-size="21" font-family="Times" font-weight="bold">
10
</text>
<path d="M79,37h 443" fill="none" stroke="black" stroke-width="3"/>
<path d="M94,48v -11" fill="none" stroke="black" stroke-width="3"/>
<path d="M124,43v -6" fill="none" stroke="black" stroke-width="3"/>
<path d="M153,43v -6" fill="none" stroke="black" stroke-width="3"/>
<path d="M183,43v -6" fill="none" stroke="black" stroke-width="3"/>
<path d="M212,43v -6" fill="none" stroke="black" stroke-width="3"/>
<path d="M242,48v -11" fill="none" stroke="black" stroke-width="3"/>
<path d="M271,43v -6" fill="none" stroke="black" stroke-width="3"/>
<path d="M300,43v -6" fill="none" stroke="black" stroke-width="3"/>
<path d="M330,43v -6" fill="none" stroke="black" stroke-width="3"/>
<path d="M359,43v -6" fill="none" stroke="black" stroke-width="3"/>
<path d="M389,48v -11" fill="none" stroke="black" stroke-width="3"/>
<path d="M94,48v -11" fill="none" stroke="black" stroke-width="3"/>
<path d="M389,48v -11" fill="none" stroke="black" stroke-width="3"/>
<path d="M418,43v -6" fill="none" stroke="black" stroke-width="3"/>
<path d="M448,43v -6" fill="none" stroke="black" stroke-width="3"/>
<path d="M477,43v -6" fill="none" stroke="black" stroke-width="3"/>
<path d="M507,43v -6" fill="none" stroke="black" stroke-width="3"/>
<path d="M79,396v -359" fill="none" stroke="black" stroke-width="3"/>
<path d="M92,396h -13" fill="none" stroke="black" stroke-width="3"/>
<path d="M86,380h -7" fill="none" stroke="black" stroke-width="3"/>
<path d="M86,365h -7" fill="none" stroke="black" stroke-width="3"/>
<path d="M86,349h -7" fill="none" stroke="black" stroke-width="3"/>
<path d="M86,333h -7" fill="none" stroke="black" stroke-width="3"/>
<path d="M92,317h -13" fill="none" stroke="black" stroke-width="3"/>
<path d="M86,302h -7" fill="none" stroke="black" stroke-width="3"/>
<path d="M86,286h -7" fill="none" stroke="black" stroke-width="3"/>
<path d="M86,270h -7" fill="none" stroke="black" stroke-width="3"/>
<path d="M86,254h -7" fill="none" stroke="black" stroke-width="3"/>
<path d="M92,239h -13" fill="none" stroke="black" stroke-width="3"/>
<path d="M86,223h -7" fill="none" stroke="black" stroke-width="3"/>
<path d="M86,207h -7" fill="none" stroke="black" stroke-width="3"/>
<path d="M86,192h -7" fill="none" stroke="black" stroke-width="3"/>
<path d="M86,176h -7" fill="none" stroke="black" stroke-width="3"/>
<path d="M92,160h -13" fill="none" stroke="black" stroke-width="3"/>
<path d="M86,144h -7" fill="none" stroke="black" stroke-width="3"/>
<path d="M86,129h -7" fill="none" stroke="black" stroke-width="3"/>
<path d="M86,113h -7" fill="none" stroke="black" stroke-width="3"/>
<path d="M86,97h -7" fill="none" stroke="black" stroke-width="3"/>
<path d="M92,81h -13" fill="none" stroke="black" stroke-width="3"/>
<path d="M92,81h -13" fill="none" stroke="black" stroke-width="3"/>
<path d="M86,66h -7" fill="none" stroke="black" stroke-width="3"/>
<path d="M86,50h -7" fill="none" stroke="black" stroke-width="3"/>
<text x="63" y="404" fill="black" font-size="21" font-family="Times" font-weight="bold">
0
</text>
<text x="63" y="325" fill="black" font-size="21" font-family="Times" font-weight="bold">
5
</text>
<text x="51" y="247" fill="black" font-size="21" font-family="Times" font-weight="bold">
10
</text>
<text x="51" y="168" fill="black" font-size="21" font-family="Times" font-weight="bold">
15
</text>
<text x="51" y="89" fill="black" font-size="21" font-family="Times" font-weight="bold">
20
</text>
<path d="M522,396v -359" fill="none" stroke="black" stroke-width="3"/>
<path d="M508,396h 14" fill="none" stroke="black" stroke-width="3"/>
<path d="M515,380h 7" fill="none" stroke="black" stroke-width="3"/>
<path d="M515,365h 7" fill="none" stroke="black" stroke-width="3"/>
<path d="M515,349h 7" fill="none" stroke="black" stroke-width="3"/>
<path d="M515,333h 7" fill="none" stroke="black" stroke-width="3"/>
<path d="M508,317h 14" fill="none" stroke="black" stroke-width="3"/>
<path d="M515,302h 7" fill="none" stroke="black" stroke-width="3"/>
<path d="M515,286h 7" fill="none" stroke="black" stroke-width="3"/>
<path d="M515,270h 7" fill="none" stroke="black" stroke-width="3"/>
<path d="M515,254h 7" fill="none" stroke="black" stroke-width="3"/>
<path d="M508,239h 14" fill="none" stroke="black" stroke-width="3"/>
<path d="M515,223h 7" fill="none" stroke="black" stroke-width="3"/>
<path d="M515,207h 7" fill="none" stroke="black" stroke-width="3"/>
<path d="M515,192h 7" fill="none" stroke="black" stroke-width="3"/>
<path d="M515,176h 7" fill="none" stroke="black" stroke-width="3"/>
<path d="M508,160h 14" fill="none" stroke="black" stroke-width="3"/>
<path d="M515,144h 7" fill="none" stroke="black" stroke-width="3"/>
<path d="M515,129h 7" fill="none" stroke="black" stroke-width="3"/>
<path d="M515,113h 7" fill="none" stroke="black" stroke-width="3"/>
<path d="M515,97h 7" fill="none" stroke="black" stroke-width="3"/>
<path d="M508,81h 14" fill="none" stroke="black" stroke-width="3"/>
<path d="M508,81h 14" fill="none" stroke="black" stroke-width="3"/>
<path d="M515,66h 7" fill="none" stroke="black" stroke-width="3"/>
<path d="M515,50h 7" fill="none" stroke="black" stroke-width="3"/>
<rect x="113" y="-4" width="195" height="39" fill="white"/>
<text x="122" y="23" fill="black" font-size="30" font-family="Helvetica" font-weight="bold">
dj_insertion
</text>
<path d="M94,166v -66" fill="none" stroke="#ff0000" stroke-width="6"/>
<path d="M94,94v -57" fill="none" stroke="#ff0000" stroke-width="6"/>
<g stroke="#ff0000" stroke-width="6" fill="#ff0000">
<circle cx="94" cy="97" r="3.5"/>
</g>
<path d="M124,289v -47" fill="none" stroke="#ff0000" stroke-width="6"/>
<path d="M124,236v -47" fill="none" stroke="#ff0000" stroke-width="6"/>
<g stroke="#ff0000" stroke-width="6" fill="#ff0000">
<circle cx="124" cy="239" r="3.5"/>
</g>
<path d="M153,376v -24" fill="none" stroke="#ff0000" stroke-width="6"/>
<path d="M153,346v -24" fill="none" stroke="#ff0000" stroke-width="6"/>
<g stroke="#ff0000" stroke-width="6" fill="#ff0000">
<circle cx="153" cy="349" r="3.5"/>
</g>
<path d="M242,396v -12" fill="none" stroke="#ff0000" stroke-width="6"/>
<path d="M242,377v -12" fill="none" stroke="#ff0000" stroke-width="6"/>
<g stroke="#ff0000" stroke-width="6" fill="#ff0000">
<circle cx="242" cy="380" r="3.5"/>
</g>
<path d="M271,387v -19" fill="none" stroke="#ff0000" stroke-width="6"/>
<path d="M271,361v -19" fill="none" stroke="#ff0000" stroke-width="6"/>
<g stroke="#ff0000" stroke-width="6" fill="#ff0000">
<circle cx="271" cy="365" r="3.5"/>
</g>
<path d="M300,387v -19" fill="none" stroke="#ff0000" stroke-width="6"/>
<path d="M300,361v -19" fill="none" stroke="#ff0000" stroke-width="6"/>
<g stroke="#ff0000" stroke-width="6" fill="#ff0000">
<circle cx="300" cy="365" r="3.5"/>
</g>
<path d="M359,396v -12" fill="none" stroke="#ff0000" stroke-width="6"/>
<path d="M359,377v -12" fill="none" stroke="#ff0000" stroke-width="6"/>
<g stroke="#ff0000" stroke-width="6" fill="#ff0000">
<circle cx="359" cy="380" r="3.5"/>
</g>
<path d="M507,221v -58" fill="none" stroke="#ff0000" stroke-width="6"/>
<path d="M507,157v -58" fill="none" stroke="#ff0000" stroke-width="6"/>
<g stroke="#ff0000" stroke-width="6" fill="#ff0000">
<circle cx="507" cy="160" r="3.5"/>
</g>
<path d="M80,395v -298h 29v 142h 29v 110h 30v 46h 59v -15h 29v -15h 59v 30h 30v -15h 29v 15h 118v -235h 30" fill="none" stroke="#ff0000" stroke-width="6"/>
<path d="M332,107h 42" fill="none" stroke="#ff0000" stroke-width="6"/>
<rect x="113" y="-4" width="195" height="39" fill="white"/>
<text x="122" y="23" fill="black" font-size="30" font-family="Helvetica" font-weight="bold">
dj_insertion
</text></svg>
