<?xml version="1.0" standalone="no"?>
<svg width="567" height="466" viewBox="0 0 567 466" xmlns="http://www.w3.org/2000/svg">
<title>
/bbx/output/_plots/example/hmm/true/plots/j_gene.svg
</title>
<desc>
Creator: ROOT Version 5.34/14
CreationDate: Wed Aug 19 22:00:18 2015</desc>
<defs>
</defs>
<rect x="0" y="0" width="567" height="466" fill="white"/>
<rect x="79" y="37" width="443" height="359" fill="none" stroke="black"/>
<rect x="79" y="37" width="443" height="359" fill="none" stroke="black"/>
<path d="M79,396h 443" fill="none" stroke="black" stroke-width="3"/>
<text x="90" y="411" fill="black" font-size="14" font-family="Times" font-weight="bold">
IGHJ2*01
</text>
<text x="179" y="411" fill="black" font-size="14" font-family="Times" font-weight="bold">
IGHJ3*02
</text>
<text x="267" y="411" fill="black" font-size="14" font-family="Times" font-weight="bold">
IGHJ4*02
</text>
<text x="356" y="411" fill="black" font-size="14" font-family="Times" font-weight="bold">
IGHJ5*02
</text>
<text x="445" y="411" fill="black" font-size="14" font-family="Times" font-weight="bold">
IGHJ6*02
</text>
<path d="M124,385v 11" fill="none" stroke="black" stroke-width="3"/>
<path d="M212,385v 11" fill="none" stroke="black" stroke-width="3"/>
<path d="M300,385v 11" fill="none" stroke="black" stroke-width="3"/>
<path d="M389,385v 11" fill="none" stroke="black" stroke-width="3"/>
<path d="M477,385v 11" fill="none" stroke="black" stroke-width="3"/>
<path d="M124,385v 11" fill="none" stroke="black" stroke-width="3"/>
<path d="M477,385v 11" fill="none" stroke="black" stroke-width="3"/>
<path d="M79,37h 443" fill="none" stroke="black" stroke-width="3"/>
<path d="M124,48v -11" fill="none" stroke="black" stroke-width="3"/>
<path d="M212,48v -11" fill="none" stroke="black" stroke-width="3"/>
<path d="M300,48v -11" fill="none" stroke="black" stroke-width="3"/>
<path d="M389,48v -11" fill="none" stroke="black" stroke-width="3"/>
<path d="M477,48v -11" fill="none" stroke="black" stroke-width="3"/>
<path d="M124,48v -11" fill="none" stroke="black" stroke-width="3"/>
<path d="M477,48v -11" fill="none" stroke="black" stroke-width="3"/>
<path d="M79,396v -359" fill="none" stroke="black" stroke-width="3"/>
<path d="M92,396h -13" fill="none" stroke="black" stroke-width="3"/>
<path d="M86,377h -7" fill="none" stroke="black" stroke-width="3"/>
<path d="M86,358h -7" fill="none" stroke="black" stroke-width="3"/>
<path d="M86,338h -7" fill="none" stroke="black" stroke-width="3"/>
<path d="M86,319h -7" fill="none" stroke="black" stroke-width="3"/>
<path d="M92,300h -13" fill="none" stroke="black" stroke-width="3"/>
<path d="M86,280h -7" fill="none" stroke="black" stroke-width="3"/>
<path d="M86,261h -7" fill="none" stroke="black" stroke-width="3"/>
<path d="M86,242h -7" fill="none" stroke="black" stroke-width="3"/>
<path d="M86,223h -7" fill="none" stroke="black" stroke-width="3"/>
<path d="M92,203h -13" fill="none" stroke="black" stroke-width="3"/>
<path d="M86,184h -7" fill="none" stroke="black" stroke-width="3"/>
<path d="M86,165h -7" fill="none" stroke="black" stroke-width="3"/>
<path d="M86,145h -7" fill="none" stroke="black" stroke-width="3"/>
<path d="M86,126h -7" fill="none" stroke="black" stroke-width="3"/>
<path d="M92,107h -13" fill="none" stroke="black" stroke-width="3"/>
<path d="M92,107h -13" fill="none" stroke="black" stroke-width="3"/>
<path d="M86,87h -7" fill="none" stroke="black" stroke-width="3"/>
<path d="M86,68h -7" fill="none" stroke="black" stroke-width="3"/>
<path d="M86,49h -7" fill="none" stroke="black" stroke-width="3"/>
<text x="63" y="404" fill="black" font-size="21" font-family="Times" font-weight="bold">
0
</text>
<text x="51" y="307" fill="black" font-size="21" font-family="Times" font-weight="bold">
10
</text>
<text x="51" y="211" fill="black" font-size="21" font-family="Times" font-weight="bold">
20
</text>
<text x="51" y="115" fill="black" font-size="21" font-family="Times" font-weight="bold">
30
</text>
<path d="M522,396v -359" fill="none" stroke="black" stroke-width="3"/>
<path d="M508,396h 14" fill="none" stroke="black" stroke-width="3"/>
<path d="M515,377h 7" fill="none" stroke="black" stroke-width="3"/>
<path d="M515,358h 7" fill="none" stroke="black" stroke-width="3"/>
<path d="M515,338h 7" fill="none" stroke="black" stroke-width="3"/>
<path d="M515,319h 7" fill="none" stroke="black" stroke-width="3"/>
<path d="M508,300h 14" fill="none" stroke="black" stroke-width="3"/>
<path d="M515,280h 7" fill="none" stroke="black" stroke-width="3"/>
<path d="M515,261h 7" fill="none" stroke="black" stroke-width="3"/>
<path d="M515,242h 7" fill="none" stroke="black" stroke-width="3"/>
<path d="M515,223h 7" fill="none" stroke="black" stroke-width="3"/>
<path d="M508,203h 14" fill="none" stroke="black" stroke-width="3"/>
<path d="M515,184h 7" fill="none" stroke="black" stroke-width="3"/>
<path d="M515,165h 7" fill="none" stroke="black" stroke-width="3"/>
<path d="M515,145h 7" fill="none" stroke="black" stroke-width="3"/>
<path d="M515,126h 7" fill="none" stroke="black" stroke-width="3"/>
<path d="M508,107h 14" fill="none" stroke="black" stroke-width="3"/>
<path d="M508,107h 14" fill="none" stroke="black" stroke-width="3"/>
<path d="M515,87h 7" fill="none" stroke="black" stroke-width="3"/>
<path d="M515,68h 7" fill="none" stroke="black" stroke-width="3"/>
<path d="M515,49h 7" fill="none" stroke="black" stroke-width="3"/>
<rect x="113" y="-4" width="112" height="40" fill="white"/>
<text x="117" y="25" fill="black" font-size="31" font-family="Helvetica" font-weight="bold">
j_gene
</text>
<path d="M124,396v -6" fill="none" stroke="#ff0000" stroke-width="6"/>
<path d="M124,383v -6" fill="none" stroke="#ff0000" stroke-width="6"/>
<g stroke="#ff0000" stroke-width="6" fill="#ff0000">
<circle cx="124" cy="386" r="3.5"/>
</g>
<path d="M212,396v -6" fill="none" stroke="#ff0000" stroke-width="6"/>
<path d="M212,383v -6" fill="none" stroke="#ff0000" stroke-width="6"/>
<g stroke="#ff0000" stroke-width="6" fill="#ff0000">
<circle cx="212" cy="386" r="3.5"/>
</g>
<path d="M300,263v -37" fill="none" stroke="#ff0000" stroke-width="6"/>
<path d="M300,219v -37" fill="none" stroke="#ff0000" stroke-width="6"/>
<g stroke="#ff0000" stroke-width="6" fill="#ff0000">
<circle cx="300" cy="223" r="3.5"/>
</g>
<path d="M389,151v -51" fill="none" stroke="#ff0000" stroke-width="6"/>
<path d="M389,94v -51" fill="none" stroke="#ff0000" stroke-width="6"/>
<g stroke="#ff0000" stroke-width="6" fill="#ff0000">
<circle cx="389" cy="97" r="3.5"/>
</g>
<path d="M477,390v -10" fill="none" stroke="#ff0000" stroke-width="6"/>
<path d="M477,374v -11" fill="none" stroke="#ff0000" stroke-width="6"/>
<g stroke="#ff0000" stroke-width="6" fill="#ff0000">
<circle cx="477" cy="377" r="3.5"/>
</g>
<path d="M80,395v -9h 176v -163h 89v -126h 88v 280h 89" fill="none" stroke="#ff0000" stroke-width="6"/>
<path d="M332,107h 42" fill="none" stroke="#ff0000" stroke-width="6"/>
<rect x="113" y="-4" width="112" height="40" fill="white"/>
<text x="117" y="25" fill="black" font-size="31" font-family="Helvetica" font-weight="bold">
j_gene
</text></svg>
