<?xml version="1.0" standalone="no"?>
<svg width="567" height="466" viewBox="0 0 567 466" xmlns="http://www.w3.org/2000/svg">
<title>
/bbx/output/_plots/example/sw/true/mute-freqs/d/plots/IGHD2-15_star_01.svg
</title>
<desc>
Creator: ROOT Version 5.34/14
CreationDate: Thu Jul 30 17:05:59 2015</desc>
<defs>
</defs>
<rect x="0" y="0" width="567" height="466" fill="white"/>
<rect x="79" y="37" width="443" height="359" fill="none" stroke="black"/>
<rect x="79" y="37" width="443" height="359" fill="none" stroke="black"/>
<path d="M79,396h 443" fill="none" stroke="black" stroke-width="3"/>
<path d="M132,385v 11" fill="none" stroke="black" stroke-width="3"/>
<path d="M153,391v 5" fill="none" stroke="black" stroke-width="3"/>
<path d="M174,391v 5" fill="none" stroke="black" stroke-width="3"/>
<path d="M195,391v 5" fill="none" stroke="black" stroke-width="3"/>
<path d="M216,391v 5" fill="none" stroke="black" stroke-width="3"/>
<path d="M237,385v 11" fill="none" stroke="black" stroke-width="3"/>
<path d="M258,391v 5" fill="none" stroke="black" stroke-width="3"/>
<path d="M279,391v 5" fill="none" stroke="black" stroke-width="3"/>
<path d="M300,391v 5" fill="none" stroke="black" stroke-width="3"/>
<path d="M322,391v 5" fill="none" stroke="black" stroke-width="3"/>
<path d="M343,385v 11" fill="none" stroke="black" stroke-width="3"/>
<path d="M364,391v 5" fill="none" stroke="black" stroke-width="3"/>
<path d="M385,391v 5" fill="none" stroke="black" stroke-width="3"/>
<path d="M406,391v 5" fill="none" stroke="black" stroke-width="3"/>
<path d="M427,391v 5" fill="none" stroke="black" stroke-width="3"/>
<path d="M448,385v 11" fill="none" stroke="black" stroke-width="3"/>
<path d="M132,385v 11" fill="none" stroke="black" stroke-width="3"/>
<path d="M111,391v 5" fill="none" stroke="black" stroke-width="3"/>
<path d="M90,391v 5" fill="none" stroke="black" stroke-width="3"/>
<path d="M448,385v 11" fill="none" stroke="black" stroke-width="3"/>
<path d="M469,391v 5" fill="none" stroke="black" stroke-width="3"/>
<path d="M490,391v 5" fill="none" stroke="black" stroke-width="3"/>
<path d="M511,391v 5" fill="none" stroke="black" stroke-width="3"/>
<text x="126" y="416" fill="black" font-size="21" font-family="Times" font-weight="bold">
5
</text>
<text x="226" y="416" fill="black" font-size="21" font-family="Times" font-weight="bold">
10
</text>
<text x="331" y="416" fill="black" font-size="21" font-family="Times" font-weight="bold">
15
</text>
<text x="436" y="416" fill="black" font-size="21" font-family="Times" font-weight="bold">
20
</text>
<path d="M79,37h 443" fill="none" stroke="black" stroke-width="3"/>
<path d="M132,48v -11" fill="none" stroke="black" stroke-width="3"/>
<path d="M153,43v -6" fill="none" stroke="black" stroke-width="3"/>
<path d="M174,43v -6" fill="none" stroke="black" stroke-width="3"/>
<path d="M195,43v -6" fill="none" stroke="black" stroke-width="3"/>
<path d="M216,43v -6" fill="none" stroke="black" stroke-width="3"/>
<path d="M237,48v -11" fill="none" stroke="black" stroke-width="3"/>
<path d="M258,43v -6" fill="none" stroke="black" stroke-width="3"/>
<path d="M279,43v -6" fill="none" stroke="black" stroke-width="3"/>
<path d="M300,43v -6" fill="none" stroke="black" stroke-width="3"/>
<path d="M322,43v -6" fill="none" stroke="black" stroke-width="3"/>
<path d="M343,48v -11" fill="none" stroke="black" stroke-width="3"/>
<path d="M364,43v -6" fill="none" stroke="black" stroke-width="3"/>
<path d="M385,43v -6" fill="none" stroke="black" stroke-width="3"/>
<path d="M406,43v -6" fill="none" stroke="black" stroke-width="3"/>
<path d="M427,43v -6" fill="none" stroke="black" stroke-width="3"/>
<path d="M448,48v -11" fill="none" stroke="black" stroke-width="3"/>
<path d="M132,48v -11" fill="none" stroke="black" stroke-width="3"/>
<path d="M111,43v -6" fill="none" stroke="black" stroke-width="3"/>
<path d="M90,43v -6" fill="none" stroke="black" stroke-width="3"/>
<path d="M448,48v -11" fill="none" stroke="black" stroke-width="3"/>
<path d="M469,43v -6" fill="none" stroke="black" stroke-width="3"/>
<path d="M490,43v -6" fill="none" stroke="black" stroke-width="3"/>
<path d="M511,43v -6" fill="none" stroke="black" stroke-width="3"/>
<path d="M79,396v -359" fill="none" stroke="black" stroke-width="3"/>
<path d="M92,396h -13" fill="none" stroke="black" stroke-width="3"/>
<path d="M86,363h -7" fill="none" stroke="black" stroke-width="3"/>
<path d="M86,330h -7" fill="none" stroke="black" stroke-width="3"/>
<path d="M86,297h -7" fill="none" stroke="black" stroke-width="3"/>
<path d="M86,265h -7" fill="none" stroke="black" stroke-width="3"/>
<path d="M92,232h -13" fill="none" stroke="black" stroke-width="3"/>
<path d="M86,199h -7" fill="none" stroke="black" stroke-width="3"/>
<path d="M86,166h -7" fill="none" stroke="black" stroke-width="3"/>
<path d="M86,133h -7" fill="none" stroke="black" stroke-width="3"/>
<path d="M86,100h -7" fill="none" stroke="black" stroke-width="3"/>
<path d="M92,67h -13" fill="none" stroke="black" stroke-width="3"/>
<path d="M92,67h -13" fill="none" stroke="black" stroke-width="3"/>
<text x="46" y="404" fill="black" font-size="21" font-family="Times" font-weight="bold">
0.0
</text>
<text x="46" y="240" fill="black" font-size="21" font-family="Times" font-weight="bold">
0.5
</text>
<text x="46" y="75" fill="black" font-size="21" font-family="Times" font-weight="bold">
1.0
</text>
<path d="M522,396v -359" fill="none" stroke="black" stroke-width="3"/>
<path d="M508,396h 14" fill="none" stroke="black" stroke-width="3"/>
<path d="M515,363h 7" fill="none" stroke="black" stroke-width="3"/>
<path d="M515,330h 7" fill="none" stroke="black" stroke-width="3"/>
<path d="M515,297h 7" fill="none" stroke="black" stroke-width="3"/>
<path d="M515,265h 7" fill="none" stroke="black" stroke-width="3"/>
<path d="M508,232h 14" fill="none" stroke="black" stroke-width="3"/>
<path d="M515,199h 7" fill="none" stroke="black" stroke-width="3"/>
<path d="M515,166h 7" fill="none" stroke="black" stroke-width="3"/>
<path d="M515,133h 7" fill="none" stroke="black" stroke-width="3"/>
<path d="M515,100h 7" fill="none" stroke="black" stroke-width="3"/>
<path d="M508,67h 14" fill="none" stroke="black" stroke-width="3"/>
<path d="M508,67h 14" fill="none" stroke="black" stroke-width="3"/>
<rect x="113" y="-4" width="303" height="38" fill="white"/>
<text x="136" y="24" fill="black" font-size="30" font-family="Helvetica" font-weight="bold">
IGHD2-15_star_01
</text>
<path d="M90,396v -27" fill="none" stroke="#ff0000" stroke-width="6"/>
<path d="M90,363v -27" fill="none" stroke="#ff0000" stroke-width="6"/>
<path d="M79,366h 8" fill="none" stroke="#ff0000" stroke-width="6"/>
<path d="M93,366h 7" fill="none" stroke="#ff0000" stroke-width="6"/>
<g stroke="#ff0000" stroke-width="6" fill="#ff0000">
<circle cx="90" cy="366" r="3.5"/>
</g>
<path d="M111,127v -27" fill="none" stroke="#ff0000" stroke-width="6"/>
<path d="M111,94v -27" fill="none" stroke="#ff0000" stroke-width="6"/>
<path d="M100,97h 8" fill="none" stroke="#ff0000" stroke-width="6"/>
<path d="M114,97h 7" fill="none" stroke="#ff0000" stroke-width="6"/>
<g stroke="#ff0000" stroke-width="6" fill="#ff0000">
<circle cx="111" cy="97" r="3.5"/>
</g>
<path d="M132,373v -33" fill="none" stroke="#ff0000" stroke-width="6"/>
<path d="M132,333v -33" fill="none" stroke="#ff0000" stroke-width="6"/>
<path d="M121,336h 8" fill="none" stroke="#ff0000" stroke-width="6"/>
<path d="M135,336h 8" fill="none" stroke="#ff0000" stroke-width="6"/>
<g stroke="#ff0000" stroke-width="6" fill="#ff0000">
<circle cx="132" cy="336" r="3.5"/>
</g>
<path d="M153,393v -10" fill="none" stroke="#ff0000" stroke-width="6"/>
<g stroke="#ff0000" stroke-width="6" fill="#ff0000">
<circle cx="153" cy="396" r="3.5"/>
</g>
<path d="M174,396v -24" fill="none" stroke="#ff0000" stroke-width="6"/>
<path d="M174,365v -24" fill="none" stroke="#ff0000" stroke-width="6"/>
<path d="M164,369h 7" fill="none" stroke="#ff0000" stroke-width="6"/>
<path d="M177,369h 8" fill="none" stroke="#ff0000" stroke-width="6"/>
<g stroke="#ff0000" stroke-width="6" fill="#ff0000">
<circle cx="174" cy="369" r="3.5"/>
</g>
<path d="M195,393v -10" fill="none" stroke="#ff0000" stroke-width="6"/>
<g stroke="#ff0000" stroke-width="6" fill="#ff0000">
<circle cx="195" cy="396" r="3.5"/>
</g>
<path d="M216,246v -38" fill="none" stroke="#ff0000" stroke-width="6"/>
<path d="M216,201v -39" fill="none" stroke="#ff0000" stroke-width="6"/>
<path d="M206,204h 7" fill="none" stroke="#ff0000" stroke-width="6"/>
<path d="M220,204h 7" fill="none" stroke="#ff0000" stroke-width="6"/>
<g stroke="#ff0000" stroke-width="6" fill="#ff0000">
<circle cx="216" cy="204" r="3.5"/>
</g>
<path d="M237,393v -10" fill="none" stroke="#ff0000" stroke-width="6"/>
<g stroke="#ff0000" stroke-width="6" fill="#ff0000">
<circle cx="237" cy="396" r="3.5"/>
</g>
<path d="M258,393v -10" fill="none" stroke="#ff0000" stroke-width="6"/>
<g stroke="#ff0000" stroke-width="6" fill="#ff0000">
<circle cx="258" cy="396" r="3.5"/>
</g>
<path d="M279,352v -35" fill="none" stroke="#ff0000" stroke-width="6"/>
<path d="M279,311v -35" fill="none" stroke="#ff0000" stroke-width="6"/>
<path d="M269,314h 7" fill="none" stroke="#ff0000" stroke-width="6"/>
<path d="M283,314h 7" fill="none" stroke="#ff0000" stroke-width="6"/>
<g stroke="#ff0000" stroke-width="6" fill="#ff0000">
<circle cx="279" cy="314" r="3.5"/>
</g>
<path d="M300,375v -30" fill="none" stroke="#ff0000" stroke-width="6"/>
<path d="M300,338v -31" fill="none" stroke="#ff0000" stroke-width="6"/>
<path d="M290,341h 7" fill="none" stroke="#ff0000" stroke-width="6"/>
<path d="M304,341h 7" fill="none" stroke="#ff0000" stroke-width="6"/>
<g stroke="#ff0000" stroke-width="6" fill="#ff0000">
<circle cx="300" cy="341" r="3.5"/>
</g>
<path d="M322,396v -24" fill="none" stroke="#ff0000" stroke-width="6"/>
<path d="M322,365v -24" fill="none" stroke="#ff0000" stroke-width="6"/>
<path d="M311,369h 7" fill="none" stroke="#ff0000" stroke-width="6"/>
<path d="M325,369h 7" fill="none" stroke="#ff0000" stroke-width="6"/>
<g stroke="#ff0000" stroke-width="6" fill="#ff0000">
<circle cx="322" cy="369" r="3.5"/>
</g>
<path d="M343,301v -39" fill="none" stroke="#ff0000" stroke-width="6"/>
<path d="M343,256v -39" fill="none" stroke="#ff0000" stroke-width="6"/>
<path d="M332,259h 7" fill="none" stroke="#ff0000" stroke-width="6"/>
<path d="M346,259h 7" fill="none" stroke="#ff0000" stroke-width="6"/>
<g stroke="#ff0000" stroke-width="6" fill="#ff0000">
<circle cx="343" cy="259" r="3.5"/>
</g>
<path d="M364,352v -35" fill="none" stroke="#ff0000" stroke-width="6"/>
<path d="M364,311v -35" fill="none" stroke="#ff0000" stroke-width="6"/>
<path d="M353,314h 7" fill="none" stroke="#ff0000" stroke-width="6"/>
<path d="M367,314h 7" fill="none" stroke="#ff0000" stroke-width="6"/>
<g stroke="#ff0000" stroke-width="6" fill="#ff0000">
<circle cx="364" cy="314" r="3.5"/>
</g>
<path d="M385,393v -10" fill="none" stroke="#ff0000" stroke-width="6"/>
<g stroke="#ff0000" stroke-width="6" fill="#ff0000">
<circle cx="385" cy="396" r="3.5"/>
</g>
<path d="M406,396v -24" fill="none" stroke="#ff0000" stroke-width="6"/>
<path d="M406,365v -24" fill="none" stroke="#ff0000" stroke-width="6"/>
<path d="M395,369h 8" fill="none" stroke="#ff0000" stroke-width="6"/>
<path d="M409,369h 7" fill="none" stroke="#ff0000" stroke-width="6"/>
<g stroke="#ff0000" stroke-width="6" fill="#ff0000">
<circle cx="406" cy="369" r="3.5"/>
</g>
<path d="M427,396v -24" fill="none" stroke="#ff0000" stroke-width="6"/>
<path d="M427,365v -24" fill="none" stroke="#ff0000" stroke-width="6"/>
<path d="M416,369h 8" fill="none" stroke="#ff0000" stroke-width="6"/>
<path d="M430,369h 7" fill="none" stroke="#ff0000" stroke-width="6"/>
<g stroke="#ff0000" stroke-width="6" fill="#ff0000">
<circle cx="427" cy="369" r="3.5"/>
</g>
<path d="M448,352v -35" fill="none" stroke="#ff0000" stroke-width="6"/>
<path d="M448,311v -35" fill="none" stroke="#ff0000" stroke-width="6"/>
<path d="M437,314h 8" fill="none" stroke="#ff0000" stroke-width="6"/>
<path d="M451,314h 7" fill="none" stroke="#ff0000" stroke-width="6"/>
<g stroke="#ff0000" stroke-width="6" fill="#ff0000">
<circle cx="448" cy="314" r="3.5"/>
</g>
<path d="M469,396v -24" fill="none" stroke="#ff0000" stroke-width="6"/>
<path d="M469,365v -24" fill="none" stroke="#ff0000" stroke-width="6"/>
<path d="M458,369h 8" fill="none" stroke="#ff0000" stroke-width="6"/>
<path d="M472,369h 7" fill="none" stroke="#ff0000" stroke-width="6"/>
<g stroke="#ff0000" stroke-width="6" fill="#ff0000">
<circle cx="469" cy="369" r="3.5"/>
</g>
<path d="M490,393v -10" fill="none" stroke="#ff0000" stroke-width="6"/>
<g stroke="#ff0000" stroke-width="6" fill="#ff0000">
<circle cx="490" cy="396" r="3.5"/>
</g>
<path d="M511,393v -11" fill="none" stroke="#ff0000" stroke-width="6"/>
<g stroke="#ff0000" stroke-width="6" fill="#ff0000">
<circle cx="511" cy="396" r="3.5"/>
</g>
<path d="M332,107h 42" fill="none" stroke="#ff0000" stroke-width="6"/>
<rect x="113" y="-4" width="303" height="38" fill="white"/>
<text x="136" y="24" fill="black" font-size="30" font-family="Helvetica" font-weight="bold">
IGHD2-15_star_01
</text></svg>
