<?xml version="1.0" standalone="no"?>
<svg width="567" height="466" viewBox="0 0 567 466" xmlns="http://www.w3.org/2000/svg">
<title>
/bbx/output/_plots/example/sw/true/mute-freqs/d/plots/IGHD2_slash_OR15-2b_star_01.svg
</title>
<desc>
Creator: ROOT Version 5.34/14
CreationDate: Thu Jul 30 17:06:00 2015</desc>
<defs>
</defs>
<rect x="0" y="0" width="567" height="466" fill="white"/>
<rect x="79" y="37" width="443" height="359" fill="none" stroke="black"/>
<rect x="79" y="37" width="443" height="359" fill="none" stroke="black"/>
<path d="M79,396h 443" fill="none" stroke="black" stroke-width="3"/>
<path d="M161,385v 11" fill="none" stroke="black" stroke-width="3"/>
<path d="M184,391v 5" fill="none" stroke="black" stroke-width="3"/>
<path d="M207,391v 5" fill="none" stroke="black" stroke-width="3"/>
<path d="M231,391v 5" fill="none" stroke="black" stroke-width="3"/>
<path d="M254,391v 5" fill="none" stroke="black" stroke-width="3"/>
<path d="M277,385v 11" fill="none" stroke="black" stroke-width="3"/>
<path d="M300,391v 5" fill="none" stroke="black" stroke-width="3"/>
<path d="M324,391v 5" fill="none" stroke="black" stroke-width="3"/>
<path d="M347,391v 5" fill="none" stroke="black" stroke-width="3"/>
<path d="M370,391v 5" fill="none" stroke="black" stroke-width="3"/>
<path d="M394,385v 11" fill="none" stroke="black" stroke-width="3"/>
<path d="M417,391v 5" fill="none" stroke="black" stroke-width="3"/>
<path d="M440,391v 5" fill="none" stroke="black" stroke-width="3"/>
<path d="M463,391v 5" fill="none" stroke="black" stroke-width="3"/>
<path d="M487,391v 5" fill="none" stroke="black" stroke-width="3"/>
<path d="M510,385v 11" fill="none" stroke="black" stroke-width="3"/>
<path d="M161,385v 11" fill="none" stroke="black" stroke-width="3"/>
<path d="M138,391v 5" fill="none" stroke="black" stroke-width="3"/>
<path d="M114,391v 5" fill="none" stroke="black" stroke-width="3"/>
<path d="M91,391v 5" fill="none" stroke="black" stroke-width="3"/>
<path d="M510,385v 11" fill="none" stroke="black" stroke-width="3"/>
<text x="149" y="416" fill="black" font-size="21" font-family="Times" font-weight="bold">
15
</text>
<text x="266" y="416" fill="black" font-size="21" font-family="Times" font-weight="bold">
20
</text>
<text x="382" y="416" fill="black" font-size="21" font-family="Times" font-weight="bold">
25
</text>
<text x="499" y="416" fill="black" font-size="21" font-family="Times" font-weight="bold">
30
</text>
<path d="M79,37h 443" fill="none" stroke="black" stroke-width="3"/>
<path d="M161,48v -11" fill="none" stroke="black" stroke-width="3"/>
<path d="M184,43v -6" fill="none" stroke="black" stroke-width="3"/>
<path d="M207,43v -6" fill="none" stroke="black" stroke-width="3"/>
<path d="M231,43v -6" fill="none" stroke="black" stroke-width="3"/>
<path d="M254,43v -6" fill="none" stroke="black" stroke-width="3"/>
<path d="M277,48v -11" fill="none" stroke="black" stroke-width="3"/>
<path d="M300,43v -6" fill="none" stroke="black" stroke-width="3"/>
<path d="M324,43v -6" fill="none" stroke="black" stroke-width="3"/>
<path d="M347,43v -6" fill="none" stroke="black" stroke-width="3"/>
<path d="M370,43v -6" fill="none" stroke="black" stroke-width="3"/>
<path d="M394,48v -11" fill="none" stroke="black" stroke-width="3"/>
<path d="M417,43v -6" fill="none" stroke="black" stroke-width="3"/>
<path d="M440,43v -6" fill="none" stroke="black" stroke-width="3"/>
<path d="M463,43v -6" fill="none" stroke="black" stroke-width="3"/>
<path d="M487,43v -6" fill="none" stroke="black" stroke-width="3"/>
<path d="M510,48v -11" fill="none" stroke="black" stroke-width="3"/>
<path d="M161,48v -11" fill="none" stroke="black" stroke-width="3"/>
<path d="M138,43v -6" fill="none" stroke="black" stroke-width="3"/>
<path d="M114,43v -6" fill="none" stroke="black" stroke-width="3"/>
<path d="M91,43v -6" fill="none" stroke="black" stroke-width="3"/>
<path d="M510,48v -11" fill="none" stroke="black" stroke-width="3"/>
<path d="M79,396v -359" fill="none" stroke="black" stroke-width="3"/>
<path d="M92,396h -13" fill="none" stroke="black" stroke-width="3"/>
<path d="M86,366h -7" fill="none" stroke="black" stroke-width="3"/>
<path d="M86,336h -7" fill="none" stroke="black" stroke-width="3"/>
<path d="M86,306h -7" fill="none" stroke="black" stroke-width="3"/>
<path d="M86,277h -7" fill="none" stroke="black" stroke-width="3"/>
<path d="M92,247h -13" fill="none" stroke="black" stroke-width="3"/>
<path d="M86,217h -7" fill="none" stroke="black" stroke-width="3"/>
<path d="M86,187h -7" fill="none" stroke="black" stroke-width="3"/>
<path d="M86,157h -7" fill="none" stroke="black" stroke-width="3"/>
<path d="M86,127h -7" fill="none" stroke="black" stroke-width="3"/>
<path d="M92,97h -13" fill="none" stroke="black" stroke-width="3"/>
<path d="M92,97h -13" fill="none" stroke="black" stroke-width="3"/>
<path d="M86,67h -7" fill="none" stroke="black" stroke-width="3"/>
<path d="M86,37h -7" fill="none" stroke="black" stroke-width="3"/>
<text x="46" y="404" fill="black" font-size="21" font-family="Times" font-weight="bold">
0.0
</text>
<text x="46" y="254" fill="black" font-size="21" font-family="Times" font-weight="bold">
0.5
</text>
<text x="46" y="105" fill="black" font-size="21" font-family="Times" font-weight="bold">
1.0
</text>
<path d="M522,396v -359" fill="none" stroke="black" stroke-width="3"/>
<path d="M508,396h 14" fill="none" stroke="black" stroke-width="3"/>
<path d="M515,366h 7" fill="none" stroke="black" stroke-width="3"/>
<path d="M515,336h 7" fill="none" stroke="black" stroke-width="3"/>
<path d="M515,306h 7" fill="none" stroke="black" stroke-width="3"/>
<path d="M515,277h 7" fill="none" stroke="black" stroke-width="3"/>
<path d="M508,247h 14" fill="none" stroke="black" stroke-width="3"/>
<path d="M515,217h 7" fill="none" stroke="black" stroke-width="3"/>
<path d="M515,187h 7" fill="none" stroke="black" stroke-width="3"/>
<path d="M515,157h 7" fill="none" stroke="black" stroke-width="3"/>
<path d="M515,127h 7" fill="none" stroke="black" stroke-width="3"/>
<path d="M508,97h 14" fill="none" stroke="black" stroke-width="3"/>
<path d="M508,97h 14" fill="none" stroke="black" stroke-width="3"/>
<path d="M515,67h 7" fill="none" stroke="black" stroke-width="3"/>
<path d="M515,37h 7" fill="none" stroke="black" stroke-width="3"/>
<rect x="113" y="-4" width="397" height="38" fill="white"/>
<text x="124" y="22" fill="black" font-size="25" font-family="Helvetica" font-weight="bold">
IGHD2_slash_OR15-2b_star_01
</text>
<path d="M91,393v -60" fill="none" stroke="#ff0000" stroke-width="6"/>
<g stroke="#ff0000" stroke-width="6" fill="#ff0000">
<circle cx="91" cy="396" r="3.5"/>
</g>
<path d="M114,160v -60" fill="none" stroke="#ff0000" stroke-width="6"/>
<path d="M114,94v -57" fill="none" stroke="#ff0000" stroke-width="6"/>
<path d="M103,97h 8" fill="none" stroke="#ff0000" stroke-width="6"/>
<path d="M118,97h 8" fill="none" stroke="#ff0000" stroke-width="6"/>
<g stroke="#ff0000" stroke-width="6" fill="#ff0000">
<circle cx="114" cy="97" r="3.5"/>
</g>
<path d="M138,393v -60" fill="none" stroke="#ff0000" stroke-width="6"/>
<g stroke="#ff0000" stroke-width="6" fill="#ff0000">
<circle cx="138" cy="396" r="3.5"/>
</g>
<path d="M161,393v -60" fill="none" stroke="#ff0000" stroke-width="6"/>
<g stroke="#ff0000" stroke-width="6" fill="#ff0000">
<circle cx="161" cy="396" r="3.5"/>
</g>
<path d="M184,393v -60" fill="none" stroke="#ff0000" stroke-width="6"/>
<g stroke="#ff0000" stroke-width="6" fill="#ff0000">
<circle cx="184" cy="396" r="3.5"/>
</g>
<path d="M207,393v -60" fill="none" stroke="#ff0000" stroke-width="6"/>
<g stroke="#ff0000" stroke-width="6" fill="#ff0000">
<circle cx="207" cy="396" r="3.5"/>
</g>
<path d="M231,393v -60" fill="none" stroke="#ff0000" stroke-width="6"/>
<g stroke="#ff0000" stroke-width="6" fill="#ff0000">
<circle cx="231" cy="396" r="3.5"/>
</g>
<path d="M254,393v -60" fill="none" stroke="#ff0000" stroke-width="6"/>
<g stroke="#ff0000" stroke-width="6" fill="#ff0000">
<circle cx="254" cy="396" r="3.5"/>
</g>
<path d="M277,393v -60" fill="none" stroke="#ff0000" stroke-width="6"/>
<g stroke="#ff0000" stroke-width="6" fill="#ff0000">
<circle cx="277" cy="396" r="3.5"/>
</g>
<path d="M300,393v -60" fill="none" stroke="#ff0000" stroke-width="6"/>
<g stroke="#ff0000" stroke-width="6" fill="#ff0000">
<circle cx="300" cy="396" r="3.5"/>
</g>
<path d="M324,393v -60" fill="none" stroke="#ff0000" stroke-width="6"/>
<g stroke="#ff0000" stroke-width="6" fill="#ff0000">
<circle cx="324" cy="396" r="3.5"/>
</g>
<path d="M347,393v -60" fill="none" stroke="#ff0000" stroke-width="6"/>
<g stroke="#ff0000" stroke-width="6" fill="#ff0000">
<circle cx="347" cy="396" r="3.5"/>
</g>
<path d="M370,393v -60" fill="none" stroke="#ff0000" stroke-width="6"/>
<g stroke="#ff0000" stroke-width="6" fill="#ff0000">
<circle cx="370" cy="396" r="3.5"/>
</g>
<path d="M394,393v -60" fill="none" stroke="#ff0000" stroke-width="6"/>
<g stroke="#ff0000" stroke-width="6" fill="#ff0000">
<circle cx="394" cy="396" r="3.5"/>
</g>
<path d="M417,393v -60" fill="none" stroke="#ff0000" stroke-width="6"/>
<g stroke="#ff0000" stroke-width="6" fill="#ff0000">
<circle cx="417" cy="396" r="3.5"/>
</g>
<path d="M440,393v -60" fill="none" stroke="#ff0000" stroke-width="6"/>
<g stroke="#ff0000" stroke-width="6" fill="#ff0000">
<circle cx="440" cy="396" r="3.5"/>
</g>
<path d="M463,393v -60" fill="none" stroke="#ff0000" stroke-width="6"/>
<g stroke="#ff0000" stroke-width="6" fill="#ff0000">
<circle cx="463" cy="396" r="3.5"/>
</g>
<path d="M487,393v -60" fill="none" stroke="#ff0000" stroke-width="6"/>
<g stroke="#ff0000" stroke-width="6" fill="#ff0000">
<circle cx="487" cy="396" r="3.5"/>
</g>
<path d="M510,393v -60" fill="none" stroke="#ff0000" stroke-width="6"/>
<g stroke="#ff0000" stroke-width="6" fill="#ff0000">
<circle cx="510" cy="396" r="3.5"/>
</g>
<path d="M332,107h 42" fill="none" stroke="#ff0000" stroke-width="6"/>
<rect x="113" y="-4" width="397" height="38" fill="white"/>
<text x="124" y="22" fill="black" font-size="25" font-family="Helvetica" font-weight="bold">
IGHD2_slash_OR15-2b_star_01
</text></svg>
