<?xml version="1.0" standalone="no"?>
<svg width="567" height="466" viewBox="0 0 567 466" xmlns="http://www.w3.org/2000/svg">
<title>
/bbx/output/_plots/example/hmm/mute-freqs/v/plots/IGHV4-34_star_02.svg
</title>
<desc>
Creator: ROOT Version 5.34/14
CreationDate: Thu Jul 30 17:06:13 2015</desc>
<defs>
</defs>
<rect x="0" y="0" width="567" height="466" fill="white"/>
<rect x="79" y="37" width="443" height="359" fill="none" stroke="black"/>
<rect x="79" y="37" width="443" height="359" fill="none" stroke="black"/>
<path d="M79,396h 443" fill="none" stroke="black" stroke-width="3"/>
<path d="M137,385v 11" fill="none" stroke="black" stroke-width="3"/>
<path d="M157,391v 5" fill="none" stroke="black" stroke-width="3"/>
<path d="M178,391v 5" fill="none" stroke="black" stroke-width="3"/>
<path d="M198,391v 5" fill="none" stroke="black" stroke-width="3"/>
<path d="M218,391v 5" fill="none" stroke="black" stroke-width="3"/>
<path d="M239,385v 11" fill="none" stroke="black" stroke-width="3"/>
<path d="M259,391v 5" fill="none" stroke="black" stroke-width="3"/>
<path d="M279,391v 5" fill="none" stroke="black" stroke-width="3"/>
<path d="M299,391v 5" fill="none" stroke="black" stroke-width="3"/>
<path d="M320,391v 5" fill="none" stroke="black" stroke-width="3"/>
<path d="M340,385v 11" fill="none" stroke="black" stroke-width="3"/>
<path d="M360,391v 5" fill="none" stroke="black" stroke-width="3"/>
<path d="M381,391v 5" fill="none" stroke="black" stroke-width="3"/>
<path d="M401,391v 5" fill="none" stroke="black" stroke-width="3"/>
<path d="M421,391v 5" fill="none" stroke="black" stroke-width="3"/>
<path d="M441,385v 11" fill="none" stroke="black" stroke-width="3"/>
<path d="M137,385v 11" fill="none" stroke="black" stroke-width="3"/>
<path d="M117,391v 5" fill="none" stroke="black" stroke-width="3"/>
<path d="M97,391v 5" fill="none" stroke="black" stroke-width="3"/>
<path d="M441,385v 11" fill="none" stroke="black" stroke-width="3"/>
<path d="M462,391v 5" fill="none" stroke="black" stroke-width="3"/>
<path d="M482,391v 5" fill="none" stroke="black" stroke-width="3"/>
<path d="M502,391v 5" fill="none" stroke="black" stroke-width="3"/>
<text x="121" y="416" fill="black" font-size="21" font-family="Times" font-weight="bold">
100
</text>
<text x="222" y="416" fill="black" font-size="21" font-family="Times" font-weight="bold">
150
</text>
<text x="323" y="416" fill="black" font-size="21" font-family="Times" font-weight="bold">
200
</text>
<text x="424" y="416" fill="black" font-size="21" font-family="Times" font-weight="bold">
250
</text>
<path d="M79,37h 443" fill="none" stroke="black" stroke-width="3"/>
<path d="M137,48v -11" fill="none" stroke="black" stroke-width="3"/>
<path d="M157,43v -6" fill="none" stroke="black" stroke-width="3"/>
<path d="M178,43v -6" fill="none" stroke="black" stroke-width="3"/>
<path d="M198,43v -6" fill="none" stroke="black" stroke-width="3"/>
<path d="M218,43v -6" fill="none" stroke="black" stroke-width="3"/>
<path d="M239,48v -11" fill="none" stroke="black" stroke-width="3"/>
<path d="M259,43v -6" fill="none" stroke="black" stroke-width="3"/>
<path d="M279,43v -6" fill="none" stroke="black" stroke-width="3"/>
<path d="M299,43v -6" fill="none" stroke="black" stroke-width="3"/>
<path d="M320,43v -6" fill="none" stroke="black" stroke-width="3"/>
<path d="M340,48v -11" fill="none" stroke="black" stroke-width="3"/>
<path d="M360,43v -6" fill="none" stroke="black" stroke-width="3"/>
<path d="M381,43v -6" fill="none" stroke="black" stroke-width="3"/>
<path d="M401,43v -6" fill="none" stroke="black" stroke-width="3"/>
<path d="M421,43v -6" fill="none" stroke="black" stroke-width="3"/>
<path d="M441,48v -11" fill="none" stroke="black" stroke-width="3"/>
<path d="M137,48v -11" fill="none" stroke="black" stroke-width="3"/>
<path d="M117,43v -6" fill="none" stroke="black" stroke-width="3"/>
<path d="M97,43v -6" fill="none" stroke="black" stroke-width="3"/>
<path d="M441,48v -11" fill="none" stroke="black" stroke-width="3"/>
<path d="M462,43v -6" fill="none" stroke="black" stroke-width="3"/>
<path d="M482,43v -6" fill="none" stroke="black" stroke-width="3"/>
<path d="M502,43v -6" fill="none" stroke="black" stroke-width="3"/>
<path d="M79,396v -359" fill="none" stroke="black" stroke-width="3"/>
<path d="M92,396h -13" fill="none" stroke="black" stroke-width="3"/>
<path d="M86,366h -7" fill="none" stroke="black" stroke-width="3"/>
<path d="M86,336h -7" fill="none" stroke="black" stroke-width="3"/>
<path d="M86,306h -7" fill="none" stroke="black" stroke-width="3"/>
<path d="M86,277h -7" fill="none" stroke="black" stroke-width="3"/>
<path d="M92,247h -13" fill="none" stroke="black" stroke-width="3"/>
<path d="M86,217h -7" fill="none" stroke="black" stroke-width="3"/>
<path d="M86,187h -7" fill="none" stroke="black" stroke-width="3"/>
<path d="M86,157h -7" fill="none" stroke="black" stroke-width="3"/>
<path d="M86,127h -7" fill="none" stroke="black" stroke-width="3"/>
<path d="M92,97h -13" fill="none" stroke="black" stroke-width="3"/>
<path d="M92,97h -13" fill="none" stroke="black" stroke-width="3"/>
<path d="M86,67h -7" fill="none" stroke="black" stroke-width="3"/>
<path d="M86,37h -7" fill="none" stroke="black" stroke-width="3"/>
<text x="46" y="404" fill="black" font-size="21" font-family="Times" font-weight="bold">
0.0
</text>
<text x="46" y="254" fill="black" font-size="21" font-family="Times" font-weight="bold">
0.5
</text>
<text x="46" y="105" fill="black" font-size="21" font-family="Times" font-weight="bold">
1.0
</text>
<path d="M522,396v -359" fill="none" stroke="black" stroke-width="3"/>
<path d="M508,396h 14" fill="none" stroke="black" stroke-width="3"/>
<path d="M515,366h 7" fill="none" stroke="black" stroke-width="3"/>
<path d="M515,336h 7" fill="none" stroke="black" stroke-width="3"/>
<path d="M515,306h 7" fill="none" stroke="black" stroke-width="3"/>
<path d="M515,277h 7" fill="none" stroke="black" stroke-width="3"/>
<path d="M508,247h 14" fill="none" stroke="black" stroke-width="3"/>
<path d="M515,217h 7" fill="none" stroke="black" stroke-width="3"/>
<path d="M515,187h 7" fill="none" stroke="black" stroke-width="3"/>
<path d="M515,157h 7" fill="none" stroke="black" stroke-width="3"/>
<path d="M515,127h 7" fill="none" stroke="black" stroke-width="3"/>
<path d="M508,97h 14" fill="none" stroke="black" stroke-width="3"/>
<path d="M508,97h 14" fill="none" stroke="black" stroke-width="3"/>
<path d="M515,67h 7" fill="none" stroke="black" stroke-width="3"/>
<path d="M515,37h 7" fill="none" stroke="black" stroke-width="3"/>
<rect x="113" y="-4" width="303" height="38" fill="white"/>
<text x="136" y="24" fill="black" font-size="30" font-family="Helvetica" font-weight="bold">
IGHV4-34_star_02
</text>
<path d="M80,393v -16" fill="none" stroke="#ff0000" stroke-width="6"/>
<g stroke="#ff0000" stroke-width="6" fill="#ff0000">
<circle cx="80" cy="396" r="3.5"/>
</g>
<path d="M82,393v -16" fill="none" stroke="#ff0000" stroke-width="6"/>
<g stroke="#ff0000" stroke-width="6" fill="#ff0000">
<circle cx="82" cy="396" r="3.5"/>
</g>
<path d="M84,393v -16" fill="none" stroke="#ff0000" stroke-width="6"/>
<g stroke="#ff0000" stroke-width="6" fill="#ff0000">
<circle cx="84" cy="396" r="3.5"/>
</g>
<path d="M86,393v -16" fill="none" stroke="#ff0000" stroke-width="6"/>
<g stroke="#ff0000" stroke-width="6" fill="#ff0000">
<circle cx="86" cy="396" r="3.5"/>
</g>
<path d="M88,393v -16" fill="none" stroke="#ff0000" stroke-width="6"/>
<g stroke="#ff0000" stroke-width="6" fill="#ff0000">
<circle cx="88" cy="396" r="3.5"/>
</g>
<path d="M91,393v -16" fill="none" stroke="#ff0000" stroke-width="6"/>
<g stroke="#ff0000" stroke-width="6" fill="#ff0000">
<circle cx="91" cy="396" r="3.5"/>
</g>
<path d="M93,393v -16" fill="none" stroke="#ff0000" stroke-width="6"/>
<g stroke="#ff0000" stroke-width="6" fill="#ff0000">
<circle cx="93" cy="396" r="3.5"/>
</g>
<path d="M95,393v -16" fill="none" stroke="#ff0000" stroke-width="6"/>
<g stroke="#ff0000" stroke-width="6" fill="#ff0000">
<circle cx="95" cy="396" r="3.5"/>
</g>
<path d="M97,393v -16" fill="none" stroke="#ff0000" stroke-width="6"/>
<g stroke="#ff0000" stroke-width="6" fill="#ff0000">
<circle cx="97" cy="396" r="3.5"/>
</g>
<path d="M99,393v -16" fill="none" stroke="#ff0000" stroke-width="6"/>
<g stroke="#ff0000" stroke-width="6" fill="#ff0000">
<circle cx="99" cy="396" r="3.5"/>
</g>
<path d="M101,392v -35" fill="none" stroke="#ff0000" stroke-width="6"/>
<path d="M101,350v -35" fill="none" stroke="#ff0000" stroke-width="6"/>
<g stroke="#ff0000" stroke-width="6" fill="#ff0000">
<circle cx="101" cy="353" r="3.5"/>
</g>
<path d="M103,393v -16" fill="none" stroke="#ff0000" stroke-width="6"/>
<g stroke="#ff0000" stroke-width="6" fill="#ff0000">
<circle cx="103" cy="396" r="3.5"/>
</g>
<path d="M105,393v -16" fill="none" stroke="#ff0000" stroke-width="6"/>
<g stroke="#ff0000" stroke-width="6" fill="#ff0000">
<circle cx="105" cy="396" r="3.5"/>
</g>
<path d="M107,392v -35" fill="none" stroke="#ff0000" stroke-width="6"/>
<path d="M107,350v -35" fill="none" stroke="#ff0000" stroke-width="6"/>
<g stroke="#ff0000" stroke-width="6" fill="#ff0000">
<circle cx="107" cy="353" r="3.5"/>
</g>
<path d="M109,393v -16" fill="none" stroke="#ff0000" stroke-width="6"/>
<g stroke="#ff0000" stroke-width="6" fill="#ff0000">
<circle cx="109" cy="396" r="3.5"/>
</g>
<path d="M111,393v -16" fill="none" stroke="#ff0000" stroke-width="6"/>
<g stroke="#ff0000" stroke-width="6" fill="#ff0000">
<circle cx="111" cy="396" r="3.5"/>
</g>
<path d="M113,393v -16" fill="none" stroke="#ff0000" stroke-width="6"/>
<g stroke="#ff0000" stroke-width="6" fill="#ff0000">
<circle cx="113" cy="396" r="3.5"/>
</g>
<path d="M115,393v -16" fill="none" stroke="#ff0000" stroke-width="6"/>
<g stroke="#ff0000" stroke-width="6" fill="#ff0000">
<circle cx="115" cy="396" r="3.5"/>
</g>
<path d="M117,393v -16" fill="none" stroke="#ff0000" stroke-width="6"/>
<g stroke="#ff0000" stroke-width="6" fill="#ff0000">
<circle cx="117" cy="396" r="3.5"/>
</g>
<path d="M119,393v -16" fill="none" stroke="#ff0000" stroke-width="6"/>
<g stroke="#ff0000" stroke-width="6" fill="#ff0000">
<circle cx="119" cy="396" r="3.5"/>
</g>
<path d="M121,393v -16" fill="none" stroke="#ff0000" stroke-width="6"/>
<g stroke="#ff0000" stroke-width="6" fill="#ff0000">
<circle cx="121" cy="396" r="3.5"/>
</g>
<path d="M123,392v -35" fill="none" stroke="#ff0000" stroke-width="6"/>
<path d="M123,350v -35" fill="none" stroke="#ff0000" stroke-width="6"/>
<g stroke="#ff0000" stroke-width="6" fill="#ff0000">
<circle cx="123" cy="353" r="3.5"/>
</g>
<path d="M125,393v -16" fill="none" stroke="#ff0000" stroke-width="6"/>
<g stroke="#ff0000" stroke-width="6" fill="#ff0000">
<circle cx="125" cy="396" r="3.5"/>
</g>
<path d="M127,393v -16" fill="none" stroke="#ff0000" stroke-width="6"/>
<g stroke="#ff0000" stroke-width="6" fill="#ff0000">
<circle cx="127" cy="396" r="3.5"/>
</g>
<path d="M129,393v -16" fill="none" stroke="#ff0000" stroke-width="6"/>
<g stroke="#ff0000" stroke-width="6" fill="#ff0000">
<circle cx="129" cy="396" r="3.5"/>
</g>
<path d="M131,316v -45" fill="none" stroke="#ff0000" stroke-width="6"/>
<path d="M131,265v -45" fill="none" stroke="#ff0000" stroke-width="6"/>
<g stroke="#ff0000" stroke-width="6" fill="#ff0000">
<circle cx="131" cy="268" r="3.5"/>
</g>
<path d="M133,393v -16" fill="none" stroke="#ff0000" stroke-width="6"/>
<g stroke="#ff0000" stroke-width="6" fill="#ff0000">
<circle cx="133" cy="396" r="3.5"/>
</g>
<path d="M135,393v -16" fill="none" stroke="#ff0000" stroke-width="6"/>
<g stroke="#ff0000" stroke-width="6" fill="#ff0000">
<circle cx="135" cy="396" r="3.5"/>
</g>
<path d="M137,393v -16" fill="none" stroke="#ff0000" stroke-width="6"/>
<g stroke="#ff0000" stroke-width="6" fill="#ff0000">
<circle cx="137" cy="396" r="3.5"/>
</g>
<path d="M139,392v -35" fill="none" stroke="#ff0000" stroke-width="6"/>
<path d="M139,350v -35" fill="none" stroke="#ff0000" stroke-width="6"/>
<g stroke="#ff0000" stroke-width="6" fill="#ff0000">
<circle cx="139" cy="353" r="3.5"/>
</g>
<path d="M141,393v -16" fill="none" stroke="#ff0000" stroke-width="6"/>
<g stroke="#ff0000" stroke-width="6" fill="#ff0000">
<circle cx="141" cy="396" r="3.5"/>
</g>
<path d="M143,393v -16" fill="none" stroke="#ff0000" stroke-width="6"/>
<g stroke="#ff0000" stroke-width="6" fill="#ff0000">
<circle cx="143" cy="396" r="3.5"/>
</g>
<path d="M145,393v -16" fill="none" stroke="#ff0000" stroke-width="6"/>
<g stroke="#ff0000" stroke-width="6" fill="#ff0000">
<circle cx="145" cy="396" r="3.5"/>
</g>
<path d="M147,393v -16" fill="none" stroke="#ff0000" stroke-width="6"/>
<g stroke="#ff0000" stroke-width="6" fill="#ff0000">
<circle cx="147" cy="396" r="3.5"/>
</g>
<path d="M149,393v -16" fill="none" stroke="#ff0000" stroke-width="6"/>
<g stroke="#ff0000" stroke-width="6" fill="#ff0000">
<circle cx="149" cy="396" r="3.5"/>
</g>
<path d="M151,393v -16" fill="none" stroke="#ff0000" stroke-width="6"/>
<g stroke="#ff0000" stroke-width="6" fill="#ff0000">
<circle cx="151" cy="396" r="3.5"/>
</g>
<path d="M153,393v -16" fill="none" stroke="#ff0000" stroke-width="6"/>
<g stroke="#ff0000" stroke-width="6" fill="#ff0000">
<circle cx="153" cy="396" r="3.5"/>
</g>
<path d="M155,392v -35" fill="none" stroke="#ff0000" stroke-width="6"/>
<path d="M155,350v -35" fill="none" stroke="#ff0000" stroke-width="6"/>
<g stroke="#ff0000" stroke-width="6" fill="#ff0000">
<circle cx="155" cy="353" r="3.5"/>
</g>
<path d="M157,393v -16" fill="none" stroke="#ff0000" stroke-width="6"/>
<g stroke="#ff0000" stroke-width="6" fill="#ff0000">
<circle cx="157" cy="396" r="3.5"/>
</g>
<path d="M159,393v -16" fill="none" stroke="#ff0000" stroke-width="6"/>
<g stroke="#ff0000" stroke-width="6" fill="#ff0000">
<circle cx="159" cy="396" r="3.5"/>
</g>
<path d="M162,393v -16" fill="none" stroke="#ff0000" stroke-width="6"/>
<g stroke="#ff0000" stroke-width="6" fill="#ff0000">
<circle cx="162" cy="396" r="3.5"/>
</g>
<path d="M164,393v -16" fill="none" stroke="#ff0000" stroke-width="6"/>
<g stroke="#ff0000" stroke-width="6" fill="#ff0000">
<circle cx="164" cy="396" r="3.5"/>
</g>
<path d="M166,393v -16" fill="none" stroke="#ff0000" stroke-width="6"/>
<g stroke="#ff0000" stroke-width="6" fill="#ff0000">
<circle cx="166" cy="396" r="3.5"/>
</g>
<path d="M168,393v -16" fill="none" stroke="#ff0000" stroke-width="6"/>
<g stroke="#ff0000" stroke-width="6" fill="#ff0000">
<circle cx="168" cy="396" r="3.5"/>
</g>
<path d="M170,392v -35" fill="none" stroke="#ff0000" stroke-width="6"/>
<path d="M170,350v -35" fill="none" stroke="#ff0000" stroke-width="6"/>
<g stroke="#ff0000" stroke-width="6" fill="#ff0000">
<circle cx="170" cy="353" r="3.5"/>
</g>
<path d="M172,393v -16" fill="none" stroke="#ff0000" stroke-width="6"/>
<g stroke="#ff0000" stroke-width="6" fill="#ff0000">
<circle cx="172" cy="396" r="3.5"/>
</g>
<path d="M174,393v -16" fill="none" stroke="#ff0000" stroke-width="6"/>
<g stroke="#ff0000" stroke-width="6" fill="#ff0000">
<circle cx="174" cy="396" r="3.5"/>
</g>
<path d="M176,393v -16" fill="none" stroke="#ff0000" stroke-width="6"/>
<g stroke="#ff0000" stroke-width="6" fill="#ff0000">
<circle cx="176" cy="396" r="3.5"/>
</g>
<path d="M178,393v -16" fill="none" stroke="#ff0000" stroke-width="6"/>
<g stroke="#ff0000" stroke-width="6" fill="#ff0000">
<circle cx="178" cy="396" r="3.5"/>
</g>
<path d="M180,393v -16" fill="none" stroke="#ff0000" stroke-width="6"/>
<g stroke="#ff0000" stroke-width="6" fill="#ff0000">
<circle cx="180" cy="396" r="3.5"/>
</g>
<path d="M182,393v -16" fill="none" stroke="#ff0000" stroke-width="6"/>
<g stroke="#ff0000" stroke-width="6" fill="#ff0000">
<circle cx="182" cy="396" r="3.5"/>
</g>
<path d="M184,392v -35" fill="none" stroke="#ff0000" stroke-width="6"/>
<path d="M184,350v -35" fill="none" stroke="#ff0000" stroke-width="6"/>
<g stroke="#ff0000" stroke-width="6" fill="#ff0000">
<circle cx="184" cy="353" r="3.5"/>
</g>
<path d="M186,393v -16" fill="none" stroke="#ff0000" stroke-width="6"/>
<g stroke="#ff0000" stroke-width="6" fill="#ff0000">
<circle cx="186" cy="396" r="3.5"/>
</g>
<path d="M188,393v -16" fill="none" stroke="#ff0000" stroke-width="6"/>
<g stroke="#ff0000" stroke-width="6" fill="#ff0000">
<circle cx="188" cy="396" r="3.5"/>
</g>
<path d="M190,393v -16" fill="none" stroke="#ff0000" stroke-width="6"/>
<g stroke="#ff0000" stroke-width="6" fill="#ff0000">
<circle cx="190" cy="396" r="3.5"/>
</g>
<path d="M192,393v -16" fill="none" stroke="#ff0000" stroke-width="6"/>
<g stroke="#ff0000" stroke-width="6" fill="#ff0000">
<circle cx="192" cy="396" r="3.5"/>
</g>
<path d="M194,393v -16" fill="none" stroke="#ff0000" stroke-width="6"/>
<g stroke="#ff0000" stroke-width="6" fill="#ff0000">
<circle cx="194" cy="396" r="3.5"/>
</g>
<path d="M196,393v -16" fill="none" stroke="#ff0000" stroke-width="6"/>
<g stroke="#ff0000" stroke-width="6" fill="#ff0000">
<circle cx="196" cy="396" r="3.5"/>
</g>
<path d="M198,393v -16" fill="none" stroke="#ff0000" stroke-width="6"/>
<g stroke="#ff0000" stroke-width="6" fill="#ff0000">
<circle cx="198" cy="396" r="3.5"/>
</g>
<path d="M200,393v -16" fill="none" stroke="#ff0000" stroke-width="6"/>
<g stroke="#ff0000" stroke-width="6" fill="#ff0000">
<circle cx="200" cy="396" r="3.5"/>
</g>
<path d="M202,393v -16" fill="none" stroke="#ff0000" stroke-width="6"/>
<g stroke="#ff0000" stroke-width="6" fill="#ff0000">
<circle cx="202" cy="396" r="3.5"/>
</g>
<path d="M204,393v -16" fill="none" stroke="#ff0000" stroke-width="6"/>
<g stroke="#ff0000" stroke-width="6" fill="#ff0000">
<circle cx="204" cy="396" r="3.5"/>
</g>
<path d="M206,393v -16" fill="none" stroke="#ff0000" stroke-width="6"/>
<g stroke="#ff0000" stroke-width="6" fill="#ff0000">
<circle cx="206" cy="396" r="3.5"/>
</g>
<path d="M208,393v -16" fill="none" stroke="#ff0000" stroke-width="6"/>
<g stroke="#ff0000" stroke-width="6" fill="#ff0000">
<circle cx="208" cy="396" r="3.5"/>
</g>
<path d="M210,393v -16" fill="none" stroke="#ff0000" stroke-width="6"/>
<g stroke="#ff0000" stroke-width="6" fill="#ff0000">
<circle cx="210" cy="396" r="3.5"/>
</g>
<path d="M212,393v -16" fill="none" stroke="#ff0000" stroke-width="6"/>
<g stroke="#ff0000" stroke-width="6" fill="#ff0000">
<circle cx="212" cy="396" r="3.5"/>
</g>
<path d="M214,393v -16" fill="none" stroke="#ff0000" stroke-width="6"/>
<g stroke="#ff0000" stroke-width="6" fill="#ff0000">
<circle cx="214" cy="396" r="3.5"/>
</g>
<path d="M216,393v -16" fill="none" stroke="#ff0000" stroke-width="6"/>
<g stroke="#ff0000" stroke-width="6" fill="#ff0000">
<circle cx="216" cy="396" r="3.5"/>
</g>
<path d="M218,393v -16" fill="none" stroke="#ff0000" stroke-width="6"/>
<g stroke="#ff0000" stroke-width="6" fill="#ff0000">
<circle cx="218" cy="396" r="3.5"/>
</g>
<path d="M220,393v -16" fill="none" stroke="#ff0000" stroke-width="6"/>
<g stroke="#ff0000" stroke-width="6" fill="#ff0000">
<circle cx="220" cy="396" r="3.5"/>
</g>
<path d="M222,393v -16" fill="none" stroke="#ff0000" stroke-width="6"/>
<g stroke="#ff0000" stroke-width="6" fill="#ff0000">
<circle cx="222" cy="396" r="3.5"/>
</g>
<path d="M224,393v -16" fill="none" stroke="#ff0000" stroke-width="6"/>
<g stroke="#ff0000" stroke-width="6" fill="#ff0000">
<circle cx="224" cy="396" r="3.5"/>
</g>
<path d="M226,393v -16" fill="none" stroke="#ff0000" stroke-width="6"/>
<g stroke="#ff0000" stroke-width="6" fill="#ff0000">
<circle cx="226" cy="396" r="3.5"/>
</g>
<path d="M228,356v -42" fill="none" stroke="#ff0000" stroke-width="6"/>
<path d="M228,307v -41" fill="none" stroke="#ff0000" stroke-width="6"/>
<g stroke="#ff0000" stroke-width="6" fill="#ff0000">
<circle cx="228" cy="311" r="3.5"/>
</g>
<path d="M230,393v -16" fill="none" stroke="#ff0000" stroke-width="6"/>
<g stroke="#ff0000" stroke-width="6" fill="#ff0000">
<circle cx="230" cy="396" r="3.5"/>
</g>
<path d="M233,393v -16" fill="none" stroke="#ff0000" stroke-width="6"/>
<g stroke="#ff0000" stroke-width="6" fill="#ff0000">
<circle cx="233" cy="396" r="3.5"/>
</g>
<path d="M235,393v -16" fill="none" stroke="#ff0000" stroke-width="6"/>
<g stroke="#ff0000" stroke-width="6" fill="#ff0000">
<circle cx="235" cy="396" r="3.5"/>
</g>
<path d="M237,393v -16" fill="none" stroke="#ff0000" stroke-width="6"/>
<g stroke="#ff0000" stroke-width="6" fill="#ff0000">
<circle cx="237" cy="396" r="3.5"/>
</g>
<path d="M239,316v -45" fill="none" stroke="#ff0000" stroke-width="6"/>
<path d="M239,265v -45" fill="none" stroke="#ff0000" stroke-width="6"/>
<g stroke="#ff0000" stroke-width="6" fill="#ff0000">
<circle cx="239" cy="268" r="3.5"/>
</g>
<path d="M241,393v -16" fill="none" stroke="#ff0000" stroke-width="6"/>
<g stroke="#ff0000" stroke-width="6" fill="#ff0000">
<circle cx="241" cy="396" r="3.5"/>
</g>
<path d="M243,393v -16" fill="none" stroke="#ff0000" stroke-width="6"/>
<g stroke="#ff0000" stroke-width="6" fill="#ff0000">
<circle cx="243" cy="396" r="3.5"/>
</g>
<path d="M245,393v -16" fill="none" stroke="#ff0000" stroke-width="6"/>
<g stroke="#ff0000" stroke-width="6" fill="#ff0000">
<circle cx="245" cy="396" r="3.5"/>
</g>
<path d="M247,393v -16" fill="none" stroke="#ff0000" stroke-width="6"/>
<g stroke="#ff0000" stroke-width="6" fill="#ff0000">
<circle cx="247" cy="396" r="3.5"/>
</g>
<path d="M249,393v -16" fill="none" stroke="#ff0000" stroke-width="6"/>
<g stroke="#ff0000" stroke-width="6" fill="#ff0000">
<circle cx="249" cy="396" r="3.5"/>
</g>
<path d="M251,393v -16" fill="none" stroke="#ff0000" stroke-width="6"/>
<g stroke="#ff0000" stroke-width="6" fill="#ff0000">
<circle cx="251" cy="396" r="3.5"/>
</g>
<path d="M253,393v -16" fill="none" stroke="#ff0000" stroke-width="6"/>
<g stroke="#ff0000" stroke-width="6" fill="#ff0000">
<circle cx="253" cy="396" r="3.5"/>
</g>
<path d="M255,179v -36" fill="none" stroke="#ff0000" stroke-width="6"/>
<path d="M255,137v -36" fill="none" stroke="#ff0000" stroke-width="6"/>
<g stroke="#ff0000" stroke-width="6" fill="#ff0000">
<circle cx="255" cy="140" r="3.5"/>
</g>
<path d="M257,393v -16" fill="none" stroke="#ff0000" stroke-width="6"/>
<g stroke="#ff0000" stroke-width="6" fill="#ff0000">
<circle cx="257" cy="396" r="3.5"/>
</g>
<path d="M259,393v -16" fill="none" stroke="#ff0000" stroke-width="6"/>
<g stroke="#ff0000" stroke-width="6" fill="#ff0000">
<circle cx="259" cy="396" r="3.5"/>
</g>
<path d="M261,393v -16" fill="none" stroke="#ff0000" stroke-width="6"/>
<g stroke="#ff0000" stroke-width="6" fill="#ff0000">
<circle cx="261" cy="396" r="3.5"/>
</g>
<path d="M263,393v -16" fill="none" stroke="#ff0000" stroke-width="6"/>
<g stroke="#ff0000" stroke-width="6" fill="#ff0000">
<circle cx="263" cy="396" r="3.5"/>
</g>
<path d="M265,116v -16" fill="none" stroke="#ff0000" stroke-width="6"/>
<path d="M265,94v -16" fill="none" stroke="#ff0000" stroke-width="6"/>
<g stroke="#ff0000" stroke-width="6" fill="#ff0000">
<circle cx="265" cy="97" r="3.5"/>
</g>
<path d="M267,392v -35" fill="none" stroke="#ff0000" stroke-width="6"/>
<path d="M267,350v -35" fill="none" stroke="#ff0000" stroke-width="6"/>
<g stroke="#ff0000" stroke-width="6" fill="#ff0000">
<circle cx="267" cy="353" r="3.5"/>
</g>
<path d="M269,393v -16" fill="none" stroke="#ff0000" stroke-width="6"/>
<g stroke="#ff0000" stroke-width="6" fill="#ff0000">
<circle cx="269" cy="396" r="3.5"/>
</g>
<path d="M271,393v -16" fill="none" stroke="#ff0000" stroke-width="6"/>
<g stroke="#ff0000" stroke-width="6" fill="#ff0000">
<circle cx="271" cy="396" r="3.5"/>
</g>
<path d="M273,393v -16" fill="none" stroke="#ff0000" stroke-width="6"/>
<g stroke="#ff0000" stroke-width="6" fill="#ff0000">
<circle cx="273" cy="396" r="3.5"/>
</g>
<path d="M275,393v -16" fill="none" stroke="#ff0000" stroke-width="6"/>
<g stroke="#ff0000" stroke-width="6" fill="#ff0000">
<circle cx="275" cy="396" r="3.5"/>
</g>
<path d="M277,393v -16" fill="none" stroke="#ff0000" stroke-width="6"/>
<g stroke="#ff0000" stroke-width="6" fill="#ff0000">
<circle cx="277" cy="396" r="3.5"/>
</g>
<path d="M279,393v -16" fill="none" stroke="#ff0000" stroke-width="6"/>
<g stroke="#ff0000" stroke-width="6" fill="#ff0000">
<circle cx="279" cy="396" r="3.5"/>
</g>
<path d="M281,393v -16" fill="none" stroke="#ff0000" stroke-width="6"/>
<g stroke="#ff0000" stroke-width="6" fill="#ff0000">
<circle cx="281" cy="396" r="3.5"/>
</g>
<path d="M283,393v -16" fill="none" stroke="#ff0000" stroke-width="6"/>
<g stroke="#ff0000" stroke-width="6" fill="#ff0000">
<circle cx="283" cy="396" r="3.5"/>
</g>
<path d="M285,392v -35" fill="none" stroke="#ff0000" stroke-width="6"/>
<path d="M285,350v -35" fill="none" stroke="#ff0000" stroke-width="6"/>
<g stroke="#ff0000" stroke-width="6" fill="#ff0000">
<circle cx="285" cy="353" r="3.5"/>
</g>
<path d="M287,393v -16" fill="none" stroke="#ff0000" stroke-width="6"/>
<g stroke="#ff0000" stroke-width="6" fill="#ff0000">
<circle cx="287" cy="396" r="3.5"/>
</g>
<path d="M289,393v -16" fill="none" stroke="#ff0000" stroke-width="6"/>
<g stroke="#ff0000" stroke-width="6" fill="#ff0000">
<circle cx="289" cy="396" r="3.5"/>
</g>
<path d="M291,393v -16" fill="none" stroke="#ff0000" stroke-width="6"/>
<g stroke="#ff0000" stroke-width="6" fill="#ff0000">
<circle cx="291" cy="396" r="3.5"/>
</g>
<path d="M293,393v -16" fill="none" stroke="#ff0000" stroke-width="6"/>
<g stroke="#ff0000" stroke-width="6" fill="#ff0000">
<circle cx="293" cy="396" r="3.5"/>
</g>
<path d="M295,393v -16" fill="none" stroke="#ff0000" stroke-width="6"/>
<g stroke="#ff0000" stroke-width="6" fill="#ff0000">
<circle cx="295" cy="396" r="3.5"/>
</g>
<path d="M297,356v -42" fill="none" stroke="#ff0000" stroke-width="6"/>
<path d="M297,307v -41" fill="none" stroke="#ff0000" stroke-width="6"/>
<g stroke="#ff0000" stroke-width="6" fill="#ff0000">
<circle cx="297" cy="311" r="3.5"/>
</g>
<path d="M299,393v -16" fill="none" stroke="#ff0000" stroke-width="6"/>
<g stroke="#ff0000" stroke-width="6" fill="#ff0000">
<circle cx="299" cy="396" r="3.5"/>
</g>
<path d="M301,393v -16" fill="none" stroke="#ff0000" stroke-width="6"/>
<g stroke="#ff0000" stroke-width="6" fill="#ff0000">
<circle cx="301" cy="396" r="3.5"/>
</g>
<path d="M304,356v -42" fill="none" stroke="#ff0000" stroke-width="6"/>
<path d="M304,307v -41" fill="none" stroke="#ff0000" stroke-width="6"/>
<g stroke="#ff0000" stroke-width="6" fill="#ff0000">
<circle cx="304" cy="311" r="3.5"/>
</g>
<path d="M306,393v -16" fill="none" stroke="#ff0000" stroke-width="6"/>
<g stroke="#ff0000" stroke-width="6" fill="#ff0000">
<circle cx="306" cy="396" r="3.5"/>
</g>
<path d="M308,356v -42" fill="none" stroke="#ff0000" stroke-width="6"/>
<path d="M308,307v -41" fill="none" stroke="#ff0000" stroke-width="6"/>
<g stroke="#ff0000" stroke-width="6" fill="#ff0000">
<circle cx="308" cy="311" r="3.5"/>
</g>
<path d="M310,116v -16" fill="none" stroke="#ff0000" stroke-width="6"/>
<path d="M310,94v -16" fill="none" stroke="#ff0000" stroke-width="6"/>
<g stroke="#ff0000" stroke-width="6" fill="#ff0000">
<circle cx="310" cy="97" r="3.5"/>
</g>
<path d="M312,392v -35" fill="none" stroke="#ff0000" stroke-width="6"/>
<path d="M312,350v -35" fill="none" stroke="#ff0000" stroke-width="6"/>
<g stroke="#ff0000" stroke-width="6" fill="#ff0000">
<circle cx="312" cy="353" r="3.5"/>
</g>
<path d="M314,393v -16" fill="none" stroke="#ff0000" stroke-width="6"/>
<g stroke="#ff0000" stroke-width="6" fill="#ff0000">
<circle cx="314" cy="396" r="3.5"/>
</g>
<path d="M316,116v -16" fill="none" stroke="#ff0000" stroke-width="6"/>
<path d="M316,94v -16" fill="none" stroke="#ff0000" stroke-width="6"/>
<g stroke="#ff0000" stroke-width="6" fill="#ff0000">
<circle cx="316" cy="97" r="3.5"/>
</g>
<path d="M318,356v -42" fill="none" stroke="#ff0000" stroke-width="6"/>
<path d="M318,307v -41" fill="none" stroke="#ff0000" stroke-width="6"/>
<g stroke="#ff0000" stroke-width="6" fill="#ff0000">
<circle cx="318" cy="311" r="3.5"/>
</g>
<path d="M320,116v -16" fill="none" stroke="#ff0000" stroke-width="6"/>
<path d="M320,94v -16" fill="none" stroke="#ff0000" stroke-width="6"/>
<g stroke="#ff0000" stroke-width="6" fill="#ff0000">
<circle cx="320" cy="97" r="3.5"/>
</g>
<path d="M322,228v -42" fill="none" stroke="#ff0000" stroke-width="6"/>
<path d="M322,179v -41" fill="none" stroke="#ff0000" stroke-width="6"/>
<g stroke="#ff0000" stroke-width="6" fill="#ff0000">
<circle cx="322" cy="183" r="3.5"/>
</g>
<path d="M324,316v -45" fill="none" stroke="#ff0000" stroke-width="6"/>
<path d="M324,265v -45" fill="none" stroke="#ff0000" stroke-width="6"/>
<g stroke="#ff0000" stroke-width="6" fill="#ff0000">
<circle cx="324" cy="268" r="3.5"/>
</g>
<path d="M326,392v -35" fill="none" stroke="#ff0000" stroke-width="6"/>
<path d="M326,350v -35" fill="none" stroke="#ff0000" stroke-width="6"/>
<g stroke="#ff0000" stroke-width="6" fill="#ff0000">
<circle cx="326" cy="353" r="3.5"/>
</g>
<path d="M328,393v -16" fill="none" stroke="#ff0000" stroke-width="6"/>
<g stroke="#ff0000" stroke-width="6" fill="#ff0000">
<circle cx="328" cy="396" r="3.5"/>
</g>
<path d="M330,393v -16" fill="none" stroke="#ff0000" stroke-width="6"/>
<g stroke="#ff0000" stroke-width="6" fill="#ff0000">
<circle cx="330" cy="396" r="3.5"/>
</g>
<path d="M332,228v -42" fill="none" stroke="#ff0000" stroke-width="6"/>
<path d="M332,179v -41" fill="none" stroke="#ff0000" stroke-width="6"/>
<g stroke="#ff0000" stroke-width="6" fill="#ff0000">
<circle cx="332" cy="183" r="3.5"/>
</g>
<path d="M334,393v -16" fill="none" stroke="#ff0000" stroke-width="6"/>
<g stroke="#ff0000" stroke-width="6" fill="#ff0000">
<circle cx="334" cy="396" r="3.5"/>
</g>
<path d="M336,116v -16" fill="none" stroke="#ff0000" stroke-width="6"/>
<path d="M336,94v -16" fill="none" stroke="#ff0000" stroke-width="6"/>
<g stroke="#ff0000" stroke-width="6" fill="#ff0000">
<circle cx="336" cy="97" r="3.5"/>
</g>
<path d="M338,316v -45" fill="none" stroke="#ff0000" stroke-width="6"/>
<path d="M338,265v -45" fill="none" stroke="#ff0000" stroke-width="6"/>
<g stroke="#ff0000" stroke-width="6" fill="#ff0000">
<circle cx="338" cy="268" r="3.5"/>
</g>
<path d="M340,228v -42" fill="none" stroke="#ff0000" stroke-width="6"/>
<path d="M340,179v -41" fill="none" stroke="#ff0000" stroke-width="6"/>
<g stroke="#ff0000" stroke-width="6" fill="#ff0000">
<circle cx="340" cy="183" r="3.5"/>
</g>
<path d="M342,393v -16" fill="none" stroke="#ff0000" stroke-width="6"/>
<g stroke="#ff0000" stroke-width="6" fill="#ff0000">
<circle cx="342" cy="396" r="3.5"/>
</g>
<path d="M344,393v -16" fill="none" stroke="#ff0000" stroke-width="6"/>
<g stroke="#ff0000" stroke-width="6" fill="#ff0000">
<circle cx="344" cy="396" r="3.5"/>
</g>
<path d="M346,393v -16" fill="none" stroke="#ff0000" stroke-width="6"/>
<g stroke="#ff0000" stroke-width="6" fill="#ff0000">
<circle cx="346" cy="396" r="3.5"/>
</g>
<path d="M348,393v -16" fill="none" stroke="#ff0000" stroke-width="6"/>
<g stroke="#ff0000" stroke-width="6" fill="#ff0000">
<circle cx="348" cy="396" r="3.5"/>
</g>
<path d="M350,393v -16" fill="none" stroke="#ff0000" stroke-width="6"/>
<g stroke="#ff0000" stroke-width="6" fill="#ff0000">
<circle cx="350" cy="396" r="3.5"/>
</g>
<path d="M352,228v -42" fill="none" stroke="#ff0000" stroke-width="6"/>
<path d="M352,179v -41" fill="none" stroke="#ff0000" stroke-width="6"/>
<g stroke="#ff0000" stroke-width="6" fill="#ff0000">
<circle cx="352" cy="183" r="3.5"/>
</g>
<path d="M354,393v -16" fill="none" stroke="#ff0000" stroke-width="6"/>
<g stroke="#ff0000" stroke-width="6" fill="#ff0000">
<circle cx="354" cy="396" r="3.5"/>
</g>
<path d="M356,393v -16" fill="none" stroke="#ff0000" stroke-width="6"/>
<g stroke="#ff0000" stroke-width="6" fill="#ff0000">
<circle cx="356" cy="396" r="3.5"/>
</g>
<path d="M358,356v -42" fill="none" stroke="#ff0000" stroke-width="6"/>
<path d="M358,307v -41" fill="none" stroke="#ff0000" stroke-width="6"/>
<g stroke="#ff0000" stroke-width="6" fill="#ff0000">
<circle cx="358" cy="311" r="3.5"/>
</g>
<path d="M360,392v -35" fill="none" stroke="#ff0000" stroke-width="6"/>
<path d="M360,350v -35" fill="none" stroke="#ff0000" stroke-width="6"/>
<g stroke="#ff0000" stroke-width="6" fill="#ff0000">
<circle cx="360" cy="353" r="3.5"/>
</g>
<path d="M362,393v -16" fill="none" stroke="#ff0000" stroke-width="6"/>
<g stroke="#ff0000" stroke-width="6" fill="#ff0000">
<circle cx="362" cy="396" r="3.5"/>
</g>
<path d="M364,393v -16" fill="none" stroke="#ff0000" stroke-width="6"/>
<g stroke="#ff0000" stroke-width="6" fill="#ff0000">
<circle cx="364" cy="396" r="3.5"/>
</g>
<path d="M366,393v -16" fill="none" stroke="#ff0000" stroke-width="6"/>
<g stroke="#ff0000" stroke-width="6" fill="#ff0000">
<circle cx="366" cy="396" r="3.5"/>
</g>
<path d="M368,393v -16" fill="none" stroke="#ff0000" stroke-width="6"/>
<g stroke="#ff0000" stroke-width="6" fill="#ff0000">
<circle cx="368" cy="396" r="3.5"/>
</g>
<path d="M370,393v -16" fill="none" stroke="#ff0000" stroke-width="6"/>
<g stroke="#ff0000" stroke-width="6" fill="#ff0000">
<circle cx="370" cy="396" r="3.5"/>
</g>
<path d="M372,393v -16" fill="none" stroke="#ff0000" stroke-width="6"/>
<g stroke="#ff0000" stroke-width="6" fill="#ff0000">
<circle cx="372" cy="396" r="3.5"/>
</g>
<path d="M375,393v -16" fill="none" stroke="#ff0000" stroke-width="6"/>
<g stroke="#ff0000" stroke-width="6" fill="#ff0000">
<circle cx="375" cy="396" r="3.5"/>
</g>
<path d="M377,393v -16" fill="none" stroke="#ff0000" stroke-width="6"/>
<g stroke="#ff0000" stroke-width="6" fill="#ff0000">
<circle cx="377" cy="396" r="3.5"/>
</g>
<path d="M379,393v -16" fill="none" stroke="#ff0000" stroke-width="6"/>
<g stroke="#ff0000" stroke-width="6" fill="#ff0000">
<circle cx="379" cy="396" r="3.5"/>
</g>
<path d="M381,393v -16" fill="none" stroke="#ff0000" stroke-width="6"/>
<g stroke="#ff0000" stroke-width="6" fill="#ff0000">
<circle cx="381" cy="396" r="3.5"/>
</g>
<path d="M383,393v -16" fill="none" stroke="#ff0000" stroke-width="6"/>
<g stroke="#ff0000" stroke-width="6" fill="#ff0000">
<circle cx="383" cy="396" r="3.5"/>
</g>
<path d="M385,393v -16" fill="none" stroke="#ff0000" stroke-width="6"/>
<g stroke="#ff0000" stroke-width="6" fill="#ff0000">
<circle cx="385" cy="396" r="3.5"/>
</g>
<path d="M387,356v -42" fill="none" stroke="#ff0000" stroke-width="6"/>
<path d="M387,307v -41" fill="none" stroke="#ff0000" stroke-width="6"/>
<g stroke="#ff0000" stroke-width="6" fill="#ff0000">
<circle cx="387" cy="311" r="3.5"/>
</g>
<path d="M389,179v -36" fill="none" stroke="#ff0000" stroke-width="6"/>
<path d="M389,137v -36" fill="none" stroke="#ff0000" stroke-width="6"/>
<g stroke="#ff0000" stroke-width="6" fill="#ff0000">
<circle cx="389" cy="140" r="3.5"/>
</g>
<path d="M391,393v -16" fill="none" stroke="#ff0000" stroke-width="6"/>
<g stroke="#ff0000" stroke-width="6" fill="#ff0000">
<circle cx="391" cy="396" r="3.5"/>
</g>
<path d="M393,393v -16" fill="none" stroke="#ff0000" stroke-width="6"/>
<g stroke="#ff0000" stroke-width="6" fill="#ff0000">
<circle cx="393" cy="396" r="3.5"/>
</g>
<path d="M395,393v -16" fill="none" stroke="#ff0000" stroke-width="6"/>
<g stroke="#ff0000" stroke-width="6" fill="#ff0000">
<circle cx="395" cy="396" r="3.5"/>
</g>
<path d="M397,393v -16" fill="none" stroke="#ff0000" stroke-width="6"/>
<g stroke="#ff0000" stroke-width="6" fill="#ff0000">
<circle cx="397" cy="396" r="3.5"/>
</g>
<path d="M399,393v -16" fill="none" stroke="#ff0000" stroke-width="6"/>
<g stroke="#ff0000" stroke-width="6" fill="#ff0000">
<circle cx="399" cy="396" r="3.5"/>
</g>
<path d="M401,393v -16" fill="none" stroke="#ff0000" stroke-width="6"/>
<g stroke="#ff0000" stroke-width="6" fill="#ff0000">
<circle cx="401" cy="396" r="3.5"/>
</g>
<path d="M403,393v -16" fill="none" stroke="#ff0000" stroke-width="6"/>
<g stroke="#ff0000" stroke-width="6" fill="#ff0000">
<circle cx="403" cy="396" r="3.5"/>
</g>
<path d="M405,393v -16" fill="none" stroke="#ff0000" stroke-width="6"/>
<g stroke="#ff0000" stroke-width="6" fill="#ff0000">
<circle cx="405" cy="396" r="3.5"/>
</g>
<path d="M407,393v -16" fill="none" stroke="#ff0000" stroke-width="6"/>
<g stroke="#ff0000" stroke-width="6" fill="#ff0000">
<circle cx="407" cy="396" r="3.5"/>
</g>
<path d="M409,393v -16" fill="none" stroke="#ff0000" stroke-width="6"/>
<g stroke="#ff0000" stroke-width="6" fill="#ff0000">
<circle cx="409" cy="396" r="3.5"/>
</g>
<path d="M411,393v -16" fill="none" stroke="#ff0000" stroke-width="6"/>
<g stroke="#ff0000" stroke-width="6" fill="#ff0000">
<circle cx="411" cy="396" r="3.5"/>
</g>
<path d="M413,393v -16" fill="none" stroke="#ff0000" stroke-width="6"/>
<g stroke="#ff0000" stroke-width="6" fill="#ff0000">
<circle cx="413" cy="396" r="3.5"/>
</g>
<path d="M415,393v -16" fill="none" stroke="#ff0000" stroke-width="6"/>
<g stroke="#ff0000" stroke-width="6" fill="#ff0000">
<circle cx="415" cy="396" r="3.5"/>
</g>
<path d="M417,393v -16" fill="none" stroke="#ff0000" stroke-width="6"/>
<g stroke="#ff0000" stroke-width="6" fill="#ff0000">
<circle cx="417" cy="396" r="3.5"/>
</g>
<path d="M419,393v -16" fill="none" stroke="#ff0000" stroke-width="6"/>
<g stroke="#ff0000" stroke-width="6" fill="#ff0000">
<circle cx="419" cy="396" r="3.5"/>
</g>
<path d="M421,393v -16" fill="none" stroke="#ff0000" stroke-width="6"/>
<g stroke="#ff0000" stroke-width="6" fill="#ff0000">
<circle cx="421" cy="396" r="3.5"/>
</g>
<path d="M423,356v -42" fill="none" stroke="#ff0000" stroke-width="6"/>
<path d="M423,307v -41" fill="none" stroke="#ff0000" stroke-width="6"/>
<g stroke="#ff0000" stroke-width="6" fill="#ff0000">
<circle cx="423" cy="311" r="3.5"/>
</g>
<path d="M425,393v -16" fill="none" stroke="#ff0000" stroke-width="6"/>
<g stroke="#ff0000" stroke-width="6" fill="#ff0000">
<circle cx="425" cy="396" r="3.5"/>
</g>
<path d="M427,356v -42" fill="none" stroke="#ff0000" stroke-width="6"/>
<path d="M427,307v -41" fill="none" stroke="#ff0000" stroke-width="6"/>
<g stroke="#ff0000" stroke-width="6" fill="#ff0000">
<circle cx="427" cy="311" r="3.5"/>
</g>
<path d="M429,393v -16" fill="none" stroke="#ff0000" stroke-width="6"/>
<g stroke="#ff0000" stroke-width="6" fill="#ff0000">
<circle cx="429" cy="396" r="3.5"/>
</g>
<path d="M431,393v -16" fill="none" stroke="#ff0000" stroke-width="6"/>
<g stroke="#ff0000" stroke-width="6" fill="#ff0000">
<circle cx="431" cy="396" r="3.5"/>
</g>
<path d="M433,393v -16" fill="none" stroke="#ff0000" stroke-width="6"/>
<g stroke="#ff0000" stroke-width="6" fill="#ff0000">
<circle cx="433" cy="396" r="3.5"/>
</g>
<path d="M435,316v -45" fill="none" stroke="#ff0000" stroke-width="6"/>
<path d="M435,265v -45" fill="none" stroke="#ff0000" stroke-width="6"/>
<g stroke="#ff0000" stroke-width="6" fill="#ff0000">
<circle cx="435" cy="268" r="3.5"/>
</g>
<path d="M437,392v -35" fill="none" stroke="#ff0000" stroke-width="6"/>
<path d="M437,350v -35" fill="none" stroke="#ff0000" stroke-width="6"/>
<g stroke="#ff0000" stroke-width="6" fill="#ff0000">
<circle cx="437" cy="353" r="3.5"/>
</g>
<path d="M439,393v -16" fill="none" stroke="#ff0000" stroke-width="6"/>
<g stroke="#ff0000" stroke-width="6" fill="#ff0000">
<circle cx="439" cy="396" r="3.5"/>
</g>
<path d="M441,393v -16" fill="none" stroke="#ff0000" stroke-width="6"/>
<g stroke="#ff0000" stroke-width="6" fill="#ff0000">
<circle cx="441" cy="396" r="3.5"/>
</g>
<path d="M443,393v -16" fill="none" stroke="#ff0000" stroke-width="6"/>
<g stroke="#ff0000" stroke-width="6" fill="#ff0000">
<circle cx="443" cy="396" r="3.5"/>
</g>
<path d="M446,316v -45" fill="none" stroke="#ff0000" stroke-width="6"/>
<path d="M446,265v -45" fill="none" stroke="#ff0000" stroke-width="6"/>
<g stroke="#ff0000" stroke-width="6" fill="#ff0000">
<circle cx="446" cy="268" r="3.5"/>
</g>
<path d="M448,393v -16" fill="none" stroke="#ff0000" stroke-width="6"/>
<g stroke="#ff0000" stroke-width="6" fill="#ff0000">
<circle cx="448" cy="396" r="3.5"/>
</g>
<path d="M450,393v -16" fill="none" stroke="#ff0000" stroke-width="6"/>
<g stroke="#ff0000" stroke-width="6" fill="#ff0000">
<circle cx="450" cy="396" r="3.5"/>
</g>
<path d="M452,393v -16" fill="none" stroke="#ff0000" stroke-width="6"/>
<g stroke="#ff0000" stroke-width="6" fill="#ff0000">
<circle cx="452" cy="396" r="3.5"/>
</g>
<path d="M454,393v -16" fill="none" stroke="#ff0000" stroke-width="6"/>
<g stroke="#ff0000" stroke-width="6" fill="#ff0000">
<circle cx="454" cy="396" r="3.5"/>
</g>
<path d="M456,316v -45" fill="none" stroke="#ff0000" stroke-width="6"/>
<path d="M456,265v -45" fill="none" stroke="#ff0000" stroke-width="6"/>
<g stroke="#ff0000" stroke-width="6" fill="#ff0000">
<circle cx="456" cy="268" r="3.5"/>
</g>
<path d="M458,393v -16" fill="none" stroke="#ff0000" stroke-width="6"/>
<g stroke="#ff0000" stroke-width="6" fill="#ff0000">
<circle cx="458" cy="396" r="3.5"/>
</g>
<path d="M460,393v -16" fill="none" stroke="#ff0000" stroke-width="6"/>
<g stroke="#ff0000" stroke-width="6" fill="#ff0000">
<circle cx="460" cy="396" r="3.5"/>
</g>
<path d="M462,393v -16" fill="none" stroke="#ff0000" stroke-width="6"/>
<g stroke="#ff0000" stroke-width="6" fill="#ff0000">
<circle cx="462" cy="396" r="3.5"/>
</g>
<path d="M464,393v -16" fill="none" stroke="#ff0000" stroke-width="6"/>
<g stroke="#ff0000" stroke-width="6" fill="#ff0000">
<circle cx="464" cy="396" r="3.5"/>
</g>
<path d="M466,393v -16" fill="none" stroke="#ff0000" stroke-width="6"/>
<g stroke="#ff0000" stroke-width="6" fill="#ff0000">
<circle cx="466" cy="396" r="3.5"/>
</g>
<path d="M468,393v -16" fill="none" stroke="#ff0000" stroke-width="6"/>
<g stroke="#ff0000" stroke-width="6" fill="#ff0000">
<circle cx="468" cy="396" r="3.5"/>
</g>
<path d="M470,393v -16" fill="none" stroke="#ff0000" stroke-width="6"/>
<g stroke="#ff0000" stroke-width="6" fill="#ff0000">
<circle cx="470" cy="396" r="3.5"/>
</g>
<path d="M472,393v -16" fill="none" stroke="#ff0000" stroke-width="6"/>
<g stroke="#ff0000" stroke-width="6" fill="#ff0000">
<circle cx="472" cy="396" r="3.5"/>
</g>
<path d="M474,393v -16" fill="none" stroke="#ff0000" stroke-width="6"/>
<g stroke="#ff0000" stroke-width="6" fill="#ff0000">
<circle cx="474" cy="396" r="3.5"/>
</g>
<path d="M476,393v -16" fill="none" stroke="#ff0000" stroke-width="6"/>
<g stroke="#ff0000" stroke-width="6" fill="#ff0000">
<circle cx="476" cy="396" r="3.5"/>
</g>
<path d="M478,393v -16" fill="none" stroke="#ff0000" stroke-width="6"/>
<g stroke="#ff0000" stroke-width="6" fill="#ff0000">
<circle cx="478" cy="396" r="3.5"/>
</g>
<path d="M480,393v -16" fill="none" stroke="#ff0000" stroke-width="6"/>
<g stroke="#ff0000" stroke-width="6" fill="#ff0000">
<circle cx="480" cy="396" r="3.5"/>
</g>
<path d="M482,393v -16" fill="none" stroke="#ff0000" stroke-width="6"/>
<g stroke="#ff0000" stroke-width="6" fill="#ff0000">
<circle cx="482" cy="396" r="3.5"/>
</g>
<path d="M484,393v -16" fill="none" stroke="#ff0000" stroke-width="6"/>
<g stroke="#ff0000" stroke-width="6" fill="#ff0000">
<circle cx="484" cy="396" r="3.5"/>
</g>
<path d="M486,393v -16" fill="none" stroke="#ff0000" stroke-width="6"/>
<g stroke="#ff0000" stroke-width="6" fill="#ff0000">
<circle cx="486" cy="396" r="3.5"/>
</g>
<path d="M488,393v -16" fill="none" stroke="#ff0000" stroke-width="6"/>
<g stroke="#ff0000" stroke-width="6" fill="#ff0000">
<circle cx="488" cy="396" r="3.5"/>
</g>
<path d="M490,393v -16" fill="none" stroke="#ff0000" stroke-width="6"/>
<g stroke="#ff0000" stroke-width="6" fill="#ff0000">
<circle cx="490" cy="396" r="3.5"/>
</g>
<path d="M492,316v -45" fill="none" stroke="#ff0000" stroke-width="6"/>
<path d="M492,265v -45" fill="none" stroke="#ff0000" stroke-width="6"/>
<g stroke="#ff0000" stroke-width="6" fill="#ff0000">
<circle cx="492" cy="268" r="3.5"/>
</g>
<path d="M494,393v -16" fill="none" stroke="#ff0000" stroke-width="6"/>
<g stroke="#ff0000" stroke-width="6" fill="#ff0000">
<circle cx="494" cy="396" r="3.5"/>
</g>
<path d="M496,393v -16" fill="none" stroke="#ff0000" stroke-width="6"/>
<g stroke="#ff0000" stroke-width="6" fill="#ff0000">
<circle cx="496" cy="396" r="3.5"/>
</g>
<path d="M498,356v -42" fill="none" stroke="#ff0000" stroke-width="6"/>
<path d="M498,307v -41" fill="none" stroke="#ff0000" stroke-width="6"/>
<g stroke="#ff0000" stroke-width="6" fill="#ff0000">
<circle cx="498" cy="311" r="3.5"/>
</g>
<path d="M500,393v -16" fill="none" stroke="#ff0000" stroke-width="6"/>
<g stroke="#ff0000" stroke-width="6" fill="#ff0000">
<circle cx="500" cy="396" r="3.5"/>
</g>
<path d="M502,393v -16" fill="none" stroke="#ff0000" stroke-width="6"/>
<g stroke="#ff0000" stroke-width="6" fill="#ff0000">
<circle cx="502" cy="396" r="3.5"/>
</g>
<path d="M504,393v -16" fill="none" stroke="#ff0000" stroke-width="6"/>
<g stroke="#ff0000" stroke-width="6" fill="#ff0000">
<circle cx="504" cy="396" r="3.5"/>
</g>
<path d="M506,393v -16" fill="none" stroke="#ff0000" stroke-width="6"/>
<g stroke="#ff0000" stroke-width="6" fill="#ff0000">
<circle cx="506" cy="396" r="3.5"/>
</g>
<path d="M508,393v -16" fill="none" stroke="#ff0000" stroke-width="6"/>
<g stroke="#ff0000" stroke-width="6" fill="#ff0000">
<circle cx="508" cy="396" r="3.5"/>
</g>
<path d="M510,393v -16" fill="none" stroke="#ff0000" stroke-width="6"/>
<g stroke="#ff0000" stroke-width="6" fill="#ff0000">
<circle cx="510" cy="396" r="3.5"/>
</g>
<path d="M512,393v -16" fill="none" stroke="#ff0000" stroke-width="6"/>
<g stroke="#ff0000" stroke-width="6" fill="#ff0000">
<circle cx="512" cy="396" r="3.5"/>
</g>
<path d="M514,393v -16" fill="none" stroke="#ff0000" stroke-width="6"/>
<g stroke="#ff0000" stroke-width="6" fill="#ff0000">
<circle cx="514" cy="396" r="3.5"/>
</g>
<path d="M517,393v -16" fill="none" stroke="#ff0000" stroke-width="6"/>
<g stroke="#ff0000" stroke-width="6" fill="#ff0000">
<circle cx="517" cy="396" r="3.5"/>
</g>
<path d="M519,393v -16" fill="none" stroke="#ff0000" stroke-width="6"/>
<g stroke="#ff0000" stroke-width="6" fill="#ff0000">
<circle cx="519" cy="396" r="3.5"/>
</g>
<path d="M521,393v -16" fill="none" stroke="#ff0000" stroke-width="6"/>
<g stroke="#ff0000" stroke-width="6" fill="#ff0000">
<circle cx="521" cy="396" r="3.5"/>
</g>
<path d="M332,107h 42" fill="none" stroke="#ff0000" stroke-width="6"/>
<path d="M506,426v -179" fill="none" stroke="black" stroke-width="3" stroke-dasharray=" 3, 3"/>
<rect x="113" y="-4" width="303" height="38" fill="white"/>
<text x="136" y="24" fill="black" font-size="30" font-family="Helvetica" font-weight="bold">
IGHV4-34_star_02
</text></svg>
