<?xml version="1.0" standalone="no"?>
<svg width="567" height="466" viewBox="0 0 567 466" xmlns="http://www.w3.org/2000/svg">
<title>
/bbx/output/_plots/example/sw/true/mute-freqs/d/plots/IGHD5-12_star_01.svg
</title>
<desc>
Creator: ROOT Version 5.34/14
CreationDate: Wed Aug 19 19:38:13 2015</desc>
<defs>
</defs>
<rect x="0" y="0" width="567" height="466" fill="white"/>
<rect x="79" y="37" width="443" height="359" fill="none" stroke="black"/>
<rect x="79" y="37" width="443" height="359" fill="none" stroke="black"/>
<path d="M79,396h 443" fill="none" stroke="black" stroke-width="3"/>
<path d="M153,385v 11" fill="none" stroke="black" stroke-width="3"/>
<path d="M178,391v 5" fill="none" stroke="black" stroke-width="3"/>
<path d="M202,391v 5" fill="none" stroke="black" stroke-width="3"/>
<path d="M227,391v 5" fill="none" stroke="black" stroke-width="3"/>
<path d="M251,385v 11" fill="none" stroke="black" stroke-width="3"/>
<path d="M276,391v 5" fill="none" stroke="black" stroke-width="3"/>
<path d="M300,391v 5" fill="none" stroke="black" stroke-width="3"/>
<path d="M325,391v 5" fill="none" stroke="black" stroke-width="3"/>
<path d="M350,385v 11" fill="none" stroke="black" stroke-width="3"/>
<path d="M374,391v 5" fill="none" stroke="black" stroke-width="3"/>
<path d="M399,391v 5" fill="none" stroke="black" stroke-width="3"/>
<path d="M423,391v 5" fill="none" stroke="black" stroke-width="3"/>
<path d="M448,385v 11" fill="none" stroke="black" stroke-width="3"/>
<path d="M153,385v 11" fill="none" stroke="black" stroke-width="3"/>
<path d="M129,391v 5" fill="none" stroke="black" stroke-width="3"/>
<path d="M104,391v 5" fill="none" stroke="black" stroke-width="3"/>
<path d="M448,385v 11" fill="none" stroke="black" stroke-width="3"/>
<path d="M472,391v 5" fill="none" stroke="black" stroke-width="3"/>
<path d="M497,391v 5" fill="none" stroke="black" stroke-width="3"/>
<text x="141" y="416" fill="black" font-size="21" font-family="Times" font-weight="bold">
10
</text>
<text x="239" y="416" fill="black" font-size="21" font-family="Times" font-weight="bold">
12
</text>
<text x="338" y="416" fill="black" font-size="21" font-family="Times" font-weight="bold">
14
</text>
<text x="436" y="416" fill="black" font-size="21" font-family="Times" font-weight="bold">
16
</text>
<path d="M79,37h 443" fill="none" stroke="black" stroke-width="3"/>
<path d="M153,48v -11" fill="none" stroke="black" stroke-width="3"/>
<path d="M178,43v -6" fill="none" stroke="black" stroke-width="3"/>
<path d="M202,43v -6" fill="none" stroke="black" stroke-width="3"/>
<path d="M227,43v -6" fill="none" stroke="black" stroke-width="3"/>
<path d="M251,48v -11" fill="none" stroke="black" stroke-width="3"/>
<path d="M276,43v -6" fill="none" stroke="black" stroke-width="3"/>
<path d="M300,43v -6" fill="none" stroke="black" stroke-width="3"/>
<path d="M325,43v -6" fill="none" stroke="black" stroke-width="3"/>
<path d="M350,48v -11" fill="none" stroke="black" stroke-width="3"/>
<path d="M374,43v -6" fill="none" stroke="black" stroke-width="3"/>
<path d="M399,43v -6" fill="none" stroke="black" stroke-width="3"/>
<path d="M423,43v -6" fill="none" stroke="black" stroke-width="3"/>
<path d="M448,48v -11" fill="none" stroke="black" stroke-width="3"/>
<path d="M153,48v -11" fill="none" stroke="black" stroke-width="3"/>
<path d="M129,43v -6" fill="none" stroke="black" stroke-width="3"/>
<path d="M104,43v -6" fill="none" stroke="black" stroke-width="3"/>
<path d="M448,48v -11" fill="none" stroke="black" stroke-width="3"/>
<path d="M472,43v -6" fill="none" stroke="black" stroke-width="3"/>
<path d="M497,43v -6" fill="none" stroke="black" stroke-width="3"/>
<path d="M79,396v -359" fill="none" stroke="black" stroke-width="3"/>
<path d="M92,396h -13" fill="none" stroke="black" stroke-width="3"/>
<path d="M86,381h -7" fill="none" stroke="black" stroke-width="3"/>
<path d="M86,366h -7" fill="none" stroke="black" stroke-width="3"/>
<path d="M86,351h -7" fill="none" stroke="black" stroke-width="3"/>
<path d="M86,336h -7" fill="none" stroke="black" stroke-width="3"/>
<path d="M92,321h -13" fill="none" stroke="black" stroke-width="3"/>
<path d="M86,306h -7" fill="none" stroke="black" stroke-width="3"/>
<path d="M86,291h -7" fill="none" stroke="black" stroke-width="3"/>
<path d="M86,277h -7" fill="none" stroke="black" stroke-width="3"/>
<path d="M86,262h -7" fill="none" stroke="black" stroke-width="3"/>
<path d="M92,247h -13" fill="none" stroke="black" stroke-width="3"/>
<path d="M86,232h -7" fill="none" stroke="black" stroke-width="3"/>
<path d="M86,217h -7" fill="none" stroke="black" stroke-width="3"/>
<path d="M86,202h -7" fill="none" stroke="black" stroke-width="3"/>
<path d="M86,187h -7" fill="none" stroke="black" stroke-width="3"/>
<path d="M92,172h -13" fill="none" stroke="black" stroke-width="3"/>
<path d="M86,157h -7" fill="none" stroke="black" stroke-width="3"/>
<path d="M86,142h -7" fill="none" stroke="black" stroke-width="3"/>
<path d="M86,127h -7" fill="none" stroke="black" stroke-width="3"/>
<path d="M86,112h -7" fill="none" stroke="black" stroke-width="3"/>
<path d="M92,97h -13" fill="none" stroke="black" stroke-width="3"/>
<path d="M92,97h -13" fill="none" stroke="black" stroke-width="3"/>
<path d="M86,82h -7" fill="none" stroke="black" stroke-width="3"/>
<path d="M86,67h -7" fill="none" stroke="black" stroke-width="3"/>
<path d="M86,52h -7" fill="none" stroke="black" stroke-width="3"/>
<path d="M86,37h -7" fill="none" stroke="black" stroke-width="3"/>
<text x="35" y="404" fill="black" font-size="21" font-family="Times" font-weight="bold">
0.00
</text>
<text x="35" y="329" fill="black" font-size="21" font-family="Times" font-weight="bold">
0.05
</text>
<text x="35" y="254" fill="black" font-size="21" font-family="Times" font-weight="bold">
0.10
</text>
<text x="35" y="179" fill="black" font-size="21" font-family="Times" font-weight="bold">
0.15
</text>
<text x="35" y="105" fill="black" font-size="21" font-family="Times" font-weight="bold">
0.20
</text>
<path d="M522,396v -359" fill="none" stroke="black" stroke-width="3"/>
<path d="M508,396h 14" fill="none" stroke="black" stroke-width="3"/>
<path d="M515,381h 7" fill="none" stroke="black" stroke-width="3"/>
<path d="M515,366h 7" fill="none" stroke="black" stroke-width="3"/>
<path d="M515,351h 7" fill="none" stroke="black" stroke-width="3"/>
<path d="M515,336h 7" fill="none" stroke="black" stroke-width="3"/>
<path d="M508,321h 14" fill="none" stroke="black" stroke-width="3"/>
<path d="M515,306h 7" fill="none" stroke="black" stroke-width="3"/>
<path d="M515,291h 7" fill="none" stroke="black" stroke-width="3"/>
<path d="M515,277h 7" fill="none" stroke="black" stroke-width="3"/>
<path d="M515,262h 7" fill="none" stroke="black" stroke-width="3"/>
<path d="M508,247h 14" fill="none" stroke="black" stroke-width="3"/>
<path d="M515,232h 7" fill="none" stroke="black" stroke-width="3"/>
<path d="M515,217h 7" fill="none" stroke="black" stroke-width="3"/>
<path d="M515,202h 7" fill="none" stroke="black" stroke-width="3"/>
<path d="M515,187h 7" fill="none" stroke="black" stroke-width="3"/>
<path d="M508,172h 14" fill="none" stroke="black" stroke-width="3"/>
<path d="M515,157h 7" fill="none" stroke="black" stroke-width="3"/>
<path d="M515,142h 7" fill="none" stroke="black" stroke-width="3"/>
<path d="M515,127h 7" fill="none" stroke="black" stroke-width="3"/>
<path d="M515,112h 7" fill="none" stroke="black" stroke-width="3"/>
<path d="M508,97h 14" fill="none" stroke="black" stroke-width="3"/>
<path d="M508,97h 14" fill="none" stroke="black" stroke-width="3"/>
<path d="M515,82h 7" fill="none" stroke="black" stroke-width="3"/>
<path d="M515,67h 7" fill="none" stroke="black" stroke-width="3"/>
<path d="M515,52h 7" fill="none" stroke="black" stroke-width="3"/>
<path d="M515,37h 7" fill="none" stroke="black" stroke-width="3"/>
<rect x="113" y="-4" width="303" height="38" fill="white"/>
<text x="136" y="24" fill="black" font-size="30" font-family="Helvetica" font-weight="bold">
IGHD5-12_star_01
</text>
<path d="M104,393v -122" fill="none" stroke="#ff0000" stroke-width="6"/>
<g stroke="#ff0000" stroke-width="6" fill="#ff0000">
<circle cx="104" cy="396" r="3.5"/>
</g>
<path d="M153,393v -122" fill="none" stroke="#ff0000" stroke-width="6"/>
<g stroke="#ff0000" stroke-width="6" fill="#ff0000">
<circle cx="153" cy="396" r="3.5"/>
</g>
<path d="M202,393v -122" fill="none" stroke="#ff0000" stroke-width="6"/>
<g stroke="#ff0000" stroke-width="6" fill="#ff0000">
<circle cx="202" cy="396" r="3.5"/>
</g>
<path d="M251,338v -238" fill="none" stroke="#ff0000" stroke-width="6"/>
<path d="M251,94v -57" fill="none" stroke="#ff0000" stroke-width="6"/>
<path d="M227,97h 21" fill="none" stroke="#ff0000" stroke-width="6"/>
<path d="M255,97h 21" fill="none" stroke="#ff0000" stroke-width="6"/>
<g stroke="#ff0000" stroke-width="6" fill="#ff0000">
<circle cx="251" cy="97" r="3.5"/>
</g>
<path d="M300,393v -122" fill="none" stroke="#ff0000" stroke-width="6"/>
<g stroke="#ff0000" stroke-width="6" fill="#ff0000">
<circle cx="300" cy="396" r="3.5"/>
</g>
<path d="M350,338v -238" fill="none" stroke="#ff0000" stroke-width="6"/>
<path d="M350,94v -57" fill="none" stroke="#ff0000" stroke-width="6"/>
<path d="M325,97h 21" fill="none" stroke="#ff0000" stroke-width="6"/>
<path d="M353,97h 21" fill="none" stroke="#ff0000" stroke-width="6"/>
<g stroke="#ff0000" stroke-width="6" fill="#ff0000">
<circle cx="350" cy="97" r="3.5"/>
</g>
<path d="M399,393v -122" fill="none" stroke="#ff0000" stroke-width="6"/>
<g stroke="#ff0000" stroke-width="6" fill="#ff0000">
<circle cx="399" cy="396" r="3.5"/>
</g>
<path d="M448,393v -122" fill="none" stroke="#ff0000" stroke-width="6"/>
<g stroke="#ff0000" stroke-width="6" fill="#ff0000">
<circle cx="448" cy="396" r="3.5"/>
</g>
<path d="M497,393v -122" fill="none" stroke="#ff0000" stroke-width="6"/>
<g stroke="#ff0000" stroke-width="6" fill="#ff0000">
<circle cx="497" cy="396" r="3.5"/>
</g>
<path d="M332,107h 42" fill="none" stroke="#ff0000" stroke-width="6"/>
<rect x="113" y="-4" width="303" height="38" fill="white"/>
<text x="136" y="24" fill="black" font-size="30" font-family="Helvetica" font-weight="bold">
IGHD5-12_star_01
</text></svg>
