<?xml version="1.0" standalone="no"?>
<svg width="567" height="466" viewBox="0 0 567 466" xmlns="http://www.w3.org/2000/svg">
<title>
/bbx/output/_plots/example/sw/true/mute-freqs/d/plots/IGHD1-26_star_01.svg
</title>
<desc>
Creator: ROOT Version 5.34/14
CreationDate: Wed Aug 19 19:38:13 2015</desc>
<defs>
</defs>
<rect x="0" y="0" width="567" height="466" fill="white"/>
<rect x="79" y="37" width="443" height="359" fill="none" stroke="black"/>
<rect x="79" y="37" width="443" height="359" fill="none" stroke="black"/>
<path d="M79,396h 443" fill="none" stroke="black" stroke-width="3"/>
<path d="M135,385v 11" fill="none" stroke="black" stroke-width="3"/>
<path d="M171,391v 5" fill="none" stroke="black" stroke-width="3"/>
<path d="M208,391v 5" fill="none" stroke="black" stroke-width="3"/>
<path d="M245,391v 5" fill="none" stroke="black" stroke-width="3"/>
<path d="M282,391v 5" fill="none" stroke="black" stroke-width="3"/>
<path d="M319,385v 11" fill="none" stroke="black" stroke-width="3"/>
<path d="M356,391v 5" fill="none" stroke="black" stroke-width="3"/>
<path d="M393,391v 5" fill="none" stroke="black" stroke-width="3"/>
<path d="M429,391v 5" fill="none" stroke="black" stroke-width="3"/>
<path d="M466,391v 5" fill="none" stroke="black" stroke-width="3"/>
<path d="M503,385v 11" fill="none" stroke="black" stroke-width="3"/>
<path d="M135,385v 11" fill="none" stroke="black" stroke-width="3"/>
<path d="M98,391v 5" fill="none" stroke="black" stroke-width="3"/>
<path d="M503,385v 11" fill="none" stroke="black" stroke-width="3"/>
<text x="129" y="416" fill="black" font-size="21" font-family="Times" font-weight="bold">
5
</text>
<text x="307" y="416" fill="black" font-size="21" font-family="Times" font-weight="bold">
10
</text>
<text x="491" y="416" fill="black" font-size="21" font-family="Times" font-weight="bold">
15
</text>
<path d="M79,37h 443" fill="none" stroke="black" stroke-width="3"/>
<path d="M135,48v -11" fill="none" stroke="black" stroke-width="3"/>
<path d="M171,43v -6" fill="none" stroke="black" stroke-width="3"/>
<path d="M208,43v -6" fill="none" stroke="black" stroke-width="3"/>
<path d="M245,43v -6" fill="none" stroke="black" stroke-width="3"/>
<path d="M282,43v -6" fill="none" stroke="black" stroke-width="3"/>
<path d="M319,48v -11" fill="none" stroke="black" stroke-width="3"/>
<path d="M356,43v -6" fill="none" stroke="black" stroke-width="3"/>
<path d="M393,43v -6" fill="none" stroke="black" stroke-width="3"/>
<path d="M429,43v -6" fill="none" stroke="black" stroke-width="3"/>
<path d="M466,43v -6" fill="none" stroke="black" stroke-width="3"/>
<path d="M503,48v -11" fill="none" stroke="black" stroke-width="3"/>
<path d="M135,48v -11" fill="none" stroke="black" stroke-width="3"/>
<path d="M98,43v -6" fill="none" stroke="black" stroke-width="3"/>
<path d="M503,48v -11" fill="none" stroke="black" stroke-width="3"/>
<path d="M79,396v -359" fill="none" stroke="black" stroke-width="3"/>
<path d="M92,396h -13" fill="none" stroke="black" stroke-width="3"/>
<path d="M86,371h -7" fill="none" stroke="black" stroke-width="3"/>
<path d="M86,346h -7" fill="none" stroke="black" stroke-width="3"/>
<path d="M86,321h -7" fill="none" stroke="black" stroke-width="3"/>
<path d="M92,296h -13" fill="none" stroke="black" stroke-width="3"/>
<path d="M86,272h -7" fill="none" stroke="black" stroke-width="3"/>
<path d="M86,247h -7" fill="none" stroke="black" stroke-width="3"/>
<path d="M86,222h -7" fill="none" stroke="black" stroke-width="3"/>
<path d="M92,197h -13" fill="none" stroke="black" stroke-width="3"/>
<path d="M86,172h -7" fill="none" stroke="black" stroke-width="3"/>
<path d="M86,147h -7" fill="none" stroke="black" stroke-width="3"/>
<path d="M86,122h -7" fill="none" stroke="black" stroke-width="3"/>
<path d="M92,97h -13" fill="none" stroke="black" stroke-width="3"/>
<path d="M92,97h -13" fill="none" stroke="black" stroke-width="3"/>
<path d="M86,72h -7" fill="none" stroke="black" stroke-width="3"/>
<path d="M86,47h -7" fill="none" stroke="black" stroke-width="3"/>
<text x="46" y="404" fill="black" font-size="21" font-family="Times" font-weight="bold">
0.0
</text>
<text x="46" y="304" fill="black" font-size="21" font-family="Times" font-weight="bold">
0.2
</text>
<text x="46" y="205" fill="black" font-size="21" font-family="Times" font-weight="bold">
0.4
</text>
<text x="46" y="105" fill="black" font-size="21" font-family="Times" font-weight="bold">
0.6
</text>
<path d="M522,396v -359" fill="none" stroke="black" stroke-width="3"/>
<path d="M508,396h 14" fill="none" stroke="black" stroke-width="3"/>
<path d="M515,371h 7" fill="none" stroke="black" stroke-width="3"/>
<path d="M515,346h 7" fill="none" stroke="black" stroke-width="3"/>
<path d="M515,321h 7" fill="none" stroke="black" stroke-width="3"/>
<path d="M508,296h 14" fill="none" stroke="black" stroke-width="3"/>
<path d="M515,272h 7" fill="none" stroke="black" stroke-width="3"/>
<path d="M515,247h 7" fill="none" stroke="black" stroke-width="3"/>
<path d="M515,222h 7" fill="none" stroke="black" stroke-width="3"/>
<path d="M508,197h 14" fill="none" stroke="black" stroke-width="3"/>
<path d="M515,172h 7" fill="none" stroke="black" stroke-width="3"/>
<path d="M515,147h 7" fill="none" stroke="black" stroke-width="3"/>
<path d="M515,122h 7" fill="none" stroke="black" stroke-width="3"/>
<path d="M508,97h 14" fill="none" stroke="black" stroke-width="3"/>
<path d="M508,97h 14" fill="none" stroke="black" stroke-width="3"/>
<path d="M515,72h 7" fill="none" stroke="black" stroke-width="3"/>
<path d="M515,47h 7" fill="none" stroke="black" stroke-width="3"/>
<rect x="113" y="-4" width="303" height="38" fill="white"/>
<text x="136" y="24" fill="black" font-size="30" font-family="Helvetica" font-weight="bold">
IGHD1-26_star_01
</text>
<path d="M98,393v -39" fill="none" stroke="#ff0000" stroke-width="6"/>
<g stroke="#ff0000" stroke-width="6" fill="#ff0000">
<circle cx="98" cy="396" r="3.5"/>
</g>
<path d="M135,377v -77" fill="none" stroke="#ff0000" stroke-width="6"/>
<path d="M135,293v -77" fill="none" stroke="#ff0000" stroke-width="6"/>
<path d="M116,296h 15" fill="none" stroke="#ff0000" stroke-width="6"/>
<path d="M138,296h 15" fill="none" stroke="#ff0000" stroke-width="6"/>
<g stroke="#ff0000" stroke-width="6" fill="#ff0000">
<circle cx="135" cy="296" r="3.5"/>
</g>
<path d="M171,187v -87" fill="none" stroke="#ff0000" stroke-width="6"/>
<path d="M171,94v -57" fill="none" stroke="#ff0000" stroke-width="6"/>
<path d="M153,97h 15" fill="none" stroke="#ff0000" stroke-width="6"/>
<path d="M175,97h 15" fill="none" stroke="#ff0000" stroke-width="6"/>
<g stroke="#ff0000" stroke-width="6" fill="#ff0000">
<circle cx="171" cy="97" r="3.5"/>
</g>
<path d="M208,287v -87" fill="none" stroke="#ff0000" stroke-width="6"/>
<path d="M208,194v -87" fill="none" stroke="#ff0000" stroke-width="6"/>
<path d="M190,197h 15" fill="none" stroke="#ff0000" stroke-width="6"/>
<path d="M212,197h 15" fill="none" stroke="#ff0000" stroke-width="6"/>
<g stroke="#ff0000" stroke-width="6" fill="#ff0000">
<circle cx="208" cy="197" r="3.5"/>
</g>
<path d="M245,377v -77" fill="none" stroke="#ff0000" stroke-width="6"/>
<path d="M245,293v -77" fill="none" stroke="#ff0000" stroke-width="6"/>
<path d="M227,296h 15" fill="none" stroke="#ff0000" stroke-width="6"/>
<path d="M248,296h 16" fill="none" stroke="#ff0000" stroke-width="6"/>
<g stroke="#ff0000" stroke-width="6" fill="#ff0000">
<circle cx="245" cy="296" r="3.5"/>
</g>
<path d="M282,393v -39" fill="none" stroke="#ff0000" stroke-width="6"/>
<g stroke="#ff0000" stroke-width="6" fill="#ff0000">
<circle cx="282" cy="396" r="3.5"/>
</g>
<path d="M319,393v -39" fill="none" stroke="#ff0000" stroke-width="6"/>
<g stroke="#ff0000" stroke-width="6" fill="#ff0000">
<circle cx="319" cy="396" r="3.5"/>
</g>
<path d="M356,393v -39" fill="none" stroke="#ff0000" stroke-width="6"/>
<g stroke="#ff0000" stroke-width="6" fill="#ff0000">
<circle cx="356" cy="396" r="3.5"/>
</g>
<path d="M393,393v -39" fill="none" stroke="#ff0000" stroke-width="6"/>
<g stroke="#ff0000" stroke-width="6" fill="#ff0000">
<circle cx="393" cy="396" r="3.5"/>
</g>
<path d="M429,287v -87" fill="none" stroke="#ff0000" stroke-width="6"/>
<path d="M429,194v -87" fill="none" stroke="#ff0000" stroke-width="6"/>
<path d="M411,197h 15" fill="none" stroke="#ff0000" stroke-width="6"/>
<path d="M433,197h 15" fill="none" stroke="#ff0000" stroke-width="6"/>
<g stroke="#ff0000" stroke-width="6" fill="#ff0000">
<circle cx="429" cy="197" r="3.5"/>
</g>
<path d="M466,393v -39" fill="none" stroke="#ff0000" stroke-width="6"/>
<g stroke="#ff0000" stroke-width="6" fill="#ff0000">
<circle cx="466" cy="396" r="3.5"/>
</g>
<path d="M503,393v -39" fill="none" stroke="#ff0000" stroke-width="6"/>
<g stroke="#ff0000" stroke-width="6" fill="#ff0000">
<circle cx="503" cy="396" r="3.5"/>
</g>
<path d="M332,107h 42" fill="none" stroke="#ff0000" stroke-width="6"/>
<rect x="113" y="-4" width="303" height="38" fill="white"/>
<text x="136" y="24" fill="black" font-size="30" font-family="Helvetica" font-weight="bold">
IGHD1-26_star_01
</text></svg>
