<?xml version="1.0" standalone="no"?>
<svg width="567" height="466" viewBox="0 0 567 466" xmlns="http://www.w3.org/2000/svg">
<title>
/bbx/output/_plots/example/sw/true/mute-freqs/d/plots/IGHD2-2_star_02.svg
</title>
<desc>
Creator: ROOT Version 5.34/14
CreationDate: Wed Aug 19 19:38:13 2015</desc>
<defs>
</defs>
<rect x="0" y="0" width="567" height="466" fill="white"/>
<rect x="79" y="37" width="443" height="359" fill="none" stroke="black"/>
<rect x="79" y="37" width="443" height="359" fill="none" stroke="black"/>
<path d="M79,396h 443" fill="none" stroke="black" stroke-width="3"/>
<path d="M87,385v 11" fill="none" stroke="black" stroke-width="3"/>
<path d="M119,391v 5" fill="none" stroke="black" stroke-width="3"/>
<path d="M150,391v 5" fill="none" stroke="black" stroke-width="3"/>
<path d="M182,391v 5" fill="none" stroke="black" stroke-width="3"/>
<path d="M214,391v 5" fill="none" stroke="black" stroke-width="3"/>
<path d="M245,385v 11" fill="none" stroke="black" stroke-width="3"/>
<path d="M277,391v 5" fill="none" stroke="black" stroke-width="3"/>
<path d="M308,391v 5" fill="none" stroke="black" stroke-width="3"/>
<path d="M340,391v 5" fill="none" stroke="black" stroke-width="3"/>
<path d="M372,391v 5" fill="none" stroke="black" stroke-width="3"/>
<path d="M403,385v 11" fill="none" stroke="black" stroke-width="3"/>
<path d="M87,385v 11" fill="none" stroke="black" stroke-width="3"/>
<path d="M403,385v 11" fill="none" stroke="black" stroke-width="3"/>
<path d="M435,391v 5" fill="none" stroke="black" stroke-width="3"/>
<path d="M466,391v 5" fill="none" stroke="black" stroke-width="3"/>
<path d="M498,391v 5" fill="none" stroke="black" stroke-width="3"/>
<text x="81" y="416" fill="black" font-size="21" font-family="Times" font-weight="bold">
0
</text>
<text x="234" y="416" fill="black" font-size="21" font-family="Times" font-weight="bold">
10
</text>
<text x="391" y="416" fill="black" font-size="21" font-family="Times" font-weight="bold">
20
</text>
<path d="M79,37h 443" fill="none" stroke="black" stroke-width="3"/>
<path d="M87,48v -11" fill="none" stroke="black" stroke-width="3"/>
<path d="M119,43v -6" fill="none" stroke="black" stroke-width="3"/>
<path d="M150,43v -6" fill="none" stroke="black" stroke-width="3"/>
<path d="M182,43v -6" fill="none" stroke="black" stroke-width="3"/>
<path d="M214,43v -6" fill="none" stroke="black" stroke-width="3"/>
<path d="M245,48v -11" fill="none" stroke="black" stroke-width="3"/>
<path d="M277,43v -6" fill="none" stroke="black" stroke-width="3"/>
<path d="M308,43v -6" fill="none" stroke="black" stroke-width="3"/>
<path d="M340,43v -6" fill="none" stroke="black" stroke-width="3"/>
<path d="M372,43v -6" fill="none" stroke="black" stroke-width="3"/>
<path d="M403,48v -11" fill="none" stroke="black" stroke-width="3"/>
<path d="M87,48v -11" fill="none" stroke="black" stroke-width="3"/>
<path d="M403,48v -11" fill="none" stroke="black" stroke-width="3"/>
<path d="M435,43v -6" fill="none" stroke="black" stroke-width="3"/>
<path d="M466,43v -6" fill="none" stroke="black" stroke-width="3"/>
<path d="M498,43v -6" fill="none" stroke="black" stroke-width="3"/>
<path d="M79,396v -359" fill="none" stroke="black" stroke-width="3"/>
<path d="M92,396h -13" fill="none" stroke="black" stroke-width="3"/>
<path d="M86,362h -7" fill="none" stroke="black" stroke-width="3"/>
<path d="M86,329h -7" fill="none" stroke="black" stroke-width="3"/>
<path d="M86,295h -7" fill="none" stroke="black" stroke-width="3"/>
<path d="M86,262h -7" fill="none" stroke="black" stroke-width="3"/>
<path d="M92,228h -13" fill="none" stroke="black" stroke-width="3"/>
<path d="M86,194h -7" fill="none" stroke="black" stroke-width="3"/>
<path d="M86,161h -7" fill="none" stroke="black" stroke-width="3"/>
<path d="M86,127h -7" fill="none" stroke="black" stroke-width="3"/>
<path d="M86,93h -7" fill="none" stroke="black" stroke-width="3"/>
<path d="M92,60h -13" fill="none" stroke="black" stroke-width="3"/>
<path d="M92,60h -13" fill="none" stroke="black" stroke-width="3"/>
<text x="46" y="404" fill="black" font-size="21" font-family="Times" font-weight="bold">
0.0
</text>
<text x="46" y="235" fill="black" font-size="21" font-family="Times" font-weight="bold">
0.5
</text>
<text x="46" y="68" fill="black" font-size="21" font-family="Times" font-weight="bold">
1.0
</text>
<path d="M522,396v -359" fill="none" stroke="black" stroke-width="3"/>
<path d="M508,396h 14" fill="none" stroke="black" stroke-width="3"/>
<path d="M515,362h 7" fill="none" stroke="black" stroke-width="3"/>
<path d="M515,329h 7" fill="none" stroke="black" stroke-width="3"/>
<path d="M515,295h 7" fill="none" stroke="black" stroke-width="3"/>
<path d="M515,262h 7" fill="none" stroke="black" stroke-width="3"/>
<path d="M508,228h 14" fill="none" stroke="black" stroke-width="3"/>
<path d="M515,194h 7" fill="none" stroke="black" stroke-width="3"/>
<path d="M515,161h 7" fill="none" stroke="black" stroke-width="3"/>
<path d="M515,127h 7" fill="none" stroke="black" stroke-width="3"/>
<path d="M515,93h 7" fill="none" stroke="black" stroke-width="3"/>
<path d="M508,60h 14" fill="none" stroke="black" stroke-width="3"/>
<path d="M508,60h 14" fill="none" stroke="black" stroke-width="3"/>
<rect x="113" y="-4" width="286" height="38" fill="white"/>
<text x="134" y="24" fill="black" font-size="30" font-family="Helvetica" font-weight="bold">
IGHD2-2_star_02
</text>
<path d="M87,395v -33" fill="none" stroke="#ff0000" stroke-width="6"/>
<path d="M87,355v -32" fill="none" stroke="#ff0000" stroke-width="6"/>
<path d="M79,359h 5" fill="none" stroke="#ff0000" stroke-width="6"/>
<path d="M91,359h 4" fill="none" stroke="#ff0000" stroke-width="6"/>
<g stroke="#ff0000" stroke-width="6" fill="#ff0000">
<circle cx="87" cy="359" r="3.5"/>
</g>
<path d="M103,364v -39" fill="none" stroke="#ff0000" stroke-width="6"/>
<path d="M103,318v -40" fill="none" stroke="#ff0000" stroke-width="6"/>
<path d="M95,321h 5" fill="none" stroke="#ff0000" stroke-width="6"/>
<path d="M106,321h 5" fill="none" stroke="#ff0000" stroke-width="6"/>
<g stroke="#ff0000" stroke-width="6" fill="#ff0000">
<circle cx="103" cy="321" r="3.5"/>
</g>
<path d="M119,393v -14" fill="none" stroke="#ff0000" stroke-width="6"/>
<g stroke="#ff0000" stroke-width="6" fill="#ff0000">
<circle cx="119" cy="396" r="3.5"/>
</g>
<path d="M135,395v -33" fill="none" stroke="#ff0000" stroke-width="6"/>
<path d="M135,355v -32" fill="none" stroke="#ff0000" stroke-width="6"/>
<path d="M127,359h 4" fill="none" stroke="#ff0000" stroke-width="6"/>
<path d="M138,359h 5" fill="none" stroke="#ff0000" stroke-width="6"/>
<g stroke="#ff0000" stroke-width="6" fill="#ff0000">
<circle cx="135" cy="359" r="3.5"/>
</g>
<path d="M150,393v -14" fill="none" stroke="#ff0000" stroke-width="6"/>
<g stroke="#ff0000" stroke-width="6" fill="#ff0000">
<circle cx="150" cy="396" r="3.5"/>
</g>
<path d="M166,393v -14" fill="none" stroke="#ff0000" stroke-width="6"/>
<g stroke="#ff0000" stroke-width="6" fill="#ff0000">
<circle cx="166" cy="396" r="3.5"/>
</g>
<path d="M182,364v -39" fill="none" stroke="#ff0000" stroke-width="6"/>
<path d="M182,318v -40" fill="none" stroke="#ff0000" stroke-width="6"/>
<path d="M174,321h 5" fill="none" stroke="#ff0000" stroke-width="6"/>
<path d="M185,321h 5" fill="none" stroke="#ff0000" stroke-width="6"/>
<g stroke="#ff0000" stroke-width="6" fill="#ff0000">
<circle cx="182" cy="321" r="3.5"/>
</g>
<path d="M198,395v -33" fill="none" stroke="#ff0000" stroke-width="6"/>
<path d="M198,355v -32" fill="none" stroke="#ff0000" stroke-width="6"/>
<path d="M190,359h 5" fill="none" stroke="#ff0000" stroke-width="6"/>
<path d="M201,359h 5" fill="none" stroke="#ff0000" stroke-width="6"/>
<g stroke="#ff0000" stroke-width="6" fill="#ff0000">
<circle cx="198" cy="359" r="3.5"/>
</g>
<path d="M214,393v -14" fill="none" stroke="#ff0000" stroke-width="6"/>
<g stroke="#ff0000" stroke-width="6" fill="#ff0000">
<circle cx="214" cy="396" r="3.5"/>
</g>
<path d="M229,393v -14" fill="none" stroke="#ff0000" stroke-width="6"/>
<g stroke="#ff0000" stroke-width="6" fill="#ff0000">
<circle cx="229" cy="396" r="3.5"/>
</g>
<path d="M245,395v -33" fill="none" stroke="#ff0000" stroke-width="6"/>
<path d="M245,355v -32" fill="none" stroke="#ff0000" stroke-width="6"/>
<path d="M237,359h 5" fill="none" stroke="#ff0000" stroke-width="6"/>
<path d="M248,359h 5" fill="none" stroke="#ff0000" stroke-width="6"/>
<g stroke="#ff0000" stroke-width="6" fill="#ff0000">
<circle cx="245" cy="359" r="3.5"/>
</g>
<path d="M261,393v -14" fill="none" stroke="#ff0000" stroke-width="6"/>
<g stroke="#ff0000" stroke-width="6" fill="#ff0000">
<circle cx="261" cy="396" r="3.5"/>
</g>
<path d="M277,393v -14" fill="none" stroke="#ff0000" stroke-width="6"/>
<g stroke="#ff0000" stroke-width="6" fill="#ff0000">
<circle cx="277" cy="396" r="3.5"/>
</g>
<path d="M293,364v -39" fill="none" stroke="#ff0000" stroke-width="6"/>
<path d="M293,318v -40" fill="none" stroke="#ff0000" stroke-width="6"/>
<path d="M285,321h 4" fill="none" stroke="#ff0000" stroke-width="6"/>
<path d="M296,321h 4" fill="none" stroke="#ff0000" stroke-width="6"/>
<g stroke="#ff0000" stroke-width="6" fill="#ff0000">
<circle cx="293" cy="321" r="3.5"/>
</g>
<path d="M308,393v -14" fill="none" stroke="#ff0000" stroke-width="6"/>
<g stroke="#ff0000" stroke-width="6" fill="#ff0000">
<circle cx="308" cy="396" r="3.5"/>
</g>
<path d="M324,395v -33" fill="none" stroke="#ff0000" stroke-width="6"/>
<path d="M324,355v -32" fill="none" stroke="#ff0000" stroke-width="6"/>
<path d="M316,359h 5" fill="none" stroke="#ff0000" stroke-width="6"/>
<path d="M327,359h 5" fill="none" stroke="#ff0000" stroke-width="6"/>
<g stroke="#ff0000" stroke-width="6" fill="#ff0000">
<circle cx="324" cy="359" r="3.5"/>
</g>
<path d="M340,393v -14" fill="none" stroke="#ff0000" stroke-width="6"/>
<g stroke="#ff0000" stroke-width="6" fill="#ff0000">
<circle cx="340" cy="396" r="3.5"/>
</g>
<path d="M356,393v -14" fill="none" stroke="#ff0000" stroke-width="6"/>
<g stroke="#ff0000" stroke-width="6" fill="#ff0000">
<circle cx="356" cy="396" r="3.5"/>
</g>
<path d="M372,395v -33" fill="none" stroke="#ff0000" stroke-width="6"/>
<path d="M372,355v -32" fill="none" stroke="#ff0000" stroke-width="6"/>
<path d="M364,359h 4" fill="none" stroke="#ff0000" stroke-width="6"/>
<path d="M375,359h 4" fill="none" stroke="#ff0000" stroke-width="6"/>
<g stroke="#ff0000" stroke-width="6" fill="#ff0000">
<circle cx="372" cy="359" r="3.5"/>
</g>
<path d="M387,395v -33" fill="none" stroke="#ff0000" stroke-width="6"/>
<path d="M387,355v -32" fill="none" stroke="#ff0000" stroke-width="6"/>
<path d="M379,359h 5" fill="none" stroke="#ff0000" stroke-width="6"/>
<path d="M391,359h 4" fill="none" stroke="#ff0000" stroke-width="6"/>
<g stroke="#ff0000" stroke-width="6" fill="#ff0000">
<circle cx="387" cy="359" r="3.5"/>
</g>
<path d="M403,395v -33" fill="none" stroke="#ff0000" stroke-width="6"/>
<path d="M403,355v -32" fill="none" stroke="#ff0000" stroke-width="6"/>
<path d="M395,359h 5" fill="none" stroke="#ff0000" stroke-width="6"/>
<path d="M406,359h 5" fill="none" stroke="#ff0000" stroke-width="6"/>
<g stroke="#ff0000" stroke-width="6" fill="#ff0000">
<circle cx="403" cy="359" r="3.5"/>
</g>
<path d="M419,133v -33" fill="none" stroke="#ff0000" stroke-width="6"/>
<path d="M419,94v -33" fill="none" stroke="#ff0000" stroke-width="6"/>
<path d="M411,97h 5" fill="none" stroke="#ff0000" stroke-width="6"/>
<path d="M422,97h 5" fill="none" stroke="#ff0000" stroke-width="6"/>
<g stroke="#ff0000" stroke-width="6" fill="#ff0000">
<circle cx="419" cy="97" r="3.5"/>
</g>
<path d="M435,393v -14" fill="none" stroke="#ff0000" stroke-width="6"/>
<g stroke="#ff0000" stroke-width="6" fill="#ff0000">
<circle cx="435" cy="396" r="3.5"/>
</g>
<path d="M451,364v -39" fill="none" stroke="#ff0000" stroke-width="6"/>
<path d="M451,318v -40" fill="none" stroke="#ff0000" stroke-width="6"/>
<path d="M443,321h 4" fill="none" stroke="#ff0000" stroke-width="6"/>
<path d="M454,321h 4" fill="none" stroke="#ff0000" stroke-width="6"/>
<g stroke="#ff0000" stroke-width="6" fill="#ff0000">
<circle cx="451" cy="321" r="3.5"/>
</g>
<path d="M466,393v -14" fill="none" stroke="#ff0000" stroke-width="6"/>
<g stroke="#ff0000" stroke-width="6" fill="#ff0000">
<circle cx="466" cy="396" r="3.5"/>
</g>
<path d="M482,395v -33" fill="none" stroke="#ff0000" stroke-width="6"/>
<path d="M482,355v -32" fill="none" stroke="#ff0000" stroke-width="6"/>
<path d="M474,359h 5" fill="none" stroke="#ff0000" stroke-width="6"/>
<path d="M485,359h 5" fill="none" stroke="#ff0000" stroke-width="6"/>
<g stroke="#ff0000" stroke-width="6" fill="#ff0000">
<circle cx="482" cy="359" r="3.5"/>
</g>
<path d="M498,364v -39" fill="none" stroke="#ff0000" stroke-width="6"/>
<path d="M498,318v -40" fill="none" stroke="#ff0000" stroke-width="6"/>
<path d="M490,321h 5" fill="none" stroke="#ff0000" stroke-width="6"/>
<path d="M501,321h 5" fill="none" stroke="#ff0000" stroke-width="6"/>
<g stroke="#ff0000" stroke-width="6" fill="#ff0000">
<circle cx="498" cy="321" r="3.5"/>
</g>
<path d="M514,393v -14" fill="none" stroke="#ff0000" stroke-width="6"/>
<g stroke="#ff0000" stroke-width="6" fill="#ff0000">
<circle cx="514" cy="396" r="3.5"/>
</g>
<path d="M332,107h 42" fill="none" stroke="#ff0000" stroke-width="6"/>
<rect x="113" y="-4" width="286" height="38" fill="white"/>
<text x="134" y="24" fill="black" font-size="30" font-family="Helvetica" font-weight="bold">
IGHD2-2_star_02
</text></svg>
