<?xml version="1.0" standalone="no"?>
<svg width="567" height="466" viewBox="0 0 567 466" xmlns="http://www.w3.org/2000/svg">
<title>
/bbx/output/_plots/example/sw/true/mute-freqs/d/plots/IGHD2-2_star_03.svg
</title>
<desc>
Creator: ROOT Version 5.34/14
CreationDate: Wed Aug 19 19:38:13 2015</desc>
<defs>
</defs>
<rect x="0" y="0" width="567" height="466" fill="white"/>
<rect x="79" y="37" width="443" height="359" fill="none" stroke="black"/>
<rect x="79" y="37" width="443" height="359" fill="none" stroke="black"/>
<path d="M79,396h 443" fill="none" stroke="black" stroke-width="3"/>
<path d="M212,385v 11" fill="none" stroke="black" stroke-width="3"/>
<path d="M242,391v 5" fill="none" stroke="black" stroke-width="3"/>
<path d="M271,391v 5" fill="none" stroke="black" stroke-width="3"/>
<path d="M300,391v 5" fill="none" stroke="black" stroke-width="3"/>
<path d="M330,391v 5" fill="none" stroke="black" stroke-width="3"/>
<path d="M359,385v 11" fill="none" stroke="black" stroke-width="3"/>
<path d="M389,391v 5" fill="none" stroke="black" stroke-width="3"/>
<path d="M418,391v 5" fill="none" stroke="black" stroke-width="3"/>
<path d="M448,391v 5" fill="none" stroke="black" stroke-width="3"/>
<path d="M477,391v 5" fill="none" stroke="black" stroke-width="3"/>
<path d="M507,385v 11" fill="none" stroke="black" stroke-width="3"/>
<path d="M212,385v 11" fill="none" stroke="black" stroke-width="3"/>
<path d="M183,391v 5" fill="none" stroke="black" stroke-width="3"/>
<path d="M153,391v 5" fill="none" stroke="black" stroke-width="3"/>
<path d="M124,391v 5" fill="none" stroke="black" stroke-width="3"/>
<path d="M94,391v 5" fill="none" stroke="black" stroke-width="3"/>
<path d="M507,385v 11" fill="none" stroke="black" stroke-width="3"/>
<text x="200" y="416" fill="black" font-size="21" font-family="Times" font-weight="bold">
20
</text>
<text x="348" y="416" fill="black" font-size="21" font-family="Times" font-weight="bold">
25
</text>
<text x="495" y="416" fill="black" font-size="21" font-family="Times" font-weight="bold">
30
</text>
<path d="M79,37h 443" fill="none" stroke="black" stroke-width="3"/>
<path d="M212,48v -11" fill="none" stroke="black" stroke-width="3"/>
<path d="M242,43v -6" fill="none" stroke="black" stroke-width="3"/>
<path d="M271,43v -6" fill="none" stroke="black" stroke-width="3"/>
<path d="M300,43v -6" fill="none" stroke="black" stroke-width="3"/>
<path d="M330,43v -6" fill="none" stroke="black" stroke-width="3"/>
<path d="M359,48v -11" fill="none" stroke="black" stroke-width="3"/>
<path d="M389,43v -6" fill="none" stroke="black" stroke-width="3"/>
<path d="M418,43v -6" fill="none" stroke="black" stroke-width="3"/>
<path d="M448,43v -6" fill="none" stroke="black" stroke-width="3"/>
<path d="M477,43v -6" fill="none" stroke="black" stroke-width="3"/>
<path d="M507,48v -11" fill="none" stroke="black" stroke-width="3"/>
<path d="M212,48v -11" fill="none" stroke="black" stroke-width="3"/>
<path d="M183,43v -6" fill="none" stroke="black" stroke-width="3"/>
<path d="M153,43v -6" fill="none" stroke="black" stroke-width="3"/>
<path d="M124,43v -6" fill="none" stroke="black" stroke-width="3"/>
<path d="M94,43v -6" fill="none" stroke="black" stroke-width="3"/>
<path d="M507,48v -11" fill="none" stroke="black" stroke-width="3"/>
<path d="M79,396v -359" fill="none" stroke="black" stroke-width="3"/>
<path d="M92,396h -13" fill="none" stroke="black" stroke-width="3"/>
<path d="M86,381h -7" fill="none" stroke="black" stroke-width="3"/>
<path d="M86,366h -7" fill="none" stroke="black" stroke-width="3"/>
<path d="M86,351h -7" fill="none" stroke="black" stroke-width="3"/>
<path d="M86,336h -7" fill="none" stroke="black" stroke-width="3"/>
<path d="M92,321h -13" fill="none" stroke="black" stroke-width="3"/>
<path d="M86,306h -7" fill="none" stroke="black" stroke-width="3"/>
<path d="M86,291h -7" fill="none" stroke="black" stroke-width="3"/>
<path d="M86,277h -7" fill="none" stroke="black" stroke-width="3"/>
<path d="M86,262h -7" fill="none" stroke="black" stroke-width="3"/>
<path d="M92,247h -13" fill="none" stroke="black" stroke-width="3"/>
<path d="M86,232h -7" fill="none" stroke="black" stroke-width="3"/>
<path d="M86,217h -7" fill="none" stroke="black" stroke-width="3"/>
<path d="M86,202h -7" fill="none" stroke="black" stroke-width="3"/>
<path d="M86,187h -7" fill="none" stroke="black" stroke-width="3"/>
<path d="M92,172h -13" fill="none" stroke="black" stroke-width="3"/>
<path d="M86,157h -7" fill="none" stroke="black" stroke-width="3"/>
<path d="M86,142h -7" fill="none" stroke="black" stroke-width="3"/>
<path d="M86,127h -7" fill="none" stroke="black" stroke-width="3"/>
<path d="M86,112h -7" fill="none" stroke="black" stroke-width="3"/>
<path d="M92,97h -13" fill="none" stroke="black" stroke-width="3"/>
<path d="M92,97h -13" fill="none" stroke="black" stroke-width="3"/>
<path d="M86,82h -7" fill="none" stroke="black" stroke-width="3"/>
<path d="M86,67h -7" fill="none" stroke="black" stroke-width="3"/>
<path d="M86,52h -7" fill="none" stroke="black" stroke-width="3"/>
<path d="M86,37h -7" fill="none" stroke="black" stroke-width="3"/>
<text x="46" y="404" fill="black" font-size="21" font-family="Times" font-weight="bold">
0.0
</text>
<text x="46" y="329" fill="black" font-size="21" font-family="Times" font-weight="bold">
0.1
</text>
<text x="46" y="254" fill="black" font-size="21" font-family="Times" font-weight="bold">
0.2
</text>
<text x="46" y="179" fill="black" font-size="21" font-family="Times" font-weight="bold">
0.3
</text>
<text x="46" y="105" fill="black" font-size="21" font-family="Times" font-weight="bold">
0.4
</text>
<path d="M522,396v -359" fill="none" stroke="black" stroke-width="3"/>
<path d="M508,396h 14" fill="none" stroke="black" stroke-width="3"/>
<path d="M515,381h 7" fill="none" stroke="black" stroke-width="3"/>
<path d="M515,366h 7" fill="none" stroke="black" stroke-width="3"/>
<path d="M515,351h 7" fill="none" stroke="black" stroke-width="3"/>
<path d="M515,336h 7" fill="none" stroke="black" stroke-width="3"/>
<path d="M508,321h 14" fill="none" stroke="black" stroke-width="3"/>
<path d="M515,306h 7" fill="none" stroke="black" stroke-width="3"/>
<path d="M515,291h 7" fill="none" stroke="black" stroke-width="3"/>
<path d="M515,277h 7" fill="none" stroke="black" stroke-width="3"/>
<path d="M515,262h 7" fill="none" stroke="black" stroke-width="3"/>
<path d="M508,247h 14" fill="none" stroke="black" stroke-width="3"/>
<path d="M515,232h 7" fill="none" stroke="black" stroke-width="3"/>
<path d="M515,217h 7" fill="none" stroke="black" stroke-width="3"/>
<path d="M515,202h 7" fill="none" stroke="black" stroke-width="3"/>
<path d="M515,187h 7" fill="none" stroke="black" stroke-width="3"/>
<path d="M508,172h 14" fill="none" stroke="black" stroke-width="3"/>
<path d="M515,157h 7" fill="none" stroke="black" stroke-width="3"/>
<path d="M515,142h 7" fill="none" stroke="black" stroke-width="3"/>
<path d="M515,127h 7" fill="none" stroke="black" stroke-width="3"/>
<path d="M515,112h 7" fill="none" stroke="black" stroke-width="3"/>
<path d="M508,97h 14" fill="none" stroke="black" stroke-width="3"/>
<path d="M508,97h 14" fill="none" stroke="black" stroke-width="3"/>
<path d="M515,82h 7" fill="none" stroke="black" stroke-width="3"/>
<path d="M515,67h 7" fill="none" stroke="black" stroke-width="3"/>
<path d="M515,52h 7" fill="none" stroke="black" stroke-width="3"/>
<path d="M515,37h 7" fill="none" stroke="black" stroke-width="3"/>
<rect x="113" y="-4" width="285" height="38" fill="white"/>
<text x="134" y="24" fill="black" font-size="30" font-family="Helvetica" font-weight="bold">
IGHD2-2_star_03
</text>
<path d="M94,393v -59" fill="none" stroke="#ff0000" stroke-width="6"/>
<g stroke="#ff0000" stroke-width="6" fill="#ff0000">
<circle cx="94" cy="396" r="3.5"/>
</g>
<path d="M124,393v -59" fill="none" stroke="#ff0000" stroke-width="6"/>
<g stroke="#ff0000" stroke-width="6" fill="#ff0000">
<circle cx="124" cy="396" r="3.5"/>
</g>
<path d="M153,393v -59" fill="none" stroke="#ff0000" stroke-width="6"/>
<g stroke="#ff0000" stroke-width="6" fill="#ff0000">
<circle cx="153" cy="396" r="3.5"/>
</g>
<path d="M183,393v -59" fill="none" stroke="#ff0000" stroke-width="6"/>
<g stroke="#ff0000" stroke-width="6" fill="#ff0000">
<circle cx="183" cy="396" r="3.5"/>
</g>
<path d="M212,393v -59" fill="none" stroke="#ff0000" stroke-width="6"/>
<g stroke="#ff0000" stroke-width="6" fill="#ff0000">
<circle cx="212" cy="396" r="3.5"/>
</g>
<path d="M242,393v -59" fill="none" stroke="#ff0000" stroke-width="6"/>
<g stroke="#ff0000" stroke-width="6" fill="#ff0000">
<circle cx="242" cy="396" r="3.5"/>
</g>
<path d="M271,393v -59" fill="none" stroke="#ff0000" stroke-width="6"/>
<g stroke="#ff0000" stroke-width="6" fill="#ff0000">
<circle cx="271" cy="396" r="3.5"/>
</g>
<path d="M300,232v -132" fill="none" stroke="#ff0000" stroke-width="6"/>
<path d="M300,94v -57" fill="none" stroke="#ff0000" stroke-width="6"/>
<path d="M286,97h 11" fill="none" stroke="#ff0000" stroke-width="6"/>
<path d="M304,97h 11" fill="none" stroke="#ff0000" stroke-width="6"/>
<g stroke="#ff0000" stroke-width="6" fill="#ff0000">
<circle cx="300" cy="97" r="3.5"/>
</g>
<path d="M330,393v -59" fill="none" stroke="#ff0000" stroke-width="6"/>
<g stroke="#ff0000" stroke-width="6" fill="#ff0000">
<circle cx="330" cy="396" r="3.5"/>
</g>
<path d="M359,393v -59" fill="none" stroke="#ff0000" stroke-width="6"/>
<g stroke="#ff0000" stroke-width="6" fill="#ff0000">
<circle cx="359" cy="396" r="3.5"/>
</g>
<path d="M389,393v -59" fill="none" stroke="#ff0000" stroke-width="6"/>
<g stroke="#ff0000" stroke-width="6" fill="#ff0000">
<circle cx="389" cy="396" r="3.5"/>
</g>
<path d="M418,393v -59" fill="none" stroke="#ff0000" stroke-width="6"/>
<g stroke="#ff0000" stroke-width="6" fill="#ff0000">
<circle cx="418" cy="396" r="3.5"/>
</g>
<path d="M448,393v -59" fill="none" stroke="#ff0000" stroke-width="6"/>
<g stroke="#ff0000" stroke-width="6" fill="#ff0000">
<circle cx="448" cy="396" r="3.5"/>
</g>
<path d="M477,232v -132" fill="none" stroke="#ff0000" stroke-width="6"/>
<path d="M477,94v -57" fill="none" stroke="#ff0000" stroke-width="6"/>
<path d="M463,97h 11" fill="none" stroke="#ff0000" stroke-width="6"/>
<path d="M481,97h 11" fill="none" stroke="#ff0000" stroke-width="6"/>
<g stroke="#ff0000" stroke-width="6" fill="#ff0000">
<circle cx="477" cy="97" r="3.5"/>
</g>
<path d="M507,232v -132" fill="none" stroke="#ff0000" stroke-width="6"/>
<path d="M507,94v -57" fill="none" stroke="#ff0000" stroke-width="6"/>
<path d="M492,97h 12" fill="none" stroke="#ff0000" stroke-width="6"/>
<path d="M510,97h 12" fill="none" stroke="#ff0000" stroke-width="6"/>
<g stroke="#ff0000" stroke-width="6" fill="#ff0000">
<circle cx="507" cy="97" r="3.5"/>
</g>
<path d="M332,107h 42" fill="none" stroke="#ff0000" stroke-width="6"/>
<rect x="113" y="-4" width="285" height="38" fill="white"/>
<text x="134" y="24" fill="black" font-size="30" font-family="Helvetica" font-weight="bold">
IGHD2-2_star_03
</text></svg>
