<?xml version="1.0" standalone="no"?>
<svg width="567" height="466" viewBox="0 0 567 466" xmlns="http://www.w3.org/2000/svg">
<title>
/bbx/output/_plots/example/sw/true/mute-freqs/d/plots/IGHD3-16_star_02.svg
</title>
<desc>
Creator: ROOT Version 5.34/14
CreationDate: Wed Aug 19 19:38:15 2015</desc>
<defs>
</defs>
<rect x="0" y="0" width="567" height="466" fill="white"/>
<rect x="79" y="37" width="443" height="359" fill="none" stroke="black"/>
<rect x="79" y="37" width="443" height="359" fill="none" stroke="black"/>
<path d="M79,396h 443" fill="none" stroke="black" stroke-width="3"/>
<path d="M90,385v 11" fill="none" stroke="black" stroke-width="3"/>
<path d="M113,391v 5" fill="none" stroke="black" stroke-width="3"/>
<path d="M135,391v 5" fill="none" stroke="black" stroke-width="3"/>
<path d="M157,391v 5" fill="none" stroke="black" stroke-width="3"/>
<path d="M179,391v 5" fill="none" stroke="black" stroke-width="3"/>
<path d="M201,385v 11" fill="none" stroke="black" stroke-width="3"/>
<path d="M223,391v 5" fill="none" stroke="black" stroke-width="3"/>
<path d="M245,391v 5" fill="none" stroke="black" stroke-width="3"/>
<path d="M267,391v 5" fill="none" stroke="black" stroke-width="3"/>
<path d="M289,391v 5" fill="none" stroke="black" stroke-width="3"/>
<path d="M312,385v 11" fill="none" stroke="black" stroke-width="3"/>
<path d="M334,391v 5" fill="none" stroke="black" stroke-width="3"/>
<path d="M356,391v 5" fill="none" stroke="black" stroke-width="3"/>
<path d="M378,391v 5" fill="none" stroke="black" stroke-width="3"/>
<path d="M400,391v 5" fill="none" stroke="black" stroke-width="3"/>
<path d="M422,385v 11" fill="none" stroke="black" stroke-width="3"/>
<path d="M90,385v 11" fill="none" stroke="black" stroke-width="3"/>
<path d="M422,385v 11" fill="none" stroke="black" stroke-width="3"/>
<path d="M444,391v 5" fill="none" stroke="black" stroke-width="3"/>
<path d="M466,391v 5" fill="none" stroke="black" stroke-width="3"/>
<path d="M488,391v 5" fill="none" stroke="black" stroke-width="3"/>
<path d="M511,391v 5" fill="none" stroke="black" stroke-width="3"/>
<text x="85" y="416" fill="black" font-size="21" font-family="Times" font-weight="bold">
5
</text>
<text x="189" y="416" fill="black" font-size="21" font-family="Times" font-weight="bold">
10
</text>
<text x="300" y="416" fill="black" font-size="21" font-family="Times" font-weight="bold">
15
</text>
<text x="411" y="416" fill="black" font-size="21" font-family="Times" font-weight="bold">
20
</text>
<path d="M79,37h 443" fill="none" stroke="black" stroke-width="3"/>
<path d="M90,48v -11" fill="none" stroke="black" stroke-width="3"/>
<path d="M113,43v -6" fill="none" stroke="black" stroke-width="3"/>
<path d="M135,43v -6" fill="none" stroke="black" stroke-width="3"/>
<path d="M157,43v -6" fill="none" stroke="black" stroke-width="3"/>
<path d="M179,43v -6" fill="none" stroke="black" stroke-width="3"/>
<path d="M201,48v -11" fill="none" stroke="black" stroke-width="3"/>
<path d="M223,43v -6" fill="none" stroke="black" stroke-width="3"/>
<path d="M245,43v -6" fill="none" stroke="black" stroke-width="3"/>
<path d="M267,43v -6" fill="none" stroke="black" stroke-width="3"/>
<path d="M289,43v -6" fill="none" stroke="black" stroke-width="3"/>
<path d="M312,48v -11" fill="none" stroke="black" stroke-width="3"/>
<path d="M334,43v -6" fill="none" stroke="black" stroke-width="3"/>
<path d="M356,43v -6" fill="none" stroke="black" stroke-width="3"/>
<path d="M378,43v -6" fill="none" stroke="black" stroke-width="3"/>
<path d="M400,43v -6" fill="none" stroke="black" stroke-width="3"/>
<path d="M422,48v -11" fill="none" stroke="black" stroke-width="3"/>
<path d="M90,48v -11" fill="none" stroke="black" stroke-width="3"/>
<path d="M422,48v -11" fill="none" stroke="black" stroke-width="3"/>
<path d="M444,43v -6" fill="none" stroke="black" stroke-width="3"/>
<path d="M466,43v -6" fill="none" stroke="black" stroke-width="3"/>
<path d="M488,43v -6" fill="none" stroke="black" stroke-width="3"/>
<path d="M511,43v -6" fill="none" stroke="black" stroke-width="3"/>
<path d="M79,396v -359" fill="none" stroke="black" stroke-width="3"/>
<path d="M92,396h -13" fill="none" stroke="black" stroke-width="3"/>
<path d="M86,366h -7" fill="none" stroke="black" stroke-width="3"/>
<path d="M86,336h -7" fill="none" stroke="black" stroke-width="3"/>
<path d="M86,306h -7" fill="none" stroke="black" stroke-width="3"/>
<path d="M92,277h -13" fill="none" stroke="black" stroke-width="3"/>
<path d="M86,247h -7" fill="none" stroke="black" stroke-width="3"/>
<path d="M86,217h -7" fill="none" stroke="black" stroke-width="3"/>
<path d="M86,187h -7" fill="none" stroke="black" stroke-width="3"/>
<path d="M92,157h -13" fill="none" stroke="black" stroke-width="3"/>
<path d="M86,127h -7" fill="none" stroke="black" stroke-width="3"/>
<path d="M86,97h -7" fill="none" stroke="black" stroke-width="3"/>
<path d="M86,67h -7" fill="none" stroke="black" stroke-width="3"/>
<path d="M92,37h -13" fill="none" stroke="black" stroke-width="3"/>
<path d="M92,37h -13" fill="none" stroke="black" stroke-width="3"/>
<text x="46" y="404" fill="black" font-size="21" font-family="Times" font-weight="bold">
0.0
</text>
<text x="46" y="284" fill="black" font-size="21" font-family="Times" font-weight="bold">
0.2
</text>
<text x="46" y="165" fill="black" font-size="21" font-family="Times" font-weight="bold">
0.4
</text>
<text x="46" y="45" fill="black" font-size="21" font-family="Times" font-weight="bold">
0.6
</text>
<path d="M522,396v -359" fill="none" stroke="black" stroke-width="3"/>
<path d="M508,396h 14" fill="none" stroke="black" stroke-width="3"/>
<path d="M515,366h 7" fill="none" stroke="black" stroke-width="3"/>
<path d="M515,336h 7" fill="none" stroke="black" stroke-width="3"/>
<path d="M515,306h 7" fill="none" stroke="black" stroke-width="3"/>
<path d="M508,277h 14" fill="none" stroke="black" stroke-width="3"/>
<path d="M515,247h 7" fill="none" stroke="black" stroke-width="3"/>
<path d="M515,217h 7" fill="none" stroke="black" stroke-width="3"/>
<path d="M515,187h 7" fill="none" stroke="black" stroke-width="3"/>
<path d="M508,157h 14" fill="none" stroke="black" stroke-width="3"/>
<path d="M515,127h 7" fill="none" stroke="black" stroke-width="3"/>
<path d="M515,97h 7" fill="none" stroke="black" stroke-width="3"/>
<path d="M515,67h 7" fill="none" stroke="black" stroke-width="3"/>
<path d="M508,37h 14" fill="none" stroke="black" stroke-width="3"/>
<path d="M508,37h 14" fill="none" stroke="black" stroke-width="3"/>
<rect x="113" y="-4" width="304" height="38" fill="white"/>
<text x="135" y="24" fill="black" font-size="30" font-family="Helvetica" font-weight="bold">
IGHD3-16_star_02
</text>
<path d="M90,393v -69" fill="none" stroke="#ff0000" stroke-width="6"/>
<g stroke="#ff0000" stroke-width="6" fill="#ff0000">
<circle cx="90" cy="396" r="3.5"/>
</g>
<path d="M113,356v -106" fill="none" stroke="#ff0000" stroke-width="6"/>
<path d="M113,243v -106" fill="none" stroke="#ff0000" stroke-width="6"/>
<path d="M101,247h 8" fill="none" stroke="#ff0000" stroke-width="6"/>
<path d="M116,247h 8" fill="none" stroke="#ff0000" stroke-width="6"/>
<g stroke="#ff0000" stroke-width="6" fill="#ff0000">
<circle cx="113" cy="247" r="3.5"/>
</g>
<path d="M135,393v -56" fill="none" stroke="#ff0000" stroke-width="6"/>
<g stroke="#ff0000" stroke-width="6" fill="#ff0000">
<circle cx="135" cy="396" r="3.5"/>
</g>
<path d="M157,393v -56" fill="none" stroke="#ff0000" stroke-width="6"/>
<g stroke="#ff0000" stroke-width="6" fill="#ff0000">
<circle cx="157" cy="396" r="3.5"/>
</g>
<path d="M179,215v -115" fill="none" stroke="#ff0000" stroke-width="6"/>
<path d="M179,94v -57" fill="none" stroke="#ff0000" stroke-width="6"/>
<path d="M168,97h 8" fill="none" stroke="#ff0000" stroke-width="6"/>
<path d="M182,97h 8" fill="none" stroke="#ff0000" stroke-width="6"/>
<g stroke="#ff0000" stroke-width="6" fill="#ff0000">
<circle cx="179" cy="97" r="3.5"/>
</g>
<path d="M201,215v -115" fill="none" stroke="#ff0000" stroke-width="6"/>
<path d="M201,94v -57" fill="none" stroke="#ff0000" stroke-width="6"/>
<path d="M190,97h 8" fill="none" stroke="#ff0000" stroke-width="6"/>
<path d="M204,97h 8" fill="none" stroke="#ff0000" stroke-width="6"/>
<g stroke="#ff0000" stroke-width="6" fill="#ff0000">
<circle cx="201" cy="97" r="3.5"/>
</g>
<path d="M223,393v -56" fill="none" stroke="#ff0000" stroke-width="6"/>
<g stroke="#ff0000" stroke-width="6" fill="#ff0000">
<circle cx="223" cy="396" r="3.5"/>
</g>
<path d="M245,393v -56" fill="none" stroke="#ff0000" stroke-width="6"/>
<g stroke="#ff0000" stroke-width="6" fill="#ff0000">
<circle cx="245" cy="396" r="3.5"/>
</g>
<path d="M267,356v -106" fill="none" stroke="#ff0000" stroke-width="6"/>
<path d="M267,243v -106" fill="none" stroke="#ff0000" stroke-width="6"/>
<path d="M256,247h 8" fill="none" stroke="#ff0000" stroke-width="6"/>
<path d="M271,247h 7" fill="none" stroke="#ff0000" stroke-width="6"/>
<g stroke="#ff0000" stroke-width="6" fill="#ff0000">
<circle cx="267" cy="247" r="3.5"/>
</g>
<path d="M289,393v -56" fill="none" stroke="#ff0000" stroke-width="6"/>
<g stroke="#ff0000" stroke-width="6" fill="#ff0000">
<circle cx="289" cy="396" r="3.5"/>
</g>
<path d="M312,215v -115" fill="none" stroke="#ff0000" stroke-width="6"/>
<path d="M312,94v -57" fill="none" stroke="#ff0000" stroke-width="6"/>
<path d="M300,97h 8" fill="none" stroke="#ff0000" stroke-width="6"/>
<path d="M315,97h 8" fill="none" stroke="#ff0000" stroke-width="6"/>
<g stroke="#ff0000" stroke-width="6" fill="#ff0000">
<circle cx="312" cy="97" r="3.5"/>
</g>
<path d="M334,393v -31" fill="none" stroke="#ff0000" stroke-width="6"/>
<g stroke="#ff0000" stroke-width="6" fill="#ff0000">
<circle cx="334" cy="396" r="3.5"/>
</g>
<path d="M356,392v -67" fill="none" stroke="#ff0000" stroke-width="6"/>
<path d="M356,318v -67" fill="none" stroke="#ff0000" stroke-width="6"/>
<path d="M345,321h 7" fill="none" stroke="#ff0000" stroke-width="6"/>
<path d="M359,321h 8" fill="none" stroke="#ff0000" stroke-width="6"/>
<g stroke="#ff0000" stroke-width="6" fill="#ff0000">
<circle cx="356" cy="321" r="3.5"/>
</g>
<path d="M378,329v -79" fill="none" stroke="#ff0000" stroke-width="6"/>
<path d="M378,243v -79" fill="none" stroke="#ff0000" stroke-width="6"/>
<path d="M367,247h 8" fill="none" stroke="#ff0000" stroke-width="6"/>
<path d="M381,247h 8" fill="none" stroke="#ff0000" stroke-width="6"/>
<g stroke="#ff0000" stroke-width="6" fill="#ff0000">
<circle cx="378" cy="247" r="3.5"/>
</g>
<path d="M400,393v -31" fill="none" stroke="#ff0000" stroke-width="6"/>
<g stroke="#ff0000" stroke-width="6" fill="#ff0000">
<circle cx="400" cy="396" r="3.5"/>
</g>
<path d="M422,392v -67" fill="none" stroke="#ff0000" stroke-width="6"/>
<path d="M422,318v -67" fill="none" stroke="#ff0000" stroke-width="6"/>
<path d="M411,321h 8" fill="none" stroke="#ff0000" stroke-width="6"/>
<path d="M425,321h 8" fill="none" stroke="#ff0000" stroke-width="6"/>
<g stroke="#ff0000" stroke-width="6" fill="#ff0000">
<circle cx="422" cy="321" r="3.5"/>
</g>
<path d="M444,329v -79" fill="none" stroke="#ff0000" stroke-width="6"/>
<path d="M444,243v -79" fill="none" stroke="#ff0000" stroke-width="6"/>
<path d="M433,247h 8" fill="none" stroke="#ff0000" stroke-width="6"/>
<path d="M447,247h 8" fill="none" stroke="#ff0000" stroke-width="6"/>
<g stroke="#ff0000" stroke-width="6" fill="#ff0000">
<circle cx="444" cy="247" r="3.5"/>
</g>
<path d="M466,392v -67" fill="none" stroke="#ff0000" stroke-width="6"/>
<path d="M466,318v -67" fill="none" stroke="#ff0000" stroke-width="6"/>
<path d="M455,321h 8" fill="none" stroke="#ff0000" stroke-width="6"/>
<path d="M470,321h 7" fill="none" stroke="#ff0000" stroke-width="6"/>
<g stroke="#ff0000" stroke-width="6" fill="#ff0000">
<circle cx="466" cy="321" r="3.5"/>
</g>
<path d="M488,392v -67" fill="none" stroke="#ff0000" stroke-width="6"/>
<path d="M488,318v -67" fill="none" stroke="#ff0000" stroke-width="6"/>
<path d="M477,321h 8" fill="none" stroke="#ff0000" stroke-width="6"/>
<path d="M492,321h 7" fill="none" stroke="#ff0000" stroke-width="6"/>
<g stroke="#ff0000" stroke-width="6" fill="#ff0000">
<circle cx="488" cy="321" r="3.5"/>
</g>
<path d="M511,393v -69" fill="none" stroke="#ff0000" stroke-width="6"/>
<g stroke="#ff0000" stroke-width="6" fill="#ff0000">
<circle cx="511" cy="396" r="3.5"/>
</g>
<path d="M332,107h 42" fill="none" stroke="#ff0000" stroke-width="6"/>
<rect x="113" y="-4" width="304" height="38" fill="white"/>
<text x="135" y="24" fill="black" font-size="30" font-family="Helvetica" font-weight="bold">
IGHD3-16_star_02
</text></svg>
