<?xml version="1.0" standalone="no"?>
<svg width="567" height="466" viewBox="0 0 567 466" xmlns="http://www.w3.org/2000/svg">
<title>
/bbx/output/_plots/example/sw/mute-freqs/v/plots/IGHV1-69D_star_01.svg
</title>
<desc>
Creator: ROOT Version 5.34/14
CreationDate: Wed Aug 19 19:38:09 2015</desc>
<defs>
</defs>
<rect x="0" y="0" width="567" height="466" fill="white"/>
<rect x="79" y="37" width="443" height="359" fill="none" stroke="black"/>
<rect x="79" y="37" width="443" height="359" fill="none" stroke="black"/>
<path d="M79,396h 443" fill="none" stroke="black" stroke-width="3"/>
<path d="M124,385v 11" fill="none" stroke="black" stroke-width="3"/>
<path d="M150,391v 5" fill="none" stroke="black" stroke-width="3"/>
<path d="M177,391v 5" fill="none" stroke="black" stroke-width="3"/>
<path d="M203,391v 5" fill="none" stroke="black" stroke-width="3"/>
<path d="M229,385v 11" fill="none" stroke="black" stroke-width="3"/>
<path d="M256,391v 5" fill="none" stroke="black" stroke-width="3"/>
<path d="M282,391v 5" fill="none" stroke="black" stroke-width="3"/>
<path d="M308,391v 5" fill="none" stroke="black" stroke-width="3"/>
<path d="M335,385v 11" fill="none" stroke="black" stroke-width="3"/>
<path d="M361,391v 5" fill="none" stroke="black" stroke-width="3"/>
<path d="M387,391v 5" fill="none" stroke="black" stroke-width="3"/>
<path d="M414,391v 5" fill="none" stroke="black" stroke-width="3"/>
<path d="M440,385v 11" fill="none" stroke="black" stroke-width="3"/>
<path d="M124,385v 11" fill="none" stroke="black" stroke-width="3"/>
<path d="M98,391v 5" fill="none" stroke="black" stroke-width="3"/>
<path d="M440,385v 11" fill="none" stroke="black" stroke-width="3"/>
<path d="M466,391v 5" fill="none" stroke="black" stroke-width="3"/>
<path d="M493,391v 5" fill="none" stroke="black" stroke-width="3"/>
<path d="M519,391v 5" fill="none" stroke="black" stroke-width="3"/>
<text x="108" y="416" fill="black" font-size="21" font-family="Times" font-weight="bold">
220
</text>
<text x="213" y="416" fill="black" font-size="21" font-family="Times" font-weight="bold">
240
</text>
<text x="318" y="416" fill="black" font-size="21" font-family="Times" font-weight="bold">
260
</text>
<text x="424" y="416" fill="black" font-size="21" font-family="Times" font-weight="bold">
280
</text>
<path d="M79,37h 443" fill="none" stroke="black" stroke-width="3"/>
<path d="M124,48v -11" fill="none" stroke="black" stroke-width="3"/>
<path d="M150,43v -6" fill="none" stroke="black" stroke-width="3"/>
<path d="M177,43v -6" fill="none" stroke="black" stroke-width="3"/>
<path d="M203,43v -6" fill="none" stroke="black" stroke-width="3"/>
<path d="M229,48v -11" fill="none" stroke="black" stroke-width="3"/>
<path d="M256,43v -6" fill="none" stroke="black" stroke-width="3"/>
<path d="M282,43v -6" fill="none" stroke="black" stroke-width="3"/>
<path d="M308,43v -6" fill="none" stroke="black" stroke-width="3"/>
<path d="M335,48v -11" fill="none" stroke="black" stroke-width="3"/>
<path d="M361,43v -6" fill="none" stroke="black" stroke-width="3"/>
<path d="M387,43v -6" fill="none" stroke="black" stroke-width="3"/>
<path d="M414,43v -6" fill="none" stroke="black" stroke-width="3"/>
<path d="M440,48v -11" fill="none" stroke="black" stroke-width="3"/>
<path d="M124,48v -11" fill="none" stroke="black" stroke-width="3"/>
<path d="M98,43v -6" fill="none" stroke="black" stroke-width="3"/>
<path d="M440,48v -11" fill="none" stroke="black" stroke-width="3"/>
<path d="M466,43v -6" fill="none" stroke="black" stroke-width="3"/>
<path d="M493,43v -6" fill="none" stroke="black" stroke-width="3"/>
<path d="M519,43v -6" fill="none" stroke="black" stroke-width="3"/>
<path d="M79,396v -359" fill="none" stroke="black" stroke-width="3"/>
<path d="M92,396h -13" fill="none" stroke="black" stroke-width="3"/>
<path d="M86,377h -7" fill="none" stroke="black" stroke-width="3"/>
<path d="M86,359h -7" fill="none" stroke="black" stroke-width="3"/>
<path d="M86,340h -7" fill="none" stroke="black" stroke-width="3"/>
<path d="M92,321h -13" fill="none" stroke="black" stroke-width="3"/>
<path d="M86,303h -7" fill="none" stroke="black" stroke-width="3"/>
<path d="M86,284h -7" fill="none" stroke="black" stroke-width="3"/>
<path d="M86,265h -7" fill="none" stroke="black" stroke-width="3"/>
<path d="M92,247h -13" fill="none" stroke="black" stroke-width="3"/>
<path d="M86,228h -7" fill="none" stroke="black" stroke-width="3"/>
<path d="M86,209h -7" fill="none" stroke="black" stroke-width="3"/>
<path d="M86,191h -7" fill="none" stroke="black" stroke-width="3"/>
<path d="M92,172h -13" fill="none" stroke="black" stroke-width="3"/>
<path d="M86,153h -7" fill="none" stroke="black" stroke-width="3"/>
<path d="M86,135h -7" fill="none" stroke="black" stroke-width="3"/>
<path d="M86,116h -7" fill="none" stroke="black" stroke-width="3"/>
<path d="M92,97h -13" fill="none" stroke="black" stroke-width="3"/>
<path d="M92,97h -13" fill="none" stroke="black" stroke-width="3"/>
<path d="M86,78h -7" fill="none" stroke="black" stroke-width="3"/>
<path d="M86,60h -7" fill="none" stroke="black" stroke-width="3"/>
<path d="M86,41h -7" fill="none" stroke="black" stroke-width="3"/>
<text x="46" y="404" fill="black" font-size="21" font-family="Times" font-weight="bold">
0.0
</text>
<text x="46" y="329" fill="black" font-size="21" font-family="Times" font-weight="bold">
0.2
</text>
<text x="46" y="254" fill="black" font-size="21" font-family="Times" font-weight="bold">
0.4
</text>
<text x="46" y="179" fill="black" font-size="21" font-family="Times" font-weight="bold">
0.6
</text>
<text x="46" y="105" fill="black" font-size="21" font-family="Times" font-weight="bold">
0.8
</text>
<path d="M522,396v -359" fill="none" stroke="black" stroke-width="3"/>
<path d="M508,396h 14" fill="none" stroke="black" stroke-width="3"/>
<path d="M515,377h 7" fill="none" stroke="black" stroke-width="3"/>
<path d="M515,359h 7" fill="none" stroke="black" stroke-width="3"/>
<path d="M515,340h 7" fill="none" stroke="black" stroke-width="3"/>
<path d="M508,321h 14" fill="none" stroke="black" stroke-width="3"/>
<path d="M515,303h 7" fill="none" stroke="black" stroke-width="3"/>
<path d="M515,284h 7" fill="none" stroke="black" stroke-width="3"/>
<path d="M515,265h 7" fill="none" stroke="black" stroke-width="3"/>
<path d="M508,247h 14" fill="none" stroke="black" stroke-width="3"/>
<path d="M515,228h 7" fill="none" stroke="black" stroke-width="3"/>
<path d="M515,209h 7" fill="none" stroke="black" stroke-width="3"/>
<path d="M515,191h 7" fill="none" stroke="black" stroke-width="3"/>
<path d="M508,172h 14" fill="none" stroke="black" stroke-width="3"/>
<path d="M515,153h 7" fill="none" stroke="black" stroke-width="3"/>
<path d="M515,135h 7" fill="none" stroke="black" stroke-width="3"/>
<path d="M515,116h 7" fill="none" stroke="black" stroke-width="3"/>
<path d="M508,97h 14" fill="none" stroke="black" stroke-width="3"/>
<path d="M508,97h 14" fill="none" stroke="black" stroke-width="3"/>
<path d="M515,78h 7" fill="none" stroke="black" stroke-width="3"/>
<path d="M515,60h 7" fill="none" stroke="black" stroke-width="3"/>
<path d="M515,41h 7" fill="none" stroke="black" stroke-width="3"/>
<rect x="113" y="-4" width="328" height="38" fill="white"/>
<text x="139" y="24" fill="black" font-size="30" font-family="Helvetica" font-weight="bold">
IGHV1-69D_star_01
</text>
<path d="M82,393v -28" fill="none" stroke="#ff0000" stroke-width="6"/>
<g stroke="#ff0000" stroke-width="6" fill="#ff0000">
<circle cx="82" cy="396" r="3.5"/>
</g>
<path d="M87,314v -64" fill="none" stroke="#ff0000" stroke-width="6"/>
<path d="M87,243v -64" fill="none" stroke="#ff0000" stroke-width="6"/>
<g stroke="#ff0000" stroke-width="6" fill="#ff0000">
<circle cx="87" cy="247" r="3.5"/>
</g>
<path d="M93,382v -57" fill="none" stroke="#ff0000" stroke-width="6"/>
<path d="M93,318v -57" fill="none" stroke="#ff0000" stroke-width="6"/>
<g stroke="#ff0000" stroke-width="6" fill="#ff0000">
<circle cx="93" cy="321" r="3.5"/>
</g>
<path d="M98,382v -57" fill="none" stroke="#ff0000" stroke-width="6"/>
<path d="M98,318v -57" fill="none" stroke="#ff0000" stroke-width="6"/>
<g stroke="#ff0000" stroke-width="6" fill="#ff0000">
<circle cx="98" cy="321" r="3.5"/>
</g>
<path d="M103,393v -28" fill="none" stroke="#ff0000" stroke-width="6"/>
<g stroke="#ff0000" stroke-width="6" fill="#ff0000">
<circle cx="103" cy="396" r="3.5"/>
</g>
<path d="M108,393v -28" fill="none" stroke="#ff0000" stroke-width="6"/>
<g stroke="#ff0000" stroke-width="6" fill="#ff0000">
<circle cx="108" cy="396" r="3.5"/>
</g>
<path d="M114,382v -57" fill="none" stroke="#ff0000" stroke-width="6"/>
<path d="M114,318v -57" fill="none" stroke="#ff0000" stroke-width="6"/>
<g stroke="#ff0000" stroke-width="6" fill="#ff0000">
<circle cx="114" cy="321" r="3.5"/>
</g>
<path d="M119,393v -28" fill="none" stroke="#ff0000" stroke-width="6"/>
<g stroke="#ff0000" stroke-width="6" fill="#ff0000">
<circle cx="119" cy="396" r="3.5"/>
</g>
<path d="M124,393v -28" fill="none" stroke="#ff0000" stroke-width="6"/>
<g stroke="#ff0000" stroke-width="6" fill="#ff0000">
<circle cx="124" cy="396" r="3.5"/>
</g>
<path d="M129,382v -57" fill="none" stroke="#ff0000" stroke-width="6"/>
<path d="M129,318v -57" fill="none" stroke="#ff0000" stroke-width="6"/>
<g stroke="#ff0000" stroke-width="6" fill="#ff0000">
<circle cx="129" cy="321" r="3.5"/>
</g>
<path d="M135,393v -28" fill="none" stroke="#ff0000" stroke-width="6"/>
<g stroke="#ff0000" stroke-width="6" fill="#ff0000">
<circle cx="135" cy="396" r="3.5"/>
</g>
<path d="M140,393v -28" fill="none" stroke="#ff0000" stroke-width="6"/>
<g stroke="#ff0000" stroke-width="6" fill="#ff0000">
<circle cx="140" cy="396" r="3.5"/>
</g>
<path d="M145,382v -57" fill="none" stroke="#ff0000" stroke-width="6"/>
<path d="M145,318v -57" fill="none" stroke="#ff0000" stroke-width="6"/>
<g stroke="#ff0000" stroke-width="6" fill="#ff0000">
<circle cx="145" cy="321" r="3.5"/>
</g>
<path d="M150,393v -28" fill="none" stroke="#ff0000" stroke-width="6"/>
<g stroke="#ff0000" stroke-width="6" fill="#ff0000">
<circle cx="150" cy="396" r="3.5"/>
</g>
<path d="M156,382v -57" fill="none" stroke="#ff0000" stroke-width="6"/>
<path d="M156,318v -57" fill="none" stroke="#ff0000" stroke-width="6"/>
<g stroke="#ff0000" stroke-width="6" fill="#ff0000">
<circle cx="156" cy="321" r="3.5"/>
</g>
<path d="M161,239v -64" fill="none" stroke="#ff0000" stroke-width="6"/>
<path d="M161,169v -65" fill="none" stroke="#ff0000" stroke-width="6"/>
<g stroke="#ff0000" stroke-width="6" fill="#ff0000">
<circle cx="161" cy="172" r="3.5"/>
</g>
<path d="M166,393v -28" fill="none" stroke="#ff0000" stroke-width="6"/>
<g stroke="#ff0000" stroke-width="6" fill="#ff0000">
<circle cx="166" cy="396" r="3.5"/>
</g>
<path d="M171,393v -28" fill="none" stroke="#ff0000" stroke-width="6"/>
<g stroke="#ff0000" stroke-width="6" fill="#ff0000">
<circle cx="171" cy="396" r="3.5"/>
</g>
<path d="M177,382v -57" fill="none" stroke="#ff0000" stroke-width="6"/>
<path d="M177,318v -57" fill="none" stroke="#ff0000" stroke-width="6"/>
<g stroke="#ff0000" stroke-width="6" fill="#ff0000">
<circle cx="177" cy="321" r="3.5"/>
</g>
<path d="M182,393v -28" fill="none" stroke="#ff0000" stroke-width="6"/>
<g stroke="#ff0000" stroke-width="6" fill="#ff0000">
<circle cx="182" cy="396" r="3.5"/>
</g>
<path d="M187,314v -64" fill="none" stroke="#ff0000" stroke-width="6"/>
<path d="M187,243v -64" fill="none" stroke="#ff0000" stroke-width="6"/>
<g stroke="#ff0000" stroke-width="6" fill="#ff0000">
<circle cx="187" cy="247" r="3.5"/>
</g>
<path d="M193,393v -28" fill="none" stroke="#ff0000" stroke-width="6"/>
<g stroke="#ff0000" stroke-width="6" fill="#ff0000">
<circle cx="193" cy="396" r="3.5"/>
</g>
<path d="M198,314v -64" fill="none" stroke="#ff0000" stroke-width="6"/>
<path d="M198,243v -64" fill="none" stroke="#ff0000" stroke-width="6"/>
<g stroke="#ff0000" stroke-width="6" fill="#ff0000">
<circle cx="198" cy="247" r="3.5"/>
</g>
<path d="M203,314v -64" fill="none" stroke="#ff0000" stroke-width="6"/>
<path d="M203,243v -64" fill="none" stroke="#ff0000" stroke-width="6"/>
<g stroke="#ff0000" stroke-width="6" fill="#ff0000">
<circle cx="203" cy="247" r="3.5"/>
</g>
<path d="M208,314v -64" fill="none" stroke="#ff0000" stroke-width="6"/>
<path d="M208,243v -64" fill="none" stroke="#ff0000" stroke-width="6"/>
<g stroke="#ff0000" stroke-width="6" fill="#ff0000">
<circle cx="208" cy="247" r="3.5"/>
</g>
<path d="M214,382v -57" fill="none" stroke="#ff0000" stroke-width="6"/>
<path d="M214,318v -57" fill="none" stroke="#ff0000" stroke-width="6"/>
<g stroke="#ff0000" stroke-width="6" fill="#ff0000">
<circle cx="214" cy="321" r="3.5"/>
</g>
<path d="M219,393v -28" fill="none" stroke="#ff0000" stroke-width="6"/>
<g stroke="#ff0000" stroke-width="6" fill="#ff0000">
<circle cx="219" cy="396" r="3.5"/>
</g>
<path d="M224,382v -57" fill="none" stroke="#ff0000" stroke-width="6"/>
<path d="M224,318v -57" fill="none" stroke="#ff0000" stroke-width="6"/>
<g stroke="#ff0000" stroke-width="6" fill="#ff0000">
<circle cx="224" cy="321" r="3.5"/>
</g>
<path d="M229,393v -28" fill="none" stroke="#ff0000" stroke-width="6"/>
<g stroke="#ff0000" stroke-width="6" fill="#ff0000">
<circle cx="229" cy="396" r="3.5"/>
</g>
<path d="M235,393v -28" fill="none" stroke="#ff0000" stroke-width="6"/>
<g stroke="#ff0000" stroke-width="6" fill="#ff0000">
<circle cx="235" cy="396" r="3.5"/>
</g>
<path d="M240,239v -64" fill="none" stroke="#ff0000" stroke-width="6"/>
<path d="M240,169v -65" fill="none" stroke="#ff0000" stroke-width="6"/>
<g stroke="#ff0000" stroke-width="6" fill="#ff0000">
<circle cx="240" cy="172" r="3.5"/>
</g>
<path d="M245,314v -64" fill="none" stroke="#ff0000" stroke-width="6"/>
<path d="M245,243v -64" fill="none" stroke="#ff0000" stroke-width="6"/>
<g stroke="#ff0000" stroke-width="6" fill="#ff0000">
<circle cx="245" cy="247" r="3.5"/>
</g>
<path d="M250,314v -64" fill="none" stroke="#ff0000" stroke-width="6"/>
<path d="M250,243v -64" fill="none" stroke="#ff0000" stroke-width="6"/>
<g stroke="#ff0000" stroke-width="6" fill="#ff0000">
<circle cx="250" cy="247" r="3.5"/>
</g>
<path d="M256,314v -64" fill="none" stroke="#ff0000" stroke-width="6"/>
<path d="M256,243v -64" fill="none" stroke="#ff0000" stroke-width="6"/>
<g stroke="#ff0000" stroke-width="6" fill="#ff0000">
<circle cx="256" cy="247" r="3.5"/>
</g>
<path d="M261,314v -64" fill="none" stroke="#ff0000" stroke-width="6"/>
<path d="M261,243v -64" fill="none" stroke="#ff0000" stroke-width="6"/>
<g stroke="#ff0000" stroke-width="6" fill="#ff0000">
<circle cx="261" cy="247" r="3.5"/>
</g>
<path d="M266,393v -28" fill="none" stroke="#ff0000" stroke-width="6"/>
<g stroke="#ff0000" stroke-width="6" fill="#ff0000">
<circle cx="266" cy="396" r="3.5"/>
</g>
<path d="M272,393v -28" fill="none" stroke="#ff0000" stroke-width="6"/>
<g stroke="#ff0000" stroke-width="6" fill="#ff0000">
<circle cx="272" cy="396" r="3.5"/>
</g>
<path d="M277,382v -57" fill="none" stroke="#ff0000" stroke-width="6"/>
<path d="M277,318v -57" fill="none" stroke="#ff0000" stroke-width="6"/>
<g stroke="#ff0000" stroke-width="6" fill="#ff0000">
<circle cx="277" cy="321" r="3.5"/>
</g>
<path d="M282,393v -28" fill="none" stroke="#ff0000" stroke-width="6"/>
<g stroke="#ff0000" stroke-width="6" fill="#ff0000">
<circle cx="282" cy="396" r="3.5"/>
</g>
<path d="M287,314v -64" fill="none" stroke="#ff0000" stroke-width="6"/>
<path d="M287,243v -64" fill="none" stroke="#ff0000" stroke-width="6"/>
<g stroke="#ff0000" stroke-width="6" fill="#ff0000">
<circle cx="287" cy="247" r="3.5"/>
</g>
<path d="M293,314v -64" fill="none" stroke="#ff0000" stroke-width="6"/>
<path d="M293,243v -64" fill="none" stroke="#ff0000" stroke-width="6"/>
<g stroke="#ff0000" stroke-width="6" fill="#ff0000">
<circle cx="293" cy="247" r="3.5"/>
</g>
<path d="M298,314v -64" fill="none" stroke="#ff0000" stroke-width="6"/>
<path d="M298,243v -64" fill="none" stroke="#ff0000" stroke-width="6"/>
<g stroke="#ff0000" stroke-width="6" fill="#ff0000">
<circle cx="298" cy="247" r="3.5"/>
</g>
<path d="M303,314v -64" fill="none" stroke="#ff0000" stroke-width="6"/>
<path d="M303,243v -64" fill="none" stroke="#ff0000" stroke-width="6"/>
<g stroke="#ff0000" stroke-width="6" fill="#ff0000">
<circle cx="303" cy="247" r="3.5"/>
</g>
<path d="M308,393v -28" fill="none" stroke="#ff0000" stroke-width="6"/>
<g stroke="#ff0000" stroke-width="6" fill="#ff0000">
<circle cx="308" cy="396" r="3.5"/>
</g>
<path d="M314,393v -28" fill="none" stroke="#ff0000" stroke-width="6"/>
<g stroke="#ff0000" stroke-width="6" fill="#ff0000">
<circle cx="314" cy="396" r="3.5"/>
</g>
<path d="M319,382v -57" fill="none" stroke="#ff0000" stroke-width="6"/>
<path d="M319,318v -57" fill="none" stroke="#ff0000" stroke-width="6"/>
<g stroke="#ff0000" stroke-width="6" fill="#ff0000">
<circle cx="319" cy="321" r="3.5"/>
</g>
<path d="M324,393v -28" fill="none" stroke="#ff0000" stroke-width="6"/>
<g stroke="#ff0000" stroke-width="6" fill="#ff0000">
<circle cx="324" cy="396" r="3.5"/>
</g>
<path d="M329,157v -57" fill="none" stroke="#ff0000" stroke-width="6"/>
<path d="M329,94v -57" fill="none" stroke="#ff0000" stroke-width="6"/>
<g stroke="#ff0000" stroke-width="6" fill="#ff0000">
<circle cx="329" cy="97" r="3.5"/>
</g>
<path d="M335,314v -64" fill="none" stroke="#ff0000" stroke-width="6"/>
<path d="M335,243v -64" fill="none" stroke="#ff0000" stroke-width="6"/>
<g stroke="#ff0000" stroke-width="6" fill="#ff0000">
<circle cx="335" cy="247" r="3.5"/>
</g>
<path d="M340,382v -57" fill="none" stroke="#ff0000" stroke-width="6"/>
<path d="M340,318v -57" fill="none" stroke="#ff0000" stroke-width="6"/>
<g stroke="#ff0000" stroke-width="6" fill="#ff0000">
<circle cx="340" cy="321" r="3.5"/>
</g>
<path d="M345,382v -57" fill="none" stroke="#ff0000" stroke-width="6"/>
<path d="M345,318v -57" fill="none" stroke="#ff0000" stroke-width="6"/>
<g stroke="#ff0000" stroke-width="6" fill="#ff0000">
<circle cx="345" cy="321" r="3.5"/>
</g>
<path d="M350,393v -28" fill="none" stroke="#ff0000" stroke-width="6"/>
<g stroke="#ff0000" stroke-width="6" fill="#ff0000">
<circle cx="350" cy="396" r="3.5"/>
</g>
<path d="M356,393v -28" fill="none" stroke="#ff0000" stroke-width="6"/>
<g stroke="#ff0000" stroke-width="6" fill="#ff0000">
<circle cx="356" cy="396" r="3.5"/>
</g>
<path d="M361,314v -64" fill="none" stroke="#ff0000" stroke-width="6"/>
<path d="M361,243v -64" fill="none" stroke="#ff0000" stroke-width="6"/>
<g stroke="#ff0000" stroke-width="6" fill="#ff0000">
<circle cx="361" cy="247" r="3.5"/>
</g>
<path d="M366,314v -64" fill="none" stroke="#ff0000" stroke-width="6"/>
<path d="M366,243v -64" fill="none" stroke="#ff0000" stroke-width="6"/>
<g stroke="#ff0000" stroke-width="6" fill="#ff0000">
<circle cx="366" cy="247" r="3.5"/>
</g>
<path d="M372,382v -57" fill="none" stroke="#ff0000" stroke-width="6"/>
<path d="M372,318v -57" fill="none" stroke="#ff0000" stroke-width="6"/>
<g stroke="#ff0000" stroke-width="6" fill="#ff0000">
<circle cx="372" cy="321" r="3.5"/>
</g>
<path d="M377,393v -28" fill="none" stroke="#ff0000" stroke-width="6"/>
<g stroke="#ff0000" stroke-width="6" fill="#ff0000">
<circle cx="377" cy="396" r="3.5"/>
</g>
<path d="M382,393v -28" fill="none" stroke="#ff0000" stroke-width="6"/>
<g stroke="#ff0000" stroke-width="6" fill="#ff0000">
<circle cx="382" cy="396" r="3.5"/>
</g>
<path d="M387,393v -28" fill="none" stroke="#ff0000" stroke-width="6"/>
<g stroke="#ff0000" stroke-width="6" fill="#ff0000">
<circle cx="387" cy="396" r="3.5"/>
</g>
<path d="M393,393v -28" fill="none" stroke="#ff0000" stroke-width="6"/>
<g stroke="#ff0000" stroke-width="6" fill="#ff0000">
<circle cx="393" cy="396" r="3.5"/>
</g>
<path d="M398,382v -57" fill="none" stroke="#ff0000" stroke-width="6"/>
<path d="M398,318v -57" fill="none" stroke="#ff0000" stroke-width="6"/>
<g stroke="#ff0000" stroke-width="6" fill="#ff0000">
<circle cx="398" cy="321" r="3.5"/>
</g>
<path d="M403,393v -28" fill="none" stroke="#ff0000" stroke-width="6"/>
<g stroke="#ff0000" stroke-width="6" fill="#ff0000">
<circle cx="403" cy="396" r="3.5"/>
</g>
<path d="M408,382v -57" fill="none" stroke="#ff0000" stroke-width="6"/>
<path d="M408,318v -57" fill="none" stroke="#ff0000" stroke-width="6"/>
<g stroke="#ff0000" stroke-width="6" fill="#ff0000">
<circle cx="408" cy="321" r="3.5"/>
</g>
<path d="M414,393v -28" fill="none" stroke="#ff0000" stroke-width="6"/>
<g stroke="#ff0000" stroke-width="6" fill="#ff0000">
<circle cx="414" cy="396" r="3.5"/>
</g>
<path d="M419,314v -64" fill="none" stroke="#ff0000" stroke-width="6"/>
<path d="M419,243v -64" fill="none" stroke="#ff0000" stroke-width="6"/>
<g stroke="#ff0000" stroke-width="6" fill="#ff0000">
<circle cx="419" cy="247" r="3.5"/>
</g>
<path d="M424,393v -28" fill="none" stroke="#ff0000" stroke-width="6"/>
<g stroke="#ff0000" stroke-width="6" fill="#ff0000">
<circle cx="424" cy="396" r="3.5"/>
</g>
<path d="M429,382v -57" fill="none" stroke="#ff0000" stroke-width="6"/>
<path d="M429,318v -57" fill="none" stroke="#ff0000" stroke-width="6"/>
<g stroke="#ff0000" stroke-width="6" fill="#ff0000">
<circle cx="429" cy="321" r="3.5"/>
</g>
<path d="M435,393v -28" fill="none" stroke="#ff0000" stroke-width="6"/>
<g stroke="#ff0000" stroke-width="6" fill="#ff0000">
<circle cx="435" cy="396" r="3.5"/>
</g>
<path d="M440,382v -57" fill="none" stroke="#ff0000" stroke-width="6"/>
<path d="M440,318v -57" fill="none" stroke="#ff0000" stroke-width="6"/>
<g stroke="#ff0000" stroke-width="6" fill="#ff0000">
<circle cx="440" cy="321" r="3.5"/>
</g>
<path d="M445,314v -64" fill="none" stroke="#ff0000" stroke-width="6"/>
<path d="M445,243v -64" fill="none" stroke="#ff0000" stroke-width="6"/>
<g stroke="#ff0000" stroke-width="6" fill="#ff0000">
<circle cx="445" cy="247" r="3.5"/>
</g>
<path d="M451,393v -28" fill="none" stroke="#ff0000" stroke-width="6"/>
<g stroke="#ff0000" stroke-width="6" fill="#ff0000">
<circle cx="451" cy="396" r="3.5"/>
</g>
<path d="M456,393v -28" fill="none" stroke="#ff0000" stroke-width="6"/>
<g stroke="#ff0000" stroke-width="6" fill="#ff0000">
<circle cx="456" cy="396" r="3.5"/>
</g>
<path d="M461,314v -64" fill="none" stroke="#ff0000" stroke-width="6"/>
<path d="M461,243v -64" fill="none" stroke="#ff0000" stroke-width="6"/>
<g stroke="#ff0000" stroke-width="6" fill="#ff0000">
<circle cx="461" cy="247" r="3.5"/>
</g>
<path d="M466,393v -28" fill="none" stroke="#ff0000" stroke-width="6"/>
<g stroke="#ff0000" stroke-width="6" fill="#ff0000">
<circle cx="466" cy="396" r="3.5"/>
</g>
<path d="M472,393v -28" fill="none" stroke="#ff0000" stroke-width="6"/>
<g stroke="#ff0000" stroke-width="6" fill="#ff0000">
<circle cx="472" cy="396" r="3.5"/>
</g>
<path d="M477,393v -28" fill="none" stroke="#ff0000" stroke-width="6"/>
<g stroke="#ff0000" stroke-width="6" fill="#ff0000">
<circle cx="477" cy="396" r="3.5"/>
</g>
<path d="M482,382v -57" fill="none" stroke="#ff0000" stroke-width="6"/>
<path d="M482,318v -57" fill="none" stroke="#ff0000" stroke-width="6"/>
<g stroke="#ff0000" stroke-width="6" fill="#ff0000">
<circle cx="482" cy="321" r="3.5"/>
</g>
<path d="M487,239v -64" fill="none" stroke="#ff0000" stroke-width="6"/>
<path d="M487,169v -65" fill="none" stroke="#ff0000" stroke-width="6"/>
<g stroke="#ff0000" stroke-width="6" fill="#ff0000">
<circle cx="487" cy="172" r="3.5"/>
</g>
<path d="M493,314v -64" fill="none" stroke="#ff0000" stroke-width="6"/>
<path d="M493,243v -64" fill="none" stroke="#ff0000" stroke-width="6"/>
<g stroke="#ff0000" stroke-width="6" fill="#ff0000">
<circle cx="493" cy="247" r="3.5"/>
</g>
<path d="M498,393v -28" fill="none" stroke="#ff0000" stroke-width="6"/>
<g stroke="#ff0000" stroke-width="6" fill="#ff0000">
<circle cx="498" cy="396" r="3.5"/>
</g>
<path d="M503,393v -28" fill="none" stroke="#ff0000" stroke-width="6"/>
<g stroke="#ff0000" stroke-width="6" fill="#ff0000">
<circle cx="503" cy="396" r="3.5"/>
</g>
<path d="M508,393v -28" fill="none" stroke="#ff0000" stroke-width="6"/>
<g stroke="#ff0000" stroke-width="6" fill="#ff0000">
<circle cx="508" cy="396" r="3.5"/>
</g>
<path d="M514,393v -28" fill="none" stroke="#ff0000" stroke-width="6"/>
<g stroke="#ff0000" stroke-width="6" fill="#ff0000">
<circle cx="514" cy="396" r="3.5"/>
</g>
<path d="M519,393v -34" fill="none" stroke="#ff0000" stroke-width="6"/>
<g stroke="#ff0000" stroke-width="6" fill="#ff0000">
<circle cx="519" cy="396" r="3.5"/>
</g>
<path d="M332,107h 42" fill="none" stroke="#ff0000" stroke-width="6"/>
<path d="M466,426v -179" fill="none" stroke="black" stroke-width="3" stroke-dasharray=" 3, 3"/>
<rect x="113" y="-4" width="328" height="38" fill="white"/>
<text x="139" y="24" fill="black" font-size="30" font-family="Helvetica" font-weight="bold">
IGHV1-69D_star_01
</text></svg>
