<?xml version="1.0" standalone="no"?>
<svg width="567" height="466" viewBox="0 0 567 466" xmlns="http://www.w3.org/2000/svg">
<title>
/bbx/output/_plots/example/sw/mute-freqs/v/plots/IGHV3-74_star_03.svg
</title>
<desc>
Creator: ROOT Version 5.34/14
CreationDate: Wed Aug 19 19:38:09 2015</desc>
<defs>
</defs>
<rect x="0" y="0" width="567" height="466" fill="white"/>
<rect x="79" y="37" width="443" height="359" fill="none" stroke="black"/>
<rect x="79" y="37" width="443" height="359" fill="none" stroke="black"/>
<path d="M79,396h 443" fill="none" stroke="black" stroke-width="3"/>
<path d="M195,385v 11" fill="none" stroke="black" stroke-width="3"/>
<path d="M226,391v 5" fill="none" stroke="black" stroke-width="3"/>
<path d="M257,391v 5" fill="none" stroke="black" stroke-width="3"/>
<path d="M288,391v 5" fill="none" stroke="black" stroke-width="3"/>
<path d="M319,385v 11" fill="none" stroke="black" stroke-width="3"/>
<path d="M350,391v 5" fill="none" stroke="black" stroke-width="3"/>
<path d="M381,391v 5" fill="none" stroke="black" stroke-width="3"/>
<path d="M413,391v 5" fill="none" stroke="black" stroke-width="3"/>
<path d="M444,385v 11" fill="none" stroke="black" stroke-width="3"/>
<path d="M195,385v 11" fill="none" stroke="black" stroke-width="3"/>
<path d="M163,391v 5" fill="none" stroke="black" stroke-width="3"/>
<path d="M132,391v 5" fill="none" stroke="black" stroke-width="3"/>
<path d="M101,391v 5" fill="none" stroke="black" stroke-width="3"/>
<path d="M444,385v 11" fill="none" stroke="black" stroke-width="3"/>
<path d="M475,391v 5" fill="none" stroke="black" stroke-width="3"/>
<path d="M506,391v 5" fill="none" stroke="black" stroke-width="3"/>
<text x="178" y="416" fill="black" font-size="21" font-family="Times" font-weight="bold">
240
</text>
<text x="302" y="416" fill="black" font-size="21" font-family="Times" font-weight="bold">
260
</text>
<text x="427" y="416" fill="black" font-size="21" font-family="Times" font-weight="bold">
280
</text>
<path d="M79,37h 443" fill="none" stroke="black" stroke-width="3"/>
<path d="M195,48v -11" fill="none" stroke="black" stroke-width="3"/>
<path d="M226,43v -6" fill="none" stroke="black" stroke-width="3"/>
<path d="M257,43v -6" fill="none" stroke="black" stroke-width="3"/>
<path d="M288,43v -6" fill="none" stroke="black" stroke-width="3"/>
<path d="M319,48v -11" fill="none" stroke="black" stroke-width="3"/>
<path d="M350,43v -6" fill="none" stroke="black" stroke-width="3"/>
<path d="M381,43v -6" fill="none" stroke="black" stroke-width="3"/>
<path d="M413,43v -6" fill="none" stroke="black" stroke-width="3"/>
<path d="M444,48v -11" fill="none" stroke="black" stroke-width="3"/>
<path d="M195,48v -11" fill="none" stroke="black" stroke-width="3"/>
<path d="M163,43v -6" fill="none" stroke="black" stroke-width="3"/>
<path d="M132,43v -6" fill="none" stroke="black" stroke-width="3"/>
<path d="M101,43v -6" fill="none" stroke="black" stroke-width="3"/>
<path d="M444,48v -11" fill="none" stroke="black" stroke-width="3"/>
<path d="M475,43v -6" fill="none" stroke="black" stroke-width="3"/>
<path d="M506,43v -6" fill="none" stroke="black" stroke-width="3"/>
<path d="M79,396v -359" fill="none" stroke="black" stroke-width="3"/>
<path d="M92,396h -13" fill="none" stroke="black" stroke-width="3"/>
<path d="M86,366h -7" fill="none" stroke="black" stroke-width="3"/>
<path d="M86,336h -7" fill="none" stroke="black" stroke-width="3"/>
<path d="M86,306h -7" fill="none" stroke="black" stroke-width="3"/>
<path d="M86,277h -7" fill="none" stroke="black" stroke-width="3"/>
<path d="M92,247h -13" fill="none" stroke="black" stroke-width="3"/>
<path d="M86,217h -7" fill="none" stroke="black" stroke-width="3"/>
<path d="M86,187h -7" fill="none" stroke="black" stroke-width="3"/>
<path d="M86,157h -7" fill="none" stroke="black" stroke-width="3"/>
<path d="M86,127h -7" fill="none" stroke="black" stroke-width="3"/>
<path d="M92,97h -13" fill="none" stroke="black" stroke-width="3"/>
<path d="M92,97h -13" fill="none" stroke="black" stroke-width="3"/>
<path d="M86,67h -7" fill="none" stroke="black" stroke-width="3"/>
<path d="M86,37h -7" fill="none" stroke="black" stroke-width="3"/>
<text x="46" y="404" fill="black" font-size="21" font-family="Times" font-weight="bold">
0.0
</text>
<text x="46" y="254" fill="black" font-size="21" font-family="Times" font-weight="bold">
0.5
</text>
<text x="46" y="105" fill="black" font-size="21" font-family="Times" font-weight="bold">
1.0
</text>
<path d="M522,396v -359" fill="none" stroke="black" stroke-width="3"/>
<path d="M508,396h 14" fill="none" stroke="black" stroke-width="3"/>
<path d="M515,366h 7" fill="none" stroke="black" stroke-width="3"/>
<path d="M515,336h 7" fill="none" stroke="black" stroke-width="3"/>
<path d="M515,306h 7" fill="none" stroke="black" stroke-width="3"/>
<path d="M515,277h 7" fill="none" stroke="black" stroke-width="3"/>
<path d="M508,247h 14" fill="none" stroke="black" stroke-width="3"/>
<path d="M515,217h 7" fill="none" stroke="black" stroke-width="3"/>
<path d="M515,187h 7" fill="none" stroke="black" stroke-width="3"/>
<path d="M515,157h 7" fill="none" stroke="black" stroke-width="3"/>
<path d="M515,127h 7" fill="none" stroke="black" stroke-width="3"/>
<path d="M508,97h 14" fill="none" stroke="black" stroke-width="3"/>
<path d="M508,97h 14" fill="none" stroke="black" stroke-width="3"/>
<path d="M515,67h 7" fill="none" stroke="black" stroke-width="3"/>
<path d="M515,37h 7" fill="none" stroke="black" stroke-width="3"/>
<rect x="113" y="-4" width="303" height="38" fill="white"/>
<text x="135" y="24" fill="black" font-size="30" font-family="Helvetica" font-weight="bold">
IGHV3-74_star_03
</text>
<path d="M82,393v -60" fill="none" stroke="#ff0000" stroke-width="6"/>
<g stroke="#ff0000" stroke-width="6" fill="#ff0000">
<circle cx="82" cy="396" r="3.5"/>
</g>
<path d="M89,393v -60" fill="none" stroke="#ff0000" stroke-width="6"/>
<g stroke="#ff0000" stroke-width="6" fill="#ff0000">
<circle cx="89" cy="396" r="3.5"/>
</g>
<path d="M95,393v -60" fill="none" stroke="#ff0000" stroke-width="6"/>
<g stroke="#ff0000" stroke-width="6" fill="#ff0000">
<circle cx="95" cy="396" r="3.5"/>
</g>
<path d="M101,393v -60" fill="none" stroke="#ff0000" stroke-width="6"/>
<g stroke="#ff0000" stroke-width="6" fill="#ff0000">
<circle cx="101" cy="396" r="3.5"/>
</g>
<path d="M107,393v -60" fill="none" stroke="#ff0000" stroke-width="6"/>
<g stroke="#ff0000" stroke-width="6" fill="#ff0000">
<circle cx="107" cy="396" r="3.5"/>
</g>
<path d="M114,393v -60" fill="none" stroke="#ff0000" stroke-width="6"/>
<g stroke="#ff0000" stroke-width="6" fill="#ff0000">
<circle cx="114" cy="396" r="3.5"/>
</g>
<path d="M120,393v -60" fill="none" stroke="#ff0000" stroke-width="6"/>
<g stroke="#ff0000" stroke-width="6" fill="#ff0000">
<circle cx="120" cy="396" r="3.5"/>
</g>
<path d="M126,393v -60" fill="none" stroke="#ff0000" stroke-width="6"/>
<g stroke="#ff0000" stroke-width="6" fill="#ff0000">
<circle cx="126" cy="396" r="3.5"/>
</g>
<path d="M132,393v -60" fill="none" stroke="#ff0000" stroke-width="6"/>
<g stroke="#ff0000" stroke-width="6" fill="#ff0000">
<circle cx="132" cy="396" r="3.5"/>
</g>
<path d="M139,160v -60" fill="none" stroke="#ff0000" stroke-width="6"/>
<path d="M139,94v -57" fill="none" stroke="#ff0000" stroke-width="6"/>
<g stroke="#ff0000" stroke-width="6" fill="#ff0000">
<circle cx="139" cy="97" r="3.5"/>
</g>
<path d="M145,393v -60" fill="none" stroke="#ff0000" stroke-width="6"/>
<g stroke="#ff0000" stroke-width="6" fill="#ff0000">
<circle cx="145" cy="396" r="3.5"/>
</g>
<path d="M151,393v -60" fill="none" stroke="#ff0000" stroke-width="6"/>
<g stroke="#ff0000" stroke-width="6" fill="#ff0000">
<circle cx="151" cy="396" r="3.5"/>
</g>
<path d="M157,393v -60" fill="none" stroke="#ff0000" stroke-width="6"/>
<g stroke="#ff0000" stroke-width="6" fill="#ff0000">
<circle cx="157" cy="396" r="3.5"/>
</g>
<path d="M163,393v -60" fill="none" stroke="#ff0000" stroke-width="6"/>
<g stroke="#ff0000" stroke-width="6" fill="#ff0000">
<circle cx="163" cy="396" r="3.5"/>
</g>
<path d="M170,160v -60" fill="none" stroke="#ff0000" stroke-width="6"/>
<path d="M170,94v -57" fill="none" stroke="#ff0000" stroke-width="6"/>
<g stroke="#ff0000" stroke-width="6" fill="#ff0000">
<circle cx="170" cy="97" r="3.5"/>
</g>
<path d="M176,393v -60" fill="none" stroke="#ff0000" stroke-width="6"/>
<g stroke="#ff0000" stroke-width="6" fill="#ff0000">
<circle cx="176" cy="396" r="3.5"/>
</g>
<path d="M182,393v -60" fill="none" stroke="#ff0000" stroke-width="6"/>
<g stroke="#ff0000" stroke-width="6" fill="#ff0000">
<circle cx="182" cy="396" r="3.5"/>
</g>
<path d="M188,393v -60" fill="none" stroke="#ff0000" stroke-width="6"/>
<g stroke="#ff0000" stroke-width="6" fill="#ff0000">
<circle cx="188" cy="396" r="3.5"/>
</g>
<path d="M195,393v -60" fill="none" stroke="#ff0000" stroke-width="6"/>
<g stroke="#ff0000" stroke-width="6" fill="#ff0000">
<circle cx="195" cy="396" r="3.5"/>
</g>
<path d="M201,393v -60" fill="none" stroke="#ff0000" stroke-width="6"/>
<g stroke="#ff0000" stroke-width="6" fill="#ff0000">
<circle cx="201" cy="396" r="3.5"/>
</g>
<path d="M207,393v -60" fill="none" stroke="#ff0000" stroke-width="6"/>
<g stroke="#ff0000" stroke-width="6" fill="#ff0000">
<circle cx="207" cy="396" r="3.5"/>
</g>
<path d="M213,393v -60" fill="none" stroke="#ff0000" stroke-width="6"/>
<g stroke="#ff0000" stroke-width="6" fill="#ff0000">
<circle cx="213" cy="396" r="3.5"/>
</g>
<path d="M220,393v -60" fill="none" stroke="#ff0000" stroke-width="6"/>
<g stroke="#ff0000" stroke-width="6" fill="#ff0000">
<circle cx="220" cy="396" r="3.5"/>
</g>
<path d="M226,393v -60" fill="none" stroke="#ff0000" stroke-width="6"/>
<g stroke="#ff0000" stroke-width="6" fill="#ff0000">
<circle cx="226" cy="396" r="3.5"/>
</g>
<path d="M232,393v -60" fill="none" stroke="#ff0000" stroke-width="6"/>
<g stroke="#ff0000" stroke-width="6" fill="#ff0000">
<circle cx="232" cy="396" r="3.5"/>
</g>
<path d="M238,393v -60" fill="none" stroke="#ff0000" stroke-width="6"/>
<g stroke="#ff0000" stroke-width="6" fill="#ff0000">
<circle cx="238" cy="396" r="3.5"/>
</g>
<path d="M244,393v -60" fill="none" stroke="#ff0000" stroke-width="6"/>
<g stroke="#ff0000" stroke-width="6" fill="#ff0000">
<circle cx="244" cy="396" r="3.5"/>
</g>
<path d="M251,393v -60" fill="none" stroke="#ff0000" stroke-width="6"/>
<g stroke="#ff0000" stroke-width="6" fill="#ff0000">
<circle cx="251" cy="396" r="3.5"/>
</g>
<path d="M257,160v -60" fill="none" stroke="#ff0000" stroke-width="6"/>
<path d="M257,94v -57" fill="none" stroke="#ff0000" stroke-width="6"/>
<g stroke="#ff0000" stroke-width="6" fill="#ff0000">
<circle cx="257" cy="97" r="3.5"/>
</g>
<path d="M263,393v -60" fill="none" stroke="#ff0000" stroke-width="6"/>
<g stroke="#ff0000" stroke-width="6" fill="#ff0000">
<circle cx="263" cy="396" r="3.5"/>
</g>
<path d="M269,393v -60" fill="none" stroke="#ff0000" stroke-width="6"/>
<g stroke="#ff0000" stroke-width="6" fill="#ff0000">
<circle cx="269" cy="396" r="3.5"/>
</g>
<path d="M276,393v -60" fill="none" stroke="#ff0000" stroke-width="6"/>
<g stroke="#ff0000" stroke-width="6" fill="#ff0000">
<circle cx="276" cy="396" r="3.5"/>
</g>
<path d="M282,160v -60" fill="none" stroke="#ff0000" stroke-width="6"/>
<path d="M282,94v -57" fill="none" stroke="#ff0000" stroke-width="6"/>
<g stroke="#ff0000" stroke-width="6" fill="#ff0000">
<circle cx="282" cy="97" r="3.5"/>
</g>
<path d="M288,393v -60" fill="none" stroke="#ff0000" stroke-width="6"/>
<g stroke="#ff0000" stroke-width="6" fill="#ff0000">
<circle cx="288" cy="396" r="3.5"/>
</g>
<path d="M294,393v -60" fill="none" stroke="#ff0000" stroke-width="6"/>
<g stroke="#ff0000" stroke-width="6" fill="#ff0000">
<circle cx="294" cy="396" r="3.5"/>
</g>
<path d="M300,393v -60" fill="none" stroke="#ff0000" stroke-width="6"/>
<g stroke="#ff0000" stroke-width="6" fill="#ff0000">
<circle cx="300" cy="396" r="3.5"/>
</g>
<path d="M307,393v -60" fill="none" stroke="#ff0000" stroke-width="6"/>
<g stroke="#ff0000" stroke-width="6" fill="#ff0000">
<circle cx="307" cy="396" r="3.5"/>
</g>
<path d="M313,393v -60" fill="none" stroke="#ff0000" stroke-width="6"/>
<g stroke="#ff0000" stroke-width="6" fill="#ff0000">
<circle cx="313" cy="396" r="3.5"/>
</g>
<path d="M319,393v -60" fill="none" stroke="#ff0000" stroke-width="6"/>
<g stroke="#ff0000" stroke-width="6" fill="#ff0000">
<circle cx="319" cy="396" r="3.5"/>
</g>
<path d="M325,393v -60" fill="none" stroke="#ff0000" stroke-width="6"/>
<g stroke="#ff0000" stroke-width="6" fill="#ff0000">
<circle cx="325" cy="396" r="3.5"/>
</g>
<path d="M332,393v -60" fill="none" stroke="#ff0000" stroke-width="6"/>
<g stroke="#ff0000" stroke-width="6" fill="#ff0000">
<circle cx="332" cy="396" r="3.5"/>
</g>
<path d="M338,393v -60" fill="none" stroke="#ff0000" stroke-width="6"/>
<g stroke="#ff0000" stroke-width="6" fill="#ff0000">
<circle cx="338" cy="396" r="3.5"/>
</g>
<path d="M344,393v -60" fill="none" stroke="#ff0000" stroke-width="6"/>
<g stroke="#ff0000" stroke-width="6" fill="#ff0000">
<circle cx="344" cy="396" r="3.5"/>
</g>
<path d="M350,393v -60" fill="none" stroke="#ff0000" stroke-width="6"/>
<g stroke="#ff0000" stroke-width="6" fill="#ff0000">
<circle cx="350" cy="396" r="3.5"/>
</g>
<path d="M357,160v -60" fill="none" stroke="#ff0000" stroke-width="6"/>
<path d="M357,94v -57" fill="none" stroke="#ff0000" stroke-width="6"/>
<g stroke="#ff0000" stroke-width="6" fill="#ff0000">
<circle cx="357" cy="97" r="3.5"/>
</g>
<path d="M363,393v -60" fill="none" stroke="#ff0000" stroke-width="6"/>
<g stroke="#ff0000" stroke-width="6" fill="#ff0000">
<circle cx="363" cy="396" r="3.5"/>
</g>
<path d="M369,393v -60" fill="none" stroke="#ff0000" stroke-width="6"/>
<g stroke="#ff0000" stroke-width="6" fill="#ff0000">
<circle cx="369" cy="396" r="3.5"/>
</g>
<path d="M375,393v -60" fill="none" stroke="#ff0000" stroke-width="6"/>
<g stroke="#ff0000" stroke-width="6" fill="#ff0000">
<circle cx="375" cy="396" r="3.5"/>
</g>
<path d="M381,160v -60" fill="none" stroke="#ff0000" stroke-width="6"/>
<path d="M381,94v -57" fill="none" stroke="#ff0000" stroke-width="6"/>
<g stroke="#ff0000" stroke-width="6" fill="#ff0000">
<circle cx="381" cy="97" r="3.5"/>
</g>
<path d="M388,160v -60" fill="none" stroke="#ff0000" stroke-width="6"/>
<path d="M388,94v -57" fill="none" stroke="#ff0000" stroke-width="6"/>
<g stroke="#ff0000" stroke-width="6" fill="#ff0000">
<circle cx="388" cy="97" r="3.5"/>
</g>
<path d="M394,393v -60" fill="none" stroke="#ff0000" stroke-width="6"/>
<g stroke="#ff0000" stroke-width="6" fill="#ff0000">
<circle cx="394" cy="396" r="3.5"/>
</g>
<path d="M400,393v -60" fill="none" stroke="#ff0000" stroke-width="6"/>
<g stroke="#ff0000" stroke-width="6" fill="#ff0000">
<circle cx="400" cy="396" r="3.5"/>
</g>
<path d="M406,160v -60" fill="none" stroke="#ff0000" stroke-width="6"/>
<path d="M406,94v -57" fill="none" stroke="#ff0000" stroke-width="6"/>
<g stroke="#ff0000" stroke-width="6" fill="#ff0000">
<circle cx="406" cy="97" r="3.5"/>
</g>
<path d="M413,393v -60" fill="none" stroke="#ff0000" stroke-width="6"/>
<g stroke="#ff0000" stroke-width="6" fill="#ff0000">
<circle cx="413" cy="396" r="3.5"/>
</g>
<path d="M419,160v -60" fill="none" stroke="#ff0000" stroke-width="6"/>
<path d="M419,94v -57" fill="none" stroke="#ff0000" stroke-width="6"/>
<g stroke="#ff0000" stroke-width="6" fill="#ff0000">
<circle cx="419" cy="97" r="3.5"/>
</g>
<path d="M425,393v -60" fill="none" stroke="#ff0000" stroke-width="6"/>
<g stroke="#ff0000" stroke-width="6" fill="#ff0000">
<circle cx="425" cy="396" r="3.5"/>
</g>
<path d="M431,393v -60" fill="none" stroke="#ff0000" stroke-width="6"/>
<g stroke="#ff0000" stroke-width="6" fill="#ff0000">
<circle cx="431" cy="396" r="3.5"/>
</g>
<path d="M437,393v -60" fill="none" stroke="#ff0000" stroke-width="6"/>
<g stroke="#ff0000" stroke-width="6" fill="#ff0000">
<circle cx="437" cy="396" r="3.5"/>
</g>
<path d="M444,393v -60" fill="none" stroke="#ff0000" stroke-width="6"/>
<g stroke="#ff0000" stroke-width="6" fill="#ff0000">
<circle cx="444" cy="396" r="3.5"/>
</g>
<path d="M450,393v -60" fill="none" stroke="#ff0000" stroke-width="6"/>
<g stroke="#ff0000" stroke-width="6" fill="#ff0000">
<circle cx="450" cy="396" r="3.5"/>
</g>
<path d="M456,393v -60" fill="none" stroke="#ff0000" stroke-width="6"/>
<g stroke="#ff0000" stroke-width="6" fill="#ff0000">
<circle cx="456" cy="396" r="3.5"/>
</g>
<path d="M462,393v -60" fill="none" stroke="#ff0000" stroke-width="6"/>
<g stroke="#ff0000" stroke-width="6" fill="#ff0000">
<circle cx="462" cy="396" r="3.5"/>
</g>
<path d="M469,393v -60" fill="none" stroke="#ff0000" stroke-width="6"/>
<g stroke="#ff0000" stroke-width="6" fill="#ff0000">
<circle cx="469" cy="396" r="3.5"/>
</g>
<path d="M475,393v -60" fill="none" stroke="#ff0000" stroke-width="6"/>
<g stroke="#ff0000" stroke-width="6" fill="#ff0000">
<circle cx="475" cy="396" r="3.5"/>
</g>
<path d="M481,393v -60" fill="none" stroke="#ff0000" stroke-width="6"/>
<g stroke="#ff0000" stroke-width="6" fill="#ff0000">
<circle cx="481" cy="396" r="3.5"/>
</g>
<path d="M487,393v -60" fill="none" stroke="#ff0000" stroke-width="6"/>
<g stroke="#ff0000" stroke-width="6" fill="#ff0000">
<circle cx="487" cy="396" r="3.5"/>
</g>
<path d="M494,160v -60" fill="none" stroke="#ff0000" stroke-width="6"/>
<path d="M494,94v -57" fill="none" stroke="#ff0000" stroke-width="6"/>
<g stroke="#ff0000" stroke-width="6" fill="#ff0000">
<circle cx="494" cy="97" r="3.5"/>
</g>
<path d="M500,393v -60" fill="none" stroke="#ff0000" stroke-width="6"/>
<g stroke="#ff0000" stroke-width="6" fill="#ff0000">
<circle cx="500" cy="396" r="3.5"/>
</g>
<path d="M506,393v -60" fill="none" stroke="#ff0000" stroke-width="6"/>
<g stroke="#ff0000" stroke-width="6" fill="#ff0000">
<circle cx="506" cy="396" r="3.5"/>
</g>
<path d="M512,393v -60" fill="none" stroke="#ff0000" stroke-width="6"/>
<g stroke="#ff0000" stroke-width="6" fill="#ff0000">
<circle cx="512" cy="396" r="3.5"/>
</g>
<path d="M518,393v -60" fill="none" stroke="#ff0000" stroke-width="6"/>
<g stroke="#ff0000" stroke-width="6" fill="#ff0000">
<circle cx="518" cy="396" r="3.5"/>
</g>
<path d="M332,107h 42" fill="none" stroke="#ff0000" stroke-width="6"/>
<path d="M475,426v -179" fill="none" stroke="black" stroke-width="3" stroke-dasharray=" 3, 3"/>
<rect x="113" y="-4" width="303" height="38" fill="white"/>
<text x="135" y="24" fill="black" font-size="30" font-family="Helvetica" font-weight="bold">
IGHV3-74_star_03
</text></svg>
