<?xml version="1.0" standalone="no"?>
<svg width="567" height="466" viewBox="0 0 567 466" xmlns="http://www.w3.org/2000/svg">
<title>
/bbx/output/_plots/example/sw/mute-freqs/v/plots/IGHV3-7_star_02.svg
</title>
<desc>
Creator: ROOT Version 5.34/14
CreationDate: Wed Aug 19 19:38:09 2015</desc>
<defs>
</defs>
<rect x="0" y="0" width="567" height="466" fill="white"/>
<rect x="79" y="37" width="443" height="359" fill="none" stroke="black"/>
<rect x="79" y="37" width="443" height="359" fill="none" stroke="black"/>
<path d="M79,396h 443" fill="none" stroke="black" stroke-width="3"/>
<path d="M95,385v 11" fill="none" stroke="black" stroke-width="3"/>
<path d="M118,391v 5" fill="none" stroke="black" stroke-width="3"/>
<path d="M141,391v 5" fill="none" stroke="black" stroke-width="3"/>
<path d="M164,391v 5" fill="none" stroke="black" stroke-width="3"/>
<path d="M187,385v 11" fill="none" stroke="black" stroke-width="3"/>
<path d="M209,391v 5" fill="none" stroke="black" stroke-width="3"/>
<path d="M232,391v 5" fill="none" stroke="black" stroke-width="3"/>
<path d="M255,391v 5" fill="none" stroke="black" stroke-width="3"/>
<path d="M278,385v 11" fill="none" stroke="black" stroke-width="3"/>
<path d="M300,391v 5" fill="none" stroke="black" stroke-width="3"/>
<path d="M323,391v 5" fill="none" stroke="black" stroke-width="3"/>
<path d="M346,391v 5" fill="none" stroke="black" stroke-width="3"/>
<path d="M369,385v 11" fill="none" stroke="black" stroke-width="3"/>
<path d="M392,391v 5" fill="none" stroke="black" stroke-width="3"/>
<path d="M414,391v 5" fill="none" stroke="black" stroke-width="3"/>
<path d="M437,391v 5" fill="none" stroke="black" stroke-width="3"/>
<path d="M460,385v 11" fill="none" stroke="black" stroke-width="3"/>
<path d="M95,385v 11" fill="none" stroke="black" stroke-width="3"/>
<path d="M460,385v 11" fill="none" stroke="black" stroke-width="3"/>
<path d="M483,391v 5" fill="none" stroke="black" stroke-width="3"/>
<path d="M506,391v 5" fill="none" stroke="black" stroke-width="3"/>
<text x="79" y="416" fill="black" font-size="21" font-family="Times" font-weight="bold">
200
</text>
<text x="169" y="416" fill="black" font-size="21" font-family="Times" font-weight="bold">
220
</text>
<text x="261" y="416" fill="black" font-size="21" font-family="Times" font-weight="bold">
240
</text>
<text x="352" y="416" fill="black" font-size="21" font-family="Times" font-weight="bold">
260
</text>
<text x="443" y="416" fill="black" font-size="21" font-family="Times" font-weight="bold">
280
</text>
<path d="M79,37h 443" fill="none" stroke="black" stroke-width="3"/>
<path d="M95,48v -11" fill="none" stroke="black" stroke-width="3"/>
<path d="M118,43v -6" fill="none" stroke="black" stroke-width="3"/>
<path d="M141,43v -6" fill="none" stroke="black" stroke-width="3"/>
<path d="M164,43v -6" fill="none" stroke="black" stroke-width="3"/>
<path d="M187,48v -11" fill="none" stroke="black" stroke-width="3"/>
<path d="M209,43v -6" fill="none" stroke="black" stroke-width="3"/>
<path d="M232,43v -6" fill="none" stroke="black" stroke-width="3"/>
<path d="M255,43v -6" fill="none" stroke="black" stroke-width="3"/>
<path d="M278,48v -11" fill="none" stroke="black" stroke-width="3"/>
<path d="M300,43v -6" fill="none" stroke="black" stroke-width="3"/>
<path d="M323,43v -6" fill="none" stroke="black" stroke-width="3"/>
<path d="M346,43v -6" fill="none" stroke="black" stroke-width="3"/>
<path d="M369,48v -11" fill="none" stroke="black" stroke-width="3"/>
<path d="M392,43v -6" fill="none" stroke="black" stroke-width="3"/>
<path d="M414,43v -6" fill="none" stroke="black" stroke-width="3"/>
<path d="M437,43v -6" fill="none" stroke="black" stroke-width="3"/>
<path d="M460,48v -11" fill="none" stroke="black" stroke-width="3"/>
<path d="M95,48v -11" fill="none" stroke="black" stroke-width="3"/>
<path d="M460,48v -11" fill="none" stroke="black" stroke-width="3"/>
<path d="M483,43v -6" fill="none" stroke="black" stroke-width="3"/>
<path d="M506,43v -6" fill="none" stroke="black" stroke-width="3"/>
<path d="M79,396v -359" fill="none" stroke="black" stroke-width="3"/>
<path d="M92,396h -13" fill="none" stroke="black" stroke-width="3"/>
<path d="M86,366h -7" fill="none" stroke="black" stroke-width="3"/>
<path d="M86,336h -7" fill="none" stroke="black" stroke-width="3"/>
<path d="M86,306h -7" fill="none" stroke="black" stroke-width="3"/>
<path d="M86,277h -7" fill="none" stroke="black" stroke-width="3"/>
<path d="M92,247h -13" fill="none" stroke="black" stroke-width="3"/>
<path d="M86,217h -7" fill="none" stroke="black" stroke-width="3"/>
<path d="M86,187h -7" fill="none" stroke="black" stroke-width="3"/>
<path d="M86,157h -7" fill="none" stroke="black" stroke-width="3"/>
<path d="M86,127h -7" fill="none" stroke="black" stroke-width="3"/>
<path d="M92,97h -13" fill="none" stroke="black" stroke-width="3"/>
<path d="M92,97h -13" fill="none" stroke="black" stroke-width="3"/>
<path d="M86,67h -7" fill="none" stroke="black" stroke-width="3"/>
<path d="M86,37h -7" fill="none" stroke="black" stroke-width="3"/>
<text x="46" y="404" fill="black" font-size="21" font-family="Times" font-weight="bold">
0.0
</text>
<text x="46" y="254" fill="black" font-size="21" font-family="Times" font-weight="bold">
0.5
</text>
<text x="46" y="105" fill="black" font-size="21" font-family="Times" font-weight="bold">
1.0
</text>
<path d="M522,396v -359" fill="none" stroke="black" stroke-width="3"/>
<path d="M508,396h 14" fill="none" stroke="black" stroke-width="3"/>
<path d="M515,366h 7" fill="none" stroke="black" stroke-width="3"/>
<path d="M515,336h 7" fill="none" stroke="black" stroke-width="3"/>
<path d="M515,306h 7" fill="none" stroke="black" stroke-width="3"/>
<path d="M515,277h 7" fill="none" stroke="black" stroke-width="3"/>
<path d="M508,247h 14" fill="none" stroke="black" stroke-width="3"/>
<path d="M515,217h 7" fill="none" stroke="black" stroke-width="3"/>
<path d="M515,187h 7" fill="none" stroke="black" stroke-width="3"/>
<path d="M515,157h 7" fill="none" stroke="black" stroke-width="3"/>
<path d="M515,127h 7" fill="none" stroke="black" stroke-width="3"/>
<path d="M508,97h 14" fill="none" stroke="black" stroke-width="3"/>
<path d="M508,97h 14" fill="none" stroke="black" stroke-width="3"/>
<path d="M515,67h 7" fill="none" stroke="black" stroke-width="3"/>
<path d="M515,37h 7" fill="none" stroke="black" stroke-width="3"/>
<rect x="113" y="-4" width="285" height="38" fill="white"/>
<text x="135" y="24" fill="black" font-size="30" font-family="Helvetica" font-weight="bold">
IGHV3-7_star_02
</text>
<path d="M82,393v -60" fill="none" stroke="#ff0000" stroke-width="6"/>
<g stroke="#ff0000" stroke-width="6" fill="#ff0000">
<circle cx="82" cy="396" r="3.5"/>
</g>
<path d="M86,393v -60" fill="none" stroke="#ff0000" stroke-width="6"/>
<g stroke="#ff0000" stroke-width="6" fill="#ff0000">
<circle cx="86" cy="396" r="3.5"/>
</g>
<path d="M91,393v -60" fill="none" stroke="#ff0000" stroke-width="6"/>
<g stroke="#ff0000" stroke-width="6" fill="#ff0000">
<circle cx="91" cy="396" r="3.5"/>
</g>
<path d="M95,160v -60" fill="none" stroke="#ff0000" stroke-width="6"/>
<path d="M95,94v -57" fill="none" stroke="#ff0000" stroke-width="6"/>
<g stroke="#ff0000" stroke-width="6" fill="#ff0000">
<circle cx="95" cy="97" r="3.5"/>
</g>
<path d="M100,393v -60" fill="none" stroke="#ff0000" stroke-width="6"/>
<g stroke="#ff0000" stroke-width="6" fill="#ff0000">
<circle cx="100" cy="396" r="3.5"/>
</g>
<path d="M104,393v -60" fill="none" stroke="#ff0000" stroke-width="6"/>
<g stroke="#ff0000" stroke-width="6" fill="#ff0000">
<circle cx="104" cy="396" r="3.5"/>
</g>
<path d="M109,393v -33" fill="none" stroke="#ff0000" stroke-width="6"/>
<g stroke="#ff0000" stroke-width="6" fill="#ff0000">
<circle cx="109" cy="396" r="3.5"/>
</g>
<path d="M114,393v -33" fill="none" stroke="#ff0000" stroke-width="6"/>
<g stroke="#ff0000" stroke-width="6" fill="#ff0000">
<circle cx="114" cy="396" r="3.5"/>
</g>
<path d="M118,359v -59" fill="none" stroke="#ff0000" stroke-width="6"/>
<path d="M118,293v -59" fill="none" stroke="#ff0000" stroke-width="6"/>
<g stroke="#ff0000" stroke-width="6" fill="#ff0000">
<circle cx="118" cy="296" r="3.5"/>
</g>
<path d="M123,133v -33" fill="none" stroke="#ff0000" stroke-width="6"/>
<path d="M123,94v -33" fill="none" stroke="#ff0000" stroke-width="6"/>
<g stroke="#ff0000" stroke-width="6" fill="#ff0000">
<circle cx="123" cy="97" r="3.5"/>
</g>
<path d="M127,393v -33" fill="none" stroke="#ff0000" stroke-width="6"/>
<g stroke="#ff0000" stroke-width="6" fill="#ff0000">
<circle cx="127" cy="396" r="3.5"/>
</g>
<path d="M132,393v -33" fill="none" stroke="#ff0000" stroke-width="6"/>
<g stroke="#ff0000" stroke-width="6" fill="#ff0000">
<circle cx="132" cy="396" r="3.5"/>
</g>
<path d="M136,393v -19" fill="none" stroke="#ff0000" stroke-width="6"/>
<g stroke="#ff0000" stroke-width="6" fill="#ff0000">
<circle cx="136" cy="396" r="3.5"/>
</g>
<path d="M141,393v -19" fill="none" stroke="#ff0000" stroke-width="6"/>
<g stroke="#ff0000" stroke-width="6" fill="#ff0000">
<circle cx="141" cy="396" r="3.5"/>
</g>
<path d="M145,389v -39" fill="none" stroke="#ff0000" stroke-width="6"/>
<path d="M145,343v -40" fill="none" stroke="#ff0000" stroke-width="6"/>
<g stroke="#ff0000" stroke-width="6" fill="#ff0000">
<circle cx="145" cy="346" r="3.5"/>
</g>
<path d="M150,393v -16" fill="none" stroke="#ff0000" stroke-width="6"/>
<g stroke="#ff0000" stroke-width="6" fill="#ff0000">
<circle cx="150" cy="396" r="3.5"/>
</g>
<path d="M155,392v -35" fill="none" stroke="#ff0000" stroke-width="6"/>
<path d="M155,350v -35" fill="none" stroke="#ff0000" stroke-width="6"/>
<g stroke="#ff0000" stroke-width="6" fill="#ff0000">
<circle cx="155" cy="353" r="3.5"/>
</g>
<path d="M159,392v -35" fill="none" stroke="#ff0000" stroke-width="6"/>
<path d="M159,350v -35" fill="none" stroke="#ff0000" stroke-width="6"/>
<g stroke="#ff0000" stroke-width="6" fill="#ff0000">
<circle cx="159" cy="353" r="3.5"/>
</g>
<path d="M164,393v -16" fill="none" stroke="#ff0000" stroke-width="6"/>
<g stroke="#ff0000" stroke-width="6" fill="#ff0000">
<circle cx="164" cy="396" r="3.5"/>
</g>
<path d="M168,356v -42" fill="none" stroke="#ff0000" stroke-width="6"/>
<path d="M168,307v -41" fill="none" stroke="#ff0000" stroke-width="6"/>
<g stroke="#ff0000" stroke-width="6" fill="#ff0000">
<circle cx="168" cy="311" r="3.5"/>
</g>
<path d="M173,393v -16" fill="none" stroke="#ff0000" stroke-width="6"/>
<g stroke="#ff0000" stroke-width="6" fill="#ff0000">
<circle cx="173" cy="396" r="3.5"/>
</g>
<path d="M177,392v -35" fill="none" stroke="#ff0000" stroke-width="6"/>
<path d="M177,350v -35" fill="none" stroke="#ff0000" stroke-width="6"/>
<g stroke="#ff0000" stroke-width="6" fill="#ff0000">
<circle cx="177" cy="353" r="3.5"/>
</g>
<path d="M182,356v -42" fill="none" stroke="#ff0000" stroke-width="6"/>
<path d="M182,307v -41" fill="none" stroke="#ff0000" stroke-width="6"/>
<g stroke="#ff0000" stroke-width="6" fill="#ff0000">
<circle cx="182" cy="311" r="3.5"/>
</g>
<path d="M187,393v -16" fill="none" stroke="#ff0000" stroke-width="6"/>
<g stroke="#ff0000" stroke-width="6" fill="#ff0000">
<circle cx="187" cy="396" r="3.5"/>
</g>
<path d="M191,393v -14" fill="none" stroke="#ff0000" stroke-width="6"/>
<g stroke="#ff0000" stroke-width="6" fill="#ff0000">
<circle cx="191" cy="396" r="3.5"/>
</g>
<path d="M196,393v -14" fill="none" stroke="#ff0000" stroke-width="6"/>
<g stroke="#ff0000" stroke-width="6" fill="#ff0000">
<circle cx="196" cy="396" r="3.5"/>
</g>
<path d="M200,394v -32" fill="none" stroke="#ff0000" stroke-width="6"/>
<path d="M200,355v -31" fill="none" stroke="#ff0000" stroke-width="6"/>
<g stroke="#ff0000" stroke-width="6" fill="#ff0000">
<circle cx="200" cy="359" r="3.5"/>
</g>
<path d="M205,393v -11" fill="none" stroke="#ff0000" stroke-width="6"/>
<g stroke="#ff0000" stroke-width="6" fill="#ff0000">
<circle cx="205" cy="396" r="3.5"/>
</g>
<path d="M209,393v -11" fill="none" stroke="#ff0000" stroke-width="6"/>
<g stroke="#ff0000" stroke-width="6" fill="#ff0000">
<circle cx="209" cy="396" r="3.5"/>
</g>
<path d="M214,393v -11" fill="none" stroke="#ff0000" stroke-width="6"/>
<g stroke="#ff0000" stroke-width="6" fill="#ff0000">
<circle cx="214" cy="396" r="3.5"/>
</g>
<path d="M218,393v -11" fill="none" stroke="#ff0000" stroke-width="6"/>
<g stroke="#ff0000" stroke-width="6" fill="#ff0000">
<circle cx="218" cy="396" r="3.5"/>
</g>
<path d="M223,393v -11" fill="none" stroke="#ff0000" stroke-width="6"/>
<g stroke="#ff0000" stroke-width="6" fill="#ff0000">
<circle cx="223" cy="396" r="3.5"/>
</g>
<path d="M228,393v -11" fill="none" stroke="#ff0000" stroke-width="6"/>
<g stroke="#ff0000" stroke-width="6" fill="#ff0000">
<circle cx="228" cy="396" r="3.5"/>
</g>
<path d="M232,396v -27" fill="none" stroke="#ff0000" stroke-width="6"/>
<path d="M232,363v -26" fill="none" stroke="#ff0000" stroke-width="6"/>
<g stroke="#ff0000" stroke-width="6" fill="#ff0000">
<circle cx="232" cy="366" r="3.5"/>
</g>
<path d="M237,393v -11" fill="none" stroke="#ff0000" stroke-width="6"/>
<g stroke="#ff0000" stroke-width="6" fill="#ff0000">
<circle cx="237" cy="396" r="3.5"/>
</g>
<path d="M241,393v -11" fill="none" stroke="#ff0000" stroke-width="6"/>
<g stroke="#ff0000" stroke-width="6" fill="#ff0000">
<circle cx="241" cy="396" r="3.5"/>
</g>
<path d="M246,393v -11" fill="none" stroke="#ff0000" stroke-width="6"/>
<g stroke="#ff0000" stroke-width="6" fill="#ff0000">
<circle cx="246" cy="396" r="3.5"/>
</g>
<path d="M250,346v -36" fill="none" stroke="#ff0000" stroke-width="6"/>
<path d="M250,303v -36" fill="none" stroke="#ff0000" stroke-width="6"/>
<g stroke="#ff0000" stroke-width="6" fill="#ff0000">
<circle cx="250" cy="306" r="3.5"/>
</g>
<path d="M255,372v -32" fill="none" stroke="#ff0000" stroke-width="6"/>
<path d="M255,333v -32" fill="none" stroke="#ff0000" stroke-width="6"/>
<g stroke="#ff0000" stroke-width="6" fill="#ff0000">
<circle cx="255" cy="336" r="3.5"/>
</g>
<path d="M259,372v -32" fill="none" stroke="#ff0000" stroke-width="6"/>
<path d="M259,333v -32" fill="none" stroke="#ff0000" stroke-width="6"/>
<g stroke="#ff0000" stroke-width="6" fill="#ff0000">
<circle cx="259" cy="336" r="3.5"/>
</g>
<path d="M264,396v -27" fill="none" stroke="#ff0000" stroke-width="6"/>
<path d="M264,363v -26" fill="none" stroke="#ff0000" stroke-width="6"/>
<g stroke="#ff0000" stroke-width="6" fill="#ff0000">
<circle cx="264" cy="366" r="3.5"/>
</g>
<path d="M269,318v -38" fill="none" stroke="#ff0000" stroke-width="6"/>
<path d="M269,273v -38" fill="none" stroke="#ff0000" stroke-width="6"/>
<g stroke="#ff0000" stroke-width="6" fill="#ff0000">
<circle cx="269" cy="277" r="3.5"/>
</g>
<path d="M273,393v -11" fill="none" stroke="#ff0000" stroke-width="6"/>
<g stroke="#ff0000" stroke-width="6" fill="#ff0000">
<circle cx="273" cy="396" r="3.5"/>
</g>
<path d="M278,393v -11" fill="none" stroke="#ff0000" stroke-width="6"/>
<g stroke="#ff0000" stroke-width="6" fill="#ff0000">
<circle cx="278" cy="396" r="3.5"/>
</g>
<path d="M282,393v -11" fill="none" stroke="#ff0000" stroke-width="6"/>
<g stroke="#ff0000" stroke-width="6" fill="#ff0000">
<circle cx="282" cy="396" r="3.5"/>
</g>
<path d="M287,396v -27" fill="none" stroke="#ff0000" stroke-width="6"/>
<path d="M287,363v -26" fill="none" stroke="#ff0000" stroke-width="6"/>
<g stroke="#ff0000" stroke-width="6" fill="#ff0000">
<circle cx="287" cy="366" r="3.5"/>
</g>
<path d="M291,396v -27" fill="none" stroke="#ff0000" stroke-width="6"/>
<path d="M291,363v -26" fill="none" stroke="#ff0000" stroke-width="6"/>
<g stroke="#ff0000" stroke-width="6" fill="#ff0000">
<circle cx="291" cy="366" r="3.5"/>
</g>
<path d="M296,393v -11" fill="none" stroke="#ff0000" stroke-width="6"/>
<g stroke="#ff0000" stroke-width="6" fill="#ff0000">
<circle cx="296" cy="396" r="3.5"/>
</g>
<path d="M300,396v -27" fill="none" stroke="#ff0000" stroke-width="6"/>
<path d="M300,363v -26" fill="none" stroke="#ff0000" stroke-width="6"/>
<g stroke="#ff0000" stroke-width="6" fill="#ff0000">
<circle cx="300" cy="366" r="3.5"/>
</g>
<path d="M305,393v -11" fill="none" stroke="#ff0000" stroke-width="6"/>
<g stroke="#ff0000" stroke-width="6" fill="#ff0000">
<circle cx="305" cy="396" r="3.5"/>
</g>
<path d="M310,396v -27" fill="none" stroke="#ff0000" stroke-width="6"/>
<path d="M310,363v -26" fill="none" stroke="#ff0000" stroke-width="6"/>
<g stroke="#ff0000" stroke-width="6" fill="#ff0000">
<circle cx="310" cy="366" r="3.5"/>
</g>
<path d="M314,396v -27" fill="none" stroke="#ff0000" stroke-width="6"/>
<path d="M314,363v -26" fill="none" stroke="#ff0000" stroke-width="6"/>
<g stroke="#ff0000" stroke-width="6" fill="#ff0000">
<circle cx="314" cy="366" r="3.5"/>
</g>
<path d="M319,393v -11" fill="none" stroke="#ff0000" stroke-width="6"/>
<g stroke="#ff0000" stroke-width="6" fill="#ff0000">
<circle cx="319" cy="396" r="3.5"/>
</g>
<path d="M323,372v -32" fill="none" stroke="#ff0000" stroke-width="6"/>
<path d="M323,333v -32" fill="none" stroke="#ff0000" stroke-width="6"/>
<g stroke="#ff0000" stroke-width="6" fill="#ff0000">
<circle cx="323" cy="336" r="3.5"/>
</g>
<path d="M328,393v -11" fill="none" stroke="#ff0000" stroke-width="6"/>
<g stroke="#ff0000" stroke-width="6" fill="#ff0000">
<circle cx="328" cy="396" r="3.5"/>
</g>
<path d="M332,393v -11" fill="none" stroke="#ff0000" stroke-width="6"/>
<g stroke="#ff0000" stroke-width="6" fill="#ff0000">
<circle cx="332" cy="396" r="3.5"/>
</g>
<path d="M337,346v -36" fill="none" stroke="#ff0000" stroke-width="6"/>
<path d="M337,303v -36" fill="none" stroke="#ff0000" stroke-width="6"/>
<g stroke="#ff0000" stroke-width="6" fill="#ff0000">
<circle cx="337" cy="306" r="3.5"/>
</g>
<path d="M342,396v -27" fill="none" stroke="#ff0000" stroke-width="6"/>
<path d="M342,363v -26" fill="none" stroke="#ff0000" stroke-width="6"/>
<g stroke="#ff0000" stroke-width="6" fill="#ff0000">
<circle cx="342" cy="366" r="3.5"/>
</g>
<path d="M346,393v -11" fill="none" stroke="#ff0000" stroke-width="6"/>
<g stroke="#ff0000" stroke-width="6" fill="#ff0000">
<circle cx="346" cy="396" r="3.5"/>
</g>
<path d="M351,396v -27" fill="none" stroke="#ff0000" stroke-width="6"/>
<path d="M351,363v -26" fill="none" stroke="#ff0000" stroke-width="6"/>
<g stroke="#ff0000" stroke-width="6" fill="#ff0000">
<circle cx="351" cy="366" r="3.5"/>
</g>
<path d="M355,393v -11" fill="none" stroke="#ff0000" stroke-width="6"/>
<g stroke="#ff0000" stroke-width="6" fill="#ff0000">
<circle cx="355" cy="396" r="3.5"/>
</g>
<path d="M360,372v -32" fill="none" stroke="#ff0000" stroke-width="6"/>
<path d="M360,333v -32" fill="none" stroke="#ff0000" stroke-width="6"/>
<g stroke="#ff0000" stroke-width="6" fill="#ff0000">
<circle cx="360" cy="336" r="3.5"/>
</g>
<path d="M364,393v -11" fill="none" stroke="#ff0000" stroke-width="6"/>
<g stroke="#ff0000" stroke-width="6" fill="#ff0000">
<circle cx="364" cy="396" r="3.5"/>
</g>
<path d="M369,393v -11" fill="none" stroke="#ff0000" stroke-width="6"/>
<g stroke="#ff0000" stroke-width="6" fill="#ff0000">
<circle cx="369" cy="396" r="3.5"/>
</g>
<path d="M373,396v -27" fill="none" stroke="#ff0000" stroke-width="6"/>
<path d="M373,363v -26" fill="none" stroke="#ff0000" stroke-width="6"/>
<g stroke="#ff0000" stroke-width="6" fill="#ff0000">
<circle cx="373" cy="366" r="3.5"/>
</g>
<path d="M378,396v -27" fill="none" stroke="#ff0000" stroke-width="6"/>
<path d="M378,363v -26" fill="none" stroke="#ff0000" stroke-width="6"/>
<g stroke="#ff0000" stroke-width="6" fill="#ff0000">
<circle cx="378" cy="366" r="3.5"/>
</g>
<path d="M383,396v -27" fill="none" stroke="#ff0000" stroke-width="6"/>
<path d="M383,363v -26" fill="none" stroke="#ff0000" stroke-width="6"/>
<g stroke="#ff0000" stroke-width="6" fill="#ff0000">
<circle cx="383" cy="366" r="3.5"/>
</g>
<path d="M387,393v -11" fill="none" stroke="#ff0000" stroke-width="6"/>
<g stroke="#ff0000" stroke-width="6" fill="#ff0000">
<circle cx="387" cy="396" r="3.5"/>
</g>
<path d="M392,393v -11" fill="none" stroke="#ff0000" stroke-width="6"/>
<g stroke="#ff0000" stroke-width="6" fill="#ff0000">
<circle cx="392" cy="396" r="3.5"/>
</g>
<path d="M396,318v -38" fill="none" stroke="#ff0000" stroke-width="6"/>
<path d="M396,273v -38" fill="none" stroke="#ff0000" stroke-width="6"/>
<g stroke="#ff0000" stroke-width="6" fill="#ff0000">
<circle cx="396" cy="277" r="3.5"/>
</g>
<path d="M401,393v -11" fill="none" stroke="#ff0000" stroke-width="6"/>
<g stroke="#ff0000" stroke-width="6" fill="#ff0000">
<circle cx="401" cy="396" r="3.5"/>
</g>
<path d="M405,396v -27" fill="none" stroke="#ff0000" stroke-width="6"/>
<path d="M405,363v -26" fill="none" stroke="#ff0000" stroke-width="6"/>
<g stroke="#ff0000" stroke-width="6" fill="#ff0000">
<circle cx="405" cy="366" r="3.5"/>
</g>
<path d="M410,393v -11" fill="none" stroke="#ff0000" stroke-width="6"/>
<g stroke="#ff0000" stroke-width="6" fill="#ff0000">
<circle cx="410" cy="396" r="3.5"/>
</g>
<path d="M414,396v -27" fill="none" stroke="#ff0000" stroke-width="6"/>
<path d="M414,363v -26" fill="none" stroke="#ff0000" stroke-width="6"/>
<g stroke="#ff0000" stroke-width="6" fill="#ff0000">
<circle cx="414" cy="366" r="3.5"/>
</g>
<path d="M419,393v -11" fill="none" stroke="#ff0000" stroke-width="6"/>
<g stroke="#ff0000" stroke-width="6" fill="#ff0000">
<circle cx="419" cy="396" r="3.5"/>
</g>
<path d="M424,396v -27" fill="none" stroke="#ff0000" stroke-width="6"/>
<path d="M424,363v -26" fill="none" stroke="#ff0000" stroke-width="6"/>
<g stroke="#ff0000" stroke-width="6" fill="#ff0000">
<circle cx="424" cy="366" r="3.5"/>
</g>
<path d="M428,372v -32" fill="none" stroke="#ff0000" stroke-width="6"/>
<path d="M428,333v -32" fill="none" stroke="#ff0000" stroke-width="6"/>
<g stroke="#ff0000" stroke-width="6" fill="#ff0000">
<circle cx="428" cy="336" r="3.5"/>
</g>
<path d="M433,393v -11" fill="none" stroke="#ff0000" stroke-width="6"/>
<g stroke="#ff0000" stroke-width="6" fill="#ff0000">
<circle cx="433" cy="396" r="3.5"/>
</g>
<path d="M437,393v -11" fill="none" stroke="#ff0000" stroke-width="6"/>
<g stroke="#ff0000" stroke-width="6" fill="#ff0000">
<circle cx="437" cy="396" r="3.5"/>
</g>
<path d="M442,393v -11" fill="none" stroke="#ff0000" stroke-width="6"/>
<g stroke="#ff0000" stroke-width="6" fill="#ff0000">
<circle cx="442" cy="396" r="3.5"/>
</g>
<path d="M446,393v -11" fill="none" stroke="#ff0000" stroke-width="6"/>
<g stroke="#ff0000" stroke-width="6" fill="#ff0000">
<circle cx="446" cy="396" r="3.5"/>
</g>
<path d="M451,258v -38" fill="none" stroke="#ff0000" stroke-width="6"/>
<path d="M451,213v -37" fill="none" stroke="#ff0000" stroke-width="6"/>
<g stroke="#ff0000" stroke-width="6" fill="#ff0000">
<circle cx="451" cy="217" r="3.5"/>
</g>
<path d="M455,393v -11" fill="none" stroke="#ff0000" stroke-width="6"/>
<g stroke="#ff0000" stroke-width="6" fill="#ff0000">
<circle cx="455" cy="396" r="3.5"/>
</g>
<path d="M460,393v -11" fill="none" stroke="#ff0000" stroke-width="6"/>
<g stroke="#ff0000" stroke-width="6" fill="#ff0000">
<circle cx="460" cy="396" r="3.5"/>
</g>
<path d="M465,396v -27" fill="none" stroke="#ff0000" stroke-width="6"/>
<path d="M465,363v -26" fill="none" stroke="#ff0000" stroke-width="6"/>
<g stroke="#ff0000" stroke-width="6" fill="#ff0000">
<circle cx="465" cy="366" r="3.5"/>
</g>
<path d="M469,396v -27" fill="none" stroke="#ff0000" stroke-width="6"/>
<path d="M469,363v -26" fill="none" stroke="#ff0000" stroke-width="6"/>
<g stroke="#ff0000" stroke-width="6" fill="#ff0000">
<circle cx="469" cy="366" r="3.5"/>
</g>
<path d="M474,396v -27" fill="none" stroke="#ff0000" stroke-width="6"/>
<path d="M474,363v -26" fill="none" stroke="#ff0000" stroke-width="6"/>
<g stroke="#ff0000" stroke-width="6" fill="#ff0000">
<circle cx="474" cy="366" r="3.5"/>
</g>
<path d="M478,393v -11" fill="none" stroke="#ff0000" stroke-width="6"/>
<g stroke="#ff0000" stroke-width="6" fill="#ff0000">
<circle cx="478" cy="396" r="3.5"/>
</g>
<path d="M483,393v -11" fill="none" stroke="#ff0000" stroke-width="6"/>
<g stroke="#ff0000" stroke-width="6" fill="#ff0000">
<circle cx="483" cy="396" r="3.5"/>
</g>
<path d="M487,393v -11" fill="none" stroke="#ff0000" stroke-width="6"/>
<g stroke="#ff0000" stroke-width="6" fill="#ff0000">
<circle cx="487" cy="396" r="3.5"/>
</g>
<path d="M492,393v -11" fill="none" stroke="#ff0000" stroke-width="6"/>
<g stroke="#ff0000" stroke-width="6" fill="#ff0000">
<circle cx="492" cy="396" r="3.5"/>
</g>
<path d="M497,346v -36" fill="none" stroke="#ff0000" stroke-width="6"/>
<path d="M497,303v -36" fill="none" stroke="#ff0000" stroke-width="6"/>
<g stroke="#ff0000" stroke-width="6" fill="#ff0000">
<circle cx="497" cy="306" r="3.5"/>
</g>
<path d="M501,396v -27" fill="none" stroke="#ff0000" stroke-width="6"/>
<path d="M501,363v -26" fill="none" stroke="#ff0000" stroke-width="6"/>
<g stroke="#ff0000" stroke-width="6" fill="#ff0000">
<circle cx="501" cy="366" r="3.5"/>
</g>
<path d="M506,396v -27" fill="none" stroke="#ff0000" stroke-width="6"/>
<path d="M506,363v -26" fill="none" stroke="#ff0000" stroke-width="6"/>
<g stroke="#ff0000" stroke-width="6" fill="#ff0000">
<circle cx="506" cy="366" r="3.5"/>
</g>
<path d="M510,393v -11" fill="none" stroke="#ff0000" stroke-width="6"/>
<g stroke="#ff0000" stroke-width="6" fill="#ff0000">
<circle cx="510" cy="396" r="3.5"/>
</g>
<path d="M515,395v -29" fill="none" stroke="#ff0000" stroke-width="6"/>
<path d="M515,360v -29" fill="none" stroke="#ff0000" stroke-width="6"/>
<g stroke="#ff0000" stroke-width="6" fill="#ff0000">
<circle cx="515" cy="363" r="3.5"/>
</g>
<path d="M519,393v -26" fill="none" stroke="#ff0000" stroke-width="6"/>
<g stroke="#ff0000" stroke-width="6" fill="#ff0000">
<circle cx="519" cy="396" r="3.5"/>
</g>
<path d="M332,107h 42" fill="none" stroke="#ff0000" stroke-width="6"/>
<path d="M483,426v -179" fill="none" stroke="black" stroke-width="3" stroke-dasharray=" 3, 3"/>
<rect x="113" y="-4" width="285" height="38" fill="white"/>
<text x="135" y="24" fill="black" font-size="30" font-family="Helvetica" font-weight="bold">
IGHV3-7_star_02
</text></svg>
