<?xml version="1.0" standalone="no"?>
<svg width="567" height="466" viewBox="0 0 567 466" xmlns="http://www.w3.org/2000/svg">
<title>
/bbx/output/_plots/example/sw/dj_insertion/plots/IGHJ5_star_02-dj_insertion.svg
</title>
<desc>
Creator: ROOT Version 5.34/14
CreationDate: Wed Aug 19 21:59:57 2015</desc>
<defs>
</defs>
<rect x="0" y="0" width="567" height="466" fill="white"/>
<rect x="79" y="37" width="443" height="359" fill="none" stroke="black"/>
<rect x="79" y="37" width="443" height="359" fill="none" stroke="black"/>
<path d="M79,396h 443" fill="none" stroke="black" stroke-width="3"/>
<path d="M88,385v 11" fill="none" stroke="black" stroke-width="3"/>
<path d="M106,391v 5" fill="none" stroke="black" stroke-width="3"/>
<path d="M124,391v 5" fill="none" stroke="black" stroke-width="3"/>
<path d="M141,391v 5" fill="none" stroke="black" stroke-width="3"/>
<path d="M159,391v 5" fill="none" stroke="black" stroke-width="3"/>
<path d="M177,385v 11" fill="none" stroke="black" stroke-width="3"/>
<path d="M194,391v 5" fill="none" stroke="black" stroke-width="3"/>
<path d="M212,391v 5" fill="none" stroke="black" stroke-width="3"/>
<path d="M230,391v 5" fill="none" stroke="black" stroke-width="3"/>
<path d="M247,391v 5" fill="none" stroke="black" stroke-width="3"/>
<path d="M265,385v 11" fill="none" stroke="black" stroke-width="3"/>
<path d="M283,391v 5" fill="none" stroke="black" stroke-width="3"/>
<path d="M300,391v 5" fill="none" stroke="black" stroke-width="3"/>
<path d="M318,391v 5" fill="none" stroke="black" stroke-width="3"/>
<path d="M336,391v 5" fill="none" stroke="black" stroke-width="3"/>
<path d="M354,385v 11" fill="none" stroke="black" stroke-width="3"/>
<path d="M371,391v 5" fill="none" stroke="black" stroke-width="3"/>
<path d="M389,391v 5" fill="none" stroke="black" stroke-width="3"/>
<path d="M407,391v 5" fill="none" stroke="black" stroke-width="3"/>
<path d="M424,391v 5" fill="none" stroke="black" stroke-width="3"/>
<path d="M442,385v 11" fill="none" stroke="black" stroke-width="3"/>
<path d="M88,385v 11" fill="none" stroke="black" stroke-width="3"/>
<path d="M442,385v 11" fill="none" stroke="black" stroke-width="3"/>
<path d="M460,391v 5" fill="none" stroke="black" stroke-width="3"/>
<path d="M477,391v 5" fill="none" stroke="black" stroke-width="3"/>
<path d="M495,391v 5" fill="none" stroke="black" stroke-width="3"/>
<path d="M513,391v 5" fill="none" stroke="black" stroke-width="3"/>
<text x="82" y="416" fill="black" font-size="21" font-family="Times" font-weight="bold">
0
</text>
<text x="170" y="416" fill="black" font-size="21" font-family="Times" font-weight="bold">
5
</text>
<text x="253" y="416" fill="black" font-size="21" font-family="Times" font-weight="bold">
10
</text>
<text x="342" y="416" fill="black" font-size="21" font-family="Times" font-weight="bold">
15
</text>
<text x="430" y="416" fill="black" font-size="21" font-family="Times" font-weight="bold">
20
</text>
<path d="M79,37h 443" fill="none" stroke="black" stroke-width="3"/>
<path d="M88,48v -11" fill="none" stroke="black" stroke-width="3"/>
<path d="M106,43v -6" fill="none" stroke="black" stroke-width="3"/>
<path d="M124,43v -6" fill="none" stroke="black" stroke-width="3"/>
<path d="M141,43v -6" fill="none" stroke="black" stroke-width="3"/>
<path d="M159,43v -6" fill="none" stroke="black" stroke-width="3"/>
<path d="M177,48v -11" fill="none" stroke="black" stroke-width="3"/>
<path d="M194,43v -6" fill="none" stroke="black" stroke-width="3"/>
<path d="M212,43v -6" fill="none" stroke="black" stroke-width="3"/>
<path d="M230,43v -6" fill="none" stroke="black" stroke-width="3"/>
<path d="M247,43v -6" fill="none" stroke="black" stroke-width="3"/>
<path d="M265,48v -11" fill="none" stroke="black" stroke-width="3"/>
<path d="M283,43v -6" fill="none" stroke="black" stroke-width="3"/>
<path d="M300,43v -6" fill="none" stroke="black" stroke-width="3"/>
<path d="M318,43v -6" fill="none" stroke="black" stroke-width="3"/>
<path d="M336,43v -6" fill="none" stroke="black" stroke-width="3"/>
<path d="M354,48v -11" fill="none" stroke="black" stroke-width="3"/>
<path d="M371,43v -6" fill="none" stroke="black" stroke-width="3"/>
<path d="M389,43v -6" fill="none" stroke="black" stroke-width="3"/>
<path d="M407,43v -6" fill="none" stroke="black" stroke-width="3"/>
<path d="M424,43v -6" fill="none" stroke="black" stroke-width="3"/>
<path d="M442,48v -11" fill="none" stroke="black" stroke-width="3"/>
<path d="M88,48v -11" fill="none" stroke="black" stroke-width="3"/>
<path d="M442,48v -11" fill="none" stroke="black" stroke-width="3"/>
<path d="M460,43v -6" fill="none" stroke="black" stroke-width="3"/>
<path d="M477,43v -6" fill="none" stroke="black" stroke-width="3"/>
<path d="M495,43v -6" fill="none" stroke="black" stroke-width="3"/>
<path d="M513,43v -6" fill="none" stroke="black" stroke-width="3"/>
<path d="M79,396v -359" fill="none" stroke="black" stroke-width="3"/>
<path d="M92,396h -13" fill="none" stroke="black" stroke-width="3"/>
<path d="M86,366h -7" fill="none" stroke="black" stroke-width="3"/>
<path d="M86,336h -7" fill="none" stroke="black" stroke-width="3"/>
<path d="M86,306h -7" fill="none" stroke="black" stroke-width="3"/>
<path d="M86,277h -7" fill="none" stroke="black" stroke-width="3"/>
<path d="M92,247h -13" fill="none" stroke="black" stroke-width="3"/>
<path d="M86,217h -7" fill="none" stroke="black" stroke-width="3"/>
<path d="M86,187h -7" fill="none" stroke="black" stroke-width="3"/>
<path d="M86,157h -7" fill="none" stroke="black" stroke-width="3"/>
<path d="M86,127h -7" fill="none" stroke="black" stroke-width="3"/>
<path d="M92,97h -13" fill="none" stroke="black" stroke-width="3"/>
<path d="M92,97h -13" fill="none" stroke="black" stroke-width="3"/>
<path d="M86,67h -7" fill="none" stroke="black" stroke-width="3"/>
<path d="M86,37h -7" fill="none" stroke="black" stroke-width="3"/>
<text x="63" y="404" fill="black" font-size="21" font-family="Times" font-weight="bold">
0
</text>
<text x="63" y="254" fill="black" font-size="21" font-family="Times" font-weight="bold">
5
</text>
<text x="51" y="105" fill="black" font-size="21" font-family="Times" font-weight="bold">
10
</text>
<path d="M522,396v -359" fill="none" stroke="black" stroke-width="3"/>
<path d="M508,396h 14" fill="none" stroke="black" stroke-width="3"/>
<path d="M515,366h 7" fill="none" stroke="black" stroke-width="3"/>
<path d="M515,336h 7" fill="none" stroke="black" stroke-width="3"/>
<path d="M515,306h 7" fill="none" stroke="black" stroke-width="3"/>
<path d="M515,277h 7" fill="none" stroke="black" stroke-width="3"/>
<path d="M508,247h 14" fill="none" stroke="black" stroke-width="3"/>
<path d="M515,217h 7" fill="none" stroke="black" stroke-width="3"/>
<path d="M515,187h 7" fill="none" stroke="black" stroke-width="3"/>
<path d="M515,157h 7" fill="none" stroke="black" stroke-width="3"/>
<path d="M515,127h 7" fill="none" stroke="black" stroke-width="3"/>
<path d="M508,97h 14" fill="none" stroke="black" stroke-width="3"/>
<path d="M508,97h 14" fill="none" stroke="black" stroke-width="3"/>
<path d="M515,67h 7" fill="none" stroke="black" stroke-width="3"/>
<path d="M515,37h 7" fill="none" stroke="black" stroke-width="3"/>
<rect x="113" y="-4" width="397" height="39" fill="white"/>
<text x="130" y="23" fill="black" font-size="28" font-family="Helvetica" font-weight="bold">
IGHJ5_star_02-dj_insertion
</text>
<path d="M88,192v -92" fill="none" stroke="#ff0000" stroke-width="6"/>
<path d="M88,94v -57" fill="none" stroke="#ff0000" stroke-width="6"/>
<g stroke="#ff0000" stroke-width="6" fill="#ff0000">
<circle cx="88" cy="97" r="3.5"/>
</g>
<path d="M106,396v -27" fill="none" stroke="#ff0000" stroke-width="6"/>
<path d="M106,363v -27" fill="none" stroke="#ff0000" stroke-width="6"/>
<g stroke="#ff0000" stroke-width="6" fill="#ff0000">
<circle cx="106" cy="366" r="3.5"/>
</g>
<path d="M124,396v -27" fill="none" stroke="#ff0000" stroke-width="6"/>
<path d="M124,363v -27" fill="none" stroke="#ff0000" stroke-width="6"/>
<g stroke="#ff0000" stroke-width="6" fill="#ff0000">
<circle cx="124" cy="366" r="3.5"/>
</g>
<path d="M141,396v -27" fill="none" stroke="#ff0000" stroke-width="6"/>
<path d="M141,363v -27" fill="none" stroke="#ff0000" stroke-width="6"/>
<g stroke="#ff0000" stroke-width="6" fill="#ff0000">
<circle cx="141" cy="366" r="3.5"/>
</g>
<path d="M159,396v -27" fill="none" stroke="#ff0000" stroke-width="6"/>
<path d="M159,363v -27" fill="none" stroke="#ff0000" stroke-width="6"/>
<g stroke="#ff0000" stroke-width="6" fill="#ff0000">
<circle cx="159" cy="366" r="3.5"/>
</g>
<path d="M194,396v -27" fill="none" stroke="#ff0000" stroke-width="6"/>
<path d="M194,363v -27" fill="none" stroke="#ff0000" stroke-width="6"/>
<g stroke="#ff0000" stroke-width="6" fill="#ff0000">
<circle cx="194" cy="366" r="3.5"/>
</g>
<path d="M212,396v -27" fill="none" stroke="#ff0000" stroke-width="6"/>
<path d="M212,363v -27" fill="none" stroke="#ff0000" stroke-width="6"/>
<g stroke="#ff0000" stroke-width="6" fill="#ff0000">
<circle cx="212" cy="366" r="3.5"/>
</g>
<path d="M336,217v -87" fill="none" stroke="#ff0000" stroke-width="6"/>
<path d="M336,124v -87" fill="none" stroke="#ff0000" stroke-width="6"/>
<g stroke="#ff0000" stroke-width="6" fill="#ff0000">
<circle cx="336" cy="127" r="3.5"/>
</g>
<path d="M354,379v -39" fill="none" stroke="#ff0000" stroke-width="6"/>
<path d="M354,333v -39" fill="none" stroke="#ff0000" stroke-width="6"/>
<g stroke="#ff0000" stroke-width="6" fill="#ff0000">
<circle cx="354" cy="336" r="3.5"/>
</g>
<path d="M442,379v -39" fill="none" stroke="#ff0000" stroke-width="6"/>
<path d="M442,333v -39" fill="none" stroke="#ff0000" stroke-width="6"/>
<g stroke="#ff0000" stroke-width="6" fill="#ff0000">
<circle cx="442" cy="336" r="3.5"/>
</g>
<path d="M460,396v -27" fill="none" stroke="#ff0000" stroke-width="6"/>
<path d="M460,363v -27" fill="none" stroke="#ff0000" stroke-width="6"/>
<g stroke="#ff0000" stroke-width="6" fill="#ff0000">
<circle cx="460" cy="366" r="3.5"/>
</g>
<path d="M513,396v -27" fill="none" stroke="#ff0000" stroke-width="6"/>
<path d="M513,363v -27" fill="none" stroke="#ff0000" stroke-width="6"/>
<g stroke="#ff0000" stroke-width="6" fill="#ff0000">
<circle cx="513" cy="366" r="3.5"/>
</g>
<path d="M80,395v -298h 17v 269h 71v 29h 17v -29h 36v 29h 106v -268h 18v 209h 17v 59h 71v -59h 18v 30h 18v 29h 35v -29h 18" fill="none" stroke="#ff0000" stroke-width="6"/>
<path d="M332,107h 42" fill="none" stroke="#ff0000" stroke-width="6"/>
<rect x="113" y="-4" width="397" height="39" fill="white"/>
<text x="130" y="23" fill="black" font-size="28" font-family="Helvetica" font-weight="bold">
IGHJ5_star_02-dj_insertion
</text></svg>
