<?xml version="1.0" standalone="no"?>
<svg width="567" height="466" viewBox="0 0 567 466" xmlns="http://www.w3.org/2000/svg">
<title>
/bbx/output/_plots/example/sw/vd_insertion/plots/IGHD2-2_star_02-vd_insertion.svg
</title>
<desc>
Creator: ROOT Version 5.34/14
CreationDate: Wed Aug 19 19:38:08 2015</desc>
<defs>
</defs>
<rect x="0" y="0" width="567" height="466" fill="white"/>
<rect x="79" y="37" width="443" height="359" fill="none" stroke="black"/>
<rect x="79" y="37" width="443" height="359" fill="none" stroke="black"/>
<path d="M79,396h 443" fill="none" stroke="black" stroke-width="3"/>
<path d="M174,385v 11" fill="none" stroke="black" stroke-width="3"/>
<path d="M206,391v 5" fill="none" stroke="black" stroke-width="3"/>
<path d="M237,391v 5" fill="none" stroke="black" stroke-width="3"/>
<path d="M269,391v 5" fill="none" stroke="black" stroke-width="3"/>
<path d="M300,385v 11" fill="none" stroke="black" stroke-width="3"/>
<path d="M332,391v 5" fill="none" stroke="black" stroke-width="3"/>
<path d="M364,391v 5" fill="none" stroke="black" stroke-width="3"/>
<path d="M395,391v 5" fill="none" stroke="black" stroke-width="3"/>
<path d="M427,385v 11" fill="none" stroke="black" stroke-width="3"/>
<path d="M174,385v 11" fill="none" stroke="black" stroke-width="3"/>
<path d="M143,391v 5" fill="none" stroke="black" stroke-width="3"/>
<path d="M111,391v 5" fill="none" stroke="black" stroke-width="3"/>
<path d="M79,391v 5" fill="none" stroke="black" stroke-width="3"/>
<path d="M427,385v 11" fill="none" stroke="black" stroke-width="3"/>
<path d="M458,391v 5" fill="none" stroke="black" stroke-width="3"/>
<path d="M490,391v 5" fill="none" stroke="black" stroke-width="3"/>
<path d="M522,391v 5" fill="none" stroke="black" stroke-width="3"/>
<text x="168" y="416" fill="black" font-size="21" font-family="Times" font-weight="bold">
2
</text>
<text x="294" y="416" fill="black" font-size="21" font-family="Times" font-weight="bold">
4
</text>
<text x="420" y="416" fill="black" font-size="21" font-family="Times" font-weight="bold">
6
</text>
<path d="M79,37h 443" fill="none" stroke="black" stroke-width="3"/>
<path d="M174,48v -11" fill="none" stroke="black" stroke-width="3"/>
<path d="M206,43v -6" fill="none" stroke="black" stroke-width="3"/>
<path d="M237,43v -6" fill="none" stroke="black" stroke-width="3"/>
<path d="M269,43v -6" fill="none" stroke="black" stroke-width="3"/>
<path d="M300,48v -11" fill="none" stroke="black" stroke-width="3"/>
<path d="M332,43v -6" fill="none" stroke="black" stroke-width="3"/>
<path d="M364,43v -6" fill="none" stroke="black" stroke-width="3"/>
<path d="M395,43v -6" fill="none" stroke="black" stroke-width="3"/>
<path d="M427,48v -11" fill="none" stroke="black" stroke-width="3"/>
<path d="M174,48v -11" fill="none" stroke="black" stroke-width="3"/>
<path d="M143,43v -6" fill="none" stroke="black" stroke-width="3"/>
<path d="M111,43v -6" fill="none" stroke="black" stroke-width="3"/>
<path d="M79,43v -6" fill="none" stroke="black" stroke-width="3"/>
<path d="M427,48v -11" fill="none" stroke="black" stroke-width="3"/>
<path d="M458,43v -6" fill="none" stroke="black" stroke-width="3"/>
<path d="M490,43v -6" fill="none" stroke="black" stroke-width="3"/>
<path d="M522,43v -6" fill="none" stroke="black" stroke-width="3"/>
<path d="M79,396v -359" fill="none" stroke="black" stroke-width="3"/>
<path d="M92,396h -13" fill="none" stroke="black" stroke-width="3"/>
<path d="M86,381h -7" fill="none" stroke="black" stroke-width="3"/>
<path d="M86,366h -7" fill="none" stroke="black" stroke-width="3"/>
<path d="M86,351h -7" fill="none" stroke="black" stroke-width="3"/>
<path d="M86,336h -7" fill="none" stroke="black" stroke-width="3"/>
<path d="M92,321h -13" fill="none" stroke="black" stroke-width="3"/>
<path d="M86,306h -7" fill="none" stroke="black" stroke-width="3"/>
<path d="M86,291h -7" fill="none" stroke="black" stroke-width="3"/>
<path d="M86,277h -7" fill="none" stroke="black" stroke-width="3"/>
<path d="M86,262h -7" fill="none" stroke="black" stroke-width="3"/>
<path d="M92,247h -13" fill="none" stroke="black" stroke-width="3"/>
<path d="M86,232h -7" fill="none" stroke="black" stroke-width="3"/>
<path d="M86,217h -7" fill="none" stroke="black" stroke-width="3"/>
<path d="M86,202h -7" fill="none" stroke="black" stroke-width="3"/>
<path d="M86,187h -7" fill="none" stroke="black" stroke-width="3"/>
<path d="M92,172h -13" fill="none" stroke="black" stroke-width="3"/>
<path d="M86,157h -7" fill="none" stroke="black" stroke-width="3"/>
<path d="M86,142h -7" fill="none" stroke="black" stroke-width="3"/>
<path d="M86,127h -7" fill="none" stroke="black" stroke-width="3"/>
<path d="M86,112h -7" fill="none" stroke="black" stroke-width="3"/>
<path d="M92,97h -13" fill="none" stroke="black" stroke-width="3"/>
<path d="M92,97h -13" fill="none" stroke="black" stroke-width="3"/>
<path d="M86,82h -7" fill="none" stroke="black" stroke-width="3"/>
<path d="M86,67h -7" fill="none" stroke="black" stroke-width="3"/>
<path d="M86,52h -7" fill="none" stroke="black" stroke-width="3"/>
<path d="M86,37h -7" fill="none" stroke="black" stroke-width="3"/>
<text x="63" y="404" fill="black" font-size="21" font-family="Times" font-weight="bold">
0
</text>
<text x="64" y="329" fill="black" font-size="21" font-family="Times" font-weight="bold">
1
</text>
<text x="63" y="254" fill="black" font-size="21" font-family="Times" font-weight="bold">
2
</text>
<text x="63" y="179" fill="black" font-size="21" font-family="Times" font-weight="bold">
3
</text>
<text x="63" y="105" fill="black" font-size="21" font-family="Times" font-weight="bold">
4
</text>
<path d="M522,396v -359" fill="none" stroke="black" stroke-width="3"/>
<path d="M508,396h 14" fill="none" stroke="black" stroke-width="3"/>
<path d="M515,381h 7" fill="none" stroke="black" stroke-width="3"/>
<path d="M515,366h 7" fill="none" stroke="black" stroke-width="3"/>
<path d="M515,351h 7" fill="none" stroke="black" stroke-width="3"/>
<path d="M515,336h 7" fill="none" stroke="black" stroke-width="3"/>
<path d="M508,321h 14" fill="none" stroke="black" stroke-width="3"/>
<path d="M515,306h 7" fill="none" stroke="black" stroke-width="3"/>
<path d="M515,291h 7" fill="none" stroke="black" stroke-width="3"/>
<path d="M515,277h 7" fill="none" stroke="black" stroke-width="3"/>
<path d="M515,262h 7" fill="none" stroke="black" stroke-width="3"/>
<path d="M508,247h 14" fill="none" stroke="black" stroke-width="3"/>
<path d="M515,232h 7" fill="none" stroke="black" stroke-width="3"/>
<path d="M515,217h 7" fill="none" stroke="black" stroke-width="3"/>
<path d="M515,202h 7" fill="none" stroke="black" stroke-width="3"/>
<path d="M515,187h 7" fill="none" stroke="black" stroke-width="3"/>
<path d="M508,172h 14" fill="none" stroke="black" stroke-width="3"/>
<path d="M515,157h 7" fill="none" stroke="black" stroke-width="3"/>
<path d="M515,142h 7" fill="none" stroke="black" stroke-width="3"/>
<path d="M515,127h 7" fill="none" stroke="black" stroke-width="3"/>
<path d="M515,112h 7" fill="none" stroke="black" stroke-width="3"/>
<path d="M508,97h 14" fill="none" stroke="black" stroke-width="3"/>
<path d="M508,97h 14" fill="none" stroke="black" stroke-width="3"/>
<path d="M515,82h 7" fill="none" stroke="black" stroke-width="3"/>
<path d="M515,67h 7" fill="none" stroke="black" stroke-width="3"/>
<path d="M515,52h 7" fill="none" stroke="black" stroke-width="3"/>
<path d="M515,37h 7" fill="none" stroke="black" stroke-width="3"/>
<rect x="113" y="-4" width="397" height="38" fill="white"/>
<text x="124" y="22" fill="black" font-size="25" font-family="Helvetica" font-weight="bold">
IGHD2-2_star_02-vd_insertion
</text>
<path d="M111,301v -126" fill="none" stroke="#ff0000" stroke-width="6"/>
<path d="M111,169v -127" fill="none" stroke="#ff0000" stroke-width="6"/>
<g stroke="#ff0000" stroke-width="6" fill="#ff0000">
<circle cx="111" cy="172" r="3.5"/>
</g>
<path d="M237,396v -71" fill="none" stroke="#ff0000" stroke-width="6"/>
<path d="M237,318v -71" fill="none" stroke="#ff0000" stroke-width="6"/>
<g stroke="#ff0000" stroke-width="6" fill="#ff0000">
<circle cx="237" cy="321" r="3.5"/>
</g>
<path d="M490,247v -147" fill="none" stroke="#ff0000" stroke-width="6"/>
<path d="M490,94v -57" fill="none" stroke="#ff0000" stroke-width="6"/>
<g stroke="#ff0000" stroke-width="6" fill="#ff0000">
<circle cx="490" cy="97" r="3.5"/>
</g>
<path d="M80,395v -223h 63v 223h 63v -74h 63v 74h 189v -298h 64" fill="none" stroke="#ff0000" stroke-width="6"/>
<path d="M332,107h 42" fill="none" stroke="#ff0000" stroke-width="6"/>
<rect x="113" y="-4" width="397" height="38" fill="white"/>
<text x="124" y="22" fill="black" font-size="25" font-family="Helvetica" font-weight="bold">
IGHD2-2_star_02-vd_insertion
</text></svg>
