<?xml version="1.0" standalone="no"?>
<svg width="567" height="466" viewBox="0 0 567 466" xmlns="http://www.w3.org/2000/svg">
<title>
/bbx/output/_plots/example/sw/mute-freqs/d/plots/IGHD2-15_star_01.svg
</title>
<desc>
Creator: ROOT Version 5.34/14
CreationDate: Thu Jul 30 17:05:55 2015</desc>
<defs>
</defs>
<rect x="0" y="0" width="567" height="466" fill="white"/>
<rect x="79" y="37" width="443" height="359" fill="none" stroke="black"/>
<rect x="79" y="37" width="443" height="359" fill="none" stroke="black"/>
<path d="M79,396h 443" fill="none" stroke="black" stroke-width="3"/>
<path d="M130,385v 11" fill="none" stroke="black" stroke-width="3"/>
<path d="M150,391v 5" fill="none" stroke="black" stroke-width="3"/>
<path d="M170,391v 5" fill="none" stroke="black" stroke-width="3"/>
<path d="M190,391v 5" fill="none" stroke="black" stroke-width="3"/>
<path d="M210,391v 5" fill="none" stroke="black" stroke-width="3"/>
<path d="M230,385v 11" fill="none" stroke="black" stroke-width="3"/>
<path d="M250,391v 5" fill="none" stroke="black" stroke-width="3"/>
<path d="M270,391v 5" fill="none" stroke="black" stroke-width="3"/>
<path d="M290,391v 5" fill="none" stroke="black" stroke-width="3"/>
<path d="M311,391v 5" fill="none" stroke="black" stroke-width="3"/>
<path d="M331,385v 11" fill="none" stroke="black" stroke-width="3"/>
<path d="M351,391v 5" fill="none" stroke="black" stroke-width="3"/>
<path d="M371,391v 5" fill="none" stroke="black" stroke-width="3"/>
<path d="M391,391v 5" fill="none" stroke="black" stroke-width="3"/>
<path d="M411,391v 5" fill="none" stroke="black" stroke-width="3"/>
<path d="M431,385v 11" fill="none" stroke="black" stroke-width="3"/>
<path d="M130,385v 11" fill="none" stroke="black" stroke-width="3"/>
<path d="M110,391v 5" fill="none" stroke="black" stroke-width="3"/>
<path d="M89,391v 5" fill="none" stroke="black" stroke-width="3"/>
<path d="M431,385v 11" fill="none" stroke="black" stroke-width="3"/>
<path d="M451,391v 5" fill="none" stroke="black" stroke-width="3"/>
<path d="M471,391v 5" fill="none" stroke="black" stroke-width="3"/>
<path d="M491,391v 5" fill="none" stroke="black" stroke-width="3"/>
<path d="M512,391v 5" fill="none" stroke="black" stroke-width="3"/>
<text x="124" y="416" fill="black" font-size="21" font-family="Times" font-weight="bold">
5
</text>
<text x="218" y="416" fill="black" font-size="21" font-family="Times" font-weight="bold">
10
</text>
<text x="318" y="416" fill="black" font-size="21" font-family="Times" font-weight="bold">
15
</text>
<text x="419" y="416" fill="black" font-size="21" font-family="Times" font-weight="bold">
20
</text>
<path d="M79,37h 443" fill="none" stroke="black" stroke-width="3"/>
<path d="M130,48v -11" fill="none" stroke="black" stroke-width="3"/>
<path d="M150,43v -6" fill="none" stroke="black" stroke-width="3"/>
<path d="M170,43v -6" fill="none" stroke="black" stroke-width="3"/>
<path d="M190,43v -6" fill="none" stroke="black" stroke-width="3"/>
<path d="M210,43v -6" fill="none" stroke="black" stroke-width="3"/>
<path d="M230,48v -11" fill="none" stroke="black" stroke-width="3"/>
<path d="M250,43v -6" fill="none" stroke="black" stroke-width="3"/>
<path d="M270,43v -6" fill="none" stroke="black" stroke-width="3"/>
<path d="M290,43v -6" fill="none" stroke="black" stroke-width="3"/>
<path d="M311,43v -6" fill="none" stroke="black" stroke-width="3"/>
<path d="M331,48v -11" fill="none" stroke="black" stroke-width="3"/>
<path d="M351,43v -6" fill="none" stroke="black" stroke-width="3"/>
<path d="M371,43v -6" fill="none" stroke="black" stroke-width="3"/>
<path d="M391,43v -6" fill="none" stroke="black" stroke-width="3"/>
<path d="M411,43v -6" fill="none" stroke="black" stroke-width="3"/>
<path d="M431,48v -11" fill="none" stroke="black" stroke-width="3"/>
<path d="M130,48v -11" fill="none" stroke="black" stroke-width="3"/>
<path d="M110,43v -6" fill="none" stroke="black" stroke-width="3"/>
<path d="M89,43v -6" fill="none" stroke="black" stroke-width="3"/>
<path d="M431,48v -11" fill="none" stroke="black" stroke-width="3"/>
<path d="M451,43v -6" fill="none" stroke="black" stroke-width="3"/>
<path d="M471,43v -6" fill="none" stroke="black" stroke-width="3"/>
<path d="M491,43v -6" fill="none" stroke="black" stroke-width="3"/>
<path d="M512,43v -6" fill="none" stroke="black" stroke-width="3"/>
<path d="M79,396v -359" fill="none" stroke="black" stroke-width="3"/>
<path d="M92,396h -13" fill="none" stroke="black" stroke-width="3"/>
<path d="M86,366h -7" fill="none" stroke="black" stroke-width="3"/>
<path d="M86,336h -7" fill="none" stroke="black" stroke-width="3"/>
<path d="M86,306h -7" fill="none" stroke="black" stroke-width="3"/>
<path d="M86,277h -7" fill="none" stroke="black" stroke-width="3"/>
<path d="M92,247h -13" fill="none" stroke="black" stroke-width="3"/>
<path d="M86,217h -7" fill="none" stroke="black" stroke-width="3"/>
<path d="M86,187h -7" fill="none" stroke="black" stroke-width="3"/>
<path d="M86,157h -7" fill="none" stroke="black" stroke-width="3"/>
<path d="M86,127h -7" fill="none" stroke="black" stroke-width="3"/>
<path d="M92,97h -13" fill="none" stroke="black" stroke-width="3"/>
<path d="M92,97h -13" fill="none" stroke="black" stroke-width="3"/>
<path d="M86,67h -7" fill="none" stroke="black" stroke-width="3"/>
<path d="M86,37h -7" fill="none" stroke="black" stroke-width="3"/>
<text x="46" y="404" fill="black" font-size="21" font-family="Times" font-weight="bold">
0.0
</text>
<text x="46" y="254" fill="black" font-size="21" font-family="Times" font-weight="bold">
0.5
</text>
<text x="46" y="105" fill="black" font-size="21" font-family="Times" font-weight="bold">
1.0
</text>
<path d="M522,396v -359" fill="none" stroke="black" stroke-width="3"/>
<path d="M508,396h 14" fill="none" stroke="black" stroke-width="3"/>
<path d="M515,366h 7" fill="none" stroke="black" stroke-width="3"/>
<path d="M515,336h 7" fill="none" stroke="black" stroke-width="3"/>
<path d="M515,306h 7" fill="none" stroke="black" stroke-width="3"/>
<path d="M515,277h 7" fill="none" stroke="black" stroke-width="3"/>
<path d="M508,247h 14" fill="none" stroke="black" stroke-width="3"/>
<path d="M515,217h 7" fill="none" stroke="black" stroke-width="3"/>
<path d="M515,187h 7" fill="none" stroke="black" stroke-width="3"/>
<path d="M515,157h 7" fill="none" stroke="black" stroke-width="3"/>
<path d="M515,127h 7" fill="none" stroke="black" stroke-width="3"/>
<path d="M508,97h 14" fill="none" stroke="black" stroke-width="3"/>
<path d="M508,97h 14" fill="none" stroke="black" stroke-width="3"/>
<path d="M515,67h 7" fill="none" stroke="black" stroke-width="3"/>
<path d="M515,37h 7" fill="none" stroke="black" stroke-width="3"/>
<rect x="113" y="-4" width="303" height="38" fill="white"/>
<text x="136" y="24" fill="black" font-size="30" font-family="Helvetica" font-weight="bold">
IGHD2-15_star_01
</text>
<path d="M89,393v -14" fill="none" stroke="#ff0000" stroke-width="6"/>
<g stroke="#ff0000" stroke-width="6" fill="#ff0000">
<circle cx="89" cy="396" r="3.5"/>
</g>
<path d="M110,163v -29" fill="none" stroke="#ff0000" stroke-width="6"/>
<path d="M110,127v -29" fill="none" stroke="#ff0000" stroke-width="6"/>
<path d="M99,130h 7" fill="none" stroke="#ff0000" stroke-width="6"/>
<path d="M113,130h 7" fill="none" stroke="#ff0000" stroke-width="6"/>
<g stroke="#ff0000" stroke-width="6" fill="#ff0000">
<circle cx="110" cy="130" r="3.5"/>
</g>
<path d="M130,393v -12" fill="none" stroke="#ff0000" stroke-width="6"/>
<g stroke="#ff0000" stroke-width="6" fill="#ff0000">
<circle cx="130" cy="396" r="3.5"/>
</g>
<path d="M150,393v -9" fill="none" stroke="#ff0000" stroke-width="6"/>
<g stroke="#ff0000" stroke-width="6" fill="#ff0000">
<circle cx="150" cy="396" r="3.5"/>
</g>
<path d="M170,396v -22" fill="none" stroke="#ff0000" stroke-width="6"/>
<path d="M170,368v -22" fill="none" stroke="#ff0000" stroke-width="6"/>
<path d="M160,371h 7" fill="none" stroke="#ff0000" stroke-width="6"/>
<path d="M173,371h 7" fill="none" stroke="#ff0000" stroke-width="6"/>
<g stroke="#ff0000" stroke-width="6" fill="#ff0000">
<circle cx="170" cy="371" r="3.5"/>
</g>
<path d="M190,393v -9" fill="none" stroke="#ff0000" stroke-width="6"/>
<g stroke="#ff0000" stroke-width="6" fill="#ff0000">
<circle cx="190" cy="396" r="3.5"/>
</g>
<path d="M210,260v -35" fill="none" stroke="#ff0000" stroke-width="6"/>
<path d="M210,218v -35" fill="none" stroke="#ff0000" stroke-width="6"/>
<path d="M200,222h 7" fill="none" stroke="#ff0000" stroke-width="6"/>
<path d="M213,222h 7" fill="none" stroke="#ff0000" stroke-width="6"/>
<g stroke="#ff0000" stroke-width="6" fill="#ff0000">
<circle cx="210" cy="222" r="3.5"/>
</g>
<path d="M230,393v -9" fill="none" stroke="#ff0000" stroke-width="6"/>
<g stroke="#ff0000" stroke-width="6" fill="#ff0000">
<circle cx="230" cy="396" r="3.5"/>
</g>
<path d="M250,393v -9" fill="none" stroke="#ff0000" stroke-width="6"/>
<g stroke="#ff0000" stroke-width="6" fill="#ff0000">
<circle cx="250" cy="396" r="3.5"/>
</g>
<path d="M270,356v -31" fill="none" stroke="#ff0000" stroke-width="6"/>
<path d="M270,318v -31" fill="none" stroke="#ff0000" stroke-width="6"/>
<path d="M260,321h 7" fill="none" stroke="#ff0000" stroke-width="6"/>
<path d="M274,321h 6" fill="none" stroke="#ff0000" stroke-width="6"/>
<g stroke="#ff0000" stroke-width="6" fill="#ff0000">
<circle cx="270" cy="321" r="3.5"/>
</g>
<path d="M290,377v -27" fill="none" stroke="#ff0000" stroke-width="6"/>
<path d="M290,343v -28" fill="none" stroke="#ff0000" stroke-width="6"/>
<path d="M280,346h 7" fill="none" stroke="#ff0000" stroke-width="6"/>
<path d="M294,346h 6" fill="none" stroke="#ff0000" stroke-width="6"/>
<g stroke="#ff0000" stroke-width="6" fill="#ff0000">
<circle cx="290" cy="346" r="3.5"/>
</g>
<path d="M311,396v -22" fill="none" stroke="#ff0000" stroke-width="6"/>
<path d="M311,368v -22" fill="none" stroke="#ff0000" stroke-width="6"/>
<path d="M300,371h 7" fill="none" stroke="#ff0000" stroke-width="6"/>
<path d="M314,371h 7" fill="none" stroke="#ff0000" stroke-width="6"/>
<g stroke="#ff0000" stroke-width="6" fill="#ff0000">
<circle cx="311" cy="371" r="3.5"/>
</g>
<path d="M331,310v -35" fill="none" stroke="#ff0000" stroke-width="6"/>
<path d="M331,268v -35" fill="none" stroke="#ff0000" stroke-width="6"/>
<path d="M321,272h 6" fill="none" stroke="#ff0000" stroke-width="6"/>
<path d="M334,272h 7" fill="none" stroke="#ff0000" stroke-width="6"/>
<g stroke="#ff0000" stroke-width="6" fill="#ff0000">
<circle cx="331" cy="272" r="3.5"/>
</g>
<path d="M351,356v -31" fill="none" stroke="#ff0000" stroke-width="6"/>
<path d="M351,318v -31" fill="none" stroke="#ff0000" stroke-width="6"/>
<path d="M341,321h 6" fill="none" stroke="#ff0000" stroke-width="6"/>
<path d="M354,321h 7" fill="none" stroke="#ff0000" stroke-width="6"/>
<g stroke="#ff0000" stroke-width="6" fill="#ff0000">
<circle cx="351" cy="321" r="3.5"/>
</g>
<path d="M371,393v -9" fill="none" stroke="#ff0000" stroke-width="6"/>
<g stroke="#ff0000" stroke-width="6" fill="#ff0000">
<circle cx="371" cy="396" r="3.5"/>
</g>
<path d="M391,396v -22" fill="none" stroke="#ff0000" stroke-width="6"/>
<path d="M391,368v -22" fill="none" stroke="#ff0000" stroke-width="6"/>
<path d="M381,371h 7" fill="none" stroke="#ff0000" stroke-width="6"/>
<path d="M394,371h 7" fill="none" stroke="#ff0000" stroke-width="6"/>
<g stroke="#ff0000" stroke-width="6" fill="#ff0000">
<circle cx="391" cy="371" r="3.5"/>
</g>
<path d="M411,396v -22" fill="none" stroke="#ff0000" stroke-width="6"/>
<path d="M411,368v -22" fill="none" stroke="#ff0000" stroke-width="6"/>
<path d="M401,371h 7" fill="none" stroke="#ff0000" stroke-width="6"/>
<path d="M414,371h 7" fill="none" stroke="#ff0000" stroke-width="6"/>
<g stroke="#ff0000" stroke-width="6" fill="#ff0000">
<circle cx="411" cy="371" r="3.5"/>
</g>
<path d="M431,356v -31" fill="none" stroke="#ff0000" stroke-width="6"/>
<path d="M431,318v -31" fill="none" stroke="#ff0000" stroke-width="6"/>
<path d="M421,321h 7" fill="none" stroke="#ff0000" stroke-width="6"/>
<path d="M434,321h 7" fill="none" stroke="#ff0000" stroke-width="6"/>
<g stroke="#ff0000" stroke-width="6" fill="#ff0000">
<circle cx="431" cy="321" r="3.5"/>
</g>
<path d="M451,396v -22" fill="none" stroke="#ff0000" stroke-width="6"/>
<path d="M451,368v -22" fill="none" stroke="#ff0000" stroke-width="6"/>
<path d="M441,371h 7" fill="none" stroke="#ff0000" stroke-width="6"/>
<path d="M454,371h 7" fill="none" stroke="#ff0000" stroke-width="6"/>
<g stroke="#ff0000" stroke-width="6" fill="#ff0000">
<circle cx="451" cy="371" r="3.5"/>
</g>
<path d="M471,393v -9" fill="none" stroke="#ff0000" stroke-width="6"/>
<g stroke="#ff0000" stroke-width="6" fill="#ff0000">
<circle cx="471" cy="396" r="3.5"/>
</g>
<path d="M491,393v -10" fill="none" stroke="#ff0000" stroke-width="6"/>
<g stroke="#ff0000" stroke-width="6" fill="#ff0000">
<circle cx="491" cy="396" r="3.5"/>
</g>
<path d="M512,143v -43" fill="none" stroke="#ff0000" stroke-width="6"/>
<path d="M512,94v -43" fill="none" stroke="#ff0000" stroke-width="6"/>
<path d="M501,97h 7" fill="none" stroke="#ff0000" stroke-width="6"/>
<path d="M515,97h 7" fill="none" stroke="#ff0000" stroke-width="6"/>
<g stroke="#ff0000" stroke-width="6" fill="#ff0000">
<circle cx="512" cy="97" r="3.5"/>
</g>
<path d="M332,107h 42" fill="none" stroke="#ff0000" stroke-width="6"/>
<rect x="113" y="-4" width="303" height="38" fill="white"/>
<text x="136" y="24" fill="black" font-size="30" font-family="Helvetica" font-weight="bold">
IGHD2-15_star_01
</text></svg>
