<?xml version="1.0" standalone="no"?>
<svg width="567" height="466" viewBox="0 0 567 466" xmlns="http://www.w3.org/2000/svg">
<title>
/bbx/output/_plots/example/sw/mute-freqs/d/plots/IGHD3-10_star_01.svg
</title>
<desc>
Creator: ROOT Version 5.34/14
CreationDate: Thu Jul 30 17:05:55 2015</desc>
<defs>
</defs>
<rect x="0" y="0" width="567" height="466" fill="white"/>
<rect x="79" y="37" width="443" height="359" fill="none" stroke="black"/>
<rect x="79" y="37" width="443" height="359" fill="none" stroke="black"/>
<path d="M79,396h 443" fill="none" stroke="black" stroke-width="3"/>
<path d="M90,385v 11" fill="none" stroke="black" stroke-width="3"/>
<path d="M111,391v 5" fill="none" stroke="black" stroke-width="3"/>
<path d="M132,391v 5" fill="none" stroke="black" stroke-width="3"/>
<path d="M153,391v 5" fill="none" stroke="black" stroke-width="3"/>
<path d="M174,391v 5" fill="none" stroke="black" stroke-width="3"/>
<path d="M195,385v 11" fill="none" stroke="black" stroke-width="3"/>
<path d="M216,391v 5" fill="none" stroke="black" stroke-width="3"/>
<path d="M237,391v 5" fill="none" stroke="black" stroke-width="3"/>
<path d="M258,391v 5" fill="none" stroke="black" stroke-width="3"/>
<path d="M279,391v 5" fill="none" stroke="black" stroke-width="3"/>
<path d="M300,385v 11" fill="none" stroke="black" stroke-width="3"/>
<path d="M322,391v 5" fill="none" stroke="black" stroke-width="3"/>
<path d="M343,391v 5" fill="none" stroke="black" stroke-width="3"/>
<path d="M364,391v 5" fill="none" stroke="black" stroke-width="3"/>
<path d="M385,391v 5" fill="none" stroke="black" stroke-width="3"/>
<path d="M406,385v 11" fill="none" stroke="black" stroke-width="3"/>
<path d="M427,391v 5" fill="none" stroke="black" stroke-width="3"/>
<path d="M448,391v 5" fill="none" stroke="black" stroke-width="3"/>
<path d="M469,391v 5" fill="none" stroke="black" stroke-width="3"/>
<path d="M490,391v 5" fill="none" stroke="black" stroke-width="3"/>
<path d="M511,385v 11" fill="none" stroke="black" stroke-width="3"/>
<path d="M90,385v 11" fill="none" stroke="black" stroke-width="3"/>
<path d="M511,385v 11" fill="none" stroke="black" stroke-width="3"/>
<text x="84" y="416" fill="black" font-size="21" font-family="Times" font-weight="bold">
0
</text>
<text x="189" y="416" fill="black" font-size="21" font-family="Times" font-weight="bold">
5
</text>
<text x="288" y="416" fill="black" font-size="21" font-family="Times" font-weight="bold">
10
</text>
<text x="394" y="416" fill="black" font-size="21" font-family="Times" font-weight="bold">
15
</text>
<text x="499" y="416" fill="black" font-size="21" font-family="Times" font-weight="bold">
20
</text>
<path d="M79,37h 443" fill="none" stroke="black" stroke-width="3"/>
<path d="M90,48v -11" fill="none" stroke="black" stroke-width="3"/>
<path d="M111,43v -6" fill="none" stroke="black" stroke-width="3"/>
<path d="M132,43v -6" fill="none" stroke="black" stroke-width="3"/>
<path d="M153,43v -6" fill="none" stroke="black" stroke-width="3"/>
<path d="M174,43v -6" fill="none" stroke="black" stroke-width="3"/>
<path d="M195,48v -11" fill="none" stroke="black" stroke-width="3"/>
<path d="M216,43v -6" fill="none" stroke="black" stroke-width="3"/>
<path d="M237,43v -6" fill="none" stroke="black" stroke-width="3"/>
<path d="M258,43v -6" fill="none" stroke="black" stroke-width="3"/>
<path d="M279,43v -6" fill="none" stroke="black" stroke-width="3"/>
<path d="M300,48v -11" fill="none" stroke="black" stroke-width="3"/>
<path d="M322,43v -6" fill="none" stroke="black" stroke-width="3"/>
<path d="M343,43v -6" fill="none" stroke="black" stroke-width="3"/>
<path d="M364,43v -6" fill="none" stroke="black" stroke-width="3"/>
<path d="M385,43v -6" fill="none" stroke="black" stroke-width="3"/>
<path d="M406,48v -11" fill="none" stroke="black" stroke-width="3"/>
<path d="M427,43v -6" fill="none" stroke="black" stroke-width="3"/>
<path d="M448,43v -6" fill="none" stroke="black" stroke-width="3"/>
<path d="M469,43v -6" fill="none" stroke="black" stroke-width="3"/>
<path d="M490,43v -6" fill="none" stroke="black" stroke-width="3"/>
<path d="M511,48v -11" fill="none" stroke="black" stroke-width="3"/>
<path d="M90,48v -11" fill="none" stroke="black" stroke-width="3"/>
<path d="M511,48v -11" fill="none" stroke="black" stroke-width="3"/>
<path d="M79,396v -359" fill="none" stroke="black" stroke-width="3"/>
<path d="M92,396h -13" fill="none" stroke="black" stroke-width="3"/>
<path d="M86,378h -7" fill="none" stroke="black" stroke-width="3"/>
<path d="M86,360h -7" fill="none" stroke="black" stroke-width="3"/>
<path d="M86,342h -7" fill="none" stroke="black" stroke-width="3"/>
<path d="M86,324h -7" fill="none" stroke="black" stroke-width="3"/>
<path d="M92,306h -13" fill="none" stroke="black" stroke-width="3"/>
<path d="M86,288h -7" fill="none" stroke="black" stroke-width="3"/>
<path d="M86,271h -7" fill="none" stroke="black" stroke-width="3"/>
<path d="M86,253h -7" fill="none" stroke="black" stroke-width="3"/>
<path d="M86,235h -7" fill="none" stroke="black" stroke-width="3"/>
<path d="M92,217h -13" fill="none" stroke="black" stroke-width="3"/>
<path d="M86,199h -7" fill="none" stroke="black" stroke-width="3"/>
<path d="M86,181h -7" fill="none" stroke="black" stroke-width="3"/>
<path d="M86,163h -7" fill="none" stroke="black" stroke-width="3"/>
<path d="M86,145h -7" fill="none" stroke="black" stroke-width="3"/>
<path d="M92,127h -13" fill="none" stroke="black" stroke-width="3"/>
<path d="M86,109h -7" fill="none" stroke="black" stroke-width="3"/>
<path d="M86,91h -7" fill="none" stroke="black" stroke-width="3"/>
<path d="M86,73h -7" fill="none" stroke="black" stroke-width="3"/>
<path d="M86,55h -7" fill="none" stroke="black" stroke-width="3"/>
<path d="M92,37h -13" fill="none" stroke="black" stroke-width="3"/>
<path d="M92,37h -13" fill="none" stroke="black" stroke-width="3"/>
<text x="46" y="404" fill="black" font-size="21" font-family="Times" font-weight="bold">
0.0
</text>
<text x="46" y="314" fill="black" font-size="21" font-family="Times" font-weight="bold">
0.1
</text>
<text x="46" y="224" fill="black" font-size="21" font-family="Times" font-weight="bold">
0.2
</text>
<text x="46" y="134" fill="black" font-size="21" font-family="Times" font-weight="bold">
0.3
</text>
<text x="46" y="45" fill="black" font-size="21" font-family="Times" font-weight="bold">
0.4
</text>
<path d="M522,396v -359" fill="none" stroke="black" stroke-width="3"/>
<path d="M508,396h 14" fill="none" stroke="black" stroke-width="3"/>
<path d="M515,378h 7" fill="none" stroke="black" stroke-width="3"/>
<path d="M515,360h 7" fill="none" stroke="black" stroke-width="3"/>
<path d="M515,342h 7" fill="none" stroke="black" stroke-width="3"/>
<path d="M515,324h 7" fill="none" stroke="black" stroke-width="3"/>
<path d="M508,306h 14" fill="none" stroke="black" stroke-width="3"/>
<path d="M515,288h 7" fill="none" stroke="black" stroke-width="3"/>
<path d="M515,271h 7" fill="none" stroke="black" stroke-width="3"/>
<path d="M515,253h 7" fill="none" stroke="black" stroke-width="3"/>
<path d="M515,235h 7" fill="none" stroke="black" stroke-width="3"/>
<path d="M508,217h 14" fill="none" stroke="black" stroke-width="3"/>
<path d="M515,199h 7" fill="none" stroke="black" stroke-width="3"/>
<path d="M515,181h 7" fill="none" stroke="black" stroke-width="3"/>
<path d="M515,163h 7" fill="none" stroke="black" stroke-width="3"/>
<path d="M515,145h 7" fill="none" stroke="black" stroke-width="3"/>
<path d="M508,127h 14" fill="none" stroke="black" stroke-width="3"/>
<path d="M515,109h 7" fill="none" stroke="black" stroke-width="3"/>
<path d="M515,91h 7" fill="none" stroke="black" stroke-width="3"/>
<path d="M515,73h 7" fill="none" stroke="black" stroke-width="3"/>
<path d="M515,55h 7" fill="none" stroke="black" stroke-width="3"/>
<path d="M508,37h 14" fill="none" stroke="black" stroke-width="3"/>
<path d="M508,37h 14" fill="none" stroke="black" stroke-width="3"/>
<rect x="113" y="-4" width="303" height="38" fill="white"/>
<text x="136" y="24" fill="black" font-size="30" font-family="Helvetica" font-weight="bold">
IGHD3-10_star_01
</text>
<path d="M90,393v -134" fill="none" stroke="#ff0000" stroke-width="6"/>
<g stroke="#ff0000" stroke-width="6" fill="#ff0000">
<circle cx="90" cy="396" r="3.5"/>
</g>
<path d="M111,393v -105" fill="none" stroke="#ff0000" stroke-width="6"/>
<g stroke="#ff0000" stroke-width="6" fill="#ff0000">
<circle cx="111" cy="396" r="3.5"/>
</g>
<path d="M132,393v -105" fill="none" stroke="#ff0000" stroke-width="6"/>
<g stroke="#ff0000" stroke-width="6" fill="#ff0000">
<circle cx="132" cy="396" r="3.5"/>
</g>
<path d="M153,384v -113" fill="none" stroke="#ff0000" stroke-width="6"/>
<path d="M153,265v -113" fill="none" stroke="#ff0000" stroke-width="6"/>
<path d="M143,268h 7" fill="none" stroke="#ff0000" stroke-width="6"/>
<path d="M156,268h 8" fill="none" stroke="#ff0000" stroke-width="6"/>
<g stroke="#ff0000" stroke-width="6" fill="#ff0000">
<circle cx="153" cy="268" r="3.5"/>
</g>
<path d="M174,393v -44" fill="none" stroke="#ff0000" stroke-width="6"/>
<g stroke="#ff0000" stroke-width="6" fill="#ff0000">
<circle cx="174" cy="396" r="3.5"/>
</g>
<path d="M195,393v -93" fill="none" stroke="#ff0000" stroke-width="6"/>
<path d="M195,293v -93" fill="none" stroke="#ff0000" stroke-width="6"/>
<path d="M185,296h 7" fill="none" stroke="#ff0000" stroke-width="6"/>
<path d="M198,296h 8" fill="none" stroke="#ff0000" stroke-width="6"/>
<g stroke="#ff0000" stroke-width="6" fill="#ff0000">
<circle cx="195" cy="296" r="3.5"/>
</g>
<path d="M216,393v -44" fill="none" stroke="#ff0000" stroke-width="6"/>
<g stroke="#ff0000" stroke-width="6" fill="#ff0000">
<circle cx="216" cy="396" r="3.5"/>
</g>
<path d="M237,393v -93" fill="none" stroke="#ff0000" stroke-width="6"/>
<path d="M237,293v -93" fill="none" stroke="#ff0000" stroke-width="6"/>
<path d="M227,296h 7" fill="none" stroke="#ff0000" stroke-width="6"/>
<path d="M241,296h 7" fill="none" stroke="#ff0000" stroke-width="6"/>
<g stroke="#ff0000" stroke-width="6" fill="#ff0000">
<circle cx="237" cy="296" r="3.5"/>
</g>
<path d="M258,222v -122" fill="none" stroke="#ff0000" stroke-width="6"/>
<path d="M258,94v -57" fill="none" stroke="#ff0000" stroke-width="6"/>
<path d="M248,97h 7" fill="none" stroke="#ff0000" stroke-width="6"/>
<path d="M262,97h 7" fill="none" stroke="#ff0000" stroke-width="6"/>
<g stroke="#ff0000" stroke-width="6" fill="#ff0000">
<circle cx="258" cy="97" r="3.5"/>
</g>
<path d="M279,393v -44" fill="none" stroke="#ff0000" stroke-width="6"/>
<g stroke="#ff0000" stroke-width="6" fill="#ff0000">
<circle cx="279" cy="396" r="3.5"/>
</g>
<path d="M300,393v -44" fill="none" stroke="#ff0000" stroke-width="6"/>
<g stroke="#ff0000" stroke-width="6" fill="#ff0000">
<circle cx="300" cy="396" r="3.5"/>
</g>
<path d="M322,393v -44" fill="none" stroke="#ff0000" stroke-width="6"/>
<g stroke="#ff0000" stroke-width="6" fill="#ff0000">
<circle cx="322" cy="396" r="3.5"/>
</g>
<path d="M343,393v -44" fill="none" stroke="#ff0000" stroke-width="6"/>
<g stroke="#ff0000" stroke-width="6" fill="#ff0000">
<circle cx="343" cy="396" r="3.5"/>
</g>
<path d="M364,393v -44" fill="none" stroke="#ff0000" stroke-width="6"/>
<g stroke="#ff0000" stroke-width="6" fill="#ff0000">
<circle cx="364" cy="396" r="3.5"/>
</g>
<path d="M385,393v -44" fill="none" stroke="#ff0000" stroke-width="6"/>
<g stroke="#ff0000" stroke-width="6" fill="#ff0000">
<circle cx="385" cy="396" r="3.5"/>
</g>
<path d="M406,393v -44" fill="none" stroke="#ff0000" stroke-width="6"/>
<g stroke="#ff0000" stroke-width="6" fill="#ff0000">
<circle cx="406" cy="396" r="3.5"/>
</g>
<path d="M427,393v -93" fill="none" stroke="#ff0000" stroke-width="6"/>
<path d="M427,293v -93" fill="none" stroke="#ff0000" stroke-width="6"/>
<path d="M416,296h 8" fill="none" stroke="#ff0000" stroke-width="6"/>
<path d="M430,296h 7" fill="none" stroke="#ff0000" stroke-width="6"/>
<g stroke="#ff0000" stroke-width="6" fill="#ff0000">
<circle cx="427" cy="296" r="3.5"/>
</g>
<path d="M448,393v -44" fill="none" stroke="#ff0000" stroke-width="6"/>
<g stroke="#ff0000" stroke-width="6" fill="#ff0000">
<circle cx="448" cy="396" r="3.5"/>
</g>
<path d="M469,389v -102" fill="none" stroke="#ff0000" stroke-width="6"/>
<path d="M469,281v -102" fill="none" stroke="#ff0000" stroke-width="6"/>
<path d="M458,284h 8" fill="none" stroke="#ff0000" stroke-width="6"/>
<path d="M472,284h 7" fill="none" stroke="#ff0000" stroke-width="6"/>
<g stroke="#ff0000" stroke-width="6" fill="#ff0000">
<circle cx="469" cy="284" r="3.5"/>
</g>
<path d="M490,393v -48" fill="none" stroke="#ff0000" stroke-width="6"/>
<g stroke="#ff0000" stroke-width="6" fill="#ff0000">
<circle cx="490" cy="396" r="3.5"/>
</g>
<path d="M511,393v -186" fill="none" stroke="#ff0000" stroke-width="6"/>
<g stroke="#ff0000" stroke-width="6" fill="#ff0000">
<circle cx="511" cy="396" r="3.5"/>
</g>
<path d="M332,107h 42" fill="none" stroke="#ff0000" stroke-width="6"/>
<rect x="113" y="-4" width="303" height="38" fill="white"/>
<text x="136" y="24" fill="black" font-size="30" font-family="Helvetica" font-weight="bold">
IGHD3-10_star_01
</text></svg>
