<?xml version="1.0" standalone="no"?>
<svg width="567" height="466" viewBox="0 0 567 466" xmlns="http://www.w3.org/2000/svg">
<title>
/bbx/output/_plots/example/sw/true/mute-freqs/v/plots/IGHV3-9_star_03.svg
</title>
<desc>
Creator: ROOT Version 5.34/14
CreationDate: Wed Aug 19 19:38:14 2015</desc>
<defs>
</defs>
<rect x="0" y="0" width="567" height="466" fill="white"/>
<rect x="79" y="37" width="443" height="359" fill="none" stroke="black"/>
<rect x="79" y="37" width="443" height="359" fill="none" stroke="black"/>
<path d="M79,396h 443" fill="none" stroke="black" stroke-width="3"/>
<path d="M196,385v 11" fill="none" stroke="black" stroke-width="3"/>
<path d="M226,391v 5" fill="none" stroke="black" stroke-width="3"/>
<path d="M256,391v 5" fill="none" stroke="black" stroke-width="3"/>
<path d="M286,391v 5" fill="none" stroke="black" stroke-width="3"/>
<path d="M315,385v 11" fill="none" stroke="black" stroke-width="3"/>
<path d="M345,391v 5" fill="none" stroke="black" stroke-width="3"/>
<path d="M375,391v 5" fill="none" stroke="black" stroke-width="3"/>
<path d="M405,391v 5" fill="none" stroke="black" stroke-width="3"/>
<path d="M435,385v 11" fill="none" stroke="black" stroke-width="3"/>
<path d="M196,385v 11" fill="none" stroke="black" stroke-width="3"/>
<path d="M166,391v 5" fill="none" stroke="black" stroke-width="3"/>
<path d="M136,391v 5" fill="none" stroke="black" stroke-width="3"/>
<path d="M106,391v 5" fill="none" stroke="black" stroke-width="3"/>
<path d="M435,385v 11" fill="none" stroke="black" stroke-width="3"/>
<path d="M465,391v 5" fill="none" stroke="black" stroke-width="3"/>
<path d="M495,391v 5" fill="none" stroke="black" stroke-width="3"/>
<text x="179" y="416" fill="black" font-size="21" font-family="Times" font-weight="bold">
240
</text>
<text x="299" y="416" fill="black" font-size="21" font-family="Times" font-weight="bold">
260
</text>
<text x="418" y="416" fill="black" font-size="21" font-family="Times" font-weight="bold">
280
</text>
<path d="M79,37h 443" fill="none" stroke="black" stroke-width="3"/>
<path d="M196,48v -11" fill="none" stroke="black" stroke-width="3"/>
<path d="M226,43v -6" fill="none" stroke="black" stroke-width="3"/>
<path d="M256,43v -6" fill="none" stroke="black" stroke-width="3"/>
<path d="M286,43v -6" fill="none" stroke="black" stroke-width="3"/>
<path d="M315,48v -11" fill="none" stroke="black" stroke-width="3"/>
<path d="M345,43v -6" fill="none" stroke="black" stroke-width="3"/>
<path d="M375,43v -6" fill="none" stroke="black" stroke-width="3"/>
<path d="M405,43v -6" fill="none" stroke="black" stroke-width="3"/>
<path d="M435,48v -11" fill="none" stroke="black" stroke-width="3"/>
<path d="M196,48v -11" fill="none" stroke="black" stroke-width="3"/>
<path d="M166,43v -6" fill="none" stroke="black" stroke-width="3"/>
<path d="M136,43v -6" fill="none" stroke="black" stroke-width="3"/>
<path d="M106,43v -6" fill="none" stroke="black" stroke-width="3"/>
<path d="M435,48v -11" fill="none" stroke="black" stroke-width="3"/>
<path d="M465,43v -6" fill="none" stroke="black" stroke-width="3"/>
<path d="M495,43v -6" fill="none" stroke="black" stroke-width="3"/>
<path d="M79,396v -359" fill="none" stroke="black" stroke-width="3"/>
<path d="M92,396h -13" fill="none" stroke="black" stroke-width="3"/>
<path d="M86,366h -7" fill="none" stroke="black" stroke-width="3"/>
<path d="M86,336h -7" fill="none" stroke="black" stroke-width="3"/>
<path d="M86,306h -7" fill="none" stroke="black" stroke-width="3"/>
<path d="M86,277h -7" fill="none" stroke="black" stroke-width="3"/>
<path d="M92,247h -13" fill="none" stroke="black" stroke-width="3"/>
<path d="M86,217h -7" fill="none" stroke="black" stroke-width="3"/>
<path d="M86,187h -7" fill="none" stroke="black" stroke-width="3"/>
<path d="M86,157h -7" fill="none" stroke="black" stroke-width="3"/>
<path d="M86,127h -7" fill="none" stroke="black" stroke-width="3"/>
<path d="M92,97h -13" fill="none" stroke="black" stroke-width="3"/>
<path d="M92,97h -13" fill="none" stroke="black" stroke-width="3"/>
<path d="M86,67h -7" fill="none" stroke="black" stroke-width="3"/>
<path d="M86,37h -7" fill="none" stroke="black" stroke-width="3"/>
<text x="46" y="404" fill="black" font-size="21" font-family="Times" font-weight="bold">
0.0
</text>
<text x="46" y="254" fill="black" font-size="21" font-family="Times" font-weight="bold">
0.5
</text>
<text x="46" y="105" fill="black" font-size="21" font-family="Times" font-weight="bold">
1.0
</text>
<path d="M522,396v -359" fill="none" stroke="black" stroke-width="3"/>
<path d="M508,396h 14" fill="none" stroke="black" stroke-width="3"/>
<path d="M515,366h 7" fill="none" stroke="black" stroke-width="3"/>
<path d="M515,336h 7" fill="none" stroke="black" stroke-width="3"/>
<path d="M515,306h 7" fill="none" stroke="black" stroke-width="3"/>
<path d="M515,277h 7" fill="none" stroke="black" stroke-width="3"/>
<path d="M508,247h 14" fill="none" stroke="black" stroke-width="3"/>
<path d="M515,217h 7" fill="none" stroke="black" stroke-width="3"/>
<path d="M515,187h 7" fill="none" stroke="black" stroke-width="3"/>
<path d="M515,157h 7" fill="none" stroke="black" stroke-width="3"/>
<path d="M515,127h 7" fill="none" stroke="black" stroke-width="3"/>
<path d="M508,97h 14" fill="none" stroke="black" stroke-width="3"/>
<path d="M508,97h 14" fill="none" stroke="black" stroke-width="3"/>
<path d="M515,67h 7" fill="none" stroke="black" stroke-width="3"/>
<path d="M515,37h 7" fill="none" stroke="black" stroke-width="3"/>
<rect x="113" y="-4" width="285" height="38" fill="white"/>
<text x="134" y="24" fill="black" font-size="30" font-family="Helvetica" font-weight="bold">
IGHV3-9_star_03
</text>
<path d="M82,393v -33" fill="none" stroke="#ff0000" stroke-width="6"/>
<g stroke="#ff0000" stroke-width="6" fill="#ff0000">
<circle cx="82" cy="396" r="3.5"/>
</g>
<path d="M88,393v -33" fill="none" stroke="#ff0000" stroke-width="6"/>
<g stroke="#ff0000" stroke-width="6" fill="#ff0000">
<circle cx="88" cy="396" r="3.5"/>
</g>
<path d="M94,393v -33" fill="none" stroke="#ff0000" stroke-width="6"/>
<g stroke="#ff0000" stroke-width="6" fill="#ff0000">
<circle cx="94" cy="396" r="3.5"/>
</g>
<path d="M100,393v -33" fill="none" stroke="#ff0000" stroke-width="6"/>
<g stroke="#ff0000" stroke-width="6" fill="#ff0000">
<circle cx="100" cy="396" r="3.5"/>
</g>
<path d="M106,393v -33" fill="none" stroke="#ff0000" stroke-width="6"/>
<g stroke="#ff0000" stroke-width="6" fill="#ff0000">
<circle cx="106" cy="396" r="3.5"/>
</g>
<path d="M112,359v -59" fill="none" stroke="#ff0000" stroke-width="6"/>
<path d="M112,293v -59" fill="none" stroke="#ff0000" stroke-width="6"/>
<g stroke="#ff0000" stroke-width="6" fill="#ff0000">
<circle cx="112" cy="296" r="3.5"/>
</g>
<path d="M118,393v -33" fill="none" stroke="#ff0000" stroke-width="6"/>
<g stroke="#ff0000" stroke-width="6" fill="#ff0000">
<circle cx="118" cy="396" r="3.5"/>
</g>
<path d="M124,393v -33" fill="none" stroke="#ff0000" stroke-width="6"/>
<g stroke="#ff0000" stroke-width="6" fill="#ff0000">
<circle cx="124" cy="396" r="3.5"/>
</g>
<path d="M130,393v -33" fill="none" stroke="#ff0000" stroke-width="6"/>
<g stroke="#ff0000" stroke-width="6" fill="#ff0000">
<circle cx="130" cy="396" r="3.5"/>
</g>
<path d="M136,393v -33" fill="none" stroke="#ff0000" stroke-width="6"/>
<g stroke="#ff0000" stroke-width="6" fill="#ff0000">
<circle cx="136" cy="396" r="3.5"/>
</g>
<path d="M142,393v -33" fill="none" stroke="#ff0000" stroke-width="6"/>
<g stroke="#ff0000" stroke-width="6" fill="#ff0000">
<circle cx="142" cy="396" r="3.5"/>
</g>
<path d="M148,393v -33" fill="none" stroke="#ff0000" stroke-width="6"/>
<g stroke="#ff0000" stroke-width="6" fill="#ff0000">
<circle cx="148" cy="396" r="3.5"/>
</g>
<path d="M154,393v -33" fill="none" stroke="#ff0000" stroke-width="6"/>
<g stroke="#ff0000" stroke-width="6" fill="#ff0000">
<circle cx="154" cy="396" r="3.5"/>
</g>
<path d="M160,393v -33" fill="none" stroke="#ff0000" stroke-width="6"/>
<g stroke="#ff0000" stroke-width="6" fill="#ff0000">
<circle cx="160" cy="396" r="3.5"/>
</g>
<path d="M166,393v -33" fill="none" stroke="#ff0000" stroke-width="6"/>
<g stroke="#ff0000" stroke-width="6" fill="#ff0000">
<circle cx="166" cy="396" r="3.5"/>
</g>
<path d="M172,359v -59" fill="none" stroke="#ff0000" stroke-width="6"/>
<path d="M172,293v -59" fill="none" stroke="#ff0000" stroke-width="6"/>
<g stroke="#ff0000" stroke-width="6" fill="#ff0000">
<circle cx="172" cy="296" r="3.5"/>
</g>
<path d="M178,393v -33" fill="none" stroke="#ff0000" stroke-width="6"/>
<g stroke="#ff0000" stroke-width="6" fill="#ff0000">
<circle cx="178" cy="396" r="3.5"/>
</g>
<path d="M184,393v -33" fill="none" stroke="#ff0000" stroke-width="6"/>
<g stroke="#ff0000" stroke-width="6" fill="#ff0000">
<circle cx="184" cy="396" r="3.5"/>
</g>
<path d="M190,393v -33" fill="none" stroke="#ff0000" stroke-width="6"/>
<g stroke="#ff0000" stroke-width="6" fill="#ff0000">
<circle cx="190" cy="396" r="3.5"/>
</g>
<path d="M196,393v -33" fill="none" stroke="#ff0000" stroke-width="6"/>
<g stroke="#ff0000" stroke-width="6" fill="#ff0000">
<circle cx="196" cy="396" r="3.5"/>
</g>
<path d="M202,393v -33" fill="none" stroke="#ff0000" stroke-width="6"/>
<g stroke="#ff0000" stroke-width="6" fill="#ff0000">
<circle cx="202" cy="396" r="3.5"/>
</g>
<path d="M208,393v -33" fill="none" stroke="#ff0000" stroke-width="6"/>
<g stroke="#ff0000" stroke-width="6" fill="#ff0000">
<circle cx="208" cy="396" r="3.5"/>
</g>
<path d="M214,260v -60" fill="none" stroke="#ff0000" stroke-width="6"/>
<path d="M214,194v -60" fill="none" stroke="#ff0000" stroke-width="6"/>
<g stroke="#ff0000" stroke-width="6" fill="#ff0000">
<circle cx="214" cy="197" r="3.5"/>
</g>
<path d="M220,393v -33" fill="none" stroke="#ff0000" stroke-width="6"/>
<g stroke="#ff0000" stroke-width="6" fill="#ff0000">
<circle cx="220" cy="396" r="3.5"/>
</g>
<path d="M226,359v -59" fill="none" stroke="#ff0000" stroke-width="6"/>
<path d="M226,293v -59" fill="none" stroke="#ff0000" stroke-width="6"/>
<g stroke="#ff0000" stroke-width="6" fill="#ff0000">
<circle cx="226" cy="296" r="3.5"/>
</g>
<path d="M232,393v -33" fill="none" stroke="#ff0000" stroke-width="6"/>
<g stroke="#ff0000" stroke-width="6" fill="#ff0000">
<circle cx="232" cy="396" r="3.5"/>
</g>
<path d="M238,393v -33" fill="none" stroke="#ff0000" stroke-width="6"/>
<g stroke="#ff0000" stroke-width="6" fill="#ff0000">
<circle cx="238" cy="396" r="3.5"/>
</g>
<path d="M244,393v -33" fill="none" stroke="#ff0000" stroke-width="6"/>
<g stroke="#ff0000" stroke-width="6" fill="#ff0000">
<circle cx="244" cy="396" r="3.5"/>
</g>
<path d="M250,393v -33" fill="none" stroke="#ff0000" stroke-width="6"/>
<g stroke="#ff0000" stroke-width="6" fill="#ff0000">
<circle cx="250" cy="396" r="3.5"/>
</g>
<path d="M256,393v -33" fill="none" stroke="#ff0000" stroke-width="6"/>
<g stroke="#ff0000" stroke-width="6" fill="#ff0000">
<circle cx="256" cy="396" r="3.5"/>
</g>
<path d="M262,260v -60" fill="none" stroke="#ff0000" stroke-width="6"/>
<path d="M262,194v -60" fill="none" stroke="#ff0000" stroke-width="6"/>
<g stroke="#ff0000" stroke-width="6" fill="#ff0000">
<circle cx="262" cy="197" r="3.5"/>
</g>
<path d="M268,393v -33" fill="none" stroke="#ff0000" stroke-width="6"/>
<g stroke="#ff0000" stroke-width="6" fill="#ff0000">
<circle cx="268" cy="396" r="3.5"/>
</g>
<path d="M274,393v -33" fill="none" stroke="#ff0000" stroke-width="6"/>
<g stroke="#ff0000" stroke-width="6" fill="#ff0000">
<circle cx="274" cy="396" r="3.5"/>
</g>
<path d="M280,393v -33" fill="none" stroke="#ff0000" stroke-width="6"/>
<g stroke="#ff0000" stroke-width="6" fill="#ff0000">
<circle cx="280" cy="396" r="3.5"/>
</g>
<path d="M286,393v -33" fill="none" stroke="#ff0000" stroke-width="6"/>
<g stroke="#ff0000" stroke-width="6" fill="#ff0000">
<circle cx="286" cy="396" r="3.5"/>
</g>
<path d="M292,393v -33" fill="none" stroke="#ff0000" stroke-width="6"/>
<g stroke="#ff0000" stroke-width="6" fill="#ff0000">
<circle cx="292" cy="396" r="3.5"/>
</g>
<path d="M297,359v -59" fill="none" stroke="#ff0000" stroke-width="6"/>
<path d="M297,293v -59" fill="none" stroke="#ff0000" stroke-width="6"/>
<g stroke="#ff0000" stroke-width="6" fill="#ff0000">
<circle cx="297" cy="296" r="3.5"/>
</g>
<path d="M303,393v -33" fill="none" stroke="#ff0000" stroke-width="6"/>
<g stroke="#ff0000" stroke-width="6" fill="#ff0000">
<circle cx="303" cy="396" r="3.5"/>
</g>
<path d="M309,133v -33" fill="none" stroke="#ff0000" stroke-width="6"/>
<path d="M309,94v -33" fill="none" stroke="#ff0000" stroke-width="6"/>
<g stroke="#ff0000" stroke-width="6" fill="#ff0000">
<circle cx="309" cy="97" r="3.5"/>
</g>
<path d="M315,393v -33" fill="none" stroke="#ff0000" stroke-width="6"/>
<g stroke="#ff0000" stroke-width="6" fill="#ff0000">
<circle cx="315" cy="396" r="3.5"/>
</g>
<path d="M321,359v -59" fill="none" stroke="#ff0000" stroke-width="6"/>
<path d="M321,293v -59" fill="none" stroke="#ff0000" stroke-width="6"/>
<g stroke="#ff0000" stroke-width="6" fill="#ff0000">
<circle cx="321" cy="296" r="3.5"/>
</g>
<path d="M327,393v -33" fill="none" stroke="#ff0000" stroke-width="6"/>
<g stroke="#ff0000" stroke-width="6" fill="#ff0000">
<circle cx="327" cy="396" r="3.5"/>
</g>
<path d="M333,393v -33" fill="none" stroke="#ff0000" stroke-width="6"/>
<g stroke="#ff0000" stroke-width="6" fill="#ff0000">
<circle cx="333" cy="396" r="3.5"/>
</g>
<path d="M339,393v -33" fill="none" stroke="#ff0000" stroke-width="6"/>
<g stroke="#ff0000" stroke-width="6" fill="#ff0000">
<circle cx="339" cy="396" r="3.5"/>
</g>
<path d="M345,393v -33" fill="none" stroke="#ff0000" stroke-width="6"/>
<g stroke="#ff0000" stroke-width="6" fill="#ff0000">
<circle cx="345" cy="396" r="3.5"/>
</g>
<path d="M351,393v -33" fill="none" stroke="#ff0000" stroke-width="6"/>
<g stroke="#ff0000" stroke-width="6" fill="#ff0000">
<circle cx="351" cy="396" r="3.5"/>
</g>
<path d="M357,393v -33" fill="none" stroke="#ff0000" stroke-width="6"/>
<g stroke="#ff0000" stroke-width="6" fill="#ff0000">
<circle cx="357" cy="396" r="3.5"/>
</g>
<path d="M363,393v -33" fill="none" stroke="#ff0000" stroke-width="6"/>
<g stroke="#ff0000" stroke-width="6" fill="#ff0000">
<circle cx="363" cy="396" r="3.5"/>
</g>
<path d="M369,393v -33" fill="none" stroke="#ff0000" stroke-width="6"/>
<g stroke="#ff0000" stroke-width="6" fill="#ff0000">
<circle cx="369" cy="396" r="3.5"/>
</g>
<path d="M375,393v -33" fill="none" stroke="#ff0000" stroke-width="6"/>
<g stroke="#ff0000" stroke-width="6" fill="#ff0000">
<circle cx="375" cy="396" r="3.5"/>
</g>
<path d="M381,393v -33" fill="none" stroke="#ff0000" stroke-width="6"/>
<g stroke="#ff0000" stroke-width="6" fill="#ff0000">
<circle cx="381" cy="396" r="3.5"/>
</g>
<path d="M387,393v -33" fill="none" stroke="#ff0000" stroke-width="6"/>
<g stroke="#ff0000" stroke-width="6" fill="#ff0000">
<circle cx="387" cy="396" r="3.5"/>
</g>
<path d="M393,393v -33" fill="none" stroke="#ff0000" stroke-width="6"/>
<g stroke="#ff0000" stroke-width="6" fill="#ff0000">
<circle cx="393" cy="396" r="3.5"/>
</g>
<path d="M399,393v -33" fill="none" stroke="#ff0000" stroke-width="6"/>
<g stroke="#ff0000" stroke-width="6" fill="#ff0000">
<circle cx="399" cy="396" r="3.5"/>
</g>
<path d="M405,393v -33" fill="none" stroke="#ff0000" stroke-width="6"/>
<g stroke="#ff0000" stroke-width="6" fill="#ff0000">
<circle cx="405" cy="396" r="3.5"/>
</g>
<path d="M411,393v -33" fill="none" stroke="#ff0000" stroke-width="6"/>
<g stroke="#ff0000" stroke-width="6" fill="#ff0000">
<circle cx="411" cy="396" r="3.5"/>
</g>
<path d="M417,393v -33" fill="none" stroke="#ff0000" stroke-width="6"/>
<g stroke="#ff0000" stroke-width="6" fill="#ff0000">
<circle cx="417" cy="396" r="3.5"/>
</g>
<path d="M423,393v -33" fill="none" stroke="#ff0000" stroke-width="6"/>
<g stroke="#ff0000" stroke-width="6" fill="#ff0000">
<circle cx="423" cy="396" r="3.5"/>
</g>
<path d="M429,393v -33" fill="none" stroke="#ff0000" stroke-width="6"/>
<g stroke="#ff0000" stroke-width="6" fill="#ff0000">
<circle cx="429" cy="396" r="3.5"/>
</g>
<path d="M435,393v -33" fill="none" stroke="#ff0000" stroke-width="6"/>
<g stroke="#ff0000" stroke-width="6" fill="#ff0000">
<circle cx="435" cy="396" r="3.5"/>
</g>
<path d="M441,393v -33" fill="none" stroke="#ff0000" stroke-width="6"/>
<g stroke="#ff0000" stroke-width="6" fill="#ff0000">
<circle cx="441" cy="396" r="3.5"/>
</g>
<path d="M447,393v -33" fill="none" stroke="#ff0000" stroke-width="6"/>
<g stroke="#ff0000" stroke-width="6" fill="#ff0000">
<circle cx="447" cy="396" r="3.5"/>
</g>
<path d="M453,393v -33" fill="none" stroke="#ff0000" stroke-width="6"/>
<g stroke="#ff0000" stroke-width="6" fill="#ff0000">
<circle cx="453" cy="396" r="3.5"/>
</g>
<path d="M459,393v -33" fill="none" stroke="#ff0000" stroke-width="6"/>
<g stroke="#ff0000" stroke-width="6" fill="#ff0000">
<circle cx="459" cy="396" r="3.5"/>
</g>
<path d="M465,393v -33" fill="none" stroke="#ff0000" stroke-width="6"/>
<g stroke="#ff0000" stroke-width="6" fill="#ff0000">
<circle cx="465" cy="396" r="3.5"/>
</g>
<path d="M471,393v -33" fill="none" stroke="#ff0000" stroke-width="6"/>
<g stroke="#ff0000" stroke-width="6" fill="#ff0000">
<circle cx="471" cy="396" r="3.5"/>
</g>
<path d="M477,393v -33" fill="none" stroke="#ff0000" stroke-width="6"/>
<g stroke="#ff0000" stroke-width="6" fill="#ff0000">
<circle cx="477" cy="396" r="3.5"/>
</g>
<path d="M483,393v -33" fill="none" stroke="#ff0000" stroke-width="6"/>
<g stroke="#ff0000" stroke-width="6" fill="#ff0000">
<circle cx="483" cy="396" r="3.5"/>
</g>
<path d="M489,393v -33" fill="none" stroke="#ff0000" stroke-width="6"/>
<g stroke="#ff0000" stroke-width="6" fill="#ff0000">
<circle cx="489" cy="396" r="3.5"/>
</g>
<path d="M495,393v -33" fill="none" stroke="#ff0000" stroke-width="6"/>
<g stroke="#ff0000" stroke-width="6" fill="#ff0000">
<circle cx="495" cy="396" r="3.5"/>
</g>
<path d="M501,393v -33" fill="none" stroke="#ff0000" stroke-width="6"/>
<g stroke="#ff0000" stroke-width="6" fill="#ff0000">
<circle cx="501" cy="396" r="3.5"/>
</g>
<path d="M507,393v -33" fill="none" stroke="#ff0000" stroke-width="6"/>
<g stroke="#ff0000" stroke-width="6" fill="#ff0000">
<circle cx="507" cy="396" r="3.5"/>
</g>
<path d="M513,393v -33" fill="none" stroke="#ff0000" stroke-width="6"/>
<g stroke="#ff0000" stroke-width="6" fill="#ff0000">
<circle cx="513" cy="396" r="3.5"/>
</g>
<path d="M519,393v -33" fill="none" stroke="#ff0000" stroke-width="6"/>
<g stroke="#ff0000" stroke-width="6" fill="#ff0000">
<circle cx="519" cy="396" r="3.5"/>
</g>
<path d="M332,107h 42" fill="none" stroke="#ff0000" stroke-width="6"/>
<path d="M465,426v -179" fill="none" stroke="black" stroke-width="3" stroke-dasharray=" 3, 3"/>
<rect x="113" y="-4" width="285" height="38" fill="white"/>
<text x="134" y="24" fill="black" font-size="30" font-family="Helvetica" font-weight="bold">
IGHV3-9_star_03
</text></svg>
