<?xml version="1.0" standalone="no"?>
<svg width="567" height="466" viewBox="0 0 567 466" xmlns="http://www.w3.org/2000/svg">
<title>
/bbx/output/_plots/example/hmm/true/mute-freqs/v/plots/IGHV1-2_star_04.svg
</title>
<desc>
Creator: ROOT Version 5.34/14
CreationDate: Wed Aug 19 19:38:37 2015</desc>
<defs>
</defs>
<rect x="0" y="0" width="567" height="466" fill="white"/>
<rect x="79" y="37" width="443" height="359" fill="none" stroke="black"/>
<rect x="79" y="37" width="443" height="359" fill="none" stroke="black"/>
<path d="M79,396h 443" fill="none" stroke="black" stroke-width="3"/>
<path d="M110,385v 11" fill="none" stroke="black" stroke-width="3"/>
<path d="M137,391v 5" fill="none" stroke="black" stroke-width="3"/>
<path d="M165,391v 5" fill="none" stroke="black" stroke-width="3"/>
<path d="M193,391v 5" fill="none" stroke="black" stroke-width="3"/>
<path d="M220,385v 11" fill="none" stroke="black" stroke-width="3"/>
<path d="M248,391v 5" fill="none" stroke="black" stroke-width="3"/>
<path d="M276,391v 5" fill="none" stroke="black" stroke-width="3"/>
<path d="M303,391v 5" fill="none" stroke="black" stroke-width="3"/>
<path d="M331,385v 11" fill="none" stroke="black" stroke-width="3"/>
<path d="M359,391v 5" fill="none" stroke="black" stroke-width="3"/>
<path d="M386,391v 5" fill="none" stroke="black" stroke-width="3"/>
<path d="M414,391v 5" fill="none" stroke="black" stroke-width="3"/>
<path d="M441,385v 11" fill="none" stroke="black" stroke-width="3"/>
<path d="M110,385v 11" fill="none" stroke="black" stroke-width="3"/>
<path d="M82,391v 5" fill="none" stroke="black" stroke-width="3"/>
<path d="M441,385v 11" fill="none" stroke="black" stroke-width="3"/>
<path d="M469,391v 5" fill="none" stroke="black" stroke-width="3"/>
<path d="M497,391v 5" fill="none" stroke="black" stroke-width="3"/>
<text x="93" y="416" fill="black" font-size="21" font-family="Times" font-weight="bold">
220
</text>
<text x="204" y="416" fill="black" font-size="21" font-family="Times" font-weight="bold">
240
</text>
<text x="314" y="416" fill="black" font-size="21" font-family="Times" font-weight="bold">
260
</text>
<text x="424" y="416" fill="black" font-size="21" font-family="Times" font-weight="bold">
280
</text>
<path d="M79,37h 443" fill="none" stroke="black" stroke-width="3"/>
<path d="M110,48v -11" fill="none" stroke="black" stroke-width="3"/>
<path d="M137,43v -6" fill="none" stroke="black" stroke-width="3"/>
<path d="M165,43v -6" fill="none" stroke="black" stroke-width="3"/>
<path d="M193,43v -6" fill="none" stroke="black" stroke-width="3"/>
<path d="M220,48v -11" fill="none" stroke="black" stroke-width="3"/>
<path d="M248,43v -6" fill="none" stroke="black" stroke-width="3"/>
<path d="M276,43v -6" fill="none" stroke="black" stroke-width="3"/>
<path d="M303,43v -6" fill="none" stroke="black" stroke-width="3"/>
<path d="M331,48v -11" fill="none" stroke="black" stroke-width="3"/>
<path d="M359,43v -6" fill="none" stroke="black" stroke-width="3"/>
<path d="M386,43v -6" fill="none" stroke="black" stroke-width="3"/>
<path d="M414,43v -6" fill="none" stroke="black" stroke-width="3"/>
<path d="M441,48v -11" fill="none" stroke="black" stroke-width="3"/>
<path d="M110,48v -11" fill="none" stroke="black" stroke-width="3"/>
<path d="M82,43v -6" fill="none" stroke="black" stroke-width="3"/>
<path d="M441,48v -11" fill="none" stroke="black" stroke-width="3"/>
<path d="M469,43v -6" fill="none" stroke="black" stroke-width="3"/>
<path d="M497,43v -6" fill="none" stroke="black" stroke-width="3"/>
<path d="M79,396v -359" fill="none" stroke="black" stroke-width="3"/>
<path d="M92,396h -13" fill="none" stroke="black" stroke-width="3"/>
<path d="M86,381h -7" fill="none" stroke="black" stroke-width="3"/>
<path d="M86,366h -7" fill="none" stroke="black" stroke-width="3"/>
<path d="M86,351h -7" fill="none" stroke="black" stroke-width="3"/>
<path d="M86,336h -7" fill="none" stroke="black" stroke-width="3"/>
<path d="M92,321h -13" fill="none" stroke="black" stroke-width="3"/>
<path d="M86,306h -7" fill="none" stroke="black" stroke-width="3"/>
<path d="M86,291h -7" fill="none" stroke="black" stroke-width="3"/>
<path d="M86,277h -7" fill="none" stroke="black" stroke-width="3"/>
<path d="M86,262h -7" fill="none" stroke="black" stroke-width="3"/>
<path d="M92,247h -13" fill="none" stroke="black" stroke-width="3"/>
<path d="M86,232h -7" fill="none" stroke="black" stroke-width="3"/>
<path d="M86,217h -7" fill="none" stroke="black" stroke-width="3"/>
<path d="M86,202h -7" fill="none" stroke="black" stroke-width="3"/>
<path d="M86,187h -7" fill="none" stroke="black" stroke-width="3"/>
<path d="M92,172h -13" fill="none" stroke="black" stroke-width="3"/>
<path d="M86,157h -7" fill="none" stroke="black" stroke-width="3"/>
<path d="M86,142h -7" fill="none" stroke="black" stroke-width="3"/>
<path d="M86,127h -7" fill="none" stroke="black" stroke-width="3"/>
<path d="M86,112h -7" fill="none" stroke="black" stroke-width="3"/>
<path d="M92,97h -13" fill="none" stroke="black" stroke-width="3"/>
<path d="M92,97h -13" fill="none" stroke="black" stroke-width="3"/>
<path d="M86,82h -7" fill="none" stroke="black" stroke-width="3"/>
<path d="M86,67h -7" fill="none" stroke="black" stroke-width="3"/>
<path d="M86,52h -7" fill="none" stroke="black" stroke-width="3"/>
<path d="M86,37h -7" fill="none" stroke="black" stroke-width="3"/>
<text x="46" y="404" fill="black" font-size="21" font-family="Times" font-weight="bold">
0.0
</text>
<text x="46" y="329" fill="black" font-size="21" font-family="Times" font-weight="bold">
0.1
</text>
<text x="46" y="254" fill="black" font-size="21" font-family="Times" font-weight="bold">
0.2
</text>
<text x="46" y="179" fill="black" font-size="21" font-family="Times" font-weight="bold">
0.3
</text>
<text x="46" y="105" fill="black" font-size="21" font-family="Times" font-weight="bold">
0.4
</text>
<path d="M522,396v -359" fill="none" stroke="black" stroke-width="3"/>
<path d="M508,396h 14" fill="none" stroke="black" stroke-width="3"/>
<path d="M515,381h 7" fill="none" stroke="black" stroke-width="3"/>
<path d="M515,366h 7" fill="none" stroke="black" stroke-width="3"/>
<path d="M515,351h 7" fill="none" stroke="black" stroke-width="3"/>
<path d="M515,336h 7" fill="none" stroke="black" stroke-width="3"/>
<path d="M508,321h 14" fill="none" stroke="black" stroke-width="3"/>
<path d="M515,306h 7" fill="none" stroke="black" stroke-width="3"/>
<path d="M515,291h 7" fill="none" stroke="black" stroke-width="3"/>
<path d="M515,277h 7" fill="none" stroke="black" stroke-width="3"/>
<path d="M515,262h 7" fill="none" stroke="black" stroke-width="3"/>
<path d="M508,247h 14" fill="none" stroke="black" stroke-width="3"/>
<path d="M515,232h 7" fill="none" stroke="black" stroke-width="3"/>
<path d="M515,217h 7" fill="none" stroke="black" stroke-width="3"/>
<path d="M515,202h 7" fill="none" stroke="black" stroke-width="3"/>
<path d="M515,187h 7" fill="none" stroke="black" stroke-width="3"/>
<path d="M508,172h 14" fill="none" stroke="black" stroke-width="3"/>
<path d="M515,157h 7" fill="none" stroke="black" stroke-width="3"/>
<path d="M515,142h 7" fill="none" stroke="black" stroke-width="3"/>
<path d="M515,127h 7" fill="none" stroke="black" stroke-width="3"/>
<path d="M515,112h 7" fill="none" stroke="black" stroke-width="3"/>
<path d="M508,97h 14" fill="none" stroke="black" stroke-width="3"/>
<path d="M508,97h 14" fill="none" stroke="black" stroke-width="3"/>
<path d="M515,82h 7" fill="none" stroke="black" stroke-width="3"/>
<path d="M515,67h 7" fill="none" stroke="black" stroke-width="3"/>
<path d="M515,52h 7" fill="none" stroke="black" stroke-width="3"/>
<path d="M515,37h 7" fill="none" stroke="black" stroke-width="3"/>
<rect x="113" y="-4" width="285" height="38" fill="white"/>
<text x="135" y="24" fill="black" font-size="30" font-family="Helvetica" font-weight="bold">
IGHV1-2_star_04
</text>
<path d="M82,393v -59" fill="none" stroke="#ff0000" stroke-width="6"/>
<g stroke="#ff0000" stroke-width="6" fill="#ff0000">
<circle cx="82" cy="396" r="3.5"/>
</g>
<path d="M88,393v -59" fill="none" stroke="#ff0000" stroke-width="6"/>
<g stroke="#ff0000" stroke-width="6" fill="#ff0000">
<circle cx="88" cy="396" r="3.5"/>
</g>
<path d="M93,393v -59" fill="none" stroke="#ff0000" stroke-width="6"/>
<g stroke="#ff0000" stroke-width="6" fill="#ff0000">
<circle cx="93" cy="396" r="3.5"/>
</g>
<path d="M99,393v -59" fill="none" stroke="#ff0000" stroke-width="6"/>
<g stroke="#ff0000" stroke-width="6" fill="#ff0000">
<circle cx="99" cy="396" r="3.5"/>
</g>
<path d="M104,393v -59" fill="none" stroke="#ff0000" stroke-width="6"/>
<g stroke="#ff0000" stroke-width="6" fill="#ff0000">
<circle cx="104" cy="396" r="3.5"/>
</g>
<path d="M110,393v -59" fill="none" stroke="#ff0000" stroke-width="6"/>
<g stroke="#ff0000" stroke-width="6" fill="#ff0000">
<circle cx="110" cy="396" r="3.5"/>
</g>
<path d="M115,393v -59" fill="none" stroke="#ff0000" stroke-width="6"/>
<g stroke="#ff0000" stroke-width="6" fill="#ff0000">
<circle cx="115" cy="396" r="3.5"/>
</g>
<path d="M121,393v -59" fill="none" stroke="#ff0000" stroke-width="6"/>
<g stroke="#ff0000" stroke-width="6" fill="#ff0000">
<circle cx="121" cy="396" r="3.5"/>
</g>
<path d="M126,393v -59" fill="none" stroke="#ff0000" stroke-width="6"/>
<g stroke="#ff0000" stroke-width="6" fill="#ff0000">
<circle cx="126" cy="396" r="3.5"/>
</g>
<path d="M132,393v -59" fill="none" stroke="#ff0000" stroke-width="6"/>
<g stroke="#ff0000" stroke-width="6" fill="#ff0000">
<circle cx="132" cy="396" r="3.5"/>
</g>
<path d="M137,232v -132" fill="none" stroke="#ff0000" stroke-width="6"/>
<path d="M137,94v -57" fill="none" stroke="#ff0000" stroke-width="6"/>
<g stroke="#ff0000" stroke-width="6" fill="#ff0000">
<circle cx="137" cy="97" r="3.5"/>
</g>
<path d="M143,393v -59" fill="none" stroke="#ff0000" stroke-width="6"/>
<g stroke="#ff0000" stroke-width="6" fill="#ff0000">
<circle cx="143" cy="396" r="3.5"/>
</g>
<path d="M148,393v -59" fill="none" stroke="#ff0000" stroke-width="6"/>
<g stroke="#ff0000" stroke-width="6" fill="#ff0000">
<circle cx="148" cy="396" r="3.5"/>
</g>
<path d="M154,393v -59" fill="none" stroke="#ff0000" stroke-width="6"/>
<g stroke="#ff0000" stroke-width="6" fill="#ff0000">
<circle cx="154" cy="396" r="3.5"/>
</g>
<path d="M160,393v -59" fill="none" stroke="#ff0000" stroke-width="6"/>
<g stroke="#ff0000" stroke-width="6" fill="#ff0000">
<circle cx="160" cy="396" r="3.5"/>
</g>
<path d="M165,367v -117" fill="none" stroke="#ff0000" stroke-width="6"/>
<path d="M165,243v -117" fill="none" stroke="#ff0000" stroke-width="6"/>
<g stroke="#ff0000" stroke-width="6" fill="#ff0000">
<circle cx="165" cy="247" r="3.5"/>
</g>
<path d="M171,393v -59" fill="none" stroke="#ff0000" stroke-width="6"/>
<g stroke="#ff0000" stroke-width="6" fill="#ff0000">
<circle cx="171" cy="396" r="3.5"/>
</g>
<path d="M176,393v -59" fill="none" stroke="#ff0000" stroke-width="6"/>
<g stroke="#ff0000" stroke-width="6" fill="#ff0000">
<circle cx="176" cy="396" r="3.5"/>
</g>
<path d="M182,393v -59" fill="none" stroke="#ff0000" stroke-width="6"/>
<g stroke="#ff0000" stroke-width="6" fill="#ff0000">
<circle cx="182" cy="396" r="3.5"/>
</g>
<path d="M187,393v -59" fill="none" stroke="#ff0000" stroke-width="6"/>
<g stroke="#ff0000" stroke-width="6" fill="#ff0000">
<circle cx="187" cy="396" r="3.5"/>
</g>
<path d="M193,393v -59" fill="none" stroke="#ff0000" stroke-width="6"/>
<g stroke="#ff0000" stroke-width="6" fill="#ff0000">
<circle cx="193" cy="396" r="3.5"/>
</g>
<path d="M198,393v -59" fill="none" stroke="#ff0000" stroke-width="6"/>
<g stroke="#ff0000" stroke-width="6" fill="#ff0000">
<circle cx="198" cy="396" r="3.5"/>
</g>
<path d="M204,232v -132" fill="none" stroke="#ff0000" stroke-width="6"/>
<path d="M204,94v -57" fill="none" stroke="#ff0000" stroke-width="6"/>
<g stroke="#ff0000" stroke-width="6" fill="#ff0000">
<circle cx="204" cy="97" r="3.5"/>
</g>
<path d="M209,393v -59" fill="none" stroke="#ff0000" stroke-width="6"/>
<g stroke="#ff0000" stroke-width="6" fill="#ff0000">
<circle cx="209" cy="396" r="3.5"/>
</g>
<path d="M215,393v -59" fill="none" stroke="#ff0000" stroke-width="6"/>
<g stroke="#ff0000" stroke-width="6" fill="#ff0000">
<circle cx="215" cy="396" r="3.5"/>
</g>
<path d="M220,393v -59" fill="none" stroke="#ff0000" stroke-width="6"/>
<g stroke="#ff0000" stroke-width="6" fill="#ff0000">
<circle cx="220" cy="396" r="3.5"/>
</g>
<path d="M226,393v -59" fill="none" stroke="#ff0000" stroke-width="6"/>
<g stroke="#ff0000" stroke-width="6" fill="#ff0000">
<circle cx="226" cy="396" r="3.5"/>
</g>
<path d="M231,393v -59" fill="none" stroke="#ff0000" stroke-width="6"/>
<g stroke="#ff0000" stroke-width="6" fill="#ff0000">
<circle cx="231" cy="396" r="3.5"/>
</g>
<path d="M237,393v -59" fill="none" stroke="#ff0000" stroke-width="6"/>
<g stroke="#ff0000" stroke-width="6" fill="#ff0000">
<circle cx="237" cy="396" r="3.5"/>
</g>
<path d="M242,367v -117" fill="none" stroke="#ff0000" stroke-width="6"/>
<path d="M242,243v -117" fill="none" stroke="#ff0000" stroke-width="6"/>
<g stroke="#ff0000" stroke-width="6" fill="#ff0000">
<circle cx="242" cy="247" r="3.5"/>
</g>
<path d="M248,393v -59" fill="none" stroke="#ff0000" stroke-width="6"/>
<g stroke="#ff0000" stroke-width="6" fill="#ff0000">
<circle cx="248" cy="396" r="3.5"/>
</g>
<path d="M253,393v -59" fill="none" stroke="#ff0000" stroke-width="6"/>
<g stroke="#ff0000" stroke-width="6" fill="#ff0000">
<circle cx="253" cy="396" r="3.5"/>
</g>
<path d="M259,393v -59" fill="none" stroke="#ff0000" stroke-width="6"/>
<g stroke="#ff0000" stroke-width="6" fill="#ff0000">
<circle cx="259" cy="396" r="3.5"/>
</g>
<path d="M265,393v -59" fill="none" stroke="#ff0000" stroke-width="6"/>
<g stroke="#ff0000" stroke-width="6" fill="#ff0000">
<circle cx="265" cy="396" r="3.5"/>
</g>
<path d="M270,393v -59" fill="none" stroke="#ff0000" stroke-width="6"/>
<g stroke="#ff0000" stroke-width="6" fill="#ff0000">
<circle cx="270" cy="396" r="3.5"/>
</g>
<path d="M276,393v -59" fill="none" stroke="#ff0000" stroke-width="6"/>
<g stroke="#ff0000" stroke-width="6" fill="#ff0000">
<circle cx="276" cy="396" r="3.5"/>
</g>
<path d="M281,393v -59" fill="none" stroke="#ff0000" stroke-width="6"/>
<g stroke="#ff0000" stroke-width="6" fill="#ff0000">
<circle cx="281" cy="396" r="3.5"/>
</g>
<path d="M287,393v -59" fill="none" stroke="#ff0000" stroke-width="6"/>
<g stroke="#ff0000" stroke-width="6" fill="#ff0000">
<circle cx="287" cy="396" r="3.5"/>
</g>
<path d="M292,393v -59" fill="none" stroke="#ff0000" stroke-width="6"/>
<g stroke="#ff0000" stroke-width="6" fill="#ff0000">
<circle cx="292" cy="396" r="3.5"/>
</g>
<path d="M298,393v -59" fill="none" stroke="#ff0000" stroke-width="6"/>
<g stroke="#ff0000" stroke-width="6" fill="#ff0000">
<circle cx="298" cy="396" r="3.5"/>
</g>
<path d="M303,393v -59" fill="none" stroke="#ff0000" stroke-width="6"/>
<g stroke="#ff0000" stroke-width="6" fill="#ff0000">
<circle cx="303" cy="396" r="3.5"/>
</g>
<path d="M309,393v -59" fill="none" stroke="#ff0000" stroke-width="6"/>
<g stroke="#ff0000" stroke-width="6" fill="#ff0000">
<circle cx="309" cy="396" r="3.5"/>
</g>
<path d="M314,393v -59" fill="none" stroke="#ff0000" stroke-width="6"/>
<g stroke="#ff0000" stroke-width="6" fill="#ff0000">
<circle cx="314" cy="396" r="3.5"/>
</g>
<path d="M320,393v -59" fill="none" stroke="#ff0000" stroke-width="6"/>
<g stroke="#ff0000" stroke-width="6" fill="#ff0000">
<circle cx="320" cy="396" r="3.5"/>
</g>
<path d="M325,367v -117" fill="none" stroke="#ff0000" stroke-width="6"/>
<path d="M325,243v -117" fill="none" stroke="#ff0000" stroke-width="6"/>
<g stroke="#ff0000" stroke-width="6" fill="#ff0000">
<circle cx="325" cy="247" r="3.5"/>
</g>
<path d="M331,393v -59" fill="none" stroke="#ff0000" stroke-width="6"/>
<g stroke="#ff0000" stroke-width="6" fill="#ff0000">
<circle cx="331" cy="396" r="3.5"/>
</g>
<path d="M336,367v -117" fill="none" stroke="#ff0000" stroke-width="6"/>
<path d="M336,243v -117" fill="none" stroke="#ff0000" stroke-width="6"/>
<g stroke="#ff0000" stroke-width="6" fill="#ff0000">
<circle cx="336" cy="247" r="3.5"/>
</g>
<path d="M342,393v -59" fill="none" stroke="#ff0000" stroke-width="6"/>
<g stroke="#ff0000" stroke-width="6" fill="#ff0000">
<circle cx="342" cy="396" r="3.5"/>
</g>
<path d="M347,393v -59" fill="none" stroke="#ff0000" stroke-width="6"/>
<g stroke="#ff0000" stroke-width="6" fill="#ff0000">
<circle cx="347" cy="396" r="3.5"/>
</g>
<path d="M353,393v -59" fill="none" stroke="#ff0000" stroke-width="6"/>
<g stroke="#ff0000" stroke-width="6" fill="#ff0000">
<circle cx="353" cy="396" r="3.5"/>
</g>
<path d="M359,393v -59" fill="none" stroke="#ff0000" stroke-width="6"/>
<g stroke="#ff0000" stroke-width="6" fill="#ff0000">
<circle cx="359" cy="396" r="3.5"/>
</g>
<path d="M364,393v -59" fill="none" stroke="#ff0000" stroke-width="6"/>
<g stroke="#ff0000" stroke-width="6" fill="#ff0000">
<circle cx="364" cy="396" r="3.5"/>
</g>
<path d="M370,393v -59" fill="none" stroke="#ff0000" stroke-width="6"/>
<g stroke="#ff0000" stroke-width="6" fill="#ff0000">
<circle cx="370" cy="396" r="3.5"/>
</g>
<path d="M375,393v -59" fill="none" stroke="#ff0000" stroke-width="6"/>
<g stroke="#ff0000" stroke-width="6" fill="#ff0000">
<circle cx="375" cy="396" r="3.5"/>
</g>
<path d="M381,393v -59" fill="none" stroke="#ff0000" stroke-width="6"/>
<g stroke="#ff0000" stroke-width="6" fill="#ff0000">
<circle cx="381" cy="396" r="3.5"/>
</g>
<path d="M386,393v -59" fill="none" stroke="#ff0000" stroke-width="6"/>
<g stroke="#ff0000" stroke-width="6" fill="#ff0000">
<circle cx="386" cy="396" r="3.5"/>
</g>
<path d="M392,393v -59" fill="none" stroke="#ff0000" stroke-width="6"/>
<g stroke="#ff0000" stroke-width="6" fill="#ff0000">
<circle cx="392" cy="396" r="3.5"/>
</g>
<path d="M397,393v -59" fill="none" stroke="#ff0000" stroke-width="6"/>
<g stroke="#ff0000" stroke-width="6" fill="#ff0000">
<circle cx="397" cy="396" r="3.5"/>
</g>
<path d="M403,393v -59" fill="none" stroke="#ff0000" stroke-width="6"/>
<g stroke="#ff0000" stroke-width="6" fill="#ff0000">
<circle cx="403" cy="396" r="3.5"/>
</g>
<path d="M408,393v -59" fill="none" stroke="#ff0000" stroke-width="6"/>
<g stroke="#ff0000" stroke-width="6" fill="#ff0000">
<circle cx="408" cy="396" r="3.5"/>
</g>
<path d="M414,367v -117" fill="none" stroke="#ff0000" stroke-width="6"/>
<path d="M414,243v -117" fill="none" stroke="#ff0000" stroke-width="6"/>
<g stroke="#ff0000" stroke-width="6" fill="#ff0000">
<circle cx="414" cy="247" r="3.5"/>
</g>
<path d="M419,393v -59" fill="none" stroke="#ff0000" stroke-width="6"/>
<g stroke="#ff0000" stroke-width="6" fill="#ff0000">
<circle cx="419" cy="396" r="3.5"/>
</g>
<path d="M425,393v -59" fill="none" stroke="#ff0000" stroke-width="6"/>
<g stroke="#ff0000" stroke-width="6" fill="#ff0000">
<circle cx="425" cy="396" r="3.5"/>
</g>
<path d="M430,232v -132" fill="none" stroke="#ff0000" stroke-width="6"/>
<path d="M430,94v -57" fill="none" stroke="#ff0000" stroke-width="6"/>
<g stroke="#ff0000" stroke-width="6" fill="#ff0000">
<circle cx="430" cy="97" r="3.5"/>
</g>
<path d="M436,367v -117" fill="none" stroke="#ff0000" stroke-width="6"/>
<path d="M436,243v -117" fill="none" stroke="#ff0000" stroke-width="6"/>
<g stroke="#ff0000" stroke-width="6" fill="#ff0000">
<circle cx="436" cy="247" r="3.5"/>
</g>
<path d="M441,393v -59" fill="none" stroke="#ff0000" stroke-width="6"/>
<g stroke="#ff0000" stroke-width="6" fill="#ff0000">
<circle cx="441" cy="396" r="3.5"/>
</g>
<path d="M447,393v -59" fill="none" stroke="#ff0000" stroke-width="6"/>
<g stroke="#ff0000" stroke-width="6" fill="#ff0000">
<circle cx="447" cy="396" r="3.5"/>
</g>
<path d="M452,393v -59" fill="none" stroke="#ff0000" stroke-width="6"/>
<g stroke="#ff0000" stroke-width="6" fill="#ff0000">
<circle cx="452" cy="396" r="3.5"/>
</g>
<path d="M458,393v -59" fill="none" stroke="#ff0000" stroke-width="6"/>
<g stroke="#ff0000" stroke-width="6" fill="#ff0000">
<circle cx="458" cy="396" r="3.5"/>
</g>
<path d="M464,367v -117" fill="none" stroke="#ff0000" stroke-width="6"/>
<path d="M464,243v -117" fill="none" stroke="#ff0000" stroke-width="6"/>
<g stroke="#ff0000" stroke-width="6" fill="#ff0000">
<circle cx="464" cy="247" r="3.5"/>
</g>
<path d="M469,393v -59" fill="none" stroke="#ff0000" stroke-width="6"/>
<g stroke="#ff0000" stroke-width="6" fill="#ff0000">
<circle cx="469" cy="396" r="3.5"/>
</g>
<path d="M475,393v -59" fill="none" stroke="#ff0000" stroke-width="6"/>
<g stroke="#ff0000" stroke-width="6" fill="#ff0000">
<circle cx="475" cy="396" r="3.5"/>
</g>
<path d="M480,393v -59" fill="none" stroke="#ff0000" stroke-width="6"/>
<g stroke="#ff0000" stroke-width="6" fill="#ff0000">
<circle cx="480" cy="396" r="3.5"/>
</g>
<path d="M486,393v -59" fill="none" stroke="#ff0000" stroke-width="6"/>
<g stroke="#ff0000" stroke-width="6" fill="#ff0000">
<circle cx="486" cy="396" r="3.5"/>
</g>
<path d="M491,393v -59" fill="none" stroke="#ff0000" stroke-width="6"/>
<g stroke="#ff0000" stroke-width="6" fill="#ff0000">
<circle cx="491" cy="396" r="3.5"/>
</g>
<path d="M497,367v -117" fill="none" stroke="#ff0000" stroke-width="6"/>
<path d="M497,243v -117" fill="none" stroke="#ff0000" stroke-width="6"/>
<g stroke="#ff0000" stroke-width="6" fill="#ff0000">
<circle cx="497" cy="247" r="3.5"/>
</g>
<path d="M502,393v -59" fill="none" stroke="#ff0000" stroke-width="6"/>
<g stroke="#ff0000" stroke-width="6" fill="#ff0000">
<circle cx="502" cy="396" r="3.5"/>
</g>
<path d="M508,367v -117" fill="none" stroke="#ff0000" stroke-width="6"/>
<path d="M508,243v -117" fill="none" stroke="#ff0000" stroke-width="6"/>
<g stroke="#ff0000" stroke-width="6" fill="#ff0000">
<circle cx="508" cy="247" r="3.5"/>
</g>
<path d="M513,367v -117" fill="none" stroke="#ff0000" stroke-width="6"/>
<path d="M513,243v -117" fill="none" stroke="#ff0000" stroke-width="6"/>
<g stroke="#ff0000" stroke-width="6" fill="#ff0000">
<circle cx="513" cy="247" r="3.5"/>
</g>
<path d="M519,367v -117" fill="none" stroke="#ff0000" stroke-width="6"/>
<path d="M519,243v -117" fill="none" stroke="#ff0000" stroke-width="6"/>
<g stroke="#ff0000" stroke-width="6" fill="#ff0000">
<circle cx="519" cy="247" r="3.5"/>
</g>
<path d="M332,107h 42" fill="none" stroke="#ff0000" stroke-width="6"/>
<path d="M469,426v -179" fill="none" stroke="black" stroke-width="3" stroke-dasharray=" 3, 3"/>
<rect x="113" y="-4" width="285" height="38" fill="white"/>
<text x="135" y="24" fill="black" font-size="30" font-family="Helvetica" font-weight="bold">
IGHV1-2_star_04
</text></svg>
