<?xml version="1.0" standalone="no"?>
<svg width="567" height="466" viewBox="0 0 567 466" xmlns="http://www.w3.org/2000/svg">
<title>
/bbx/output/_plots/example/hmm/true/mute-freqs/v/plots/IGHV3-7_star_01.svg
</title>
<desc>
Creator: ROOT Version 5.34/14
CreationDate: Wed Aug 19 19:38:36 2015</desc>
<defs>
</defs>
<rect x="0" y="0" width="567" height="466" fill="white"/>
<rect x="79" y="37" width="443" height="359" fill="none" stroke="black"/>
<rect x="79" y="37" width="443" height="359" fill="none" stroke="black"/>
<path d="M79,396h 443" fill="none" stroke="black" stroke-width="3"/>
<path d="M131,385v 11" fill="none" stroke="black" stroke-width="3"/>
<path d="M171,391v 5" fill="none" stroke="black" stroke-width="3"/>
<path d="M212,391v 5" fill="none" stroke="black" stroke-width="3"/>
<path d="M253,391v 5" fill="none" stroke="black" stroke-width="3"/>
<path d="M294,391v 5" fill="none" stroke="black" stroke-width="3"/>
<path d="M335,385v 11" fill="none" stroke="black" stroke-width="3"/>
<path d="M131,385v 11" fill="none" stroke="black" stroke-width="3"/>
<path d="M90,391v 5" fill="none" stroke="black" stroke-width="3"/>
<path d="M335,385v 11" fill="none" stroke="black" stroke-width="3"/>
<path d="M376,391v 5" fill="none" stroke="black" stroke-width="3"/>
<path d="M417,391v 5" fill="none" stroke="black" stroke-width="3"/>
<path d="M458,391v 5" fill="none" stroke="black" stroke-width="3"/>
<path d="M499,391v 5" fill="none" stroke="black" stroke-width="3"/>
<text x="114" y="416" fill="black" font-size="21" font-family="Times" font-weight="bold">
200
</text>
<text x="318" y="416" fill="black" font-size="21" font-family="Times" font-weight="bold">
250
</text>
<path d="M79,37h 443" fill="none" stroke="black" stroke-width="3"/>
<path d="M131,48v -11" fill="none" stroke="black" stroke-width="3"/>
<path d="M171,43v -6" fill="none" stroke="black" stroke-width="3"/>
<path d="M212,43v -6" fill="none" stroke="black" stroke-width="3"/>
<path d="M253,43v -6" fill="none" stroke="black" stroke-width="3"/>
<path d="M294,43v -6" fill="none" stroke="black" stroke-width="3"/>
<path d="M335,48v -11" fill="none" stroke="black" stroke-width="3"/>
<path d="M131,48v -11" fill="none" stroke="black" stroke-width="3"/>
<path d="M90,43v -6" fill="none" stroke="black" stroke-width="3"/>
<path d="M335,48v -11" fill="none" stroke="black" stroke-width="3"/>
<path d="M376,43v -6" fill="none" stroke="black" stroke-width="3"/>
<path d="M417,43v -6" fill="none" stroke="black" stroke-width="3"/>
<path d="M458,43v -6" fill="none" stroke="black" stroke-width="3"/>
<path d="M499,43v -6" fill="none" stroke="black" stroke-width="3"/>
<path d="M79,396v -359" fill="none" stroke="black" stroke-width="3"/>
<path d="M92,396h -13" fill="none" stroke="black" stroke-width="3"/>
<path d="M86,366h -7" fill="none" stroke="black" stroke-width="3"/>
<path d="M86,336h -7" fill="none" stroke="black" stroke-width="3"/>
<path d="M86,306h -7" fill="none" stroke="black" stroke-width="3"/>
<path d="M86,277h -7" fill="none" stroke="black" stroke-width="3"/>
<path d="M92,247h -13" fill="none" stroke="black" stroke-width="3"/>
<path d="M86,217h -7" fill="none" stroke="black" stroke-width="3"/>
<path d="M86,187h -7" fill="none" stroke="black" stroke-width="3"/>
<path d="M86,157h -7" fill="none" stroke="black" stroke-width="3"/>
<path d="M86,127h -7" fill="none" stroke="black" stroke-width="3"/>
<path d="M92,97h -13" fill="none" stroke="black" stroke-width="3"/>
<path d="M92,97h -13" fill="none" stroke="black" stroke-width="3"/>
<path d="M86,67h -7" fill="none" stroke="black" stroke-width="3"/>
<path d="M86,37h -7" fill="none" stroke="black" stroke-width="3"/>
<text x="46" y="404" fill="black" font-size="21" font-family="Times" font-weight="bold">
0.0
</text>
<text x="46" y="254" fill="black" font-size="21" font-family="Times" font-weight="bold">
0.5
</text>
<text x="46" y="105" fill="black" font-size="21" font-family="Times" font-weight="bold">
1.0
</text>
<path d="M522,396v -359" fill="none" stroke="black" stroke-width="3"/>
<path d="M508,396h 14" fill="none" stroke="black" stroke-width="3"/>
<path d="M515,366h 7" fill="none" stroke="black" stroke-width="3"/>
<path d="M515,336h 7" fill="none" stroke="black" stroke-width="3"/>
<path d="M515,306h 7" fill="none" stroke="black" stroke-width="3"/>
<path d="M515,277h 7" fill="none" stroke="black" stroke-width="3"/>
<path d="M508,247h 14" fill="none" stroke="black" stroke-width="3"/>
<path d="M515,217h 7" fill="none" stroke="black" stroke-width="3"/>
<path d="M515,187h 7" fill="none" stroke="black" stroke-width="3"/>
<path d="M515,157h 7" fill="none" stroke="black" stroke-width="3"/>
<path d="M515,127h 7" fill="none" stroke="black" stroke-width="3"/>
<path d="M508,97h 14" fill="none" stroke="black" stroke-width="3"/>
<path d="M508,97h 14" fill="none" stroke="black" stroke-width="3"/>
<path d="M515,67h 7" fill="none" stroke="black" stroke-width="3"/>
<path d="M515,37h 7" fill="none" stroke="black" stroke-width="3"/>
<rect x="113" y="-4" width="284" height="38" fill="white"/>
<text x="137" y="24" fill="black" font-size="30" font-family="Helvetica" font-weight="bold">
IGHV3-7_star_01
</text>
<path d="M81,393v -60" fill="none" stroke="#ff0000" stroke-width="6"/>
<g stroke="#ff0000" stroke-width="6" fill="#ff0000">
<circle cx="81" cy="396" r="3.5"/>
</g>
<path d="M86,393v -60" fill="none" stroke="#ff0000" stroke-width="6"/>
<g stroke="#ff0000" stroke-width="6" fill="#ff0000">
<circle cx="86" cy="396" r="3.5"/>
</g>
<path d="M90,160v -60" fill="none" stroke="#ff0000" stroke-width="6"/>
<path d="M90,94v -57" fill="none" stroke="#ff0000" stroke-width="6"/>
<g stroke="#ff0000" stroke-width="6" fill="#ff0000">
<circle cx="90" cy="97" r="3.5"/>
</g>
<path d="M94,160v -60" fill="none" stroke="#ff0000" stroke-width="6"/>
<path d="M94,94v -57" fill="none" stroke="#ff0000" stroke-width="6"/>
<g stroke="#ff0000" stroke-width="6" fill="#ff0000">
<circle cx="94" cy="97" r="3.5"/>
</g>
<path d="M98,393v -60" fill="none" stroke="#ff0000" stroke-width="6"/>
<g stroke="#ff0000" stroke-width="6" fill="#ff0000">
<circle cx="98" cy="396" r="3.5"/>
</g>
<path d="M102,393v -60" fill="none" stroke="#ff0000" stroke-width="6"/>
<g stroke="#ff0000" stroke-width="6" fill="#ff0000">
<circle cx="102" cy="396" r="3.5"/>
</g>
<path d="M106,160v -60" fill="none" stroke="#ff0000" stroke-width="6"/>
<path d="M106,94v -57" fill="none" stroke="#ff0000" stroke-width="6"/>
<g stroke="#ff0000" stroke-width="6" fill="#ff0000">
<circle cx="106" cy="97" r="3.5"/>
</g>
<path d="M110,393v -60" fill="none" stroke="#ff0000" stroke-width="6"/>
<g stroke="#ff0000" stroke-width="6" fill="#ff0000">
<circle cx="110" cy="396" r="3.5"/>
</g>
<path d="M114,393v -60" fill="none" stroke="#ff0000" stroke-width="6"/>
<g stroke="#ff0000" stroke-width="6" fill="#ff0000">
<circle cx="114" cy="396" r="3.5"/>
</g>
<path d="M118,393v -16" fill="none" stroke="#ff0000" stroke-width="6"/>
<g stroke="#ff0000" stroke-width="6" fill="#ff0000">
<circle cx="118" cy="396" r="3.5"/>
</g>
<path d="M122,393v -16" fill="none" stroke="#ff0000" stroke-width="6"/>
<g stroke="#ff0000" stroke-width="6" fill="#ff0000">
<circle cx="122" cy="396" r="3.5"/>
</g>
<path d="M126,393v -16" fill="none" stroke="#ff0000" stroke-width="6"/>
<g stroke="#ff0000" stroke-width="6" fill="#ff0000">
<circle cx="126" cy="396" r="3.5"/>
</g>
<path d="M131,392v -35" fill="none" stroke="#ff0000" stroke-width="6"/>
<path d="M131,350v -35" fill="none" stroke="#ff0000" stroke-width="6"/>
<g stroke="#ff0000" stroke-width="6" fill="#ff0000">
<circle cx="131" cy="353" r="3.5"/>
</g>
<path d="M135,393v -16" fill="none" stroke="#ff0000" stroke-width="6"/>
<g stroke="#ff0000" stroke-width="6" fill="#ff0000">
<circle cx="135" cy="396" r="3.5"/>
</g>
<path d="M139,393v -16" fill="none" stroke="#ff0000" stroke-width="6"/>
<g stroke="#ff0000" stroke-width="6" fill="#ff0000">
<circle cx="139" cy="396" r="3.5"/>
</g>
<path d="M143,396v -22" fill="none" stroke="#ff0000" stroke-width="6"/>
<path d="M143,368v -22" fill="none" stroke="#ff0000" stroke-width="6"/>
<g stroke="#ff0000" stroke-width="6" fill="#ff0000">
<circle cx="143" cy="371" r="3.5"/>
</g>
<path d="M147,393v -9" fill="none" stroke="#ff0000" stroke-width="6"/>
<g stroke="#ff0000" stroke-width="6" fill="#ff0000">
<circle cx="147" cy="396" r="3.5"/>
</g>
<path d="M151,396v -22" fill="none" stroke="#ff0000" stroke-width="6"/>
<path d="M151,368v -22" fill="none" stroke="#ff0000" stroke-width="6"/>
<g stroke="#ff0000" stroke-width="6" fill="#ff0000">
<circle cx="151" cy="371" r="3.5"/>
</g>
<path d="M155,333v -33" fill="none" stroke="#ff0000" stroke-width="6"/>
<path d="M155,293v -33" fill="none" stroke="#ff0000" stroke-width="6"/>
<g stroke="#ff0000" stroke-width="6" fill="#ff0000">
<circle cx="155" cy="296" r="3.5"/>
</g>
<path d="M159,377v -27" fill="none" stroke="#ff0000" stroke-width="6"/>
<path d="M159,343v -28" fill="none" stroke="#ff0000" stroke-width="6"/>
<g stroke="#ff0000" stroke-width="6" fill="#ff0000">
<circle cx="159" cy="346" r="3.5"/>
</g>
<path d="M163,393v -9" fill="none" stroke="#ff0000" stroke-width="6"/>
<g stroke="#ff0000" stroke-width="6" fill="#ff0000">
<circle cx="163" cy="396" r="3.5"/>
</g>
<path d="M167,377v -27" fill="none" stroke="#ff0000" stroke-width="6"/>
<path d="M167,343v -28" fill="none" stroke="#ff0000" stroke-width="6"/>
<g stroke="#ff0000" stroke-width="6" fill="#ff0000">
<circle cx="167" cy="346" r="3.5"/>
</g>
<path d="M171,393v -9" fill="none" stroke="#ff0000" stroke-width="6"/>
<g stroke="#ff0000" stroke-width="6" fill="#ff0000">
<circle cx="171" cy="396" r="3.5"/>
</g>
<path d="M176,377v -27" fill="none" stroke="#ff0000" stroke-width="6"/>
<path d="M176,343v -28" fill="none" stroke="#ff0000" stroke-width="6"/>
<g stroke="#ff0000" stroke-width="6" fill="#ff0000">
<circle cx="176" cy="346" r="3.5"/>
</g>
<path d="M180,393v -6" fill="none" stroke="#ff0000" stroke-width="6"/>
<g stroke="#ff0000" stroke-width="6" fill="#ff0000">
<circle cx="180" cy="396" r="3.5"/>
</g>
<path d="M184,339v -28" fill="none" stroke="#ff0000" stroke-width="6"/>
<path d="M184,305v -28" fill="none" stroke="#ff0000" stroke-width="6"/>
<g stroke="#ff0000" stroke-width="6" fill="#ff0000">
<circle cx="184" cy="308" r="3.5"/>
</g>
<path d="M188,384v -20" fill="none" stroke="#ff0000" stroke-width="6"/>
<path d="M188,358v -20" fill="none" stroke="#ff0000" stroke-width="6"/>
<g stroke="#ff0000" stroke-width="6" fill="#ff0000">
<circle cx="188" cy="361" r="3.5"/>
</g>
<path d="M192,393v -6" fill="none" stroke="#ff0000" stroke-width="6"/>
<g stroke="#ff0000" stroke-width="6" fill="#ff0000">
<circle cx="192" cy="396" r="3.5"/>
</g>
<path d="M196,393v -6" fill="none" stroke="#ff0000" stroke-width="6"/>
<g stroke="#ff0000" stroke-width="6" fill="#ff0000">
<circle cx="196" cy="396" r="3.5"/>
</g>
<path d="M200,393v -6" fill="none" stroke="#ff0000" stroke-width="6"/>
<g stroke="#ff0000" stroke-width="6" fill="#ff0000">
<circle cx="200" cy="396" r="3.5"/>
</g>
<path d="M204,396v -14" fill="none" stroke="#ff0000" stroke-width="6"/>
<path d="M204,375v -16" fill="none" stroke="#ff0000" stroke-width="6"/>
<g stroke="#ff0000" stroke-width="6" fill="#ff0000">
<circle cx="204" cy="379" r="3.5"/>
</g>
<path d="M208,396v -14" fill="none" stroke="#ff0000" stroke-width="6"/>
<path d="M208,375v -16" fill="none" stroke="#ff0000" stroke-width="6"/>
<g stroke="#ff0000" stroke-width="6" fill="#ff0000">
<circle cx="208" cy="379" r="3.5"/>
</g>
<path d="M212,396v -14" fill="none" stroke="#ff0000" stroke-width="6"/>
<path d="M212,375v -16" fill="none" stroke="#ff0000" stroke-width="6"/>
<g stroke="#ff0000" stroke-width="6" fill="#ff0000">
<circle cx="212" cy="379" r="3.5"/>
</g>
<path d="M217,393v -6" fill="none" stroke="#ff0000" stroke-width="6"/>
<g stroke="#ff0000" stroke-width="6" fill="#ff0000">
<circle cx="217" cy="396" r="3.5"/>
</g>
<path d="M221,384v -20" fill="none" stroke="#ff0000" stroke-width="6"/>
<path d="M221,358v -20" fill="none" stroke="#ff0000" stroke-width="6"/>
<g stroke="#ff0000" stroke-width="6" fill="#ff0000">
<circle cx="221" cy="361" r="3.5"/>
</g>
<path d="M225,396v -14" fill="none" stroke="#ff0000" stroke-width="6"/>
<path d="M225,375v -16" fill="none" stroke="#ff0000" stroke-width="6"/>
<g stroke="#ff0000" stroke-width="6" fill="#ff0000">
<circle cx="225" cy="379" r="3.5"/>
</g>
<path d="M229,393v -6" fill="none" stroke="#ff0000" stroke-width="6"/>
<g stroke="#ff0000" stroke-width="6" fill="#ff0000">
<circle cx="229" cy="396" r="3.5"/>
</g>
<path d="M233,393v -6" fill="none" stroke="#ff0000" stroke-width="6"/>
<g stroke="#ff0000" stroke-width="6" fill="#ff0000">
<circle cx="233" cy="396" r="3.5"/>
</g>
<path d="M237,393v -6" fill="none" stroke="#ff0000" stroke-width="6"/>
<g stroke="#ff0000" stroke-width="6" fill="#ff0000">
<circle cx="237" cy="396" r="3.5"/>
</g>
<path d="M241,393v -6" fill="none" stroke="#ff0000" stroke-width="6"/>
<g stroke="#ff0000" stroke-width="6" fill="#ff0000">
<circle cx="241" cy="396" r="3.5"/>
</g>
<path d="M245,393v -6" fill="none" stroke="#ff0000" stroke-width="6"/>
<g stroke="#ff0000" stroke-width="6" fill="#ff0000">
<circle cx="245" cy="396" r="3.5"/>
</g>
<path d="M249,393v -6" fill="none" stroke="#ff0000" stroke-width="6"/>
<g stroke="#ff0000" stroke-width="6" fill="#ff0000">
<circle cx="249" cy="396" r="3.5"/>
</g>
<path d="M253,393v -6" fill="none" stroke="#ff0000" stroke-width="6"/>
<g stroke="#ff0000" stroke-width="6" fill="#ff0000">
<circle cx="253" cy="396" r="3.5"/>
</g>
<path d="M257,396v -14" fill="none" stroke="#ff0000" stroke-width="6"/>
<path d="M257,375v -16" fill="none" stroke="#ff0000" stroke-width="6"/>
<g stroke="#ff0000" stroke-width="6" fill="#ff0000">
<circle cx="257" cy="379" r="3.5"/>
</g>
<path d="M262,393v -6" fill="none" stroke="#ff0000" stroke-width="6"/>
<g stroke="#ff0000" stroke-width="6" fill="#ff0000">
<circle cx="262" cy="396" r="3.5"/>
</g>
<path d="M266,396v -14" fill="none" stroke="#ff0000" stroke-width="6"/>
<path d="M266,375v -16" fill="none" stroke="#ff0000" stroke-width="6"/>
<g stroke="#ff0000" stroke-width="6" fill="#ff0000">
<circle cx="266" cy="379" r="3.5"/>
</g>
<path d="M270,355v -26" fill="none" stroke="#ff0000" stroke-width="6"/>
<path d="M270,323v -26" fill="none" stroke="#ff0000" stroke-width="6"/>
<g stroke="#ff0000" stroke-width="6" fill="#ff0000">
<circle cx="270" cy="326" r="3.5"/>
</g>
<path d="M274,393v -6" fill="none" stroke="#ff0000" stroke-width="6"/>
<g stroke="#ff0000" stroke-width="6" fill="#ff0000">
<circle cx="274" cy="396" r="3.5"/>
</g>
<path d="M278,396v -14" fill="none" stroke="#ff0000" stroke-width="6"/>
<path d="M278,375v -16" fill="none" stroke="#ff0000" stroke-width="6"/>
<g stroke="#ff0000" stroke-width="6" fill="#ff0000">
<circle cx="278" cy="379" r="3.5"/>
</g>
<path d="M282,384v -20" fill="none" stroke="#ff0000" stroke-width="6"/>
<path d="M282,358v -20" fill="none" stroke="#ff0000" stroke-width="6"/>
<g stroke="#ff0000" stroke-width="6" fill="#ff0000">
<circle cx="282" cy="361" r="3.5"/>
</g>
<path d="M286,370v -23" fill="none" stroke="#ff0000" stroke-width="6"/>
<path d="M286,340v -23" fill="none" stroke="#ff0000" stroke-width="6"/>
<g stroke="#ff0000" stroke-width="6" fill="#ff0000">
<circle cx="286" cy="343" r="3.5"/>
</g>
<path d="M290,393v -6" fill="none" stroke="#ff0000" stroke-width="6"/>
<g stroke="#ff0000" stroke-width="6" fill="#ff0000">
<circle cx="290" cy="396" r="3.5"/>
</g>
<path d="M294,393v -6" fill="none" stroke="#ff0000" stroke-width="6"/>
<g stroke="#ff0000" stroke-width="6" fill="#ff0000">
<circle cx="294" cy="396" r="3.5"/>
</g>
<path d="M298,393v -6" fill="none" stroke="#ff0000" stroke-width="6"/>
<g stroke="#ff0000" stroke-width="6" fill="#ff0000">
<circle cx="298" cy="396" r="3.5"/>
</g>
<path d="M303,384v -20" fill="none" stroke="#ff0000" stroke-width="6"/>
<path d="M303,358v -20" fill="none" stroke="#ff0000" stroke-width="6"/>
<g stroke="#ff0000" stroke-width="6" fill="#ff0000">
<circle cx="303" cy="361" r="3.5"/>
</g>
<path d="M307,370v -23" fill="none" stroke="#ff0000" stroke-width="6"/>
<path d="M307,340v -23" fill="none" stroke="#ff0000" stroke-width="6"/>
<g stroke="#ff0000" stroke-width="6" fill="#ff0000">
<circle cx="307" cy="343" r="3.5"/>
</g>
<path d="M311,396v -14" fill="none" stroke="#ff0000" stroke-width="6"/>
<path d="M311,375v -16" fill="none" stroke="#ff0000" stroke-width="6"/>
<g stroke="#ff0000" stroke-width="6" fill="#ff0000">
<circle cx="311" cy="379" r="3.5"/>
</g>
<path d="M315,396v -14" fill="none" stroke="#ff0000" stroke-width="6"/>
<path d="M315,375v -16" fill="none" stroke="#ff0000" stroke-width="6"/>
<g stroke="#ff0000" stroke-width="6" fill="#ff0000">
<circle cx="315" cy="379" r="3.5"/>
</g>
<path d="M319,393v -6" fill="none" stroke="#ff0000" stroke-width="6"/>
<g stroke="#ff0000" stroke-width="6" fill="#ff0000">
<circle cx="319" cy="396" r="3.5"/>
</g>
<path d="M323,370v -23" fill="none" stroke="#ff0000" stroke-width="6"/>
<path d="M323,340v -23" fill="none" stroke="#ff0000" stroke-width="6"/>
<g stroke="#ff0000" stroke-width="6" fill="#ff0000">
<circle cx="323" cy="343" r="3.5"/>
</g>
<path d="M327,370v -23" fill="none" stroke="#ff0000" stroke-width="6"/>
<path d="M327,340v -23" fill="none" stroke="#ff0000" stroke-width="6"/>
<g stroke="#ff0000" stroke-width="6" fill="#ff0000">
<circle cx="327" cy="343" r="3.5"/>
</g>
<path d="M331,393v -6" fill="none" stroke="#ff0000" stroke-width="6"/>
<g stroke="#ff0000" stroke-width="6" fill="#ff0000">
<circle cx="331" cy="396" r="3.5"/>
</g>
<path d="M335,396v -14" fill="none" stroke="#ff0000" stroke-width="6"/>
<path d="M335,375v -16" fill="none" stroke="#ff0000" stroke-width="6"/>
<g stroke="#ff0000" stroke-width="6" fill="#ff0000">
<circle cx="335" cy="379" r="3.5"/>
</g>
<path d="M339,393v -6" fill="none" stroke="#ff0000" stroke-width="6"/>
<g stroke="#ff0000" stroke-width="6" fill="#ff0000">
<circle cx="339" cy="396" r="3.5"/>
</g>
<path d="M343,384v -20" fill="none" stroke="#ff0000" stroke-width="6"/>
<path d="M343,358v -20" fill="none" stroke="#ff0000" stroke-width="6"/>
<g stroke="#ff0000" stroke-width="6" fill="#ff0000">
<circle cx="343" cy="361" r="3.5"/>
</g>
<path d="M348,370v -23" fill="none" stroke="#ff0000" stroke-width="6"/>
<path d="M348,340v -23" fill="none" stroke="#ff0000" stroke-width="6"/>
<g stroke="#ff0000" stroke-width="6" fill="#ff0000">
<circle cx="348" cy="343" r="3.5"/>
</g>
<path d="M352,384v -20" fill="none" stroke="#ff0000" stroke-width="6"/>
<path d="M352,358v -20" fill="none" stroke="#ff0000" stroke-width="6"/>
<g stroke="#ff0000" stroke-width="6" fill="#ff0000">
<circle cx="352" cy="361" r="3.5"/>
</g>
<path d="M356,393v -6" fill="none" stroke="#ff0000" stroke-width="6"/>
<g stroke="#ff0000" stroke-width="6" fill="#ff0000">
<circle cx="356" cy="396" r="3.5"/>
</g>
<path d="M360,396v -14" fill="none" stroke="#ff0000" stroke-width="6"/>
<path d="M360,375v -16" fill="none" stroke="#ff0000" stroke-width="6"/>
<g stroke="#ff0000" stroke-width="6" fill="#ff0000">
<circle cx="360" cy="379" r="3.5"/>
</g>
<path d="M364,384v -20" fill="none" stroke="#ff0000" stroke-width="6"/>
<path d="M364,358v -20" fill="none" stroke="#ff0000" stroke-width="6"/>
<g stroke="#ff0000" stroke-width="6" fill="#ff0000">
<circle cx="364" cy="361" r="3.5"/>
</g>
<path d="M368,393v -6" fill="none" stroke="#ff0000" stroke-width="6"/>
<g stroke="#ff0000" stroke-width="6" fill="#ff0000">
<circle cx="368" cy="396" r="3.5"/>
</g>
<path d="M372,396v -14" fill="none" stroke="#ff0000" stroke-width="6"/>
<path d="M372,375v -16" fill="none" stroke="#ff0000" stroke-width="6"/>
<g stroke="#ff0000" stroke-width="6" fill="#ff0000">
<circle cx="372" cy="379" r="3.5"/>
</g>
<path d="M376,393v -6" fill="none" stroke="#ff0000" stroke-width="6"/>
<g stroke="#ff0000" stroke-width="6" fill="#ff0000">
<circle cx="376" cy="396" r="3.5"/>
</g>
<path d="M380,393v -6" fill="none" stroke="#ff0000" stroke-width="6"/>
<g stroke="#ff0000" stroke-width="6" fill="#ff0000">
<circle cx="380" cy="396" r="3.5"/>
</g>
<path d="M384,370v -23" fill="none" stroke="#ff0000" stroke-width="6"/>
<path d="M384,340v -23" fill="none" stroke="#ff0000" stroke-width="6"/>
<g stroke="#ff0000" stroke-width="6" fill="#ff0000">
<circle cx="384" cy="343" r="3.5"/>
</g>
<path d="M389,370v -23" fill="none" stroke="#ff0000" stroke-width="6"/>
<path d="M389,340v -23" fill="none" stroke="#ff0000" stroke-width="6"/>
<g stroke="#ff0000" stroke-width="6" fill="#ff0000">
<circle cx="389" cy="343" r="3.5"/>
</g>
<path d="M393,396v -14" fill="none" stroke="#ff0000" stroke-width="6"/>
<path d="M393,375v -16" fill="none" stroke="#ff0000" stroke-width="6"/>
<g stroke="#ff0000" stroke-width="6" fill="#ff0000">
<circle cx="393" cy="379" r="3.5"/>
</g>
<path d="M397,393v -6" fill="none" stroke="#ff0000" stroke-width="6"/>
<g stroke="#ff0000" stroke-width="6" fill="#ff0000">
<circle cx="397" cy="396" r="3.5"/>
</g>
<path d="M401,396v -14" fill="none" stroke="#ff0000" stroke-width="6"/>
<path d="M401,375v -16" fill="none" stroke="#ff0000" stroke-width="6"/>
<g stroke="#ff0000" stroke-width="6" fill="#ff0000">
<circle cx="401" cy="379" r="3.5"/>
</g>
<path d="M405,393v -6" fill="none" stroke="#ff0000" stroke-width="6"/>
<g stroke="#ff0000" stroke-width="6" fill="#ff0000">
<circle cx="405" cy="396" r="3.5"/>
</g>
<path d="M409,370v -23" fill="none" stroke="#ff0000" stroke-width="6"/>
<path d="M409,340v -23" fill="none" stroke="#ff0000" stroke-width="6"/>
<g stroke="#ff0000" stroke-width="6" fill="#ff0000">
<circle cx="409" cy="343" r="3.5"/>
</g>
<path d="M413,393v -6" fill="none" stroke="#ff0000" stroke-width="6"/>
<g stroke="#ff0000" stroke-width="6" fill="#ff0000">
<circle cx="413" cy="396" r="3.5"/>
</g>
<path d="M417,370v -23" fill="none" stroke="#ff0000" stroke-width="6"/>
<path d="M417,340v -23" fill="none" stroke="#ff0000" stroke-width="6"/>
<g stroke="#ff0000" stroke-width="6" fill="#ff0000">
<circle cx="417" cy="343" r="3.5"/>
</g>
<path d="M421,393v -6" fill="none" stroke="#ff0000" stroke-width="6"/>
<g stroke="#ff0000" stroke-width="6" fill="#ff0000">
<circle cx="421" cy="396" r="3.5"/>
</g>
<path d="M425,393v -6" fill="none" stroke="#ff0000" stroke-width="6"/>
<g stroke="#ff0000" stroke-width="6" fill="#ff0000">
<circle cx="425" cy="396" r="3.5"/>
</g>
<path d="M429,396v -14" fill="none" stroke="#ff0000" stroke-width="6"/>
<path d="M429,375v -16" fill="none" stroke="#ff0000" stroke-width="6"/>
<g stroke="#ff0000" stroke-width="6" fill="#ff0000">
<circle cx="429" cy="379" r="3.5"/>
</g>
<path d="M434,393v -6" fill="none" stroke="#ff0000" stroke-width="6"/>
<g stroke="#ff0000" stroke-width="6" fill="#ff0000">
<circle cx="434" cy="396" r="3.5"/>
</g>
<path d="M438,393v -6" fill="none" stroke="#ff0000" stroke-width="6"/>
<g stroke="#ff0000" stroke-width="6" fill="#ff0000">
<circle cx="438" cy="396" r="3.5"/>
</g>
<path d="M442,393v -6" fill="none" stroke="#ff0000" stroke-width="6"/>
<g stroke="#ff0000" stroke-width="6" fill="#ff0000">
<circle cx="442" cy="396" r="3.5"/>
</g>
<path d="M446,393v -6" fill="none" stroke="#ff0000" stroke-width="6"/>
<g stroke="#ff0000" stroke-width="6" fill="#ff0000">
<circle cx="446" cy="396" r="3.5"/>
</g>
<path d="M450,253v -29" fill="none" stroke="#ff0000" stroke-width="6"/>
<path d="M450,217v -29" fill="none" stroke="#ff0000" stroke-width="6"/>
<g stroke="#ff0000" stroke-width="6" fill="#ff0000">
<circle cx="450" cy="220" r="3.5"/>
</g>
<path d="M454,393v -6" fill="none" stroke="#ff0000" stroke-width="6"/>
<g stroke="#ff0000" stroke-width="6" fill="#ff0000">
<circle cx="454" cy="396" r="3.5"/>
</g>
<path d="M458,393v -6" fill="none" stroke="#ff0000" stroke-width="6"/>
<g stroke="#ff0000" stroke-width="6" fill="#ff0000">
<circle cx="458" cy="396" r="3.5"/>
</g>
<path d="M462,396v -14" fill="none" stroke="#ff0000" stroke-width="6"/>
<path d="M462,375v -16" fill="none" stroke="#ff0000" stroke-width="6"/>
<g stroke="#ff0000" stroke-width="6" fill="#ff0000">
<circle cx="462" cy="379" r="3.5"/>
</g>
<path d="M466,370v -23" fill="none" stroke="#ff0000" stroke-width="6"/>
<path d="M466,340v -23" fill="none" stroke="#ff0000" stroke-width="6"/>
<g stroke="#ff0000" stroke-width="6" fill="#ff0000">
<circle cx="466" cy="343" r="3.5"/>
</g>
<path d="M470,370v -23" fill="none" stroke="#ff0000" stroke-width="6"/>
<path d="M470,340v -23" fill="none" stroke="#ff0000" stroke-width="6"/>
<g stroke="#ff0000" stroke-width="6" fill="#ff0000">
<circle cx="470" cy="343" r="3.5"/>
</g>
<path d="M474,393v -6" fill="none" stroke="#ff0000" stroke-width="6"/>
<g stroke="#ff0000" stroke-width="6" fill="#ff0000">
<circle cx="474" cy="396" r="3.5"/>
</g>
<path d="M479,393v -6" fill="none" stroke="#ff0000" stroke-width="6"/>
<g stroke="#ff0000" stroke-width="6" fill="#ff0000">
<circle cx="479" cy="396" r="3.5"/>
</g>
<path d="M483,393v -6" fill="none" stroke="#ff0000" stroke-width="6"/>
<g stroke="#ff0000" stroke-width="6" fill="#ff0000">
<circle cx="483" cy="396" r="3.5"/>
</g>
<path d="M487,393v -6" fill="none" stroke="#ff0000" stroke-width="6"/>
<g stroke="#ff0000" stroke-width="6" fill="#ff0000">
<circle cx="487" cy="396" r="3.5"/>
</g>
<path d="M491,355v -26" fill="none" stroke="#ff0000" stroke-width="6"/>
<path d="M491,323v -26" fill="none" stroke="#ff0000" stroke-width="6"/>
<g stroke="#ff0000" stroke-width="6" fill="#ff0000">
<circle cx="491" cy="326" r="3.5"/>
</g>
<path d="M495,396v -14" fill="none" stroke="#ff0000" stroke-width="6"/>
<path d="M495,375v -16" fill="none" stroke="#ff0000" stroke-width="6"/>
<g stroke="#ff0000" stroke-width="6" fill="#ff0000">
<circle cx="495" cy="379" r="3.5"/>
</g>
<path d="M499,370v -23" fill="none" stroke="#ff0000" stroke-width="6"/>
<path d="M499,340v -23" fill="none" stroke="#ff0000" stroke-width="6"/>
<g stroke="#ff0000" stroke-width="6" fill="#ff0000">
<circle cx="499" cy="343" r="3.5"/>
</g>
<path d="M503,393v -6" fill="none" stroke="#ff0000" stroke-width="6"/>
<g stroke="#ff0000" stroke-width="6" fill="#ff0000">
<circle cx="503" cy="396" r="3.5"/>
</g>
<path d="M507,339v -28" fill="none" stroke="#ff0000" stroke-width="6"/>
<path d="M507,305v -28" fill="none" stroke="#ff0000" stroke-width="6"/>
<g stroke="#ff0000" stroke-width="6" fill="#ff0000">
<circle cx="507" cy="308" r="3.5"/>
</g>
<path d="M511,355v -26" fill="none" stroke="#ff0000" stroke-width="6"/>
<path d="M511,323v -26" fill="none" stroke="#ff0000" stroke-width="6"/>
<g stroke="#ff0000" stroke-width="6" fill="#ff0000">
<circle cx="511" cy="326" r="3.5"/>
</g>
<path d="M515,339v -28" fill="none" stroke="#ff0000" stroke-width="6"/>
<path d="M515,305v -28" fill="none" stroke="#ff0000" stroke-width="6"/>
<g stroke="#ff0000" stroke-width="6" fill="#ff0000">
<circle cx="515" cy="308" r="3.5"/>
</g>
<path d="M520,346v -46" fill="none" stroke="#ff0000" stroke-width="6"/>
<path d="M520,293v -46" fill="none" stroke="#ff0000" stroke-width="6"/>
<g stroke="#ff0000" stroke-width="6" fill="#ff0000">
<circle cx="520" cy="296" r="3.5"/>
</g>
<path d="M332,107h 42" fill="none" stroke="#ff0000" stroke-width="6"/>
<path d="M479,426v -179" fill="none" stroke="black" stroke-width="3" stroke-dasharray=" 3, 3"/>
<rect x="113" y="-4" width="284" height="38" fill="white"/>
<text x="137" y="24" fill="black" font-size="30" font-family="Helvetica" font-weight="bold">
IGHV3-7_star_01
</text></svg>
