<?xml version="1.0" standalone="no"?>
<svg width="567" height="466" viewBox="0 0 567 466" xmlns="http://www.w3.org/2000/svg">
<title>
/bbx/output/_plots/example/sw/plots/d_gene.svg
</title>
<desc>
Creator: ROOT Version 5.34/14
CreationDate: Thu Jul 30 17:05:54 2015</desc>
<defs>
</defs>
<rect x="0" y="0" width="567" height="466" fill="white"/>
<rect x="79" y="37" width="443" height="359" fill="none" stroke="black"/>
<rect x="79" y="37" width="443" height="359" fill="none" stroke="black"/>
<path d="M79,396h 443" fill="none" stroke="black" stroke-width="3"/>
<g transform="rotate(20,101,406)">
<text x="101" y="406" fill="black" font-size="14" font-family="Times" font-weight="bold">
IGHD1-1*01
</text>
</g>
<g transform="rotate(20,150,406)">
<text x="150" y="406" fill="black" font-size="14" font-family="Times" font-weight="bold">
IGHD1-26*01
</text>
</g>
<g transform="rotate(20,200,406)">
<text x="200" y="406" fill="black" font-size="14" font-family="Times" font-weight="bold">
IGHD2-15*01
</text>
</g>
<g transform="rotate(20,248,406)">
<text x="248" y="406" fill="black" font-size="14" font-family="Times" font-weight="bold">
IGHD2/OR15-2b*01
</text>
</g>
<g transform="rotate(20,297,406)">
<text x="297" y="406" fill="black" font-size="14" font-family="Times" font-weight="bold">
IGHD3-10*01
</text>
</g>
<g transform="rotate(20,347,406)">
<text x="347" y="406" fill="black" font-size="14" font-family="Times" font-weight="bold">
IGHD3-22*01
</text>
</g>
<g transform="rotate(20,396,406)">
<text x="396" y="406" fill="black" font-size="14" font-family="Times" font-weight="bold">
IGHD3-3*02
</text>
</g>
<g transform="rotate(20,445,406)">
<text x="445" y="406" fill="black" font-size="14" font-family="Times" font-weight="bold">
IGHD4-17*01
</text>
</g>
<g transform="rotate(20,494,406)">
<text x="494" y="406" fill="black" font-size="14" font-family="Times" font-weight="bold">
IGHD6-13*01
</text>
</g>
<path d="M104,385v 11" fill="none" stroke="black" stroke-width="3"/>
<path d="M153,385v 11" fill="none" stroke="black" stroke-width="3"/>
<path d="M202,385v 11" fill="none" stroke="black" stroke-width="3"/>
<path d="M251,385v 11" fill="none" stroke="black" stroke-width="3"/>
<path d="M300,385v 11" fill="none" stroke="black" stroke-width="3"/>
<path d="M350,385v 11" fill="none" stroke="black" stroke-width="3"/>
<path d="M399,385v 11" fill="none" stroke="black" stroke-width="3"/>
<path d="M448,385v 11" fill="none" stroke="black" stroke-width="3"/>
<path d="M497,385v 11" fill="none" stroke="black" stroke-width="3"/>
<path d="M104,385v 11" fill="none" stroke="black" stroke-width="3"/>
<path d="M497,385v 11" fill="none" stroke="black" stroke-width="3"/>
<path d="M79,37h 443" fill="none" stroke="black" stroke-width="3"/>
<path d="M104,48v -11" fill="none" stroke="black" stroke-width="3"/>
<path d="M153,48v -11" fill="none" stroke="black" stroke-width="3"/>
<path d="M202,48v -11" fill="none" stroke="black" stroke-width="3"/>
<path d="M251,48v -11" fill="none" stroke="black" stroke-width="3"/>
<path d="M300,48v -11" fill="none" stroke="black" stroke-width="3"/>
<path d="M350,48v -11" fill="none" stroke="black" stroke-width="3"/>
<path d="M399,48v -11" fill="none" stroke="black" stroke-width="3"/>
<path d="M448,48v -11" fill="none" stroke="black" stroke-width="3"/>
<path d="M497,48v -11" fill="none" stroke="black" stroke-width="3"/>
<path d="M104,48v -11" fill="none" stroke="black" stroke-width="3"/>
<path d="M497,48v -11" fill="none" stroke="black" stroke-width="3"/>
<path d="M79,396v -359" fill="none" stroke="black" stroke-width="3"/>
<path d="M92,396h -13" fill="none" stroke="black" stroke-width="3"/>
<path d="M86,370h -7" fill="none" stroke="black" stroke-width="3"/>
<path d="M86,344h -7" fill="none" stroke="black" stroke-width="3"/>
<path d="M86,318h -7" fill="none" stroke="black" stroke-width="3"/>
<path d="M86,292h -7" fill="none" stroke="black" stroke-width="3"/>
<path d="M92,266h -13" fill="none" stroke="black" stroke-width="3"/>
<path d="M86,240h -7" fill="none" stroke="black" stroke-width="3"/>
<path d="M86,214h -7" fill="none" stroke="black" stroke-width="3"/>
<path d="M86,188h -7" fill="none" stroke="black" stroke-width="3"/>
<path d="M86,162h -7" fill="none" stroke="black" stroke-width="3"/>
<path d="M92,136h -13" fill="none" stroke="black" stroke-width="3"/>
<path d="M92,136h -13" fill="none" stroke="black" stroke-width="3"/>
<path d="M86,110h -7" fill="none" stroke="black" stroke-width="3"/>
<path d="M86,84h -7" fill="none" stroke="black" stroke-width="3"/>
<path d="M86,58h -7" fill="none" stroke="black" stroke-width="3"/>
<text x="63" y="404" fill="black" font-size="21" font-family="Times" font-weight="bold">
0
</text>
<text x="51" y="274" fill="black" font-size="21" font-family="Times" font-weight="bold">
10
</text>
<text x="51" y="144" fill="black" font-size="21" font-family="Times" font-weight="bold">
20
</text>
<path d="M522,396v -359" fill="none" stroke="black" stroke-width="3"/>
<path d="M508,396h 14" fill="none" stroke="black" stroke-width="3"/>
<path d="M515,370h 7" fill="none" stroke="black" stroke-width="3"/>
<path d="M515,344h 7" fill="none" stroke="black" stroke-width="3"/>
<path d="M515,318h 7" fill="none" stroke="black" stroke-width="3"/>
<path d="M515,292h 7" fill="none" stroke="black" stroke-width="3"/>
<path d="M508,266h 14" fill="none" stroke="black" stroke-width="3"/>
<path d="M515,240h 7" fill="none" stroke="black" stroke-width="3"/>
<path d="M515,214h 7" fill="none" stroke="black" stroke-width="3"/>
<path d="M515,188h 7" fill="none" stroke="black" stroke-width="3"/>
<path d="M515,162h 7" fill="none" stroke="black" stroke-width="3"/>
<path d="M508,136h 14" fill="none" stroke="black" stroke-width="3"/>
<path d="M508,136h 14" fill="none" stroke="black" stroke-width="3"/>
<path d="M515,110h 7" fill="none" stroke="black" stroke-width="3"/>
<path d="M515,84h 7" fill="none" stroke="black" stroke-width="3"/>
<path d="M515,58h 7" fill="none" stroke="black" stroke-width="3"/>
<rect x="113" y="-4" width="118" height="39" fill="white"/>
<text x="118" y="23" fill="black" font-size="30" font-family="Helvetica" font-weight="bold">
d_gene
</text>
<path d="M104,396v -10" fill="none" stroke="#ff0000" stroke-width="6"/>
<path d="M104,380v -10" fill="none" stroke="#ff0000" stroke-width="6"/>
<g stroke="#ff0000" stroke-width="6" fill="#ff0000">
<circle cx="104" cy="383" r="3.5"/>
</g>
<path d="M153,396v -10" fill="none" stroke="#ff0000" stroke-width="6"/>
<path d="M153,380v -10" fill="none" stroke="#ff0000" stroke-width="6"/>
<g stroke="#ff0000" stroke-width="6" fill="#ff0000">
<circle cx="153" cy="383" r="3.5"/>
</g>
<path d="M202,285v -42" fill="none" stroke="#ff0000" stroke-width="6"/>
<path d="M202,237v -42" fill="none" stroke="#ff0000" stroke-width="6"/>
<g stroke="#ff0000" stroke-width="6" fill="#ff0000">
<circle cx="202" cy="240" r="3.5"/>
</g>
<path d="M251,396v -10" fill="none" stroke="#ff0000" stroke-width="6"/>
<path d="M251,380v -10" fill="none" stroke="#ff0000" stroke-width="6"/>
<g stroke="#ff0000" stroke-width="6" fill="#ff0000">
<circle cx="251" cy="383" r="3.5"/>
</g>
<path d="M300,318v -36" fill="none" stroke="#ff0000" stroke-width="6"/>
<path d="M300,276v -36" fill="none" stroke="#ff0000" stroke-width="6"/>
<g stroke="#ff0000" stroke-width="6" fill="#ff0000">
<circle cx="300" cy="279" r="3.5"/>
</g>
<path d="M350,388v -15" fill="none" stroke="#ff0000" stroke-width="6"/>
<path d="M350,367v -15" fill="none" stroke="#ff0000" stroke-width="6"/>
<g stroke="#ff0000" stroke-width="6" fill="#ff0000">
<circle cx="350" cy="370" r="3.5"/>
</g>
<path d="M399,388v -15" fill="none" stroke="#ff0000" stroke-width="6"/>
<path d="M399,367v -15" fill="none" stroke="#ff0000" stroke-width="6"/>
<g stroke="#ff0000" stroke-width="6" fill="#ff0000">
<circle cx="399" cy="370" r="3.5"/>
</g>
<path d="M448,388v -15" fill="none" stroke="#ff0000" stroke-width="6"/>
<path d="M448,367v -15" fill="none" stroke="#ff0000" stroke-width="6"/>
<g stroke="#ff0000" stroke-width="6" fill="#ff0000">
<circle cx="448" cy="370" r="3.5"/>
</g>
<path d="M497,159v -59" fill="none" stroke="#ff0000" stroke-width="6"/>
<path d="M497,94v -57" fill="none" stroke="#ff0000" stroke-width="6"/>
<g stroke="#ff0000" stroke-width="6" fill="#ff0000">
<circle cx="497" cy="97" r="3.5"/>
</g>
<path d="M80,395v -12h 98v -143h 49v 143h 49v -104h 49v 91h 147v -273h 50" fill="none" stroke="#ff0000" stroke-width="6"/>
<path d="M332,107h 42" fill="none" stroke="#ff0000" stroke-width="6"/>
<rect x="113" y="-4" width="118" height="39" fill="white"/>
<text x="118" y="23" fill="black" font-size="30" font-family="Helvetica" font-weight="bold">
d_gene
</text></svg>
