<?xml version="1.0" standalone="no"?>
<svg width="567" height="466" viewBox="0 0 567 466" xmlns="http://www.w3.org/2000/svg">
<title>
/bbx/output/_plots/example/sw/plots/dj_insertion_content.svg
</title>
<desc>
Creator: ROOT Version 5.34/14
CreationDate: Thu Jul 30 17:05:54 2015</desc>
<defs>
</defs>
<rect x="0" y="0" width="567" height="466" fill="white"/>
<rect x="79" y="37" width="443" height="359" fill="none" stroke="black"/>
<rect x="79" y="37" width="443" height="359" fill="none" stroke="black"/>
<path d="M79,396h 443" fill="none" stroke="black" stroke-width="3"/>
<text x="129" y="411" fill="black" font-size="14" font-family="Times" font-weight="bold">
A
</text>
<text x="239" y="411" fill="black" font-size="14" font-family="Times" font-weight="bold">
C
</text>
<text x="349" y="411" fill="black" font-size="14" font-family="Times" font-weight="bold">
G
</text>
<text x="461" y="411" fill="black" font-size="14" font-family="Times" font-weight="bold">
T
</text>
<path d="M135,385v 11" fill="none" stroke="black" stroke-width="3"/>
<path d="M245,385v 11" fill="none" stroke="black" stroke-width="3"/>
<path d="M356,385v 11" fill="none" stroke="black" stroke-width="3"/>
<path d="M466,385v 11" fill="none" stroke="black" stroke-width="3"/>
<path d="M135,385v 11" fill="none" stroke="black" stroke-width="3"/>
<path d="M466,385v 11" fill="none" stroke="black" stroke-width="3"/>
<path d="M79,37h 443" fill="none" stroke="black" stroke-width="3"/>
<path d="M135,48v -11" fill="none" stroke="black" stroke-width="3"/>
<path d="M245,48v -11" fill="none" stroke="black" stroke-width="3"/>
<path d="M356,48v -11" fill="none" stroke="black" stroke-width="3"/>
<path d="M466,48v -11" fill="none" stroke="black" stroke-width="3"/>
<path d="M135,48v -11" fill="none" stroke="black" stroke-width="3"/>
<path d="M466,48v -11" fill="none" stroke="black" stroke-width="3"/>
<path d="M79,396v -359" fill="none" stroke="black" stroke-width="3"/>
<path d="M92,396h -13" fill="none" stroke="black" stroke-width="3"/>
<path d="M86,367h -7" fill="none" stroke="black" stroke-width="3"/>
<path d="M86,337h -7" fill="none" stroke="black" stroke-width="3"/>
<path d="M86,308h -7" fill="none" stroke="black" stroke-width="3"/>
<path d="M86,279h -7" fill="none" stroke="black" stroke-width="3"/>
<path d="M92,250h -13" fill="none" stroke="black" stroke-width="3"/>
<path d="M86,220h -7" fill="none" stroke="black" stroke-width="3"/>
<path d="M86,191h -7" fill="none" stroke="black" stroke-width="3"/>
<path d="M86,162h -7" fill="none" stroke="black" stroke-width="3"/>
<path d="M86,132h -7" fill="none" stroke="black" stroke-width="3"/>
<path d="M92,103h -13" fill="none" stroke="black" stroke-width="3"/>
<path d="M92,103h -13" fill="none" stroke="black" stroke-width="3"/>
<path d="M86,74h -7" fill="none" stroke="black" stroke-width="3"/>
<path d="M86,44h -7" fill="none" stroke="black" stroke-width="3"/>
<text x="63" y="404" fill="black" font-size="21" font-family="Times" font-weight="bold">
0
</text>
<text x="51" y="257" fill="black" font-size="21" font-family="Times" font-weight="bold">
50
</text>
<text x="41" y="111" fill="black" font-size="21" font-family="Times" font-weight="bold">
100
</text>
<path d="M522,396v -359" fill="none" stroke="black" stroke-width="3"/>
<path d="M508,396h 14" fill="none" stroke="black" stroke-width="3"/>
<path d="M515,367h 7" fill="none" stroke="black" stroke-width="3"/>
<path d="M515,337h 7" fill="none" stroke="black" stroke-width="3"/>
<path d="M515,308h 7" fill="none" stroke="black" stroke-width="3"/>
<path d="M515,279h 7" fill="none" stroke="black" stroke-width="3"/>
<path d="M508,250h 14" fill="none" stroke="black" stroke-width="3"/>
<path d="M515,220h 7" fill="none" stroke="black" stroke-width="3"/>
<path d="M515,191h 7" fill="none" stroke="black" stroke-width="3"/>
<path d="M515,162h 7" fill="none" stroke="black" stroke-width="3"/>
<path d="M515,132h 7" fill="none" stroke="black" stroke-width="3"/>
<path d="M508,103h 14" fill="none" stroke="black" stroke-width="3"/>
<path d="M508,103h 14" fill="none" stroke="black" stroke-width="3"/>
<path d="M515,74h 7" fill="none" stroke="black" stroke-width="3"/>
<path d="M515,44h 7" fill="none" stroke="black" stroke-width="3"/>
<rect x="113" y="-4" width="325" height="39" fill="white"/>
<text x="125" y="23" fill="black" font-size="30" font-family="Helvetica" font-weight="bold">
dj_insertion_content
</text>
<path d="M135,262v -18" fill="none" stroke="#ff0000" stroke-width="6"/>
<path d="M135,238v -19" fill="none" stroke="#ff0000" stroke-width="6"/>
<g stroke="#ff0000" stroke-width="6" fill="#ff0000">
<circle cx="135" cy="241" r="3.5"/>
</g>
<path d="M245,127v -27" fill="none" stroke="#ff0000" stroke-width="6"/>
<path d="M245,94v -26" fill="none" stroke="#ff0000" stroke-width="6"/>
<g stroke="#ff0000" stroke-width="6" fill="#ff0000">
<circle cx="245" cy="97" r="3.5"/>
</g>
<path d="M356,204v -22" fill="none" stroke="#ff0000" stroke-width="6"/>
<path d="M356,176v -22" fill="none" stroke="#ff0000" stroke-width="6"/>
<g stroke="#ff0000" stroke-width="6" fill="#ff0000">
<circle cx="356" cy="179" r="3.5"/>
</g>
<path d="M466,210v -22" fill="none" stroke="#ff0000" stroke-width="6"/>
<path d="M466,182v -22" fill="none" stroke="#ff0000" stroke-width="6"/>
<g stroke="#ff0000" stroke-width="6" fill="#ff0000">
<circle cx="466" cy="185" r="3.5"/>
</g>
<path d="M80,395v -154h 110v -144h 110v 82h 111v 6h 111" fill="none" stroke="#ff0000" stroke-width="6"/>
<path d="M332,107h 42" fill="none" stroke="#ff0000" stroke-width="6"/>
<rect x="113" y="-4" width="325" height="39" fill="white"/>
<text x="125" y="23" fill="black" font-size="30" font-family="Helvetica" font-weight="bold">
dj_insertion_content
</text></svg>
