<?xml version="1.0" standalone="no"?>
<svg width="567" height="466" viewBox="0 0 567 466" xmlns="http://www.w3.org/2000/svg">
<title>
/bbx/output/_plots/example/hmm/mute-freqs/d/plots/IGHD2-15_star_01.svg
</title>
<desc>
Creator: ROOT Version 5.34/14
CreationDate: Thu Jul 30 17:06:12 2015</desc>
<defs>
</defs>
<rect x="0" y="0" width="567" height="466" fill="white"/>
<rect x="79" y="37" width="443" height="359" fill="none" stroke="black"/>
<rect x="79" y="37" width="443" height="359" fill="none" stroke="black"/>
<path d="M79,396h 443" fill="none" stroke="black" stroke-width="3"/>
<path d="M127,385v 11" fill="none" stroke="black" stroke-width="3"/>
<path d="M147,391v 5" fill="none" stroke="black" stroke-width="3"/>
<path d="M166,391v 5" fill="none" stroke="black" stroke-width="3"/>
<path d="M185,391v 5" fill="none" stroke="black" stroke-width="3"/>
<path d="M204,391v 5" fill="none" stroke="black" stroke-width="3"/>
<path d="M224,385v 11" fill="none" stroke="black" stroke-width="3"/>
<path d="M243,391v 5" fill="none" stroke="black" stroke-width="3"/>
<path d="M262,391v 5" fill="none" stroke="black" stroke-width="3"/>
<path d="M281,391v 5" fill="none" stroke="black" stroke-width="3"/>
<path d="M300,391v 5" fill="none" stroke="black" stroke-width="3"/>
<path d="M320,385v 11" fill="none" stroke="black" stroke-width="3"/>
<path d="M339,391v 5" fill="none" stroke="black" stroke-width="3"/>
<path d="M358,391v 5" fill="none" stroke="black" stroke-width="3"/>
<path d="M377,391v 5" fill="none" stroke="black" stroke-width="3"/>
<path d="M397,391v 5" fill="none" stroke="black" stroke-width="3"/>
<path d="M416,385v 11" fill="none" stroke="black" stroke-width="3"/>
<path d="M435,391v 5" fill="none" stroke="black" stroke-width="3"/>
<path d="M454,391v 5" fill="none" stroke="black" stroke-width="3"/>
<path d="M474,391v 5" fill="none" stroke="black" stroke-width="3"/>
<path d="M493,391v 5" fill="none" stroke="black" stroke-width="3"/>
<path d="M512,385v 11" fill="none" stroke="black" stroke-width="3"/>
<path d="M127,385v 11" fill="none" stroke="black" stroke-width="3"/>
<path d="M108,391v 5" fill="none" stroke="black" stroke-width="3"/>
<path d="M89,391v 5" fill="none" stroke="black" stroke-width="3"/>
<path d="M512,385v 11" fill="none" stroke="black" stroke-width="3"/>
<text x="121" y="416" fill="black" font-size="21" font-family="Times" font-weight="bold">
5
</text>
<text x="212" y="416" fill="black" font-size="21" font-family="Times" font-weight="bold">
10
</text>
<text x="308" y="416" fill="black" font-size="21" font-family="Times" font-weight="bold">
15
</text>
<text x="404" y="416" fill="black" font-size="21" font-family="Times" font-weight="bold">
20
</text>
<text x="500" y="416" fill="black" font-size="21" font-family="Times" font-weight="bold">
25
</text>
<path d="M79,37h 443" fill="none" stroke="black" stroke-width="3"/>
<path d="M127,48v -11" fill="none" stroke="black" stroke-width="3"/>
<path d="M147,43v -6" fill="none" stroke="black" stroke-width="3"/>
<path d="M166,43v -6" fill="none" stroke="black" stroke-width="3"/>
<path d="M185,43v -6" fill="none" stroke="black" stroke-width="3"/>
<path d="M204,43v -6" fill="none" stroke="black" stroke-width="3"/>
<path d="M224,48v -11" fill="none" stroke="black" stroke-width="3"/>
<path d="M243,43v -6" fill="none" stroke="black" stroke-width="3"/>
<path d="M262,43v -6" fill="none" stroke="black" stroke-width="3"/>
<path d="M281,43v -6" fill="none" stroke="black" stroke-width="3"/>
<path d="M300,43v -6" fill="none" stroke="black" stroke-width="3"/>
<path d="M320,48v -11" fill="none" stroke="black" stroke-width="3"/>
<path d="M339,43v -6" fill="none" stroke="black" stroke-width="3"/>
<path d="M358,43v -6" fill="none" stroke="black" stroke-width="3"/>
<path d="M377,43v -6" fill="none" stroke="black" stroke-width="3"/>
<path d="M397,43v -6" fill="none" stroke="black" stroke-width="3"/>
<path d="M416,48v -11" fill="none" stroke="black" stroke-width="3"/>
<path d="M435,43v -6" fill="none" stroke="black" stroke-width="3"/>
<path d="M454,43v -6" fill="none" stroke="black" stroke-width="3"/>
<path d="M474,43v -6" fill="none" stroke="black" stroke-width="3"/>
<path d="M493,43v -6" fill="none" stroke="black" stroke-width="3"/>
<path d="M512,48v -11" fill="none" stroke="black" stroke-width="3"/>
<path d="M127,48v -11" fill="none" stroke="black" stroke-width="3"/>
<path d="M108,43v -6" fill="none" stroke="black" stroke-width="3"/>
<path d="M89,43v -6" fill="none" stroke="black" stroke-width="3"/>
<path d="M512,48v -11" fill="none" stroke="black" stroke-width="3"/>
<path d="M79,396v -359" fill="none" stroke="black" stroke-width="3"/>
<path d="M92,396h -13" fill="none" stroke="black" stroke-width="3"/>
<path d="M86,366h -7" fill="none" stroke="black" stroke-width="3"/>
<path d="M86,336h -7" fill="none" stroke="black" stroke-width="3"/>
<path d="M86,306h -7" fill="none" stroke="black" stroke-width="3"/>
<path d="M86,277h -7" fill="none" stroke="black" stroke-width="3"/>
<path d="M92,247h -13" fill="none" stroke="black" stroke-width="3"/>
<path d="M86,217h -7" fill="none" stroke="black" stroke-width="3"/>
<path d="M86,187h -7" fill="none" stroke="black" stroke-width="3"/>
<path d="M86,157h -7" fill="none" stroke="black" stroke-width="3"/>
<path d="M86,127h -7" fill="none" stroke="black" stroke-width="3"/>
<path d="M92,97h -13" fill="none" stroke="black" stroke-width="3"/>
<path d="M92,97h -13" fill="none" stroke="black" stroke-width="3"/>
<path d="M86,67h -7" fill="none" stroke="black" stroke-width="3"/>
<path d="M86,37h -7" fill="none" stroke="black" stroke-width="3"/>
<text x="46" y="404" fill="black" font-size="21" font-family="Times" font-weight="bold">
0.0
</text>
<text x="46" y="254" fill="black" font-size="21" font-family="Times" font-weight="bold">
0.5
</text>
<text x="46" y="105" fill="black" font-size="21" font-family="Times" font-weight="bold">
1.0
</text>
<path d="M522,396v -359" fill="none" stroke="black" stroke-width="3"/>
<path d="M508,396h 14" fill="none" stroke="black" stroke-width="3"/>
<path d="M515,366h 7" fill="none" stroke="black" stroke-width="3"/>
<path d="M515,336h 7" fill="none" stroke="black" stroke-width="3"/>
<path d="M515,306h 7" fill="none" stroke="black" stroke-width="3"/>
<path d="M515,277h 7" fill="none" stroke="black" stroke-width="3"/>
<path d="M508,247h 14" fill="none" stroke="black" stroke-width="3"/>
<path d="M515,217h 7" fill="none" stroke="black" stroke-width="3"/>
<path d="M515,187h 7" fill="none" stroke="black" stroke-width="3"/>
<path d="M515,157h 7" fill="none" stroke="black" stroke-width="3"/>
<path d="M515,127h 7" fill="none" stroke="black" stroke-width="3"/>
<path d="M508,97h 14" fill="none" stroke="black" stroke-width="3"/>
<path d="M508,97h 14" fill="none" stroke="black" stroke-width="3"/>
<path d="M515,67h 7" fill="none" stroke="black" stroke-width="3"/>
<path d="M515,37h 7" fill="none" stroke="black" stroke-width="3"/>
<rect x="113" y="-4" width="303" height="38" fill="white"/>
<text x="136" y="24" fill="black" font-size="30" font-family="Helvetica" font-weight="bold">
IGHD2-15_star_01
</text>
<path d="M89,396v -24" fill="none" stroke="#ff0000" stroke-width="6"/>
<path d="M89,366v -25" fill="none" stroke="#ff0000" stroke-width="6"/>
<path d="M79,369h 7" fill="none" stroke="#ff0000" stroke-width="6"/>
<path d="M92,369h 7" fill="none" stroke="#ff0000" stroke-width="6"/>
<g stroke="#ff0000" stroke-width="6" fill="#ff0000">
<circle cx="89" cy="369" r="3.5"/>
</g>
<path d="M108,152v -24" fill="none" stroke="#ff0000" stroke-width="6"/>
<path d="M108,121v -24" fill="none" stroke="#ff0000" stroke-width="6"/>
<path d="M99,124h 6" fill="none" stroke="#ff0000" stroke-width="6"/>
<path d="M111,124h 7" fill="none" stroke="#ff0000" stroke-width="6"/>
<g stroke="#ff0000" stroke-width="6" fill="#ff0000">
<circle cx="108" cy="124" r="3.5"/>
</g>
<path d="M127,375v -30" fill="none" stroke="#ff0000" stroke-width="6"/>
<path d="M127,338v -29" fill="none" stroke="#ff0000" stroke-width="6"/>
<path d="M118,342h 6" fill="none" stroke="#ff0000" stroke-width="6"/>
<path d="M131,342h 6" fill="none" stroke="#ff0000" stroke-width="6"/>
<g stroke="#ff0000" stroke-width="6" fill="#ff0000">
<circle cx="127" cy="342" r="3.5"/>
</g>
<path d="M147,393v -9" fill="none" stroke="#ff0000" stroke-width="6"/>
<g stroke="#ff0000" stroke-width="6" fill="#ff0000">
<circle cx="147" cy="396" r="3.5"/>
</g>
<path d="M166,396v -22" fill="none" stroke="#ff0000" stroke-width="6"/>
<path d="M166,368v -22" fill="none" stroke="#ff0000" stroke-width="6"/>
<path d="M156,371h 7" fill="none" stroke="#ff0000" stroke-width="6"/>
<path d="M169,371h 7" fill="none" stroke="#ff0000" stroke-width="6"/>
<g stroke="#ff0000" stroke-width="6" fill="#ff0000">
<circle cx="166" cy="371" r="3.5"/>
</g>
<path d="M185,393v -9" fill="none" stroke="#ff0000" stroke-width="6"/>
<g stroke="#ff0000" stroke-width="6" fill="#ff0000">
<circle cx="185" cy="396" r="3.5"/>
</g>
<path d="M204,260v -35" fill="none" stroke="#ff0000" stroke-width="6"/>
<path d="M204,218v -35" fill="none" stroke="#ff0000" stroke-width="6"/>
<path d="M195,222h 6" fill="none" stroke="#ff0000" stroke-width="6"/>
<path d="M208,222h 6" fill="none" stroke="#ff0000" stroke-width="6"/>
<g stroke="#ff0000" stroke-width="6" fill="#ff0000">
<circle cx="204" cy="222" r="3.5"/>
</g>
<path d="M224,393v -9" fill="none" stroke="#ff0000" stroke-width="6"/>
<g stroke="#ff0000" stroke-width="6" fill="#ff0000">
<circle cx="224" cy="396" r="3.5"/>
</g>
<path d="M243,393v -9" fill="none" stroke="#ff0000" stroke-width="6"/>
<g stroke="#ff0000" stroke-width="6" fill="#ff0000">
<circle cx="243" cy="396" r="3.5"/>
</g>
<path d="M262,356v -31" fill="none" stroke="#ff0000" stroke-width="6"/>
<path d="M262,318v -31" fill="none" stroke="#ff0000" stroke-width="6"/>
<path d="M252,321h 7" fill="none" stroke="#ff0000" stroke-width="6"/>
<path d="M265,321h 7" fill="none" stroke="#ff0000" stroke-width="6"/>
<g stroke="#ff0000" stroke-width="6" fill="#ff0000">
<circle cx="262" cy="321" r="3.5"/>
</g>
<path d="M281,377v -27" fill="none" stroke="#ff0000" stroke-width="6"/>
<path d="M281,343v -28" fill="none" stroke="#ff0000" stroke-width="6"/>
<path d="M272,346h 6" fill="none" stroke="#ff0000" stroke-width="6"/>
<path d="M285,346h 6" fill="none" stroke="#ff0000" stroke-width="6"/>
<g stroke="#ff0000" stroke-width="6" fill="#ff0000">
<circle cx="281" cy="346" r="3.5"/>
</g>
<path d="M300,396v -22" fill="none" stroke="#ff0000" stroke-width="6"/>
<path d="M300,368v -22" fill="none" stroke="#ff0000" stroke-width="6"/>
<path d="M291,371h 6" fill="none" stroke="#ff0000" stroke-width="6"/>
<path d="M304,371h 6" fill="none" stroke="#ff0000" stroke-width="6"/>
<g stroke="#ff0000" stroke-width="6" fill="#ff0000">
<circle cx="300" cy="371" r="3.5"/>
</g>
<path d="M320,310v -35" fill="none" stroke="#ff0000" stroke-width="6"/>
<path d="M320,268v -35" fill="none" stroke="#ff0000" stroke-width="6"/>
<path d="M310,272h 6" fill="none" stroke="#ff0000" stroke-width="6"/>
<path d="M323,272h 6" fill="none" stroke="#ff0000" stroke-width="6"/>
<g stroke="#ff0000" stroke-width="6" fill="#ff0000">
<circle cx="320" cy="272" r="3.5"/>
</g>
<path d="M339,356v -31" fill="none" stroke="#ff0000" stroke-width="6"/>
<path d="M339,318v -31" fill="none" stroke="#ff0000" stroke-width="6"/>
<path d="M329,321h 7" fill="none" stroke="#ff0000" stroke-width="6"/>
<path d="M342,321h 7" fill="none" stroke="#ff0000" stroke-width="6"/>
<g stroke="#ff0000" stroke-width="6" fill="#ff0000">
<circle cx="339" cy="321" r="3.5"/>
</g>
<path d="M358,393v -9" fill="none" stroke="#ff0000" stroke-width="6"/>
<g stroke="#ff0000" stroke-width="6" fill="#ff0000">
<circle cx="358" cy="396" r="3.5"/>
</g>
<path d="M377,396v -22" fill="none" stroke="#ff0000" stroke-width="6"/>
<path d="M377,368v -22" fill="none" stroke="#ff0000" stroke-width="6"/>
<path d="M368,371h 6" fill="none" stroke="#ff0000" stroke-width="6"/>
<path d="M381,371h 6" fill="none" stroke="#ff0000" stroke-width="6"/>
<g stroke="#ff0000" stroke-width="6" fill="#ff0000">
<circle cx="377" cy="371" r="3.5"/>
</g>
<path d="M397,396v -22" fill="none" stroke="#ff0000" stroke-width="6"/>
<path d="M397,368v -22" fill="none" stroke="#ff0000" stroke-width="6"/>
<path d="M387,371h 6" fill="none" stroke="#ff0000" stroke-width="6"/>
<path d="M400,371h 6" fill="none" stroke="#ff0000" stroke-width="6"/>
<g stroke="#ff0000" stroke-width="6" fill="#ff0000">
<circle cx="397" cy="371" r="3.5"/>
</g>
<path d="M416,356v -31" fill="none" stroke="#ff0000" stroke-width="6"/>
<path d="M416,318v -31" fill="none" stroke="#ff0000" stroke-width="6"/>
<path d="M406,321h 7" fill="none" stroke="#ff0000" stroke-width="6"/>
<path d="M419,321h 6" fill="none" stroke="#ff0000" stroke-width="6"/>
<g stroke="#ff0000" stroke-width="6" fill="#ff0000">
<circle cx="416" cy="321" r="3.5"/>
</g>
<path d="M435,396v -22" fill="none" stroke="#ff0000" stroke-width="6"/>
<path d="M435,368v -22" fill="none" stroke="#ff0000" stroke-width="6"/>
<path d="M425,371h 7" fill="none" stroke="#ff0000" stroke-width="6"/>
<path d="M438,371h 7" fill="none" stroke="#ff0000" stroke-width="6"/>
<g stroke="#ff0000" stroke-width="6" fill="#ff0000">
<circle cx="435" cy="371" r="3.5"/>
</g>
<path d="M454,393v -9" fill="none" stroke="#ff0000" stroke-width="6"/>
<g stroke="#ff0000" stroke-width="6" fill="#ff0000">
<circle cx="454" cy="396" r="3.5"/>
</g>
<path d="M474,393v -10" fill="none" stroke="#ff0000" stroke-width="6"/>
<g stroke="#ff0000" stroke-width="6" fill="#ff0000">
<circle cx="474" cy="396" r="3.5"/>
</g>
<path d="M493,143v -43" fill="none" stroke="#ff0000" stroke-width="6"/>
<path d="M493,94v -43" fill="none" stroke="#ff0000" stroke-width="6"/>
<path d="M483,97h 6" fill="none" stroke="#ff0000" stroke-width="6"/>
<path d="M496,97h 6" fill="none" stroke="#ff0000" stroke-width="6"/>
<g stroke="#ff0000" stroke-width="6" fill="#ff0000">
<circle cx="493" cy="97" r="3.5"/>
</g>
<path d="M512,393v -43" fill="none" stroke="#ff0000" stroke-width="6"/>
<g stroke="#ff0000" stroke-width="6" fill="#ff0000">
<circle cx="512" cy="396" r="3.5"/>
</g>
<path d="M332,107h 42" fill="none" stroke="#ff0000" stroke-width="6"/>
<rect x="113" y="-4" width="303" height="38" fill="white"/>
<text x="136" y="24" fill="black" font-size="30" font-family="Helvetica" font-weight="bold">
IGHD2-15_star_01
</text></svg>
