<?xml version="1.0" standalone="no"?>
<svg width="567" height="466" viewBox="0 0 567 466" xmlns="http://www.w3.org/2000/svg">
<title>
/bbx/output/_plots/example/hmm/mute-freqs/d/plots/IGHD1-26_star_01.svg
</title>
<desc>
Creator: ROOT Version 5.34/14
CreationDate: Thu Jul 30 17:06:12 2015</desc>
<defs>
</defs>
<rect x="0" y="0" width="567" height="466" fill="white"/>
<rect x="79" y="37" width="443" height="359" fill="none" stroke="black"/>
<rect x="79" y="37" width="443" height="359" fill="none" stroke="black"/>
<path d="M79,396h 443" fill="none" stroke="black" stroke-width="3"/>
<path d="M116,385v 11" fill="none" stroke="black" stroke-width="3"/>
<path d="M153,391v 5" fill="none" stroke="black" stroke-width="3"/>
<path d="M190,391v 5" fill="none" stroke="black" stroke-width="3"/>
<path d="M227,391v 5" fill="none" stroke="black" stroke-width="3"/>
<path d="M264,385v 11" fill="none" stroke="black" stroke-width="3"/>
<path d="M300,391v 5" fill="none" stroke="black" stroke-width="3"/>
<path d="M337,391v 5" fill="none" stroke="black" stroke-width="3"/>
<path d="M374,391v 5" fill="none" stroke="black" stroke-width="3"/>
<path d="M411,385v 11" fill="none" stroke="black" stroke-width="3"/>
<path d="M116,385v 11" fill="none" stroke="black" stroke-width="3"/>
<path d="M79,391v 5" fill="none" stroke="black" stroke-width="3"/>
<path d="M411,385v 11" fill="none" stroke="black" stroke-width="3"/>
<path d="M448,391v 5" fill="none" stroke="black" stroke-width="3"/>
<path d="M485,391v 5" fill="none" stroke="black" stroke-width="3"/>
<text x="110" y="416" fill="black" font-size="21" font-family="Times" font-weight="bold">
8
</text>
<text x="252" y="416" fill="black" font-size="21" font-family="Times" font-weight="bold">
10
</text>
<text x="399" y="416" fill="black" font-size="21" font-family="Times" font-weight="bold">
12
</text>
<path d="M79,37h 443" fill="none" stroke="black" stroke-width="3"/>
<path d="M116,48v -11" fill="none" stroke="black" stroke-width="3"/>
<path d="M153,43v -6" fill="none" stroke="black" stroke-width="3"/>
<path d="M190,43v -6" fill="none" stroke="black" stroke-width="3"/>
<path d="M227,43v -6" fill="none" stroke="black" stroke-width="3"/>
<path d="M264,48v -11" fill="none" stroke="black" stroke-width="3"/>
<path d="M300,43v -6" fill="none" stroke="black" stroke-width="3"/>
<path d="M337,43v -6" fill="none" stroke="black" stroke-width="3"/>
<path d="M374,43v -6" fill="none" stroke="black" stroke-width="3"/>
<path d="M411,48v -11" fill="none" stroke="black" stroke-width="3"/>
<path d="M116,48v -11" fill="none" stroke="black" stroke-width="3"/>
<path d="M79,43v -6" fill="none" stroke="black" stroke-width="3"/>
<path d="M411,48v -11" fill="none" stroke="black" stroke-width="3"/>
<path d="M448,43v -6" fill="none" stroke="black" stroke-width="3"/>
<path d="M485,43v -6" fill="none" stroke="black" stroke-width="3"/>
<path d="M79,396v -359" fill="none" stroke="black" stroke-width="3"/>
<path d="M92,396h -13" fill="none" stroke="black" stroke-width="3"/>
<path d="M86,378h -7" fill="none" stroke="black" stroke-width="3"/>
<path d="M86,360h -7" fill="none" stroke="black" stroke-width="3"/>
<path d="M86,342h -7" fill="none" stroke="black" stroke-width="3"/>
<path d="M92,324h -13" fill="none" stroke="black" stroke-width="3"/>
<path d="M86,306h -7" fill="none" stroke="black" stroke-width="3"/>
<path d="M86,288h -7" fill="none" stroke="black" stroke-width="3"/>
<path d="M86,271h -7" fill="none" stroke="black" stroke-width="3"/>
<path d="M92,253h -13" fill="none" stroke="black" stroke-width="3"/>
<path d="M86,235h -7" fill="none" stroke="black" stroke-width="3"/>
<path d="M86,217h -7" fill="none" stroke="black" stroke-width="3"/>
<path d="M86,199h -7" fill="none" stroke="black" stroke-width="3"/>
<path d="M92,181h -13" fill="none" stroke="black" stroke-width="3"/>
<path d="M86,163h -7" fill="none" stroke="black" stroke-width="3"/>
<path d="M86,145h -7" fill="none" stroke="black" stroke-width="3"/>
<path d="M86,127h -7" fill="none" stroke="black" stroke-width="3"/>
<path d="M92,109h -13" fill="none" stroke="black" stroke-width="3"/>
<path d="M86,91h -7" fill="none" stroke="black" stroke-width="3"/>
<path d="M86,73h -7" fill="none" stroke="black" stroke-width="3"/>
<path d="M86,55h -7" fill="none" stroke="black" stroke-width="3"/>
<path d="M92,37h -13" fill="none" stroke="black" stroke-width="3"/>
<path d="M92,37h -13" fill="none" stroke="black" stroke-width="3"/>
<text x="46" y="404" fill="black" font-size="21" font-family="Times" font-weight="bold">
0.0
</text>
<text x="46" y="332" fill="black" font-size="21" font-family="Times" font-weight="bold">
0.2
</text>
<text x="46" y="261" fill="black" font-size="21" font-family="Times" font-weight="bold">
0.4
</text>
<text x="46" y="188" fill="black" font-size="21" font-family="Times" font-weight="bold">
0.6
</text>
<text x="46" y="117" fill="black" font-size="21" font-family="Times" font-weight="bold">
0.8
</text>
<text x="46" y="45" fill="black" font-size="21" font-family="Times" font-weight="bold">
1.0
</text>
<path d="M522,396v -359" fill="none" stroke="black" stroke-width="3"/>
<path d="M508,396h 14" fill="none" stroke="black" stroke-width="3"/>
<path d="M515,378h 7" fill="none" stroke="black" stroke-width="3"/>
<path d="M515,360h 7" fill="none" stroke="black" stroke-width="3"/>
<path d="M515,342h 7" fill="none" stroke="black" stroke-width="3"/>
<path d="M508,324h 14" fill="none" stroke="black" stroke-width="3"/>
<path d="M515,306h 7" fill="none" stroke="black" stroke-width="3"/>
<path d="M515,288h 7" fill="none" stroke="black" stroke-width="3"/>
<path d="M515,271h 7" fill="none" stroke="black" stroke-width="3"/>
<path d="M508,253h 14" fill="none" stroke="black" stroke-width="3"/>
<path d="M515,235h 7" fill="none" stroke="black" stroke-width="3"/>
<path d="M515,217h 7" fill="none" stroke="black" stroke-width="3"/>
<path d="M515,199h 7" fill="none" stroke="black" stroke-width="3"/>
<path d="M508,181h 14" fill="none" stroke="black" stroke-width="3"/>
<path d="M515,163h 7" fill="none" stroke="black" stroke-width="3"/>
<path d="M515,145h 7" fill="none" stroke="black" stroke-width="3"/>
<path d="M515,127h 7" fill="none" stroke="black" stroke-width="3"/>
<path d="M508,109h 14" fill="none" stroke="black" stroke-width="3"/>
<path d="M515,91h 7" fill="none" stroke="black" stroke-width="3"/>
<path d="M515,73h 7" fill="none" stroke="black" stroke-width="3"/>
<path d="M515,55h 7" fill="none" stroke="black" stroke-width="3"/>
<path d="M508,37h 14" fill="none" stroke="black" stroke-width="3"/>
<path d="M508,37h 14" fill="none" stroke="black" stroke-width="3"/>
<rect x="113" y="-4" width="303" height="38" fill="white"/>
<text x="136" y="24" fill="black" font-size="30" font-family="Helvetica" font-weight="bold">
IGHD1-26_star_01
</text>
<path d="M116,393v -73" fill="none" stroke="#ff0000" stroke-width="6"/>
<g stroke="#ff0000" stroke-width="6" fill="#ff0000">
<circle cx="116" cy="396" r="3.5"/>
</g>
<path d="M190,393v -73" fill="none" stroke="#ff0000" stroke-width="6"/>
<g stroke="#ff0000" stroke-width="6" fill="#ff0000">
<circle cx="190" cy="396" r="3.5"/>
</g>
<path d="M264,393v -73" fill="none" stroke="#ff0000" stroke-width="6"/>
<g stroke="#ff0000" stroke-width="6" fill="#ff0000">
<circle cx="264" cy="396" r="3.5"/>
</g>
<path d="M337,393v -73" fill="none" stroke="#ff0000" stroke-width="6"/>
<g stroke="#ff0000" stroke-width="6" fill="#ff0000">
<circle cx="337" cy="396" r="3.5"/>
</g>
<path d="M411,393v -73" fill="none" stroke="#ff0000" stroke-width="6"/>
<g stroke="#ff0000" stroke-width="6" fill="#ff0000">
<circle cx="411" cy="396" r="3.5"/>
</g>
<path d="M485,393v -73" fill="none" stroke="#ff0000" stroke-width="6"/>
<g stroke="#ff0000" stroke-width="6" fill="#ff0000">
<circle cx="485" cy="396" r="3.5"/>
</g>
<path d="M332,107h 42" fill="none" stroke="#ff0000" stroke-width="6"/>
<rect x="113" y="-4" width="303" height="38" fill="white"/>
<text x="136" y="24" fill="black" font-size="30" font-family="Helvetica" font-weight="bold">
IGHD1-26_star_01
</text></svg>
