<?xml version="1.0" standalone="no"?>
<svg width="567" height="466" viewBox="0 0 567 466" xmlns="http://www.w3.org/2000/svg">
<title>
/bbx/output/_plots/example/hmm/plots/d_gene.svg
</title>
<desc>
Creator: ROOT Version 5.34/14
CreationDate: Wed Aug 19 22:00:14 2015</desc>
<defs>
</defs>
<rect x="0" y="0" width="567" height="466" fill="white"/>
<rect x="79" y="37" width="443" height="359" fill="none" stroke="black"/>
<rect x="79" y="37" width="443" height="359" fill="none" stroke="black"/>
<path d="M79,396h 443" fill="none" stroke="black" stroke-width="3"/>
<g transform="rotate(20,104,406)">
<text x="104" y="406" fill="black" font-size="14" font-family="Times" font-weight="bold">
IGHD1-26*01
</text>
</g>
<g transform="rotate(20,160,406)">
<text x="160" y="406" fill="black" font-size="14" font-family="Times" font-weight="bold">
IGHD2-15*01
</text>
</g>
<g transform="rotate(20,215,406)">
<text x="215" y="406" fill="black" font-size="14" font-family="Times" font-weight="bold">
IGHD2/OR15-2b*01
</text>
</g>
<g transform="rotate(20,270,406)">
<text x="270" y="406" fill="black" font-size="14" font-family="Times" font-weight="bold">
IGHD3-10*01
</text>
</g>
<g transform="rotate(20,325,406)">
<text x="325" y="406" fill="black" font-size="14" font-family="Times" font-weight="bold">
IGHD3-22*01
</text>
</g>
<g transform="rotate(20,380,406)">
<text x="380" y="406" fill="black" font-size="14" font-family="Times" font-weight="bold">
IGHD3-3*02
</text>
</g>
<g transform="rotate(20,436,406)">
<text x="436" y="406" fill="black" font-size="14" font-family="Times" font-weight="bold">
IGHD4-17*01
</text>
</g>
<g transform="rotate(20,491,406)">
<text x="491" y="406" fill="black" font-size="14" font-family="Times" font-weight="bold">
IGHD6-13*01
</text>
</g>
<path d="M107,385v 11" fill="none" stroke="black" stroke-width="3"/>
<path d="M162,385v 11" fill="none" stroke="black" stroke-width="3"/>
<path d="M218,385v 11" fill="none" stroke="black" stroke-width="3"/>
<path d="M273,385v 11" fill="none" stroke="black" stroke-width="3"/>
<path d="M328,385v 11" fill="none" stroke="black" stroke-width="3"/>
<path d="M383,385v 11" fill="none" stroke="black" stroke-width="3"/>
<path d="M439,385v 11" fill="none" stroke="black" stroke-width="3"/>
<path d="M494,385v 11" fill="none" stroke="black" stroke-width="3"/>
<path d="M107,385v 11" fill="none" stroke="black" stroke-width="3"/>
<path d="M494,385v 11" fill="none" stroke="black" stroke-width="3"/>
<path d="M79,37h 443" fill="none" stroke="black" stroke-width="3"/>
<path d="M107,48v -11" fill="none" stroke="black" stroke-width="3"/>
<path d="M162,48v -11" fill="none" stroke="black" stroke-width="3"/>
<path d="M218,48v -11" fill="none" stroke="black" stroke-width="3"/>
<path d="M273,48v -11" fill="none" stroke="black" stroke-width="3"/>
<path d="M328,48v -11" fill="none" stroke="black" stroke-width="3"/>
<path d="M383,48v -11" fill="none" stroke="black" stroke-width="3"/>
<path d="M439,48v -11" fill="none" stroke="black" stroke-width="3"/>
<path d="M494,48v -11" fill="none" stroke="black" stroke-width="3"/>
<path d="M107,48v -11" fill="none" stroke="black" stroke-width="3"/>
<path d="M494,48v -11" fill="none" stroke="black" stroke-width="3"/>
<path d="M79,396v -359" fill="none" stroke="black" stroke-width="3"/>
<path d="M92,396h -13" fill="none" stroke="black" stroke-width="3"/>
<path d="M86,372h -7" fill="none" stroke="black" stroke-width="3"/>
<path d="M86,348h -7" fill="none" stroke="black" stroke-width="3"/>
<path d="M86,324h -7" fill="none" stroke="black" stroke-width="3"/>
<path d="M86,300h -7" fill="none" stroke="black" stroke-width="3"/>
<path d="M92,277h -13" fill="none" stroke="black" stroke-width="3"/>
<path d="M86,253h -7" fill="none" stroke="black" stroke-width="3"/>
<path d="M86,229h -7" fill="none" stroke="black" stroke-width="3"/>
<path d="M86,205h -7" fill="none" stroke="black" stroke-width="3"/>
<path d="M86,181h -7" fill="none" stroke="black" stroke-width="3"/>
<path d="M92,157h -13" fill="none" stroke="black" stroke-width="3"/>
<path d="M86,133h -7" fill="none" stroke="black" stroke-width="3"/>
<path d="M86,109h -7" fill="none" stroke="black" stroke-width="3"/>
<path d="M86,85h -7" fill="none" stroke="black" stroke-width="3"/>
<path d="M86,61h -7" fill="none" stroke="black" stroke-width="3"/>
<path d="M92,37h -13" fill="none" stroke="black" stroke-width="3"/>
<text x="63" y="404" fill="black" font-size="21" font-family="Times" font-weight="bold">
0
</text>
<text x="51" y="284" fill="black" font-size="21" font-family="Times" font-weight="bold">
10
</text>
<text x="51" y="165" fill="black" font-size="21" font-family="Times" font-weight="bold">
20
</text>
<text x="51" y="45" fill="black" font-size="21" font-family="Times" font-weight="bold">
30
</text>
<path d="M522,396v -359" fill="none" stroke="black" stroke-width="3"/>
<path d="M508,396h 14" fill="none" stroke="black" stroke-width="3"/>
<path d="M515,372h 7" fill="none" stroke="black" stroke-width="3"/>
<path d="M515,348h 7" fill="none" stroke="black" stroke-width="3"/>
<path d="M515,324h 7" fill="none" stroke="black" stroke-width="3"/>
<path d="M515,300h 7" fill="none" stroke="black" stroke-width="3"/>
<path d="M508,277h 14" fill="none" stroke="black" stroke-width="3"/>
<path d="M515,253h 7" fill="none" stroke="black" stroke-width="3"/>
<path d="M515,229h 7" fill="none" stroke="black" stroke-width="3"/>
<path d="M515,205h 7" fill="none" stroke="black" stroke-width="3"/>
<path d="M515,181h 7" fill="none" stroke="black" stroke-width="3"/>
<path d="M508,157h 14" fill="none" stroke="black" stroke-width="3"/>
<path d="M515,133h 7" fill="none" stroke="black" stroke-width="3"/>
<path d="M515,109h 7" fill="none" stroke="black" stroke-width="3"/>
<path d="M515,85h 7" fill="none" stroke="black" stroke-width="3"/>
<path d="M515,61h 7" fill="none" stroke="black" stroke-width="3"/>
<path d="M508,37h 14" fill="none" stroke="black" stroke-width="3"/>
<rect x="113" y="-4" width="118" height="39" fill="white"/>
<text x="118" y="23" fill="black" font-size="30" font-family="Helvetica" font-weight="bold">
d_gene
</text>
<path d="M107,396v -9" fill="none" stroke="#ff0000" stroke-width="6"/>
<path d="M107,381v -9" fill="none" stroke="#ff0000" stroke-width="6"/>
<g stroke="#ff0000" stroke-width="6" fill="#ff0000">
<circle cx="107" cy="384" r="3.5"/>
</g>
<path d="M162,294v -38" fill="none" stroke="#ff0000" stroke-width="6"/>
<path d="M162,249v -38" fill="none" stroke="#ff0000" stroke-width="6"/>
<g stroke="#ff0000" stroke-width="6" fill="#ff0000">
<circle cx="162" cy="253" r="3.5"/>
</g>
<path d="M218,396v -9" fill="none" stroke="#ff0000" stroke-width="6"/>
<path d="M218,381v -9" fill="none" stroke="#ff0000" stroke-width="6"/>
<g stroke="#ff0000" stroke-width="6" fill="#ff0000">
<circle cx="218" cy="384" r="3.5"/>
</g>
<path d="M273,324v -32" fill="none" stroke="#ff0000" stroke-width="6"/>
<path d="M273,285v -32" fill="none" stroke="#ff0000" stroke-width="6"/>
<g stroke="#ff0000" stroke-width="6" fill="#ff0000">
<circle cx="273" cy="288" r="3.5"/>
</g>
<path d="M328,396v -9" fill="none" stroke="#ff0000" stroke-width="6"/>
<path d="M328,381v -9" fill="none" stroke="#ff0000" stroke-width="6"/>
<g stroke="#ff0000" stroke-width="6" fill="#ff0000">
<circle cx="328" cy="384" r="3.5"/>
</g>
<path d="M383,389v -14" fill="none" stroke="#ff0000" stroke-width="6"/>
<path d="M383,369v -14" fill="none" stroke="#ff0000" stroke-width="6"/>
<g stroke="#ff0000" stroke-width="6" fill="#ff0000">
<circle cx="383" cy="372" r="3.5"/>
</g>
<path d="M439,389v -14" fill="none" stroke="#ff0000" stroke-width="6"/>
<path d="M439,369v -14" fill="none" stroke="#ff0000" stroke-width="6"/>
<g stroke="#ff0000" stroke-width="6" fill="#ff0000">
<circle cx="439" cy="372" r="3.5"/>
</g>
<path d="M494,157v -57" fill="none" stroke="#ff0000" stroke-width="6"/>
<path d="M494,94v -57" fill="none" stroke="#ff0000" stroke-width="6"/>
<g stroke="#ff0000" stroke-width="6" fill="#ff0000">
<circle cx="494" cy="97" r="3.5"/>
</g>
<path d="M80,395v -11h 55v -131h 55v 131h 55v -96h 55v 96h 56v -12h 110v -275h 56" fill="none" stroke="#ff0000" stroke-width="6"/>
<path d="M332,107h 42" fill="none" stroke="#ff0000" stroke-width="6"/>
<rect x="113" y="-4" width="118" height="39" fill="white"/>
<text x="118" y="23" fill="black" font-size="30" font-family="Helvetica" font-weight="bold">
d_gene
</text></svg>
