<?xml version="1.0" standalone="no"?>
<svg width="567" height="466" viewBox="0 0 567 466" xmlns="http://www.w3.org/2000/svg">
<title>
/bbx/output/_plots/example/hmm/true/mute-freqs/plots/all-mean-freq.svg
</title>
<desc>
Creator: ROOT Version 5.34/14
CreationDate: Wed Aug 19 22:00:20 2015</desc>
<defs>
</defs>
<rect x="0" y="0" width="567" height="466" fill="white"/>
<rect x="79" y="37" width="443" height="359" fill="none" stroke="black"/>
<rect x="79" y="37" width="443" height="359" fill="none" stroke="black"/>
<path d="M79,396h 443" fill="none" stroke="black" stroke-width="3"/>
<path d="M79,385v 11" fill="none" stroke="black" stroke-width="3"/>
<path d="M101,391v 5" fill="none" stroke="black" stroke-width="3"/>
<path d="M124,391v 5" fill="none" stroke="black" stroke-width="3"/>
<path d="M146,391v 5" fill="none" stroke="black" stroke-width="3"/>
<path d="M168,391v 5" fill="none" stroke="black" stroke-width="3"/>
<path d="M190,385v 11" fill="none" stroke="black" stroke-width="3"/>
<path d="M212,391v 5" fill="none" stroke="black" stroke-width="3"/>
<path d="M234,391v 5" fill="none" stroke="black" stroke-width="3"/>
<path d="M256,391v 5" fill="none" stroke="black" stroke-width="3"/>
<path d="M278,391v 5" fill="none" stroke="black" stroke-width="3"/>
<path d="M300,385v 11" fill="none" stroke="black" stroke-width="3"/>
<path d="M323,391v 5" fill="none" stroke="black" stroke-width="3"/>
<path d="M345,391v 5" fill="none" stroke="black" stroke-width="3"/>
<path d="M367,391v 5" fill="none" stroke="black" stroke-width="3"/>
<path d="M389,391v 5" fill="none" stroke="black" stroke-width="3"/>
<path d="M411,385v 11" fill="none" stroke="black" stroke-width="3"/>
<path d="M433,391v 5" fill="none" stroke="black" stroke-width="3"/>
<path d="M455,391v 5" fill="none" stroke="black" stroke-width="3"/>
<path d="M477,391v 5" fill="none" stroke="black" stroke-width="3"/>
<path d="M499,391v 5" fill="none" stroke="black" stroke-width="3"/>
<path d="M522,385v 11" fill="none" stroke="black" stroke-width="3"/>
<text x="65" y="416" fill="black" font-size="21" font-family="Times" font-weight="bold">
0.0
</text>
<text x="176" y="416" fill="black" font-size="21" font-family="Times" font-weight="bold">
0.1
</text>
<text x="286" y="416" fill="black" font-size="21" font-family="Times" font-weight="bold">
0.2
</text>
<text x="397" y="416" fill="black" font-size="21" font-family="Times" font-weight="bold">
0.3
</text>
<text x="507" y="416" fill="black" font-size="21" font-family="Times" font-weight="bold">
0.4
</text>
<path d="M79,37h 443" fill="none" stroke="black" stroke-width="3"/>
<path d="M79,48v -11" fill="none" stroke="black" stroke-width="3"/>
<path d="M101,43v -6" fill="none" stroke="black" stroke-width="3"/>
<path d="M124,43v -6" fill="none" stroke="black" stroke-width="3"/>
<path d="M146,43v -6" fill="none" stroke="black" stroke-width="3"/>
<path d="M168,43v -6" fill="none" stroke="black" stroke-width="3"/>
<path d="M190,48v -11" fill="none" stroke="black" stroke-width="3"/>
<path d="M212,43v -6" fill="none" stroke="black" stroke-width="3"/>
<path d="M234,43v -6" fill="none" stroke="black" stroke-width="3"/>
<path d="M256,43v -6" fill="none" stroke="black" stroke-width="3"/>
<path d="M278,43v -6" fill="none" stroke="black" stroke-width="3"/>
<path d="M300,48v -11" fill="none" stroke="black" stroke-width="3"/>
<path d="M323,43v -6" fill="none" stroke="black" stroke-width="3"/>
<path d="M345,43v -6" fill="none" stroke="black" stroke-width="3"/>
<path d="M367,43v -6" fill="none" stroke="black" stroke-width="3"/>
<path d="M389,43v -6" fill="none" stroke="black" stroke-width="3"/>
<path d="M411,48v -11" fill="none" stroke="black" stroke-width="3"/>
<path d="M433,43v -6" fill="none" stroke="black" stroke-width="3"/>
<path d="M455,43v -6" fill="none" stroke="black" stroke-width="3"/>
<path d="M477,43v -6" fill="none" stroke="black" stroke-width="3"/>
<path d="M499,43v -6" fill="none" stroke="black" stroke-width="3"/>
<path d="M522,48v -11" fill="none" stroke="black" stroke-width="3"/>
<path d="M79,396v -359" fill="none" stroke="black" stroke-width="3"/>
<path d="M92,396h -13" fill="none" stroke="black" stroke-width="3"/>
<path d="M86,379h -7" fill="none" stroke="black" stroke-width="3"/>
<path d="M86,361h -7" fill="none" stroke="black" stroke-width="3"/>
<path d="M86,343h -7" fill="none" stroke="black" stroke-width="3"/>
<path d="M86,326h -7" fill="none" stroke="black" stroke-width="3"/>
<path d="M92,308h -13" fill="none" stroke="black" stroke-width="3"/>
<path d="M86,290h -7" fill="none" stroke="black" stroke-width="3"/>
<path d="M86,273h -7" fill="none" stroke="black" stroke-width="3"/>
<path d="M86,255h -7" fill="none" stroke="black" stroke-width="3"/>
<path d="M86,238h -7" fill="none" stroke="black" stroke-width="3"/>
<path d="M92,220h -13" fill="none" stroke="black" stroke-width="3"/>
<path d="M86,202h -7" fill="none" stroke="black" stroke-width="3"/>
<path d="M86,185h -7" fill="none" stroke="black" stroke-width="3"/>
<path d="M86,167h -7" fill="none" stroke="black" stroke-width="3"/>
<path d="M86,150h -7" fill="none" stroke="black" stroke-width="3"/>
<path d="M92,132h -13" fill="none" stroke="black" stroke-width="3"/>
<path d="M86,114h -7" fill="none" stroke="black" stroke-width="3"/>
<path d="M86,97h -7" fill="none" stroke="black" stroke-width="3"/>
<path d="M86,79h -7" fill="none" stroke="black" stroke-width="3"/>
<path d="M86,62h -7" fill="none" stroke="black" stroke-width="3"/>
<path d="M92,44h -13" fill="none" stroke="black" stroke-width="3"/>
<path d="M92,44h -13" fill="none" stroke="black" stroke-width="3"/>
<text x="35" y="404" fill="black" font-size="21" font-family="Times" font-weight="bold">
0.00
</text>
<text x="35" y="316" fill="black" font-size="21" font-family="Times" font-weight="bold">
0.05
</text>
<text x="35" y="228" fill="black" font-size="21" font-family="Times" font-weight="bold">
0.10
</text>
<text x="35" y="139" fill="black" font-size="21" font-family="Times" font-weight="bold">
0.15
</text>
<text x="35" y="51" fill="black" font-size="21" font-family="Times" font-weight="bold">
0.20
</text>
<path d="M522,396v -359" fill="none" stroke="black" stroke-width="3"/>
<path d="M508,396h 14" fill="none" stroke="black" stroke-width="3"/>
<path d="M515,379h 7" fill="none" stroke="black" stroke-width="3"/>
<path d="M515,361h 7" fill="none" stroke="black" stroke-width="3"/>
<path d="M515,343h 7" fill="none" stroke="black" stroke-width="3"/>
<path d="M515,326h 7" fill="none" stroke="black" stroke-width="3"/>
<path d="M508,308h 14" fill="none" stroke="black" stroke-width="3"/>
<path d="M515,290h 7" fill="none" stroke="black" stroke-width="3"/>
<path d="M515,273h 7" fill="none" stroke="black" stroke-width="3"/>
<path d="M515,255h 7" fill="none" stroke="black" stroke-width="3"/>
<path d="M515,238h 7" fill="none" stroke="black" stroke-width="3"/>
<path d="M508,220h 14" fill="none" stroke="black" stroke-width="3"/>
<path d="M515,202h 7" fill="none" stroke="black" stroke-width="3"/>
<path d="M515,185h 7" fill="none" stroke="black" stroke-width="3"/>
<path d="M515,167h 7" fill="none" stroke="black" stroke-width="3"/>
<path d="M515,150h 7" fill="none" stroke="black" stroke-width="3"/>
<path d="M508,132h 14" fill="none" stroke="black" stroke-width="3"/>
<path d="M515,114h 7" fill="none" stroke="black" stroke-width="3"/>
<path d="M515,97h 7" fill="none" stroke="black" stroke-width="3"/>
<path d="M515,79h 7" fill="none" stroke="black" stroke-width="3"/>
<path d="M515,62h 7" fill="none" stroke="black" stroke-width="3"/>
<path d="M508,44h 14" fill="none" stroke="black" stroke-width="3"/>
<path d="M508,44h 14" fill="none" stroke="black" stroke-width="3"/>
<rect x="113" y="-4" width="218" height="40" fill="white"/>
<text x="121" y="25" fill="black" font-size="31" font-family="Helvetica" font-weight="bold">
all-mean-freq
</text>
<path d="M80,395v -32h 10v 32h 34v -65h 5v -67h 6v 33h 5v 99h 6v -132h 5v 33h 6v -199h 5v 166h 6v -33h 5v -33h 6v 133h 5v -67h 6v 67h 5v 65h 6v -32h 6v 32h 11v -32h 5v 32h 11v -32h 6v 32h 282" fill="none" stroke="#ff0000" stroke-width="6"/>
<text x="382" y="130" fill="black" font-size="55" font-family="Helvetica" font-weight="bold">
 (0.07)
</text>
<path d="M332,107h 42" fill="none" stroke="#ff0000" stroke-width="6"/>
<rect x="113" y="-4" width="218" height="40" fill="white"/>
<text x="121" y="25" fill="black" font-size="31" font-family="Helvetica" font-weight="bold">
all-mean-freq
</text></svg>
