<?xml version="1.0" standalone="no"?>
<svg width="567" height="466" viewBox="0 0 567 466" xmlns="http://www.w3.org/2000/svg">
<title>
/bbx/output/_plots/example/hmm/dj_insertion/plots/IGHJ6_star_03-dj_insertion.svg
</title>
<desc>
Creator: ROOT Version 5.34/14
CreationDate: Wed Aug 19 19:38:30 2015</desc>
<defs>
</defs>
<rect x="0" y="0" width="567" height="466" fill="white"/>
<rect x="79" y="37" width="443" height="359" fill="none" stroke="black"/>
<rect x="79" y="37" width="443" height="359" fill="none" stroke="black"/>
<path d="M79,396h 443" fill="none" stroke="black" stroke-width="3"/>
<path d="M153,385v 11" fill="none" stroke="black" stroke-width="3"/>
<path d="M183,391v 5" fill="none" stroke="black" stroke-width="3"/>
<path d="M212,391v 5" fill="none" stroke="black" stroke-width="3"/>
<path d="M242,391v 5" fill="none" stroke="black" stroke-width="3"/>
<path d="M271,391v 5" fill="none" stroke="black" stroke-width="3"/>
<path d="M300,385v 11" fill="none" stroke="black" stroke-width="3"/>
<path d="M330,391v 5" fill="none" stroke="black" stroke-width="3"/>
<path d="M359,391v 5" fill="none" stroke="black" stroke-width="3"/>
<path d="M389,391v 5" fill="none" stroke="black" stroke-width="3"/>
<path d="M418,391v 5" fill="none" stroke="black" stroke-width="3"/>
<path d="M448,385v 11" fill="none" stroke="black" stroke-width="3"/>
<path d="M153,385v 11" fill="none" stroke="black" stroke-width="3"/>
<path d="M124,391v 5" fill="none" stroke="black" stroke-width="3"/>
<path d="M94,391v 5" fill="none" stroke="black" stroke-width="3"/>
<path d="M448,385v 11" fill="none" stroke="black" stroke-width="3"/>
<path d="M477,391v 5" fill="none" stroke="black" stroke-width="3"/>
<path d="M507,391v 5" fill="none" stroke="black" stroke-width="3"/>
<text x="147" y="416" fill="black" font-size="21" font-family="Times" font-weight="bold">
0
</text>
<text x="295" y="416" fill="black" font-size="21" font-family="Times" font-weight="bold">
1
</text>
<text x="441" y="416" fill="black" font-size="21" font-family="Times" font-weight="bold">
2
</text>
<path d="M79,37h 443" fill="none" stroke="black" stroke-width="3"/>
<path d="M153,48v -11" fill="none" stroke="black" stroke-width="3"/>
<path d="M183,43v -6" fill="none" stroke="black" stroke-width="3"/>
<path d="M212,43v -6" fill="none" stroke="black" stroke-width="3"/>
<path d="M242,43v -6" fill="none" stroke="black" stroke-width="3"/>
<path d="M271,43v -6" fill="none" stroke="black" stroke-width="3"/>
<path d="M300,48v -11" fill="none" stroke="black" stroke-width="3"/>
<path d="M330,43v -6" fill="none" stroke="black" stroke-width="3"/>
<path d="M359,43v -6" fill="none" stroke="black" stroke-width="3"/>
<path d="M389,43v -6" fill="none" stroke="black" stroke-width="3"/>
<path d="M418,43v -6" fill="none" stroke="black" stroke-width="3"/>
<path d="M448,48v -11" fill="none" stroke="black" stroke-width="3"/>
<path d="M153,48v -11" fill="none" stroke="black" stroke-width="3"/>
<path d="M124,43v -6" fill="none" stroke="black" stroke-width="3"/>
<path d="M94,43v -6" fill="none" stroke="black" stroke-width="3"/>
<path d="M448,48v -11" fill="none" stroke="black" stroke-width="3"/>
<path d="M477,43v -6" fill="none" stroke="black" stroke-width="3"/>
<path d="M507,43v -6" fill="none" stroke="black" stroke-width="3"/>
<path d="M79,396v -359" fill="none" stroke="black" stroke-width="3"/>
<path d="M92,396h -13" fill="none" stroke="black" stroke-width="3"/>
<path d="M86,375h -7" fill="none" stroke="black" stroke-width="3"/>
<path d="M86,353h -7" fill="none" stroke="black" stroke-width="3"/>
<path d="M86,332h -7" fill="none" stroke="black" stroke-width="3"/>
<path d="M86,311h -7" fill="none" stroke="black" stroke-width="3"/>
<path d="M92,289h -13" fill="none" stroke="black" stroke-width="3"/>
<path d="M86,268h -7" fill="none" stroke="black" stroke-width="3"/>
<path d="M86,247h -7" fill="none" stroke="black" stroke-width="3"/>
<path d="M86,225h -7" fill="none" stroke="black" stroke-width="3"/>
<path d="M86,204h -7" fill="none" stroke="black" stroke-width="3"/>
<path d="M92,183h -13" fill="none" stroke="black" stroke-width="3"/>
<path d="M86,161h -7" fill="none" stroke="black" stroke-width="3"/>
<path d="M86,140h -7" fill="none" stroke="black" stroke-width="3"/>
<path d="M86,118h -7" fill="none" stroke="black" stroke-width="3"/>
<path d="M86,97h -7" fill="none" stroke="black" stroke-width="3"/>
<path d="M92,76h -13" fill="none" stroke="black" stroke-width="3"/>
<path d="M92,76h -13" fill="none" stroke="black" stroke-width="3"/>
<path d="M86,54h -7" fill="none" stroke="black" stroke-width="3"/>
<text x="63" y="404" fill="black" font-size="21" font-family="Times" font-weight="bold">
0
</text>
<text x="63" y="297" fill="black" font-size="21" font-family="Times" font-weight="bold">
5
</text>
<text x="51" y="191" fill="black" font-size="21" font-family="Times" font-weight="bold">
10
</text>
<text x="51" y="83" fill="black" font-size="21" font-family="Times" font-weight="bold">
15
</text>
<path d="M522,396v -359" fill="none" stroke="black" stroke-width="3"/>
<path d="M508,396h 14" fill="none" stroke="black" stroke-width="3"/>
<path d="M515,375h 7" fill="none" stroke="black" stroke-width="3"/>
<path d="M515,353h 7" fill="none" stroke="black" stroke-width="3"/>
<path d="M515,332h 7" fill="none" stroke="black" stroke-width="3"/>
<path d="M515,311h 7" fill="none" stroke="black" stroke-width="3"/>
<path d="M508,289h 14" fill="none" stroke="black" stroke-width="3"/>
<path d="M515,268h 7" fill="none" stroke="black" stroke-width="3"/>
<path d="M515,247h 7" fill="none" stroke="black" stroke-width="3"/>
<path d="M515,225h 7" fill="none" stroke="black" stroke-width="3"/>
<path d="M515,204h 7" fill="none" stroke="black" stroke-width="3"/>
<path d="M508,183h 14" fill="none" stroke="black" stroke-width="3"/>
<path d="M515,161h 7" fill="none" stroke="black" stroke-width="3"/>
<path d="M515,140h 7" fill="none" stroke="black" stroke-width="3"/>
<path d="M515,118h 7" fill="none" stroke="black" stroke-width="3"/>
<path d="M515,97h 7" fill="none" stroke="black" stroke-width="3"/>
<path d="M508,76h 14" fill="none" stroke="black" stroke-width="3"/>
<path d="M508,76h 14" fill="none" stroke="black" stroke-width="3"/>
<path d="M515,54h 7" fill="none" stroke="black" stroke-width="3"/>
<rect x="113" y="-4" width="397" height="39" fill="white"/>
<text x="130" y="23" fill="black" font-size="28" font-family="Helvetica" font-weight="bold">
IGHJ6_star_03-dj_insertion
</text>
<path d="M153,177v -77" fill="none" stroke="#ff0000" stroke-width="6"/>
<path d="M153,94v -57" fill="none" stroke="#ff0000" stroke-width="6"/>
<g stroke="#ff0000" stroke-width="6" fill="#ff0000">
<circle cx="153" cy="97" r="3.5"/>
</g>
<path d="M448,396v -18" fill="none" stroke="#ff0000" stroke-width="6"/>
<path d="M448,371v -18" fill="none" stroke="#ff0000" stroke-width="6"/>
<g stroke="#ff0000" stroke-width="6" fill="#ff0000">
<circle cx="448" cy="375" r="3.5"/>
</g>
<path d="M80,395v -298h 147v 298h 147v -20h 148" fill="none" stroke="#ff0000" stroke-width="6"/>
<path d="M332,107h 42" fill="none" stroke="#ff0000" stroke-width="6"/>
<rect x="113" y="-4" width="397" height="39" fill="white"/>
<text x="130" y="23" fill="black" font-size="28" font-family="Helvetica" font-weight="bold">
IGHJ6_star_03-dj_insertion
</text></svg>
