<?xml version="1.0" standalone="no"?>
<svg width="567" height="466" viewBox="0 0 567 466" xmlns="http://www.w3.org/2000/svg">
<title>
_plots/example/sw/performance/plots/hamming_to_true_naive.svg
</title>
<desc>
Creator: ROOT Version 5.34/14
CreationDate: Tue Jul 28 23:41:05 2015</desc>
<defs>
</defs>
<rect x="0" y="0" width="567" height="466" fill="white"/>
<rect x="79" y="37" width="443" height="359" fill="none" stroke="black"/>
<rect x="79" y="37" width="443" height="359" fill="none" stroke="black"/>
<path d="M79,396h 443" fill="none" stroke="black" stroke-width="3"/>
<text x="268" y="446" fill="black" font-size="32" font-family="Times" font-weight="bold">
hamming distance
</text>
<path d="M92,385v 11" fill="none" stroke="black" stroke-width="3"/>
<path d="M116,391v 5" fill="none" stroke="black" stroke-width="3"/>
<path d="M141,391v 5" fill="none" stroke="black" stroke-width="3"/>
<path d="M165,391v 5" fill="none" stroke="black" stroke-width="3"/>
<path d="M190,391v 5" fill="none" stroke="black" stroke-width="3"/>
<path d="M214,385v 11" fill="none" stroke="black" stroke-width="3"/>
<path d="M239,391v 5" fill="none" stroke="black" stroke-width="3"/>
<path d="M264,391v 5" fill="none" stroke="black" stroke-width="3"/>
<path d="M288,391v 5" fill="none" stroke="black" stroke-width="3"/>
<path d="M313,391v 5" fill="none" stroke="black" stroke-width="3"/>
<path d="M337,385v 11" fill="none" stroke="black" stroke-width="3"/>
<path d="M362,391v 5" fill="none" stroke="black" stroke-width="3"/>
<path d="M386,391v 5" fill="none" stroke="black" stroke-width="3"/>
<path d="M411,391v 5" fill="none" stroke="black" stroke-width="3"/>
<path d="M436,391v 5" fill="none" stroke="black" stroke-width="3"/>
<path d="M460,385v 11" fill="none" stroke="black" stroke-width="3"/>
<path d="M92,385v 11" fill="none" stroke="black" stroke-width="3"/>
<path d="M460,385v 11" fill="none" stroke="black" stroke-width="3"/>
<path d="M485,391v 5" fill="none" stroke="black" stroke-width="3"/>
<path d="M509,391v 5" fill="none" stroke="black" stroke-width="3"/>
<text x="86" y="416" fill="black" font-size="21" font-family="Times" font-weight="bold">
0
</text>
<text x="209" y="416" fill="black" font-size="21" font-family="Times" font-weight="bold">
5
</text>
<text x="326" y="416" fill="black" font-size="21" font-family="Times" font-weight="bold">
10
</text>
<text x="448" y="416" fill="black" font-size="21" font-family="Times" font-weight="bold">
15
</text>
<path d="M79,37h 443" fill="none" stroke="black" stroke-width="3"/>
<path d="M92,48v -11" fill="none" stroke="black" stroke-width="3"/>
<path d="M116,43v -6" fill="none" stroke="black" stroke-width="3"/>
<path d="M141,43v -6" fill="none" stroke="black" stroke-width="3"/>
<path d="M165,43v -6" fill="none" stroke="black" stroke-width="3"/>
<path d="M190,43v -6" fill="none" stroke="black" stroke-width="3"/>
<path d="M214,48v -11" fill="none" stroke="black" stroke-width="3"/>
<path d="M239,43v -6" fill="none" stroke="black" stroke-width="3"/>
<path d="M264,43v -6" fill="none" stroke="black" stroke-width="3"/>
<path d="M288,43v -6" fill="none" stroke="black" stroke-width="3"/>
<path d="M313,43v -6" fill="none" stroke="black" stroke-width="3"/>
<path d="M337,48v -11" fill="none" stroke="black" stroke-width="3"/>
<path d="M362,43v -6" fill="none" stroke="black" stroke-width="3"/>
<path d="M386,43v -6" fill="none" stroke="black" stroke-width="3"/>
<path d="M411,43v -6" fill="none" stroke="black" stroke-width="3"/>
<path d="M436,43v -6" fill="none" stroke="black" stroke-width="3"/>
<path d="M460,48v -11" fill="none" stroke="black" stroke-width="3"/>
<path d="M92,48v -11" fill="none" stroke="black" stroke-width="3"/>
<path d="M460,48v -11" fill="none" stroke="black" stroke-width="3"/>
<path d="M485,43v -6" fill="none" stroke="black" stroke-width="3"/>
<path d="M509,43v -6" fill="none" stroke="black" stroke-width="3"/>
<path d="M79,396v -359" fill="none" stroke="black" stroke-width="3"/>
<path d="M92,396h -13" fill="none" stroke="black" stroke-width="3"/>
<path d="M86,381h -7" fill="none" stroke="black" stroke-width="3"/>
<path d="M86,365h -7" fill="none" stroke="black" stroke-width="3"/>
<path d="M86,350h -7" fill="none" stroke="black" stroke-width="3"/>
<path d="M86,335h -7" fill="none" stroke="black" stroke-width="3"/>
<path d="M92,319h -13" fill="none" stroke="black" stroke-width="3"/>
<path d="M86,304h -7" fill="none" stroke="black" stroke-width="3"/>
<path d="M86,289h -7" fill="none" stroke="black" stroke-width="3"/>
<path d="M86,273h -7" fill="none" stroke="black" stroke-width="3"/>
<path d="M86,258h -7" fill="none" stroke="black" stroke-width="3"/>
<path d="M92,243h -13" fill="none" stroke="black" stroke-width="3"/>
<path d="M86,227h -7" fill="none" stroke="black" stroke-width="3"/>
<path d="M86,212h -7" fill="none" stroke="black" stroke-width="3"/>
<path d="M86,197h -7" fill="none" stroke="black" stroke-width="3"/>
<path d="M86,181h -7" fill="none" stroke="black" stroke-width="3"/>
<path d="M92,166h -13" fill="none" stroke="black" stroke-width="3"/>
<path d="M86,151h -7" fill="none" stroke="black" stroke-width="3"/>
<path d="M86,135h -7" fill="none" stroke="black" stroke-width="3"/>
<path d="M86,120h -7" fill="none" stroke="black" stroke-width="3"/>
<path d="M86,105h -7" fill="none" stroke="black" stroke-width="3"/>
<path d="M92,89h -13" fill="none" stroke="black" stroke-width="3"/>
<path d="M92,89h -13" fill="none" stroke="black" stroke-width="3"/>
<path d="M86,74h -7" fill="none" stroke="black" stroke-width="3"/>
<path d="M86,59h -7" fill="none" stroke="black" stroke-width="3"/>
<path d="M86,43h -7" fill="none" stroke="black" stroke-width="3"/>
<text x="35" y="404" fill="black" font-size="21" font-family="Times" font-weight="bold">
0.00
</text>
<text x="35" y="328" fill="black" font-size="21" font-family="Times" font-weight="bold">
0.05
</text>
<text x="35" y="250" fill="black" font-size="21" font-family="Times" font-weight="bold">
0.10
</text>
<text x="35" y="174" fill="black" font-size="21" font-family="Times" font-weight="bold">
0.15
</text>
<text x="35" y="97" fill="black" font-size="21" font-family="Times" font-weight="bold">
0.20
</text>
<path d="M522,396v -359" fill="none" stroke="black" stroke-width="3"/>
<path d="M508,396h 14" fill="none" stroke="black" stroke-width="3"/>
<path d="M515,381h 7" fill="none" stroke="black" stroke-width="3"/>
<path d="M515,365h 7" fill="none" stroke="black" stroke-width="3"/>
<path d="M515,350h 7" fill="none" stroke="black" stroke-width="3"/>
<path d="M515,335h 7" fill="none" stroke="black" stroke-width="3"/>
<path d="M508,319h 14" fill="none" stroke="black" stroke-width="3"/>
<path d="M515,304h 7" fill="none" stroke="black" stroke-width="3"/>
<path d="M515,289h 7" fill="none" stroke="black" stroke-width="3"/>
<path d="M515,273h 7" fill="none" stroke="black" stroke-width="3"/>
<path d="M515,258h 7" fill="none" stroke="black" stroke-width="3"/>
<path d="M508,243h 14" fill="none" stroke="black" stroke-width="3"/>
<path d="M515,227h 7" fill="none" stroke="black" stroke-width="3"/>
<path d="M515,212h 7" fill="none" stroke="black" stroke-width="3"/>
<path d="M515,197h 7" fill="none" stroke="black" stroke-width="3"/>
<path d="M515,181h 7" fill="none" stroke="black" stroke-width="3"/>
<path d="M508,166h 14" fill="none" stroke="black" stroke-width="3"/>
<path d="M515,151h 7" fill="none" stroke="black" stroke-width="3"/>
<path d="M515,135h 7" fill="none" stroke="black" stroke-width="3"/>
<path d="M515,120h 7" fill="none" stroke="black" stroke-width="3"/>
<path d="M515,105h 7" fill="none" stroke="black" stroke-width="3"/>
<path d="M508,89h 14" fill="none" stroke="black" stroke-width="3"/>
<path d="M508,89h 14" fill="none" stroke="black" stroke-width="3"/>
<path d="M515,74h 7" fill="none" stroke="black" stroke-width="3"/>
<path d="M515,59h 7" fill="none" stroke="black" stroke-width="3"/>
<path d="M515,43h 7" fill="none" stroke="black" stroke-width="3"/>
<rect x="113" y="-4" width="383" height="40" fill="white"/>
<text x="130" y="24" fill="black" font-size="30" font-family="Helvetica" font-weight="bold">
hamming_to_true_naive
</text>
<path d="M80,395v -298h 24v 31h 25v 61h 24v 8h 25v 107h 24v -61h 25v 69h 24v 30h 25v 8h 24v 8h 25v 15h 25v 8h 49v 7h 24v -7h 25v 7h 24v 7h 25v -7h 25" fill="none" stroke="#ff0000" stroke-width="6"/>
<path d="M332,107h 42" fill="none" stroke="#ff0000" stroke-width="6"/>
<rect x="113" y="-4" width="383" height="40" fill="white"/>
<text x="130" y="24" fill="black" font-size="30" font-family="Helvetica" font-weight="bold">
hamming_to_true_naive
</text></svg>
