<?xml version="1.0" standalone="no"?>
<svg width="567" height="466" viewBox="0 0 567 466" xmlns="http://www.w3.org/2000/svg">
<title>
/bbx/output/_plots/example/sw/performance/plots/d_5p_del.svg
</title>
<desc>
Creator: ROOT Version 5.34/14
CreationDate: Thu Jul 30 17:06:34 2015</desc>
<defs>
</defs>
<rect x="0" y="0" width="567" height="466" fill="white"/>
<rect x="79" y="37" width="443" height="359" fill="none" stroke="black"/>
<rect x="79" y="37" width="443" height="359" fill="none" stroke="black"/>
<path d="M79,396h 443" fill="none" stroke="black" stroke-width="3"/>
<text x="324" y="449" fill="black" font-size="32" font-family="Times" font-weight="bold">
inferred - true
</text>
<path d="M87,385v 11" fill="none" stroke="black" stroke-width="3"/>
<path d="M116,391v 5" fill="none" stroke="black" stroke-width="3"/>
<path d="M146,391v 5" fill="none" stroke="black" stroke-width="3"/>
<path d="M175,391v 5" fill="none" stroke="black" stroke-width="3"/>
<path d="M205,391v 5" fill="none" stroke="black" stroke-width="3"/>
<path d="M234,385v 11" fill="none" stroke="black" stroke-width="3"/>
<path d="M264,391v 5" fill="none" stroke="black" stroke-width="3"/>
<path d="M293,391v 5" fill="none" stroke="black" stroke-width="3"/>
<path d="M323,391v 5" fill="none" stroke="black" stroke-width="3"/>
<path d="M352,391v 5" fill="none" stroke="black" stroke-width="3"/>
<path d="M382,385v 11" fill="none" stroke="black" stroke-width="3"/>
<path d="M87,385v 11" fill="none" stroke="black" stroke-width="3"/>
<path d="M382,385v 11" fill="none" stroke="black" stroke-width="3"/>
<path d="M411,391v 5" fill="none" stroke="black" stroke-width="3"/>
<path d="M441,391v 5" fill="none" stroke="black" stroke-width="3"/>
<path d="M470,391v 5" fill="none" stroke="black" stroke-width="3"/>
<path d="M499,391v 5" fill="none" stroke="black" stroke-width="3"/>
<text x="72" y="416" fill="black" font-size="21" font-family="Times" font-weight="bold">
-10
</text>
<text x="228" y="416" fill="black" font-size="21" font-family="Times" font-weight="bold">
0
</text>
<text x="370" y="416" fill="black" font-size="21" font-family="Times" font-weight="bold">
10
</text>
<path d="M79,37h 443" fill="none" stroke="black" stroke-width="3"/>
<path d="M87,48v -11" fill="none" stroke="black" stroke-width="3"/>
<path d="M116,43v -6" fill="none" stroke="black" stroke-width="3"/>
<path d="M146,43v -6" fill="none" stroke="black" stroke-width="3"/>
<path d="M175,43v -6" fill="none" stroke="black" stroke-width="3"/>
<path d="M205,43v -6" fill="none" stroke="black" stroke-width="3"/>
<path d="M234,48v -11" fill="none" stroke="black" stroke-width="3"/>
<path d="M264,43v -6" fill="none" stroke="black" stroke-width="3"/>
<path d="M293,43v -6" fill="none" stroke="black" stroke-width="3"/>
<path d="M323,43v -6" fill="none" stroke="black" stroke-width="3"/>
<path d="M352,43v -6" fill="none" stroke="black" stroke-width="3"/>
<path d="M382,48v -11" fill="none" stroke="black" stroke-width="3"/>
<path d="M87,48v -11" fill="none" stroke="black" stroke-width="3"/>
<path d="M382,48v -11" fill="none" stroke="black" stroke-width="3"/>
<path d="M411,43v -6" fill="none" stroke="black" stroke-width="3"/>
<path d="M441,43v -6" fill="none" stroke="black" stroke-width="3"/>
<path d="M470,43v -6" fill="none" stroke="black" stroke-width="3"/>
<path d="M499,43v -6" fill="none" stroke="black" stroke-width="3"/>
<path d="M79,396v -359" fill="none" stroke="black" stroke-width="3"/>
<path d="M92,396h -13" fill="none" stroke="black" stroke-width="3"/>
<path d="M86,373h -7" fill="none" stroke="black" stroke-width="3"/>
<path d="M86,349h -7" fill="none" stroke="black" stroke-width="3"/>
<path d="M86,326h -7" fill="none" stroke="black" stroke-width="3"/>
<path d="M92,303h -13" fill="none" stroke="black" stroke-width="3"/>
<path d="M86,279h -7" fill="none" stroke="black" stroke-width="3"/>
<path d="M86,256h -7" fill="none" stroke="black" stroke-width="3"/>
<path d="M86,233h -7" fill="none" stroke="black" stroke-width="3"/>
<path d="M92,209h -13" fill="none" stroke="black" stroke-width="3"/>
<path d="M86,186h -7" fill="none" stroke="black" stroke-width="3"/>
<path d="M86,163h -7" fill="none" stroke="black" stroke-width="3"/>
<path d="M86,139h -7" fill="none" stroke="black" stroke-width="3"/>
<path d="M92,116h -13" fill="none" stroke="black" stroke-width="3"/>
<path d="M92,116h -13" fill="none" stroke="black" stroke-width="3"/>
<path d="M86,92h -7" fill="none" stroke="black" stroke-width="3"/>
<path d="M86,69h -7" fill="none" stroke="black" stroke-width="3"/>
<path d="M86,46h -7" fill="none" stroke="black" stroke-width="3"/>
<text x="46" y="404" fill="black" font-size="21" font-family="Times" font-weight="bold">
0.0
</text>
<text x="46" y="310" fill="black" font-size="21" font-family="Times" font-weight="bold">
0.2
</text>
<text x="46" y="217" fill="black" font-size="21" font-family="Times" font-weight="bold">
0.4
</text>
<text x="46" y="124" fill="black" font-size="21" font-family="Times" font-weight="bold">
0.6
</text>
<path d="M522,396v -359" fill="none" stroke="black" stroke-width="3"/>
<path d="M508,396h 14" fill="none" stroke="black" stroke-width="3"/>
<path d="M515,373h 7" fill="none" stroke="black" stroke-width="3"/>
<path d="M515,349h 7" fill="none" stroke="black" stroke-width="3"/>
<path d="M515,326h 7" fill="none" stroke="black" stroke-width="3"/>
<path d="M508,303h 14" fill="none" stroke="black" stroke-width="3"/>
<path d="M515,279h 7" fill="none" stroke="black" stroke-width="3"/>
<path d="M515,256h 7" fill="none" stroke="black" stroke-width="3"/>
<path d="M515,233h 7" fill="none" stroke="black" stroke-width="3"/>
<path d="M508,209h 14" fill="none" stroke="black" stroke-width="3"/>
<path d="M515,186h 7" fill="none" stroke="black" stroke-width="3"/>
<path d="M515,163h 7" fill="none" stroke="black" stroke-width="3"/>
<path d="M515,139h 7" fill="none" stroke="black" stroke-width="3"/>
<path d="M508,116h 14" fill="none" stroke="black" stroke-width="3"/>
<path d="M508,116h 14" fill="none" stroke="black" stroke-width="3"/>
<path d="M515,92h 7" fill="none" stroke="black" stroke-width="3"/>
<path d="M515,69h 7" fill="none" stroke="black" stroke-width="3"/>
<path d="M515,46h 7" fill="none" stroke="black" stroke-width="3"/>
<rect x="113" y="-4" width="149" height="39" fill="white"/>
<text x="120" y="23" fill="black" font-size="30" font-family="Helvetica" font-weight="bold">
d_5p_del
</text>
<path d="M80,395v -1h 14v 1h 30v -1h 14v 1h 15v -4h 15v 4h 29v -11h 15v -35h 15v -252h 15v 271h 14v 12h 15v -3h 15v 12h 14v 5h 15v -12h 15v 12h 29v 1h 59v -6h 15v 6h 74v -1h 15" fill="none" stroke="#ff0000" stroke-width="6"/>
<path d="M332,107h 42" fill="none" stroke="#ff0000" stroke-width="6"/>
<rect x="113" y="-4" width="149" height="39" fill="white"/>
<text x="120" y="23" fill="black" font-size="30" font-family="Helvetica" font-weight="bold">
d_5p_del
</text></svg>
