<?xml version="1.0" standalone="no"?>
<svg width="567" height="466" viewBox="0 0 567 466" xmlns="http://www.w3.org/2000/svg">
<title>
/bbx/output/_plots/example/sw/performance/plots/j_3p_del.svg
</title>
<desc>
Creator: ROOT Version 5.34/14
CreationDate: Thu Jul 30 17:06:34 2015</desc>
<defs>
</defs>
<rect x="0" y="0" width="567" height="466" fill="white"/>
<rect x="79" y="37" width="443" height="359" fill="none" stroke="black"/>
<rect x="79" y="37" width="443" height="359" fill="none" stroke="black"/>
<path d="M79,396h 443" fill="none" stroke="black" stroke-width="3"/>
<text x="324" y="449" fill="black" font-size="32" font-family="Times" font-weight="bold">
inferred - true
</text>
<path d="M101,385v 11" fill="none" stroke="black" stroke-width="3"/>
<path d="M124,391v 5" fill="none" stroke="black" stroke-width="3"/>
<path d="M146,391v 5" fill="none" stroke="black" stroke-width="3"/>
<path d="M168,391v 5" fill="none" stroke="black" stroke-width="3"/>
<path d="M190,385v 11" fill="none" stroke="black" stroke-width="3"/>
<path d="M212,391v 5" fill="none" stroke="black" stroke-width="3"/>
<path d="M234,391v 5" fill="none" stroke="black" stroke-width="3"/>
<path d="M256,391v 5" fill="none" stroke="black" stroke-width="3"/>
<path d="M278,385v 11" fill="none" stroke="black" stroke-width="3"/>
<path d="M300,391v 5" fill="none" stroke="black" stroke-width="3"/>
<path d="M323,391v 5" fill="none" stroke="black" stroke-width="3"/>
<path d="M345,391v 5" fill="none" stroke="black" stroke-width="3"/>
<path d="M367,385v 11" fill="none" stroke="black" stroke-width="3"/>
<path d="M389,391v 5" fill="none" stroke="black" stroke-width="3"/>
<path d="M411,391v 5" fill="none" stroke="black" stroke-width="3"/>
<path d="M433,391v 5" fill="none" stroke="black" stroke-width="3"/>
<path d="M455,385v 11" fill="none" stroke="black" stroke-width="3"/>
<path d="M101,385v 11" fill="none" stroke="black" stroke-width="3"/>
<path d="M79,391v 5" fill="none" stroke="black" stroke-width="3"/>
<path d="M455,385v 11" fill="none" stroke="black" stroke-width="3"/>
<path d="M477,391v 5" fill="none" stroke="black" stroke-width="3"/>
<path d="M499,391v 5" fill="none" stroke="black" stroke-width="3"/>
<text x="95" y="416" fill="black" font-size="21" font-family="Times" font-weight="bold">
0
</text>
<text x="184" y="416" fill="black" font-size="21" font-family="Times" font-weight="bold">
2
</text>
<text x="272" y="416" fill="black" font-size="21" font-family="Times" font-weight="bold">
4
</text>
<text x="361" y="416" fill="black" font-size="21" font-family="Times" font-weight="bold">
6
</text>
<text x="449" y="416" fill="black" font-size="21" font-family="Times" font-weight="bold">
8
</text>
<path d="M79,37h 443" fill="none" stroke="black" stroke-width="3"/>
<path d="M101,48v -11" fill="none" stroke="black" stroke-width="3"/>
<path d="M124,43v -6" fill="none" stroke="black" stroke-width="3"/>
<path d="M146,43v -6" fill="none" stroke="black" stroke-width="3"/>
<path d="M168,43v -6" fill="none" stroke="black" stroke-width="3"/>
<path d="M190,48v -11" fill="none" stroke="black" stroke-width="3"/>
<path d="M212,43v -6" fill="none" stroke="black" stroke-width="3"/>
<path d="M234,43v -6" fill="none" stroke="black" stroke-width="3"/>
<path d="M256,43v -6" fill="none" stroke="black" stroke-width="3"/>
<path d="M278,48v -11" fill="none" stroke="black" stroke-width="3"/>
<path d="M300,43v -6" fill="none" stroke="black" stroke-width="3"/>
<path d="M323,43v -6" fill="none" stroke="black" stroke-width="3"/>
<path d="M345,43v -6" fill="none" stroke="black" stroke-width="3"/>
<path d="M367,48v -11" fill="none" stroke="black" stroke-width="3"/>
<path d="M389,43v -6" fill="none" stroke="black" stroke-width="3"/>
<path d="M411,43v -6" fill="none" stroke="black" stroke-width="3"/>
<path d="M433,43v -6" fill="none" stroke="black" stroke-width="3"/>
<path d="M455,48v -11" fill="none" stroke="black" stroke-width="3"/>
<path d="M101,48v -11" fill="none" stroke="black" stroke-width="3"/>
<path d="M79,43v -6" fill="none" stroke="black" stroke-width="3"/>
<path d="M455,48v -11" fill="none" stroke="black" stroke-width="3"/>
<path d="M477,43v -6" fill="none" stroke="black" stroke-width="3"/>
<path d="M499,43v -6" fill="none" stroke="black" stroke-width="3"/>
<path d="M79,396v -359" fill="none" stroke="black" stroke-width="3"/>
<path d="M92,396h -13" fill="none" stroke="black" stroke-width="3"/>
<path d="M86,364h -7" fill="none" stroke="black" stroke-width="3"/>
<path d="M86,333h -7" fill="none" stroke="black" stroke-width="3"/>
<path d="M86,301h -7" fill="none" stroke="black" stroke-width="3"/>
<path d="M86,269h -7" fill="none" stroke="black" stroke-width="3"/>
<path d="M92,237h -13" fill="none" stroke="black" stroke-width="3"/>
<path d="M86,205h -7" fill="none" stroke="black" stroke-width="3"/>
<path d="M86,173h -7" fill="none" stroke="black" stroke-width="3"/>
<path d="M86,142h -7" fill="none" stroke="black" stroke-width="3"/>
<path d="M86,110h -7" fill="none" stroke="black" stroke-width="3"/>
<path d="M92,78h -13" fill="none" stroke="black" stroke-width="3"/>
<path d="M92,78h -13" fill="none" stroke="black" stroke-width="3"/>
<path d="M86,46h -7" fill="none" stroke="black" stroke-width="3"/>
<text x="46" y="404" fill="black" font-size="21" font-family="Times" font-weight="bold">
0.0
</text>
<text x="46" y="244" fill="black" font-size="21" font-family="Times" font-weight="bold">
0.5
</text>
<text x="46" y="86" fill="black" font-size="21" font-family="Times" font-weight="bold">
1.0
</text>
<path d="M522,396v -359" fill="none" stroke="black" stroke-width="3"/>
<path d="M508,396h 14" fill="none" stroke="black" stroke-width="3"/>
<path d="M515,364h 7" fill="none" stroke="black" stroke-width="3"/>
<path d="M515,333h 7" fill="none" stroke="black" stroke-width="3"/>
<path d="M515,301h 7" fill="none" stroke="black" stroke-width="3"/>
<path d="M515,269h 7" fill="none" stroke="black" stroke-width="3"/>
<path d="M508,237h 14" fill="none" stroke="black" stroke-width="3"/>
<path d="M515,205h 7" fill="none" stroke="black" stroke-width="3"/>
<path d="M515,173h 7" fill="none" stroke="black" stroke-width="3"/>
<path d="M515,142h 7" fill="none" stroke="black" stroke-width="3"/>
<path d="M515,110h 7" fill="none" stroke="black" stroke-width="3"/>
<path d="M508,78h 14" fill="none" stroke="black" stroke-width="3"/>
<path d="M508,78h 14" fill="none" stroke="black" stroke-width="3"/>
<path d="M515,46h 7" fill="none" stroke="black" stroke-width="3"/>
<rect x="113" y="-4" width="144" height="40" fill="white"/>
<text x="121" y="25" fill="black" font-size="31" font-family="Helvetica" font-weight="bold">
j_3p_del
</text>
<path d="M80,395v -298h 44v 293h 44v 5h 88v -4h 44v 2h 45v 2h 177" fill="none" stroke="#ff0000" stroke-width="6"/>
<path d="M332,107h 42" fill="none" stroke="#ff0000" stroke-width="6"/>
<rect x="113" y="-4" width="144" height="40" fill="white"/>
<text x="121" y="25" fill="black" font-size="31" font-family="Helvetica" font-weight="bold">
j_3p_del
</text></svg>
