<?xml version="1.0" standalone="no"?>
<svg width="567" height="466" viewBox="0 0 567 466" xmlns="http://www.w3.org/2000/svg">
<title>
/bbx/output/_plots/example/sw/performance/plots/v_hamming_to_true_naive_normed.svg
</title>
<desc>
Creator: ROOT Version 5.34/14
CreationDate: Thu Jul 30 17:06:34 2015</desc>
<defs>
</defs>
<rect x="0" y="0" width="567" height="466" fill="white"/>
<rect x="79" y="37" width="443" height="359" fill="none" stroke="black"/>
<rect x="79" y="37" width="443" height="359" fill="none" stroke="black"/>
<path d="M79,396h 443" fill="none" stroke="black" stroke-width="3"/>
<text x="268" y="446" fill="black" font-size="32" font-family="Times" font-weight="bold">
hamming distance
</text>
<path d="M79,385v 11" fill="none" stroke="black" stroke-width="3"/>
<path d="M101,391v 5" fill="none" stroke="black" stroke-width="3"/>
<path d="M124,391v 5" fill="none" stroke="black" stroke-width="3"/>
<path d="M146,391v 5" fill="none" stroke="black" stroke-width="3"/>
<path d="M168,391v 5" fill="none" stroke="black" stroke-width="3"/>
<path d="M190,385v 11" fill="none" stroke="black" stroke-width="3"/>
<path d="M212,391v 5" fill="none" stroke="black" stroke-width="3"/>
<path d="M234,391v 5" fill="none" stroke="black" stroke-width="3"/>
<path d="M256,391v 5" fill="none" stroke="black" stroke-width="3"/>
<path d="M278,391v 5" fill="none" stroke="black" stroke-width="3"/>
<path d="M300,385v 11" fill="none" stroke="black" stroke-width="3"/>
<path d="M323,391v 5" fill="none" stroke="black" stroke-width="3"/>
<path d="M345,391v 5" fill="none" stroke="black" stroke-width="3"/>
<path d="M367,391v 5" fill="none" stroke="black" stroke-width="3"/>
<path d="M389,391v 5" fill="none" stroke="black" stroke-width="3"/>
<path d="M411,385v 11" fill="none" stroke="black" stroke-width="3"/>
<path d="M433,391v 5" fill="none" stroke="black" stroke-width="3"/>
<path d="M455,391v 5" fill="none" stroke="black" stroke-width="3"/>
<path d="M477,391v 5" fill="none" stroke="black" stroke-width="3"/>
<path d="M499,391v 5" fill="none" stroke="black" stroke-width="3"/>
<path d="M522,385v 11" fill="none" stroke="black" stroke-width="3"/>
<text x="62" y="416" fill="black" font-size="21" font-family="Times" font-weight="bold">
-0.5
</text>
<text x="176" y="416" fill="black" font-size="21" font-family="Times" font-weight="bold">
0.0
</text>
<text x="286" y="416" fill="black" font-size="21" font-family="Times" font-weight="bold">
0.5
</text>
<text x="397" y="416" fill="black" font-size="21" font-family="Times" font-weight="bold">
1.0
</text>
<text x="507" y="416" fill="black" font-size="21" font-family="Times" font-weight="bold">
1.5
</text>
<path d="M79,37h 443" fill="none" stroke="black" stroke-width="3"/>
<path d="M79,48v -11" fill="none" stroke="black" stroke-width="3"/>
<path d="M101,43v -6" fill="none" stroke="black" stroke-width="3"/>
<path d="M124,43v -6" fill="none" stroke="black" stroke-width="3"/>
<path d="M146,43v -6" fill="none" stroke="black" stroke-width="3"/>
<path d="M168,43v -6" fill="none" stroke="black" stroke-width="3"/>
<path d="M190,48v -11" fill="none" stroke="black" stroke-width="3"/>
<path d="M212,43v -6" fill="none" stroke="black" stroke-width="3"/>
<path d="M234,43v -6" fill="none" stroke="black" stroke-width="3"/>
<path d="M256,43v -6" fill="none" stroke="black" stroke-width="3"/>
<path d="M278,43v -6" fill="none" stroke="black" stroke-width="3"/>
<path d="M300,48v -11" fill="none" stroke="black" stroke-width="3"/>
<path d="M323,43v -6" fill="none" stroke="black" stroke-width="3"/>
<path d="M345,43v -6" fill="none" stroke="black" stroke-width="3"/>
<path d="M367,43v -6" fill="none" stroke="black" stroke-width="3"/>
<path d="M389,43v -6" fill="none" stroke="black" stroke-width="3"/>
<path d="M411,48v -11" fill="none" stroke="black" stroke-width="3"/>
<path d="M433,43v -6" fill="none" stroke="black" stroke-width="3"/>
<path d="M455,43v -6" fill="none" stroke="black" stroke-width="3"/>
<path d="M477,43v -6" fill="none" stroke="black" stroke-width="3"/>
<path d="M499,43v -6" fill="none" stroke="black" stroke-width="3"/>
<path d="M522,48v -11" fill="none" stroke="black" stroke-width="3"/>
<path d="M79,396v -359" fill="none" stroke="black" stroke-width="3"/>
<path d="M92,396h -13" fill="none" stroke="black" stroke-width="3"/>
<path d="M86,366h -7" fill="none" stroke="black" stroke-width="3"/>
<path d="M86,335h -7" fill="none" stroke="black" stroke-width="3"/>
<path d="M86,305h -7" fill="none" stroke="black" stroke-width="3"/>
<path d="M86,274h -7" fill="none" stroke="black" stroke-width="3"/>
<path d="M92,244h -13" fill="none" stroke="black" stroke-width="3"/>
<path d="M86,213h -7" fill="none" stroke="black" stroke-width="3"/>
<path d="M86,183h -7" fill="none" stroke="black" stroke-width="3"/>
<path d="M86,152h -7" fill="none" stroke="black" stroke-width="3"/>
<path d="M86,122h -7" fill="none" stroke="black" stroke-width="3"/>
<path d="M92,91h -13" fill="none" stroke="black" stroke-width="3"/>
<path d="M92,91h -13" fill="none" stroke="black" stroke-width="3"/>
<path d="M86,61h -7" fill="none" stroke="black" stroke-width="3"/>
<text x="46" y="404" fill="black" font-size="21" font-family="Times" font-weight="bold">
0.0
</text>
<text x="46" y="251" fill="black" font-size="21" font-family="Times" font-weight="bold">
0.5
</text>
<text x="46" y="99" fill="black" font-size="21" font-family="Times" font-weight="bold">
1.0
</text>
<path d="M522,396v -359" fill="none" stroke="black" stroke-width="3"/>
<path d="M508,396h 14" fill="none" stroke="black" stroke-width="3"/>
<path d="M515,366h 7" fill="none" stroke="black" stroke-width="3"/>
<path d="M515,335h 7" fill="none" stroke="black" stroke-width="3"/>
<path d="M515,305h 7" fill="none" stroke="black" stroke-width="3"/>
<path d="M515,274h 7" fill="none" stroke="black" stroke-width="3"/>
<path d="M508,244h 14" fill="none" stroke="black" stroke-width="3"/>
<path d="M515,213h 7" fill="none" stroke="black" stroke-width="3"/>
<path d="M515,183h 7" fill="none" stroke="black" stroke-width="3"/>
<path d="M515,152h 7" fill="none" stroke="black" stroke-width="3"/>
<path d="M515,122h 7" fill="none" stroke="black" stroke-width="3"/>
<path d="M508,91h 14" fill="none" stroke="black" stroke-width="3"/>
<path d="M508,91h 14" fill="none" stroke="black" stroke-width="3"/>
<path d="M515,61h 7" fill="none" stroke="black" stroke-width="3"/>
<rect x="113" y="-4" width="397" height="40" fill="white"/>
<text x="125" y="22" fill="black" font-size="21" font-family="Helvetica" font-weight="bold">
v_hamming_to_true_naive_normed
</text>
<path d="M80,395v -298h 220v 293h 222" fill="none" stroke="#ff0000" stroke-width="6"/>
<path d="M332,107h 42" fill="none" stroke="#ff0000" stroke-width="6"/>
<rect x="113" y="-4" width="397" height="40" fill="white"/>
<text x="125" y="22" fill="black" font-size="21" font-family="Helvetica" font-weight="bold">
v_hamming_to_true_naive_normed
</text></svg>
