<?xml version="1.0" standalone="no"?>
<svg width="567" height="466" viewBox="0 0 567 466" xmlns="http://www.w3.org/2000/svg">
<title>
/bbx/output/_plots/example/sw/mute-freqs/j/plots/IGHJ3_star_01.svg
</title>
<desc>
Creator: ROOT Version 5.34/14
CreationDate: Wed Aug 19 19:38:09 2015</desc>
<defs>
</defs>
<rect x="0" y="0" width="567" height="466" fill="white"/>
<rect x="79" y="37" width="443" height="359" fill="none" stroke="black"/>
<rect x="79" y="37" width="443" height="359" fill="none" stroke="black"/>
<path d="M79,396h 443" fill="none" stroke="black" stroke-width="3"/>
<path d="M235,385v 11" fill="none" stroke="black" stroke-width="3"/>
<path d="M268,391v 5" fill="none" stroke="black" stroke-width="3"/>
<path d="M300,391v 5" fill="none" stroke="black" stroke-width="3"/>
<path d="M333,391v 5" fill="none" stroke="black" stroke-width="3"/>
<path d="M366,391v 5" fill="none" stroke="black" stroke-width="3"/>
<path d="M399,385v 11" fill="none" stroke="black" stroke-width="3"/>
<path d="M235,385v 11" fill="none" stroke="black" stroke-width="3"/>
<path d="M202,391v 5" fill="none" stroke="black" stroke-width="3"/>
<path d="M169,391v 5" fill="none" stroke="black" stroke-width="3"/>
<path d="M137,391v 5" fill="none" stroke="black" stroke-width="3"/>
<path d="M104,391v 5" fill="none" stroke="black" stroke-width="3"/>
<path d="M399,385v 11" fill="none" stroke="black" stroke-width="3"/>
<path d="M431,391v 5" fill="none" stroke="black" stroke-width="3"/>
<path d="M464,391v 5" fill="none" stroke="black" stroke-width="3"/>
<path d="M497,391v 5" fill="none" stroke="black" stroke-width="3"/>
<text x="223" y="416" fill="black" font-size="21" font-family="Times" font-weight="bold">
10
</text>
<text x="387" y="416" fill="black" font-size="21" font-family="Times" font-weight="bold">
20
</text>
<path d="M79,37h 443" fill="none" stroke="black" stroke-width="3"/>
<path d="M235,48v -11" fill="none" stroke="black" stroke-width="3"/>
<path d="M268,43v -6" fill="none" stroke="black" stroke-width="3"/>
<path d="M300,43v -6" fill="none" stroke="black" stroke-width="3"/>
<path d="M333,43v -6" fill="none" stroke="black" stroke-width="3"/>
<path d="M366,43v -6" fill="none" stroke="black" stroke-width="3"/>
<path d="M399,48v -11" fill="none" stroke="black" stroke-width="3"/>
<path d="M235,48v -11" fill="none" stroke="black" stroke-width="3"/>
<path d="M202,43v -6" fill="none" stroke="black" stroke-width="3"/>
<path d="M169,43v -6" fill="none" stroke="black" stroke-width="3"/>
<path d="M137,43v -6" fill="none" stroke="black" stroke-width="3"/>
<path d="M104,43v -6" fill="none" stroke="black" stroke-width="3"/>
<path d="M399,48v -11" fill="none" stroke="black" stroke-width="3"/>
<path d="M431,43v -6" fill="none" stroke="black" stroke-width="3"/>
<path d="M464,43v -6" fill="none" stroke="black" stroke-width="3"/>
<path d="M497,43v -6" fill="none" stroke="black" stroke-width="3"/>
<path d="M79,396v -359" fill="none" stroke="black" stroke-width="3"/>
<path d="M92,396h -13" fill="none" stroke="black" stroke-width="3"/>
<path d="M86,366h -7" fill="none" stroke="black" stroke-width="3"/>
<path d="M86,336h -7" fill="none" stroke="black" stroke-width="3"/>
<path d="M86,306h -7" fill="none" stroke="black" stroke-width="3"/>
<path d="M86,277h -7" fill="none" stroke="black" stroke-width="3"/>
<path d="M92,247h -13" fill="none" stroke="black" stroke-width="3"/>
<path d="M86,217h -7" fill="none" stroke="black" stroke-width="3"/>
<path d="M86,187h -7" fill="none" stroke="black" stroke-width="3"/>
<path d="M86,157h -7" fill="none" stroke="black" stroke-width="3"/>
<path d="M86,127h -7" fill="none" stroke="black" stroke-width="3"/>
<path d="M92,97h -13" fill="none" stroke="black" stroke-width="3"/>
<path d="M92,97h -13" fill="none" stroke="black" stroke-width="3"/>
<path d="M86,67h -7" fill="none" stroke="black" stroke-width="3"/>
<path d="M86,37h -7" fill="none" stroke="black" stroke-width="3"/>
<text x="46" y="404" fill="black" font-size="21" font-family="Times" font-weight="bold">
0.0
</text>
<text x="46" y="254" fill="black" font-size="21" font-family="Times" font-weight="bold">
0.5
</text>
<text x="46" y="105" fill="black" font-size="21" font-family="Times" font-weight="bold">
1.0
</text>
<path d="M522,396v -359" fill="none" stroke="black" stroke-width="3"/>
<path d="M508,396h 14" fill="none" stroke="black" stroke-width="3"/>
<path d="M515,366h 7" fill="none" stroke="black" stroke-width="3"/>
<path d="M515,336h 7" fill="none" stroke="black" stroke-width="3"/>
<path d="M515,306h 7" fill="none" stroke="black" stroke-width="3"/>
<path d="M515,277h 7" fill="none" stroke="black" stroke-width="3"/>
<path d="M508,247h 14" fill="none" stroke="black" stroke-width="3"/>
<path d="M515,217h 7" fill="none" stroke="black" stroke-width="3"/>
<path d="M515,187h 7" fill="none" stroke="black" stroke-width="3"/>
<path d="M515,157h 7" fill="none" stroke="black" stroke-width="3"/>
<path d="M515,127h 7" fill="none" stroke="black" stroke-width="3"/>
<path d="M508,97h 14" fill="none" stroke="black" stroke-width="3"/>
<path d="M508,97h 14" fill="none" stroke="black" stroke-width="3"/>
<path d="M515,67h 7" fill="none" stroke="black" stroke-width="3"/>
<path d="M515,37h 7" fill="none" stroke="black" stroke-width="3"/>
<rect x="113" y="-4" width="246" height="38" fill="white"/>
<text x="133" y="24" fill="black" font-size="30" font-family="Helvetica" font-weight="bold">
IGHJ3_star_01
</text>
<path d="M88,393v -60" fill="none" stroke="#ff0000" stroke-width="6"/>
<g stroke="#ff0000" stroke-width="6" fill="#ff0000">
<circle cx="88" cy="396" r="3.5"/>
</g>
<path d="M104,160v -60" fill="none" stroke="#ff0000" stroke-width="6"/>
<path d="M104,94v -57" fill="none" stroke="#ff0000" stroke-width="6"/>
<path d="M96,97h 5" fill="none" stroke="#ff0000" stroke-width="6"/>
<path d="M107,97h 5" fill="none" stroke="#ff0000" stroke-width="6"/>
<g stroke="#ff0000" stroke-width="6" fill="#ff0000">
<circle cx="104" cy="97" r="3.5"/>
</g>
<path d="M120,393v -60" fill="none" stroke="#ff0000" stroke-width="6"/>
<g stroke="#ff0000" stroke-width="6" fill="#ff0000">
<circle cx="120" cy="396" r="3.5"/>
</g>
<path d="M137,393v -60" fill="none" stroke="#ff0000" stroke-width="6"/>
<g stroke="#ff0000" stroke-width="6" fill="#ff0000">
<circle cx="137" cy="396" r="3.5"/>
</g>
<path d="M153,393v -60" fill="none" stroke="#ff0000" stroke-width="6"/>
<g stroke="#ff0000" stroke-width="6" fill="#ff0000">
<circle cx="153" cy="396" r="3.5"/>
</g>
<path d="M169,160v -60" fill="none" stroke="#ff0000" stroke-width="6"/>
<path d="M169,94v -57" fill="none" stroke="#ff0000" stroke-width="6"/>
<path d="M161,97h 5" fill="none" stroke="#ff0000" stroke-width="6"/>
<path d="M173,97h 5" fill="none" stroke="#ff0000" stroke-width="6"/>
<g stroke="#ff0000" stroke-width="6" fill="#ff0000">
<circle cx="169" cy="97" r="3.5"/>
</g>
<path d="M186,393v -60" fill="none" stroke="#ff0000" stroke-width="6"/>
<g stroke="#ff0000" stroke-width="6" fill="#ff0000">
<circle cx="186" cy="396" r="3.5"/>
</g>
<path d="M202,393v -60" fill="none" stroke="#ff0000" stroke-width="6"/>
<g stroke="#ff0000" stroke-width="6" fill="#ff0000">
<circle cx="202" cy="396" r="3.5"/>
</g>
<path d="M219,393v -60" fill="none" stroke="#ff0000" stroke-width="6"/>
<g stroke="#ff0000" stroke-width="6" fill="#ff0000">
<circle cx="219" cy="396" r="3.5"/>
</g>
<path d="M235,393v -60" fill="none" stroke="#ff0000" stroke-width="6"/>
<g stroke="#ff0000" stroke-width="6" fill="#ff0000">
<circle cx="235" cy="396" r="3.5"/>
</g>
<path d="M251,393v -60" fill="none" stroke="#ff0000" stroke-width="6"/>
<g stroke="#ff0000" stroke-width="6" fill="#ff0000">
<circle cx="251" cy="396" r="3.5"/>
</g>
<path d="M268,393v -60" fill="none" stroke="#ff0000" stroke-width="6"/>
<g stroke="#ff0000" stroke-width="6" fill="#ff0000">
<circle cx="268" cy="396" r="3.5"/>
</g>
<path d="M284,393v -60" fill="none" stroke="#ff0000" stroke-width="6"/>
<g stroke="#ff0000" stroke-width="6" fill="#ff0000">
<circle cx="284" cy="396" r="3.5"/>
</g>
<path d="M300,393v -60" fill="none" stroke="#ff0000" stroke-width="6"/>
<g stroke="#ff0000" stroke-width="6" fill="#ff0000">
<circle cx="300" cy="396" r="3.5"/>
</g>
<path d="M317,393v -60" fill="none" stroke="#ff0000" stroke-width="6"/>
<g stroke="#ff0000" stroke-width="6" fill="#ff0000">
<circle cx="317" cy="396" r="3.5"/>
</g>
<path d="M333,393v -60" fill="none" stroke="#ff0000" stroke-width="6"/>
<g stroke="#ff0000" stroke-width="6" fill="#ff0000">
<circle cx="333" cy="396" r="3.5"/>
</g>
<path d="M350,393v -60" fill="none" stroke="#ff0000" stroke-width="6"/>
<g stroke="#ff0000" stroke-width="6" fill="#ff0000">
<circle cx="350" cy="396" r="3.5"/>
</g>
<path d="M366,393v -60" fill="none" stroke="#ff0000" stroke-width="6"/>
<g stroke="#ff0000" stroke-width="6" fill="#ff0000">
<circle cx="366" cy="396" r="3.5"/>
</g>
<path d="M382,393v -60" fill="none" stroke="#ff0000" stroke-width="6"/>
<g stroke="#ff0000" stroke-width="6" fill="#ff0000">
<circle cx="382" cy="396" r="3.5"/>
</g>
<path d="M399,393v -60" fill="none" stroke="#ff0000" stroke-width="6"/>
<g stroke="#ff0000" stroke-width="6" fill="#ff0000">
<circle cx="399" cy="396" r="3.5"/>
</g>
<path d="M415,393v -60" fill="none" stroke="#ff0000" stroke-width="6"/>
<g stroke="#ff0000" stroke-width="6" fill="#ff0000">
<circle cx="415" cy="396" r="3.5"/>
</g>
<path d="M431,393v -60" fill="none" stroke="#ff0000" stroke-width="6"/>
<g stroke="#ff0000" stroke-width="6" fill="#ff0000">
<circle cx="431" cy="396" r="3.5"/>
</g>
<path d="M448,393v -60" fill="none" stroke="#ff0000" stroke-width="6"/>
<g stroke="#ff0000" stroke-width="6" fill="#ff0000">
<circle cx="448" cy="396" r="3.5"/>
</g>
<path d="M464,393v -60" fill="none" stroke="#ff0000" stroke-width="6"/>
<g stroke="#ff0000" stroke-width="6" fill="#ff0000">
<circle cx="464" cy="396" r="3.5"/>
</g>
<path d="M481,393v -60" fill="none" stroke="#ff0000" stroke-width="6"/>
<g stroke="#ff0000" stroke-width="6" fill="#ff0000">
<circle cx="481" cy="396" r="3.5"/>
</g>
<path d="M497,393v -60" fill="none" stroke="#ff0000" stroke-width="6"/>
<g stroke="#ff0000" stroke-width="6" fill="#ff0000">
<circle cx="497" cy="396" r="3.5"/>
</g>
<path d="M513,393v -60" fill="none" stroke="#ff0000" stroke-width="6"/>
<g stroke="#ff0000" stroke-width="6" fill="#ff0000">
<circle cx="513" cy="396" r="3.5"/>
</g>
<path d="M332,107h 42" fill="none" stroke="#ff0000" stroke-width="6"/>
<path d="M333,426v -179" fill="none" stroke="black" stroke-width="3" stroke-dasharray=" 3, 3"/>
<rect x="113" y="-4" width="246" height="38" fill="white"/>
<text x="133" y="24" fill="black" font-size="30" font-family="Helvetica" font-weight="bold">
IGHJ3_star_01
</text></svg>
