<?xml version="1.0" standalone="no"?>
<svg width="567" height="466" viewBox="0 0 567 466" xmlns="http://www.w3.org/2000/svg">
<title>
/bbx/output/_plots/example/sw/mute-freqs/j/plots/IGHJ5_star_02.svg
</title>
<desc>
Creator: ROOT Version 5.34/14
CreationDate: Wed Aug 19 21:59:58 2015</desc>
<defs>
</defs>
<rect x="0" y="0" width="567" height="466" fill="white"/>
<rect x="79" y="37" width="443" height="359" fill="none" stroke="black"/>
<rect x="79" y="37" width="443" height="359" fill="none" stroke="black"/>
<path d="M79,396h 443" fill="none" stroke="black" stroke-width="3"/>
<path d="M84,385v 11" fill="none" stroke="black" stroke-width="3"/>
<path d="M127,391v 5" fill="none" stroke="black" stroke-width="3"/>
<path d="M170,391v 5" fill="none" stroke="black" stroke-width="3"/>
<path d="M214,391v 5" fill="none" stroke="black" stroke-width="3"/>
<path d="M257,385v 11" fill="none" stroke="black" stroke-width="3"/>
<path d="M300,391v 5" fill="none" stroke="black" stroke-width="3"/>
<path d="M344,391v 5" fill="none" stroke="black" stroke-width="3"/>
<path d="M387,391v 5" fill="none" stroke="black" stroke-width="3"/>
<path d="M431,385v 11" fill="none" stroke="black" stroke-width="3"/>
<path d="M84,385v 11" fill="none" stroke="black" stroke-width="3"/>
<path d="M431,385v 11" fill="none" stroke="black" stroke-width="3"/>
<path d="M474,391v 5" fill="none" stroke="black" stroke-width="3"/>
<path d="M517,391v 5" fill="none" stroke="black" stroke-width="3"/>
<text x="77" y="416" fill="black" font-size="21" font-family="Times" font-weight="bold">
0
</text>
<text x="245" y="416" fill="black" font-size="21" font-family="Times" font-weight="bold">
20
</text>
<text x="419" y="416" fill="black" font-size="21" font-family="Times" font-weight="bold">
40
</text>
<path d="M79,37h 443" fill="none" stroke="black" stroke-width="3"/>
<path d="M84,48v -11" fill="none" stroke="black" stroke-width="3"/>
<path d="M127,43v -6" fill="none" stroke="black" stroke-width="3"/>
<path d="M170,43v -6" fill="none" stroke="black" stroke-width="3"/>
<path d="M214,43v -6" fill="none" stroke="black" stroke-width="3"/>
<path d="M257,48v -11" fill="none" stroke="black" stroke-width="3"/>
<path d="M300,43v -6" fill="none" stroke="black" stroke-width="3"/>
<path d="M344,43v -6" fill="none" stroke="black" stroke-width="3"/>
<path d="M387,43v -6" fill="none" stroke="black" stroke-width="3"/>
<path d="M431,48v -11" fill="none" stroke="black" stroke-width="3"/>
<path d="M84,48v -11" fill="none" stroke="black" stroke-width="3"/>
<path d="M431,48v -11" fill="none" stroke="black" stroke-width="3"/>
<path d="M474,43v -6" fill="none" stroke="black" stroke-width="3"/>
<path d="M517,43v -6" fill="none" stroke="black" stroke-width="3"/>
<path d="M79,396v -359" fill="none" stroke="black" stroke-width="3"/>
<path d="M92,396h -13" fill="none" stroke="black" stroke-width="3"/>
<path d="M86,372h -7" fill="none" stroke="black" stroke-width="3"/>
<path d="M86,348h -7" fill="none" stroke="black" stroke-width="3"/>
<path d="M86,323h -7" fill="none" stroke="black" stroke-width="3"/>
<path d="M92,299h -13" fill="none" stroke="black" stroke-width="3"/>
<path d="M86,275h -7" fill="none" stroke="black" stroke-width="3"/>
<path d="M86,250h -7" fill="none" stroke="black" stroke-width="3"/>
<path d="M86,226h -7" fill="none" stroke="black" stroke-width="3"/>
<path d="M92,202h -13" fill="none" stroke="black" stroke-width="3"/>
<path d="M86,177h -7" fill="none" stroke="black" stroke-width="3"/>
<path d="M86,153h -7" fill="none" stroke="black" stroke-width="3"/>
<path d="M86,129h -7" fill="none" stroke="black" stroke-width="3"/>
<path d="M92,105h -13" fill="none" stroke="black" stroke-width="3"/>
<path d="M92,105h -13" fill="none" stroke="black" stroke-width="3"/>
<path d="M86,80h -7" fill="none" stroke="black" stroke-width="3"/>
<path d="M86,56h -7" fill="none" stroke="black" stroke-width="3"/>
<text x="46" y="404" fill="black" font-size="21" font-family="Times" font-weight="bold">
0.0
</text>
<text x="46" y="306" fill="black" font-size="21" font-family="Times" font-weight="bold">
0.2
</text>
<text x="46" y="209" fill="black" font-size="21" font-family="Times" font-weight="bold">
0.4
</text>
<text x="46" y="112" fill="black" font-size="21" font-family="Times" font-weight="bold">
0.6
</text>
<path d="M522,396v -359" fill="none" stroke="black" stroke-width="3"/>
<path d="M508,396h 14" fill="none" stroke="black" stroke-width="3"/>
<path d="M515,372h 7" fill="none" stroke="black" stroke-width="3"/>
<path d="M515,348h 7" fill="none" stroke="black" stroke-width="3"/>
<path d="M515,323h 7" fill="none" stroke="black" stroke-width="3"/>
<path d="M508,299h 14" fill="none" stroke="black" stroke-width="3"/>
<path d="M515,275h 7" fill="none" stroke="black" stroke-width="3"/>
<path d="M515,250h 7" fill="none" stroke="black" stroke-width="3"/>
<path d="M515,226h 7" fill="none" stroke="black" stroke-width="3"/>
<path d="M508,202h 14" fill="none" stroke="black" stroke-width="3"/>
<path d="M515,177h 7" fill="none" stroke="black" stroke-width="3"/>
<path d="M515,153h 7" fill="none" stroke="black" stroke-width="3"/>
<path d="M515,129h 7" fill="none" stroke="black" stroke-width="3"/>
<path d="M508,105h 14" fill="none" stroke="black" stroke-width="3"/>
<path d="M508,105h 14" fill="none" stroke="black" stroke-width="3"/>
<path d="M515,80h 7" fill="none" stroke="black" stroke-width="3"/>
<path d="M515,56h 7" fill="none" stroke="black" stroke-width="3"/>
<rect x="113" y="-4" width="248" height="38" fill="white"/>
<text x="131" y="24" fill="black" font-size="30" font-family="Helvetica" font-weight="bold">
IGHJ5_star_02
</text>
<path d="M84,393v -18" fill="none" stroke="#ff0000" stroke-width="6"/>
<g stroke="#ff0000" stroke-width="6" fill="#ff0000">
<circle cx="84" cy="396" r="3.5"/>
</g>
<path d="M92,393v -17" fill="none" stroke="#ff0000" stroke-width="6"/>
<g stroke="#ff0000" stroke-width="6" fill="#ff0000">
<circle cx="92" cy="396" r="3.5"/>
</g>
<path d="M101,294v -57" fill="none" stroke="#ff0000" stroke-width="6"/>
<path d="M101,231v -57" fill="none" stroke="#ff0000" stroke-width="6"/>
<path d="M97,234h 1" fill="none" stroke="#ff0000" stroke-width="6"/>
<path d="M104,234h 1" fill="none" stroke="#ff0000" stroke-width="6"/>
<g stroke="#ff0000" stroke-width="6" fill="#ff0000">
<circle cx="101" cy="234" r="3.5"/>
</g>
<path d="M110,216v -60" fill="none" stroke="#ff0000" stroke-width="6"/>
<path d="M110,150v -60" fill="none" stroke="#ff0000" stroke-width="6"/>
<path d="M105,153h 1" fill="none" stroke="#ff0000" stroke-width="6"/>
<path d="M113,153h 1" fill="none" stroke="#ff0000" stroke-width="6"/>
<g stroke="#ff0000" stroke-width="6" fill="#ff0000">
<circle cx="110" cy="153" r="3.5"/>
</g>
<path d="M118,315v -37" fill="none" stroke="#ff0000" stroke-width="6"/>
<path d="M118,271v -37" fill="none" stroke="#ff0000" stroke-width="6"/>
<path d="M114,275h 1" fill="none" stroke="#ff0000" stroke-width="6"/>
<path d="M122,275h 1" fill="none" stroke="#ff0000" stroke-width="6"/>
<g stroke="#ff0000" stroke-width="6" fill="#ff0000">
<circle cx="118" cy="275" r="3.5"/>
</g>
<path d="M127,140v -40" fill="none" stroke="#ff0000" stroke-width="6"/>
<path d="M127,94v -40" fill="none" stroke="#ff0000" stroke-width="6"/>
<path d="M123,97h 1" fill="none" stroke="#ff0000" stroke-width="6"/>
<path d="M130,97h 1" fill="none" stroke="#ff0000" stroke-width="6"/>
<g stroke="#ff0000" stroke-width="6" fill="#ff0000">
<circle cx="127" cy="97" r="3.5"/>
</g>
<path d="M136,393v -6" fill="none" stroke="#ff0000" stroke-width="6"/>
<g stroke="#ff0000" stroke-width="6" fill="#ff0000">
<circle cx="136" cy="396" r="3.5"/>
</g>
<path d="M144,393v -5" fill="none" stroke="#ff0000" stroke-width="6"/>
<g stroke="#ff0000" stroke-width="6" fill="#ff0000">
<circle cx="144" cy="396" r="3.5"/>
</g>
<path d="M153,293v -35" fill="none" stroke="#ff0000" stroke-width="6"/>
<path d="M153,252v -34" fill="none" stroke="#ff0000" stroke-width="6"/>
<path d="M149,255h 1" fill="none" stroke="#ff0000" stroke-width="6"/>
<path d="M156,255h 1" fill="none" stroke="#ff0000" stroke-width="6"/>
<g stroke="#ff0000" stroke-width="6" fill="#ff0000">
<circle cx="153" cy="255" r="3.5"/>
</g>
<path d="M162,387v -19" fill="none" stroke="#ff0000" stroke-width="6"/>
<path d="M162,362v -20" fill="none" stroke="#ff0000" stroke-width="6"/>
<path d="M157,365h 1" fill="none" stroke="#ff0000" stroke-width="6"/>
<path d="M165,365h 1" fill="none" stroke="#ff0000" stroke-width="6"/>
<g stroke="#ff0000" stroke-width="6" fill="#ff0000">
<circle cx="162" cy="365" r="3.5"/>
</g>
<path d="M170,263v -36" fill="none" stroke="#ff0000" stroke-width="6"/>
<path d="M170,220v -36" fill="none" stroke="#ff0000" stroke-width="6"/>
<path d="M166,224h 1" fill="none" stroke="#ff0000" stroke-width="6"/>
<path d="M174,224h 1" fill="none" stroke="#ff0000" stroke-width="6"/>
<g stroke="#ff0000" stroke-width="6" fill="#ff0000">
<circle cx="170" cy="224" r="3.5"/>
</g>
<path d="M179,393v -5" fill="none" stroke="#ff0000" stroke-width="6"/>
<g stroke="#ff0000" stroke-width="6" fill="#ff0000">
<circle cx="179" cy="396" r="3.5"/>
</g>
<path d="M188,293v -35" fill="none" stroke="#ff0000" stroke-width="6"/>
<path d="M188,252v -34" fill="none" stroke="#ff0000" stroke-width="6"/>
<path d="M183,255h 1" fill="none" stroke="#ff0000" stroke-width="6"/>
<path d="M191,255h 1" fill="none" stroke="#ff0000" stroke-width="6"/>
<g stroke="#ff0000" stroke-width="6" fill="#ff0000">
<circle cx="188" cy="255" r="3.5"/>
</g>
<path d="M196,321v -31" fill="none" stroke="#ff0000" stroke-width="6"/>
<path d="M196,283v -31" fill="none" stroke="#ff0000" stroke-width="6"/>
<path d="M192,286h 1" fill="none" stroke="#ff0000" stroke-width="6"/>
<path d="M200,286h 1" fill="none" stroke="#ff0000" stroke-width="6"/>
<g stroke="#ff0000" stroke-width="6" fill="#ff0000">
<circle cx="196" cy="286" r="3.5"/>
</g>
<path d="M205,278v -35" fill="none" stroke="#ff0000" stroke-width="6"/>
<path d="M205,236v -35" fill="none" stroke="#ff0000" stroke-width="6"/>
<path d="M201,239h 1" fill="none" stroke="#ff0000" stroke-width="6"/>
<path d="M208,239h 1" fill="none" stroke="#ff0000" stroke-width="6"/>
<g stroke="#ff0000" stroke-width="6" fill="#ff0000">
<circle cx="205" cy="239" r="3.5"/>
</g>
<path d="M214,349v -28" fill="none" stroke="#ff0000" stroke-width="6"/>
<path d="M214,314v -27" fill="none" stroke="#ff0000" stroke-width="6"/>
<path d="M209,318h 2" fill="none" stroke="#ff0000" stroke-width="6"/>
<path d="M217,318h 1" fill="none" stroke="#ff0000" stroke-width="6"/>
<g stroke="#ff0000" stroke-width="6" fill="#ff0000">
<circle cx="214" cy="318" r="3.5"/>
</g>
<path d="M222,396v -12" fill="none" stroke="#ff0000" stroke-width="6"/>
<path d="M222,377v -15" fill="none" stroke="#ff0000" stroke-width="6"/>
<path d="M218,380h 1" fill="none" stroke="#ff0000" stroke-width="6"/>
<path d="M226,380h 1" fill="none" stroke="#ff0000" stroke-width="6"/>
<g stroke="#ff0000" stroke-width="6" fill="#ff0000">
<circle cx="222" cy="380" r="3.5"/>
</g>
<path d="M231,393v -5" fill="none" stroke="#ff0000" stroke-width="6"/>
<g stroke="#ff0000" stroke-width="6" fill="#ff0000">
<circle cx="231" cy="396" r="3.5"/>
</g>
<path d="M240,393v -5" fill="none" stroke="#ff0000" stroke-width="6"/>
<g stroke="#ff0000" stroke-width="6" fill="#ff0000">
<circle cx="240" cy="396" r="3.5"/>
</g>
<path d="M248,393v -5" fill="none" stroke="#ff0000" stroke-width="6"/>
<g stroke="#ff0000" stroke-width="6" fill="#ff0000">
<circle cx="248" cy="396" r="3.5"/>
</g>
<path d="M257,393v -5" fill="none" stroke="#ff0000" stroke-width="6"/>
<g stroke="#ff0000" stroke-width="6" fill="#ff0000">
<circle cx="257" cy="396" r="3.5"/>
</g>
<path d="M266,393v -5" fill="none" stroke="#ff0000" stroke-width="6"/>
<g stroke="#ff0000" stroke-width="6" fill="#ff0000">
<circle cx="266" cy="396" r="3.5"/>
</g>
<path d="M274,396v -12" fill="none" stroke="#ff0000" stroke-width="6"/>
<path d="M274,377v -15" fill="none" stroke="#ff0000" stroke-width="6"/>
<path d="M270,380h 1" fill="none" stroke="#ff0000" stroke-width="6"/>
<path d="M278,380h 1" fill="none" stroke="#ff0000" stroke-width="6"/>
<g stroke="#ff0000" stroke-width="6" fill="#ff0000">
<circle cx="274" cy="380" r="3.5"/>
</g>
<path d="M283,393v -5" fill="none" stroke="#ff0000" stroke-width="6"/>
<g stroke="#ff0000" stroke-width="6" fill="#ff0000">
<circle cx="283" cy="396" r="3.5"/>
</g>
<path d="M292,248v -37" fill="none" stroke="#ff0000" stroke-width="6"/>
<path d="M292,205v -37" fill="none" stroke="#ff0000" stroke-width="6"/>
<path d="M287,208h 2" fill="none" stroke="#ff0000" stroke-width="6"/>
<path d="M295,208h 1" fill="none" stroke="#ff0000" stroke-width="6"/>
<g stroke="#ff0000" stroke-width="6" fill="#ff0000">
<circle cx="292" cy="208" r="3.5"/>
</g>
<path d="M300,387v -19" fill="none" stroke="#ff0000" stroke-width="6"/>
<path d="M300,362v -20" fill="none" stroke="#ff0000" stroke-width="6"/>
<path d="M296,365h 1" fill="none" stroke="#ff0000" stroke-width="6"/>
<path d="M304,365h 1" fill="none" stroke="#ff0000" stroke-width="6"/>
<g stroke="#ff0000" stroke-width="6" fill="#ff0000">
<circle cx="300" cy="365" r="3.5"/>
</g>
<path d="M309,393v -5" fill="none" stroke="#ff0000" stroke-width="6"/>
<g stroke="#ff0000" stroke-width="6" fill="#ff0000">
<circle cx="309" cy="396" r="3.5"/>
</g>
<path d="M318,393v -5" fill="none" stroke="#ff0000" stroke-width="6"/>
<g stroke="#ff0000" stroke-width="6" fill="#ff0000">
<circle cx="318" cy="396" r="3.5"/>
</g>
<path d="M326,396v -12" fill="none" stroke="#ff0000" stroke-width="6"/>
<path d="M326,377v -15" fill="none" stroke="#ff0000" stroke-width="6"/>
<path d="M322,380h 1" fill="none" stroke="#ff0000" stroke-width="6"/>
<path d="M330,380h 1" fill="none" stroke="#ff0000" stroke-width="6"/>
<g stroke="#ff0000" stroke-width="6" fill="#ff0000">
<circle cx="326" cy="380" r="3.5"/>
</g>
<path d="M335,375v -23" fill="none" stroke="#ff0000" stroke-width="6"/>
<path d="M335,346v -23" fill="none" stroke="#ff0000" stroke-width="6"/>
<path d="M331,349h 1" fill="none" stroke="#ff0000" stroke-width="6"/>
<path d="M338,349h 1" fill="none" stroke="#ff0000" stroke-width="6"/>
<g stroke="#ff0000" stroke-width="6" fill="#ff0000">
<circle cx="335" cy="349" r="3.5"/>
</g>
<path d="M344,396v -12" fill="none" stroke="#ff0000" stroke-width="6"/>
<path d="M344,377v -15" fill="none" stroke="#ff0000" stroke-width="6"/>
<path d="M339,380h 2" fill="none" stroke="#ff0000" stroke-width="6"/>
<path d="M347,380h 1" fill="none" stroke="#ff0000" stroke-width="6"/>
<g stroke="#ff0000" stroke-width="6" fill="#ff0000">
<circle cx="344" cy="380" r="3.5"/>
</g>
<path d="M352,396v -12" fill="none" stroke="#ff0000" stroke-width="6"/>
<path d="M352,377v -15" fill="none" stroke="#ff0000" stroke-width="6"/>
<path d="M348,380h 1" fill="none" stroke="#ff0000" stroke-width="6"/>
<path d="M356,380h 1" fill="none" stroke="#ff0000" stroke-width="6"/>
<g stroke="#ff0000" stroke-width="6" fill="#ff0000">
<circle cx="352" cy="380" r="3.5"/>
</g>
<path d="M361,393v -5" fill="none" stroke="#ff0000" stroke-width="6"/>
<g stroke="#ff0000" stroke-width="6" fill="#ff0000">
<circle cx="361" cy="396" r="3.5"/>
</g>
<path d="M370,393v -5" fill="none" stroke="#ff0000" stroke-width="6"/>
<g stroke="#ff0000" stroke-width="6" fill="#ff0000">
<circle cx="370" cy="396" r="3.5"/>
</g>
<path d="M379,393v -5" fill="none" stroke="#ff0000" stroke-width="6"/>
<g stroke="#ff0000" stroke-width="6" fill="#ff0000">
<circle cx="379" cy="396" r="3.5"/>
</g>
<path d="M387,393v -5" fill="none" stroke="#ff0000" stroke-width="6"/>
<g stroke="#ff0000" stroke-width="6" fill="#ff0000">
<circle cx="387" cy="396" r="3.5"/>
</g>
<path d="M396,393v -5" fill="none" stroke="#ff0000" stroke-width="6"/>
<g stroke="#ff0000" stroke-width="6" fill="#ff0000">
<circle cx="396" cy="396" r="3.5"/>
</g>
<path d="M405,393v -5" fill="none" stroke="#ff0000" stroke-width="6"/>
<g stroke="#ff0000" stroke-width="6" fill="#ff0000">
<circle cx="405" cy="396" r="3.5"/>
</g>
<path d="M413,393v -5" fill="none" stroke="#ff0000" stroke-width="6"/>
<g stroke="#ff0000" stroke-width="6" fill="#ff0000">
<circle cx="413" cy="396" r="3.5"/>
</g>
<path d="M422,393v -5" fill="none" stroke="#ff0000" stroke-width="6"/>
<g stroke="#ff0000" stroke-width="6" fill="#ff0000">
<circle cx="422" cy="396" r="3.5"/>
</g>
<path d="M431,396v -12" fill="none" stroke="#ff0000" stroke-width="6"/>
<path d="M431,377v -15" fill="none" stroke="#ff0000" stroke-width="6"/>
<path d="M426,380h 1" fill="none" stroke="#ff0000" stroke-width="6"/>
<path d="M434,380h 1" fill="none" stroke="#ff0000" stroke-width="6"/>
<g stroke="#ff0000" stroke-width="6" fill="#ff0000">
<circle cx="431" cy="380" r="3.5"/>
</g>
<path d="M439,393v -5" fill="none" stroke="#ff0000" stroke-width="6"/>
<g stroke="#ff0000" stroke-width="6" fill="#ff0000">
<circle cx="439" cy="396" r="3.5"/>
</g>
<path d="M448,393v -5" fill="none" stroke="#ff0000" stroke-width="6"/>
<g stroke="#ff0000" stroke-width="6" fill="#ff0000">
<circle cx="448" cy="396" r="3.5"/>
</g>
<path d="M457,393v -5" fill="none" stroke="#ff0000" stroke-width="6"/>
<g stroke="#ff0000" stroke-width="6" fill="#ff0000">
<circle cx="457" cy="396" r="3.5"/>
</g>
<path d="M465,393v -5" fill="none" stroke="#ff0000" stroke-width="6"/>
<g stroke="#ff0000" stroke-width="6" fill="#ff0000">
<circle cx="465" cy="396" r="3.5"/>
</g>
<path d="M474,393v -5" fill="none" stroke="#ff0000" stroke-width="6"/>
<g stroke="#ff0000" stroke-width="6" fill="#ff0000">
<circle cx="474" cy="396" r="3.5"/>
</g>
<path d="M483,387v -19" fill="none" stroke="#ff0000" stroke-width="6"/>
<path d="M483,362v -20" fill="none" stroke="#ff0000" stroke-width="6"/>
<path d="M478,365h 1" fill="none" stroke="#ff0000" stroke-width="6"/>
<path d="M486,365h 1" fill="none" stroke="#ff0000" stroke-width="6"/>
<g stroke="#ff0000" stroke-width="6" fill="#ff0000">
<circle cx="483" cy="365" r="3.5"/>
</g>
<path d="M491,393v -5" fill="none" stroke="#ff0000" stroke-width="6"/>
<g stroke="#ff0000" stroke-width="6" fill="#ff0000">
<circle cx="491" cy="396" r="3.5"/>
</g>
<path d="M500,396v -12" fill="none" stroke="#ff0000" stroke-width="6"/>
<path d="M500,377v -15" fill="none" stroke="#ff0000" stroke-width="6"/>
<path d="M496,380h 1" fill="none" stroke="#ff0000" stroke-width="6"/>
<path d="M503,380h 1" fill="none" stroke="#ff0000" stroke-width="6"/>
<g stroke="#ff0000" stroke-width="6" fill="#ff0000">
<circle cx="500" cy="380" r="3.5"/>
</g>
<path d="M509,393v -5" fill="none" stroke="#ff0000" stroke-width="6"/>
<g stroke="#ff0000" stroke-width="6" fill="#ff0000">
<circle cx="509" cy="396" r="3.5"/>
</g>
<path d="M517,393v -5" fill="none" stroke="#ff0000" stroke-width="6"/>
<g stroke="#ff0000" stroke-width="6" fill="#ff0000">
<circle cx="517" cy="396" r="3.5"/>
</g>
<path d="M332,107h 42" fill="none" stroke="#ff0000" stroke-width="6"/>
<path d="M231,426v -179" fill="none" stroke="black" stroke-width="3" stroke-dasharray=" 3, 3"/>
<rect x="113" y="-4" width="248" height="38" fill="white"/>
<text x="131" y="24" fill="black" font-size="30" font-family="Helvetica" font-weight="bold">
IGHJ5_star_02
</text></svg>
