<?xml version="1.0" standalone="no"?>
<svg width="567" height="466" viewBox="0 0 567 466" xmlns="http://www.w3.org/2000/svg">
<title>
/bbx/output/_plots/example/hmm/true/v_5p_del/plots/IGHV3-7_star_01-v_5p_del.svg
</title>
<desc>
Creator: ROOT Version 5.34/14
CreationDate: Wed Aug 19 19:38:35 2015</desc>
<defs>
</defs>
<rect x="0" y="0" width="567" height="466" fill="white"/>
<rect x="79" y="37" width="443" height="359" fill="none" stroke="black"/>
<rect x="79" y="37" width="443" height="359" fill="none" stroke="black"/>
<path d="M79,396h 443" fill="none" stroke="black" stroke-width="3"/>
<path d="M124,385v 11" fill="none" stroke="black" stroke-width="3"/>
<path d="M141,391v 5" fill="none" stroke="black" stroke-width="3"/>
<path d="M159,391v 5" fill="none" stroke="black" stroke-width="3"/>
<path d="M177,391v 5" fill="none" stroke="black" stroke-width="3"/>
<path d="M194,391v 5" fill="none" stroke="black" stroke-width="3"/>
<path d="M212,385v 11" fill="none" stroke="black" stroke-width="3"/>
<path d="M230,391v 5" fill="none" stroke="black" stroke-width="3"/>
<path d="M247,391v 5" fill="none" stroke="black" stroke-width="3"/>
<path d="M265,391v 5" fill="none" stroke="black" stroke-width="3"/>
<path d="M283,391v 5" fill="none" stroke="black" stroke-width="3"/>
<path d="M300,385v 11" fill="none" stroke="black" stroke-width="3"/>
<path d="M318,391v 5" fill="none" stroke="black" stroke-width="3"/>
<path d="M336,391v 5" fill="none" stroke="black" stroke-width="3"/>
<path d="M354,391v 5" fill="none" stroke="black" stroke-width="3"/>
<path d="M371,391v 5" fill="none" stroke="black" stroke-width="3"/>
<path d="M389,385v 11" fill="none" stroke="black" stroke-width="3"/>
<path d="M407,391v 5" fill="none" stroke="black" stroke-width="3"/>
<path d="M424,391v 5" fill="none" stroke="black" stroke-width="3"/>
<path d="M442,391v 5" fill="none" stroke="black" stroke-width="3"/>
<path d="M460,391v 5" fill="none" stroke="black" stroke-width="3"/>
<path d="M477,385v 11" fill="none" stroke="black" stroke-width="3"/>
<path d="M124,385v 11" fill="none" stroke="black" stroke-width="3"/>
<path d="M106,391v 5" fill="none" stroke="black" stroke-width="3"/>
<path d="M88,391v 5" fill="none" stroke="black" stroke-width="3"/>
<path d="M477,385v 11" fill="none" stroke="black" stroke-width="3"/>
<path d="M495,391v 5" fill="none" stroke="black" stroke-width="3"/>
<path d="M513,391v 5" fill="none" stroke="black" stroke-width="3"/>
<text x="107" y="416" fill="black" font-size="21" font-family="Times" font-weight="bold">
190
</text>
<text x="195" y="416" fill="black" font-size="21" font-family="Times" font-weight="bold">
195
</text>
<text x="283" y="416" fill="black" font-size="21" font-family="Times" font-weight="bold">
200
</text>
<text x="372" y="416" fill="black" font-size="21" font-family="Times" font-weight="bold">
205
</text>
<text x="461" y="416" fill="black" font-size="21" font-family="Times" font-weight="bold">
210
</text>
<path d="M79,37h 443" fill="none" stroke="black" stroke-width="3"/>
<path d="M124,48v -11" fill="none" stroke="black" stroke-width="3"/>
<path d="M141,43v -6" fill="none" stroke="black" stroke-width="3"/>
<path d="M159,43v -6" fill="none" stroke="black" stroke-width="3"/>
<path d="M177,43v -6" fill="none" stroke="black" stroke-width="3"/>
<path d="M194,43v -6" fill="none" stroke="black" stroke-width="3"/>
<path d="M212,48v -11" fill="none" stroke="black" stroke-width="3"/>
<path d="M230,43v -6" fill="none" stroke="black" stroke-width="3"/>
<path d="M247,43v -6" fill="none" stroke="black" stroke-width="3"/>
<path d="M265,43v -6" fill="none" stroke="black" stroke-width="3"/>
<path d="M283,43v -6" fill="none" stroke="black" stroke-width="3"/>
<path d="M300,48v -11" fill="none" stroke="black" stroke-width="3"/>
<path d="M318,43v -6" fill="none" stroke="black" stroke-width="3"/>
<path d="M336,43v -6" fill="none" stroke="black" stroke-width="3"/>
<path d="M354,43v -6" fill="none" stroke="black" stroke-width="3"/>
<path d="M371,43v -6" fill="none" stroke="black" stroke-width="3"/>
<path d="M389,48v -11" fill="none" stroke="black" stroke-width="3"/>
<path d="M407,43v -6" fill="none" stroke="black" stroke-width="3"/>
<path d="M424,43v -6" fill="none" stroke="black" stroke-width="3"/>
<path d="M442,43v -6" fill="none" stroke="black" stroke-width="3"/>
<path d="M460,43v -6" fill="none" stroke="black" stroke-width="3"/>
<path d="M477,48v -11" fill="none" stroke="black" stroke-width="3"/>
<path d="M124,48v -11" fill="none" stroke="black" stroke-width="3"/>
<path d="M106,43v -6" fill="none" stroke="black" stroke-width="3"/>
<path d="M88,43v -6" fill="none" stroke="black" stroke-width="3"/>
<path d="M477,48v -11" fill="none" stroke="black" stroke-width="3"/>
<path d="M495,43v -6" fill="none" stroke="black" stroke-width="3"/>
<path d="M513,43v -6" fill="none" stroke="black" stroke-width="3"/>
<path d="M79,396v -359" fill="none" stroke="black" stroke-width="3"/>
<path d="M92,396h -13" fill="none" stroke="black" stroke-width="3"/>
<path d="M86,371h -7" fill="none" stroke="black" stroke-width="3"/>
<path d="M86,346h -7" fill="none" stroke="black" stroke-width="3"/>
<path d="M86,321h -7" fill="none" stroke="black" stroke-width="3"/>
<path d="M92,296h -13" fill="none" stroke="black" stroke-width="3"/>
<path d="M86,272h -7" fill="none" stroke="black" stroke-width="3"/>
<path d="M86,247h -7" fill="none" stroke="black" stroke-width="3"/>
<path d="M86,222h -7" fill="none" stroke="black" stroke-width="3"/>
<path d="M92,197h -13" fill="none" stroke="black" stroke-width="3"/>
<path d="M86,172h -7" fill="none" stroke="black" stroke-width="3"/>
<path d="M86,147h -7" fill="none" stroke="black" stroke-width="3"/>
<path d="M86,122h -7" fill="none" stroke="black" stroke-width="3"/>
<path d="M92,97h -13" fill="none" stroke="black" stroke-width="3"/>
<path d="M92,97h -13" fill="none" stroke="black" stroke-width="3"/>
<path d="M86,72h -7" fill="none" stroke="black" stroke-width="3"/>
<path d="M86,47h -7" fill="none" stroke="black" stroke-width="3"/>
<text x="63" y="404" fill="black" font-size="21" font-family="Times" font-weight="bold">
0
</text>
<text x="63" y="304" fill="black" font-size="21" font-family="Times" font-weight="bold">
2
</text>
<text x="63" y="205" fill="black" font-size="21" font-family="Times" font-weight="bold">
4
</text>
<text x="63" y="105" fill="black" font-size="21" font-family="Times" font-weight="bold">
6
</text>
<path d="M522,396v -359" fill="none" stroke="black" stroke-width="3"/>
<path d="M508,396h 14" fill="none" stroke="black" stroke-width="3"/>
<path d="M515,371h 7" fill="none" stroke="black" stroke-width="3"/>
<path d="M515,346h 7" fill="none" stroke="black" stroke-width="3"/>
<path d="M515,321h 7" fill="none" stroke="black" stroke-width="3"/>
<path d="M508,296h 14" fill="none" stroke="black" stroke-width="3"/>
<path d="M515,272h 7" fill="none" stroke="black" stroke-width="3"/>
<path d="M515,247h 7" fill="none" stroke="black" stroke-width="3"/>
<path d="M515,222h 7" fill="none" stroke="black" stroke-width="3"/>
<path d="M508,197h 14" fill="none" stroke="black" stroke-width="3"/>
<path d="M515,172h 7" fill="none" stroke="black" stroke-width="3"/>
<path d="M515,147h 7" fill="none" stroke="black" stroke-width="3"/>
<path d="M515,122h 7" fill="none" stroke="black" stroke-width="3"/>
<path d="M508,97h 14" fill="none" stroke="black" stroke-width="3"/>
<path d="M508,97h 14" fill="none" stroke="black" stroke-width="3"/>
<path d="M515,72h 7" fill="none" stroke="black" stroke-width="3"/>
<path d="M515,47h 7" fill="none" stroke="black" stroke-width="3"/>
<rect x="113" y="-4" width="397" height="40" fill="white"/>
<text x="126" y="24" fill="black" font-size="29" font-family="Helvetica" font-weight="bold">
IGHV3-7_star_01-v_5p_del
</text>
<path d="M88,396v -46" fill="none" stroke="#ff0000" stroke-width="6"/>
<path d="M88,343v -47" fill="none" stroke="#ff0000" stroke-width="6"/>
<g stroke="#ff0000" stroke-width="6" fill="#ff0000">
<circle cx="88" cy="346" r="3.5"/>
</g>
<path d="M247,219v -119" fill="none" stroke="#ff0000" stroke-width="6"/>
<path d="M247,94v -57" fill="none" stroke="#ff0000" stroke-width="6"/>
<g stroke="#ff0000" stroke-width="6" fill="#ff0000">
<circle cx="247" cy="97" r="3.5"/>
</g>
<path d="M354,258v -108" fill="none" stroke="#ff0000" stroke-width="6"/>
<path d="M354,144v -107" fill="none" stroke="#ff0000" stroke-width="6"/>
<g stroke="#ff0000" stroke-width="6" fill="#ff0000">
<circle cx="354" cy="147" r="3.5"/>
</g>
<path d="M513,258v -108" fill="none" stroke="#ff0000" stroke-width="6"/>
<path d="M513,144v -107" fill="none" stroke="#ff0000" stroke-width="6"/>
<g stroke="#ff0000" stroke-width="6" fill="#ff0000">
<circle cx="513" cy="147" r="3.5"/>
</g>
<path d="M80,395v -49h 17v 49h 142v -298h 17v 298h 89v -248h 17v 248h 142v -248h 18" fill="none" stroke="#ff0000" stroke-width="6"/>
<path d="M332,107h 42" fill="none" stroke="#ff0000" stroke-width="6"/>
<rect x="113" y="-4" width="397" height="40" fill="white"/>
<text x="126" y="24" fill="black" font-size="29" font-family="Helvetica" font-weight="bold">
IGHV3-7_star_01-v_5p_del
</text></svg>
