<?xml version="1.0" standalone="no"?>
<svg width="567" height="466" viewBox="0 0 567 466" xmlns="http://www.w3.org/2000/svg">
<title>
/bbx/output/_plots/example/sw/true/d_5p_del/plots/IGHD3-10_star_01-d_5p_del.svg
</title>
<desc>
Creator: ROOT Version 5.34/14
CreationDate: Thu Jul 30 17:05:57 2015</desc>
<defs>
</defs>
<rect x="0" y="0" width="567" height="466" fill="white"/>
<rect x="79" y="37" width="443" height="359" fill="none" stroke="black"/>
<rect x="79" y="37" width="443" height="359" fill="none" stroke="black"/>
<path d="M79,396h 443" fill="none" stroke="black" stroke-width="3"/>
<path d="M135,385v 11" fill="none" stroke="black" stroke-width="3"/>
<path d="M157,391v 5" fill="none" stroke="black" stroke-width="3"/>
<path d="M179,391v 5" fill="none" stroke="black" stroke-width="3"/>
<path d="M201,391v 5" fill="none" stroke="black" stroke-width="3"/>
<path d="M223,391v 5" fill="none" stroke="black" stroke-width="3"/>
<path d="M245,385v 11" fill="none" stroke="black" stroke-width="3"/>
<path d="M267,391v 5" fill="none" stroke="black" stroke-width="3"/>
<path d="M289,391v 5" fill="none" stroke="black" stroke-width="3"/>
<path d="M312,391v 5" fill="none" stroke="black" stroke-width="3"/>
<path d="M334,391v 5" fill="none" stroke="black" stroke-width="3"/>
<path d="M356,385v 11" fill="none" stroke="black" stroke-width="3"/>
<path d="M378,391v 5" fill="none" stroke="black" stroke-width="3"/>
<path d="M400,391v 5" fill="none" stroke="black" stroke-width="3"/>
<path d="M422,391v 5" fill="none" stroke="black" stroke-width="3"/>
<path d="M444,391v 5" fill="none" stroke="black" stroke-width="3"/>
<path d="M466,385v 11" fill="none" stroke="black" stroke-width="3"/>
<path d="M135,385v 11" fill="none" stroke="black" stroke-width="3"/>
<path d="M113,391v 5" fill="none" stroke="black" stroke-width="3"/>
<path d="M90,391v 5" fill="none" stroke="black" stroke-width="3"/>
<path d="M466,385v 11" fill="none" stroke="black" stroke-width="3"/>
<path d="M488,391v 5" fill="none" stroke="black" stroke-width="3"/>
<path d="M511,391v 5" fill="none" stroke="black" stroke-width="3"/>
<text x="129" y="416" fill="black" font-size="21" font-family="Times" font-weight="bold">
0
</text>
<text x="240" y="416" fill="black" font-size="21" font-family="Times" font-weight="bold">
1
</text>
<text x="349" y="416" fill="black" font-size="21" font-family="Times" font-weight="bold">
2
</text>
<text x="460" y="416" fill="black" font-size="21" font-family="Times" font-weight="bold">
3
</text>
<path d="M79,37h 443" fill="none" stroke="black" stroke-width="3"/>
<path d="M135,48v -11" fill="none" stroke="black" stroke-width="3"/>
<path d="M157,43v -6" fill="none" stroke="black" stroke-width="3"/>
<path d="M179,43v -6" fill="none" stroke="black" stroke-width="3"/>
<path d="M201,43v -6" fill="none" stroke="black" stroke-width="3"/>
<path d="M223,43v -6" fill="none" stroke="black" stroke-width="3"/>
<path d="M245,48v -11" fill="none" stroke="black" stroke-width="3"/>
<path d="M267,43v -6" fill="none" stroke="black" stroke-width="3"/>
<path d="M289,43v -6" fill="none" stroke="black" stroke-width="3"/>
<path d="M312,43v -6" fill="none" stroke="black" stroke-width="3"/>
<path d="M334,43v -6" fill="none" stroke="black" stroke-width="3"/>
<path d="M356,48v -11" fill="none" stroke="black" stroke-width="3"/>
<path d="M378,43v -6" fill="none" stroke="black" stroke-width="3"/>
<path d="M400,43v -6" fill="none" stroke="black" stroke-width="3"/>
<path d="M422,43v -6" fill="none" stroke="black" stroke-width="3"/>
<path d="M444,43v -6" fill="none" stroke="black" stroke-width="3"/>
<path d="M466,48v -11" fill="none" stroke="black" stroke-width="3"/>
<path d="M135,48v -11" fill="none" stroke="black" stroke-width="3"/>
<path d="M113,43v -6" fill="none" stroke="black" stroke-width="3"/>
<path d="M90,43v -6" fill="none" stroke="black" stroke-width="3"/>
<path d="M466,48v -11" fill="none" stroke="black" stroke-width="3"/>
<path d="M488,43v -6" fill="none" stroke="black" stroke-width="3"/>
<path d="M511,43v -6" fill="none" stroke="black" stroke-width="3"/>
<path d="M79,396v -359" fill="none" stroke="black" stroke-width="3"/>
<path d="M92,396h -13" fill="none" stroke="black" stroke-width="3"/>
<path d="M86,371h -7" fill="none" stroke="black" stroke-width="3"/>
<path d="M86,346h -7" fill="none" stroke="black" stroke-width="3"/>
<path d="M86,321h -7" fill="none" stroke="black" stroke-width="3"/>
<path d="M92,296h -13" fill="none" stroke="black" stroke-width="3"/>
<path d="M86,272h -7" fill="none" stroke="black" stroke-width="3"/>
<path d="M86,247h -7" fill="none" stroke="black" stroke-width="3"/>
<path d="M86,222h -7" fill="none" stroke="black" stroke-width="3"/>
<path d="M92,197h -13" fill="none" stroke="black" stroke-width="3"/>
<path d="M86,172h -7" fill="none" stroke="black" stroke-width="3"/>
<path d="M86,147h -7" fill="none" stroke="black" stroke-width="3"/>
<path d="M86,122h -7" fill="none" stroke="black" stroke-width="3"/>
<path d="M92,97h -13" fill="none" stroke="black" stroke-width="3"/>
<path d="M92,97h -13" fill="none" stroke="black" stroke-width="3"/>
<path d="M86,72h -7" fill="none" stroke="black" stroke-width="3"/>
<path d="M86,47h -7" fill="none" stroke="black" stroke-width="3"/>
<text x="63" y="404" fill="black" font-size="21" font-family="Times" font-weight="bold">
0
</text>
<text x="63" y="304" fill="black" font-size="21" font-family="Times" font-weight="bold">
2
</text>
<text x="63" y="205" fill="black" font-size="21" font-family="Times" font-weight="bold">
4
</text>
<text x="63" y="105" fill="black" font-size="21" font-family="Times" font-weight="bold">
6
</text>
<path d="M522,396v -359" fill="none" stroke="black" stroke-width="3"/>
<path d="M508,396h 14" fill="none" stroke="black" stroke-width="3"/>
<path d="M515,371h 7" fill="none" stroke="black" stroke-width="3"/>
<path d="M515,346h 7" fill="none" stroke="black" stroke-width="3"/>
<path d="M515,321h 7" fill="none" stroke="black" stroke-width="3"/>
<path d="M508,296h 14" fill="none" stroke="black" stroke-width="3"/>
<path d="M515,272h 7" fill="none" stroke="black" stroke-width="3"/>
<path d="M515,247h 7" fill="none" stroke="black" stroke-width="3"/>
<path d="M515,222h 7" fill="none" stroke="black" stroke-width="3"/>
<path d="M508,197h 14" fill="none" stroke="black" stroke-width="3"/>
<path d="M515,172h 7" fill="none" stroke="black" stroke-width="3"/>
<path d="M515,147h 7" fill="none" stroke="black" stroke-width="3"/>
<path d="M515,122h 7" fill="none" stroke="black" stroke-width="3"/>
<path d="M508,97h 14" fill="none" stroke="black" stroke-width="3"/>
<path d="M508,97h 14" fill="none" stroke="black" stroke-width="3"/>
<path d="M515,72h 7" fill="none" stroke="black" stroke-width="3"/>
<path d="M515,47h 7" fill="none" stroke="black" stroke-width="3"/>
<rect x="113" y="-4" width="397" height="40" fill="white"/>
<text x="127" y="24" fill="black" font-size="27" font-family="Helvetica" font-weight="bold">
IGHD3-10_star_01-d_5p_del
</text>
<path d="M135,396v -46" fill="none" stroke="#ff0000" stroke-width="6"/>
<path d="M135,343v -47" fill="none" stroke="#ff0000" stroke-width="6"/>
<g stroke="#ff0000" stroke-width="6" fill="#ff0000">
<circle cx="135" cy="346" r="3.5"/>
</g>
<path d="M356,367v -67" fill="none" stroke="#ff0000" stroke-width="6"/>
<path d="M356,293v -67" fill="none" stroke="#ff0000" stroke-width="6"/>
<g stroke="#ff0000" stroke-width="6" fill="#ff0000">
<circle cx="356" cy="296" r="3.5"/>
</g>
<path d="M466,219v -119" fill="none" stroke="#ff0000" stroke-width="6"/>
<path d="M466,94v -57" fill="none" stroke="#ff0000" stroke-width="6"/>
<g stroke="#ff0000" stroke-width="6" fill="#ff0000">
<circle cx="466" cy="97" r="3.5"/>
</g>
<path d="M80,395v -49h 110v 49h 110v -99h 111v -199h 111" fill="none" stroke="#ff0000" stroke-width="6"/>
<path d="M332,107h 42" fill="none" stroke="#ff0000" stroke-width="6"/>
<rect x="113" y="-4" width="397" height="40" fill="white"/>
<text x="127" y="24" fill="black" font-size="27" font-family="Helvetica" font-weight="bold">
IGHD3-10_star_01-d_5p_del
</text></svg>
