<?xml version="1.0" standalone="no"?>
<svg width="567" height="466" viewBox="0 0 567 466" xmlns="http://www.w3.org/2000/svg">
<title>
/bbx/output/_plots/example/hmm/performance/plots/d_3p_del.svg
</title>
<desc>
Creator: ROOT Version 5.34/14
CreationDate: Wed Aug 19 19:38:58 2015</desc>
<defs>
</defs>
<rect x="0" y="0" width="567" height="466" fill="white"/>
<rect x="79" y="37" width="443" height="359" fill="none" stroke="black"/>
<rect x="79" y="37" width="443" height="359" fill="none" stroke="black"/>
<path d="M79,396h 443" fill="none" stroke="black" stroke-width="3"/>
<text x="324" y="449" fill="black" font-size="32" font-family="Times" font-weight="bold">
inferred - true
</text>
<path d="M116,385v 11" fill="none" stroke="black" stroke-width="3"/>
<path d="M146,391v 5" fill="none" stroke="black" stroke-width="3"/>
<path d="M175,391v 5" fill="none" stroke="black" stroke-width="3"/>
<path d="M205,391v 5" fill="none" stroke="black" stroke-width="3"/>
<path d="M234,391v 5" fill="none" stroke="black" stroke-width="3"/>
<path d="M264,385v 11" fill="none" stroke="black" stroke-width="3"/>
<path d="M293,391v 5" fill="none" stroke="black" stroke-width="3"/>
<path d="M323,391v 5" fill="none" stroke="black" stroke-width="3"/>
<path d="M352,391v 5" fill="none" stroke="black" stroke-width="3"/>
<path d="M382,391v 5" fill="none" stroke="black" stroke-width="3"/>
<path d="M411,385v 11" fill="none" stroke="black" stroke-width="3"/>
<path d="M116,385v 11" fill="none" stroke="black" stroke-width="3"/>
<path d="M87,391v 5" fill="none" stroke="black" stroke-width="3"/>
<path d="M411,385v 11" fill="none" stroke="black" stroke-width="3"/>
<path d="M441,391v 5" fill="none" stroke="black" stroke-width="3"/>
<path d="M470,391v 5" fill="none" stroke="black" stroke-width="3"/>
<path d="M499,391v 5" fill="none" stroke="black" stroke-width="3"/>
<text x="101" y="416" fill="black" font-size="21" font-family="Times" font-weight="bold">
-10
</text>
<text x="257" y="416" fill="black" font-size="21" font-family="Times" font-weight="bold">
0
</text>
<text x="399" y="416" fill="black" font-size="21" font-family="Times" font-weight="bold">
10
</text>
<path d="M79,37h 443" fill="none" stroke="black" stroke-width="3"/>
<path d="M116,48v -11" fill="none" stroke="black" stroke-width="3"/>
<path d="M146,43v -6" fill="none" stroke="black" stroke-width="3"/>
<path d="M175,43v -6" fill="none" stroke="black" stroke-width="3"/>
<path d="M205,43v -6" fill="none" stroke="black" stroke-width="3"/>
<path d="M234,43v -6" fill="none" stroke="black" stroke-width="3"/>
<path d="M264,48v -11" fill="none" stroke="black" stroke-width="3"/>
<path d="M293,43v -6" fill="none" stroke="black" stroke-width="3"/>
<path d="M323,43v -6" fill="none" stroke="black" stroke-width="3"/>
<path d="M352,43v -6" fill="none" stroke="black" stroke-width="3"/>
<path d="M382,43v -6" fill="none" stroke="black" stroke-width="3"/>
<path d="M411,48v -11" fill="none" stroke="black" stroke-width="3"/>
<path d="M116,48v -11" fill="none" stroke="black" stroke-width="3"/>
<path d="M87,43v -6" fill="none" stroke="black" stroke-width="3"/>
<path d="M411,48v -11" fill="none" stroke="black" stroke-width="3"/>
<path d="M441,43v -6" fill="none" stroke="black" stroke-width="3"/>
<path d="M470,43v -6" fill="none" stroke="black" stroke-width="3"/>
<path d="M499,43v -6" fill="none" stroke="black" stroke-width="3"/>
<path d="M79,396v -359" fill="none" stroke="black" stroke-width="3"/>
<path d="M92,396h -13" fill="none" stroke="black" stroke-width="3"/>
<path d="M86,380h -7" fill="none" stroke="black" stroke-width="3"/>
<path d="M86,364h -7" fill="none" stroke="black" stroke-width="3"/>
<path d="M86,349h -7" fill="none" stroke="black" stroke-width="3"/>
<path d="M86,333h -7" fill="none" stroke="black" stroke-width="3"/>
<path d="M92,317h -13" fill="none" stroke="black" stroke-width="3"/>
<path d="M86,301h -7" fill="none" stroke="black" stroke-width="3"/>
<path d="M86,285h -7" fill="none" stroke="black" stroke-width="3"/>
<path d="M86,269h -7" fill="none" stroke="black" stroke-width="3"/>
<path d="M86,254h -7" fill="none" stroke="black" stroke-width="3"/>
<path d="M92,238h -13" fill="none" stroke="black" stroke-width="3"/>
<path d="M86,222h -7" fill="none" stroke="black" stroke-width="3"/>
<path d="M86,206h -7" fill="none" stroke="black" stroke-width="3"/>
<path d="M86,190h -7" fill="none" stroke="black" stroke-width="3"/>
<path d="M86,174h -7" fill="none" stroke="black" stroke-width="3"/>
<path d="M92,159h -13" fill="none" stroke="black" stroke-width="3"/>
<path d="M86,143h -7" fill="none" stroke="black" stroke-width="3"/>
<path d="M86,127h -7" fill="none" stroke="black" stroke-width="3"/>
<path d="M86,111h -7" fill="none" stroke="black" stroke-width="3"/>
<path d="M86,95h -7" fill="none" stroke="black" stroke-width="3"/>
<path d="M92,79h -13" fill="none" stroke="black" stroke-width="3"/>
<path d="M92,79h -13" fill="none" stroke="black" stroke-width="3"/>
<path d="M86,64h -7" fill="none" stroke="black" stroke-width="3"/>
<path d="M86,48h -7" fill="none" stroke="black" stroke-width="3"/>
<text x="46" y="404" fill="black" font-size="21" font-family="Times" font-weight="bold">
0.0
</text>
<text x="46" y="325" fill="black" font-size="21" font-family="Times" font-weight="bold">
0.1
</text>
<text x="46" y="245" fill="black" font-size="21" font-family="Times" font-weight="bold">
0.2
</text>
<text x="46" y="166" fill="black" font-size="21" font-family="Times" font-weight="bold">
0.3
</text>
<text x="46" y="87" fill="black" font-size="21" font-family="Times" font-weight="bold">
0.4
</text>
<path d="M522,396v -359" fill="none" stroke="black" stroke-width="3"/>
<path d="M508,396h 14" fill="none" stroke="black" stroke-width="3"/>
<path d="M515,380h 7" fill="none" stroke="black" stroke-width="3"/>
<path d="M515,364h 7" fill="none" stroke="black" stroke-width="3"/>
<path d="M515,349h 7" fill="none" stroke="black" stroke-width="3"/>
<path d="M515,333h 7" fill="none" stroke="black" stroke-width="3"/>
<path d="M508,317h 14" fill="none" stroke="black" stroke-width="3"/>
<path d="M515,301h 7" fill="none" stroke="black" stroke-width="3"/>
<path d="M515,285h 7" fill="none" stroke="black" stroke-width="3"/>
<path d="M515,269h 7" fill="none" stroke="black" stroke-width="3"/>
<path d="M515,254h 7" fill="none" stroke="black" stroke-width="3"/>
<path d="M508,238h 14" fill="none" stroke="black" stroke-width="3"/>
<path d="M515,222h 7" fill="none" stroke="black" stroke-width="3"/>
<path d="M515,206h 7" fill="none" stroke="black" stroke-width="3"/>
<path d="M515,190h 7" fill="none" stroke="black" stroke-width="3"/>
<path d="M515,174h 7" fill="none" stroke="black" stroke-width="3"/>
<path d="M508,159h 14" fill="none" stroke="black" stroke-width="3"/>
<path d="M515,143h 7" fill="none" stroke="black" stroke-width="3"/>
<path d="M515,127h 7" fill="none" stroke="black" stroke-width="3"/>
<path d="M515,111h 7" fill="none" stroke="black" stroke-width="3"/>
<path d="M515,95h 7" fill="none" stroke="black" stroke-width="3"/>
<path d="M508,79h 14" fill="none" stroke="black" stroke-width="3"/>
<path d="M508,79h 14" fill="none" stroke="black" stroke-width="3"/>
<path d="M515,64h 7" fill="none" stroke="black" stroke-width="3"/>
<path d="M515,48h 7" fill="none" stroke="black" stroke-width="3"/>
<rect x="113" y="-4" width="149" height="40" fill="white"/>
<text x="118" y="25" fill="black" font-size="31" font-family="Helvetica" font-weight="bold">
d_3p_del
</text>
<path d="M80,395v -7h 14v 4h 44v 3h 30v -20h 15v -21h 14v -8h 15v 29h 15v -29h 15v -38h 14v -211h 15v 257h 15v 4h 14v 25h 15v -46h 15v 38h 15v 17h 29v 3h 59v -3h 15v 3h 15v -7h 14v 7h 30v -3h 15" fill="none" stroke="#ff0000" stroke-width="6"/>
<path d="M332,107h 42" fill="none" stroke="#ff0000" stroke-width="6"/>
<rect x="113" y="-4" width="149" height="40" fill="white"/>
<text x="118" y="25" fill="black" font-size="31" font-family="Helvetica" font-weight="bold">
d_3p_del
</text></svg>
