<?xml version="1.0" standalone="no"?>
<svg width="567" height="466" viewBox="0 0 567 466" xmlns="http://www.w3.org/2000/svg">
<title>
/bbx/output/_plots/example/hmm/performance/plots/d_gene.svg
</title>
<desc>
Creator: ROOT Version 5.34/14
CreationDate: Wed Aug 19 19:38:58 2015</desc>
<defs>
</defs>
<rect x="0" y="0" width="567" height="466" fill="white"/>
<rect x="79" y="37" width="443" height="359" fill="none" stroke="black"/>
<rect x="79" y="37" width="443" height="359" fill="none" stroke="black"/>
<path d="M79,396h 443" fill="none" stroke="black" stroke-width="3"/>
<text x="159" y="421" fill="black" font-size="28" font-family="Times" font-weight="bold">
right
</text>
<text x="371" y="415" fill="black" font-size="28" font-family="Times" font-weight="bold">
wrong
</text>
<path d="M190,385v 11" fill="none" stroke="black" stroke-width="3"/>
<path d="M411,385v 11" fill="none" stroke="black" stroke-width="3"/>
<path d="M190,385v 11" fill="none" stroke="black" stroke-width="3"/>
<path d="M411,385v 11" fill="none" stroke="black" stroke-width="3"/>
<path d="M79,37h 443" fill="none" stroke="black" stroke-width="3"/>
<path d="M190,48v -11" fill="none" stroke="black" stroke-width="3"/>
<path d="M411,48v -11" fill="none" stroke="black" stroke-width="3"/>
<path d="M190,48v -11" fill="none" stroke="black" stroke-width="3"/>
<path d="M411,48v -11" fill="none" stroke="black" stroke-width="3"/>
<path d="M79,396v -359" fill="none" stroke="black" stroke-width="3"/>
<path d="M92,396h -13" fill="none" stroke="black" stroke-width="3"/>
<path d="M86,376h -7" fill="none" stroke="black" stroke-width="3"/>
<path d="M86,355h -7" fill="none" stroke="black" stroke-width="3"/>
<path d="M86,335h -7" fill="none" stroke="black" stroke-width="3"/>
<path d="M92,314h -13" fill="none" stroke="black" stroke-width="3"/>
<path d="M86,294h -7" fill="none" stroke="black" stroke-width="3"/>
<path d="M86,273h -7" fill="none" stroke="black" stroke-width="3"/>
<path d="M86,253h -7" fill="none" stroke="black" stroke-width="3"/>
<path d="M92,232h -13" fill="none" stroke="black" stroke-width="3"/>
<path d="M86,211h -7" fill="none" stroke="black" stroke-width="3"/>
<path d="M86,191h -7" fill="none" stroke="black" stroke-width="3"/>
<path d="M86,170h -7" fill="none" stroke="black" stroke-width="3"/>
<path d="M92,150h -13" fill="none" stroke="black" stroke-width="3"/>
<path d="M86,129h -7" fill="none" stroke="black" stroke-width="3"/>
<path d="M86,109h -7" fill="none" stroke="black" stroke-width="3"/>
<path d="M86,88h -7" fill="none" stroke="black" stroke-width="3"/>
<path d="M92,68h -13" fill="none" stroke="black" stroke-width="3"/>
<path d="M92,68h -13" fill="none" stroke="black" stroke-width="3"/>
<path d="M86,47h -7" fill="none" stroke="black" stroke-width="3"/>
<text x="46" y="404" fill="black" font-size="21" font-family="Times" font-weight="bold">
0.0
</text>
<text x="46" y="322" fill="black" font-size="21" font-family="Times" font-weight="bold">
0.2
</text>
<text x="46" y="240" fill="black" font-size="21" font-family="Times" font-weight="bold">
0.4
</text>
<text x="46" y="158" fill="black" font-size="21" font-family="Times" font-weight="bold">
0.6
</text>
<text x="46" y="76" fill="black" font-size="21" font-family="Times" font-weight="bold">
0.8
</text>
<path d="M522,396v -359" fill="none" stroke="black" stroke-width="3"/>
<path d="M508,396h 14" fill="none" stroke="black" stroke-width="3"/>
<path d="M515,376h 7" fill="none" stroke="black" stroke-width="3"/>
<path d="M515,355h 7" fill="none" stroke="black" stroke-width="3"/>
<path d="M515,335h 7" fill="none" stroke="black" stroke-width="3"/>
<path d="M508,314h 14" fill="none" stroke="black" stroke-width="3"/>
<path d="M515,294h 7" fill="none" stroke="black" stroke-width="3"/>
<path d="M515,273h 7" fill="none" stroke="black" stroke-width="3"/>
<path d="M515,253h 7" fill="none" stroke="black" stroke-width="3"/>
<path d="M508,232h 14" fill="none" stroke="black" stroke-width="3"/>
<path d="M515,211h 7" fill="none" stroke="black" stroke-width="3"/>
<path d="M515,191h 7" fill="none" stroke="black" stroke-width="3"/>
<path d="M515,170h 7" fill="none" stroke="black" stroke-width="3"/>
<path d="M508,150h 14" fill="none" stroke="black" stroke-width="3"/>
<path d="M515,129h 7" fill="none" stroke="black" stroke-width="3"/>
<path d="M515,109h 7" fill="none" stroke="black" stroke-width="3"/>
<path d="M515,88h 7" fill="none" stroke="black" stroke-width="3"/>
<path d="M508,68h 14" fill="none" stroke="black" stroke-width="3"/>
<path d="M508,68h 14" fill="none" stroke="black" stroke-width="3"/>
<path d="M515,47h 7" fill="none" stroke="black" stroke-width="3"/>
<rect x="113" y="-4" width="118" height="39" fill="white"/>
<text x="118" y="23" fill="black" font-size="30" font-family="Helvetica" font-weight="bold">
d_gene
</text>
<path d="M80,395v -298h 220v 188h 222" fill="none" stroke="#ff0000" stroke-width="6"/>
<path d="M332,107h 42" fill="none" stroke="#ff0000" stroke-width="6"/>
<rect x="113" y="-4" width="118" height="39" fill="white"/>
<text x="118" y="23" fill="black" font-size="30" font-family="Helvetica" font-weight="bold">
d_gene
</text></svg>
