<?xml version="1.0" standalone="no"?>
<svg width="567" height="466" viewBox="0 0 567 466" xmlns="http://www.w3.org/2000/svg">
<title>
/bbx/output/_plots/example/hmm/performance/plots/hamming_to_true_naive.svg
</title>
<desc>
Creator: ROOT Version 5.34/14
CreationDate: Wed Aug 19 19:38:58 2015</desc>
<defs>
</defs>
<rect x="0" y="0" width="567" height="466" fill="white"/>
<rect x="79" y="37" width="443" height="359" fill="none" stroke="black"/>
<rect x="79" y="37" width="443" height="359" fill="none" stroke="black"/>
<path d="M79,396h 443" fill="none" stroke="black" stroke-width="3"/>
<text x="268" y="446" fill="black" font-size="32" font-family="Times" font-weight="bold">
hamming distance
</text>
<path d="M83,385v 11" fill="none" stroke="black" stroke-width="3"/>
<path d="M114,391v 5" fill="none" stroke="black" stroke-width="3"/>
<path d="M146,391v 5" fill="none" stroke="black" stroke-width="3"/>
<path d="M177,391v 5" fill="none" stroke="black" stroke-width="3"/>
<path d="M209,385v 11" fill="none" stroke="black" stroke-width="3"/>
<path d="M240,391v 5" fill="none" stroke="black" stroke-width="3"/>
<path d="M272,391v 5" fill="none" stroke="black" stroke-width="3"/>
<path d="M304,391v 5" fill="none" stroke="black" stroke-width="3"/>
<path d="M335,385v 11" fill="none" stroke="black" stroke-width="3"/>
<path d="M367,391v 5" fill="none" stroke="black" stroke-width="3"/>
<path d="M398,391v 5" fill="none" stroke="black" stroke-width="3"/>
<path d="M430,391v 5" fill="none" stroke="black" stroke-width="3"/>
<path d="M462,385v 11" fill="none" stroke="black" stroke-width="3"/>
<path d="M83,385v 11" fill="none" stroke="black" stroke-width="3"/>
<path d="M462,385v 11" fill="none" stroke="black" stroke-width="3"/>
<path d="M493,391v 5" fill="none" stroke="black" stroke-width="3"/>
<text x="77" y="416" fill="black" font-size="21" font-family="Times" font-weight="bold">
0
</text>
<text x="197" y="416" fill="black" font-size="21" font-family="Times" font-weight="bold">
20
</text>
<text x="323" y="416" fill="black" font-size="21" font-family="Times" font-weight="bold">
40
</text>
<text x="450" y="416" fill="black" font-size="21" font-family="Times" font-weight="bold">
60
</text>
<path d="M79,37h 443" fill="none" stroke="black" stroke-width="3"/>
<path d="M83,48v -11" fill="none" stroke="black" stroke-width="3"/>
<path d="M114,43v -6" fill="none" stroke="black" stroke-width="3"/>
<path d="M146,43v -6" fill="none" stroke="black" stroke-width="3"/>
<path d="M177,43v -6" fill="none" stroke="black" stroke-width="3"/>
<path d="M209,48v -11" fill="none" stroke="black" stroke-width="3"/>
<path d="M240,43v -6" fill="none" stroke="black" stroke-width="3"/>
<path d="M272,43v -6" fill="none" stroke="black" stroke-width="3"/>
<path d="M304,43v -6" fill="none" stroke="black" stroke-width="3"/>
<path d="M335,48v -11" fill="none" stroke="black" stroke-width="3"/>
<path d="M367,43v -6" fill="none" stroke="black" stroke-width="3"/>
<path d="M398,43v -6" fill="none" stroke="black" stroke-width="3"/>
<path d="M430,43v -6" fill="none" stroke="black" stroke-width="3"/>
<path d="M462,48v -11" fill="none" stroke="black" stroke-width="3"/>
<path d="M83,48v -11" fill="none" stroke="black" stroke-width="3"/>
<path d="M462,48v -11" fill="none" stroke="black" stroke-width="3"/>
<path d="M493,43v -6" fill="none" stroke="black" stroke-width="3"/>
<path d="M79,396v -359" fill="none" stroke="black" stroke-width="3"/>
<path d="M92,396h -13" fill="none" stroke="black" stroke-width="3"/>
<path d="M86,379h -7" fill="none" stroke="black" stroke-width="3"/>
<path d="M86,362h -7" fill="none" stroke="black" stroke-width="3"/>
<path d="M86,345h -7" fill="none" stroke="black" stroke-width="3"/>
<path d="M86,328h -7" fill="none" stroke="black" stroke-width="3"/>
<path d="M92,311h -13" fill="none" stroke="black" stroke-width="3"/>
<path d="M86,294h -7" fill="none" stroke="black" stroke-width="3"/>
<path d="M86,277h -7" fill="none" stroke="black" stroke-width="3"/>
<path d="M86,260h -7" fill="none" stroke="black" stroke-width="3"/>
<path d="M86,243h -7" fill="none" stroke="black" stroke-width="3"/>
<path d="M92,226h -13" fill="none" stroke="black" stroke-width="3"/>
<path d="M86,209h -7" fill="none" stroke="black" stroke-width="3"/>
<path d="M86,192h -7" fill="none" stroke="black" stroke-width="3"/>
<path d="M86,175h -7" fill="none" stroke="black" stroke-width="3"/>
<path d="M86,158h -7" fill="none" stroke="black" stroke-width="3"/>
<path d="M92,141h -13" fill="none" stroke="black" stroke-width="3"/>
<path d="M86,124h -7" fill="none" stroke="black" stroke-width="3"/>
<path d="M86,107h -7" fill="none" stroke="black" stroke-width="3"/>
<path d="M86,90h -7" fill="none" stroke="black" stroke-width="3"/>
<path d="M86,73h -7" fill="none" stroke="black" stroke-width="3"/>
<path d="M92,55h -13" fill="none" stroke="black" stroke-width="3"/>
<path d="M92,55h -13" fill="none" stroke="black" stroke-width="3"/>
<path d="M86,38h -7" fill="none" stroke="black" stroke-width="3"/>
<text x="35" y="404" fill="black" font-size="21" font-family="Times" font-weight="bold">
0.00
</text>
<text x="35" y="319" fill="black" font-size="21" font-family="Times" font-weight="bold">
0.05
</text>
<text x="35" y="234" fill="black" font-size="21" font-family="Times" font-weight="bold">
0.10
</text>
<text x="35" y="148" fill="black" font-size="21" font-family="Times" font-weight="bold">
0.15
</text>
<text x="35" y="64" fill="black" font-size="21" font-family="Times" font-weight="bold">
0.20
</text>
<path d="M522,396v -359" fill="none" stroke="black" stroke-width="3"/>
<path d="M508,396h 14" fill="none" stroke="black" stroke-width="3"/>
<path d="M515,379h 7" fill="none" stroke="black" stroke-width="3"/>
<path d="M515,362h 7" fill="none" stroke="black" stroke-width="3"/>
<path d="M515,345h 7" fill="none" stroke="black" stroke-width="3"/>
<path d="M515,328h 7" fill="none" stroke="black" stroke-width="3"/>
<path d="M508,311h 14" fill="none" stroke="black" stroke-width="3"/>
<path d="M515,294h 7" fill="none" stroke="black" stroke-width="3"/>
<path d="M515,277h 7" fill="none" stroke="black" stroke-width="3"/>
<path d="M515,260h 7" fill="none" stroke="black" stroke-width="3"/>
<path d="M515,243h 7" fill="none" stroke="black" stroke-width="3"/>
<path d="M508,226h 14" fill="none" stroke="black" stroke-width="3"/>
<path d="M515,209h 7" fill="none" stroke="black" stroke-width="3"/>
<path d="M515,192h 7" fill="none" stroke="black" stroke-width="3"/>
<path d="M515,175h 7" fill="none" stroke="black" stroke-width="3"/>
<path d="M515,158h 7" fill="none" stroke="black" stroke-width="3"/>
<path d="M508,141h 14" fill="none" stroke="black" stroke-width="3"/>
<path d="M515,124h 7" fill="none" stroke="black" stroke-width="3"/>
<path d="M515,107h 7" fill="none" stroke="black" stroke-width="3"/>
<path d="M515,90h 7" fill="none" stroke="black" stroke-width="3"/>
<path d="M515,73h 7" fill="none" stroke="black" stroke-width="3"/>
<path d="M508,55h 14" fill="none" stroke="black" stroke-width="3"/>
<path d="M508,55h 14" fill="none" stroke="black" stroke-width="3"/>
<path d="M515,38h 7" fill="none" stroke="black" stroke-width="3"/>
<rect x="113" y="-4" width="383" height="40" fill="white"/>
<text x="130" y="24" fill="black" font-size="30" font-family="Helvetica" font-weight="bold">
hamming_to_true_naive
</text>
<path d="M80,395v -225h 6v 18h 6v -73h 6v -18h 7v 82h 6v 127h 6v 36h 7v -18h 6v -37h 6v 73h 7v 18h 12v 17h 6v -8h 26v 8h 202v -8h 19v 8h 107v -8h 7" fill="none" stroke="#ff0000" stroke-width="6"/>
<path d="M332,107h 42" fill="none" stroke="#ff0000" stroke-width="6"/>
<rect x="113" y="-4" width="383" height="40" fill="white"/>
<text x="130" y="24" fill="black" font-size="30" font-family="Helvetica" font-weight="bold">
hamming_to_true_naive
</text></svg>
