<?xml version="1.0" standalone="no"?>
<svg width="567" height="466" viewBox="0 0 567 466" xmlns="http://www.w3.org/2000/svg">
<title>
/bbx/output/_plots/example/hmm/performance/plots/j_hamming_to_true_naive.svg
</title>
<desc>
Creator: ROOT Version 5.34/14
CreationDate: Wed Aug 19 19:38:58 2015</desc>
<defs>
</defs>
<rect x="0" y="0" width="567" height="466" fill="white"/>
<rect x="79" y="37" width="443" height="359" fill="none" stroke="black"/>
<rect x="79" y="37" width="443" height="359" fill="none" stroke="black"/>
<path d="M79,396h 443" fill="none" stroke="black" stroke-width="3"/>
<text x="268" y="446" fill="black" font-size="32" font-family="Times" font-weight="bold">
hamming distance
</text>
<path d="M104,385v 11" fill="none" stroke="black" stroke-width="3"/>
<path d="M129,391v 5" fill="none" stroke="black" stroke-width="3"/>
<path d="M153,391v 5" fill="none" stroke="black" stroke-width="3"/>
<path d="M178,391v 5" fill="none" stroke="black" stroke-width="3"/>
<path d="M202,385v 11" fill="none" stroke="black" stroke-width="3"/>
<path d="M227,391v 5" fill="none" stroke="black" stroke-width="3"/>
<path d="M251,391v 5" fill="none" stroke="black" stroke-width="3"/>
<path d="M276,391v 5" fill="none" stroke="black" stroke-width="3"/>
<path d="M300,385v 11" fill="none" stroke="black" stroke-width="3"/>
<path d="M325,391v 5" fill="none" stroke="black" stroke-width="3"/>
<path d="M350,391v 5" fill="none" stroke="black" stroke-width="3"/>
<path d="M374,391v 5" fill="none" stroke="black" stroke-width="3"/>
<path d="M399,385v 11" fill="none" stroke="black" stroke-width="3"/>
<path d="M423,391v 5" fill="none" stroke="black" stroke-width="3"/>
<path d="M448,391v 5" fill="none" stroke="black" stroke-width="3"/>
<path d="M472,391v 5" fill="none" stroke="black" stroke-width="3"/>
<path d="M497,385v 11" fill="none" stroke="black" stroke-width="3"/>
<path d="M104,385v 11" fill="none" stroke="black" stroke-width="3"/>
<path d="M497,385v 11" fill="none" stroke="black" stroke-width="3"/>
<path d="M522,391v 5" fill="none" stroke="black" stroke-width="3"/>
<text x="98" y="416" fill="black" font-size="21" font-family="Times" font-weight="bold">
0
</text>
<text x="196" y="416" fill="black" font-size="21" font-family="Times" font-weight="bold">
2
</text>
<text x="294" y="416" fill="black" font-size="21" font-family="Times" font-weight="bold">
4
</text>
<text x="393" y="416" fill="black" font-size="21" font-family="Times" font-weight="bold">
6
</text>
<text x="491" y="416" fill="black" font-size="21" font-family="Times" font-weight="bold">
8
</text>
<path d="M79,37h 443" fill="none" stroke="black" stroke-width="3"/>
<path d="M104,48v -11" fill="none" stroke="black" stroke-width="3"/>
<path d="M129,43v -6" fill="none" stroke="black" stroke-width="3"/>
<path d="M153,43v -6" fill="none" stroke="black" stroke-width="3"/>
<path d="M178,43v -6" fill="none" stroke="black" stroke-width="3"/>
<path d="M202,48v -11" fill="none" stroke="black" stroke-width="3"/>
<path d="M227,43v -6" fill="none" stroke="black" stroke-width="3"/>
<path d="M251,43v -6" fill="none" stroke="black" stroke-width="3"/>
<path d="M276,43v -6" fill="none" stroke="black" stroke-width="3"/>
<path d="M300,48v -11" fill="none" stroke="black" stroke-width="3"/>
<path d="M325,43v -6" fill="none" stroke="black" stroke-width="3"/>
<path d="M350,43v -6" fill="none" stroke="black" stroke-width="3"/>
<path d="M374,43v -6" fill="none" stroke="black" stroke-width="3"/>
<path d="M399,48v -11" fill="none" stroke="black" stroke-width="3"/>
<path d="M423,43v -6" fill="none" stroke="black" stroke-width="3"/>
<path d="M448,43v -6" fill="none" stroke="black" stroke-width="3"/>
<path d="M472,43v -6" fill="none" stroke="black" stroke-width="3"/>
<path d="M497,48v -11" fill="none" stroke="black" stroke-width="3"/>
<path d="M104,48v -11" fill="none" stroke="black" stroke-width="3"/>
<path d="M497,48v -11" fill="none" stroke="black" stroke-width="3"/>
<path d="M522,43v -6" fill="none" stroke="black" stroke-width="3"/>
<path d="M79,396v -359" fill="none" stroke="black" stroke-width="3"/>
<path d="M92,396h -13" fill="none" stroke="black" stroke-width="3"/>
<path d="M86,378h -7" fill="none" stroke="black" stroke-width="3"/>
<path d="M86,359h -7" fill="none" stroke="black" stroke-width="3"/>
<path d="M86,341h -7" fill="none" stroke="black" stroke-width="3"/>
<path d="M92,323h -13" fill="none" stroke="black" stroke-width="3"/>
<path d="M86,304h -7" fill="none" stroke="black" stroke-width="3"/>
<path d="M86,286h -7" fill="none" stroke="black" stroke-width="3"/>
<path d="M86,268h -7" fill="none" stroke="black" stroke-width="3"/>
<path d="M92,249h -13" fill="none" stroke="black" stroke-width="3"/>
<path d="M86,231h -7" fill="none" stroke="black" stroke-width="3"/>
<path d="M86,212h -7" fill="none" stroke="black" stroke-width="3"/>
<path d="M86,194h -7" fill="none" stroke="black" stroke-width="3"/>
<path d="M92,176h -13" fill="none" stroke="black" stroke-width="3"/>
<path d="M86,157h -7" fill="none" stroke="black" stroke-width="3"/>
<path d="M86,139h -7" fill="none" stroke="black" stroke-width="3"/>
<path d="M86,121h -7" fill="none" stroke="black" stroke-width="3"/>
<path d="M92,102h -13" fill="none" stroke="black" stroke-width="3"/>
<path d="M92,102h -13" fill="none" stroke="black" stroke-width="3"/>
<path d="M86,84h -7" fill="none" stroke="black" stroke-width="3"/>
<path d="M86,65h -7" fill="none" stroke="black" stroke-width="3"/>
<path d="M86,47h -7" fill="none" stroke="black" stroke-width="3"/>
<text x="46" y="404" fill="black" font-size="21" font-family="Times" font-weight="bold">
0.0
</text>
<text x="46" y="331" fill="black" font-size="21" font-family="Times" font-weight="bold">
0.2
</text>
<text x="46" y="257" fill="black" font-size="21" font-family="Times" font-weight="bold">
0.4
</text>
<text x="46" y="183" fill="black" font-size="21" font-family="Times" font-weight="bold">
0.6
</text>
<text x="46" y="110" fill="black" font-size="21" font-family="Times" font-weight="bold">
0.8
</text>
<path d="M522,396v -359" fill="none" stroke="black" stroke-width="3"/>
<path d="M508,396h 14" fill="none" stroke="black" stroke-width="3"/>
<path d="M515,378h 7" fill="none" stroke="black" stroke-width="3"/>
<path d="M515,359h 7" fill="none" stroke="black" stroke-width="3"/>
<path d="M515,341h 7" fill="none" stroke="black" stroke-width="3"/>
<path d="M508,323h 14" fill="none" stroke="black" stroke-width="3"/>
<path d="M515,304h 7" fill="none" stroke="black" stroke-width="3"/>
<path d="M515,286h 7" fill="none" stroke="black" stroke-width="3"/>
<path d="M515,268h 7" fill="none" stroke="black" stroke-width="3"/>
<path d="M508,249h 14" fill="none" stroke="black" stroke-width="3"/>
<path d="M515,231h 7" fill="none" stroke="black" stroke-width="3"/>
<path d="M515,212h 7" fill="none" stroke="black" stroke-width="3"/>
<path d="M515,194h 7" fill="none" stroke="black" stroke-width="3"/>
<path d="M508,176h 14" fill="none" stroke="black" stroke-width="3"/>
<path d="M515,157h 7" fill="none" stroke="black" stroke-width="3"/>
<path d="M515,139h 7" fill="none" stroke="black" stroke-width="3"/>
<path d="M515,121h 7" fill="none" stroke="black" stroke-width="3"/>
<path d="M508,102h 14" fill="none" stroke="black" stroke-width="3"/>
<path d="M508,102h 14" fill="none" stroke="black" stroke-width="3"/>
<path d="M515,84h 7" fill="none" stroke="black" stroke-width="3"/>
<path d="M515,65h 7" fill="none" stroke="black" stroke-width="3"/>
<path d="M515,47h 7" fill="none" stroke="black" stroke-width="3"/>
<rect x="113" y="-4" width="397" height="40" fill="white"/>
<text x="130" y="24" fill="black" font-size="29" font-family="Helvetica" font-weight="bold">
j_hamming_to_true_naive
</text>
<path d="M80,395v -298h 49v 280h 49v -10h 49v 23h 49v 4h 98v -4h 49v 4h 99" fill="none" stroke="#ff0000" stroke-width="6"/>
<path d="M332,107h 42" fill="none" stroke="#ff0000" stroke-width="6"/>
<rect x="113" y="-4" width="397" height="40" fill="white"/>
<text x="130" y="24" fill="black" font-size="29" font-family="Helvetica" font-weight="bold">
j_hamming_to_true_naive
</text></svg>
