<?xml version="1.0" standalone="no"?>
<svg width="567" height="466" viewBox="0 0 567 466" xmlns="http://www.w3.org/2000/svg">
<title>
/bbx/output/_plots/example/hmm/performance/plots/v_gene.svg
</title>
<desc>
Creator: ROOT Version 5.34/14
CreationDate: Wed Aug 19 19:38:58 2015</desc>
<defs>
</defs>
<rect x="0" y="0" width="567" height="466" fill="white"/>
<rect x="79" y="37" width="443" height="359" fill="none" stroke="black"/>
<rect x="79" y="37" width="443" height="359" fill="none" stroke="black"/>
<path d="M79,396h 443" fill="none" stroke="black" stroke-width="3"/>
<text x="159" y="421" fill="black" font-size="28" font-family="Times" font-weight="bold">
right
</text>
<text x="371" y="415" fill="black" font-size="28" font-family="Times" font-weight="bold">
wrong
</text>
<path d="M190,385v 11" fill="none" stroke="black" stroke-width="3"/>
<path d="M411,385v 11" fill="none" stroke="black" stroke-width="3"/>
<path d="M190,385v 11" fill="none" stroke="black" stroke-width="3"/>
<path d="M411,385v 11" fill="none" stroke="black" stroke-width="3"/>
<path d="M79,37h 443" fill="none" stroke="black" stroke-width="3"/>
<path d="M190,48v -11" fill="none" stroke="black" stroke-width="3"/>
<path d="M411,48v -11" fill="none" stroke="black" stroke-width="3"/>
<path d="M190,48v -11" fill="none" stroke="black" stroke-width="3"/>
<path d="M411,48v -11" fill="none" stroke="black" stroke-width="3"/>
<path d="M79,396v -359" fill="none" stroke="black" stroke-width="3"/>
<path d="M92,396h -13" fill="none" stroke="black" stroke-width="3"/>
<path d="M86,362h -7" fill="none" stroke="black" stroke-width="3"/>
<path d="M86,329h -7" fill="none" stroke="black" stroke-width="3"/>
<path d="M86,295h -7" fill="none" stroke="black" stroke-width="3"/>
<path d="M86,261h -7" fill="none" stroke="black" stroke-width="3"/>
<path d="M92,228h -13" fill="none" stroke="black" stroke-width="3"/>
<path d="M86,194h -7" fill="none" stroke="black" stroke-width="3"/>
<path d="M86,161h -7" fill="none" stroke="black" stroke-width="3"/>
<path d="M86,127h -7" fill="none" stroke="black" stroke-width="3"/>
<path d="M86,93h -7" fill="none" stroke="black" stroke-width="3"/>
<path d="M92,60h -13" fill="none" stroke="black" stroke-width="3"/>
<path d="M92,60h -13" fill="none" stroke="black" stroke-width="3"/>
<text x="46" y="404" fill="black" font-size="21" font-family="Times" font-weight="bold">
0.0
</text>
<text x="46" y="235" fill="black" font-size="21" font-family="Times" font-weight="bold">
0.5
</text>
<text x="46" y="68" fill="black" font-size="21" font-family="Times" font-weight="bold">
1.0
</text>
<path d="M522,396v -359" fill="none" stroke="black" stroke-width="3"/>
<path d="M508,396h 14" fill="none" stroke="black" stroke-width="3"/>
<path d="M515,362h 7" fill="none" stroke="black" stroke-width="3"/>
<path d="M515,329h 7" fill="none" stroke="black" stroke-width="3"/>
<path d="M515,295h 7" fill="none" stroke="black" stroke-width="3"/>
<path d="M515,261h 7" fill="none" stroke="black" stroke-width="3"/>
<path d="M508,228h 14" fill="none" stroke="black" stroke-width="3"/>
<path d="M515,194h 7" fill="none" stroke="black" stroke-width="3"/>
<path d="M515,161h 7" fill="none" stroke="black" stroke-width="3"/>
<path d="M515,127h 7" fill="none" stroke="black" stroke-width="3"/>
<path d="M515,93h 7" fill="none" stroke="black" stroke-width="3"/>
<path d="M508,60h 14" fill="none" stroke="black" stroke-width="3"/>
<path d="M508,60h 14" fill="none" stroke="black" stroke-width="3"/>
<rect x="113" y="-4" width="115" height="38" fill="white"/>
<text x="118" y="20" fill="black" font-size="30" font-family="Helvetica" font-weight="bold">
v_gene
</text>
<path d="M80,395v -298h 220v 262h 222" fill="none" stroke="#ff0000" stroke-width="6"/>
<path d="M332,107h 42" fill="none" stroke="#ff0000" stroke-width="6"/>
<rect x="113" y="-4" width="115" height="38" fill="white"/>
<text x="118" y="20" fill="black" font-size="30" font-family="Helvetica" font-weight="bold">
v_gene
</text></svg>
