<?xml version="1.0" standalone="no"?>
<svg width="567" height="466" viewBox="0 0 567 466" xmlns="http://www.w3.org/2000/svg">
<title>
/bbx/output/_plots/example/hmm/true/plots/d_gene.svg
</title>
<desc>
Creator: ROOT Version 5.34/14
CreationDate: Thu Jul 30 17:06:16 2015</desc>
<defs>
</defs>
<rect x="0" y="0" width="567" height="466" fill="white"/>
<rect x="79" y="37" width="443" height="359" fill="none" stroke="black"/>
<rect x="79" y="37" width="443" height="359" fill="none" stroke="black"/>
<path d="M79,396h 443" fill="none" stroke="black" stroke-width="3"/>
<g transform="rotate(20,108,406)">
<text x="108" y="406" fill="black" font-size="14" font-family="Times" font-weight="bold">
IGHD2-15*01
</text>
</g>
<g transform="rotate(20,171,406)">
<text x="171" y="406" fill="black" font-size="14" font-family="Times" font-weight="bold">
IGHD2/OR15-2b*01
</text>
</g>
<g transform="rotate(20,235,406)">
<text x="235" y="406" fill="black" font-size="14" font-family="Times" font-weight="bold">
IGHD3-10*01
</text>
</g>
<g transform="rotate(20,297,406)">
<text x="297" y="406" fill="black" font-size="14" font-family="Times" font-weight="bold">
IGHD3-22*01
</text>
</g>
<g transform="rotate(20,361,406)">
<text x="361" y="406" fill="black" font-size="14" font-family="Times" font-weight="bold">
IGHD3-3*02
</text>
</g>
<g transform="rotate(20,424,406)">
<text x="424" y="406" fill="black" font-size="14" font-family="Times" font-weight="bold">
IGHD4-17*01
</text>
</g>
<g transform="rotate(20,487,406)">
<text x="487" y="406" fill="black" font-size="14" font-family="Times" font-weight="bold">
IGHD6-13*01
</text>
</g>
<path d="M111,385v 11" fill="none" stroke="black" stroke-width="3"/>
<path d="M174,385v 11" fill="none" stroke="black" stroke-width="3"/>
<path d="M237,385v 11" fill="none" stroke="black" stroke-width="3"/>
<path d="M300,385v 11" fill="none" stroke="black" stroke-width="3"/>
<path d="M364,385v 11" fill="none" stroke="black" stroke-width="3"/>
<path d="M427,385v 11" fill="none" stroke="black" stroke-width="3"/>
<path d="M490,385v 11" fill="none" stroke="black" stroke-width="3"/>
<path d="M111,385v 11" fill="none" stroke="black" stroke-width="3"/>
<path d="M490,385v 11" fill="none" stroke="black" stroke-width="3"/>
<path d="M79,37h 443" fill="none" stroke="black" stroke-width="3"/>
<path d="M111,48v -11" fill="none" stroke="black" stroke-width="3"/>
<path d="M174,48v -11" fill="none" stroke="black" stroke-width="3"/>
<path d="M237,48v -11" fill="none" stroke="black" stroke-width="3"/>
<path d="M300,48v -11" fill="none" stroke="black" stroke-width="3"/>
<path d="M364,48v -11" fill="none" stroke="black" stroke-width="3"/>
<path d="M427,48v -11" fill="none" stroke="black" stroke-width="3"/>
<path d="M490,48v -11" fill="none" stroke="black" stroke-width="3"/>
<path d="M111,48v -11" fill="none" stroke="black" stroke-width="3"/>
<path d="M490,48v -11" fill="none" stroke="black" stroke-width="3"/>
<path d="M79,396v -359" fill="none" stroke="black" stroke-width="3"/>
<path d="M92,396h -13" fill="none" stroke="black" stroke-width="3"/>
<path d="M86,371h -7" fill="none" stroke="black" stroke-width="3"/>
<path d="M86,346h -7" fill="none" stroke="black" stroke-width="3"/>
<path d="M86,321h -7" fill="none" stroke="black" stroke-width="3"/>
<path d="M86,296h -7" fill="none" stroke="black" stroke-width="3"/>
<path d="M92,272h -13" fill="none" stroke="black" stroke-width="3"/>
<path d="M86,247h -7" fill="none" stroke="black" stroke-width="3"/>
<path d="M86,222h -7" fill="none" stroke="black" stroke-width="3"/>
<path d="M86,197h -7" fill="none" stroke="black" stroke-width="3"/>
<path d="M86,172h -7" fill="none" stroke="black" stroke-width="3"/>
<path d="M92,147h -13" fill="none" stroke="black" stroke-width="3"/>
<path d="M92,147h -13" fill="none" stroke="black" stroke-width="3"/>
<path d="M86,122h -7" fill="none" stroke="black" stroke-width="3"/>
<path d="M86,97h -7" fill="none" stroke="black" stroke-width="3"/>
<path d="M86,72h -7" fill="none" stroke="black" stroke-width="3"/>
<path d="M86,47h -7" fill="none" stroke="black" stroke-width="3"/>
<text x="63" y="404" fill="black" font-size="21" font-family="Times" font-weight="bold">
0
</text>
<text x="51" y="279" fill="black" font-size="21" font-family="Times" font-weight="bold">
10
</text>
<text x="51" y="155" fill="black" font-size="21" font-family="Times" font-weight="bold">
20
</text>
<path d="M522,396v -359" fill="none" stroke="black" stroke-width="3"/>
<path d="M508,396h 14" fill="none" stroke="black" stroke-width="3"/>
<path d="M515,371h 7" fill="none" stroke="black" stroke-width="3"/>
<path d="M515,346h 7" fill="none" stroke="black" stroke-width="3"/>
<path d="M515,321h 7" fill="none" stroke="black" stroke-width="3"/>
<path d="M515,296h 7" fill="none" stroke="black" stroke-width="3"/>
<path d="M508,272h 14" fill="none" stroke="black" stroke-width="3"/>
<path d="M515,247h 7" fill="none" stroke="black" stroke-width="3"/>
<path d="M515,222h 7" fill="none" stroke="black" stroke-width="3"/>
<path d="M515,197h 7" fill="none" stroke="black" stroke-width="3"/>
<path d="M515,172h 7" fill="none" stroke="black" stroke-width="3"/>
<path d="M508,147h 14" fill="none" stroke="black" stroke-width="3"/>
<path d="M508,147h 14" fill="none" stroke="black" stroke-width="3"/>
<path d="M515,122h 7" fill="none" stroke="black" stroke-width="3"/>
<path d="M515,97h 7" fill="none" stroke="black" stroke-width="3"/>
<path d="M515,72h 7" fill="none" stroke="black" stroke-width="3"/>
<path d="M515,47h 7" fill="none" stroke="black" stroke-width="3"/>
<rect x="113" y="-4" width="118" height="39" fill="white"/>
<text x="118" y="23" fill="black" font-size="30" font-family="Helvetica" font-weight="bold">
d_gene
</text>
<path d="M111,290v -40" fill="none" stroke="#ff0000" stroke-width="6"/>
<path d="M111,243v -40" fill="none" stroke="#ff0000" stroke-width="6"/>
<g stroke="#ff0000" stroke-width="6" fill="#ff0000">
<circle cx="111" cy="247" r="3.5"/>
</g>
<path d="M174,396v -9" fill="none" stroke="#ff0000" stroke-width="6"/>
<path d="M174,380v -9" fill="none" stroke="#ff0000" stroke-width="6"/>
<g stroke="#ff0000" stroke-width="6" fill="#ff0000">
<circle cx="174" cy="384" r="3.5"/>
</g>
<path d="M237,321v -34" fill="none" stroke="#ff0000" stroke-width="6"/>
<path d="M237,281v -34" fill="none" stroke="#ff0000" stroke-width="6"/>
<g stroke="#ff0000" stroke-width="6" fill="#ff0000">
<circle cx="237" cy="284" r="3.5"/>
</g>
<path d="M300,389v -15" fill="none" stroke="#ff0000" stroke-width="6"/>
<path d="M300,368v -14" fill="none" stroke="#ff0000" stroke-width="6"/>
<g stroke="#ff0000" stroke-width="6" fill="#ff0000">
<circle cx="300" cy="371" r="3.5"/>
</g>
<path d="M364,380v -18" fill="none" stroke="#ff0000" stroke-width="6"/>
<path d="M364,355v -18" fill="none" stroke="#ff0000" stroke-width="6"/>
<g stroke="#ff0000" stroke-width="6" fill="#ff0000">
<circle cx="364" cy="359" r="3.5"/>
</g>
<path d="M427,389v -15" fill="none" stroke="#ff0000" stroke-width="6"/>
<path d="M427,368v -14" fill="none" stroke="#ff0000" stroke-width="6"/>
<g stroke="#ff0000" stroke-width="6" fill="#ff0000">
<circle cx="427" cy="371" r="3.5"/>
</g>
<path d="M490,158v -58" fill="none" stroke="#ff0000" stroke-width="6"/>
<path d="M490,94v -57" fill="none" stroke="#ff0000" stroke-width="6"/>
<g stroke="#ff0000" stroke-width="6" fill="#ff0000">
<circle cx="490" cy="97" r="3.5"/>
</g>
<path d="M80,395v -148h 63v 137h 63v -100h 63v 87h 63v -12h 63v 12h 63v -274h 64" fill="none" stroke="#ff0000" stroke-width="6"/>
<path d="M332,107h 42" fill="none" stroke="#ff0000" stroke-width="6"/>
<rect x="113" y="-4" width="118" height="39" fill="white"/>
<text x="118" y="23" fill="black" font-size="30" font-family="Helvetica" font-weight="bold">
d_gene
</text></svg>
