<?xml version="1.0" standalone="no"?>
<svg width="567" height="466" viewBox="0 0 567 466" xmlns="http://www.w3.org/2000/svg">
<title>
/bbx/output/_plots/example/hmm/true/plots/j_5p_del.svg
</title>
<desc>
Creator: ROOT Version 5.34/14
CreationDate: Thu Jul 30 17:06:16 2015</desc>
<defs>
</defs>
<rect x="0" y="0" width="567" height="466" fill="white"/>
<rect x="79" y="37" width="443" height="359" fill="none" stroke="black"/>
<rect x="79" y="37" width="443" height="359" fill="none" stroke="black"/>
<path d="M79,396h 443" fill="none" stroke="black" stroke-width="3"/>
<path d="M104,385v 11" fill="none" stroke="black" stroke-width="3"/>
<path d="M129,391v 5" fill="none" stroke="black" stroke-width="3"/>
<path d="M153,391v 5" fill="none" stroke="black" stroke-width="3"/>
<path d="M178,391v 5" fill="none" stroke="black" stroke-width="3"/>
<path d="M202,385v 11" fill="none" stroke="black" stroke-width="3"/>
<path d="M227,391v 5" fill="none" stroke="black" stroke-width="3"/>
<path d="M251,391v 5" fill="none" stroke="black" stroke-width="3"/>
<path d="M276,391v 5" fill="none" stroke="black" stroke-width="3"/>
<path d="M300,385v 11" fill="none" stroke="black" stroke-width="3"/>
<path d="M325,391v 5" fill="none" stroke="black" stroke-width="3"/>
<path d="M350,391v 5" fill="none" stroke="black" stroke-width="3"/>
<path d="M374,391v 5" fill="none" stroke="black" stroke-width="3"/>
<path d="M399,385v 11" fill="none" stroke="black" stroke-width="3"/>
<path d="M423,391v 5" fill="none" stroke="black" stroke-width="3"/>
<path d="M448,391v 5" fill="none" stroke="black" stroke-width="3"/>
<path d="M472,391v 5" fill="none" stroke="black" stroke-width="3"/>
<path d="M497,385v 11" fill="none" stroke="black" stroke-width="3"/>
<path d="M104,385v 11" fill="none" stroke="black" stroke-width="3"/>
<path d="M497,385v 11" fill="none" stroke="black" stroke-width="3"/>
<path d="M522,391v 5" fill="none" stroke="black" stroke-width="3"/>
<text x="98" y="416" fill="black" font-size="21" font-family="Times" font-weight="bold">
0
</text>
<text x="196" y="416" fill="black" font-size="21" font-family="Times" font-weight="bold">
2
</text>
<text x="294" y="416" fill="black" font-size="21" font-family="Times" font-weight="bold">
4
</text>
<text x="393" y="416" fill="black" font-size="21" font-family="Times" font-weight="bold">
6
</text>
<text x="491" y="416" fill="black" font-size="21" font-family="Times" font-weight="bold">
8
</text>
<path d="M79,37h 443" fill="none" stroke="black" stroke-width="3"/>
<path d="M104,48v -11" fill="none" stroke="black" stroke-width="3"/>
<path d="M129,43v -6" fill="none" stroke="black" stroke-width="3"/>
<path d="M153,43v -6" fill="none" stroke="black" stroke-width="3"/>
<path d="M178,43v -6" fill="none" stroke="black" stroke-width="3"/>
<path d="M202,48v -11" fill="none" stroke="black" stroke-width="3"/>
<path d="M227,43v -6" fill="none" stroke="black" stroke-width="3"/>
<path d="M251,43v -6" fill="none" stroke="black" stroke-width="3"/>
<path d="M276,43v -6" fill="none" stroke="black" stroke-width="3"/>
<path d="M300,48v -11" fill="none" stroke="black" stroke-width="3"/>
<path d="M325,43v -6" fill="none" stroke="black" stroke-width="3"/>
<path d="M350,43v -6" fill="none" stroke="black" stroke-width="3"/>
<path d="M374,43v -6" fill="none" stroke="black" stroke-width="3"/>
<path d="M399,48v -11" fill="none" stroke="black" stroke-width="3"/>
<path d="M423,43v -6" fill="none" stroke="black" stroke-width="3"/>
<path d="M448,43v -6" fill="none" stroke="black" stroke-width="3"/>
<path d="M472,43v -6" fill="none" stroke="black" stroke-width="3"/>
<path d="M497,48v -11" fill="none" stroke="black" stroke-width="3"/>
<path d="M104,48v -11" fill="none" stroke="black" stroke-width="3"/>
<path d="M497,48v -11" fill="none" stroke="black" stroke-width="3"/>
<path d="M522,43v -6" fill="none" stroke="black" stroke-width="3"/>
<path d="M79,396v -359" fill="none" stroke="black" stroke-width="3"/>
<path d="M92,396h -13" fill="none" stroke="black" stroke-width="3"/>
<path d="M86,377h -7" fill="none" stroke="black" stroke-width="3"/>
<path d="M86,358h -7" fill="none" stroke="black" stroke-width="3"/>
<path d="M86,338h -7" fill="none" stroke="black" stroke-width="3"/>
<path d="M86,319h -7" fill="none" stroke="black" stroke-width="3"/>
<path d="M92,300h -13" fill="none" stroke="black" stroke-width="3"/>
<path d="M86,280h -7" fill="none" stroke="black" stroke-width="3"/>
<path d="M86,261h -7" fill="none" stroke="black" stroke-width="3"/>
<path d="M86,242h -7" fill="none" stroke="black" stroke-width="3"/>
<path d="M86,223h -7" fill="none" stroke="black" stroke-width="3"/>
<path d="M92,203h -13" fill="none" stroke="black" stroke-width="3"/>
<path d="M86,184h -7" fill="none" stroke="black" stroke-width="3"/>
<path d="M86,165h -7" fill="none" stroke="black" stroke-width="3"/>
<path d="M86,145h -7" fill="none" stroke="black" stroke-width="3"/>
<path d="M86,126h -7" fill="none" stroke="black" stroke-width="3"/>
<path d="M92,107h -13" fill="none" stroke="black" stroke-width="3"/>
<path d="M92,107h -13" fill="none" stroke="black" stroke-width="3"/>
<path d="M86,87h -7" fill="none" stroke="black" stroke-width="3"/>
<path d="M86,68h -7" fill="none" stroke="black" stroke-width="3"/>
<path d="M86,49h -7" fill="none" stroke="black" stroke-width="3"/>
<text x="63" y="404" fill="black" font-size="21" font-family="Times" font-weight="bold">
0
</text>
<text x="51" y="307" fill="black" font-size="21" font-family="Times" font-weight="bold">
10
</text>
<text x="51" y="211" fill="black" font-size="21" font-family="Times" font-weight="bold">
20
</text>
<text x="51" y="115" fill="black" font-size="21" font-family="Times" font-weight="bold">
30
</text>
<path d="M522,396v -359" fill="none" stroke="black" stroke-width="3"/>
<path d="M508,396h 14" fill="none" stroke="black" stroke-width="3"/>
<path d="M515,377h 7" fill="none" stroke="black" stroke-width="3"/>
<path d="M515,358h 7" fill="none" stroke="black" stroke-width="3"/>
<path d="M515,338h 7" fill="none" stroke="black" stroke-width="3"/>
<path d="M515,319h 7" fill="none" stroke="black" stroke-width="3"/>
<path d="M508,300h 14" fill="none" stroke="black" stroke-width="3"/>
<path d="M515,280h 7" fill="none" stroke="black" stroke-width="3"/>
<path d="M515,261h 7" fill="none" stroke="black" stroke-width="3"/>
<path d="M515,242h 7" fill="none" stroke="black" stroke-width="3"/>
<path d="M515,223h 7" fill="none" stroke="black" stroke-width="3"/>
<path d="M508,203h 14" fill="none" stroke="black" stroke-width="3"/>
<path d="M515,184h 7" fill="none" stroke="black" stroke-width="3"/>
<path d="M515,165h 7" fill="none" stroke="black" stroke-width="3"/>
<path d="M515,145h 7" fill="none" stroke="black" stroke-width="3"/>
<path d="M515,126h 7" fill="none" stroke="black" stroke-width="3"/>
<path d="M508,107h 14" fill="none" stroke="black" stroke-width="3"/>
<path d="M508,107h 14" fill="none" stroke="black" stroke-width="3"/>
<path d="M515,87h 7" fill="none" stroke="black" stroke-width="3"/>
<path d="M515,68h 7" fill="none" stroke="black" stroke-width="3"/>
<path d="M515,49h 7" fill="none" stroke="black" stroke-width="3"/>
<rect x="113" y="-4" width="144" height="40" fill="white"/>
<text x="121" y="25" fill="black" font-size="31" font-family="Helvetica" font-weight="bold">
j_5p_del
</text>
<path d="M104,151v -51" fill="none" stroke="#ff0000" stroke-width="6"/>
<path d="M104,94v -51" fill="none" stroke="#ff0000" stroke-width="6"/>
<g stroke="#ff0000" stroke-width="6" fill="#ff0000">
<circle cx="104" cy="97" r="3.5"/>
</g>
<path d="M153,369v -18" fill="none" stroke="#ff0000" stroke-width="6"/>
<path d="M153,345v -19" fill="none" stroke="#ff0000" stroke-width="6"/>
<g stroke="#ff0000" stroke-width="6" fill="#ff0000">
<circle cx="153" cy="348" r="3.5"/>
</g>
<path d="M300,289v -34" fill="none" stroke="#ff0000" stroke-width="6"/>
<path d="M300,248v -34" fill="none" stroke="#ff0000" stroke-width="6"/>
<g stroke="#ff0000" stroke-width="6" fill="#ff0000">
<circle cx="300" cy="251" r="3.5"/>
</g>
<path d="M497,390v -10" fill="none" stroke="#ff0000" stroke-width="6"/>
<path d="M497,374v -11" fill="none" stroke="#ff0000" stroke-width="6"/>
<g stroke="#ff0000" stroke-width="6" fill="#ff0000">
<circle cx="497" cy="377" r="3.5"/>
</g>
<path d="M80,395v -298h 49v 251h 49v 47h 98v -144h 49v 144h 147v -18h 50" fill="none" stroke="#ff0000" stroke-width="6"/>
<path d="M332,107h 42" fill="none" stroke="#ff0000" stroke-width="6"/>
<rect x="113" y="-4" width="144" height="40" fill="white"/>
<text x="121" y="25" fill="black" font-size="31" font-family="Helvetica" font-weight="bold">
j_5p_del
</text></svg>
