<?xml version="1.0" standalone="no"?>
<svg width="567" height="466" viewBox="0 0 567 466" xmlns="http://www.w3.org/2000/svg">
<title>
/bbx/output/_plots/example/hmm/true/plots/seq_content.svg
</title>
<desc>
Creator: ROOT Version 5.34/14
CreationDate: Thu Jul 30 17:06:16 2015</desc>
<defs>
</defs>
<rect x="0" y="0" width="567" height="466" fill="white"/>
<rect x="79" y="37" width="443" height="359" fill="none" stroke="black"/>
<rect x="79" y="37" width="443" height="359" fill="none" stroke="black"/>
<path d="M79,396h 443" fill="none" stroke="black" stroke-width="3"/>
<text x="129" y="411" fill="black" font-size="14" font-family="Times" font-weight="bold">
A
</text>
<text x="239" y="411" fill="black" font-size="14" font-family="Times" font-weight="bold">
C
</text>
<text x="349" y="411" fill="black" font-size="14" font-family="Times" font-weight="bold">
G
</text>
<text x="461" y="411" fill="black" font-size="14" font-family="Times" font-weight="bold">
T
</text>
<path d="M135,385v 11" fill="none" stroke="black" stroke-width="3"/>
<path d="M245,385v 11" fill="none" stroke="black" stroke-width="3"/>
<path d="M356,385v 11" fill="none" stroke="black" stroke-width="3"/>
<path d="M466,385v 11" fill="none" stroke="black" stroke-width="3"/>
<path d="M135,385v 11" fill="none" stroke="black" stroke-width="3"/>
<path d="M466,385v 11" fill="none" stroke="black" stroke-width="3"/>
<path d="M79,37h 443" fill="none" stroke="black" stroke-width="3"/>
<path d="M135,48v -11" fill="none" stroke="black" stroke-width="3"/>
<path d="M245,48v -11" fill="none" stroke="black" stroke-width="3"/>
<path d="M356,48v -11" fill="none" stroke="black" stroke-width="3"/>
<path d="M466,48v -11" fill="none" stroke="black" stroke-width="3"/>
<path d="M135,48v -11" fill="none" stroke="black" stroke-width="3"/>
<path d="M466,48v -11" fill="none" stroke="black" stroke-width="3"/>
<path d="M79,396v -359" fill="none" stroke="black" stroke-width="3"/>
<path d="M92,396h -13" fill="none" stroke="black" stroke-width="3"/>
<path d="M86,370h -7" fill="none" stroke="black" stroke-width="3"/>
<path d="M86,343h -7" fill="none" stroke="black" stroke-width="3"/>
<path d="M86,316h -7" fill="none" stroke="black" stroke-width="3"/>
<path d="M92,290h -13" fill="none" stroke="black" stroke-width="3"/>
<path d="M86,263h -7" fill="none" stroke="black" stroke-width="3"/>
<path d="M86,237h -7" fill="none" stroke="black" stroke-width="3"/>
<path d="M86,210h -7" fill="none" stroke="black" stroke-width="3"/>
<path d="M92,184h -13" fill="none" stroke="black" stroke-width="3"/>
<path d="M86,157h -7" fill="none" stroke="black" stroke-width="3"/>
<path d="M86,131h -7" fill="none" stroke="black" stroke-width="3"/>
<path d="M86,104h -7" fill="none" stroke="black" stroke-width="3"/>
<path d="M92,78h -13" fill="none" stroke="black" stroke-width="3"/>
<path d="M92,78h -13" fill="none" stroke="black" stroke-width="3"/>
<path d="M86,51h -7" fill="none" stroke="black" stroke-width="3"/>
<text x="63" y="404" fill="black" font-size="21" font-family="Times" font-weight="bold">
0
</text>
<text x="29" y="297" fill="black" font-size="21" font-family="Times" font-weight="bold">
2000
</text>
<text x="29" y="191" fill="black" font-size="21" font-family="Times" font-weight="bold">
4000
</text>
<text x="29" y="86" fill="black" font-size="21" font-family="Times" font-weight="bold">
6000
</text>
<path d="M522,396v -359" fill="none" stroke="black" stroke-width="3"/>
<path d="M508,396h 14" fill="none" stroke="black" stroke-width="3"/>
<path d="M515,370h 7" fill="none" stroke="black" stroke-width="3"/>
<path d="M515,343h 7" fill="none" stroke="black" stroke-width="3"/>
<path d="M515,316h 7" fill="none" stroke="black" stroke-width="3"/>
<path d="M508,290h 14" fill="none" stroke="black" stroke-width="3"/>
<path d="M515,263h 7" fill="none" stroke="black" stroke-width="3"/>
<path d="M515,237h 7" fill="none" stroke="black" stroke-width="3"/>
<path d="M515,210h 7" fill="none" stroke="black" stroke-width="3"/>
<path d="M508,184h 14" fill="none" stroke="black" stroke-width="3"/>
<path d="M515,157h 7" fill="none" stroke="black" stroke-width="3"/>
<path d="M515,131h 7" fill="none" stroke="black" stroke-width="3"/>
<path d="M515,104h 7" fill="none" stroke="black" stroke-width="3"/>
<path d="M508,78h 14" fill="none" stroke="black" stroke-width="3"/>
<path d="M508,78h 14" fill="none" stroke="black" stroke-width="3"/>
<path d="M515,51h 7" fill="none" stroke="black" stroke-width="3"/>
<rect x="113" y="-4" width="191" height="38" fill="white"/>
<text x="119" y="22" fill="black" font-size="29" font-family="Helvetica" font-weight="bold">
seq_content
</text>
<path d="M135,184" fill="none" stroke="#ff0000" stroke-width="6"/>
<path d="M135,177" fill="none" stroke="#ff0000" stroke-width="6"/>
<g stroke="#ff0000" stroke-width="6" fill="#ff0000">
<circle cx="135" cy="181" r="3.5"/>
</g>
<path d="M245,143" fill="none" stroke="#ff0000" stroke-width="6"/>
<path d="M245,136" fill="none" stroke="#ff0000" stroke-width="6"/>
<g stroke="#ff0000" stroke-width="6" fill="#ff0000">
<circle cx="245" cy="139" r="3.5"/>
</g>
<path d="M356,101v -1" fill="none" stroke="#ff0000" stroke-width="6"/>
<path d="M356,94v -1" fill="none" stroke="#ff0000" stroke-width="6"/>
<g stroke="#ff0000" stroke-width="6" fill="#ff0000">
<circle cx="356" cy="97" r="3.5"/>
</g>
<path d="M466,176" fill="none" stroke="#ff0000" stroke-width="6"/>
<path d="M466,170" fill="none" stroke="#ff0000" stroke-width="6"/>
<g stroke="#ff0000" stroke-width="6" fill="#ff0000">
<circle cx="466" cy="173" r="3.5"/>
</g>
<path d="M80,395v -214h 110v -42h 110v -42h 111v 76h 111" fill="none" stroke="#ff0000" stroke-width="6"/>
<path d="M332,107h 42" fill="none" stroke="#ff0000" stroke-width="6"/>
<rect x="113" y="-4" width="191" height="38" fill="white"/>
<text x="119" y="22" fill="black" font-size="29" font-family="Helvetica" font-weight="bold">
seq_content
</text></svg>
