<?xml version="1.0" standalone="no"?>
<svg width="567" height="466" viewBox="0 0 567 466" xmlns="http://www.w3.org/2000/svg">
<title>
/bbx/output/_plots/example/hmm/true/plots/vd_insertion.svg
</title>
<desc>
Creator: ROOT Version 5.34/14
CreationDate: Thu Jul 30 17:06:17 2015</desc>
<defs>
</defs>
<rect x="0" y="0" width="567" height="466" fill="white"/>
<rect x="79" y="37" width="443" height="359" fill="none" stroke="black"/>
<rect x="79" y="37" width="443" height="359" fill="none" stroke="black"/>
<path d="M79,396h 443" fill="none" stroke="black" stroke-width="3"/>
<path d="M94,385v 11" fill="none" stroke="black" stroke-width="3"/>
<path d="M124,391v 5" fill="none" stroke="black" stroke-width="3"/>
<path d="M153,391v 5" fill="none" stroke="black" stroke-width="3"/>
<path d="M183,391v 5" fill="none" stroke="black" stroke-width="3"/>
<path d="M212,391v 5" fill="none" stroke="black" stroke-width="3"/>
<path d="M242,385v 11" fill="none" stroke="black" stroke-width="3"/>
<path d="M271,391v 5" fill="none" stroke="black" stroke-width="3"/>
<path d="M300,391v 5" fill="none" stroke="black" stroke-width="3"/>
<path d="M330,391v 5" fill="none" stroke="black" stroke-width="3"/>
<path d="M359,391v 5" fill="none" stroke="black" stroke-width="3"/>
<path d="M389,385v 11" fill="none" stroke="black" stroke-width="3"/>
<path d="M94,385v 11" fill="none" stroke="black" stroke-width="3"/>
<path d="M389,385v 11" fill="none" stroke="black" stroke-width="3"/>
<path d="M418,391v 5" fill="none" stroke="black" stroke-width="3"/>
<path d="M448,391v 5" fill="none" stroke="black" stroke-width="3"/>
<path d="M477,391v 5" fill="none" stroke="black" stroke-width="3"/>
<path d="M507,391v 5" fill="none" stroke="black" stroke-width="3"/>
<text x="88" y="416" fill="black" font-size="21" font-family="Times" font-weight="bold">
0
</text>
<text x="235" y="416" fill="black" font-size="21" font-family="Times" font-weight="bold">
5
</text>
<text x="377" y="416" fill="black" font-size="21" font-family="Times" font-weight="bold">
10
</text>
<path d="M79,37h 443" fill="none" stroke="black" stroke-width="3"/>
<path d="M94,48v -11" fill="none" stroke="black" stroke-width="3"/>
<path d="M124,43v -6" fill="none" stroke="black" stroke-width="3"/>
<path d="M153,43v -6" fill="none" stroke="black" stroke-width="3"/>
<path d="M183,43v -6" fill="none" stroke="black" stroke-width="3"/>
<path d="M212,43v -6" fill="none" stroke="black" stroke-width="3"/>
<path d="M242,48v -11" fill="none" stroke="black" stroke-width="3"/>
<path d="M271,43v -6" fill="none" stroke="black" stroke-width="3"/>
<path d="M300,43v -6" fill="none" stroke="black" stroke-width="3"/>
<path d="M330,43v -6" fill="none" stroke="black" stroke-width="3"/>
<path d="M359,43v -6" fill="none" stroke="black" stroke-width="3"/>
<path d="M389,48v -11" fill="none" stroke="black" stroke-width="3"/>
<path d="M94,48v -11" fill="none" stroke="black" stroke-width="3"/>
<path d="M389,48v -11" fill="none" stroke="black" stroke-width="3"/>
<path d="M418,43v -6" fill="none" stroke="black" stroke-width="3"/>
<path d="M448,43v -6" fill="none" stroke="black" stroke-width="3"/>
<path d="M477,43v -6" fill="none" stroke="black" stroke-width="3"/>
<path d="M507,43v -6" fill="none" stroke="black" stroke-width="3"/>
<path d="M79,396v -359" fill="none" stroke="black" stroke-width="3"/>
<path d="M92,396h -13" fill="none" stroke="black" stroke-width="3"/>
<path d="M86,376h -7" fill="none" stroke="black" stroke-width="3"/>
<path d="M86,356h -7" fill="none" stroke="black" stroke-width="3"/>
<path d="M86,336h -7" fill="none" stroke="black" stroke-width="3"/>
<path d="M86,316h -7" fill="none" stroke="black" stroke-width="3"/>
<path d="M92,296h -13" fill="none" stroke="black" stroke-width="3"/>
<path d="M86,277h -7" fill="none" stroke="black" stroke-width="3"/>
<path d="M86,257h -7" fill="none" stroke="black" stroke-width="3"/>
<path d="M86,237h -7" fill="none" stroke="black" stroke-width="3"/>
<path d="M86,217h -7" fill="none" stroke="black" stroke-width="3"/>
<path d="M92,197h -13" fill="none" stroke="black" stroke-width="3"/>
<path d="M86,177h -7" fill="none" stroke="black" stroke-width="3"/>
<path d="M86,157h -7" fill="none" stroke="black" stroke-width="3"/>
<path d="M86,137h -7" fill="none" stroke="black" stroke-width="3"/>
<path d="M86,117h -7" fill="none" stroke="black" stroke-width="3"/>
<path d="M92,97h -13" fill="none" stroke="black" stroke-width="3"/>
<path d="M92,97h -13" fill="none" stroke="black" stroke-width="3"/>
<path d="M86,77h -7" fill="none" stroke="black" stroke-width="3"/>
<path d="M86,57h -7" fill="none" stroke="black" stroke-width="3"/>
<path d="M86,37h -7" fill="none" stroke="black" stroke-width="3"/>
<text x="63" y="404" fill="black" font-size="21" font-family="Times" font-weight="bold">
0
</text>
<text x="63" y="304" fill="black" font-size="21" font-family="Times" font-weight="bold">
5
</text>
<text x="51" y="205" fill="black" font-size="21" font-family="Times" font-weight="bold">
10
</text>
<text x="51" y="105" fill="black" font-size="21" font-family="Times" font-weight="bold">
15
</text>
<path d="M522,396v -359" fill="none" stroke="black" stroke-width="3"/>
<path d="M508,396h 14" fill="none" stroke="black" stroke-width="3"/>
<path d="M515,376h 7" fill="none" stroke="black" stroke-width="3"/>
<path d="M515,356h 7" fill="none" stroke="black" stroke-width="3"/>
<path d="M515,336h 7" fill="none" stroke="black" stroke-width="3"/>
<path d="M515,316h 7" fill="none" stroke="black" stroke-width="3"/>
<path d="M508,296h 14" fill="none" stroke="black" stroke-width="3"/>
<path d="M515,277h 7" fill="none" stroke="black" stroke-width="3"/>
<path d="M515,257h 7" fill="none" stroke="black" stroke-width="3"/>
<path d="M515,237h 7" fill="none" stroke="black" stroke-width="3"/>
<path d="M515,217h 7" fill="none" stroke="black" stroke-width="3"/>
<path d="M508,197h 14" fill="none" stroke="black" stroke-width="3"/>
<path d="M515,177h 7" fill="none" stroke="black" stroke-width="3"/>
<path d="M515,157h 7" fill="none" stroke="black" stroke-width="3"/>
<path d="M515,137h 7" fill="none" stroke="black" stroke-width="3"/>
<path d="M515,117h 7" fill="none" stroke="black" stroke-width="3"/>
<path d="M508,97h 14" fill="none" stroke="black" stroke-width="3"/>
<path d="M508,97h 14" fill="none" stroke="black" stroke-width="3"/>
<path d="M515,77h 7" fill="none" stroke="black" stroke-width="3"/>
<path d="M515,57h 7" fill="none" stroke="black" stroke-width="3"/>
<path d="M515,37h 7" fill="none" stroke="black" stroke-width="3"/>
<rect x="113" y="-4" width="201" height="38" fill="white"/>
<text x="124" y="23" fill="black" font-size="30" font-family="Helvetica" font-weight="bold">
vd_insertion
</text>
<path d="M94,277v -57" fill="none" stroke="#ff0000" stroke-width="6"/>
<path d="M94,213v -56" fill="none" stroke="#ff0000" stroke-width="6"/>
<g stroke="#ff0000" stroke-width="6" fill="#ff0000">
<circle cx="94" cy="217" r="3.5"/>
</g>
<path d="M124,371v -31" fill="none" stroke="#ff0000" stroke-width="6"/>
<path d="M124,333v -31" fill="none" stroke="#ff0000" stroke-width="6"/>
<g stroke="#ff0000" stroke-width="6" fill="#ff0000">
<circle cx="124" cy="336" r="3.5"/>
</g>
<path d="M153,293v -53" fill="none" stroke="#ff0000" stroke-width="6"/>
<path d="M153,233v -53" fill="none" stroke="#ff0000" stroke-width="6"/>
<g stroke="#ff0000" stroke-width="6" fill="#ff0000">
<circle cx="153" cy="237" r="3.5"/>
</g>
<path d="M183,243v -63" fill="none" stroke="#ff0000" stroke-width="6"/>
<path d="M183,174v -63" fill="none" stroke="#ff0000" stroke-width="6"/>
<g stroke="#ff0000" stroke-width="6" fill="#ff0000">
<circle cx="183" cy="177" r="3.5"/>
</g>
<path d="M212,384v -24" fill="none" stroke="#ff0000" stroke-width="6"/>
<path d="M212,353v -25" fill="none" stroke="#ff0000" stroke-width="6"/>
<g stroke="#ff0000" stroke-width="6" fill="#ff0000">
<circle cx="212" cy="356" r="3.5"/>
</g>
<path d="M242,384v -24" fill="none" stroke="#ff0000" stroke-width="6"/>
<path d="M242,353v -25" fill="none" stroke="#ff0000" stroke-width="6"/>
<g stroke="#ff0000" stroke-width="6" fill="#ff0000">
<circle cx="242" cy="356" r="3.5"/>
</g>
<path d="M271,396v -17" fill="none" stroke="#ff0000" stroke-width="6"/>
<path d="M271,373v -17" fill="none" stroke="#ff0000" stroke-width="6"/>
<g stroke="#ff0000" stroke-width="6" fill="#ff0000">
<circle cx="271" cy="376" r="3.5"/>
</g>
<path d="M300,174v -74" fill="none" stroke="#ff0000" stroke-width="6"/>
<path d="M300,94v -57" fill="none" stroke="#ff0000" stroke-width="6"/>
<g stroke="#ff0000" stroke-width="6" fill="#ff0000">
<circle cx="300" cy="97" r="3.5"/>
</g>
<path d="M507,384v -24" fill="none" stroke="#ff0000" stroke-width="6"/>
<path d="M507,353v -25" fill="none" stroke="#ff0000" stroke-width="6"/>
<g stroke="#ff0000" stroke-width="6" fill="#ff0000">
<circle cx="507" cy="356" r="3.5"/>
</g>
<path d="M80,395v -178h 29v 119h 29v -99h 30v -60h 29v 179h 59v 20h 30v -279h 29v 298h 177v -39h 30" fill="none" stroke="#ff0000" stroke-width="6"/>
<path d="M332,107h 42" fill="none" stroke="#ff0000" stroke-width="6"/>
<rect x="113" y="-4" width="201" height="38" fill="white"/>
<text x="124" y="23" fill="black" font-size="30" font-family="Helvetica" font-weight="bold">
vd_insertion
</text></svg>
