<?xml version="1.0" standalone="no"?>
<svg width="567" height="466" viewBox="0 0 567 466" xmlns="http://www.w3.org/2000/svg">
<title>
/bbx/output/_plots/example/sw/true/plots/v_gene.svg
</title>
<desc>
Creator: ROOT Version 5.34/14
CreationDate: Wed Aug 19 22:00:00 2015</desc>
<defs>
</defs>
<rect x="0" y="0" width="567" height="466" fill="white"/>
<rect x="79" y="37" width="443" height="359" fill="none" stroke="black"/>
<rect x="79" y="37" width="443" height="359" fill="none" stroke="black"/>
<path d="M79,396h 443" fill="none" stroke="black" stroke-width="3"/>
<g transform="rotate(20,104,406)">
<text x="104" y="406" fill="black" font-size="14" font-family="Times" font-weight="bold">
IGHV1-3*01
</text>
</g>
<g transform="rotate(20,160,406)">
<text x="160" y="406" fill="black" font-size="14" font-family="Times" font-weight="bold">
IGHV2-70*12
</text>
</g>
<g transform="rotate(20,215,406)">
<text x="215" y="406" fill="black" font-size="14" font-family="Times" font-weight="bold">
IGHV3-23D*01
</text>
</g>
<g transform="rotate(20,270,406)">
<text x="270" y="406" fill="black" font-size="14" font-family="Times" font-weight="bold">
IGHV3-53*02
</text>
</g>
<g transform="rotate(20,325,406)">
<text x="325" y="406" fill="black" font-size="14" font-family="Times" font-weight="bold">
IGHV3-53*03
</text>
</g>
<g transform="rotate(20,380,406)">
<text x="380" y="406" fill="black" font-size="14" font-family="Times" font-weight="bold">
IGHV3-9*02
</text>
</g>
<g transform="rotate(20,436,406)">
<text x="436" y="406" fill="black" font-size="14" font-family="Times" font-weight="bold">
IGHV3-NL1*01
</text>
</g>
<g transform="rotate(20,491,406)">
<text x="491" y="406" fill="black" font-size="14" font-family="Times" font-weight="bold">
IGHV4-34*13
</text>
</g>
<path d="M107,385v 11" fill="none" stroke="black" stroke-width="3"/>
<path d="M162,385v 11" fill="none" stroke="black" stroke-width="3"/>
<path d="M218,385v 11" fill="none" stroke="black" stroke-width="3"/>
<path d="M273,385v 11" fill="none" stroke="black" stroke-width="3"/>
<path d="M328,385v 11" fill="none" stroke="black" stroke-width="3"/>
<path d="M383,385v 11" fill="none" stroke="black" stroke-width="3"/>
<path d="M439,385v 11" fill="none" stroke="black" stroke-width="3"/>
<path d="M494,385v 11" fill="none" stroke="black" stroke-width="3"/>
<path d="M107,385v 11" fill="none" stroke="black" stroke-width="3"/>
<path d="M494,385v 11" fill="none" stroke="black" stroke-width="3"/>
<path d="M79,37h 443" fill="none" stroke="black" stroke-width="3"/>
<path d="M107,48v -11" fill="none" stroke="black" stroke-width="3"/>
<path d="M162,48v -11" fill="none" stroke="black" stroke-width="3"/>
<path d="M218,48v -11" fill="none" stroke="black" stroke-width="3"/>
<path d="M273,48v -11" fill="none" stroke="black" stroke-width="3"/>
<path d="M328,48v -11" fill="none" stroke="black" stroke-width="3"/>
<path d="M383,48v -11" fill="none" stroke="black" stroke-width="3"/>
<path d="M439,48v -11" fill="none" stroke="black" stroke-width="3"/>
<path d="M494,48v -11" fill="none" stroke="black" stroke-width="3"/>
<path d="M107,48v -11" fill="none" stroke="black" stroke-width="3"/>
<path d="M494,48v -11" fill="none" stroke="black" stroke-width="3"/>
<path d="M79,396v -359" fill="none" stroke="black" stroke-width="3"/>
<path d="M92,396h -13" fill="none" stroke="black" stroke-width="3"/>
<path d="M86,376h -7" fill="none" stroke="black" stroke-width="3"/>
<path d="M86,356h -7" fill="none" stroke="black" stroke-width="3"/>
<path d="M86,336h -7" fill="none" stroke="black" stroke-width="3"/>
<path d="M86,316h -7" fill="none" stroke="black" stroke-width="3"/>
<path d="M92,296h -13" fill="none" stroke="black" stroke-width="3"/>
<path d="M86,277h -7" fill="none" stroke="black" stroke-width="3"/>
<path d="M86,257h -7" fill="none" stroke="black" stroke-width="3"/>
<path d="M86,237h -7" fill="none" stroke="black" stroke-width="3"/>
<path d="M86,217h -7" fill="none" stroke="black" stroke-width="3"/>
<path d="M92,197h -13" fill="none" stroke="black" stroke-width="3"/>
<path d="M86,177h -7" fill="none" stroke="black" stroke-width="3"/>
<path d="M86,157h -7" fill="none" stroke="black" stroke-width="3"/>
<path d="M86,137h -7" fill="none" stroke="black" stroke-width="3"/>
<path d="M86,117h -7" fill="none" stroke="black" stroke-width="3"/>
<path d="M92,97h -13" fill="none" stroke="black" stroke-width="3"/>
<path d="M92,97h -13" fill="none" stroke="black" stroke-width="3"/>
<path d="M86,77h -7" fill="none" stroke="black" stroke-width="3"/>
<path d="M86,57h -7" fill="none" stroke="black" stroke-width="3"/>
<path d="M86,37h -7" fill="none" stroke="black" stroke-width="3"/>
<text x="63" y="404" fill="black" font-size="21" font-family="Times" font-weight="bold">
0
</text>
<text x="63" y="304" fill="black" font-size="21" font-family="Times" font-weight="bold">
5
</text>
<text x="51" y="205" fill="black" font-size="21" font-family="Times" font-weight="bold">
10
</text>
<text x="51" y="105" fill="black" font-size="21" font-family="Times" font-weight="bold">
15
</text>
<path d="M522,396v -359" fill="none" stroke="black" stroke-width="3"/>
<path d="M508,396h 14" fill="none" stroke="black" stroke-width="3"/>
<path d="M515,376h 7" fill="none" stroke="black" stroke-width="3"/>
<path d="M515,356h 7" fill="none" stroke="black" stroke-width="3"/>
<path d="M515,336h 7" fill="none" stroke="black" stroke-width="3"/>
<path d="M515,316h 7" fill="none" stroke="black" stroke-width="3"/>
<path d="M508,296h 14" fill="none" stroke="black" stroke-width="3"/>
<path d="M515,277h 7" fill="none" stroke="black" stroke-width="3"/>
<path d="M515,257h 7" fill="none" stroke="black" stroke-width="3"/>
<path d="M515,237h 7" fill="none" stroke="black" stroke-width="3"/>
<path d="M515,217h 7" fill="none" stroke="black" stroke-width="3"/>
<path d="M508,197h 14" fill="none" stroke="black" stroke-width="3"/>
<path d="M515,177h 7" fill="none" stroke="black" stroke-width="3"/>
<path d="M515,157h 7" fill="none" stroke="black" stroke-width="3"/>
<path d="M515,137h 7" fill="none" stroke="black" stroke-width="3"/>
<path d="M515,117h 7" fill="none" stroke="black" stroke-width="3"/>
<path d="M508,97h 14" fill="none" stroke="black" stroke-width="3"/>
<path d="M508,97h 14" fill="none" stroke="black" stroke-width="3"/>
<path d="M515,77h 7" fill="none" stroke="black" stroke-width="3"/>
<path d="M515,57h 7" fill="none" stroke="black" stroke-width="3"/>
<path d="M515,37h 7" fill="none" stroke="black" stroke-width="3"/>
<rect x="113" y="-4" width="115" height="38" fill="white"/>
<text x="118" y="20" fill="black" font-size="30" font-family="Helvetica" font-weight="bold">
v_gene
</text>
<path d="M107,325v -45" fill="none" stroke="#ff0000" stroke-width="6"/>
<path d="M107,273v -45" fill="none" stroke="#ff0000" stroke-width="6"/>
<g stroke="#ff0000" stroke-width="6" fill="#ff0000">
<circle cx="107" cy="277" r="3.5"/>
</g>
<path d="M162,384v -24" fill="none" stroke="#ff0000" stroke-width="6"/>
<path d="M162,353v -25" fill="none" stroke="#ff0000" stroke-width="6"/>
<g stroke="#ff0000" stroke-width="6" fill="#ff0000">
<circle cx="162" cy="356" r="3.5"/>
</g>
<path d="M218,209v -69" fill="none" stroke="#ff0000" stroke-width="6"/>
<path d="M218,134v -69" fill="none" stroke="#ff0000" stroke-width="6"/>
<g stroke="#ff0000" stroke-width="6" fill="#ff0000">
<circle cx="218" cy="137" r="3.5"/>
</g>
<path d="M273,384v -24" fill="none" stroke="#ff0000" stroke-width="6"/>
<path d="M273,353v -25" fill="none" stroke="#ff0000" stroke-width="6"/>
<g stroke="#ff0000" stroke-width="6" fill="#ff0000">
<circle cx="273" cy="356" r="3.5"/>
</g>
<path d="M328,371v -31" fill="none" stroke="#ff0000" stroke-width="6"/>
<path d="M328,333v -31" fill="none" stroke="#ff0000" stroke-width="6"/>
<g stroke="#ff0000" stroke-width="6" fill="#ff0000">
<circle cx="328" cy="336" r="3.5"/>
</g>
<path d="M383,174v -74" fill="none" stroke="#ff0000" stroke-width="6"/>
<path d="M383,94v -57" fill="none" stroke="#ff0000" stroke-width="6"/>
<g stroke="#ff0000" stroke-width="6" fill="#ff0000">
<circle cx="383" cy="97" r="3.5"/>
</g>
<path d="M439,396v -17" fill="none" stroke="#ff0000" stroke-width="6"/>
<path d="M439,373v -17" fill="none" stroke="#ff0000" stroke-width="6"/>
<g stroke="#ff0000" stroke-width="6" fill="#ff0000">
<circle cx="439" cy="376" r="3.5"/>
</g>
<path d="M494,243v -63" fill="none" stroke="#ff0000" stroke-width="6"/>
<path d="M494,174v -63" fill="none" stroke="#ff0000" stroke-width="6"/>
<g stroke="#ff0000" stroke-width="6" fill="#ff0000">
<circle cx="494" cy="177" r="3.5"/>
</g>
<path d="M80,395v -118h 55v 79h 55v -219h 55v 219h 55v -20h 56v -239h 55v 279h 55v -199h 56" fill="none" stroke="#ff0000" stroke-width="6"/>
<path d="M332,107h 42" fill="none" stroke="#ff0000" stroke-width="6"/>
<rect x="113" y="-4" width="115" height="38" fill="white"/>
<text x="118" y="20" fill="black" font-size="30" font-family="Helvetica" font-weight="bold">
v_gene
</text></svg>
