<?xml version="1.0" standalone="no"?>
<svg width="567" height="466" viewBox="0 0 567 466" xmlns="http://www.w3.org/2000/svg">
<title>
/bbx/output/_plots/example/hmm/mute-freqs/d/plots/IGHD6-19_star_01.svg
</title>
<desc>
Creator: ROOT Version 5.34/14
CreationDate: Wed Aug 19 19:38:32 2015</desc>
<defs>
</defs>
<rect x="0" y="0" width="567" height="466" fill="white"/>
<rect x="79" y="37" width="443" height="359" fill="none" stroke="black"/>
<rect x="79" y="37" width="443" height="359" fill="none" stroke="black"/>
<path d="M79,396h 443" fill="none" stroke="black" stroke-width="3"/>
<path d="M90,385v 11" fill="none" stroke="black" stroke-width="3"/>
<path d="M111,391v 5" fill="none" stroke="black" stroke-width="3"/>
<path d="M132,391v 5" fill="none" stroke="black" stroke-width="3"/>
<path d="M153,391v 5" fill="none" stroke="black" stroke-width="3"/>
<path d="M174,391v 5" fill="none" stroke="black" stroke-width="3"/>
<path d="M195,385v 11" fill="none" stroke="black" stroke-width="3"/>
<path d="M216,391v 5" fill="none" stroke="black" stroke-width="3"/>
<path d="M237,391v 5" fill="none" stroke="black" stroke-width="3"/>
<path d="M258,391v 5" fill="none" stroke="black" stroke-width="3"/>
<path d="M279,391v 5" fill="none" stroke="black" stroke-width="3"/>
<path d="M300,385v 11" fill="none" stroke="black" stroke-width="3"/>
<path d="M322,391v 5" fill="none" stroke="black" stroke-width="3"/>
<path d="M343,391v 5" fill="none" stroke="black" stroke-width="3"/>
<path d="M364,391v 5" fill="none" stroke="black" stroke-width="3"/>
<path d="M385,391v 5" fill="none" stroke="black" stroke-width="3"/>
<path d="M406,385v 11" fill="none" stroke="black" stroke-width="3"/>
<path d="M427,391v 5" fill="none" stroke="black" stroke-width="3"/>
<path d="M448,391v 5" fill="none" stroke="black" stroke-width="3"/>
<path d="M469,391v 5" fill="none" stroke="black" stroke-width="3"/>
<path d="M490,391v 5" fill="none" stroke="black" stroke-width="3"/>
<path d="M511,385v 11" fill="none" stroke="black" stroke-width="3"/>
<path d="M90,385v 11" fill="none" stroke="black" stroke-width="3"/>
<path d="M511,385v 11" fill="none" stroke="black" stroke-width="3"/>
<text x="84" y="416" fill="black" font-size="21" font-family="Times" font-weight="bold">
0
</text>
<text x="189" y="416" fill="black" font-size="21" font-family="Times" font-weight="bold">
5
</text>
<text x="288" y="416" fill="black" font-size="21" font-family="Times" font-weight="bold">
10
</text>
<text x="394" y="416" fill="black" font-size="21" font-family="Times" font-weight="bold">
15
</text>
<text x="499" y="416" fill="black" font-size="21" font-family="Times" font-weight="bold">
20
</text>
<path d="M79,37h 443" fill="none" stroke="black" stroke-width="3"/>
<path d="M90,48v -11" fill="none" stroke="black" stroke-width="3"/>
<path d="M111,43v -6" fill="none" stroke="black" stroke-width="3"/>
<path d="M132,43v -6" fill="none" stroke="black" stroke-width="3"/>
<path d="M153,43v -6" fill="none" stroke="black" stroke-width="3"/>
<path d="M174,43v -6" fill="none" stroke="black" stroke-width="3"/>
<path d="M195,48v -11" fill="none" stroke="black" stroke-width="3"/>
<path d="M216,43v -6" fill="none" stroke="black" stroke-width="3"/>
<path d="M237,43v -6" fill="none" stroke="black" stroke-width="3"/>
<path d="M258,43v -6" fill="none" stroke="black" stroke-width="3"/>
<path d="M279,43v -6" fill="none" stroke="black" stroke-width="3"/>
<path d="M300,48v -11" fill="none" stroke="black" stroke-width="3"/>
<path d="M322,43v -6" fill="none" stroke="black" stroke-width="3"/>
<path d="M343,43v -6" fill="none" stroke="black" stroke-width="3"/>
<path d="M364,43v -6" fill="none" stroke="black" stroke-width="3"/>
<path d="M385,43v -6" fill="none" stroke="black" stroke-width="3"/>
<path d="M406,48v -11" fill="none" stroke="black" stroke-width="3"/>
<path d="M427,43v -6" fill="none" stroke="black" stroke-width="3"/>
<path d="M448,43v -6" fill="none" stroke="black" stroke-width="3"/>
<path d="M469,43v -6" fill="none" stroke="black" stroke-width="3"/>
<path d="M490,43v -6" fill="none" stroke="black" stroke-width="3"/>
<path d="M511,48v -11" fill="none" stroke="black" stroke-width="3"/>
<path d="M90,48v -11" fill="none" stroke="black" stroke-width="3"/>
<path d="M511,48v -11" fill="none" stroke="black" stroke-width="3"/>
<path d="M79,396v -359" fill="none" stroke="black" stroke-width="3"/>
<path d="M92,396h -13" fill="none" stroke="black" stroke-width="3"/>
<path d="M86,375h -7" fill="none" stroke="black" stroke-width="3"/>
<path d="M86,354h -7" fill="none" stroke="black" stroke-width="3"/>
<path d="M86,333h -7" fill="none" stroke="black" stroke-width="3"/>
<path d="M86,312h -7" fill="none" stroke="black" stroke-width="3"/>
<path d="M92,291h -13" fill="none" stroke="black" stroke-width="3"/>
<path d="M86,271h -7" fill="none" stroke="black" stroke-width="3"/>
<path d="M86,250h -7" fill="none" stroke="black" stroke-width="3"/>
<path d="M86,229h -7" fill="none" stroke="black" stroke-width="3"/>
<path d="M86,208h -7" fill="none" stroke="black" stroke-width="3"/>
<path d="M92,187h -13" fill="none" stroke="black" stroke-width="3"/>
<path d="M86,166h -7" fill="none" stroke="black" stroke-width="3"/>
<path d="M86,145h -7" fill="none" stroke="black" stroke-width="3"/>
<path d="M86,124h -7" fill="none" stroke="black" stroke-width="3"/>
<path d="M86,103h -7" fill="none" stroke="black" stroke-width="3"/>
<path d="M92,82h -13" fill="none" stroke="black" stroke-width="3"/>
<path d="M92,82h -13" fill="none" stroke="black" stroke-width="3"/>
<path d="M86,61h -7" fill="none" stroke="black" stroke-width="3"/>
<path d="M86,40h -7" fill="none" stroke="black" stroke-width="3"/>
<text x="46" y="404" fill="black" font-size="21" font-family="Times" font-weight="bold">
0.0
</text>
<text x="46" y="299" fill="black" font-size="21" font-family="Times" font-weight="bold">
0.1
</text>
<text x="46" y="195" fill="black" font-size="21" font-family="Times" font-weight="bold">
0.2
</text>
<text x="46" y="90" fill="black" font-size="21" font-family="Times" font-weight="bold">
0.3
</text>
<path d="M522,396v -359" fill="none" stroke="black" stroke-width="3"/>
<path d="M508,396h 14" fill="none" stroke="black" stroke-width="3"/>
<path d="M515,375h 7" fill="none" stroke="black" stroke-width="3"/>
<path d="M515,354h 7" fill="none" stroke="black" stroke-width="3"/>
<path d="M515,333h 7" fill="none" stroke="black" stroke-width="3"/>
<path d="M515,312h 7" fill="none" stroke="black" stroke-width="3"/>
<path d="M508,291h 14" fill="none" stroke="black" stroke-width="3"/>
<path d="M515,271h 7" fill="none" stroke="black" stroke-width="3"/>
<path d="M515,250h 7" fill="none" stroke="black" stroke-width="3"/>
<path d="M515,229h 7" fill="none" stroke="black" stroke-width="3"/>
<path d="M515,208h 7" fill="none" stroke="black" stroke-width="3"/>
<path d="M508,187h 14" fill="none" stroke="black" stroke-width="3"/>
<path d="M515,166h 7" fill="none" stroke="black" stroke-width="3"/>
<path d="M515,145h 7" fill="none" stroke="black" stroke-width="3"/>
<path d="M515,124h 7" fill="none" stroke="black" stroke-width="3"/>
<path d="M515,103h 7" fill="none" stroke="black" stroke-width="3"/>
<path d="M508,82h 14" fill="none" stroke="black" stroke-width="3"/>
<path d="M508,82h 14" fill="none" stroke="black" stroke-width="3"/>
<path d="M515,61h 7" fill="none" stroke="black" stroke-width="3"/>
<path d="M515,40h 7" fill="none" stroke="black" stroke-width="3"/>
<rect x="113" y="-4" width="303" height="38" fill="white"/>
<text x="136" y="24" fill="black" font-size="30" font-family="Helvetica" font-weight="bold">
IGHD6-19_star_01
</text>
<path d="M90,255v -155" fill="none" stroke="#ff0000" stroke-width="6"/>
<path d="M90,94v -57" fill="none" stroke="#ff0000" stroke-width="6"/>
<path d="M79,97h 8" fill="none" stroke="#ff0000" stroke-width="6"/>
<path d="M93,97h 7" fill="none" stroke="#ff0000" stroke-width="6"/>
<g stroke="#ff0000" stroke-width="6" fill="#ff0000">
<circle cx="90" cy="97" r="3.5"/>
</g>
<path d="M111,393v -64" fill="none" stroke="#ff0000" stroke-width="6"/>
<g stroke="#ff0000" stroke-width="6" fill="#ff0000">
<circle cx="111" cy="396" r="3.5"/>
</g>
<path d="M132,393v -64" fill="none" stroke="#ff0000" stroke-width="6"/>
<g stroke="#ff0000" stroke-width="6" fill="#ff0000">
<circle cx="132" cy="396" r="3.5"/>
</g>
<path d="M153,393v -64" fill="none" stroke="#ff0000" stroke-width="6"/>
<g stroke="#ff0000" stroke-width="6" fill="#ff0000">
<circle cx="153" cy="396" r="3.5"/>
</g>
<path d="M174,382v -132" fill="none" stroke="#ff0000" stroke-width="6"/>
<path d="M174,243v -132" fill="none" stroke="#ff0000" stroke-width="6"/>
<path d="M164,247h 7" fill="none" stroke="#ff0000" stroke-width="6"/>
<path d="M177,247h 8" fill="none" stroke="#ff0000" stroke-width="6"/>
<g stroke="#ff0000" stroke-width="6" fill="#ff0000">
<circle cx="174" cy="247" r="3.5"/>
</g>
<path d="M195,255v -155" fill="none" stroke="#ff0000" stroke-width="6"/>
<path d="M195,94v -57" fill="none" stroke="#ff0000" stroke-width="6"/>
<path d="M185,97h 7" fill="none" stroke="#ff0000" stroke-width="6"/>
<path d="M198,97h 8" fill="none" stroke="#ff0000" stroke-width="6"/>
<g stroke="#ff0000" stroke-width="6" fill="#ff0000">
<circle cx="195" cy="97" r="3.5"/>
</g>
<path d="M216,393v -39" fill="none" stroke="#ff0000" stroke-width="6"/>
<g stroke="#ff0000" stroke-width="6" fill="#ff0000">
<circle cx="216" cy="396" r="3.5"/>
</g>
<path d="M237,269v -111" fill="none" stroke="#ff0000" stroke-width="6"/>
<path d="M237,151v -110" fill="none" stroke="#ff0000" stroke-width="6"/>
<path d="M227,155h 7" fill="none" stroke="#ff0000" stroke-width="6"/>
<path d="M241,155h 7" fill="none" stroke="#ff0000" stroke-width="6"/>
<g stroke="#ff0000" stroke-width="6" fill="#ff0000">
<circle cx="237" cy="155" r="3.5"/>
</g>
<path d="M258,393v -36" fill="none" stroke="#ff0000" stroke-width="6"/>
<g stroke="#ff0000" stroke-width="6" fill="#ff0000">
<circle cx="258" cy="396" r="3.5"/>
</g>
<path d="M279,337v -99" fill="none" stroke="#ff0000" stroke-width="6"/>
<path d="M279,232v -99" fill="none" stroke="#ff0000" stroke-width="6"/>
<path d="M269,235h 7" fill="none" stroke="#ff0000" stroke-width="6"/>
<path d="M283,235h 7" fill="none" stroke="#ff0000" stroke-width="6"/>
<g stroke="#ff0000" stroke-width="6" fill="#ff0000">
<circle cx="279" cy="235" r="3.5"/>
</g>
<path d="M300,396v -77" fill="none" stroke="#ff0000" stroke-width="6"/>
<path d="M300,312v -80" fill="none" stroke="#ff0000" stroke-width="6"/>
<path d="M290,316h 7" fill="none" stroke="#ff0000" stroke-width="6"/>
<path d="M304,316h 7" fill="none" stroke="#ff0000" stroke-width="6"/>
<g stroke="#ff0000" stroke-width="6" fill="#ff0000">
<circle cx="300" cy="316" r="3.5"/>
</g>
<path d="M322,393v -36" fill="none" stroke="#ff0000" stroke-width="6"/>
<g stroke="#ff0000" stroke-width="6" fill="#ff0000">
<circle cx="322" cy="396" r="3.5"/>
</g>
<path d="M343,343v -93" fill="none" stroke="#ff0000" stroke-width="6"/>
<path d="M343,243v -92" fill="none" stroke="#ff0000" stroke-width="6"/>
<path d="M332,247h 7" fill="none" stroke="#ff0000" stroke-width="6"/>
<path d="M346,247h 7" fill="none" stroke="#ff0000" stroke-width="6"/>
<g stroke="#ff0000" stroke-width="6" fill="#ff0000">
<circle cx="343" cy="247" r="3.5"/>
</g>
<path d="M364,396v -71" fill="none" stroke="#ff0000" stroke-width="6"/>
<path d="M364,318v -76" fill="none" stroke="#ff0000" stroke-width="6"/>
<path d="M353,321h 7" fill="none" stroke="#ff0000" stroke-width="6"/>
<path d="M367,321h 7" fill="none" stroke="#ff0000" stroke-width="6"/>
<g stroke="#ff0000" stroke-width="6" fill="#ff0000">
<circle cx="364" cy="321" r="3.5"/>
</g>
<path d="M385,393v -34" fill="none" stroke="#ff0000" stroke-width="6"/>
<g stroke="#ff0000" stroke-width="6" fill="#ff0000">
<circle cx="385" cy="396" r="3.5"/>
</g>
<path d="M406,396v -71" fill="none" stroke="#ff0000" stroke-width="6"/>
<path d="M406,318v -76" fill="none" stroke="#ff0000" stroke-width="6"/>
<path d="M395,321h 8" fill="none" stroke="#ff0000" stroke-width="6"/>
<path d="M409,321h 7" fill="none" stroke="#ff0000" stroke-width="6"/>
<g stroke="#ff0000" stroke-width="6" fill="#ff0000">
<circle cx="406" cy="321" r="3.5"/>
</g>
<path d="M427,297v -130" fill="none" stroke="#ff0000" stroke-width="6"/>
<path d="M427,160v -123" fill="none" stroke="#ff0000" stroke-width="6"/>
<path d="M416,164h 8" fill="none" stroke="#ff0000" stroke-width="6"/>
<path d="M430,164h 7" fill="none" stroke="#ff0000" stroke-width="6"/>
<g stroke="#ff0000" stroke-width="6" fill="#ff0000">
<circle cx="427" cy="164" r="3.5"/>
</g>
<path d="M448,393v -51" fill="none" stroke="#ff0000" stroke-width="6"/>
<g stroke="#ff0000" stroke-width="6" fill="#ff0000">
<circle cx="448" cy="396" r="3.5"/>
</g>
<path d="M469,393v -100" fill="none" stroke="#ff0000" stroke-width="6"/>
<g stroke="#ff0000" stroke-width="6" fill="#ff0000">
<circle cx="469" cy="396" r="3.5"/>
</g>
<path d="M490,393v -218" fill="none" stroke="#ff0000" stroke-width="6"/>
<g stroke="#ff0000" stroke-width="6" fill="#ff0000">
<circle cx="490" cy="396" r="3.5"/>
</g>
<path d="M511,393v -218" fill="none" stroke="#ff0000" stroke-width="6"/>
<g stroke="#ff0000" stroke-width="6" fill="#ff0000">
<circle cx="511" cy="396" r="3.5"/>
</g>
<path d="M332,107h 42" fill="none" stroke="#ff0000" stroke-width="6"/>
<rect x="113" y="-4" width="303" height="38" fill="white"/>
<text x="136" y="24" fill="black" font-size="30" font-family="Helvetica" font-weight="bold">
IGHD6-19_star_01
</text></svg>
