<?xml version="1.0" standalone="no"?>
<svg width="567" height="466" viewBox="0 0 567 466" xmlns="http://www.w3.org/2000/svg">
<title>
/bbx/output/_plots/example/hmm/mute-freqs/d/plots/IGHD3-16_star_02.svg
</title>
<desc>
Creator: ROOT Version 5.34/14
CreationDate: Wed Aug 19 19:38:33 2015</desc>
<defs>
</defs>
<rect x="0" y="0" width="567" height="466" fill="white"/>
<rect x="79" y="37" width="443" height="359" fill="none" stroke="black"/>
<rect x="79" y="37" width="443" height="359" fill="none" stroke="black"/>
<path d="M79,396h 443" fill="none" stroke="black" stroke-width="3"/>
<path d="M87,385v 11" fill="none" stroke="black" stroke-width="3"/>
<path d="M119,391v 5" fill="none" stroke="black" stroke-width="3"/>
<path d="M150,391v 5" fill="none" stroke="black" stroke-width="3"/>
<path d="M182,391v 5" fill="none" stroke="black" stroke-width="3"/>
<path d="M214,391v 5" fill="none" stroke="black" stroke-width="3"/>
<path d="M245,385v 11" fill="none" stroke="black" stroke-width="3"/>
<path d="M277,391v 5" fill="none" stroke="black" stroke-width="3"/>
<path d="M308,391v 5" fill="none" stroke="black" stroke-width="3"/>
<path d="M340,391v 5" fill="none" stroke="black" stroke-width="3"/>
<path d="M372,391v 5" fill="none" stroke="black" stroke-width="3"/>
<path d="M403,385v 11" fill="none" stroke="black" stroke-width="3"/>
<path d="M87,385v 11" fill="none" stroke="black" stroke-width="3"/>
<path d="M403,385v 11" fill="none" stroke="black" stroke-width="3"/>
<path d="M435,391v 5" fill="none" stroke="black" stroke-width="3"/>
<path d="M466,391v 5" fill="none" stroke="black" stroke-width="3"/>
<path d="M498,391v 5" fill="none" stroke="black" stroke-width="3"/>
<text x="81" y="416" fill="black" font-size="21" font-family="Times" font-weight="bold">
0
</text>
<text x="234" y="416" fill="black" font-size="21" font-family="Times" font-weight="bold">
10
</text>
<text x="391" y="416" fill="black" font-size="21" font-family="Times" font-weight="bold">
20
</text>
<path d="M79,37h 443" fill="none" stroke="black" stroke-width="3"/>
<path d="M87,48v -11" fill="none" stroke="black" stroke-width="3"/>
<path d="M119,43v -6" fill="none" stroke="black" stroke-width="3"/>
<path d="M150,43v -6" fill="none" stroke="black" stroke-width="3"/>
<path d="M182,43v -6" fill="none" stroke="black" stroke-width="3"/>
<path d="M214,43v -6" fill="none" stroke="black" stroke-width="3"/>
<path d="M245,48v -11" fill="none" stroke="black" stroke-width="3"/>
<path d="M277,43v -6" fill="none" stroke="black" stroke-width="3"/>
<path d="M308,43v -6" fill="none" stroke="black" stroke-width="3"/>
<path d="M340,43v -6" fill="none" stroke="black" stroke-width="3"/>
<path d="M372,43v -6" fill="none" stroke="black" stroke-width="3"/>
<path d="M403,48v -11" fill="none" stroke="black" stroke-width="3"/>
<path d="M87,48v -11" fill="none" stroke="black" stroke-width="3"/>
<path d="M403,48v -11" fill="none" stroke="black" stroke-width="3"/>
<path d="M435,43v -6" fill="none" stroke="black" stroke-width="3"/>
<path d="M466,43v -6" fill="none" stroke="black" stroke-width="3"/>
<path d="M498,43v -6" fill="none" stroke="black" stroke-width="3"/>
<path d="M79,396v -359" fill="none" stroke="black" stroke-width="3"/>
<path d="M92,396h -13" fill="none" stroke="black" stroke-width="3"/>
<path d="M86,377h -7" fill="none" stroke="black" stroke-width="3"/>
<path d="M86,359h -7" fill="none" stroke="black" stroke-width="3"/>
<path d="M86,340h -7" fill="none" stroke="black" stroke-width="3"/>
<path d="M92,321h -13" fill="none" stroke="black" stroke-width="3"/>
<path d="M86,303h -7" fill="none" stroke="black" stroke-width="3"/>
<path d="M86,284h -7" fill="none" stroke="black" stroke-width="3"/>
<path d="M86,265h -7" fill="none" stroke="black" stroke-width="3"/>
<path d="M92,247h -13" fill="none" stroke="black" stroke-width="3"/>
<path d="M86,228h -7" fill="none" stroke="black" stroke-width="3"/>
<path d="M86,209h -7" fill="none" stroke="black" stroke-width="3"/>
<path d="M86,191h -7" fill="none" stroke="black" stroke-width="3"/>
<path d="M92,172h -13" fill="none" stroke="black" stroke-width="3"/>
<path d="M86,153h -7" fill="none" stroke="black" stroke-width="3"/>
<path d="M86,135h -7" fill="none" stroke="black" stroke-width="3"/>
<path d="M86,116h -7" fill="none" stroke="black" stroke-width="3"/>
<path d="M92,97h -13" fill="none" stroke="black" stroke-width="3"/>
<path d="M92,97h -13" fill="none" stroke="black" stroke-width="3"/>
<path d="M86,78h -7" fill="none" stroke="black" stroke-width="3"/>
<path d="M86,60h -7" fill="none" stroke="black" stroke-width="3"/>
<path d="M86,41h -7" fill="none" stroke="black" stroke-width="3"/>
<text x="46" y="404" fill="black" font-size="21" font-family="Times" font-weight="bold">
0.0
</text>
<text x="46" y="329" fill="black" font-size="21" font-family="Times" font-weight="bold">
0.2
</text>
<text x="46" y="254" fill="black" font-size="21" font-family="Times" font-weight="bold">
0.4
</text>
<text x="46" y="179" fill="black" font-size="21" font-family="Times" font-weight="bold">
0.6
</text>
<text x="46" y="105" fill="black" font-size="21" font-family="Times" font-weight="bold">
0.8
</text>
<path d="M522,396v -359" fill="none" stroke="black" stroke-width="3"/>
<path d="M508,396h 14" fill="none" stroke="black" stroke-width="3"/>
<path d="M515,377h 7" fill="none" stroke="black" stroke-width="3"/>
<path d="M515,359h 7" fill="none" stroke="black" stroke-width="3"/>
<path d="M515,340h 7" fill="none" stroke="black" stroke-width="3"/>
<path d="M508,321h 14" fill="none" stroke="black" stroke-width="3"/>
<path d="M515,303h 7" fill="none" stroke="black" stroke-width="3"/>
<path d="M515,284h 7" fill="none" stroke="black" stroke-width="3"/>
<path d="M515,265h 7" fill="none" stroke="black" stroke-width="3"/>
<path d="M508,247h 14" fill="none" stroke="black" stroke-width="3"/>
<path d="M515,228h 7" fill="none" stroke="black" stroke-width="3"/>
<path d="M515,209h 7" fill="none" stroke="black" stroke-width="3"/>
<path d="M515,191h 7" fill="none" stroke="black" stroke-width="3"/>
<path d="M508,172h 14" fill="none" stroke="black" stroke-width="3"/>
<path d="M515,153h 7" fill="none" stroke="black" stroke-width="3"/>
<path d="M515,135h 7" fill="none" stroke="black" stroke-width="3"/>
<path d="M515,116h 7" fill="none" stroke="black" stroke-width="3"/>
<path d="M508,97h 14" fill="none" stroke="black" stroke-width="3"/>
<path d="M508,97h 14" fill="none" stroke="black" stroke-width="3"/>
<path d="M515,78h 7" fill="none" stroke="black" stroke-width="3"/>
<path d="M515,60h 7" fill="none" stroke="black" stroke-width="3"/>
<path d="M515,41h 7" fill="none" stroke="black" stroke-width="3"/>
<rect x="113" y="-4" width="304" height="38" fill="white"/>
<text x="135" y="24" fill="black" font-size="30" font-family="Helvetica" font-weight="bold">
IGHD3-16_star_02
</text>
<path d="M87,393v -28" fill="none" stroke="#ff0000" stroke-width="6"/>
<g stroke="#ff0000" stroke-width="6" fill="#ff0000">
<circle cx="87" cy="396" r="3.5"/>
</g>
<path d="M103,157v -57" fill="none" stroke="#ff0000" stroke-width="6"/>
<path d="M103,94v -57" fill="none" stroke="#ff0000" stroke-width="6"/>
<path d="M95,97h 5" fill="none" stroke="#ff0000" stroke-width="6"/>
<path d="M106,97h 5" fill="none" stroke="#ff0000" stroke-width="6"/>
<g stroke="#ff0000" stroke-width="6" fill="#ff0000">
<circle cx="103" cy="97" r="3.5"/>
</g>
<path d="M119,393v -28" fill="none" stroke="#ff0000" stroke-width="6"/>
<g stroke="#ff0000" stroke-width="6" fill="#ff0000">
<circle cx="119" cy="396" r="3.5"/>
</g>
<path d="M135,393v -28" fill="none" stroke="#ff0000" stroke-width="6"/>
<g stroke="#ff0000" stroke-width="6" fill="#ff0000">
<circle cx="135" cy="396" r="3.5"/>
</g>
<path d="M150,239v -64" fill="none" stroke="#ff0000" stroke-width="6"/>
<path d="M150,169v -65" fill="none" stroke="#ff0000" stroke-width="6"/>
<path d="M143,172h 4" fill="none" stroke="#ff0000" stroke-width="6"/>
<path d="M154,172h 4" fill="none" stroke="#ff0000" stroke-width="6"/>
<g stroke="#ff0000" stroke-width="6" fill="#ff0000">
<circle cx="150" cy="172" r="3.5"/>
</g>
<path d="M166,393v -28" fill="none" stroke="#ff0000" stroke-width="6"/>
<g stroke="#ff0000" stroke-width="6" fill="#ff0000">
<circle cx="166" cy="396" r="3.5"/>
</g>
<path d="M182,382v -57" fill="none" stroke="#ff0000" stroke-width="6"/>
<path d="M182,318v -57" fill="none" stroke="#ff0000" stroke-width="6"/>
<path d="M174,321h 5" fill="none" stroke="#ff0000" stroke-width="6"/>
<path d="M185,321h 5" fill="none" stroke="#ff0000" stroke-width="6"/>
<g stroke="#ff0000" stroke-width="6" fill="#ff0000">
<circle cx="182" cy="321" r="3.5"/>
</g>
<path d="M198,393v -28" fill="none" stroke="#ff0000" stroke-width="6"/>
<g stroke="#ff0000" stroke-width="6" fill="#ff0000">
<circle cx="198" cy="396" r="3.5"/>
</g>
<path d="M214,393v -28" fill="none" stroke="#ff0000" stroke-width="6"/>
<g stroke="#ff0000" stroke-width="6" fill="#ff0000">
<circle cx="214" cy="396" r="3.5"/>
</g>
<path d="M229,382v -57" fill="none" stroke="#ff0000" stroke-width="6"/>
<path d="M229,318v -57" fill="none" stroke="#ff0000" stroke-width="6"/>
<path d="M222,321h 4" fill="none" stroke="#ff0000" stroke-width="6"/>
<path d="M233,321h 4" fill="none" stroke="#ff0000" stroke-width="6"/>
<g stroke="#ff0000" stroke-width="6" fill="#ff0000">
<circle cx="229" cy="321" r="3.5"/>
</g>
<path d="M245,314v -64" fill="none" stroke="#ff0000" stroke-width="6"/>
<path d="M245,243v -64" fill="none" stroke="#ff0000" stroke-width="6"/>
<path d="M237,247h 5" fill="none" stroke="#ff0000" stroke-width="6"/>
<path d="M248,247h 5" fill="none" stroke="#ff0000" stroke-width="6"/>
<g stroke="#ff0000" stroke-width="6" fill="#ff0000">
<circle cx="245" cy="247" r="3.5"/>
</g>
<path d="M261,393v -42" fill="none" stroke="#ff0000" stroke-width="6"/>
<g stroke="#ff0000" stroke-width="6" fill="#ff0000">
<circle cx="261" cy="396" r="3.5"/>
</g>
<path d="M277,393v -42" fill="none" stroke="#ff0000" stroke-width="6"/>
<g stroke="#ff0000" stroke-width="6" fill="#ff0000">
<circle cx="277" cy="396" r="3.5"/>
</g>
<path d="M293,350v -75" fill="none" stroke="#ff0000" stroke-width="6"/>
<path d="M293,268v -75" fill="none" stroke="#ff0000" stroke-width="6"/>
<path d="M285,272h 4" fill="none" stroke="#ff0000" stroke-width="6"/>
<path d="M296,272h 4" fill="none" stroke="#ff0000" stroke-width="6"/>
<g stroke="#ff0000" stroke-width="6" fill="#ff0000">
<circle cx="293" cy="272" r="3.5"/>
</g>
<path d="M308,393v -42" fill="none" stroke="#ff0000" stroke-width="6"/>
<g stroke="#ff0000" stroke-width="6" fill="#ff0000">
<circle cx="308" cy="396" r="3.5"/>
</g>
<path d="M324,226v -76" fill="none" stroke="#ff0000" stroke-width="6"/>
<path d="M324,144v -76" fill="none" stroke="#ff0000" stroke-width="6"/>
<path d="M316,147h 5" fill="none" stroke="#ff0000" stroke-width="6"/>
<path d="M327,147h 5" fill="none" stroke="#ff0000" stroke-width="6"/>
<g stroke="#ff0000" stroke-width="6" fill="#ff0000">
<circle cx="324" cy="147" r="3.5"/>
</g>
<path d="M340,393v -18" fill="none" stroke="#ff0000" stroke-width="6"/>
<g stroke="#ff0000" stroke-width="6" fill="#ff0000">
<circle cx="340" cy="396" r="3.5"/>
</g>
<path d="M356,393v -40" fill="none" stroke="#ff0000" stroke-width="6"/>
<path d="M356,346v -40" fill="none" stroke="#ff0000" stroke-width="6"/>
<path d="M348,349h 4" fill="none" stroke="#ff0000" stroke-width="6"/>
<path d="M359,349h 5" fill="none" stroke="#ff0000" stroke-width="6"/>
<g stroke="#ff0000" stroke-width="6" fill="#ff0000">
<circle cx="356" cy="349" r="3.5"/>
</g>
<path d="M372,354v -48" fill="none" stroke="#ff0000" stroke-width="6"/>
<path d="M372,299v -48" fill="none" stroke="#ff0000" stroke-width="6"/>
<path d="M364,303h 4" fill="none" stroke="#ff0000" stroke-width="6"/>
<path d="M375,303h 4" fill="none" stroke="#ff0000" stroke-width="6"/>
<g stroke="#ff0000" stroke-width="6" fill="#ff0000">
<circle cx="372" cy="303" r="3.5"/>
</g>
<path d="M387,393v -18" fill="none" stroke="#ff0000" stroke-width="6"/>
<g stroke="#ff0000" stroke-width="6" fill="#ff0000">
<circle cx="387" cy="396" r="3.5"/>
</g>
<path d="M403,393v -40" fill="none" stroke="#ff0000" stroke-width="6"/>
<path d="M403,346v -40" fill="none" stroke="#ff0000" stroke-width="6"/>
<path d="M395,349h 5" fill="none" stroke="#ff0000" stroke-width="6"/>
<path d="M406,349h 5" fill="none" stroke="#ff0000" stroke-width="6"/>
<g stroke="#ff0000" stroke-width="6" fill="#ff0000">
<circle cx="403" cy="349" r="3.5"/>
</g>
<path d="M419,354v -48" fill="none" stroke="#ff0000" stroke-width="6"/>
<path d="M419,299v -48" fill="none" stroke="#ff0000" stroke-width="6"/>
<path d="M411,303h 5" fill="none" stroke="#ff0000" stroke-width="6"/>
<path d="M422,303h 5" fill="none" stroke="#ff0000" stroke-width="6"/>
<g stroke="#ff0000" stroke-width="6" fill="#ff0000">
<circle cx="419" cy="303" r="3.5"/>
</g>
<path d="M435,393v -40" fill="none" stroke="#ff0000" stroke-width="6"/>
<path d="M435,346v -40" fill="none" stroke="#ff0000" stroke-width="6"/>
<path d="M427,349h 4" fill="none" stroke="#ff0000" stroke-width="6"/>
<path d="M438,349h 5" fill="none" stroke="#ff0000" stroke-width="6"/>
<g stroke="#ff0000" stroke-width="6" fill="#ff0000">
<circle cx="435" cy="349" r="3.5"/>
</g>
<path d="M451,393v -40" fill="none" stroke="#ff0000" stroke-width="6"/>
<path d="M451,346v -40" fill="none" stroke="#ff0000" stroke-width="6"/>
<path d="M443,349h 4" fill="none" stroke="#ff0000" stroke-width="6"/>
<path d="M454,349h 4" fill="none" stroke="#ff0000" stroke-width="6"/>
<g stroke="#ff0000" stroke-width="6" fill="#ff0000">
<circle cx="451" cy="349" r="3.5"/>
</g>
<path d="M466,266v -53" fill="none" stroke="#ff0000" stroke-width="6"/>
<path d="M466,206v -54" fill="none" stroke="#ff0000" stroke-width="6"/>
<path d="M458,209h 5" fill="none" stroke="#ff0000" stroke-width="6"/>
<path d="M470,209h 4" fill="none" stroke="#ff0000" stroke-width="6"/>
<g stroke="#ff0000" stroke-width="6" fill="#ff0000">
<circle cx="466" cy="209" r="3.5"/>
</g>
<path d="M482,185v -53" fill="none" stroke="#ff0000" stroke-width="6"/>
<path d="M482,126v -53" fill="none" stroke="#ff0000" stroke-width="6"/>
<path d="M474,129h 5" fill="none" stroke="#ff0000" stroke-width="6"/>
<path d="M485,129h 5" fill="none" stroke="#ff0000" stroke-width="6"/>
<g stroke="#ff0000" stroke-width="6" fill="#ff0000">
<circle cx="482" cy="129" r="3.5"/>
</g>
<path d="M498,393v -28" fill="none" stroke="#ff0000" stroke-width="6"/>
<g stroke="#ff0000" stroke-width="6" fill="#ff0000">
<circle cx="498" cy="396" r="3.5"/>
</g>
<path d="M514,393v -28" fill="none" stroke="#ff0000" stroke-width="6"/>
<g stroke="#ff0000" stroke-width="6" fill="#ff0000">
<circle cx="514" cy="396" r="3.5"/>
</g>
<path d="M332,107h 42" fill="none" stroke="#ff0000" stroke-width="6"/>
<rect x="113" y="-4" width="304" height="38" fill="white"/>
<text x="135" y="24" fill="black" font-size="30" font-family="Helvetica" font-weight="bold">
IGHD3-16_star_02
</text></svg>
