<?xml version="1.0" standalone="no"?>
<svg width="567" height="466" viewBox="0 0 567 466" xmlns="http://www.w3.org/2000/svg">
<title>
/bbx/output/_plots/example/hmm/j_5p_del/plots/IGHJ6_star_03-j_5p_del.svg
</title>
<desc>
Creator: ROOT Version 5.34/14
CreationDate: Wed Aug 19 19:38:30 2015</desc>
<defs>
</defs>
<rect x="0" y="0" width="567" height="466" fill="white"/>
<rect x="79" y="37" width="443" height="359" fill="none" stroke="black"/>
<rect x="79" y="37" width="443" height="359" fill="none" stroke="black"/>
<path d="M79,396h 443" fill="none" stroke="black" stroke-width="3"/>
<path d="M180,385v 11" fill="none" stroke="black" stroke-width="3"/>
<path d="M220,391v 5" fill="none" stroke="black" stroke-width="3"/>
<path d="M260,391v 5" fill="none" stroke="black" stroke-width="3"/>
<path d="M300,391v 5" fill="none" stroke="black" stroke-width="3"/>
<path d="M341,391v 5" fill="none" stroke="black" stroke-width="3"/>
<path d="M381,385v 11" fill="none" stroke="black" stroke-width="3"/>
<path d="M180,385v 11" fill="none" stroke="black" stroke-width="3"/>
<path d="M140,391v 5" fill="none" stroke="black" stroke-width="3"/>
<path d="M99,391v 5" fill="none" stroke="black" stroke-width="3"/>
<path d="M381,385v 11" fill="none" stroke="black" stroke-width="3"/>
<path d="M421,391v 5" fill="none" stroke="black" stroke-width="3"/>
<path d="M461,391v 5" fill="none" stroke="black" stroke-width="3"/>
<path d="M501,391v 5" fill="none" stroke="black" stroke-width="3"/>
<text x="168" y="416" fill="black" font-size="21" font-family="Times" font-weight="bold">
10
</text>
<text x="369" y="416" fill="black" font-size="21" font-family="Times" font-weight="bold">
15
</text>
<path d="M79,37h 443" fill="none" stroke="black" stroke-width="3"/>
<path d="M180,48v -11" fill="none" stroke="black" stroke-width="3"/>
<path d="M220,43v -6" fill="none" stroke="black" stroke-width="3"/>
<path d="M260,43v -6" fill="none" stroke="black" stroke-width="3"/>
<path d="M300,43v -6" fill="none" stroke="black" stroke-width="3"/>
<path d="M341,43v -6" fill="none" stroke="black" stroke-width="3"/>
<path d="M381,48v -11" fill="none" stroke="black" stroke-width="3"/>
<path d="M180,48v -11" fill="none" stroke="black" stroke-width="3"/>
<path d="M140,43v -6" fill="none" stroke="black" stroke-width="3"/>
<path d="M99,43v -6" fill="none" stroke="black" stroke-width="3"/>
<path d="M381,48v -11" fill="none" stroke="black" stroke-width="3"/>
<path d="M421,43v -6" fill="none" stroke="black" stroke-width="3"/>
<path d="M461,43v -6" fill="none" stroke="black" stroke-width="3"/>
<path d="M501,43v -6" fill="none" stroke="black" stroke-width="3"/>
<path d="M79,396v -359" fill="none" stroke="black" stroke-width="3"/>
<path d="M92,396h -13" fill="none" stroke="black" stroke-width="3"/>
<path d="M86,371h -7" fill="none" stroke="black" stroke-width="3"/>
<path d="M86,346h -7" fill="none" stroke="black" stroke-width="3"/>
<path d="M86,321h -7" fill="none" stroke="black" stroke-width="3"/>
<path d="M92,296h -13" fill="none" stroke="black" stroke-width="3"/>
<path d="M86,272h -7" fill="none" stroke="black" stroke-width="3"/>
<path d="M86,247h -7" fill="none" stroke="black" stroke-width="3"/>
<path d="M86,222h -7" fill="none" stroke="black" stroke-width="3"/>
<path d="M92,197h -13" fill="none" stroke="black" stroke-width="3"/>
<path d="M86,172h -7" fill="none" stroke="black" stroke-width="3"/>
<path d="M86,147h -7" fill="none" stroke="black" stroke-width="3"/>
<path d="M86,122h -7" fill="none" stroke="black" stroke-width="3"/>
<path d="M92,97h -13" fill="none" stroke="black" stroke-width="3"/>
<path d="M92,97h -13" fill="none" stroke="black" stroke-width="3"/>
<path d="M86,72h -7" fill="none" stroke="black" stroke-width="3"/>
<path d="M86,47h -7" fill="none" stroke="black" stroke-width="3"/>
<text x="63" y="404" fill="black" font-size="21" font-family="Times" font-weight="bold">
0
</text>
<text x="63" y="304" fill="black" font-size="21" font-family="Times" font-weight="bold">
2
</text>
<text x="63" y="205" fill="black" font-size="21" font-family="Times" font-weight="bold">
4
</text>
<text x="63" y="105" fill="black" font-size="21" font-family="Times" font-weight="bold">
6
</text>
<path d="M522,396v -359" fill="none" stroke="black" stroke-width="3"/>
<path d="M508,396h 14" fill="none" stroke="black" stroke-width="3"/>
<path d="M515,371h 7" fill="none" stroke="black" stroke-width="3"/>
<path d="M515,346h 7" fill="none" stroke="black" stroke-width="3"/>
<path d="M515,321h 7" fill="none" stroke="black" stroke-width="3"/>
<path d="M508,296h 14" fill="none" stroke="black" stroke-width="3"/>
<path d="M515,272h 7" fill="none" stroke="black" stroke-width="3"/>
<path d="M515,247h 7" fill="none" stroke="black" stroke-width="3"/>
<path d="M515,222h 7" fill="none" stroke="black" stroke-width="3"/>
<path d="M508,197h 14" fill="none" stroke="black" stroke-width="3"/>
<path d="M515,172h 7" fill="none" stroke="black" stroke-width="3"/>
<path d="M515,147h 7" fill="none" stroke="black" stroke-width="3"/>
<path d="M515,122h 7" fill="none" stroke="black" stroke-width="3"/>
<path d="M508,97h 14" fill="none" stroke="black" stroke-width="3"/>
<path d="M508,97h 14" fill="none" stroke="black" stroke-width="3"/>
<path d="M515,72h 7" fill="none" stroke="black" stroke-width="3"/>
<path d="M515,47h 7" fill="none" stroke="black" stroke-width="3"/>
<rect x="113" y="-4" width="392" height="40" fill="white"/>
<text x="128" y="25" fill="black" font-size="31" font-family="Helvetica" font-weight="bold">
IGHJ6_star_03-j_5p_del
</text>
<path d="M99,367v -67" fill="none" stroke="#ff0000" stroke-width="6"/>
<path d="M99,293v -67" fill="none" stroke="#ff0000" stroke-width="6"/>
<g stroke="#ff0000" stroke-width="6" fill="#ff0000">
<circle cx="99" cy="296" r="3.5"/>
</g>
<path d="M180,219v -119" fill="none" stroke="#ff0000" stroke-width="6"/>
<path d="M180,94v -57" fill="none" stroke="#ff0000" stroke-width="6"/>
<g stroke="#ff0000" stroke-width="6" fill="#ff0000">
<circle cx="180" cy="97" r="3.5"/>
</g>
<path d="M300,367v -67" fill="none" stroke="#ff0000" stroke-width="6"/>
<path d="M300,293v -67" fill="none" stroke="#ff0000" stroke-width="6"/>
<g stroke="#ff0000" stroke-width="6" fill="#ff0000">
<circle cx="300" cy="296" r="3.5"/>
</g>
<path d="M341,296v -96" fill="none" stroke="#ff0000" stroke-width="6"/>
<path d="M341,194v -97" fill="none" stroke="#ff0000" stroke-width="6"/>
<g stroke="#ff0000" stroke-width="6" fill="#ff0000">
<circle cx="341" cy="197" r="3.5"/>
</g>
<path d="M501,396v -46" fill="none" stroke="#ff0000" stroke-width="6"/>
<path d="M501,343v -47" fill="none" stroke="#ff0000" stroke-width="6"/>
<g stroke="#ff0000" stroke-width="6" fill="#ff0000">
<circle cx="501" cy="346" r="3.5"/>
</g>
<path d="M80,395v -99h 40v 99h 40v -298h 40v 298h 80v -99h 41v -99h 40v 198h 120v -49h 41" fill="none" stroke="#ff0000" stroke-width="6"/>
<path d="M332,107h 42" fill="none" stroke="#ff0000" stroke-width="6"/>
<rect x="113" y="-4" width="392" height="40" fill="white"/>
<text x="128" y="25" fill="black" font-size="31" font-family="Helvetica" font-weight="bold">
IGHJ6_star_03-j_5p_del
</text></svg>
