<?xml version="1.0" standalone="no"?>
<svg width="567" height="466" viewBox="0 0 567 466" xmlns="http://www.w3.org/2000/svg">
<title>
/bbx/output/_plots/example/sw/mute-freqs/d/plots/IGHD6-13_star_01.svg
</title>
<desc>
Creator: ROOT Version 5.34/14
CreationDate: Wed Aug 19 21:59:58 2015</desc>
<defs>
</defs>
<rect x="0" y="0" width="567" height="466" fill="white"/>
<rect x="79" y="37" width="443" height="359" fill="none" stroke="black"/>
<rect x="79" y="37" width="443" height="359" fill="none" stroke="black"/>
<path d="M79,396h 443" fill="none" stroke="black" stroke-width="3"/>
<path d="M90,385v 11" fill="none" stroke="black" stroke-width="3"/>
<path d="M111,391v 5" fill="none" stroke="black" stroke-width="3"/>
<path d="M132,391v 5" fill="none" stroke="black" stroke-width="3"/>
<path d="M153,391v 5" fill="none" stroke="black" stroke-width="3"/>
<path d="M174,391v 5" fill="none" stroke="black" stroke-width="3"/>
<path d="M195,385v 11" fill="none" stroke="black" stroke-width="3"/>
<path d="M216,391v 5" fill="none" stroke="black" stroke-width="3"/>
<path d="M237,391v 5" fill="none" stroke="black" stroke-width="3"/>
<path d="M258,391v 5" fill="none" stroke="black" stroke-width="3"/>
<path d="M279,391v 5" fill="none" stroke="black" stroke-width="3"/>
<path d="M300,385v 11" fill="none" stroke="black" stroke-width="3"/>
<path d="M322,391v 5" fill="none" stroke="black" stroke-width="3"/>
<path d="M343,391v 5" fill="none" stroke="black" stroke-width="3"/>
<path d="M364,391v 5" fill="none" stroke="black" stroke-width="3"/>
<path d="M385,391v 5" fill="none" stroke="black" stroke-width="3"/>
<path d="M406,385v 11" fill="none" stroke="black" stroke-width="3"/>
<path d="M427,391v 5" fill="none" stroke="black" stroke-width="3"/>
<path d="M448,391v 5" fill="none" stroke="black" stroke-width="3"/>
<path d="M469,391v 5" fill="none" stroke="black" stroke-width="3"/>
<path d="M490,391v 5" fill="none" stroke="black" stroke-width="3"/>
<path d="M511,385v 11" fill="none" stroke="black" stroke-width="3"/>
<path d="M90,385v 11" fill="none" stroke="black" stroke-width="3"/>
<path d="M511,385v 11" fill="none" stroke="black" stroke-width="3"/>
<text x="84" y="416" fill="black" font-size="21" font-family="Times" font-weight="bold">
0
</text>
<text x="189" y="416" fill="black" font-size="21" font-family="Times" font-weight="bold">
5
</text>
<text x="288" y="416" fill="black" font-size="21" font-family="Times" font-weight="bold">
10
</text>
<text x="394" y="416" fill="black" font-size="21" font-family="Times" font-weight="bold">
15
</text>
<text x="499" y="416" fill="black" font-size="21" font-family="Times" font-weight="bold">
20
</text>
<path d="M79,37h 443" fill="none" stroke="black" stroke-width="3"/>
<path d="M90,48v -11" fill="none" stroke="black" stroke-width="3"/>
<path d="M111,43v -6" fill="none" stroke="black" stroke-width="3"/>
<path d="M132,43v -6" fill="none" stroke="black" stroke-width="3"/>
<path d="M153,43v -6" fill="none" stroke="black" stroke-width="3"/>
<path d="M174,43v -6" fill="none" stroke="black" stroke-width="3"/>
<path d="M195,48v -11" fill="none" stroke="black" stroke-width="3"/>
<path d="M216,43v -6" fill="none" stroke="black" stroke-width="3"/>
<path d="M237,43v -6" fill="none" stroke="black" stroke-width="3"/>
<path d="M258,43v -6" fill="none" stroke="black" stroke-width="3"/>
<path d="M279,43v -6" fill="none" stroke="black" stroke-width="3"/>
<path d="M300,48v -11" fill="none" stroke="black" stroke-width="3"/>
<path d="M322,43v -6" fill="none" stroke="black" stroke-width="3"/>
<path d="M343,43v -6" fill="none" stroke="black" stroke-width="3"/>
<path d="M364,43v -6" fill="none" stroke="black" stroke-width="3"/>
<path d="M385,43v -6" fill="none" stroke="black" stroke-width="3"/>
<path d="M406,48v -11" fill="none" stroke="black" stroke-width="3"/>
<path d="M427,43v -6" fill="none" stroke="black" stroke-width="3"/>
<path d="M448,43v -6" fill="none" stroke="black" stroke-width="3"/>
<path d="M469,43v -6" fill="none" stroke="black" stroke-width="3"/>
<path d="M490,43v -6" fill="none" stroke="black" stroke-width="3"/>
<path d="M511,48v -11" fill="none" stroke="black" stroke-width="3"/>
<path d="M90,48v -11" fill="none" stroke="black" stroke-width="3"/>
<path d="M511,48v -11" fill="none" stroke="black" stroke-width="3"/>
<path d="M79,396v -359" fill="none" stroke="black" stroke-width="3"/>
<path d="M92,396h -13" fill="none" stroke="black" stroke-width="3"/>
<path d="M86,370h -7" fill="none" stroke="black" stroke-width="3"/>
<path d="M86,344h -7" fill="none" stroke="black" stroke-width="3"/>
<path d="M86,318h -7" fill="none" stroke="black" stroke-width="3"/>
<path d="M92,291h -13" fill="none" stroke="black" stroke-width="3"/>
<path d="M86,265h -7" fill="none" stroke="black" stroke-width="3"/>
<path d="M86,239h -7" fill="none" stroke="black" stroke-width="3"/>
<path d="M86,213h -7" fill="none" stroke="black" stroke-width="3"/>
<path d="M92,187h -13" fill="none" stroke="black" stroke-width="3"/>
<path d="M86,161h -7" fill="none" stroke="black" stroke-width="3"/>
<path d="M86,135h -7" fill="none" stroke="black" stroke-width="3"/>
<path d="M86,108h -7" fill="none" stroke="black" stroke-width="3"/>
<path d="M92,82h -13" fill="none" stroke="black" stroke-width="3"/>
<path d="M92,82h -13" fill="none" stroke="black" stroke-width="3"/>
<path d="M86,56h -7" fill="none" stroke="black" stroke-width="3"/>
<text x="46" y="404" fill="black" font-size="21" font-family="Times" font-weight="bold">
0.0
</text>
<text x="46" y="299" fill="black" font-size="21" font-family="Times" font-weight="bold">
0.2
</text>
<text x="46" y="195" fill="black" font-size="21" font-family="Times" font-weight="bold">
0.4
</text>
<text x="46" y="90" fill="black" font-size="21" font-family="Times" font-weight="bold">
0.6
</text>
<path d="M522,396v -359" fill="none" stroke="black" stroke-width="3"/>
<path d="M508,396h 14" fill="none" stroke="black" stroke-width="3"/>
<path d="M515,370h 7" fill="none" stroke="black" stroke-width="3"/>
<path d="M515,344h 7" fill="none" stroke="black" stroke-width="3"/>
<path d="M515,318h 7" fill="none" stroke="black" stroke-width="3"/>
<path d="M508,291h 14" fill="none" stroke="black" stroke-width="3"/>
<path d="M515,265h 7" fill="none" stroke="black" stroke-width="3"/>
<path d="M515,239h 7" fill="none" stroke="black" stroke-width="3"/>
<path d="M515,213h 7" fill="none" stroke="black" stroke-width="3"/>
<path d="M508,187h 14" fill="none" stroke="black" stroke-width="3"/>
<path d="M515,161h 7" fill="none" stroke="black" stroke-width="3"/>
<path d="M515,135h 7" fill="none" stroke="black" stroke-width="3"/>
<path d="M515,108h 7" fill="none" stroke="black" stroke-width="3"/>
<path d="M508,82h 14" fill="none" stroke="black" stroke-width="3"/>
<path d="M508,82h 14" fill="none" stroke="black" stroke-width="3"/>
<path d="M515,56h 7" fill="none" stroke="black" stroke-width="3"/>
<rect x="113" y="-4" width="303" height="38" fill="white"/>
<text x="136" y="24" fill="black" font-size="30" font-family="Helvetica" font-weight="bold">
IGHD6-13_star_01
</text>
<path d="M90,393v -17" fill="none" stroke="#ff0000" stroke-width="6"/>
<g stroke="#ff0000" stroke-width="6" fill="#ff0000">
<circle cx="90" cy="396" r="3.5"/>
</g>
<path d="M111,393v -17" fill="none" stroke="#ff0000" stroke-width="6"/>
<g stroke="#ff0000" stroke-width="6" fill="#ff0000">
<circle cx="111" cy="396" r="3.5"/>
</g>
<path d="M132,393v -15" fill="none" stroke="#ff0000" stroke-width="6"/>
<g stroke="#ff0000" stroke-width="6" fill="#ff0000">
<circle cx="132" cy="396" r="3.5"/>
</g>
<path d="M153,338v -51" fill="none" stroke="#ff0000" stroke-width="6"/>
<path d="M153,281v -51" fill="none" stroke="#ff0000" stroke-width="6"/>
<path d="M143,284h 7" fill="none" stroke="#ff0000" stroke-width="6"/>
<path d="M156,284h 8" fill="none" stroke="#ff0000" stroke-width="6"/>
<g stroke="#ff0000" stroke-width="6" fill="#ff0000">
<circle cx="153" cy="284" r="3.5"/>
</g>
<path d="M174,338v -51" fill="none" stroke="#ff0000" stroke-width="6"/>
<path d="M174,281v -51" fill="none" stroke="#ff0000" stroke-width="6"/>
<path d="M164,284h 7" fill="none" stroke="#ff0000" stroke-width="6"/>
<path d="M177,284h 8" fill="none" stroke="#ff0000" stroke-width="6"/>
<g stroke="#ff0000" stroke-width="6" fill="#ff0000">
<circle cx="174" cy="284" r="3.5"/>
</g>
<path d="M195,160v -60" fill="none" stroke="#ff0000" stroke-width="6"/>
<path d="M195,94v -57" fill="none" stroke="#ff0000" stroke-width="6"/>
<path d="M185,97h 7" fill="none" stroke="#ff0000" stroke-width="6"/>
<path d="M198,97h 8" fill="none" stroke="#ff0000" stroke-width="6"/>
<g stroke="#ff0000" stroke-width="6" fill="#ff0000">
<circle cx="195" cy="97" r="3.5"/>
</g>
<path d="M216,296v -51" fill="none" stroke="#ff0000" stroke-width="6"/>
<path d="M216,239v -50" fill="none" stroke="#ff0000" stroke-width="6"/>
<path d="M206,242h 7" fill="none" stroke="#ff0000" stroke-width="6"/>
<path d="M220,242h 7" fill="none" stroke="#ff0000" stroke-width="6"/>
<g stroke="#ff0000" stroke-width="6" fill="#ff0000">
<circle cx="216" cy="242" r="3.5"/>
</g>
<path d="M237,393v -9" fill="none" stroke="#ff0000" stroke-width="6"/>
<g stroke="#ff0000" stroke-width="6" fill="#ff0000">
<circle cx="237" cy="396" r="3.5"/>
</g>
<path d="M258,393v -9" fill="none" stroke="#ff0000" stroke-width="6"/>
<g stroke="#ff0000" stroke-width="6" fill="#ff0000">
<circle cx="258" cy="396" r="3.5"/>
</g>
<path d="M279,284v -44" fill="none" stroke="#ff0000" stroke-width="6"/>
<path d="M279,234v -44" fill="none" stroke="#ff0000" stroke-width="6"/>
<path d="M269,237h 7" fill="none" stroke="#ff0000" stroke-width="6"/>
<path d="M283,237h 7" fill="none" stroke="#ff0000" stroke-width="6"/>
<g stroke="#ff0000" stroke-width="6" fill="#ff0000">
<circle cx="279" cy="237" r="3.5"/>
</g>
<path d="M300,396v -19" fill="none" stroke="#ff0000" stroke-width="6"/>
<path d="M300,370v -22" fill="none" stroke="#ff0000" stroke-width="6"/>
<path d="M290,373h 7" fill="none" stroke="#ff0000" stroke-width="6"/>
<path d="M304,373h 7" fill="none" stroke="#ff0000" stroke-width="6"/>
<g stroke="#ff0000" stroke-width="6" fill="#ff0000">
<circle cx="300" cy="373" r="3.5"/>
</g>
<path d="M322,393v -9" fill="none" stroke="#ff0000" stroke-width="6"/>
<g stroke="#ff0000" stroke-width="6" fill="#ff0000">
<circle cx="322" cy="396" r="3.5"/>
</g>
<path d="M343,393v -9" fill="none" stroke="#ff0000" stroke-width="6"/>
<g stroke="#ff0000" stroke-width="6" fill="#ff0000">
<circle cx="343" cy="396" r="3.5"/>
</g>
<path d="M364,396v -20" fill="none" stroke="#ff0000" stroke-width="6"/>
<path d="M364,369v -23" fill="none" stroke="#ff0000" stroke-width="6"/>
<path d="M353,372h 7" fill="none" stroke="#ff0000" stroke-width="6"/>
<path d="M367,372h 7" fill="none" stroke="#ff0000" stroke-width="6"/>
<g stroke="#ff0000" stroke-width="6" fill="#ff0000">
<circle cx="364" cy="372" r="3.5"/>
</g>
<path d="M385,342v -38" fill="none" stroke="#ff0000" stroke-width="6"/>
<path d="M385,298v -38" fill="none" stroke="#ff0000" stroke-width="6"/>
<path d="M374,301h 7" fill="none" stroke="#ff0000" stroke-width="6"/>
<path d="M388,301h 7" fill="none" stroke="#ff0000" stroke-width="6"/>
<g stroke="#ff0000" stroke-width="6" fill="#ff0000">
<circle cx="385" cy="301" r="3.5"/>
</g>
<path d="M406,393v -10" fill="none" stroke="#ff0000" stroke-width="6"/>
<g stroke="#ff0000" stroke-width="6" fill="#ff0000">
<circle cx="406" cy="396" r="3.5"/>
</g>
<path d="M427,392v -58" fill="none" stroke="#ff0000" stroke-width="6"/>
<path d="M427,327v -58" fill="none" stroke="#ff0000" stroke-width="6"/>
<path d="M416,331h 8" fill="none" stroke="#ff0000" stroke-width="6"/>
<path d="M430,331h 7" fill="none" stroke="#ff0000" stroke-width="6"/>
<g stroke="#ff0000" stroke-width="6" fill="#ff0000">
<circle cx="427" cy="331" r="3.5"/>
</g>
<path d="M448,338v -69" fill="none" stroke="#ff0000" stroke-width="6"/>
<path d="M448,262v -69" fill="none" stroke="#ff0000" stroke-width="6"/>
<path d="M437,265h 8" fill="none" stroke="#ff0000" stroke-width="6"/>
<path d="M451,265h 7" fill="none" stroke="#ff0000" stroke-width="6"/>
<g stroke="#ff0000" stroke-width="6" fill="#ff0000">
<circle cx="448" cy="265" r="3.5"/>
</g>
<path d="M469,393v -30" fill="none" stroke="#ff0000" stroke-width="6"/>
<g stroke="#ff0000" stroke-width="6" fill="#ff0000">
<circle cx="469" cy="396" r="3.5"/>
</g>
<path d="M490,389v -64" fill="none" stroke="#ff0000" stroke-width="6"/>
<path d="M490,318v -64" fill="none" stroke="#ff0000" stroke-width="6"/>
<path d="M479,321h 8" fill="none" stroke="#ff0000" stroke-width="6"/>
<path d="M493,321h 8" fill="none" stroke="#ff0000" stroke-width="6"/>
<g stroke="#ff0000" stroke-width="6" fill="#ff0000">
<circle cx="490" cy="321" r="3.5"/>
</g>
<path d="M511,393v -35" fill="none" stroke="#ff0000" stroke-width="6"/>
<g stroke="#ff0000" stroke-width="6" fill="#ff0000">
<circle cx="511" cy="396" r="3.5"/>
</g>
<path d="M332,107h 42" fill="none" stroke="#ff0000" stroke-width="6"/>
<rect x="113" y="-4" width="303" height="38" fill="white"/>
<text x="136" y="24" fill="black" font-size="30" font-family="Helvetica" font-weight="bold">
IGHD6-13_star_01
</text></svg>
