<?xml version="1.0" standalone="no"?>
<svg width="567" height="466" viewBox="0 0 567 466" xmlns="http://www.w3.org/2000/svg">
<title>
/bbx/output/_plots/example/sw/mute-freqs/d/plots/IGHD6-25_star_01.svg
</title>
<desc>
Creator: ROOT Version 5.34/14
CreationDate: Wed Aug 19 19:38:10 2015</desc>
<defs>
</defs>
<rect x="0" y="0" width="567" height="466" fill="white"/>
<rect x="79" y="37" width="443" height="359" fill="none" stroke="black"/>
<rect x="79" y="37" width="443" height="359" fill="none" stroke="black"/>
<path d="M79,396h 443" fill="none" stroke="black" stroke-width="3"/>
<path d="M130,385v 11" fill="none" stroke="black" stroke-width="3"/>
<path d="M164,391v 5" fill="none" stroke="black" stroke-width="3"/>
<path d="M198,391v 5" fill="none" stroke="black" stroke-width="3"/>
<path d="M232,391v 5" fill="none" stroke="black" stroke-width="3"/>
<path d="M266,391v 5" fill="none" stroke="black" stroke-width="3"/>
<path d="M300,385v 11" fill="none" stroke="black" stroke-width="3"/>
<path d="M334,391v 5" fill="none" stroke="black" stroke-width="3"/>
<path d="M369,391v 5" fill="none" stroke="black" stroke-width="3"/>
<path d="M403,391v 5" fill="none" stroke="black" stroke-width="3"/>
<path d="M437,391v 5" fill="none" stroke="black" stroke-width="3"/>
<path d="M471,385v 11" fill="none" stroke="black" stroke-width="3"/>
<path d="M130,385v 11" fill="none" stroke="black" stroke-width="3"/>
<path d="M96,391v 5" fill="none" stroke="black" stroke-width="3"/>
<path d="M471,385v 11" fill="none" stroke="black" stroke-width="3"/>
<path d="M505,391v 5" fill="none" stroke="black" stroke-width="3"/>
<text x="125" y="416" fill="black" font-size="21" font-family="Times" font-weight="bold">
5
</text>
<text x="288" y="416" fill="black" font-size="21" font-family="Times" font-weight="bold">
10
</text>
<text x="459" y="416" fill="black" font-size="21" font-family="Times" font-weight="bold">
15
</text>
<path d="M79,37h 443" fill="none" stroke="black" stroke-width="3"/>
<path d="M130,48v -11" fill="none" stroke="black" stroke-width="3"/>
<path d="M164,43v -6" fill="none" stroke="black" stroke-width="3"/>
<path d="M198,43v -6" fill="none" stroke="black" stroke-width="3"/>
<path d="M232,43v -6" fill="none" stroke="black" stroke-width="3"/>
<path d="M266,43v -6" fill="none" stroke="black" stroke-width="3"/>
<path d="M300,48v -11" fill="none" stroke="black" stroke-width="3"/>
<path d="M334,43v -6" fill="none" stroke="black" stroke-width="3"/>
<path d="M369,43v -6" fill="none" stroke="black" stroke-width="3"/>
<path d="M403,43v -6" fill="none" stroke="black" stroke-width="3"/>
<path d="M437,43v -6" fill="none" stroke="black" stroke-width="3"/>
<path d="M471,48v -11" fill="none" stroke="black" stroke-width="3"/>
<path d="M130,48v -11" fill="none" stroke="black" stroke-width="3"/>
<path d="M96,43v -6" fill="none" stroke="black" stroke-width="3"/>
<path d="M471,48v -11" fill="none" stroke="black" stroke-width="3"/>
<path d="M505,43v -6" fill="none" stroke="black" stroke-width="3"/>
<path d="M79,396v -359" fill="none" stroke="black" stroke-width="3"/>
<path d="M92,396h -13" fill="none" stroke="black" stroke-width="3"/>
<path d="M86,381h -7" fill="none" stroke="black" stroke-width="3"/>
<path d="M86,366h -7" fill="none" stroke="black" stroke-width="3"/>
<path d="M86,351h -7" fill="none" stroke="black" stroke-width="3"/>
<path d="M86,336h -7" fill="none" stroke="black" stroke-width="3"/>
<path d="M92,321h -13" fill="none" stroke="black" stroke-width="3"/>
<path d="M86,306h -7" fill="none" stroke="black" stroke-width="3"/>
<path d="M86,291h -7" fill="none" stroke="black" stroke-width="3"/>
<path d="M86,277h -7" fill="none" stroke="black" stroke-width="3"/>
<path d="M86,262h -7" fill="none" stroke="black" stroke-width="3"/>
<path d="M92,247h -13" fill="none" stroke="black" stroke-width="3"/>
<path d="M86,232h -7" fill="none" stroke="black" stroke-width="3"/>
<path d="M86,217h -7" fill="none" stroke="black" stroke-width="3"/>
<path d="M86,202h -7" fill="none" stroke="black" stroke-width="3"/>
<path d="M86,187h -7" fill="none" stroke="black" stroke-width="3"/>
<path d="M92,172h -13" fill="none" stroke="black" stroke-width="3"/>
<path d="M86,157h -7" fill="none" stroke="black" stroke-width="3"/>
<path d="M86,142h -7" fill="none" stroke="black" stroke-width="3"/>
<path d="M86,127h -7" fill="none" stroke="black" stroke-width="3"/>
<path d="M86,112h -7" fill="none" stroke="black" stroke-width="3"/>
<path d="M92,97h -13" fill="none" stroke="black" stroke-width="3"/>
<path d="M92,97h -13" fill="none" stroke="black" stroke-width="3"/>
<path d="M86,82h -7" fill="none" stroke="black" stroke-width="3"/>
<path d="M86,67h -7" fill="none" stroke="black" stroke-width="3"/>
<path d="M86,52h -7" fill="none" stroke="black" stroke-width="3"/>
<path d="M86,37h -7" fill="none" stroke="black" stroke-width="3"/>
<text x="46" y="404" fill="black" font-size="21" font-family="Times" font-weight="bold">
0.0
</text>
<text x="46" y="329" fill="black" font-size="21" font-family="Times" font-weight="bold">
0.1
</text>
<text x="46" y="254" fill="black" font-size="21" font-family="Times" font-weight="bold">
0.2
</text>
<text x="46" y="179" fill="black" font-size="21" font-family="Times" font-weight="bold">
0.3
</text>
<text x="46" y="105" fill="black" font-size="21" font-family="Times" font-weight="bold">
0.4
</text>
<path d="M522,396v -359" fill="none" stroke="black" stroke-width="3"/>
<path d="M508,396h 14" fill="none" stroke="black" stroke-width="3"/>
<path d="M515,381h 7" fill="none" stroke="black" stroke-width="3"/>
<path d="M515,366h 7" fill="none" stroke="black" stroke-width="3"/>
<path d="M515,351h 7" fill="none" stroke="black" stroke-width="3"/>
<path d="M515,336h 7" fill="none" stroke="black" stroke-width="3"/>
<path d="M508,321h 14" fill="none" stroke="black" stroke-width="3"/>
<path d="M515,306h 7" fill="none" stroke="black" stroke-width="3"/>
<path d="M515,291h 7" fill="none" stroke="black" stroke-width="3"/>
<path d="M515,277h 7" fill="none" stroke="black" stroke-width="3"/>
<path d="M515,262h 7" fill="none" stroke="black" stroke-width="3"/>
<path d="M508,247h 14" fill="none" stroke="black" stroke-width="3"/>
<path d="M515,232h 7" fill="none" stroke="black" stroke-width="3"/>
<path d="M515,217h 7" fill="none" stroke="black" stroke-width="3"/>
<path d="M515,202h 7" fill="none" stroke="black" stroke-width="3"/>
<path d="M515,187h 7" fill="none" stroke="black" stroke-width="3"/>
<path d="M508,172h 14" fill="none" stroke="black" stroke-width="3"/>
<path d="M515,157h 7" fill="none" stroke="black" stroke-width="3"/>
<path d="M515,142h 7" fill="none" stroke="black" stroke-width="3"/>
<path d="M515,127h 7" fill="none" stroke="black" stroke-width="3"/>
<path d="M515,112h 7" fill="none" stroke="black" stroke-width="3"/>
<path d="M508,97h 14" fill="none" stroke="black" stroke-width="3"/>
<path d="M508,97h 14" fill="none" stroke="black" stroke-width="3"/>
<path d="M515,82h 7" fill="none" stroke="black" stroke-width="3"/>
<path d="M515,67h 7" fill="none" stroke="black" stroke-width="3"/>
<path d="M515,52h 7" fill="none" stroke="black" stroke-width="3"/>
<path d="M515,37h 7" fill="none" stroke="black" stroke-width="3"/>
<rect x="113" y="-4" width="303" height="38" fill="white"/>
<text x="136" y="24" fill="black" font-size="30" font-family="Helvetica" font-weight="bold">
IGHD6-25_star_01
</text>
<path d="M96,393v -59" fill="none" stroke="#ff0000" stroke-width="6"/>
<g stroke="#ff0000" stroke-width="6" fill="#ff0000">
<circle cx="96" cy="396" r="3.5"/>
</g>
<path d="M130,232v -132" fill="none" stroke="#ff0000" stroke-width="6"/>
<path d="M130,94v -57" fill="none" stroke="#ff0000" stroke-width="6"/>
<path d="M113,97h 14" fill="none" stroke="#ff0000" stroke-width="6"/>
<path d="M134,97h 13" fill="none" stroke="#ff0000" stroke-width="6"/>
<g stroke="#ff0000" stroke-width="6" fill="#ff0000">
<circle cx="130" cy="97" r="3.5"/>
</g>
<path d="M164,393v -59" fill="none" stroke="#ff0000" stroke-width="6"/>
<g stroke="#ff0000" stroke-width="6" fill="#ff0000">
<circle cx="164" cy="396" r="3.5"/>
</g>
<path d="M198,232v -132" fill="none" stroke="#ff0000" stroke-width="6"/>
<path d="M198,94v -57" fill="none" stroke="#ff0000" stroke-width="6"/>
<path d="M181,97h 14" fill="none" stroke="#ff0000" stroke-width="6"/>
<path d="M202,97h 13" fill="none" stroke="#ff0000" stroke-width="6"/>
<g stroke="#ff0000" stroke-width="6" fill="#ff0000">
<circle cx="198" cy="97" r="3.5"/>
</g>
<path d="M232,393v -59" fill="none" stroke="#ff0000" stroke-width="6"/>
<g stroke="#ff0000" stroke-width="6" fill="#ff0000">
<circle cx="232" cy="396" r="3.5"/>
</g>
<path d="M266,393v -59" fill="none" stroke="#ff0000" stroke-width="6"/>
<g stroke="#ff0000" stroke-width="6" fill="#ff0000">
<circle cx="266" cy="396" r="3.5"/>
</g>
<path d="M300,367v -117" fill="none" stroke="#ff0000" stroke-width="6"/>
<path d="M300,243v -117" fill="none" stroke="#ff0000" stroke-width="6"/>
<path d="M283,247h 14" fill="none" stroke="#ff0000" stroke-width="6"/>
<path d="M304,247h 13" fill="none" stroke="#ff0000" stroke-width="6"/>
<g stroke="#ff0000" stroke-width="6" fill="#ff0000">
<circle cx="300" cy="247" r="3.5"/>
</g>
<path d="M334,393v -59" fill="none" stroke="#ff0000" stroke-width="6"/>
<g stroke="#ff0000" stroke-width="6" fill="#ff0000">
<circle cx="334" cy="396" r="3.5"/>
</g>
<path d="M369,393v -59" fill="none" stroke="#ff0000" stroke-width="6"/>
<g stroke="#ff0000" stroke-width="6" fill="#ff0000">
<circle cx="369" cy="396" r="3.5"/>
</g>
<path d="M403,393v -59" fill="none" stroke="#ff0000" stroke-width="6"/>
<g stroke="#ff0000" stroke-width="6" fill="#ff0000">
<circle cx="403" cy="396" r="3.5"/>
</g>
<path d="M437,393v -59" fill="none" stroke="#ff0000" stroke-width="6"/>
<g stroke="#ff0000" stroke-width="6" fill="#ff0000">
<circle cx="437" cy="396" r="3.5"/>
</g>
<path d="M471,393v -71" fill="none" stroke="#ff0000" stroke-width="6"/>
<g stroke="#ff0000" stroke-width="6" fill="#ff0000">
<circle cx="471" cy="396" r="3.5"/>
</g>
<path d="M505,393v -71" fill="none" stroke="#ff0000" stroke-width="6"/>
<g stroke="#ff0000" stroke-width="6" fill="#ff0000">
<circle cx="505" cy="396" r="3.5"/>
</g>
<path d="M332,107h 42" fill="none" stroke="#ff0000" stroke-width="6"/>
<rect x="113" y="-4" width="303" height="38" fill="white"/>
<text x="136" y="24" fill="black" font-size="30" font-family="Helvetica" font-weight="bold">
IGHD6-25_star_01
</text></svg>
