<?xml version="1.0" standalone="no"?>
<svg width="567" height="466" viewBox="0 0 567 466" xmlns="http://www.w3.org/2000/svg">
<title>
/bbx/output/_plots/example/sw/mute-freqs/d/plots/IGHD3-16_star_02.svg
</title>
<desc>
Creator: ROOT Version 5.34/14
CreationDate: Wed Aug 19 19:38:11 2015</desc>
<defs>
</defs>
<rect x="0" y="0" width="567" height="466" fill="white"/>
<rect x="79" y="37" width="443" height="359" fill="none" stroke="black"/>
<rect x="79" y="37" width="443" height="359" fill="none" stroke="black"/>
<path d="M79,396h 443" fill="none" stroke="black" stroke-width="3"/>
<path d="M87,385v 11" fill="none" stroke="black" stroke-width="3"/>
<path d="M119,391v 5" fill="none" stroke="black" stroke-width="3"/>
<path d="M150,391v 5" fill="none" stroke="black" stroke-width="3"/>
<path d="M182,391v 5" fill="none" stroke="black" stroke-width="3"/>
<path d="M214,391v 5" fill="none" stroke="black" stroke-width="3"/>
<path d="M245,385v 11" fill="none" stroke="black" stroke-width="3"/>
<path d="M277,391v 5" fill="none" stroke="black" stroke-width="3"/>
<path d="M308,391v 5" fill="none" stroke="black" stroke-width="3"/>
<path d="M340,391v 5" fill="none" stroke="black" stroke-width="3"/>
<path d="M372,391v 5" fill="none" stroke="black" stroke-width="3"/>
<path d="M403,385v 11" fill="none" stroke="black" stroke-width="3"/>
<path d="M87,385v 11" fill="none" stroke="black" stroke-width="3"/>
<path d="M403,385v 11" fill="none" stroke="black" stroke-width="3"/>
<path d="M435,391v 5" fill="none" stroke="black" stroke-width="3"/>
<path d="M466,391v 5" fill="none" stroke="black" stroke-width="3"/>
<path d="M498,391v 5" fill="none" stroke="black" stroke-width="3"/>
<text x="81" y="416" fill="black" font-size="21" font-family="Times" font-weight="bold">
0
</text>
<text x="234" y="416" fill="black" font-size="21" font-family="Times" font-weight="bold">
10
</text>
<text x="391" y="416" fill="black" font-size="21" font-family="Times" font-weight="bold">
20
</text>
<path d="M79,37h 443" fill="none" stroke="black" stroke-width="3"/>
<path d="M87,48v -11" fill="none" stroke="black" stroke-width="3"/>
<path d="M119,43v -6" fill="none" stroke="black" stroke-width="3"/>
<path d="M150,43v -6" fill="none" stroke="black" stroke-width="3"/>
<path d="M182,43v -6" fill="none" stroke="black" stroke-width="3"/>
<path d="M214,43v -6" fill="none" stroke="black" stroke-width="3"/>
<path d="M245,48v -11" fill="none" stroke="black" stroke-width="3"/>
<path d="M277,43v -6" fill="none" stroke="black" stroke-width="3"/>
<path d="M308,43v -6" fill="none" stroke="black" stroke-width="3"/>
<path d="M340,43v -6" fill="none" stroke="black" stroke-width="3"/>
<path d="M372,43v -6" fill="none" stroke="black" stroke-width="3"/>
<path d="M403,48v -11" fill="none" stroke="black" stroke-width="3"/>
<path d="M87,48v -11" fill="none" stroke="black" stroke-width="3"/>
<path d="M403,48v -11" fill="none" stroke="black" stroke-width="3"/>
<path d="M435,43v -6" fill="none" stroke="black" stroke-width="3"/>
<path d="M466,43v -6" fill="none" stroke="black" stroke-width="3"/>
<path d="M498,43v -6" fill="none" stroke="black" stroke-width="3"/>
<path d="M79,396v -359" fill="none" stroke="black" stroke-width="3"/>
<path d="M92,396h -13" fill="none" stroke="black" stroke-width="3"/>
<path d="M86,366h -7" fill="none" stroke="black" stroke-width="3"/>
<path d="M86,336h -7" fill="none" stroke="black" stroke-width="3"/>
<path d="M86,306h -7" fill="none" stroke="black" stroke-width="3"/>
<path d="M86,277h -7" fill="none" stroke="black" stroke-width="3"/>
<path d="M92,247h -13" fill="none" stroke="black" stroke-width="3"/>
<path d="M86,217h -7" fill="none" stroke="black" stroke-width="3"/>
<path d="M86,187h -7" fill="none" stroke="black" stroke-width="3"/>
<path d="M86,157h -7" fill="none" stroke="black" stroke-width="3"/>
<path d="M86,127h -7" fill="none" stroke="black" stroke-width="3"/>
<path d="M92,97h -13" fill="none" stroke="black" stroke-width="3"/>
<path d="M92,97h -13" fill="none" stroke="black" stroke-width="3"/>
<path d="M86,67h -7" fill="none" stroke="black" stroke-width="3"/>
<path d="M86,37h -7" fill="none" stroke="black" stroke-width="3"/>
<text x="46" y="404" fill="black" font-size="21" font-family="Times" font-weight="bold">
0.0
</text>
<text x="46" y="254" fill="black" font-size="21" font-family="Times" font-weight="bold">
0.5
</text>
<text x="46" y="105" fill="black" font-size="21" font-family="Times" font-weight="bold">
1.0
</text>
<path d="M522,396v -359" fill="none" stroke="black" stroke-width="3"/>
<path d="M508,396h 14" fill="none" stroke="black" stroke-width="3"/>
<path d="M515,366h 7" fill="none" stroke="black" stroke-width="3"/>
<path d="M515,336h 7" fill="none" stroke="black" stroke-width="3"/>
<path d="M515,306h 7" fill="none" stroke="black" stroke-width="3"/>
<path d="M515,277h 7" fill="none" stroke="black" stroke-width="3"/>
<path d="M508,247h 14" fill="none" stroke="black" stroke-width="3"/>
<path d="M515,217h 7" fill="none" stroke="black" stroke-width="3"/>
<path d="M515,187h 7" fill="none" stroke="black" stroke-width="3"/>
<path d="M515,157h 7" fill="none" stroke="black" stroke-width="3"/>
<path d="M515,127h 7" fill="none" stroke="black" stroke-width="3"/>
<path d="M508,97h 14" fill="none" stroke="black" stroke-width="3"/>
<path d="M508,97h 14" fill="none" stroke="black" stroke-width="3"/>
<path d="M515,67h 7" fill="none" stroke="black" stroke-width="3"/>
<path d="M515,37h 7" fill="none" stroke="black" stroke-width="3"/>
<rect x="113" y="-4" width="304" height="38" fill="white"/>
<text x="135" y="24" fill="black" font-size="30" font-family="Helvetica" font-weight="bold">
IGHD3-16_star_02
</text>
<path d="M87,393v -33" fill="none" stroke="#ff0000" stroke-width="6"/>
<g stroke="#ff0000" stroke-width="6" fill="#ff0000">
<circle cx="87" cy="396" r="3.5"/>
</g>
<path d="M103,260v -60" fill="none" stroke="#ff0000" stroke-width="6"/>
<path d="M103,194v -60" fill="none" stroke="#ff0000" stroke-width="6"/>
<path d="M95,197h 5" fill="none" stroke="#ff0000" stroke-width="6"/>
<path d="M106,197h 5" fill="none" stroke="#ff0000" stroke-width="6"/>
<g stroke="#ff0000" stroke-width="6" fill="#ff0000">
<circle cx="103" cy="197" r="3.5"/>
</g>
<path d="M119,393v -33" fill="none" stroke="#ff0000" stroke-width="6"/>
<g stroke="#ff0000" stroke-width="6" fill="#ff0000">
<circle cx="119" cy="396" r="3.5"/>
</g>
<path d="M135,393v -33" fill="none" stroke="#ff0000" stroke-width="6"/>
<g stroke="#ff0000" stroke-width="6" fill="#ff0000">
<circle cx="135" cy="396" r="3.5"/>
</g>
<path d="M150,133v -33" fill="none" stroke="#ff0000" stroke-width="6"/>
<path d="M150,94v -33" fill="none" stroke="#ff0000" stroke-width="6"/>
<path d="M143,97h 4" fill="none" stroke="#ff0000" stroke-width="6"/>
<path d="M154,97h 4" fill="none" stroke="#ff0000" stroke-width="6"/>
<g stroke="#ff0000" stroke-width="6" fill="#ff0000">
<circle cx="150" cy="97" r="3.5"/>
</g>
<path d="M166,393v -33" fill="none" stroke="#ff0000" stroke-width="6"/>
<g stroke="#ff0000" stroke-width="6" fill="#ff0000">
<circle cx="166" cy="396" r="3.5"/>
</g>
<path d="M182,359v -59" fill="none" stroke="#ff0000" stroke-width="6"/>
<path d="M182,293v -59" fill="none" stroke="#ff0000" stroke-width="6"/>
<path d="M174,296h 5" fill="none" stroke="#ff0000" stroke-width="6"/>
<path d="M185,296h 5" fill="none" stroke="#ff0000" stroke-width="6"/>
<g stroke="#ff0000" stroke-width="6" fill="#ff0000">
<circle cx="182" cy="296" r="3.5"/>
</g>
<path d="M198,393v -33" fill="none" stroke="#ff0000" stroke-width="6"/>
<g stroke="#ff0000" stroke-width="6" fill="#ff0000">
<circle cx="198" cy="396" r="3.5"/>
</g>
<path d="M214,393v -33" fill="none" stroke="#ff0000" stroke-width="6"/>
<g stroke="#ff0000" stroke-width="6" fill="#ff0000">
<circle cx="214" cy="396" r="3.5"/>
</g>
<path d="M229,359v -59" fill="none" stroke="#ff0000" stroke-width="6"/>
<path d="M229,293v -59" fill="none" stroke="#ff0000" stroke-width="6"/>
<path d="M222,296h 4" fill="none" stroke="#ff0000" stroke-width="6"/>
<path d="M233,296h 4" fill="none" stroke="#ff0000" stroke-width="6"/>
<g stroke="#ff0000" stroke-width="6" fill="#ff0000">
<circle cx="229" cy="296" r="3.5"/>
</g>
<path d="M245,260v -60" fill="none" stroke="#ff0000" stroke-width="6"/>
<path d="M245,194v -60" fill="none" stroke="#ff0000" stroke-width="6"/>
<path d="M237,197h 5" fill="none" stroke="#ff0000" stroke-width="6"/>
<path d="M248,197h 5" fill="none" stroke="#ff0000" stroke-width="6"/>
<g stroke="#ff0000" stroke-width="6" fill="#ff0000">
<circle cx="245" cy="197" r="3.5"/>
</g>
<path d="M261,393v -33" fill="none" stroke="#ff0000" stroke-width="6"/>
<g stroke="#ff0000" stroke-width="6" fill="#ff0000">
<circle cx="261" cy="396" r="3.5"/>
</g>
<path d="M277,393v -33" fill="none" stroke="#ff0000" stroke-width="6"/>
<g stroke="#ff0000" stroke-width="6" fill="#ff0000">
<circle cx="277" cy="396" r="3.5"/>
</g>
<path d="M293,359v -59" fill="none" stroke="#ff0000" stroke-width="6"/>
<path d="M293,293v -59" fill="none" stroke="#ff0000" stroke-width="6"/>
<path d="M285,296h 4" fill="none" stroke="#ff0000" stroke-width="6"/>
<path d="M296,296h 4" fill="none" stroke="#ff0000" stroke-width="6"/>
<g stroke="#ff0000" stroke-width="6" fill="#ff0000">
<circle cx="293" cy="296" r="3.5"/>
</g>
<path d="M308,393v -33" fill="none" stroke="#ff0000" stroke-width="6"/>
<g stroke="#ff0000" stroke-width="6" fill="#ff0000">
<circle cx="308" cy="396" r="3.5"/>
</g>
<path d="M324,260v -60" fill="none" stroke="#ff0000" stroke-width="6"/>
<path d="M324,194v -60" fill="none" stroke="#ff0000" stroke-width="6"/>
<path d="M316,197h 5" fill="none" stroke="#ff0000" stroke-width="6"/>
<path d="M327,197h 5" fill="none" stroke="#ff0000" stroke-width="6"/>
<g stroke="#ff0000" stroke-width="6" fill="#ff0000">
<circle cx="324" cy="197" r="3.5"/>
</g>
<path d="M340,393v -16" fill="none" stroke="#ff0000" stroke-width="6"/>
<g stroke="#ff0000" stroke-width="6" fill="#ff0000">
<circle cx="340" cy="396" r="3.5"/>
</g>
<path d="M356,392v -35" fill="none" stroke="#ff0000" stroke-width="6"/>
<path d="M356,350v -35" fill="none" stroke="#ff0000" stroke-width="6"/>
<path d="M348,353h 4" fill="none" stroke="#ff0000" stroke-width="6"/>
<path d="M359,353h 5" fill="none" stroke="#ff0000" stroke-width="6"/>
<g stroke="#ff0000" stroke-width="6" fill="#ff0000">
<circle cx="356" cy="353" r="3.5"/>
</g>
<path d="M372,356v -42" fill="none" stroke="#ff0000" stroke-width="6"/>
<path d="M372,307v -41" fill="none" stroke="#ff0000" stroke-width="6"/>
<path d="M364,311h 4" fill="none" stroke="#ff0000" stroke-width="6"/>
<path d="M375,311h 4" fill="none" stroke="#ff0000" stroke-width="6"/>
<g stroke="#ff0000" stroke-width="6" fill="#ff0000">
<circle cx="372" cy="311" r="3.5"/>
</g>
<path d="M387,393v -16" fill="none" stroke="#ff0000" stroke-width="6"/>
<g stroke="#ff0000" stroke-width="6" fill="#ff0000">
<circle cx="387" cy="396" r="3.5"/>
</g>
<path d="M403,392v -35" fill="none" stroke="#ff0000" stroke-width="6"/>
<path d="M403,350v -35" fill="none" stroke="#ff0000" stroke-width="6"/>
<path d="M395,353h 5" fill="none" stroke="#ff0000" stroke-width="6"/>
<path d="M406,353h 5" fill="none" stroke="#ff0000" stroke-width="6"/>
<g stroke="#ff0000" stroke-width="6" fill="#ff0000">
<circle cx="403" cy="353" r="3.5"/>
</g>
<path d="M419,356v -42" fill="none" stroke="#ff0000" stroke-width="6"/>
<path d="M419,307v -41" fill="none" stroke="#ff0000" stroke-width="6"/>
<path d="M411,311h 5" fill="none" stroke="#ff0000" stroke-width="6"/>
<path d="M422,311h 5" fill="none" stroke="#ff0000" stroke-width="6"/>
<g stroke="#ff0000" stroke-width="6" fill="#ff0000">
<circle cx="419" cy="311" r="3.5"/>
</g>
<path d="M435,392v -35" fill="none" stroke="#ff0000" stroke-width="6"/>
<path d="M435,350v -35" fill="none" stroke="#ff0000" stroke-width="6"/>
<path d="M427,353h 4" fill="none" stroke="#ff0000" stroke-width="6"/>
<path d="M438,353h 5" fill="none" stroke="#ff0000" stroke-width="6"/>
<g stroke="#ff0000" stroke-width="6" fill="#ff0000">
<circle cx="435" cy="353" r="3.5"/>
</g>
<path d="M451,389v -39" fill="none" stroke="#ff0000" stroke-width="6"/>
<path d="M451,343v -40" fill="none" stroke="#ff0000" stroke-width="6"/>
<path d="M443,346h 4" fill="none" stroke="#ff0000" stroke-width="6"/>
<path d="M454,346h 4" fill="none" stroke="#ff0000" stroke-width="6"/>
<g stroke="#ff0000" stroke-width="6" fill="#ff0000">
<circle cx="451" cy="346" r="3.5"/>
</g>
<path d="M466,246v -46" fill="none" stroke="#ff0000" stroke-width="6"/>
<path d="M466,194v -46" fill="none" stroke="#ff0000" stroke-width="6"/>
<path d="M458,197h 5" fill="none" stroke="#ff0000" stroke-width="6"/>
<path d="M470,197h 4" fill="none" stroke="#ff0000" stroke-width="6"/>
<g stroke="#ff0000" stroke-width="6" fill="#ff0000">
<circle cx="466" cy="197" r="3.5"/>
</g>
<path d="M482,127v -27" fill="none" stroke="#ff0000" stroke-width="6"/>
<path d="M482,94v -26" fill="none" stroke="#ff0000" stroke-width="6"/>
<path d="M474,97h 5" fill="none" stroke="#ff0000" stroke-width="6"/>
<path d="M485,97h 5" fill="none" stroke="#ff0000" stroke-width="6"/>
<g stroke="#ff0000" stroke-width="6" fill="#ff0000">
<circle cx="482" cy="97" r="3.5"/>
</g>
<path d="M498,393v -26" fill="none" stroke="#ff0000" stroke-width="6"/>
<g stroke="#ff0000" stroke-width="6" fill="#ff0000">
<circle cx="498" cy="396" r="3.5"/>
</g>
<path d="M514,393v -26" fill="none" stroke="#ff0000" stroke-width="6"/>
<g stroke="#ff0000" stroke-width="6" fill="#ff0000">
<circle cx="514" cy="396" r="3.5"/>
</g>
<path d="M332,107h 42" fill="none" stroke="#ff0000" stroke-width="6"/>
<rect x="113" y="-4" width="304" height="38" fill="white"/>
<text x="135" y="24" fill="black" font-size="30" font-family="Helvetica" font-weight="bold">
IGHD3-16_star_02
</text></svg>
