<?xml version="1.0" standalone="no"?>
<svg width="567" height="466" viewBox="0 0 567 466" xmlns="http://www.w3.org/2000/svg">
<title>
/bbx/output/_plots/example/sw/mute-freqs/d/plots/IGHD2-2_star_01.svg
</title>
<desc>
Creator: ROOT Version 5.34/14
CreationDate: Wed Aug 19 19:38:08 2015</desc>
<defs>
</defs>
<rect x="0" y="0" width="567" height="466" fill="white"/>
<rect x="79" y="37" width="443" height="359" fill="none" stroke="black"/>
<rect x="79" y="37" width="443" height="359" fill="none" stroke="black"/>
<path d="M79,396h 443" fill="none" stroke="black" stroke-width="3"/>
<path d="M87,385v 11" fill="none" stroke="black" stroke-width="3"/>
<path d="M117,391v 5" fill="none" stroke="black" stroke-width="3"/>
<path d="M148,391v 5" fill="none" stroke="black" stroke-width="3"/>
<path d="M178,391v 5" fill="none" stroke="black" stroke-width="3"/>
<path d="M209,391v 5" fill="none" stroke="black" stroke-width="3"/>
<path d="M239,385v 11" fill="none" stroke="black" stroke-width="3"/>
<path d="M270,391v 5" fill="none" stroke="black" stroke-width="3"/>
<path d="M300,391v 5" fill="none" stroke="black" stroke-width="3"/>
<path d="M331,391v 5" fill="none" stroke="black" stroke-width="3"/>
<path d="M361,391v 5" fill="none" stroke="black" stroke-width="3"/>
<path d="M392,385v 11" fill="none" stroke="black" stroke-width="3"/>
<path d="M87,385v 11" fill="none" stroke="black" stroke-width="3"/>
<path d="M392,385v 11" fill="none" stroke="black" stroke-width="3"/>
<path d="M422,391v 5" fill="none" stroke="black" stroke-width="3"/>
<path d="M453,391v 5" fill="none" stroke="black" stroke-width="3"/>
<path d="M483,391v 5" fill="none" stroke="black" stroke-width="3"/>
<path d="M514,391v 5" fill="none" stroke="black" stroke-width="3"/>
<text x="81" y="416" fill="black" font-size="21" font-family="Times" font-weight="bold">
0
</text>
<text x="228" y="416" fill="black" font-size="21" font-family="Times" font-weight="bold">
10
</text>
<text x="380" y="416" fill="black" font-size="21" font-family="Times" font-weight="bold">
20
</text>
<path d="M79,37h 443" fill="none" stroke="black" stroke-width="3"/>
<path d="M87,48v -11" fill="none" stroke="black" stroke-width="3"/>
<path d="M117,43v -6" fill="none" stroke="black" stroke-width="3"/>
<path d="M148,43v -6" fill="none" stroke="black" stroke-width="3"/>
<path d="M178,43v -6" fill="none" stroke="black" stroke-width="3"/>
<path d="M209,43v -6" fill="none" stroke="black" stroke-width="3"/>
<path d="M239,48v -11" fill="none" stroke="black" stroke-width="3"/>
<path d="M270,43v -6" fill="none" stroke="black" stroke-width="3"/>
<path d="M300,43v -6" fill="none" stroke="black" stroke-width="3"/>
<path d="M331,43v -6" fill="none" stroke="black" stroke-width="3"/>
<path d="M361,43v -6" fill="none" stroke="black" stroke-width="3"/>
<path d="M392,48v -11" fill="none" stroke="black" stroke-width="3"/>
<path d="M87,48v -11" fill="none" stroke="black" stroke-width="3"/>
<path d="M392,48v -11" fill="none" stroke="black" stroke-width="3"/>
<path d="M422,43v -6" fill="none" stroke="black" stroke-width="3"/>
<path d="M453,43v -6" fill="none" stroke="black" stroke-width="3"/>
<path d="M483,43v -6" fill="none" stroke="black" stroke-width="3"/>
<path d="M514,43v -6" fill="none" stroke="black" stroke-width="3"/>
<path d="M79,396v -359" fill="none" stroke="black" stroke-width="3"/>
<path d="M92,396h -13" fill="none" stroke="black" stroke-width="3"/>
<path d="M86,366h -7" fill="none" stroke="black" stroke-width="3"/>
<path d="M86,336h -7" fill="none" stroke="black" stroke-width="3"/>
<path d="M86,306h -7" fill="none" stroke="black" stroke-width="3"/>
<path d="M86,277h -7" fill="none" stroke="black" stroke-width="3"/>
<path d="M92,247h -13" fill="none" stroke="black" stroke-width="3"/>
<path d="M86,217h -7" fill="none" stroke="black" stroke-width="3"/>
<path d="M86,187h -7" fill="none" stroke="black" stroke-width="3"/>
<path d="M86,157h -7" fill="none" stroke="black" stroke-width="3"/>
<path d="M86,127h -7" fill="none" stroke="black" stroke-width="3"/>
<path d="M92,97h -13" fill="none" stroke="black" stroke-width="3"/>
<path d="M92,97h -13" fill="none" stroke="black" stroke-width="3"/>
<path d="M86,67h -7" fill="none" stroke="black" stroke-width="3"/>
<path d="M86,37h -7" fill="none" stroke="black" stroke-width="3"/>
<text x="46" y="404" fill="black" font-size="21" font-family="Times" font-weight="bold">
0.0
</text>
<text x="46" y="254" fill="black" font-size="21" font-family="Times" font-weight="bold">
0.5
</text>
<text x="46" y="105" fill="black" font-size="21" font-family="Times" font-weight="bold">
1.0
</text>
<path d="M522,396v -359" fill="none" stroke="black" stroke-width="3"/>
<path d="M508,396h 14" fill="none" stroke="black" stroke-width="3"/>
<path d="M515,366h 7" fill="none" stroke="black" stroke-width="3"/>
<path d="M515,336h 7" fill="none" stroke="black" stroke-width="3"/>
<path d="M515,306h 7" fill="none" stroke="black" stroke-width="3"/>
<path d="M515,277h 7" fill="none" stroke="black" stroke-width="3"/>
<path d="M508,247h 14" fill="none" stroke="black" stroke-width="3"/>
<path d="M515,217h 7" fill="none" stroke="black" stroke-width="3"/>
<path d="M515,187h 7" fill="none" stroke="black" stroke-width="3"/>
<path d="M515,157h 7" fill="none" stroke="black" stroke-width="3"/>
<path d="M515,127h 7" fill="none" stroke="black" stroke-width="3"/>
<path d="M508,97h 14" fill="none" stroke="black" stroke-width="3"/>
<path d="M508,97h 14" fill="none" stroke="black" stroke-width="3"/>
<path d="M515,67h 7" fill="none" stroke="black" stroke-width="3"/>
<path d="M515,37h 7" fill="none" stroke="black" stroke-width="3"/>
<rect x="113" y="-4" width="285" height="38" fill="white"/>
<text x="135" y="24" fill="black" font-size="30" font-family="Helvetica" font-weight="bold">
IGHD2-2_star_01
</text>
<path d="M87,393v -60" fill="none" stroke="#ff0000" stroke-width="6"/>
<g stroke="#ff0000" stroke-width="6" fill="#ff0000">
<circle cx="87" cy="396" r="3.5"/>
</g>
<path d="M102,160v -60" fill="none" stroke="#ff0000" stroke-width="6"/>
<path d="M102,94v -57" fill="none" stroke="#ff0000" stroke-width="6"/>
<path d="M95,97h 4" fill="none" stroke="#ff0000" stroke-width="6"/>
<path d="M106,97h 4" fill="none" stroke="#ff0000" stroke-width="6"/>
<g stroke="#ff0000" stroke-width="6" fill="#ff0000">
<circle cx="102" cy="97" r="3.5"/>
</g>
<path d="M117,393v -60" fill="none" stroke="#ff0000" stroke-width="6"/>
<g stroke="#ff0000" stroke-width="6" fill="#ff0000">
<circle cx="117" cy="396" r="3.5"/>
</g>
<path d="M133,393v -60" fill="none" stroke="#ff0000" stroke-width="6"/>
<g stroke="#ff0000" stroke-width="6" fill="#ff0000">
<circle cx="133" cy="396" r="3.5"/>
</g>
<path d="M148,393v -60" fill="none" stroke="#ff0000" stroke-width="6"/>
<g stroke="#ff0000" stroke-width="6" fill="#ff0000">
<circle cx="148" cy="396" r="3.5"/>
</g>
<path d="M163,393v -60" fill="none" stroke="#ff0000" stroke-width="6"/>
<g stroke="#ff0000" stroke-width="6" fill="#ff0000">
<circle cx="163" cy="396" r="3.5"/>
</g>
<path d="M178,393v -60" fill="none" stroke="#ff0000" stroke-width="6"/>
<g stroke="#ff0000" stroke-width="6" fill="#ff0000">
<circle cx="178" cy="396" r="3.5"/>
</g>
<path d="M194,393v -60" fill="none" stroke="#ff0000" stroke-width="6"/>
<g stroke="#ff0000" stroke-width="6" fill="#ff0000">
<circle cx="194" cy="396" r="3.5"/>
</g>
<path d="M209,393v -60" fill="none" stroke="#ff0000" stroke-width="6"/>
<g stroke="#ff0000" stroke-width="6" fill="#ff0000">
<circle cx="209" cy="396" r="3.5"/>
</g>
<path d="M224,393v -60" fill="none" stroke="#ff0000" stroke-width="6"/>
<g stroke="#ff0000" stroke-width="6" fill="#ff0000">
<circle cx="224" cy="396" r="3.5"/>
</g>
<path d="M239,393v -60" fill="none" stroke="#ff0000" stroke-width="6"/>
<g stroke="#ff0000" stroke-width="6" fill="#ff0000">
<circle cx="239" cy="396" r="3.5"/>
</g>
<path d="M255,393v -60" fill="none" stroke="#ff0000" stroke-width="6"/>
<g stroke="#ff0000" stroke-width="6" fill="#ff0000">
<circle cx="255" cy="396" r="3.5"/>
</g>
<path d="M270,393v -60" fill="none" stroke="#ff0000" stroke-width="6"/>
<g stroke="#ff0000" stroke-width="6" fill="#ff0000">
<circle cx="270" cy="396" r="3.5"/>
</g>
<path d="M285,160v -60" fill="none" stroke="#ff0000" stroke-width="6"/>
<path d="M285,94v -57" fill="none" stroke="#ff0000" stroke-width="6"/>
<path d="M278,97h 4" fill="none" stroke="#ff0000" stroke-width="6"/>
<path d="M288,97h 5" fill="none" stroke="#ff0000" stroke-width="6"/>
<g stroke="#ff0000" stroke-width="6" fill="#ff0000">
<circle cx="285" cy="97" r="3.5"/>
</g>
<path d="M300,393v -60" fill="none" stroke="#ff0000" stroke-width="6"/>
<g stroke="#ff0000" stroke-width="6" fill="#ff0000">
<circle cx="300" cy="396" r="3.5"/>
</g>
<path d="M316,393v -60" fill="none" stroke="#ff0000" stroke-width="6"/>
<g stroke="#ff0000" stroke-width="6" fill="#ff0000">
<circle cx="316" cy="396" r="3.5"/>
</g>
<path d="M331,393v -60" fill="none" stroke="#ff0000" stroke-width="6"/>
<g stroke="#ff0000" stroke-width="6" fill="#ff0000">
<circle cx="331" cy="396" r="3.5"/>
</g>
<path d="M346,393v -60" fill="none" stroke="#ff0000" stroke-width="6"/>
<g stroke="#ff0000" stroke-width="6" fill="#ff0000">
<circle cx="346" cy="396" r="3.5"/>
</g>
<path d="M361,393v -60" fill="none" stroke="#ff0000" stroke-width="6"/>
<g stroke="#ff0000" stroke-width="6" fill="#ff0000">
<circle cx="361" cy="396" r="3.5"/>
</g>
<path d="M377,393v -60" fill="none" stroke="#ff0000" stroke-width="6"/>
<g stroke="#ff0000" stroke-width="6" fill="#ff0000">
<circle cx="377" cy="396" r="3.5"/>
</g>
<path d="M392,160v -60" fill="none" stroke="#ff0000" stroke-width="6"/>
<path d="M392,94v -57" fill="none" stroke="#ff0000" stroke-width="6"/>
<path d="M384,97h 5" fill="none" stroke="#ff0000" stroke-width="6"/>
<path d="M395,97h 5" fill="none" stroke="#ff0000" stroke-width="6"/>
<g stroke="#ff0000" stroke-width="6" fill="#ff0000">
<circle cx="392" cy="97" r="3.5"/>
</g>
<path d="M407,160v -60" fill="none" stroke="#ff0000" stroke-width="6"/>
<path d="M407,94v -57" fill="none" stroke="#ff0000" stroke-width="6"/>
<path d="M400,97h 4" fill="none" stroke="#ff0000" stroke-width="6"/>
<path d="M410,97h 5" fill="none" stroke="#ff0000" stroke-width="6"/>
<g stroke="#ff0000" stroke-width="6" fill="#ff0000">
<circle cx="407" cy="97" r="3.5"/>
</g>
<path d="M422,393v -60" fill="none" stroke="#ff0000" stroke-width="6"/>
<g stroke="#ff0000" stroke-width="6" fill="#ff0000">
<circle cx="422" cy="396" r="3.5"/>
</g>
<path d="M438,393v -60" fill="none" stroke="#ff0000" stroke-width="6"/>
<g stroke="#ff0000" stroke-width="6" fill="#ff0000">
<circle cx="438" cy="396" r="3.5"/>
</g>
<path d="M453,393v -60" fill="none" stroke="#ff0000" stroke-width="6"/>
<g stroke="#ff0000" stroke-width="6" fill="#ff0000">
<circle cx="453" cy="396" r="3.5"/>
</g>
<path d="M468,160v -60" fill="none" stroke="#ff0000" stroke-width="6"/>
<path d="M468,94v -57" fill="none" stroke="#ff0000" stroke-width="6"/>
<path d="M461,97h 4" fill="none" stroke="#ff0000" stroke-width="6"/>
<path d="M471,97h 5" fill="none" stroke="#ff0000" stroke-width="6"/>
<g stroke="#ff0000" stroke-width="6" fill="#ff0000">
<circle cx="468" cy="97" r="3.5"/>
</g>
<path d="M483,160v -60" fill="none" stroke="#ff0000" stroke-width="6"/>
<path d="M483,94v -57" fill="none" stroke="#ff0000" stroke-width="6"/>
<path d="M476,97h 4" fill="none" stroke="#ff0000" stroke-width="6"/>
<path d="M487,97h 4" fill="none" stroke="#ff0000" stroke-width="6"/>
<g stroke="#ff0000" stroke-width="6" fill="#ff0000">
<circle cx="483" cy="97" r="3.5"/>
</g>
<path d="M499,393v -60" fill="none" stroke="#ff0000" stroke-width="6"/>
<g stroke="#ff0000" stroke-width="6" fill="#ff0000">
<circle cx="499" cy="396" r="3.5"/>
</g>
<path d="M514,393v -60" fill="none" stroke="#ff0000" stroke-width="6"/>
<g stroke="#ff0000" stroke-width="6" fill="#ff0000">
<circle cx="514" cy="396" r="3.5"/>
</g>
<path d="M332,107h 42" fill="none" stroke="#ff0000" stroke-width="6"/>
<rect x="113" y="-4" width="285" height="38" fill="white"/>
<text x="135" y="24" fill="black" font-size="30" font-family="Helvetica" font-weight="bold">
IGHD2-2_star_01
</text></svg>
