<?xml version="1.0" standalone="no"?>
<svg width="567" height="466" viewBox="0 0 567 466" xmlns="http://www.w3.org/2000/svg">
<title>
/bbx/output/_plots/example/hmm/true/mute-freqs/d/plots/IGHD3-3_star_02.svg
</title>
<desc>
Creator: ROOT Version 5.34/14
CreationDate: Wed Aug 19 22:00:20 2015</desc>
<defs>
</defs>
<rect x="0" y="0" width="567" height="466" fill="white"/>
<rect x="79" y="37" width="443" height="359" fill="none" stroke="black"/>
<rect x="79" y="37" width="443" height="359" fill="none" stroke="black"/>
<path d="M79,396h 443" fill="none" stroke="black" stroke-width="3"/>
<path d="M124,385v 11" fill="none" stroke="black" stroke-width="3"/>
<path d="M141,391v 5" fill="none" stroke="black" stroke-width="3"/>
<path d="M159,391v 5" fill="none" stroke="black" stroke-width="3"/>
<path d="M177,391v 5" fill="none" stroke="black" stroke-width="3"/>
<path d="M194,391v 5" fill="none" stroke="black" stroke-width="3"/>
<path d="M212,385v 11" fill="none" stroke="black" stroke-width="3"/>
<path d="M230,391v 5" fill="none" stroke="black" stroke-width="3"/>
<path d="M247,391v 5" fill="none" stroke="black" stroke-width="3"/>
<path d="M265,391v 5" fill="none" stroke="black" stroke-width="3"/>
<path d="M283,391v 5" fill="none" stroke="black" stroke-width="3"/>
<path d="M300,385v 11" fill="none" stroke="black" stroke-width="3"/>
<path d="M318,391v 5" fill="none" stroke="black" stroke-width="3"/>
<path d="M336,391v 5" fill="none" stroke="black" stroke-width="3"/>
<path d="M354,391v 5" fill="none" stroke="black" stroke-width="3"/>
<path d="M371,391v 5" fill="none" stroke="black" stroke-width="3"/>
<path d="M389,385v 11" fill="none" stroke="black" stroke-width="3"/>
<path d="M407,391v 5" fill="none" stroke="black" stroke-width="3"/>
<path d="M424,391v 5" fill="none" stroke="black" stroke-width="3"/>
<path d="M442,391v 5" fill="none" stroke="black" stroke-width="3"/>
<path d="M460,391v 5" fill="none" stroke="black" stroke-width="3"/>
<path d="M477,385v 11" fill="none" stroke="black" stroke-width="3"/>
<path d="M124,385v 11" fill="none" stroke="black" stroke-width="3"/>
<path d="M106,391v 5" fill="none" stroke="black" stroke-width="3"/>
<path d="M88,391v 5" fill="none" stroke="black" stroke-width="3"/>
<path d="M477,385v 11" fill="none" stroke="black" stroke-width="3"/>
<path d="M495,391v 5" fill="none" stroke="black" stroke-width="3"/>
<path d="M513,391v 5" fill="none" stroke="black" stroke-width="3"/>
<text x="112" y="416" fill="black" font-size="21" font-family="Times" font-weight="bold">
13
</text>
<text x="200" y="416" fill="black" font-size="21" font-family="Times" font-weight="bold">
14
</text>
<text x="288" y="416" fill="black" font-size="21" font-family="Times" font-weight="bold">
15
</text>
<text x="377" y="416" fill="black" font-size="21" font-family="Times" font-weight="bold">
16
</text>
<text x="466" y="416" fill="black" font-size="21" font-family="Times" font-weight="bold">
17
</text>
<path d="M79,37h 443" fill="none" stroke="black" stroke-width="3"/>
<path d="M124,48v -11" fill="none" stroke="black" stroke-width="3"/>
<path d="M141,43v -6" fill="none" stroke="black" stroke-width="3"/>
<path d="M159,43v -6" fill="none" stroke="black" stroke-width="3"/>
<path d="M177,43v -6" fill="none" stroke="black" stroke-width="3"/>
<path d="M194,43v -6" fill="none" stroke="black" stroke-width="3"/>
<path d="M212,48v -11" fill="none" stroke="black" stroke-width="3"/>
<path d="M230,43v -6" fill="none" stroke="black" stroke-width="3"/>
<path d="M247,43v -6" fill="none" stroke="black" stroke-width="3"/>
<path d="M265,43v -6" fill="none" stroke="black" stroke-width="3"/>
<path d="M283,43v -6" fill="none" stroke="black" stroke-width="3"/>
<path d="M300,48v -11" fill="none" stroke="black" stroke-width="3"/>
<path d="M318,43v -6" fill="none" stroke="black" stroke-width="3"/>
<path d="M336,43v -6" fill="none" stroke="black" stroke-width="3"/>
<path d="M354,43v -6" fill="none" stroke="black" stroke-width="3"/>
<path d="M371,43v -6" fill="none" stroke="black" stroke-width="3"/>
<path d="M389,48v -11" fill="none" stroke="black" stroke-width="3"/>
<path d="M407,43v -6" fill="none" stroke="black" stroke-width="3"/>
<path d="M424,43v -6" fill="none" stroke="black" stroke-width="3"/>
<path d="M442,43v -6" fill="none" stroke="black" stroke-width="3"/>
<path d="M460,43v -6" fill="none" stroke="black" stroke-width="3"/>
<path d="M477,48v -11" fill="none" stroke="black" stroke-width="3"/>
<path d="M124,48v -11" fill="none" stroke="black" stroke-width="3"/>
<path d="M106,43v -6" fill="none" stroke="black" stroke-width="3"/>
<path d="M88,43v -6" fill="none" stroke="black" stroke-width="3"/>
<path d="M477,48v -11" fill="none" stroke="black" stroke-width="3"/>
<path d="M495,43v -6" fill="none" stroke="black" stroke-width="3"/>
<path d="M513,43v -6" fill="none" stroke="black" stroke-width="3"/>
<path d="M79,396v -359" fill="none" stroke="black" stroke-width="3"/>
<path d="M92,396h -13" fill="none" stroke="black" stroke-width="3"/>
<path d="M86,378h -7" fill="none" stroke="black" stroke-width="3"/>
<path d="M86,360h -7" fill="none" stroke="black" stroke-width="3"/>
<path d="M86,342h -7" fill="none" stroke="black" stroke-width="3"/>
<path d="M86,324h -7" fill="none" stroke="black" stroke-width="3"/>
<path d="M92,306h -13" fill="none" stroke="black" stroke-width="3"/>
<path d="M86,288h -7" fill="none" stroke="black" stroke-width="3"/>
<path d="M86,271h -7" fill="none" stroke="black" stroke-width="3"/>
<path d="M86,253h -7" fill="none" stroke="black" stroke-width="3"/>
<path d="M86,235h -7" fill="none" stroke="black" stroke-width="3"/>
<path d="M92,217h -13" fill="none" stroke="black" stroke-width="3"/>
<path d="M86,199h -7" fill="none" stroke="black" stroke-width="3"/>
<path d="M86,181h -7" fill="none" stroke="black" stroke-width="3"/>
<path d="M86,163h -7" fill="none" stroke="black" stroke-width="3"/>
<path d="M86,145h -7" fill="none" stroke="black" stroke-width="3"/>
<path d="M92,127h -13" fill="none" stroke="black" stroke-width="3"/>
<path d="M86,109h -7" fill="none" stroke="black" stroke-width="3"/>
<path d="M86,91h -7" fill="none" stroke="black" stroke-width="3"/>
<path d="M86,73h -7" fill="none" stroke="black" stroke-width="3"/>
<path d="M86,55h -7" fill="none" stroke="black" stroke-width="3"/>
<path d="M92,37h -13" fill="none" stroke="black" stroke-width="3"/>
<path d="M92,37h -13" fill="none" stroke="black" stroke-width="3"/>
<text x="46" y="404" fill="black" font-size="21" font-family="Times" font-weight="bold">
0.0
</text>
<text x="46" y="314" fill="black" font-size="21" font-family="Times" font-weight="bold">
0.1
</text>
<text x="46" y="224" fill="black" font-size="21" font-family="Times" font-weight="bold">
0.2
</text>
<text x="46" y="134" fill="black" font-size="21" font-family="Times" font-weight="bold">
0.3
</text>
<text x="46" y="45" fill="black" font-size="21" font-family="Times" font-weight="bold">
0.4
</text>
<path d="M522,396v -359" fill="none" stroke="black" stroke-width="3"/>
<path d="M508,396h 14" fill="none" stroke="black" stroke-width="3"/>
<path d="M515,378h 7" fill="none" stroke="black" stroke-width="3"/>
<path d="M515,360h 7" fill="none" stroke="black" stroke-width="3"/>
<path d="M515,342h 7" fill="none" stroke="black" stroke-width="3"/>
<path d="M515,324h 7" fill="none" stroke="black" stroke-width="3"/>
<path d="M508,306h 14" fill="none" stroke="black" stroke-width="3"/>
<path d="M515,288h 7" fill="none" stroke="black" stroke-width="3"/>
<path d="M515,271h 7" fill="none" stroke="black" stroke-width="3"/>
<path d="M515,253h 7" fill="none" stroke="black" stroke-width="3"/>
<path d="M515,235h 7" fill="none" stroke="black" stroke-width="3"/>
<path d="M508,217h 14" fill="none" stroke="black" stroke-width="3"/>
<path d="M515,199h 7" fill="none" stroke="black" stroke-width="3"/>
<path d="M515,181h 7" fill="none" stroke="black" stroke-width="3"/>
<path d="M515,163h 7" fill="none" stroke="black" stroke-width="3"/>
<path d="M515,145h 7" fill="none" stroke="black" stroke-width="3"/>
<path d="M508,127h 14" fill="none" stroke="black" stroke-width="3"/>
<path d="M515,109h 7" fill="none" stroke="black" stroke-width="3"/>
<path d="M515,91h 7" fill="none" stroke="black" stroke-width="3"/>
<path d="M515,73h 7" fill="none" stroke="black" stroke-width="3"/>
<path d="M515,55h 7" fill="none" stroke="black" stroke-width="3"/>
<path d="M508,37h 14" fill="none" stroke="black" stroke-width="3"/>
<path d="M508,37h 14" fill="none" stroke="black" stroke-width="3"/>
<rect x="113" y="-4" width="286" height="38" fill="white"/>
<text x="134" y="24" fill="black" font-size="30" font-family="Helvetica" font-weight="bold">
IGHD3-3_star_02
</text>
<path d="M124,286v -186" fill="none" stroke="#ff0000" stroke-width="6"/>
<path d="M124,94v -57" fill="none" stroke="#ff0000" stroke-width="6"/>
<path d="M79,97h 41" fill="none" stroke="#ff0000" stroke-width="6"/>
<path d="M127,97h 41" fill="none" stroke="#ff0000" stroke-width="6"/>
<g stroke="#ff0000" stroke-width="6" fill="#ff0000">
<circle cx="124" cy="97" r="3.5"/>
</g>
<path d="M212,393v -105" fill="none" stroke="#ff0000" stroke-width="6"/>
<g stroke="#ff0000" stroke-width="6" fill="#ff0000">
<circle cx="212" cy="396" r="3.5"/>
</g>
<path d="M300,393v -105" fill="none" stroke="#ff0000" stroke-width="6"/>
<g stroke="#ff0000" stroke-width="6" fill="#ff0000">
<circle cx="300" cy="396" r="3.5"/>
</g>
<path d="M389,393v -105" fill="none" stroke="#ff0000" stroke-width="6"/>
<g stroke="#ff0000" stroke-width="6" fill="#ff0000">
<circle cx="389" cy="396" r="3.5"/>
</g>
<path d="M477,393v -105" fill="none" stroke="#ff0000" stroke-width="6"/>
<g stroke="#ff0000" stroke-width="6" fill="#ff0000">
<circle cx="477" cy="396" r="3.5"/>
</g>
<path d="M332,107h 42" fill="none" stroke="#ff0000" stroke-width="6"/>
<rect x="113" y="-4" width="286" height="38" fill="white"/>
<text x="134" y="24" fill="black" font-size="30" font-family="Helvetica" font-weight="bold">
IGHD3-3_star_02
</text></svg>
