<?xml version="1.0" standalone="no"?>
<svg width="567" height="466" viewBox="0 0 567 466" xmlns="http://www.w3.org/2000/svg">
<title>
/bbx/output/_plots/example/hmm/true/mute-freqs/d/plots/IGHD6-13_star_01.svg
</title>
<desc>
Creator: ROOT Version 5.34/14
CreationDate: Wed Aug 19 22:00:19 2015</desc>
<defs>
</defs>
<rect x="0" y="0" width="567" height="466" fill="white"/>
<rect x="79" y="37" width="443" height="359" fill="none" stroke="black"/>
<rect x="79" y="37" width="443" height="359" fill="none" stroke="black"/>
<path d="M79,396h 443" fill="none" stroke="black" stroke-width="3"/>
<path d="M90,385v 11" fill="none" stroke="black" stroke-width="3"/>
<path d="M111,391v 5" fill="none" stroke="black" stroke-width="3"/>
<path d="M132,391v 5" fill="none" stroke="black" stroke-width="3"/>
<path d="M153,391v 5" fill="none" stroke="black" stroke-width="3"/>
<path d="M174,391v 5" fill="none" stroke="black" stroke-width="3"/>
<path d="M195,385v 11" fill="none" stroke="black" stroke-width="3"/>
<path d="M216,391v 5" fill="none" stroke="black" stroke-width="3"/>
<path d="M237,391v 5" fill="none" stroke="black" stroke-width="3"/>
<path d="M258,391v 5" fill="none" stroke="black" stroke-width="3"/>
<path d="M279,391v 5" fill="none" stroke="black" stroke-width="3"/>
<path d="M300,385v 11" fill="none" stroke="black" stroke-width="3"/>
<path d="M322,391v 5" fill="none" stroke="black" stroke-width="3"/>
<path d="M343,391v 5" fill="none" stroke="black" stroke-width="3"/>
<path d="M364,391v 5" fill="none" stroke="black" stroke-width="3"/>
<path d="M385,391v 5" fill="none" stroke="black" stroke-width="3"/>
<path d="M406,385v 11" fill="none" stroke="black" stroke-width="3"/>
<path d="M427,391v 5" fill="none" stroke="black" stroke-width="3"/>
<path d="M448,391v 5" fill="none" stroke="black" stroke-width="3"/>
<path d="M469,391v 5" fill="none" stroke="black" stroke-width="3"/>
<path d="M490,391v 5" fill="none" stroke="black" stroke-width="3"/>
<path d="M511,385v 11" fill="none" stroke="black" stroke-width="3"/>
<path d="M90,385v 11" fill="none" stroke="black" stroke-width="3"/>
<path d="M511,385v 11" fill="none" stroke="black" stroke-width="3"/>
<text x="84" y="416" fill="black" font-size="21" font-family="Times" font-weight="bold">
0
</text>
<text x="189" y="416" fill="black" font-size="21" font-family="Times" font-weight="bold">
5
</text>
<text x="288" y="416" fill="black" font-size="21" font-family="Times" font-weight="bold">
10
</text>
<text x="394" y="416" fill="black" font-size="21" font-family="Times" font-weight="bold">
15
</text>
<text x="499" y="416" fill="black" font-size="21" font-family="Times" font-weight="bold">
20
</text>
<path d="M79,37h 443" fill="none" stroke="black" stroke-width="3"/>
<path d="M90,48v -11" fill="none" stroke="black" stroke-width="3"/>
<path d="M111,43v -6" fill="none" stroke="black" stroke-width="3"/>
<path d="M132,43v -6" fill="none" stroke="black" stroke-width="3"/>
<path d="M153,43v -6" fill="none" stroke="black" stroke-width="3"/>
<path d="M174,43v -6" fill="none" stroke="black" stroke-width="3"/>
<path d="M195,48v -11" fill="none" stroke="black" stroke-width="3"/>
<path d="M216,43v -6" fill="none" stroke="black" stroke-width="3"/>
<path d="M237,43v -6" fill="none" stroke="black" stroke-width="3"/>
<path d="M258,43v -6" fill="none" stroke="black" stroke-width="3"/>
<path d="M279,43v -6" fill="none" stroke="black" stroke-width="3"/>
<path d="M300,48v -11" fill="none" stroke="black" stroke-width="3"/>
<path d="M322,43v -6" fill="none" stroke="black" stroke-width="3"/>
<path d="M343,43v -6" fill="none" stroke="black" stroke-width="3"/>
<path d="M364,43v -6" fill="none" stroke="black" stroke-width="3"/>
<path d="M385,43v -6" fill="none" stroke="black" stroke-width="3"/>
<path d="M406,48v -11" fill="none" stroke="black" stroke-width="3"/>
<path d="M427,43v -6" fill="none" stroke="black" stroke-width="3"/>
<path d="M448,43v -6" fill="none" stroke="black" stroke-width="3"/>
<path d="M469,43v -6" fill="none" stroke="black" stroke-width="3"/>
<path d="M490,43v -6" fill="none" stroke="black" stroke-width="3"/>
<path d="M511,48v -11" fill="none" stroke="black" stroke-width="3"/>
<path d="M90,48v -11" fill="none" stroke="black" stroke-width="3"/>
<path d="M511,48v -11" fill="none" stroke="black" stroke-width="3"/>
<path d="M79,396v -359" fill="none" stroke="black" stroke-width="3"/>
<path d="M92,396h -13" fill="none" stroke="black" stroke-width="3"/>
<path d="M86,373h -7" fill="none" stroke="black" stroke-width="3"/>
<path d="M86,350h -7" fill="none" stroke="black" stroke-width="3"/>
<path d="M86,327h -7" fill="none" stroke="black" stroke-width="3"/>
<path d="M92,304h -13" fill="none" stroke="black" stroke-width="3"/>
<path d="M86,281h -7" fill="none" stroke="black" stroke-width="3"/>
<path d="M86,257h -7" fill="none" stroke="black" stroke-width="3"/>
<path d="M86,234h -7" fill="none" stroke="black" stroke-width="3"/>
<path d="M92,211h -13" fill="none" stroke="black" stroke-width="3"/>
<path d="M86,188h -7" fill="none" stroke="black" stroke-width="3"/>
<path d="M86,165h -7" fill="none" stroke="black" stroke-width="3"/>
<path d="M86,142h -7" fill="none" stroke="black" stroke-width="3"/>
<path d="M92,119h -13" fill="none" stroke="black" stroke-width="3"/>
<path d="M92,119h -13" fill="none" stroke="black" stroke-width="3"/>
<path d="M86,96h -7" fill="none" stroke="black" stroke-width="3"/>
<path d="M86,73h -7" fill="none" stroke="black" stroke-width="3"/>
<path d="M86,50h -7" fill="none" stroke="black" stroke-width="3"/>
<text x="46" y="404" fill="black" font-size="21" font-family="Times" font-weight="bold">
0.0
</text>
<text x="46" y="311" fill="black" font-size="21" font-family="Times" font-weight="bold">
0.2
</text>
<text x="46" y="219" fill="black" font-size="21" font-family="Times" font-weight="bold">
0.4
</text>
<text x="46" y="126" fill="black" font-size="21" font-family="Times" font-weight="bold">
0.6
</text>
<path d="M522,396v -359" fill="none" stroke="black" stroke-width="3"/>
<path d="M508,396h 14" fill="none" stroke="black" stroke-width="3"/>
<path d="M515,373h 7" fill="none" stroke="black" stroke-width="3"/>
<path d="M515,350h 7" fill="none" stroke="black" stroke-width="3"/>
<path d="M515,327h 7" fill="none" stroke="black" stroke-width="3"/>
<path d="M508,304h 14" fill="none" stroke="black" stroke-width="3"/>
<path d="M515,281h 7" fill="none" stroke="black" stroke-width="3"/>
<path d="M515,257h 7" fill="none" stroke="black" stroke-width="3"/>
<path d="M515,234h 7" fill="none" stroke="black" stroke-width="3"/>
<path d="M508,211h 14" fill="none" stroke="black" stroke-width="3"/>
<path d="M515,188h 7" fill="none" stroke="black" stroke-width="3"/>
<path d="M515,165h 7" fill="none" stroke="black" stroke-width="3"/>
<path d="M515,142h 7" fill="none" stroke="black" stroke-width="3"/>
<path d="M508,119h 14" fill="none" stroke="black" stroke-width="3"/>
<path d="M508,119h 14" fill="none" stroke="black" stroke-width="3"/>
<path d="M515,96h 7" fill="none" stroke="black" stroke-width="3"/>
<path d="M515,73h 7" fill="none" stroke="black" stroke-width="3"/>
<path d="M515,50h 7" fill="none" stroke="black" stroke-width="3"/>
<rect x="113" y="-4" width="303" height="38" fill="white"/>
<text x="136" y="24" fill="black" font-size="30" font-family="Helvetica" font-weight="bold">
IGHD6-13_star_01
</text>
<path d="M90,393v -11" fill="none" stroke="#ff0000" stroke-width="6"/>
<g stroke="#ff0000" stroke-width="6" fill="#ff0000">
<circle cx="90" cy="396" r="3.5"/>
</g>
<path d="M111,393v -11" fill="none" stroke="#ff0000" stroke-width="6"/>
<g stroke="#ff0000" stroke-width="6" fill="#ff0000">
<circle cx="111" cy="396" r="3.5"/>
</g>
<path d="M132,356v -38" fill="none" stroke="#ff0000" stroke-width="6"/>
<path d="M132,311v -37" fill="none" stroke="#ff0000" stroke-width="6"/>
<path d="M121,315h 8" fill="none" stroke="#ff0000" stroke-width="6"/>
<path d="M135,315h 8" fill="none" stroke="#ff0000" stroke-width="6"/>
<g stroke="#ff0000" stroke-width="6" fill="#ff0000">
<circle cx="132" cy="315" r="3.5"/>
</g>
<path d="M153,282v -46" fill="none" stroke="#ff0000" stroke-width="6"/>
<path d="M153,230v -46" fill="none" stroke="#ff0000" stroke-width="6"/>
<path d="M143,233h 7" fill="none" stroke="#ff0000" stroke-width="6"/>
<path d="M156,233h 8" fill="none" stroke="#ff0000" stroke-width="6"/>
<g stroke="#ff0000" stroke-width="6" fill="#ff0000">
<circle cx="153" cy="233" r="3.5"/>
</g>
<path d="M174,282v -46" fill="none" stroke="#ff0000" stroke-width="6"/>
<path d="M174,230v -46" fill="none" stroke="#ff0000" stroke-width="6"/>
<path d="M164,233h 7" fill="none" stroke="#ff0000" stroke-width="6"/>
<path d="M177,233h 8" fill="none" stroke="#ff0000" stroke-width="6"/>
<g stroke="#ff0000" stroke-width="6" fill="#ff0000">
<circle cx="174" cy="233" r="3.5"/>
</g>
<path d="M195,146v -46" fill="none" stroke="#ff0000" stroke-width="6"/>
<path d="M195,94v -46" fill="none" stroke="#ff0000" stroke-width="6"/>
<path d="M185,97h 7" fill="none" stroke="#ff0000" stroke-width="6"/>
<path d="M198,97h 8" fill="none" stroke="#ff0000" stroke-width="6"/>
<g stroke="#ff0000" stroke-width="6" fill="#ff0000">
<circle cx="195" cy="97" r="3.5"/>
</g>
<path d="M216,308v -45" fill="none" stroke="#ff0000" stroke-width="6"/>
<path d="M216,257v -44" fill="none" stroke="#ff0000" stroke-width="6"/>
<path d="M206,260h 7" fill="none" stroke="#ff0000" stroke-width="6"/>
<path d="M220,260h 7" fill="none" stroke="#ff0000" stroke-width="6"/>
<g stroke="#ff0000" stroke-width="6" fill="#ff0000">
<circle cx="216" cy="260" r="3.5"/>
</g>
<path d="M237,396v -16" fill="none" stroke="#ff0000" stroke-width="6"/>
<path d="M237,374v -19" fill="none" stroke="#ff0000" stroke-width="6"/>
<path d="M227,377h 7" fill="none" stroke="#ff0000" stroke-width="6"/>
<path d="M241,377h 7" fill="none" stroke="#ff0000" stroke-width="6"/>
<g stroke="#ff0000" stroke-width="6" fill="#ff0000">
<circle cx="237" cy="377" r="3.5"/>
</g>
<path d="M258,393v -7" fill="none" stroke="#ff0000" stroke-width="6"/>
<g stroke="#ff0000" stroke-width="6" fill="#ff0000">
<circle cx="258" cy="396" r="3.5"/>
</g>
<path d="M279,284v -39" fill="none" stroke="#ff0000" stroke-width="6"/>
<path d="M279,239v -39" fill="none" stroke="#ff0000" stroke-width="6"/>
<path d="M269,242h 7" fill="none" stroke="#ff0000" stroke-width="6"/>
<path d="M283,242h 7" fill="none" stroke="#ff0000" stroke-width="6"/>
<g stroke="#ff0000" stroke-width="6" fill="#ff0000">
<circle cx="279" cy="242" r="3.5"/>
</g>
<path d="M300,385v -24" fill="none" stroke="#ff0000" stroke-width="6"/>
<path d="M300,354v -23" fill="none" stroke="#ff0000" stroke-width="6"/>
<path d="M290,358h 7" fill="none" stroke="#ff0000" stroke-width="6"/>
<path d="M304,358h 7" fill="none" stroke="#ff0000" stroke-width="6"/>
<g stroke="#ff0000" stroke-width="6" fill="#ff0000">
<circle cx="300" cy="358" r="3.5"/>
</g>
<path d="M322,393v -7" fill="none" stroke="#ff0000" stroke-width="6"/>
<g stroke="#ff0000" stroke-width="6" fill="#ff0000">
<circle cx="322" cy="396" r="3.5"/>
</g>
<path d="M343,393v -7" fill="none" stroke="#ff0000" stroke-width="6"/>
<g stroke="#ff0000" stroke-width="6" fill="#ff0000">
<circle cx="343" cy="396" r="3.5"/>
</g>
<path d="M364,385v -24" fill="none" stroke="#ff0000" stroke-width="6"/>
<path d="M364,354v -23" fill="none" stroke="#ff0000" stroke-width="6"/>
<path d="M353,358h 7" fill="none" stroke="#ff0000" stroke-width="6"/>
<path d="M367,358h 7" fill="none" stroke="#ff0000" stroke-width="6"/>
<g stroke="#ff0000" stroke-width="6" fill="#ff0000">
<circle cx="364" cy="358" r="3.5"/>
</g>
<path d="M385,336v -33" fill="none" stroke="#ff0000" stroke-width="6"/>
<path d="M385,297v -34" fill="none" stroke="#ff0000" stroke-width="6"/>
<path d="M374,300h 7" fill="none" stroke="#ff0000" stroke-width="6"/>
<path d="M388,300h 7" fill="none" stroke="#ff0000" stroke-width="6"/>
<g stroke="#ff0000" stroke-width="6" fill="#ff0000">
<circle cx="385" cy="300" r="3.5"/>
</g>
<path d="M406,385v -24" fill="none" stroke="#ff0000" stroke-width="6"/>
<path d="M406,354v -23" fill="none" stroke="#ff0000" stroke-width="6"/>
<path d="M395,358h 8" fill="none" stroke="#ff0000" stroke-width="6"/>
<path d="M409,358h 7" fill="none" stroke="#ff0000" stroke-width="6"/>
<g stroke="#ff0000" stroke-width="6" fill="#ff0000">
<circle cx="406" cy="358" r="3.5"/>
</g>
<path d="M427,394v -46" fill="none" stroke="#ff0000" stroke-width="6"/>
<path d="M427,342v -47" fill="none" stroke="#ff0000" stroke-width="6"/>
<path d="M416,345h 8" fill="none" stroke="#ff0000" stroke-width="6"/>
<path d="M430,345h 7" fill="none" stroke="#ff0000" stroke-width="6"/>
<g stroke="#ff0000" stroke-width="6" fill="#ff0000">
<circle cx="427" cy="345" r="3.5"/>
</g>
<path d="M448,352v -55" fill="none" stroke="#ff0000" stroke-width="6"/>
<path d="M448,290v -56" fill="none" stroke="#ff0000" stroke-width="6"/>
<path d="M437,293h 8" fill="none" stroke="#ff0000" stroke-width="6"/>
<path d="M451,293h 7" fill="none" stroke="#ff0000" stroke-width="6"/>
<g stroke="#ff0000" stroke-width="6" fill="#ff0000">
<circle cx="448" cy="293" r="3.5"/>
</g>
<path d="M469,394v -46" fill="none" stroke="#ff0000" stroke-width="6"/>
<path d="M469,342v -47" fill="none" stroke="#ff0000" stroke-width="6"/>
<path d="M458,345h 8" fill="none" stroke="#ff0000" stroke-width="6"/>
<path d="M472,345h 7" fill="none" stroke="#ff0000" stroke-width="6"/>
<g stroke="#ff0000" stroke-width="6" fill="#ff0000">
<circle cx="469" cy="345" r="3.5"/>
</g>
<path d="M490,292v -66" fill="none" stroke="#ff0000" stroke-width="6"/>
<path d="M490,220v -66" fill="none" stroke="#ff0000" stroke-width="6"/>
<path d="M479,223h 8" fill="none" stroke="#ff0000" stroke-width="6"/>
<path d="M493,223h 8" fill="none" stroke="#ff0000" stroke-width="6"/>
<g stroke="#ff0000" stroke-width="6" fill="#ff0000">
<circle cx="490" cy="223" r="3.5"/>
</g>
<path d="M511,393v -27" fill="none" stroke="#ff0000" stroke-width="6"/>
<g stroke="#ff0000" stroke-width="6" fill="#ff0000">
<circle cx="511" cy="396" r="3.5"/>
</g>
<path d="M332,107h 42" fill="none" stroke="#ff0000" stroke-width="6"/>
<rect x="113" y="-4" width="303" height="38" fill="white"/>
<text x="136" y="24" fill="black" font-size="30" font-family="Helvetica" font-weight="bold">
IGHD6-13_star_01
</text></svg>
