<?xml version="1.0" standalone="no"?>
<svg width="567" height="466" viewBox="0 0 567 466" xmlns="http://www.w3.org/2000/svg">
<title>
/bbx/output/_plots/example/sw/true/vd_insertion/plots/IGHD2-15_star_01-vd_insertion.svg
</title>
<desc>
Creator: ROOT Version 5.34/14
CreationDate: Thu Jul 30 17:05:57 2015</desc>
<defs>
</defs>
<rect x="0" y="0" width="567" height="466" fill="white"/>
<rect x="79" y="37" width="443" height="359" fill="none" stroke="black"/>
<rect x="79" y="37" width="443" height="359" fill="none" stroke="black"/>
<path d="M79,396h 443" fill="none" stroke="black" stroke-width="3"/>
<path d="M153,385v 11" fill="none" stroke="black" stroke-width="3"/>
<path d="M183,391v 5" fill="none" stroke="black" stroke-width="3"/>
<path d="M212,391v 5" fill="none" stroke="black" stroke-width="3"/>
<path d="M242,391v 5" fill="none" stroke="black" stroke-width="3"/>
<path d="M271,391v 5" fill="none" stroke="black" stroke-width="3"/>
<path d="M300,385v 11" fill="none" stroke="black" stroke-width="3"/>
<path d="M330,391v 5" fill="none" stroke="black" stroke-width="3"/>
<path d="M359,391v 5" fill="none" stroke="black" stroke-width="3"/>
<path d="M389,391v 5" fill="none" stroke="black" stroke-width="3"/>
<path d="M418,391v 5" fill="none" stroke="black" stroke-width="3"/>
<path d="M448,385v 11" fill="none" stroke="black" stroke-width="3"/>
<path d="M153,385v 11" fill="none" stroke="black" stroke-width="3"/>
<path d="M124,391v 5" fill="none" stroke="black" stroke-width="3"/>
<path d="M94,391v 5" fill="none" stroke="black" stroke-width="3"/>
<path d="M448,385v 11" fill="none" stroke="black" stroke-width="3"/>
<path d="M477,391v 5" fill="none" stroke="black" stroke-width="3"/>
<path d="M507,391v 5" fill="none" stroke="black" stroke-width="3"/>
<text x="147" y="416" fill="black" font-size="21" font-family="Times" font-weight="bold">
1
</text>
<text x="294" y="416" fill="black" font-size="21" font-family="Times" font-weight="bold">
2
</text>
<text x="441" y="416" fill="black" font-size="21" font-family="Times" font-weight="bold">
3
</text>
<path d="M79,37h 443" fill="none" stroke="black" stroke-width="3"/>
<path d="M153,48v -11" fill="none" stroke="black" stroke-width="3"/>
<path d="M183,43v -6" fill="none" stroke="black" stroke-width="3"/>
<path d="M212,43v -6" fill="none" stroke="black" stroke-width="3"/>
<path d="M242,43v -6" fill="none" stroke="black" stroke-width="3"/>
<path d="M271,43v -6" fill="none" stroke="black" stroke-width="3"/>
<path d="M300,48v -11" fill="none" stroke="black" stroke-width="3"/>
<path d="M330,43v -6" fill="none" stroke="black" stroke-width="3"/>
<path d="M359,43v -6" fill="none" stroke="black" stroke-width="3"/>
<path d="M389,43v -6" fill="none" stroke="black" stroke-width="3"/>
<path d="M418,43v -6" fill="none" stroke="black" stroke-width="3"/>
<path d="M448,48v -11" fill="none" stroke="black" stroke-width="3"/>
<path d="M153,48v -11" fill="none" stroke="black" stroke-width="3"/>
<path d="M124,43v -6" fill="none" stroke="black" stroke-width="3"/>
<path d="M94,43v -6" fill="none" stroke="black" stroke-width="3"/>
<path d="M448,48v -11" fill="none" stroke="black" stroke-width="3"/>
<path d="M477,43v -6" fill="none" stroke="black" stroke-width="3"/>
<path d="M507,43v -6" fill="none" stroke="black" stroke-width="3"/>
<path d="M79,396v -359" fill="none" stroke="black" stroke-width="3"/>
<path d="M92,396h -13" fill="none" stroke="black" stroke-width="3"/>
<path d="M86,369h -7" fill="none" stroke="black" stroke-width="3"/>
<path d="M86,342h -7" fill="none" stroke="black" stroke-width="3"/>
<path d="M86,315h -7" fill="none" stroke="black" stroke-width="3"/>
<path d="M86,287h -7" fill="none" stroke="black" stroke-width="3"/>
<path d="M92,260h -13" fill="none" stroke="black" stroke-width="3"/>
<path d="M86,233h -7" fill="none" stroke="black" stroke-width="3"/>
<path d="M86,206h -7" fill="none" stroke="black" stroke-width="3"/>
<path d="M86,179h -7" fill="none" stroke="black" stroke-width="3"/>
<path d="M86,152h -7" fill="none" stroke="black" stroke-width="3"/>
<path d="M92,124h -13" fill="none" stroke="black" stroke-width="3"/>
<path d="M92,124h -13" fill="none" stroke="black" stroke-width="3"/>
<path d="M86,97h -7" fill="none" stroke="black" stroke-width="3"/>
<path d="M86,70h -7" fill="none" stroke="black" stroke-width="3"/>
<path d="M86,43h -7" fill="none" stroke="black" stroke-width="3"/>
<text x="63" y="404" fill="black" font-size="21" font-family="Times" font-weight="bold">
0
</text>
<text x="63" y="268" fill="black" font-size="21" font-family="Times" font-weight="bold">
5
</text>
<text x="51" y="132" fill="black" font-size="21" font-family="Times" font-weight="bold">
10
</text>
<path d="M522,396v -359" fill="none" stroke="black" stroke-width="3"/>
<path d="M508,396h 14" fill="none" stroke="black" stroke-width="3"/>
<path d="M515,369h 7" fill="none" stroke="black" stroke-width="3"/>
<path d="M515,342h 7" fill="none" stroke="black" stroke-width="3"/>
<path d="M515,315h 7" fill="none" stroke="black" stroke-width="3"/>
<path d="M515,287h 7" fill="none" stroke="black" stroke-width="3"/>
<path d="M508,260h 14" fill="none" stroke="black" stroke-width="3"/>
<path d="M515,233h 7" fill="none" stroke="black" stroke-width="3"/>
<path d="M515,206h 7" fill="none" stroke="black" stroke-width="3"/>
<path d="M515,179h 7" fill="none" stroke="black" stroke-width="3"/>
<path d="M515,152h 7" fill="none" stroke="black" stroke-width="3"/>
<path d="M508,124h 14" fill="none" stroke="black" stroke-width="3"/>
<path d="M508,124h 14" fill="none" stroke="black" stroke-width="3"/>
<path d="M515,97h 7" fill="none" stroke="black" stroke-width="3"/>
<path d="M515,70h 7" fill="none" stroke="black" stroke-width="3"/>
<path d="M515,43h 7" fill="none" stroke="black" stroke-width="3"/>
<rect x="113" y="-4" width="397" height="38" fill="white"/>
<text x="129" y="22" fill="black" font-size="24" font-family="Helvetica" font-weight="bold">
IGHD2-15_star_01-vd_insertion
</text>
<path d="M153,396v -24" fill="none" stroke="#ff0000" stroke-width="6"/>
<path d="M153,366v -24" fill="none" stroke="#ff0000" stroke-width="6"/>
<g stroke="#ff0000" stroke-width="6" fill="#ff0000">
<circle cx="153" cy="369" r="3.5"/>
</g>
<path d="M448,187v -87" fill="none" stroke="#ff0000" stroke-width="6"/>
<path d="M448,94v -57" fill="none" stroke="#ff0000" stroke-width="6"/>
<g stroke="#ff0000" stroke-width="6" fill="#ff0000">
<circle cx="448" cy="97" r="3.5"/>
</g>
<path d="M80,395v -26h 147v 26h 147v -298h 148" fill="none" stroke="#ff0000" stroke-width="6"/>
<path d="M332,107h 42" fill="none" stroke="#ff0000" stroke-width="6"/>
<rect x="113" y="-4" width="397" height="38" fill="white"/>
<text x="129" y="22" fill="black" font-size="24" font-family="Helvetica" font-weight="bold">
IGHD2-15_star_01-vd_insertion
</text></svg>
