<?xml version="1.0" standalone="no"?>
<svg width="567" height="466" viewBox="0 0 567 466" xmlns="http://www.w3.org/2000/svg">
<title>
_plots/example/hmm/performance/plots/d_3p_del.svg
</title>
<desc>
Creator: ROOT Version 5.34/14
CreationDate: Tue Jul 28 23:41:12 2015</desc>
<defs>
</defs>
<rect x="0" y="0" width="567" height="466" fill="white"/>
<rect x="79" y="37" width="443" height="359" fill="none" stroke="black"/>
<rect x="79" y="37" width="443" height="359" fill="none" stroke="black"/>
<path d="M79,396h 443" fill="none" stroke="black" stroke-width="3"/>
<text x="324" y="449" fill="black" font-size="32" font-family="Times" font-weight="bold">
inferred - true
</text>
<path d="M93,385v 11" fill="none" stroke="black" stroke-width="3"/>
<path d="M121,391v 5" fill="none" stroke="black" stroke-width="3"/>
<path d="M148,391v 5" fill="none" stroke="black" stroke-width="3"/>
<path d="M176,391v 5" fill="none" stroke="black" stroke-width="3"/>
<path d="M204,391v 5" fill="none" stroke="black" stroke-width="3"/>
<path d="M231,385v 11" fill="none" stroke="black" stroke-width="3"/>
<path d="M259,391v 5" fill="none" stroke="black" stroke-width="3"/>
<path d="M287,391v 5" fill="none" stroke="black" stroke-width="3"/>
<path d="M314,391v 5" fill="none" stroke="black" stroke-width="3"/>
<path d="M342,391v 5" fill="none" stroke="black" stroke-width="3"/>
<path d="M370,385v 11" fill="none" stroke="black" stroke-width="3"/>
<path d="M397,391v 5" fill="none" stroke="black" stroke-width="3"/>
<path d="M425,391v 5" fill="none" stroke="black" stroke-width="3"/>
<path d="M452,391v 5" fill="none" stroke="black" stroke-width="3"/>
<path d="M480,391v 5" fill="none" stroke="black" stroke-width="3"/>
<path d="M508,385v 11" fill="none" stroke="black" stroke-width="3"/>
<path d="M93,385v 11" fill="none" stroke="black" stroke-width="3"/>
<path d="M508,385v 11" fill="none" stroke="black" stroke-width="3"/>
<text x="78" y="416" fill="black" font-size="21" font-family="Times" font-weight="bold">
-10
</text>
<text x="222" y="416" fill="black" font-size="21" font-family="Times" font-weight="bold">
-5
</text>
<text x="363" y="416" fill="black" font-size="21" font-family="Times" font-weight="bold">
0
</text>
<text x="502" y="416" fill="black" font-size="21" font-family="Times" font-weight="bold">
5
</text>
<path d="M79,37h 443" fill="none" stroke="black" stroke-width="3"/>
<path d="M93,48v -11" fill="none" stroke="black" stroke-width="3"/>
<path d="M121,43v -6" fill="none" stroke="black" stroke-width="3"/>
<path d="M148,43v -6" fill="none" stroke="black" stroke-width="3"/>
<path d="M176,43v -6" fill="none" stroke="black" stroke-width="3"/>
<path d="M204,43v -6" fill="none" stroke="black" stroke-width="3"/>
<path d="M231,48v -11" fill="none" stroke="black" stroke-width="3"/>
<path d="M259,43v -6" fill="none" stroke="black" stroke-width="3"/>
<path d="M287,43v -6" fill="none" stroke="black" stroke-width="3"/>
<path d="M314,43v -6" fill="none" stroke="black" stroke-width="3"/>
<path d="M342,43v -6" fill="none" stroke="black" stroke-width="3"/>
<path d="M370,48v -11" fill="none" stroke="black" stroke-width="3"/>
<path d="M397,43v -6" fill="none" stroke="black" stroke-width="3"/>
<path d="M425,43v -6" fill="none" stroke="black" stroke-width="3"/>
<path d="M452,43v -6" fill="none" stroke="black" stroke-width="3"/>
<path d="M480,43v -6" fill="none" stroke="black" stroke-width="3"/>
<path d="M508,48v -11" fill="none" stroke="black" stroke-width="3"/>
<path d="M93,48v -11" fill="none" stroke="black" stroke-width="3"/>
<path d="M508,48v -11" fill="none" stroke="black" stroke-width="3"/>
<path d="M79,396v -359" fill="none" stroke="black" stroke-width="3"/>
<path d="M92,396h -13" fill="none" stroke="black" stroke-width="3"/>
<path d="M86,376h -7" fill="none" stroke="black" stroke-width="3"/>
<path d="M86,355h -7" fill="none" stroke="black" stroke-width="3"/>
<path d="M86,334h -7" fill="none" stroke="black" stroke-width="3"/>
<path d="M92,314h -13" fill="none" stroke="black" stroke-width="3"/>
<path d="M86,293h -7" fill="none" stroke="black" stroke-width="3"/>
<path d="M86,272h -7" fill="none" stroke="black" stroke-width="3"/>
<path d="M86,252h -7" fill="none" stroke="black" stroke-width="3"/>
<path d="M92,231h -13" fill="none" stroke="black" stroke-width="3"/>
<path d="M86,211h -7" fill="none" stroke="black" stroke-width="3"/>
<path d="M86,190h -7" fill="none" stroke="black" stroke-width="3"/>
<path d="M86,169h -7" fill="none" stroke="black" stroke-width="3"/>
<path d="M92,149h -13" fill="none" stroke="black" stroke-width="3"/>
<path d="M86,128h -7" fill="none" stroke="black" stroke-width="3"/>
<path d="M86,108h -7" fill="none" stroke="black" stroke-width="3"/>
<path d="M86,87h -7" fill="none" stroke="black" stroke-width="3"/>
<path d="M92,66h -13" fill="none" stroke="black" stroke-width="3"/>
<path d="M92,66h -13" fill="none" stroke="black" stroke-width="3"/>
<path d="M86,46h -7" fill="none" stroke="black" stroke-width="3"/>
<text x="46" y="404" fill="black" font-size="21" font-family="Times" font-weight="bold">
0.0
</text>
<text x="46" y="321" fill="black" font-size="21" font-family="Times" font-weight="bold">
0.2
</text>
<text x="46" y="239" fill="black" font-size="21" font-family="Times" font-weight="bold">
0.4
</text>
<text x="46" y="156" fill="black" font-size="21" font-family="Times" font-weight="bold">
0.6
</text>
<text x="46" y="74" fill="black" font-size="21" font-family="Times" font-weight="bold">
0.8
</text>
<path d="M522,396v -359" fill="none" stroke="black" stroke-width="3"/>
<path d="M508,396h 14" fill="none" stroke="black" stroke-width="3"/>
<path d="M515,376h 7" fill="none" stroke="black" stroke-width="3"/>
<path d="M515,355h 7" fill="none" stroke="black" stroke-width="3"/>
<path d="M515,334h 7" fill="none" stroke="black" stroke-width="3"/>
<path d="M508,314h 14" fill="none" stroke="black" stroke-width="3"/>
<path d="M515,293h 7" fill="none" stroke="black" stroke-width="3"/>
<path d="M515,272h 7" fill="none" stroke="black" stroke-width="3"/>
<path d="M515,252h 7" fill="none" stroke="black" stroke-width="3"/>
<path d="M508,231h 14" fill="none" stroke="black" stroke-width="3"/>
<path d="M515,211h 7" fill="none" stroke="black" stroke-width="3"/>
<path d="M515,190h 7" fill="none" stroke="black" stroke-width="3"/>
<path d="M515,169h 7" fill="none" stroke="black" stroke-width="3"/>
<path d="M508,149h 14" fill="none" stroke="black" stroke-width="3"/>
<path d="M515,128h 7" fill="none" stroke="black" stroke-width="3"/>
<path d="M515,108h 7" fill="none" stroke="black" stroke-width="3"/>
<path d="M515,87h 7" fill="none" stroke="black" stroke-width="3"/>
<path d="M508,66h 14" fill="none" stroke="black" stroke-width="3"/>
<path d="M508,66h 14" fill="none" stroke="black" stroke-width="3"/>
<path d="M515,46h 7" fill="none" stroke="black" stroke-width="3"/>
<rect x="113" y="-4" width="149" height="40" fill="white"/>
<text x="118" y="25" fill="black" font-size="31" font-family="Helvetica" font-weight="bold">
d_3p_del
</text>
<path d="M80,395v -1h 27v 1h 111v -10h 27v 10h 28v -1h 27v -32h 28v 25h 28v -290h 27v 274h 28v 9h 28v 12h 27v -3h 28v 5h 28" fill="none" stroke="#ff0000" stroke-width="6"/>
<path d="M332,107h 42" fill="none" stroke="#ff0000" stroke-width="6"/>
<rect x="113" y="-4" width="149" height="40" fill="white"/>
<text x="118" y="25" fill="black" font-size="31" font-family="Helvetica" font-weight="bold">
d_3p_del
</text></svg>
