<?xml version="1.0" standalone="no"?>
<svg width="567" height="466" viewBox="0 0 567 466" xmlns="http://www.w3.org/2000/svg">
<title>
_plots/example/hmm/performance/plots/mute_freqs.svg
</title>
<desc>
Creator: ROOT Version 5.34/14
CreationDate: Tue Jul 28 23:41:12 2015</desc>
<defs>
</defs>
<rect x="0" y="0" width="567" height="466" fill="white"/>
<rect x="79" y="37" width="443" height="359" fill="none" stroke="black"/>
<rect x="79" y="37" width="443" height="359" fill="none" stroke="black"/>
<path d="M79,396h 443" fill="none" stroke="black" stroke-width="3"/>
<path d="M124,385v 11" fill="none" stroke="black" stroke-width="3"/>
<path d="M146,391v 5" fill="none" stroke="black" stroke-width="3"/>
<path d="M168,391v 5" fill="none" stroke="black" stroke-width="3"/>
<path d="M190,391v 5" fill="none" stroke="black" stroke-width="3"/>
<path d="M212,385v 11" fill="none" stroke="black" stroke-width="3"/>
<path d="M234,391v 5" fill="none" stroke="black" stroke-width="3"/>
<path d="M256,391v 5" fill="none" stroke="black" stroke-width="3"/>
<path d="M278,391v 5" fill="none" stroke="black" stroke-width="3"/>
<path d="M300,385v 11" fill="none" stroke="black" stroke-width="3"/>
<path d="M323,391v 5" fill="none" stroke="black" stroke-width="3"/>
<path d="M345,391v 5" fill="none" stroke="black" stroke-width="3"/>
<path d="M367,391v 5" fill="none" stroke="black" stroke-width="3"/>
<path d="M389,385v 11" fill="none" stroke="black" stroke-width="3"/>
<path d="M411,391v 5" fill="none" stroke="black" stroke-width="3"/>
<path d="M433,391v 5" fill="none" stroke="black" stroke-width="3"/>
<path d="M455,391v 5" fill="none" stroke="black" stroke-width="3"/>
<path d="M477,385v 11" fill="none" stroke="black" stroke-width="3"/>
<path d="M124,385v 11" fill="none" stroke="black" stroke-width="3"/>
<path d="M101,391v 5" fill="none" stroke="black" stroke-width="3"/>
<path d="M79,391v 5" fill="none" stroke="black" stroke-width="3"/>
<path d="M477,385v 11" fill="none" stroke="black" stroke-width="3"/>
<path d="M499,391v 5" fill="none" stroke="black" stroke-width="3"/>
<path d="M522,391v 5" fill="none" stroke="black" stroke-width="3"/>
<text x="100" y="416" fill="black" font-size="21" font-family="Times" font-weight="bold">
-0.04
</text>
<text x="189" y="416" fill="black" font-size="21" font-family="Times" font-weight="bold">
-0.02
</text>
<text x="280" y="416" fill="black" font-size="21" font-family="Times" font-weight="bold">
0.00
</text>
<text x="369" y="416" fill="black" font-size="21" font-family="Times" font-weight="bold">
0.02
</text>
<text x="458" y="416" fill="black" font-size="21" font-family="Times" font-weight="bold">
0.04
</text>
<path d="M79,37h 443" fill="none" stroke="black" stroke-width="3"/>
<path d="M124,48v -11" fill="none" stroke="black" stroke-width="3"/>
<path d="M146,43v -6" fill="none" stroke="black" stroke-width="3"/>
<path d="M168,43v -6" fill="none" stroke="black" stroke-width="3"/>
<path d="M190,43v -6" fill="none" stroke="black" stroke-width="3"/>
<path d="M212,48v -11" fill="none" stroke="black" stroke-width="3"/>
<path d="M234,43v -6" fill="none" stroke="black" stroke-width="3"/>
<path d="M256,43v -6" fill="none" stroke="black" stroke-width="3"/>
<path d="M278,43v -6" fill="none" stroke="black" stroke-width="3"/>
<path d="M300,48v -11" fill="none" stroke="black" stroke-width="3"/>
<path d="M323,43v -6" fill="none" stroke="black" stroke-width="3"/>
<path d="M345,43v -6" fill="none" stroke="black" stroke-width="3"/>
<path d="M367,43v -6" fill="none" stroke="black" stroke-width="3"/>
<path d="M389,48v -11" fill="none" stroke="black" stroke-width="3"/>
<path d="M411,43v -6" fill="none" stroke="black" stroke-width="3"/>
<path d="M433,43v -6" fill="none" stroke="black" stroke-width="3"/>
<path d="M455,43v -6" fill="none" stroke="black" stroke-width="3"/>
<path d="M477,48v -11" fill="none" stroke="black" stroke-width="3"/>
<path d="M124,48v -11" fill="none" stroke="black" stroke-width="3"/>
<path d="M101,43v -6" fill="none" stroke="black" stroke-width="3"/>
<path d="M79,43v -6" fill="none" stroke="black" stroke-width="3"/>
<path d="M477,48v -11" fill="none" stroke="black" stroke-width="3"/>
<path d="M499,43v -6" fill="none" stroke="black" stroke-width="3"/>
<path d="M522,43v -6" fill="none" stroke="black" stroke-width="3"/>
<path d="M79,396v -359" fill="none" stroke="black" stroke-width="3"/>
<path d="M92,396h -13" fill="none" stroke="black" stroke-width="3"/>
<path d="M86,367h -7" fill="none" stroke="black" stroke-width="3"/>
<path d="M86,339h -7" fill="none" stroke="black" stroke-width="3"/>
<path d="M86,310h -7" fill="none" stroke="black" stroke-width="3"/>
<path d="M92,281h -13" fill="none" stroke="black" stroke-width="3"/>
<path d="M86,252h -7" fill="none" stroke="black" stroke-width="3"/>
<path d="M86,224h -7" fill="none" stroke="black" stroke-width="3"/>
<path d="M86,195h -7" fill="none" stroke="black" stroke-width="3"/>
<path d="M92,166h -13" fill="none" stroke="black" stroke-width="3"/>
<path d="M86,137h -7" fill="none" stroke="black" stroke-width="3"/>
<path d="M86,109h -7" fill="none" stroke="black" stroke-width="3"/>
<path d="M86,80h -7" fill="none" stroke="black" stroke-width="3"/>
<path d="M92,51h -13" fill="none" stroke="black" stroke-width="3"/>
<path d="M92,51h -13" fill="none" stroke="black" stroke-width="3"/>
<text x="63" y="404" fill="black" font-size="21" font-family="Times" font-weight="bold">
0
</text>
<text x="51" y="289" fill="black" font-size="21" font-family="Times" font-weight="bold">
20
</text>
<text x="51" y="174" fill="black" font-size="21" font-family="Times" font-weight="bold">
40
</text>
<text x="51" y="59" fill="black" font-size="21" font-family="Times" font-weight="bold">
60
</text>
<path d="M522,396v -359" fill="none" stroke="black" stroke-width="3"/>
<path d="M508,396h 14" fill="none" stroke="black" stroke-width="3"/>
<path d="M515,367h 7" fill="none" stroke="black" stroke-width="3"/>
<path d="M515,339h 7" fill="none" stroke="black" stroke-width="3"/>
<path d="M515,310h 7" fill="none" stroke="black" stroke-width="3"/>
<path d="M508,281h 14" fill="none" stroke="black" stroke-width="3"/>
<path d="M515,252h 7" fill="none" stroke="black" stroke-width="3"/>
<path d="M515,224h 7" fill="none" stroke="black" stroke-width="3"/>
<path d="M515,195h 7" fill="none" stroke="black" stroke-width="3"/>
<path d="M508,166h 14" fill="none" stroke="black" stroke-width="3"/>
<path d="M515,137h 7" fill="none" stroke="black" stroke-width="3"/>
<path d="M515,109h 7" fill="none" stroke="black" stroke-width="3"/>
<path d="M515,80h 7" fill="none" stroke="black" stroke-width="3"/>
<path d="M508,51h 14" fill="none" stroke="black" stroke-width="3"/>
<path d="M508,51h 14" fill="none" stroke="black" stroke-width="3"/>
<rect x="113" y="-4" width="183" height="40" fill="white"/>
<text x="120" y="24" fill="black" font-size="30" font-family="Helvetica" font-weight="bold">
mute_freqs
</text>
<path d="M80,395h 73v -5h 15v 5h 15v -5h 14v -28h 15v 17h 15v -17h 15v -75h 14v -29h 15v -11h 29v -150h 15v 213h 15v 80h 15v -5h 14v 10h 163" fill="none" stroke="#ff0000" stroke-width="6"/>
<path d="M332,107h 42" fill="none" stroke="#ff0000" stroke-width="6"/>
<rect x="113" y="-4" width="183" height="40" fill="white"/>
<text x="120" y="24" fill="black" font-size="30" font-family="Helvetica" font-weight="bold">
mute_freqs
</text></svg>
