<?xml version="1.0" standalone="no"?>
<svg width="567" height="466" viewBox="0 0 567 466" xmlns="http://www.w3.org/2000/svg">
<title>
_plots/example/hmm/performance/plots/v_5p_del.svg
</title>
<desc>
Creator: ROOT Version 5.34/14
CreationDate: Tue Jul 28 23:41:12 2015</desc>
<defs>
</defs>
<rect x="0" y="0" width="567" height="466" fill="white"/>
<rect x="79" y="37" width="443" height="359" fill="none" stroke="black"/>
<rect x="79" y="37" width="443" height="359" fill="none" stroke="black"/>
<path d="M79,396h 443" fill="none" stroke="black" stroke-width="3"/>
<text x="324" y="449" fill="black" font-size="32" font-family="Times" font-weight="bold">
inferred - true
</text>
<path d="M82,385v 11" fill="none" stroke="black" stroke-width="3"/>
<path d="M113,391v 5" fill="none" stroke="black" stroke-width="3"/>
<path d="M143,391v 5" fill="none" stroke="black" stroke-width="3"/>
<path d="M173,391v 5" fill="none" stroke="black" stroke-width="3"/>
<path d="M204,385v 11" fill="none" stroke="black" stroke-width="3"/>
<path d="M234,391v 5" fill="none" stroke="black" stroke-width="3"/>
<path d="M264,391v 5" fill="none" stroke="black" stroke-width="3"/>
<path d="M294,391v 5" fill="none" stroke="black" stroke-width="3"/>
<path d="M325,385v 11" fill="none" stroke="black" stroke-width="3"/>
<path d="M355,391v 5" fill="none" stroke="black" stroke-width="3"/>
<path d="M385,391v 5" fill="none" stroke="black" stroke-width="3"/>
<path d="M416,391v 5" fill="none" stroke="black" stroke-width="3"/>
<path d="M446,385v 11" fill="none" stroke="black" stroke-width="3"/>
<path d="M82,385v 11" fill="none" stroke="black" stroke-width="3"/>
<path d="M446,385v 11" fill="none" stroke="black" stroke-width="3"/>
<path d="M476,391v 5" fill="none" stroke="black" stroke-width="3"/>
<path d="M506,391v 5" fill="none" stroke="black" stroke-width="3"/>
<text x="77" y="416" fill="black" font-size="21" font-family="Times" font-weight="bold">
0
</text>
<text x="191" y="416" fill="black" font-size="21" font-family="Times" font-weight="bold">
20
</text>
<text x="313" y="416" fill="black" font-size="21" font-family="Times" font-weight="bold">
40
</text>
<text x="434" y="416" fill="black" font-size="21" font-family="Times" font-weight="bold">
60
</text>
<path d="M79,37h 443" fill="none" stroke="black" stroke-width="3"/>
<path d="M82,48v -11" fill="none" stroke="black" stroke-width="3"/>
<path d="M113,43v -6" fill="none" stroke="black" stroke-width="3"/>
<path d="M143,43v -6" fill="none" stroke="black" stroke-width="3"/>
<path d="M173,43v -6" fill="none" stroke="black" stroke-width="3"/>
<path d="M204,48v -11" fill="none" stroke="black" stroke-width="3"/>
<path d="M234,43v -6" fill="none" stroke="black" stroke-width="3"/>
<path d="M264,43v -6" fill="none" stroke="black" stroke-width="3"/>
<path d="M294,43v -6" fill="none" stroke="black" stroke-width="3"/>
<path d="M325,48v -11" fill="none" stroke="black" stroke-width="3"/>
<path d="M355,43v -6" fill="none" stroke="black" stroke-width="3"/>
<path d="M385,43v -6" fill="none" stroke="black" stroke-width="3"/>
<path d="M416,43v -6" fill="none" stroke="black" stroke-width="3"/>
<path d="M446,48v -11" fill="none" stroke="black" stroke-width="3"/>
<path d="M82,48v -11" fill="none" stroke="black" stroke-width="3"/>
<path d="M446,48v -11" fill="none" stroke="black" stroke-width="3"/>
<path d="M476,43v -6" fill="none" stroke="black" stroke-width="3"/>
<path d="M506,43v -6" fill="none" stroke="black" stroke-width="3"/>
<path d="M79,396v -359" fill="none" stroke="black" stroke-width="3"/>
<path d="M92,396h -13" fill="none" stroke="black" stroke-width="3"/>
<path d="M86,364h -7" fill="none" stroke="black" stroke-width="3"/>
<path d="M86,331h -7" fill="none" stroke="black" stroke-width="3"/>
<path d="M86,298h -7" fill="none" stroke="black" stroke-width="3"/>
<path d="M86,266h -7" fill="none" stroke="black" stroke-width="3"/>
<path d="M92,233h -13" fill="none" stroke="black" stroke-width="3"/>
<path d="M86,201h -7" fill="none" stroke="black" stroke-width="3"/>
<path d="M86,168h -7" fill="none" stroke="black" stroke-width="3"/>
<path d="M86,135h -7" fill="none" stroke="black" stroke-width="3"/>
<path d="M86,103h -7" fill="none" stroke="black" stroke-width="3"/>
<path d="M92,70h -13" fill="none" stroke="black" stroke-width="3"/>
<path d="M92,70h -13" fill="none" stroke="black" stroke-width="3"/>
<path d="M86,38h -7" fill="none" stroke="black" stroke-width="3"/>
<text x="46" y="404" fill="black" font-size="21" font-family="Times" font-weight="bold">
0.0
</text>
<text x="46" y="241" fill="black" font-size="21" font-family="Times" font-weight="bold">
0.5
</text>
<text x="46" y="78" fill="black" font-size="21" font-family="Times" font-weight="bold">
1.0
</text>
<path d="M522,396v -359" fill="none" stroke="black" stroke-width="3"/>
<path d="M508,396h 14" fill="none" stroke="black" stroke-width="3"/>
<path d="M515,364h 7" fill="none" stroke="black" stroke-width="3"/>
<path d="M515,331h 7" fill="none" stroke="black" stroke-width="3"/>
<path d="M515,298h 7" fill="none" stroke="black" stroke-width="3"/>
<path d="M515,266h 7" fill="none" stroke="black" stroke-width="3"/>
<path d="M508,233h 14" fill="none" stroke="black" stroke-width="3"/>
<path d="M515,201h 7" fill="none" stroke="black" stroke-width="3"/>
<path d="M515,168h 7" fill="none" stroke="black" stroke-width="3"/>
<path d="M515,135h 7" fill="none" stroke="black" stroke-width="3"/>
<path d="M515,103h 7" fill="none" stroke="black" stroke-width="3"/>
<path d="M508,70h 14" fill="none" stroke="black" stroke-width="3"/>
<path d="M508,70h 14" fill="none" stroke="black" stroke-width="3"/>
<path d="M515,38h 7" fill="none" stroke="black" stroke-width="3"/>
<rect x="113" y="-4" width="147" height="39" fill="white"/>
<text x="121" y="23" fill="black" font-size="30" font-family="Helvetica" font-weight="bold">
v_5p_del
</text>
<path d="M80,395v -298h 5v 298h 431v -26h 6" fill="none" stroke="#ff0000" stroke-width="6"/>
<path d="M332,107h 42" fill="none" stroke="#ff0000" stroke-width="6"/>
<rect x="113" y="-4" width="147" height="39" fill="white"/>
<text x="121" y="23" fill="black" font-size="30" font-family="Helvetica" font-weight="bold">
v_5p_del
</text></svg>
