<?xml version="1.0" standalone="no"?>
<svg width="567" height="466" viewBox="0 0 567 466" xmlns="http://www.w3.org/2000/svg">
<title>
/bbx/output/_plots/example/sw/plots/d_3p_del.svg
</title>
<desc>
Creator: ROOT Version 5.34/14
CreationDate: Wed Aug 19 21:59:57 2015</desc>
<defs>
</defs>
<rect x="0" y="0" width="567" height="466" fill="white"/>
<rect x="79" y="37" width="443" height="359" fill="none" stroke="black"/>
<rect x="79" y="37" width="443" height="359" fill="none" stroke="black"/>
<path d="M79,396h 443" fill="none" stroke="black" stroke-width="3"/>
<path d="M95,385v 11" fill="none" stroke="black" stroke-width="3"/>
<path d="M127,391v 5" fill="none" stroke="black" stroke-width="3"/>
<path d="M158,391v 5" fill="none" stroke="black" stroke-width="3"/>
<path d="M190,391v 5" fill="none" stroke="black" stroke-width="3"/>
<path d="M222,391v 5" fill="none" stroke="black" stroke-width="3"/>
<path d="M253,385v 11" fill="none" stroke="black" stroke-width="3"/>
<path d="M285,391v 5" fill="none" stroke="black" stroke-width="3"/>
<path d="M316,391v 5" fill="none" stroke="black" stroke-width="3"/>
<path d="M348,391v 5" fill="none" stroke="black" stroke-width="3"/>
<path d="M379,391v 5" fill="none" stroke="black" stroke-width="3"/>
<path d="M411,385v 11" fill="none" stroke="black" stroke-width="3"/>
<path d="M95,385v 11" fill="none" stroke="black" stroke-width="3"/>
<path d="M411,385v 11" fill="none" stroke="black" stroke-width="3"/>
<path d="M443,391v 5" fill="none" stroke="black" stroke-width="3"/>
<path d="M474,391v 5" fill="none" stroke="black" stroke-width="3"/>
<path d="M506,391v 5" fill="none" stroke="black" stroke-width="3"/>
<text x="89" y="416" fill="black" font-size="21" font-family="Times" font-weight="bold">
0
</text>
<text x="247" y="416" fill="black" font-size="21" font-family="Times" font-weight="bold">
5
</text>
<text x="399" y="416" fill="black" font-size="21" font-family="Times" font-weight="bold">
10
</text>
<path d="M79,37h 443" fill="none" stroke="black" stroke-width="3"/>
<path d="M95,48v -11" fill="none" stroke="black" stroke-width="3"/>
<path d="M127,43v -6" fill="none" stroke="black" stroke-width="3"/>
<path d="M158,43v -6" fill="none" stroke="black" stroke-width="3"/>
<path d="M190,43v -6" fill="none" stroke="black" stroke-width="3"/>
<path d="M222,43v -6" fill="none" stroke="black" stroke-width="3"/>
<path d="M253,48v -11" fill="none" stroke="black" stroke-width="3"/>
<path d="M285,43v -6" fill="none" stroke="black" stroke-width="3"/>
<path d="M316,43v -6" fill="none" stroke="black" stroke-width="3"/>
<path d="M348,43v -6" fill="none" stroke="black" stroke-width="3"/>
<path d="M379,43v -6" fill="none" stroke="black" stroke-width="3"/>
<path d="M411,48v -11" fill="none" stroke="black" stroke-width="3"/>
<path d="M95,48v -11" fill="none" stroke="black" stroke-width="3"/>
<path d="M411,48v -11" fill="none" stroke="black" stroke-width="3"/>
<path d="M443,43v -6" fill="none" stroke="black" stroke-width="3"/>
<path d="M474,43v -6" fill="none" stroke="black" stroke-width="3"/>
<path d="M506,43v -6" fill="none" stroke="black" stroke-width="3"/>
<path d="M79,396v -359" fill="none" stroke="black" stroke-width="3"/>
<path d="M92,396h -13" fill="none" stroke="black" stroke-width="3"/>
<path d="M86,371h -7" fill="none" stroke="black" stroke-width="3"/>
<path d="M86,346h -7" fill="none" stroke="black" stroke-width="3"/>
<path d="M86,321h -7" fill="none" stroke="black" stroke-width="3"/>
<path d="M86,296h -7" fill="none" stroke="black" stroke-width="3"/>
<path d="M92,272h -13" fill="none" stroke="black" stroke-width="3"/>
<path d="M86,247h -7" fill="none" stroke="black" stroke-width="3"/>
<path d="M86,222h -7" fill="none" stroke="black" stroke-width="3"/>
<path d="M86,197h -7" fill="none" stroke="black" stroke-width="3"/>
<path d="M86,172h -7" fill="none" stroke="black" stroke-width="3"/>
<path d="M92,147h -13" fill="none" stroke="black" stroke-width="3"/>
<path d="M92,147h -13" fill="none" stroke="black" stroke-width="3"/>
<path d="M86,122h -7" fill="none" stroke="black" stroke-width="3"/>
<path d="M86,97h -7" fill="none" stroke="black" stroke-width="3"/>
<path d="M86,72h -7" fill="none" stroke="black" stroke-width="3"/>
<path d="M86,47h -7" fill="none" stroke="black" stroke-width="3"/>
<text x="63" y="404" fill="black" font-size="21" font-family="Times" font-weight="bold">
0
</text>
<text x="63" y="279" fill="black" font-size="21" font-family="Times" font-weight="bold">
5
</text>
<text x="51" y="155" fill="black" font-size="21" font-family="Times" font-weight="bold">
10
</text>
<path d="M522,396v -359" fill="none" stroke="black" stroke-width="3"/>
<path d="M508,396h 14" fill="none" stroke="black" stroke-width="3"/>
<path d="M515,371h 7" fill="none" stroke="black" stroke-width="3"/>
<path d="M515,346h 7" fill="none" stroke="black" stroke-width="3"/>
<path d="M515,321h 7" fill="none" stroke="black" stroke-width="3"/>
<path d="M515,296h 7" fill="none" stroke="black" stroke-width="3"/>
<path d="M508,272h 14" fill="none" stroke="black" stroke-width="3"/>
<path d="M515,247h 7" fill="none" stroke="black" stroke-width="3"/>
<path d="M515,222h 7" fill="none" stroke="black" stroke-width="3"/>
<path d="M515,197h 7" fill="none" stroke="black" stroke-width="3"/>
<path d="M515,172h 7" fill="none" stroke="black" stroke-width="3"/>
<path d="M508,147h 14" fill="none" stroke="black" stroke-width="3"/>
<path d="M508,147h 14" fill="none" stroke="black" stroke-width="3"/>
<path d="M515,122h 7" fill="none" stroke="black" stroke-width="3"/>
<path d="M515,97h 7" fill="none" stroke="black" stroke-width="3"/>
<path d="M515,72h 7" fill="none" stroke="black" stroke-width="3"/>
<path d="M515,47h 7" fill="none" stroke="black" stroke-width="3"/>
<rect x="113" y="-4" width="149" height="40" fill="white"/>
<text x="118" y="25" fill="black" font-size="31" font-family="Helvetica" font-weight="bold">
d_3p_del
</text>
<path d="M95,247v -72" fill="none" stroke="#ff0000" stroke-width="6"/>
<path d="M95,169v -72" fill="none" stroke="#ff0000" stroke-width="6"/>
<g stroke="#ff0000" stroke-width="6" fill="#ff0000">
<circle cx="95" cy="172" r="3.5"/>
</g>
<path d="M127,396v -22" fill="none" stroke="#ff0000" stroke-width="6"/>
<path d="M127,368v -22" fill="none" stroke="#ff0000" stroke-width="6"/>
<g stroke="#ff0000" stroke-width="6" fill="#ff0000">
<circle cx="127" cy="371" r="3.5"/>
</g>
<path d="M158,396v -22" fill="none" stroke="#ff0000" stroke-width="6"/>
<path d="M158,368v -22" fill="none" stroke="#ff0000" stroke-width="6"/>
<g stroke="#ff0000" stroke-width="6" fill="#ff0000">
<circle cx="158" cy="371" r="3.5"/>
</g>
<path d="M190,396v -22" fill="none" stroke="#ff0000" stroke-width="6"/>
<path d="M190,368v -22" fill="none" stroke="#ff0000" stroke-width="6"/>
<g stroke="#ff0000" stroke-width="6" fill="#ff0000">
<circle cx="190" cy="371" r="3.5"/>
</g>
<path d="M253,183v -83" fill="none" stroke="#ff0000" stroke-width="6"/>
<path d="M253,94v -57" fill="none" stroke="#ff0000" stroke-width="6"/>
<g stroke="#ff0000" stroke-width="6" fill="#ff0000">
<circle cx="253" cy="97" r="3.5"/>
</g>
<path d="M285,327v -52" fill="none" stroke="#ff0000" stroke-width="6"/>
<path d="M285,268v -52" fill="none" stroke="#ff0000" stroke-width="6"/>
<g stroke="#ff0000" stroke-width="6" fill="#ff0000">
<circle cx="285" cy="272" r="3.5"/>
</g>
<path d="M316,247v -72" fill="none" stroke="#ff0000" stroke-width="6"/>
<path d="M316,169v -72" fill="none" stroke="#ff0000" stroke-width="6"/>
<g stroke="#ff0000" stroke-width="6" fill="#ff0000">
<circle cx="316" cy="172" r="3.5"/>
</g>
<path d="M348,382v -32" fill="none" stroke="#ff0000" stroke-width="6"/>
<path d="M348,343v -32" fill="none" stroke="#ff0000" stroke-width="6"/>
<g stroke="#ff0000" stroke-width="6" fill="#ff0000">
<circle cx="348" cy="346" r="3.5"/>
</g>
<path d="M379,396v -22" fill="none" stroke="#ff0000" stroke-width="6"/>
<path d="M379,368v -22" fill="none" stroke="#ff0000" stroke-width="6"/>
<g stroke="#ff0000" stroke-width="6" fill="#ff0000">
<circle cx="379" cy="371" r="3.5"/>
</g>
<path d="M411,382v -32" fill="none" stroke="#ff0000" stroke-width="6"/>
<path d="M411,343v -32" fill="none" stroke="#ff0000" stroke-width="6"/>
<g stroke="#ff0000" stroke-width="6" fill="#ff0000">
<circle cx="411" cy="346" r="3.5"/>
</g>
<path d="M443,288v -63" fill="none" stroke="#ff0000" stroke-width="6"/>
<path d="M443,218v -62" fill="none" stroke="#ff0000" stroke-width="6"/>
<g stroke="#ff0000" stroke-width="6" fill="#ff0000">
<circle cx="443" cy="222" r="3.5"/>
</g>
<path d="M506,365v -40" fill="none" stroke="#ff0000" stroke-width="6"/>
<path d="M506,318v -40" fill="none" stroke="#ff0000" stroke-width="6"/>
<g stroke="#ff0000" stroke-width="6" fill="#ff0000">
<circle cx="506" cy="321" r="3.5"/>
</g>
<path d="M80,395v -223h 31v 199h 95v 24h 31v -298h 32v 175h 31v -100h 32v 174h 32v 25h 31v -25h 32v -124h 31v 173h 32v -74h 32" fill="none" stroke="#ff0000" stroke-width="6"/>
<path d="M332,107h 42" fill="none" stroke="#ff0000" stroke-width="6"/>
<rect x="113" y="-4" width="149" height="40" fill="white"/>
<text x="118" y="25" fill="black" font-size="31" font-family="Helvetica" font-weight="bold">
d_3p_del
</text></svg>
