<?xml version="1.0" standalone="no"?>
<svg width="567" height="466" viewBox="0 0 567 466" xmlns="http://www.w3.org/2000/svg">
<title>
/bbx/output/_plots/example/sw/plots/v_gene.svg
</title>
<desc>
Creator: ROOT Version 5.34/14
CreationDate: Wed Aug 19 21:59:57 2015</desc>
<defs>
</defs>
<rect x="0" y="0" width="567" height="466" fill="white"/>
<rect x="79" y="37" width="443" height="359" fill="none" stroke="black"/>
<rect x="79" y="37" width="443" height="359" fill="none" stroke="black"/>
<path d="M79,396h 443" fill="none" stroke="black" stroke-width="3"/>
<g transform="rotate(20,99,406)">
<text x="99" y="406" fill="black" font-size="14" font-family="Times" font-weight="bold">
IGHV1-3*01
</text>
</g>
<g transform="rotate(20,143,406)">
<text x="143" y="406" fill="black" font-size="14" font-family="Times" font-weight="bold">
IGHV2-70*12
</text>
</g>
<g transform="rotate(20,187,406)">
<text x="187" y="406" fill="black" font-size="14" font-family="Times" font-weight="bold">
IGHV3-23D*01
</text>
</g>
<g transform="rotate(20,231,406)">
<text x="231" y="406" fill="black" font-size="14" font-family="Times" font-weight="bold">
IGHV3-53*02
</text>
</g>
<g transform="rotate(20,275,406)">
<text x="275" y="406" fill="black" font-size="14" font-family="Times" font-weight="bold">
IGHV3-53*03
</text>
</g>
<g transform="rotate(20,320,406)">
<text x="320" y="406" fill="black" font-size="14" font-family="Times" font-weight="bold">
IGHV3-9*02
</text>
</g>
<g transform="rotate(20,364,406)">
<text x="364" y="406" fill="black" font-size="14" font-family="Times" font-weight="bold">
IGHV3-NL1*01
</text>
</g>
<g transform="rotate(20,408,406)">
<text x="408" y="406" fill="black" font-size="14" font-family="Times" font-weight="bold">
IGHV4-34*02
</text>
</g>
<g transform="rotate(20,452,406)">
<text x="452" y="406" fill="black" font-size="14" font-family="Times" font-weight="bold">
IGHV4-34*12
</text>
</g>
<g transform="rotate(20,497,406)">
<text x="497" y="406" fill="black" font-size="14" font-family="Times" font-weight="bold">
IGHV4-34*13
</text>
</g>
<path d="M101,385v 11" fill="none" stroke="black" stroke-width="3"/>
<path d="M146,385v 11" fill="none" stroke="black" stroke-width="3"/>
<path d="M190,385v 11" fill="none" stroke="black" stroke-width="3"/>
<path d="M234,385v 11" fill="none" stroke="black" stroke-width="3"/>
<path d="M278,385v 11" fill="none" stroke="black" stroke-width="3"/>
<path d="M323,385v 11" fill="none" stroke="black" stroke-width="3"/>
<path d="M367,385v 11" fill="none" stroke="black" stroke-width="3"/>
<path d="M411,385v 11" fill="none" stroke="black" stroke-width="3"/>
<path d="M455,385v 11" fill="none" stroke="black" stroke-width="3"/>
<path d="M499,385v 11" fill="none" stroke="black" stroke-width="3"/>
<path d="M101,385v 11" fill="none" stroke="black" stroke-width="3"/>
<path d="M499,385v 11" fill="none" stroke="black" stroke-width="3"/>
<path d="M79,37h 443" fill="none" stroke="black" stroke-width="3"/>
<path d="M101,48v -11" fill="none" stroke="black" stroke-width="3"/>
<path d="M146,48v -11" fill="none" stroke="black" stroke-width="3"/>
<path d="M190,48v -11" fill="none" stroke="black" stroke-width="3"/>
<path d="M234,48v -11" fill="none" stroke="black" stroke-width="3"/>
<path d="M278,48v -11" fill="none" stroke="black" stroke-width="3"/>
<path d="M323,48v -11" fill="none" stroke="black" stroke-width="3"/>
<path d="M367,48v -11" fill="none" stroke="black" stroke-width="3"/>
<path d="M411,48v -11" fill="none" stroke="black" stroke-width="3"/>
<path d="M455,48v -11" fill="none" stroke="black" stroke-width="3"/>
<path d="M499,48v -11" fill="none" stroke="black" stroke-width="3"/>
<path d="M101,48v -11" fill="none" stroke="black" stroke-width="3"/>
<path d="M499,48v -11" fill="none" stroke="black" stroke-width="3"/>
<path d="M79,396v -359" fill="none" stroke="black" stroke-width="3"/>
<path d="M92,396h -13" fill="none" stroke="black" stroke-width="3"/>
<path d="M86,376h -7" fill="none" stroke="black" stroke-width="3"/>
<path d="M86,356h -7" fill="none" stroke="black" stroke-width="3"/>
<path d="M86,336h -7" fill="none" stroke="black" stroke-width="3"/>
<path d="M86,316h -7" fill="none" stroke="black" stroke-width="3"/>
<path d="M92,296h -13" fill="none" stroke="black" stroke-width="3"/>
<path d="M86,277h -7" fill="none" stroke="black" stroke-width="3"/>
<path d="M86,257h -7" fill="none" stroke="black" stroke-width="3"/>
<path d="M86,237h -7" fill="none" stroke="black" stroke-width="3"/>
<path d="M86,217h -7" fill="none" stroke="black" stroke-width="3"/>
<path d="M92,197h -13" fill="none" stroke="black" stroke-width="3"/>
<path d="M86,177h -7" fill="none" stroke="black" stroke-width="3"/>
<path d="M86,157h -7" fill="none" stroke="black" stroke-width="3"/>
<path d="M86,137h -7" fill="none" stroke="black" stroke-width="3"/>
<path d="M86,117h -7" fill="none" stroke="black" stroke-width="3"/>
<path d="M92,97h -13" fill="none" stroke="black" stroke-width="3"/>
<path d="M92,97h -13" fill="none" stroke="black" stroke-width="3"/>
<path d="M86,77h -7" fill="none" stroke="black" stroke-width="3"/>
<path d="M86,57h -7" fill="none" stroke="black" stroke-width="3"/>
<path d="M86,37h -7" fill="none" stroke="black" stroke-width="3"/>
<text x="63" y="404" fill="black" font-size="21" font-family="Times" font-weight="bold">
0
</text>
<text x="63" y="304" fill="black" font-size="21" font-family="Times" font-weight="bold">
5
</text>
<text x="51" y="205" fill="black" font-size="21" font-family="Times" font-weight="bold">
10
</text>
<text x="51" y="105" fill="black" font-size="21" font-family="Times" font-weight="bold">
15
</text>
<path d="M522,396v -359" fill="none" stroke="black" stroke-width="3"/>
<path d="M508,396h 14" fill="none" stroke="black" stroke-width="3"/>
<path d="M515,376h 7" fill="none" stroke="black" stroke-width="3"/>
<path d="M515,356h 7" fill="none" stroke="black" stroke-width="3"/>
<path d="M515,336h 7" fill="none" stroke="black" stroke-width="3"/>
<path d="M515,316h 7" fill="none" stroke="black" stroke-width="3"/>
<path d="M508,296h 14" fill="none" stroke="black" stroke-width="3"/>
<path d="M515,277h 7" fill="none" stroke="black" stroke-width="3"/>
<path d="M515,257h 7" fill="none" stroke="black" stroke-width="3"/>
<path d="M515,237h 7" fill="none" stroke="black" stroke-width="3"/>
<path d="M515,217h 7" fill="none" stroke="black" stroke-width="3"/>
<path d="M508,197h 14" fill="none" stroke="black" stroke-width="3"/>
<path d="M515,177h 7" fill="none" stroke="black" stroke-width="3"/>
<path d="M515,157h 7" fill="none" stroke="black" stroke-width="3"/>
<path d="M515,137h 7" fill="none" stroke="black" stroke-width="3"/>
<path d="M515,117h 7" fill="none" stroke="black" stroke-width="3"/>
<path d="M508,97h 14" fill="none" stroke="black" stroke-width="3"/>
<path d="M508,97h 14" fill="none" stroke="black" stroke-width="3"/>
<path d="M515,77h 7" fill="none" stroke="black" stroke-width="3"/>
<path d="M515,57h 7" fill="none" stroke="black" stroke-width="3"/>
<path d="M515,37h 7" fill="none" stroke="black" stroke-width="3"/>
<rect x="113" y="-4" width="115" height="38" fill="white"/>
<text x="118" y="20" fill="black" font-size="30" font-family="Helvetica" font-weight="bold">
v_gene
</text>
<path d="M101,325v -45" fill="none" stroke="#ff0000" stroke-width="6"/>
<path d="M101,273v -45" fill="none" stroke="#ff0000" stroke-width="6"/>
<g stroke="#ff0000" stroke-width="6" fill="#ff0000">
<circle cx="101" cy="277" r="3.5"/>
</g>
<path d="M146,384v -24" fill="none" stroke="#ff0000" stroke-width="6"/>
<path d="M146,353v -25" fill="none" stroke="#ff0000" stroke-width="6"/>
<g stroke="#ff0000" stroke-width="6" fill="#ff0000">
<circle cx="146" cy="356" r="3.5"/>
</g>
<path d="M190,209v -69" fill="none" stroke="#ff0000" stroke-width="6"/>
<path d="M190,134v -69" fill="none" stroke="#ff0000" stroke-width="6"/>
<g stroke="#ff0000" stroke-width="6" fill="#ff0000">
<circle cx="190" cy="137" r="3.5"/>
</g>
<path d="M234,384v -24" fill="none" stroke="#ff0000" stroke-width="6"/>
<path d="M234,353v -25" fill="none" stroke="#ff0000" stroke-width="6"/>
<g stroke="#ff0000" stroke-width="6" fill="#ff0000">
<circle cx="234" cy="356" r="3.5"/>
</g>
<path d="M278,371v -31" fill="none" stroke="#ff0000" stroke-width="6"/>
<path d="M278,333v -31" fill="none" stroke="#ff0000" stroke-width="6"/>
<g stroke="#ff0000" stroke-width="6" fill="#ff0000">
<circle cx="278" cy="336" r="3.5"/>
</g>
<path d="M323,174v -74" fill="none" stroke="#ff0000" stroke-width="6"/>
<path d="M323,94v -57" fill="none" stroke="#ff0000" stroke-width="6"/>
<g stroke="#ff0000" stroke-width="6" fill="#ff0000">
<circle cx="323" cy="97" r="3.5"/>
</g>
<path d="M367,396v -17" fill="none" stroke="#ff0000" stroke-width="6"/>
<path d="M367,373v -17" fill="none" stroke="#ff0000" stroke-width="6"/>
<g stroke="#ff0000" stroke-width="6" fill="#ff0000">
<circle cx="367" cy="376" r="3.5"/>
</g>
<path d="M411,341v -41" fill="none" stroke="#ff0000" stroke-width="6"/>
<path d="M411,293v -41" fill="none" stroke="#ff0000" stroke-width="6"/>
<g stroke="#ff0000" stroke-width="6" fill="#ff0000">
<circle cx="411" cy="296" r="3.5"/>
</g>
<path d="M455,384v -24" fill="none" stroke="#ff0000" stroke-width="6"/>
<path d="M455,353v -25" fill="none" stroke="#ff0000" stroke-width="6"/>
<g stroke="#ff0000" stroke-width="6" fill="#ff0000">
<circle cx="455" cy="356" r="3.5"/>
</g>
<path d="M499,356v -36" fill="none" stroke="#ff0000" stroke-width="6"/>
<path d="M499,313v -36" fill="none" stroke="#ff0000" stroke-width="6"/>
<g stroke="#ff0000" stroke-width="6" fill="#ff0000">
<circle cx="499" cy="316" r="3.5"/>
</g>
<path d="M80,395v -118h 44v 79h 44v -219h 44v 219h 44v -20h 44v -239h 45v 279h 44v -80h 44v 60h 44v -40h 45" fill="none" stroke="#ff0000" stroke-width="6"/>
<path d="M332,107h 42" fill="none" stroke="#ff0000" stroke-width="6"/>
<rect x="113" y="-4" width="115" height="38" fill="white"/>
<text x="118" y="20" fill="black" font-size="30" font-family="Helvetica" font-weight="bold">
v_gene
</text></svg>
