<?xml version="1.0" standalone="no"?>
<svg width="567" height="466" viewBox="0 0 567 466" xmlns="http://www.w3.org/2000/svg">
<title>
/bbx/output/_plots/example/sw/v_5p_del/plots/IGHV3-7_star_01-v_5p_del.svg
</title>
<desc>
Creator: ROOT Version 5.34/14
CreationDate: Wed Aug 19 19:38:07 2015</desc>
<defs>
</defs>
<rect x="0" y="0" width="567" height="466" fill="white"/>
<rect x="79" y="37" width="443" height="359" fill="none" stroke="black"/>
<rect x="79" y="37" width="443" height="359" fill="none" stroke="black"/>
<path d="M79,396h 443" fill="none" stroke="black" stroke-width="3"/>
<path d="M119,385v 11" fill="none" stroke="black" stroke-width="3"/>
<path d="M150,391v 5" fill="none" stroke="black" stroke-width="3"/>
<path d="M182,391v 5" fill="none" stroke="black" stroke-width="3"/>
<path d="M214,391v 5" fill="none" stroke="black" stroke-width="3"/>
<path d="M245,391v 5" fill="none" stroke="black" stroke-width="3"/>
<path d="M277,385v 11" fill="none" stroke="black" stroke-width="3"/>
<path d="M308,391v 5" fill="none" stroke="black" stroke-width="3"/>
<path d="M340,391v 5" fill="none" stroke="black" stroke-width="3"/>
<path d="M372,391v 5" fill="none" stroke="black" stroke-width="3"/>
<path d="M403,391v 5" fill="none" stroke="black" stroke-width="3"/>
<path d="M435,385v 11" fill="none" stroke="black" stroke-width="3"/>
<path d="M119,385v 11" fill="none" stroke="black" stroke-width="3"/>
<path d="M87,391v 5" fill="none" stroke="black" stroke-width="3"/>
<path d="M435,385v 11" fill="none" stroke="black" stroke-width="3"/>
<path d="M466,391v 5" fill="none" stroke="black" stroke-width="3"/>
<path d="M498,391v 5" fill="none" stroke="black" stroke-width="3"/>
<text x="102" y="416" fill="black" font-size="21" font-family="Times" font-weight="bold">
190
</text>
<text x="260" y="416" fill="black" font-size="21" font-family="Times" font-weight="bold">
200
</text>
<text x="418" y="416" fill="black" font-size="21" font-family="Times" font-weight="bold">
210
</text>
<path d="M79,37h 443" fill="none" stroke="black" stroke-width="3"/>
<path d="M119,48v -11" fill="none" stroke="black" stroke-width="3"/>
<path d="M150,43v -6" fill="none" stroke="black" stroke-width="3"/>
<path d="M182,43v -6" fill="none" stroke="black" stroke-width="3"/>
<path d="M214,43v -6" fill="none" stroke="black" stroke-width="3"/>
<path d="M245,43v -6" fill="none" stroke="black" stroke-width="3"/>
<path d="M277,48v -11" fill="none" stroke="black" stroke-width="3"/>
<path d="M308,43v -6" fill="none" stroke="black" stroke-width="3"/>
<path d="M340,43v -6" fill="none" stroke="black" stroke-width="3"/>
<path d="M372,43v -6" fill="none" stroke="black" stroke-width="3"/>
<path d="M403,43v -6" fill="none" stroke="black" stroke-width="3"/>
<path d="M435,48v -11" fill="none" stroke="black" stroke-width="3"/>
<path d="M119,48v -11" fill="none" stroke="black" stroke-width="3"/>
<path d="M87,43v -6" fill="none" stroke="black" stroke-width="3"/>
<path d="M435,48v -11" fill="none" stroke="black" stroke-width="3"/>
<path d="M466,43v -6" fill="none" stroke="black" stroke-width="3"/>
<path d="M498,43v -6" fill="none" stroke="black" stroke-width="3"/>
<path d="M79,396v -359" fill="none" stroke="black" stroke-width="3"/>
<path d="M92,396h -13" fill="none" stroke="black" stroke-width="3"/>
<path d="M86,366h -7" fill="none" stroke="black" stroke-width="3"/>
<path d="M86,336h -7" fill="none" stroke="black" stroke-width="3"/>
<path d="M86,306h -7" fill="none" stroke="black" stroke-width="3"/>
<path d="M92,277h -13" fill="none" stroke="black" stroke-width="3"/>
<path d="M86,247h -7" fill="none" stroke="black" stroke-width="3"/>
<path d="M86,217h -7" fill="none" stroke="black" stroke-width="3"/>
<path d="M86,187h -7" fill="none" stroke="black" stroke-width="3"/>
<path d="M92,157h -13" fill="none" stroke="black" stroke-width="3"/>
<path d="M86,127h -7" fill="none" stroke="black" stroke-width="3"/>
<path d="M86,97h -7" fill="none" stroke="black" stroke-width="3"/>
<path d="M86,67h -7" fill="none" stroke="black" stroke-width="3"/>
<path d="M92,37h -13" fill="none" stroke="black" stroke-width="3"/>
<text x="63" y="404" fill="black" font-size="21" font-family="Times" font-weight="bold">
0
</text>
<text x="63" y="284" fill="black" font-size="21" font-family="Times" font-weight="bold">
2
</text>
<text x="63" y="165" fill="black" font-size="21" font-family="Times" font-weight="bold">
4
</text>
<text x="63" y="45" fill="black" font-size="21" font-family="Times" font-weight="bold">
6
</text>
<path d="M522,396v -359" fill="none" stroke="black" stroke-width="3"/>
<path d="M508,396h 14" fill="none" stroke="black" stroke-width="3"/>
<path d="M515,366h 7" fill="none" stroke="black" stroke-width="3"/>
<path d="M515,336h 7" fill="none" stroke="black" stroke-width="3"/>
<path d="M515,306h 7" fill="none" stroke="black" stroke-width="3"/>
<path d="M508,277h 14" fill="none" stroke="black" stroke-width="3"/>
<path d="M515,247h 7" fill="none" stroke="black" stroke-width="3"/>
<path d="M515,217h 7" fill="none" stroke="black" stroke-width="3"/>
<path d="M515,187h 7" fill="none" stroke="black" stroke-width="3"/>
<path d="M508,157h 14" fill="none" stroke="black" stroke-width="3"/>
<path d="M515,127h 7" fill="none" stroke="black" stroke-width="3"/>
<path d="M515,97h 7" fill="none" stroke="black" stroke-width="3"/>
<path d="M515,67h 7" fill="none" stroke="black" stroke-width="3"/>
<path d="M508,37h 14" fill="none" stroke="black" stroke-width="3"/>
<rect x="113" y="-4" width="397" height="40" fill="white"/>
<text x="126" y="24" fill="black" font-size="29" font-family="Helvetica" font-weight="bold">
IGHV3-7_star_01-v_5p_del
</text>
<path d="M87,396v -56" fill="none" stroke="#ff0000" stroke-width="6"/>
<path d="M87,333v -56" fill="none" stroke="#ff0000" stroke-width="6"/>
<g stroke="#ff0000" stroke-width="6" fill="#ff0000">
<circle cx="87" cy="336" r="3.5"/>
</g>
<path d="M229,231v -131" fill="none" stroke="#ff0000" stroke-width="6"/>
<path d="M229,94v -57" fill="none" stroke="#ff0000" stroke-width="6"/>
<g stroke="#ff0000" stroke-width="6" fill="#ff0000">
<circle cx="229" cy="97" r="3.5"/>
</g>
<path d="M324,320v -100" fill="none" stroke="#ff0000" stroke-width="6"/>
<path d="M324,213v -100" fill="none" stroke="#ff0000" stroke-width="6"/>
<g stroke="#ff0000" stroke-width="6" fill="#ff0000">
<circle cx="324" cy="217" r="3.5"/>
</g>
<path d="M466,320v -100" fill="none" stroke="#ff0000" stroke-width="6"/>
<path d="M466,213v -100" fill="none" stroke="#ff0000" stroke-width="6"/>
<g stroke="#ff0000" stroke-width="6" fill="#ff0000">
<circle cx="466" cy="217" r="3.5"/>
</g>
<path d="M514,396v -56" fill="none" stroke="#ff0000" stroke-width="6"/>
<path d="M514,333v -56" fill="none" stroke="#ff0000" stroke-width="6"/>
<g stroke="#ff0000" stroke-width="6" fill="#ff0000">
<circle cx="514" cy="336" r="3.5"/>
</g>
<path d="M80,395v -59h 15v 59h 127v -298h 15v 298h 79v -178h 16v 178h 126v -178h 16v 178h 32v -59h 16" fill="none" stroke="#ff0000" stroke-width="6"/>
<path d="M332,107h 42" fill="none" stroke="#ff0000" stroke-width="6"/>
<rect x="113" y="-4" width="397" height="40" fill="white"/>
<text x="126" y="24" fill="black" font-size="29" font-family="Helvetica" font-weight="bold">
IGHV3-7_star_01-v_5p_del
</text></svg>
