<?xml version="1.0" standalone="no"?>
<svg width="567" height="466" viewBox="0 0 567 466" xmlns="http://www.w3.org/2000/svg">
<title>
/bbx/output/_plots/example/hmm/true/mute-freqs/d/plots/IGHD3-10_star_01.svg
</title>
<desc>
Creator: ROOT Version 5.34/14
CreationDate: Thu Jul 30 17:06:18 2015</desc>
<defs>
</defs>
<rect x="0" y="0" width="567" height="466" fill="white"/>
<rect x="79" y="37" width="443" height="359" fill="none" stroke="black"/>
<rect x="79" y="37" width="443" height="359" fill="none" stroke="black"/>
<path d="M79,396h 443" fill="none" stroke="black" stroke-width="3"/>
<path d="M89,385v 11" fill="none" stroke="black" stroke-width="3"/>
<path d="M108,391v 5" fill="none" stroke="black" stroke-width="3"/>
<path d="M127,391v 5" fill="none" stroke="black" stroke-width="3"/>
<path d="M147,391v 5" fill="none" stroke="black" stroke-width="3"/>
<path d="M166,391v 5" fill="none" stroke="black" stroke-width="3"/>
<path d="M185,385v 11" fill="none" stroke="black" stroke-width="3"/>
<path d="M204,391v 5" fill="none" stroke="black" stroke-width="3"/>
<path d="M224,391v 5" fill="none" stroke="black" stroke-width="3"/>
<path d="M243,391v 5" fill="none" stroke="black" stroke-width="3"/>
<path d="M262,391v 5" fill="none" stroke="black" stroke-width="3"/>
<path d="M281,385v 11" fill="none" stroke="black" stroke-width="3"/>
<path d="M300,391v 5" fill="none" stroke="black" stroke-width="3"/>
<path d="M320,391v 5" fill="none" stroke="black" stroke-width="3"/>
<path d="M339,391v 5" fill="none" stroke="black" stroke-width="3"/>
<path d="M358,391v 5" fill="none" stroke="black" stroke-width="3"/>
<path d="M377,385v 11" fill="none" stroke="black" stroke-width="3"/>
<path d="M397,391v 5" fill="none" stroke="black" stroke-width="3"/>
<path d="M416,391v 5" fill="none" stroke="black" stroke-width="3"/>
<path d="M435,391v 5" fill="none" stroke="black" stroke-width="3"/>
<path d="M454,391v 5" fill="none" stroke="black" stroke-width="3"/>
<path d="M474,385v 11" fill="none" stroke="black" stroke-width="3"/>
<path d="M89,385v 11" fill="none" stroke="black" stroke-width="3"/>
<path d="M474,385v 11" fill="none" stroke="black" stroke-width="3"/>
<path d="M493,391v 5" fill="none" stroke="black" stroke-width="3"/>
<path d="M512,391v 5" fill="none" stroke="black" stroke-width="3"/>
<text x="83" y="416" fill="black" font-size="21" font-family="Times" font-weight="bold">
0
</text>
<text x="179" y="416" fill="black" font-size="21" font-family="Times" font-weight="bold">
5
</text>
<text x="270" y="416" fill="black" font-size="21" font-family="Times" font-weight="bold">
10
</text>
<text x="366" y="416" fill="black" font-size="21" font-family="Times" font-weight="bold">
15
</text>
<text x="462" y="416" fill="black" font-size="21" font-family="Times" font-weight="bold">
20
</text>
<path d="M79,37h 443" fill="none" stroke="black" stroke-width="3"/>
<path d="M89,48v -11" fill="none" stroke="black" stroke-width="3"/>
<path d="M108,43v -6" fill="none" stroke="black" stroke-width="3"/>
<path d="M127,43v -6" fill="none" stroke="black" stroke-width="3"/>
<path d="M147,43v -6" fill="none" stroke="black" stroke-width="3"/>
<path d="M166,43v -6" fill="none" stroke="black" stroke-width="3"/>
<path d="M185,48v -11" fill="none" stroke="black" stroke-width="3"/>
<path d="M204,43v -6" fill="none" stroke="black" stroke-width="3"/>
<path d="M224,43v -6" fill="none" stroke="black" stroke-width="3"/>
<path d="M243,43v -6" fill="none" stroke="black" stroke-width="3"/>
<path d="M262,43v -6" fill="none" stroke="black" stroke-width="3"/>
<path d="M281,48v -11" fill="none" stroke="black" stroke-width="3"/>
<path d="M300,43v -6" fill="none" stroke="black" stroke-width="3"/>
<path d="M320,43v -6" fill="none" stroke="black" stroke-width="3"/>
<path d="M339,43v -6" fill="none" stroke="black" stroke-width="3"/>
<path d="M358,43v -6" fill="none" stroke="black" stroke-width="3"/>
<path d="M377,48v -11" fill="none" stroke="black" stroke-width="3"/>
<path d="M397,43v -6" fill="none" stroke="black" stroke-width="3"/>
<path d="M416,43v -6" fill="none" stroke="black" stroke-width="3"/>
<path d="M435,43v -6" fill="none" stroke="black" stroke-width="3"/>
<path d="M454,43v -6" fill="none" stroke="black" stroke-width="3"/>
<path d="M474,48v -11" fill="none" stroke="black" stroke-width="3"/>
<path d="M89,48v -11" fill="none" stroke="black" stroke-width="3"/>
<path d="M474,48v -11" fill="none" stroke="black" stroke-width="3"/>
<path d="M493,43v -6" fill="none" stroke="black" stroke-width="3"/>
<path d="M512,43v -6" fill="none" stroke="black" stroke-width="3"/>
<path d="M79,396v -359" fill="none" stroke="black" stroke-width="3"/>
<path d="M92,396h -13" fill="none" stroke="black" stroke-width="3"/>
<path d="M86,366h -7" fill="none" stroke="black" stroke-width="3"/>
<path d="M86,336h -7" fill="none" stroke="black" stroke-width="3"/>
<path d="M86,306h -7" fill="none" stroke="black" stroke-width="3"/>
<path d="M86,277h -7" fill="none" stroke="black" stroke-width="3"/>
<path d="M92,247h -13" fill="none" stroke="black" stroke-width="3"/>
<path d="M86,217h -7" fill="none" stroke="black" stroke-width="3"/>
<path d="M86,187h -7" fill="none" stroke="black" stroke-width="3"/>
<path d="M86,157h -7" fill="none" stroke="black" stroke-width="3"/>
<path d="M86,127h -7" fill="none" stroke="black" stroke-width="3"/>
<path d="M92,97h -13" fill="none" stroke="black" stroke-width="3"/>
<path d="M92,97h -13" fill="none" stroke="black" stroke-width="3"/>
<path d="M86,67h -7" fill="none" stroke="black" stroke-width="3"/>
<path d="M86,37h -7" fill="none" stroke="black" stroke-width="3"/>
<text x="46" y="404" fill="black" font-size="21" font-family="Times" font-weight="bold">
0.0
</text>
<text x="46" y="254" fill="black" font-size="21" font-family="Times" font-weight="bold">
0.5
</text>
<text x="46" y="105" fill="black" font-size="21" font-family="Times" font-weight="bold">
1.0
</text>
<path d="M522,396v -359" fill="none" stroke="black" stroke-width="3"/>
<path d="M508,396h 14" fill="none" stroke="black" stroke-width="3"/>
<path d="M515,366h 7" fill="none" stroke="black" stroke-width="3"/>
<path d="M515,336h 7" fill="none" stroke="black" stroke-width="3"/>
<path d="M515,306h 7" fill="none" stroke="black" stroke-width="3"/>
<path d="M515,277h 7" fill="none" stroke="black" stroke-width="3"/>
<path d="M508,247h 14" fill="none" stroke="black" stroke-width="3"/>
<path d="M515,217h 7" fill="none" stroke="black" stroke-width="3"/>
<path d="M515,187h 7" fill="none" stroke="black" stroke-width="3"/>
<path d="M515,157h 7" fill="none" stroke="black" stroke-width="3"/>
<path d="M515,127h 7" fill="none" stroke="black" stroke-width="3"/>
<path d="M508,97h 14" fill="none" stroke="black" stroke-width="3"/>
<path d="M508,97h 14" fill="none" stroke="black" stroke-width="3"/>
<path d="M515,67h 7" fill="none" stroke="black" stroke-width="3"/>
<path d="M515,37h 7" fill="none" stroke="black" stroke-width="3"/>
<rect x="113" y="-4" width="303" height="38" fill="white"/>
<text x="136" y="24" fill="black" font-size="30" font-family="Helvetica" font-weight="bold">
IGHD3-10_star_01
</text>
<path d="M89,393v -60" fill="none" stroke="#ff0000" stroke-width="6"/>
<g stroke="#ff0000" stroke-width="6" fill="#ff0000">
<circle cx="89" cy="396" r="3.5"/>
</g>
<path d="M108,393v -60" fill="none" stroke="#ff0000" stroke-width="6"/>
<g stroke="#ff0000" stroke-width="6" fill="#ff0000">
<circle cx="108" cy="396" r="3.5"/>
</g>
<path d="M127,393v -33" fill="none" stroke="#ff0000" stroke-width="6"/>
<g stroke="#ff0000" stroke-width="6" fill="#ff0000">
<circle cx="127" cy="396" r="3.5"/>
</g>
<path d="M147,338v -38" fill="none" stroke="#ff0000" stroke-width="6"/>
<path d="M147,293v -38" fill="none" stroke="#ff0000" stroke-width="6"/>
<path d="M137,296h 6" fill="none" stroke="#ff0000" stroke-width="6"/>
<path d="M150,296h 6" fill="none" stroke="#ff0000" stroke-width="6"/>
<g stroke="#ff0000" stroke-width="6" fill="#ff0000">
<circle cx="147" cy="296" r="3.5"/>
</g>
<path d="M166,393v -12" fill="none" stroke="#ff0000" stroke-width="6"/>
<g stroke="#ff0000" stroke-width="6" fill="#ff0000">
<circle cx="166" cy="396" r="3.5"/>
</g>
<path d="M185,395v -29" fill="none" stroke="#ff0000" stroke-width="6"/>
<path d="M185,360v -29" fill="none" stroke="#ff0000" stroke-width="6"/>
<path d="M176,363h 6" fill="none" stroke="#ff0000" stroke-width="6"/>
<path d="M188,363h 7" fill="none" stroke="#ff0000" stroke-width="6"/>
<g stroke="#ff0000" stroke-width="6" fill="#ff0000">
<circle cx="185" cy="363" r="3.5"/>
</g>
<path d="M204,393v -12" fill="none" stroke="#ff0000" stroke-width="6"/>
<g stroke="#ff0000" stroke-width="6" fill="#ff0000">
<circle cx="204" cy="396" r="3.5"/>
</g>
<path d="M224,395v -29" fill="none" stroke="#ff0000" stroke-width="6"/>
<path d="M224,360v -29" fill="none" stroke="#ff0000" stroke-width="6"/>
<path d="M214,363h 6" fill="none" stroke="#ff0000" stroke-width="6"/>
<path d="M227,363h 6" fill="none" stroke="#ff0000" stroke-width="6"/>
<g stroke="#ff0000" stroke-width="6" fill="#ff0000">
<circle cx="224" cy="363" r="3.5"/>
</g>
<path d="M243,338v -38" fill="none" stroke="#ff0000" stroke-width="6"/>
<path d="M243,293v -38" fill="none" stroke="#ff0000" stroke-width="6"/>
<path d="M233,296h 7" fill="none" stroke="#ff0000" stroke-width="6"/>
<path d="M246,296h 6" fill="none" stroke="#ff0000" stroke-width="6"/>
<g stroke="#ff0000" stroke-width="6" fill="#ff0000">
<circle cx="243" cy="296" r="3.5"/>
</g>
<path d="M262,393v -12" fill="none" stroke="#ff0000" stroke-width="6"/>
<g stroke="#ff0000" stroke-width="6" fill="#ff0000">
<circle cx="262" cy="396" r="3.5"/>
</g>
<path d="M281,393v -12" fill="none" stroke="#ff0000" stroke-width="6"/>
<g stroke="#ff0000" stroke-width="6" fill="#ff0000">
<circle cx="281" cy="396" r="3.5"/>
</g>
<path d="M300,393v -12" fill="none" stroke="#ff0000" stroke-width="6"/>
<g stroke="#ff0000" stroke-width="6" fill="#ff0000">
<circle cx="300" cy="396" r="3.5"/>
</g>
<path d="M320,393v -12" fill="none" stroke="#ff0000" stroke-width="6"/>
<g stroke="#ff0000" stroke-width="6" fill="#ff0000">
<circle cx="320" cy="396" r="3.5"/>
</g>
<path d="M339,393v -12" fill="none" stroke="#ff0000" stroke-width="6"/>
<g stroke="#ff0000" stroke-width="6" fill="#ff0000">
<circle cx="339" cy="396" r="3.5"/>
</g>
<path d="M358,393v -12" fill="none" stroke="#ff0000" stroke-width="6"/>
<g stroke="#ff0000" stroke-width="6" fill="#ff0000">
<circle cx="358" cy="396" r="3.5"/>
</g>
<path d="M377,393v -12" fill="none" stroke="#ff0000" stroke-width="6"/>
<g stroke="#ff0000" stroke-width="6" fill="#ff0000">
<circle cx="377" cy="396" r="3.5"/>
</g>
<path d="M397,395v -29" fill="none" stroke="#ff0000" stroke-width="6"/>
<path d="M397,360v -29" fill="none" stroke="#ff0000" stroke-width="6"/>
<path d="M387,363h 6" fill="none" stroke="#ff0000" stroke-width="6"/>
<path d="M400,363h 6" fill="none" stroke="#ff0000" stroke-width="6"/>
<g stroke="#ff0000" stroke-width="6" fill="#ff0000">
<circle cx="397" cy="363" r="3.5"/>
</g>
<path d="M416,393v -12" fill="none" stroke="#ff0000" stroke-width="6"/>
<g stroke="#ff0000" stroke-width="6" fill="#ff0000">
<circle cx="416" cy="396" r="3.5"/>
</g>
<path d="M435,368v -35" fill="none" stroke="#ff0000" stroke-width="6"/>
<path d="M435,326v -35" fill="none" stroke="#ff0000" stroke-width="6"/>
<path d="M425,330h 7" fill="none" stroke="#ff0000" stroke-width="6"/>
<path d="M438,330h 7" fill="none" stroke="#ff0000" stroke-width="6"/>
<g stroke="#ff0000" stroke-width="6" fill="#ff0000">
<circle cx="435" cy="330" r="3.5"/>
</g>
<path d="M454,395v -29" fill="none" stroke="#ff0000" stroke-width="6"/>
<path d="M454,360v -29" fill="none" stroke="#ff0000" stroke-width="6"/>
<path d="M445,363h 6" fill="none" stroke="#ff0000" stroke-width="6"/>
<path d="M458,363h 6" fill="none" stroke="#ff0000" stroke-width="6"/>
<g stroke="#ff0000" stroke-width="6" fill="#ff0000">
<circle cx="454" cy="363" r="3.5"/>
</g>
<path d="M474,260v -60" fill="none" stroke="#ff0000" stroke-width="6"/>
<path d="M474,194v -60" fill="none" stroke="#ff0000" stroke-width="6"/>
<path d="M464,197h 6" fill="none" stroke="#ff0000" stroke-width="6"/>
<path d="M477,197h 6" fill="none" stroke="#ff0000" stroke-width="6"/>
<g stroke="#ff0000" stroke-width="6" fill="#ff0000">
<circle cx="474" cy="197" r="3.5"/>
</g>
<path d="M493,160v -60" fill="none" stroke="#ff0000" stroke-width="6"/>
<path d="M493,94v -57" fill="none" stroke="#ff0000" stroke-width="6"/>
<path d="M483,97h 6" fill="none" stroke="#ff0000" stroke-width="6"/>
<path d="M496,97h 6" fill="none" stroke="#ff0000" stroke-width="6"/>
<g stroke="#ff0000" stroke-width="6" fill="#ff0000">
<circle cx="493" cy="97" r="3.5"/>
</g>
<path d="M512,160v -60" fill="none" stroke="#ff0000" stroke-width="6"/>
<path d="M512,94v -57" fill="none" stroke="#ff0000" stroke-width="6"/>
<path d="M502,97h 7" fill="none" stroke="#ff0000" stroke-width="6"/>
<path d="M515,97h 7" fill="none" stroke="#ff0000" stroke-width="6"/>
<g stroke="#ff0000" stroke-width="6" fill="#ff0000">
<circle cx="512" cy="97" r="3.5"/>
</g>
<path d="M332,107h 42" fill="none" stroke="#ff0000" stroke-width="6"/>
<rect x="113" y="-4" width="303" height="38" fill="white"/>
<text x="136" y="24" fill="black" font-size="30" font-family="Helvetica" font-weight="bold">
IGHD3-10_star_01
</text></svg>
