<?xml version="1.0" standalone="no"?>
<svg width="567" height="466" viewBox="0 0 567 466" xmlns="http://www.w3.org/2000/svg">
<title>
/bbx/output/_plots/example/sw/true/d_5p_del/plots/IGHD6-13_star_01-d_5p_del.svg
</title>
<desc>
Creator: ROOT Version 5.34/14
CreationDate: Wed Aug 19 22:00:00 2015</desc>
<defs>
</defs>
<rect x="0" y="0" width="567" height="466" fill="white"/>
<rect x="79" y="37" width="443" height="359" fill="none" stroke="black"/>
<rect x="79" y="37" width="443" height="359" fill="none" stroke="black"/>
<path d="M79,396h 443" fill="none" stroke="black" stroke-width="3"/>
<path d="M107,385v 11" fill="none" stroke="black" stroke-width="3"/>
<path d="M135,391v 5" fill="none" stroke="black" stroke-width="3"/>
<path d="M162,391v 5" fill="none" stroke="black" stroke-width="3"/>
<path d="M190,391v 5" fill="none" stroke="black" stroke-width="3"/>
<path d="M218,385v 11" fill="none" stroke="black" stroke-width="3"/>
<path d="M245,391v 5" fill="none" stroke="black" stroke-width="3"/>
<path d="M273,391v 5" fill="none" stroke="black" stroke-width="3"/>
<path d="M300,391v 5" fill="none" stroke="black" stroke-width="3"/>
<path d="M328,385v 11" fill="none" stroke="black" stroke-width="3"/>
<path d="M356,391v 5" fill="none" stroke="black" stroke-width="3"/>
<path d="M383,391v 5" fill="none" stroke="black" stroke-width="3"/>
<path d="M411,391v 5" fill="none" stroke="black" stroke-width="3"/>
<path d="M439,385v 11" fill="none" stroke="black" stroke-width="3"/>
<path d="M107,385v 11" fill="none" stroke="black" stroke-width="3"/>
<path d="M439,385v 11" fill="none" stroke="black" stroke-width="3"/>
<path d="M466,391v 5" fill="none" stroke="black" stroke-width="3"/>
<path d="M494,391v 5" fill="none" stroke="black" stroke-width="3"/>
<path d="M522,391v 5" fill="none" stroke="black" stroke-width="3"/>
<text x="101" y="416" fill="black" font-size="21" font-family="Times" font-weight="bold">
0
</text>
<text x="212" y="416" fill="black" font-size="21" font-family="Times" font-weight="bold">
2
</text>
<text x="322" y="416" fill="black" font-size="21" font-family="Times" font-weight="bold">
4
</text>
<text x="433" y="416" fill="black" font-size="21" font-family="Times" font-weight="bold">
6
</text>
<path d="M79,37h 443" fill="none" stroke="black" stroke-width="3"/>
<path d="M107,48v -11" fill="none" stroke="black" stroke-width="3"/>
<path d="M135,43v -6" fill="none" stroke="black" stroke-width="3"/>
<path d="M162,43v -6" fill="none" stroke="black" stroke-width="3"/>
<path d="M190,43v -6" fill="none" stroke="black" stroke-width="3"/>
<path d="M218,48v -11" fill="none" stroke="black" stroke-width="3"/>
<path d="M245,43v -6" fill="none" stroke="black" stroke-width="3"/>
<path d="M273,43v -6" fill="none" stroke="black" stroke-width="3"/>
<path d="M300,43v -6" fill="none" stroke="black" stroke-width="3"/>
<path d="M328,48v -11" fill="none" stroke="black" stroke-width="3"/>
<path d="M356,43v -6" fill="none" stroke="black" stroke-width="3"/>
<path d="M383,43v -6" fill="none" stroke="black" stroke-width="3"/>
<path d="M411,43v -6" fill="none" stroke="black" stroke-width="3"/>
<path d="M439,48v -11" fill="none" stroke="black" stroke-width="3"/>
<path d="M107,48v -11" fill="none" stroke="black" stroke-width="3"/>
<path d="M439,48v -11" fill="none" stroke="black" stroke-width="3"/>
<path d="M466,43v -6" fill="none" stroke="black" stroke-width="3"/>
<path d="M494,43v -6" fill="none" stroke="black" stroke-width="3"/>
<path d="M522,43v -6" fill="none" stroke="black" stroke-width="3"/>
<path d="M79,396v -359" fill="none" stroke="black" stroke-width="3"/>
<path d="M92,396h -13" fill="none" stroke="black" stroke-width="3"/>
<path d="M86,377h -7" fill="none" stroke="black" stroke-width="3"/>
<path d="M86,359h -7" fill="none" stroke="black" stroke-width="3"/>
<path d="M86,340h -7" fill="none" stroke="black" stroke-width="3"/>
<path d="M86,321h -7" fill="none" stroke="black" stroke-width="3"/>
<path d="M92,303h -13" fill="none" stroke="black" stroke-width="3"/>
<path d="M86,284h -7" fill="none" stroke="black" stroke-width="3"/>
<path d="M86,265h -7" fill="none" stroke="black" stroke-width="3"/>
<path d="M86,247h -7" fill="none" stroke="black" stroke-width="3"/>
<path d="M86,228h -7" fill="none" stroke="black" stroke-width="3"/>
<path d="M92,209h -13" fill="none" stroke="black" stroke-width="3"/>
<path d="M86,191h -7" fill="none" stroke="black" stroke-width="3"/>
<path d="M86,172h -7" fill="none" stroke="black" stroke-width="3"/>
<path d="M86,153h -7" fill="none" stroke="black" stroke-width="3"/>
<path d="M86,135h -7" fill="none" stroke="black" stroke-width="3"/>
<path d="M92,116h -13" fill="none" stroke="black" stroke-width="3"/>
<path d="M92,116h -13" fill="none" stroke="black" stroke-width="3"/>
<path d="M86,97h -7" fill="none" stroke="black" stroke-width="3"/>
<path d="M86,78h -7" fill="none" stroke="black" stroke-width="3"/>
<path d="M86,60h -7" fill="none" stroke="black" stroke-width="3"/>
<path d="M86,41h -7" fill="none" stroke="black" stroke-width="3"/>
<text x="63" y="404" fill="black" font-size="21" font-family="Times" font-weight="bold">
0
</text>
<text x="63" y="310" fill="black" font-size="21" font-family="Times" font-weight="bold">
5
</text>
<text x="51" y="217" fill="black" font-size="21" font-family="Times" font-weight="bold">
10
</text>
<text x="51" y="124" fill="black" font-size="21" font-family="Times" font-weight="bold">
15
</text>
<path d="M522,396v -359" fill="none" stroke="black" stroke-width="3"/>
<path d="M508,396h 14" fill="none" stroke="black" stroke-width="3"/>
<path d="M515,377h 7" fill="none" stroke="black" stroke-width="3"/>
<path d="M515,359h 7" fill="none" stroke="black" stroke-width="3"/>
<path d="M515,340h 7" fill="none" stroke="black" stroke-width="3"/>
<path d="M515,321h 7" fill="none" stroke="black" stroke-width="3"/>
<path d="M508,303h 14" fill="none" stroke="black" stroke-width="3"/>
<path d="M515,284h 7" fill="none" stroke="black" stroke-width="3"/>
<path d="M515,265h 7" fill="none" stroke="black" stroke-width="3"/>
<path d="M515,247h 7" fill="none" stroke="black" stroke-width="3"/>
<path d="M515,228h 7" fill="none" stroke="black" stroke-width="3"/>
<path d="M508,209h 14" fill="none" stroke="black" stroke-width="3"/>
<path d="M515,191h 7" fill="none" stroke="black" stroke-width="3"/>
<path d="M515,172h 7" fill="none" stroke="black" stroke-width="3"/>
<path d="M515,153h 7" fill="none" stroke="black" stroke-width="3"/>
<path d="M515,135h 7" fill="none" stroke="black" stroke-width="3"/>
<path d="M508,116h 14" fill="none" stroke="black" stroke-width="3"/>
<path d="M508,116h 14" fill="none" stroke="black" stroke-width="3"/>
<path d="M515,97h 7" fill="none" stroke="black" stroke-width="3"/>
<path d="M515,78h 7" fill="none" stroke="black" stroke-width="3"/>
<path d="M515,60h 7" fill="none" stroke="black" stroke-width="3"/>
<path d="M515,41h 7" fill="none" stroke="black" stroke-width="3"/>
<rect x="113" y="-4" width="397" height="40" fill="white"/>
<text x="127" y="24" fill="black" font-size="27" font-family="Helvetica" font-weight="bold">
IGHD6-13_star_01-d_5p_del
</text>
<path d="M107,172v -72" fill="none" stroke="#ff0000" stroke-width="6"/>
<path d="M107,94v -57" fill="none" stroke="#ff0000" stroke-width="6"/>
<g stroke="#ff0000" stroke-width="6" fill="#ff0000">
<circle cx="107" cy="97" r="3.5"/>
</g>
<path d="M218,396v -15" fill="none" stroke="#ff0000" stroke-width="6"/>
<path d="M218,374v -15" fill="none" stroke="#ff0000" stroke-width="6"/>
<g stroke="#ff0000" stroke-width="6" fill="#ff0000">
<circle cx="218" cy="377" r="3.5"/>
</g>
<path d="M494,315v -46" fill="none" stroke="#ff0000" stroke-width="6"/>
<path d="M494,262v -46" fill="none" stroke="#ff0000" stroke-width="6"/>
<g stroke="#ff0000" stroke-width="6" fill="#ff0000">
<circle cx="494" cy="265" r="3.5"/>
</g>
<path d="M80,395v -298h 55v 298h 55v -18h 55v 18h 221v -130h 56" fill="none" stroke="#ff0000" stroke-width="6"/>
<path d="M332,107h 42" fill="none" stroke="#ff0000" stroke-width="6"/>
<rect x="113" y="-4" width="397" height="40" fill="white"/>
<text x="127" y="24" fill="black" font-size="27" font-family="Helvetica" font-weight="bold">
IGHD6-13_star_01-d_5p_del
</text></svg>
