<?xml version="1.0" standalone="no"?>
<svg width="567" height="466" viewBox="0 0 567 466" xmlns="http://www.w3.org/2000/svg">
<title>
/bbx/output/_plots/example/sw/true/d_5p_del/plots/IGHD6-19_star_01-d_5p_del.svg
</title>
<desc>
Creator: ROOT Version 5.34/14
CreationDate: Wed Aug 19 19:38:11 2015</desc>
<defs>
</defs>
<rect x="0" y="0" width="567" height="466" fill="white"/>
<rect x="79" y="37" width="443" height="359" fill="none" stroke="black"/>
<rect x="79" y="37" width="443" height="359" fill="none" stroke="black"/>
<path d="M79,396h 443" fill="none" stroke="black" stroke-width="3"/>
<path d="M111,385v 11" fill="none" stroke="black" stroke-width="3"/>
<path d="M143,391v 5" fill="none" stroke="black" stroke-width="3"/>
<path d="M174,391v 5" fill="none" stroke="black" stroke-width="3"/>
<path d="M206,391v 5" fill="none" stroke="black" stroke-width="3"/>
<path d="M237,385v 11" fill="none" stroke="black" stroke-width="3"/>
<path d="M269,391v 5" fill="none" stroke="black" stroke-width="3"/>
<path d="M300,391v 5" fill="none" stroke="black" stroke-width="3"/>
<path d="M332,391v 5" fill="none" stroke="black" stroke-width="3"/>
<path d="M364,385v 11" fill="none" stroke="black" stroke-width="3"/>
<path d="M395,391v 5" fill="none" stroke="black" stroke-width="3"/>
<path d="M427,391v 5" fill="none" stroke="black" stroke-width="3"/>
<path d="M458,391v 5" fill="none" stroke="black" stroke-width="3"/>
<path d="M490,385v 11" fill="none" stroke="black" stroke-width="3"/>
<path d="M111,385v 11" fill="none" stroke="black" stroke-width="3"/>
<path d="M79,391v 5" fill="none" stroke="black" stroke-width="3"/>
<path d="M490,385v 11" fill="none" stroke="black" stroke-width="3"/>
<path d="M522,391v 5" fill="none" stroke="black" stroke-width="3"/>
<text x="105" y="416" fill="black" font-size="21" font-family="Times" font-weight="bold">
0
</text>
<text x="231" y="416" fill="black" font-size="21" font-family="Times" font-weight="bold">
2
</text>
<text x="358" y="416" fill="black" font-size="21" font-family="Times" font-weight="bold">
4
</text>
<text x="484" y="416" fill="black" font-size="21" font-family="Times" font-weight="bold">
6
</text>
<path d="M79,37h 443" fill="none" stroke="black" stroke-width="3"/>
<path d="M111,48v -11" fill="none" stroke="black" stroke-width="3"/>
<path d="M143,43v -6" fill="none" stroke="black" stroke-width="3"/>
<path d="M174,43v -6" fill="none" stroke="black" stroke-width="3"/>
<path d="M206,43v -6" fill="none" stroke="black" stroke-width="3"/>
<path d="M237,48v -11" fill="none" stroke="black" stroke-width="3"/>
<path d="M269,43v -6" fill="none" stroke="black" stroke-width="3"/>
<path d="M300,43v -6" fill="none" stroke="black" stroke-width="3"/>
<path d="M332,43v -6" fill="none" stroke="black" stroke-width="3"/>
<path d="M364,48v -11" fill="none" stroke="black" stroke-width="3"/>
<path d="M395,43v -6" fill="none" stroke="black" stroke-width="3"/>
<path d="M427,43v -6" fill="none" stroke="black" stroke-width="3"/>
<path d="M458,43v -6" fill="none" stroke="black" stroke-width="3"/>
<path d="M490,48v -11" fill="none" stroke="black" stroke-width="3"/>
<path d="M111,48v -11" fill="none" stroke="black" stroke-width="3"/>
<path d="M79,43v -6" fill="none" stroke="black" stroke-width="3"/>
<path d="M490,48v -11" fill="none" stroke="black" stroke-width="3"/>
<path d="M522,43v -6" fill="none" stroke="black" stroke-width="3"/>
<path d="M79,396v -359" fill="none" stroke="black" stroke-width="3"/>
<path d="M92,396h -13" fill="none" stroke="black" stroke-width="3"/>
<path d="M86,375h -7" fill="none" stroke="black" stroke-width="3"/>
<path d="M86,353h -7" fill="none" stroke="black" stroke-width="3"/>
<path d="M86,332h -7" fill="none" stroke="black" stroke-width="3"/>
<path d="M92,311h -13" fill="none" stroke="black" stroke-width="3"/>
<path d="M86,289h -7" fill="none" stroke="black" stroke-width="3"/>
<path d="M86,268h -7" fill="none" stroke="black" stroke-width="3"/>
<path d="M86,247h -7" fill="none" stroke="black" stroke-width="3"/>
<path d="M92,225h -13" fill="none" stroke="black" stroke-width="3"/>
<path d="M86,204h -7" fill="none" stroke="black" stroke-width="3"/>
<path d="M86,183h -7" fill="none" stroke="black" stroke-width="3"/>
<path d="M86,161h -7" fill="none" stroke="black" stroke-width="3"/>
<path d="M92,140h -13" fill="none" stroke="black" stroke-width="3"/>
<path d="M86,118h -7" fill="none" stroke="black" stroke-width="3"/>
<path d="M86,97h -7" fill="none" stroke="black" stroke-width="3"/>
<path d="M86,76h -7" fill="none" stroke="black" stroke-width="3"/>
<path d="M92,54h -13" fill="none" stroke="black" stroke-width="3"/>
<path d="M92,54h -13" fill="none" stroke="black" stroke-width="3"/>
<text x="63" y="404" fill="black" font-size="21" font-family="Times" font-weight="bold">
0
</text>
<text x="63" y="319" fill="black" font-size="21" font-family="Times" font-weight="bold">
2
</text>
<text x="63" y="233" fill="black" font-size="21" font-family="Times" font-weight="bold">
4
</text>
<text x="63" y="148" fill="black" font-size="21" font-family="Times" font-weight="bold">
6
</text>
<text x="63" y="62" fill="black" font-size="21" font-family="Times" font-weight="bold">
8
</text>
<path d="M522,396v -359" fill="none" stroke="black" stroke-width="3"/>
<path d="M508,396h 14" fill="none" stroke="black" stroke-width="3"/>
<path d="M515,375h 7" fill="none" stroke="black" stroke-width="3"/>
<path d="M515,353h 7" fill="none" stroke="black" stroke-width="3"/>
<path d="M515,332h 7" fill="none" stroke="black" stroke-width="3"/>
<path d="M508,311h 14" fill="none" stroke="black" stroke-width="3"/>
<path d="M515,289h 7" fill="none" stroke="black" stroke-width="3"/>
<path d="M515,268h 7" fill="none" stroke="black" stroke-width="3"/>
<path d="M515,247h 7" fill="none" stroke="black" stroke-width="3"/>
<path d="M508,225h 14" fill="none" stroke="black" stroke-width="3"/>
<path d="M515,204h 7" fill="none" stroke="black" stroke-width="3"/>
<path d="M515,183h 7" fill="none" stroke="black" stroke-width="3"/>
<path d="M515,161h 7" fill="none" stroke="black" stroke-width="3"/>
<path d="M508,140h 14" fill="none" stroke="black" stroke-width="3"/>
<path d="M515,118h 7" fill="none" stroke="black" stroke-width="3"/>
<path d="M515,97h 7" fill="none" stroke="black" stroke-width="3"/>
<path d="M515,76h 7" fill="none" stroke="black" stroke-width="3"/>
<path d="M508,54h 14" fill="none" stroke="black" stroke-width="3"/>
<path d="M508,54h 14" fill="none" stroke="black" stroke-width="3"/>
<rect x="113" y="-4" width="397" height="40" fill="white"/>
<text x="127" y="24" fill="black" font-size="27" font-family="Helvetica" font-weight="bold">
IGHD6-19_star_01-d_5p_del
</text>
<path d="M111,210v -110" fill="none" stroke="#ff0000" stroke-width="6"/>
<path d="M111,94v -57" fill="none" stroke="#ff0000" stroke-width="6"/>
<g stroke="#ff0000" stroke-width="6" fill="#ff0000">
<circle cx="111" cy="97" r="3.5"/>
</g>
<path d="M490,278v -92" fill="none" stroke="#ff0000" stroke-width="6"/>
<path d="M490,179v -92" fill="none" stroke="#ff0000" stroke-width="6"/>
<g stroke="#ff0000" stroke-width="6" fill="#ff0000">
<circle cx="490" cy="183" r="3.5"/>
</g>
<path d="M80,395v -298h 63v 298h 315v -212h 64" fill="none" stroke="#ff0000" stroke-width="6"/>
<path d="M332,107h 42" fill="none" stroke="#ff0000" stroke-width="6"/>
<rect x="113" y="-4" width="397" height="40" fill="white"/>
<text x="127" y="24" fill="black" font-size="27" font-family="Helvetica" font-weight="bold">
IGHD6-19_star_01-d_5p_del
</text></svg>
