<?xml version="1.0" standalone="no"?>
<svg width="567" height="466" viewBox="0 0 567 466" xmlns="http://www.w3.org/2000/svg">
<title>
/bbx/output/_plots/example/sw/true/v_5p_del/plots/IGHV3-7_star_03-v_5p_del.svg
</title>
<desc>
Creator: ROOT Version 5.34/14
CreationDate: Wed Aug 19 19:38:12 2015</desc>
<defs>
</defs>
<rect x="0" y="0" width="567" height="466" fill="white"/>
<rect x="79" y="37" width="443" height="359" fill="none" stroke="black"/>
<rect x="79" y="37" width="443" height="359" fill="none" stroke="black"/>
<path d="M79,396h 443" fill="none" stroke="black" stroke-width="3"/>
<path d="M96,385v 11" fill="none" stroke="black" stroke-width="3"/>
<path d="M130,391v 5" fill="none" stroke="black" stroke-width="3"/>
<path d="M164,391v 5" fill="none" stroke="black" stroke-width="3"/>
<path d="M198,391v 5" fill="none" stroke="black" stroke-width="3"/>
<path d="M232,391v 5" fill="none" stroke="black" stroke-width="3"/>
<path d="M266,385v 11" fill="none" stroke="black" stroke-width="3"/>
<path d="M300,391v 5" fill="none" stroke="black" stroke-width="3"/>
<path d="M334,391v 5" fill="none" stroke="black" stroke-width="3"/>
<path d="M369,391v 5" fill="none" stroke="black" stroke-width="3"/>
<path d="M403,391v 5" fill="none" stroke="black" stroke-width="3"/>
<path d="M437,385v 11" fill="none" stroke="black" stroke-width="3"/>
<path d="M96,385v 11" fill="none" stroke="black" stroke-width="3"/>
<path d="M437,385v 11" fill="none" stroke="black" stroke-width="3"/>
<path d="M471,391v 5" fill="none" stroke="black" stroke-width="3"/>
<path d="M505,391v 5" fill="none" stroke="black" stroke-width="3"/>
<text x="80" y="416" fill="black" font-size="21" font-family="Times" font-weight="bold">
215
</text>
<text x="250" y="416" fill="black" font-size="21" font-family="Times" font-weight="bold">
220
</text>
<text x="419" y="416" fill="black" font-size="21" font-family="Times" font-weight="bold">
225
</text>
<path d="M79,37h 443" fill="none" stroke="black" stroke-width="3"/>
<path d="M96,48v -11" fill="none" stroke="black" stroke-width="3"/>
<path d="M130,43v -6" fill="none" stroke="black" stroke-width="3"/>
<path d="M164,43v -6" fill="none" stroke="black" stroke-width="3"/>
<path d="M198,43v -6" fill="none" stroke="black" stroke-width="3"/>
<path d="M232,43v -6" fill="none" stroke="black" stroke-width="3"/>
<path d="M266,48v -11" fill="none" stroke="black" stroke-width="3"/>
<path d="M300,43v -6" fill="none" stroke="black" stroke-width="3"/>
<path d="M334,43v -6" fill="none" stroke="black" stroke-width="3"/>
<path d="M369,43v -6" fill="none" stroke="black" stroke-width="3"/>
<path d="M403,43v -6" fill="none" stroke="black" stroke-width="3"/>
<path d="M437,48v -11" fill="none" stroke="black" stroke-width="3"/>
<path d="M96,48v -11" fill="none" stroke="black" stroke-width="3"/>
<path d="M437,48v -11" fill="none" stroke="black" stroke-width="3"/>
<path d="M471,43v -6" fill="none" stroke="black" stroke-width="3"/>
<path d="M505,43v -6" fill="none" stroke="black" stroke-width="3"/>
<path d="M79,396v -359" fill="none" stroke="black" stroke-width="3"/>
<path d="M92,396h -13" fill="none" stroke="black" stroke-width="3"/>
<path d="M86,366h -7" fill="none" stroke="black" stroke-width="3"/>
<path d="M86,336h -7" fill="none" stroke="black" stroke-width="3"/>
<path d="M86,306h -7" fill="none" stroke="black" stroke-width="3"/>
<path d="M92,277h -13" fill="none" stroke="black" stroke-width="3"/>
<path d="M86,247h -7" fill="none" stroke="black" stroke-width="3"/>
<path d="M86,217h -7" fill="none" stroke="black" stroke-width="3"/>
<path d="M86,187h -7" fill="none" stroke="black" stroke-width="3"/>
<path d="M92,157h -13" fill="none" stroke="black" stroke-width="3"/>
<path d="M86,127h -7" fill="none" stroke="black" stroke-width="3"/>
<path d="M86,97h -7" fill="none" stroke="black" stroke-width="3"/>
<path d="M86,67h -7" fill="none" stroke="black" stroke-width="3"/>
<path d="M92,37h -13" fill="none" stroke="black" stroke-width="3"/>
<text x="63" y="404" fill="black" font-size="21" font-family="Times" font-weight="bold">
0
</text>
<text x="63" y="284" fill="black" font-size="21" font-family="Times" font-weight="bold">
2
</text>
<text x="63" y="165" fill="black" font-size="21" font-family="Times" font-weight="bold">
4
</text>
<text x="63" y="45" fill="black" font-size="21" font-family="Times" font-weight="bold">
6
</text>
<path d="M522,396v -359" fill="none" stroke="black" stroke-width="3"/>
<path d="M508,396h 14" fill="none" stroke="black" stroke-width="3"/>
<path d="M515,366h 7" fill="none" stroke="black" stroke-width="3"/>
<path d="M515,336h 7" fill="none" stroke="black" stroke-width="3"/>
<path d="M515,306h 7" fill="none" stroke="black" stroke-width="3"/>
<path d="M508,277h 14" fill="none" stroke="black" stroke-width="3"/>
<path d="M515,247h 7" fill="none" stroke="black" stroke-width="3"/>
<path d="M515,217h 7" fill="none" stroke="black" stroke-width="3"/>
<path d="M515,187h 7" fill="none" stroke="black" stroke-width="3"/>
<path d="M508,157h 14" fill="none" stroke="black" stroke-width="3"/>
<path d="M515,127h 7" fill="none" stroke="black" stroke-width="3"/>
<path d="M515,97h 7" fill="none" stroke="black" stroke-width="3"/>
<path d="M515,67h 7" fill="none" stroke="black" stroke-width="3"/>
<path d="M508,37h 14" fill="none" stroke="black" stroke-width="3"/>
<rect x="113" y="-4" width="397" height="40" fill="white"/>
<text x="126" y="24" fill="black" font-size="29" font-family="Helvetica" font-weight="bold">
IGHV3-7_star_03-v_5p_del
</text>
<path d="M96,231v -131" fill="none" stroke="#ff0000" stroke-width="6"/>
<path d="M96,94v -57" fill="none" stroke="#ff0000" stroke-width="6"/>
<g stroke="#ff0000" stroke-width="6" fill="#ff0000">
<circle cx="96" cy="97" r="3.5"/>
</g>
<path d="M505,320v -100" fill="none" stroke="#ff0000" stroke-width="6"/>
<path d="M505,213v -100" fill="none" stroke="#ff0000" stroke-width="6"/>
<g stroke="#ff0000" stroke-width="6" fill="#ff0000">
<circle cx="505" cy="217" r="3.5"/>
</g>
<path d="M80,395v -298h 33v 298h 375v -178h 34" fill="none" stroke="#ff0000" stroke-width="6"/>
<path d="M332,107h 42" fill="none" stroke="#ff0000" stroke-width="6"/>
<rect x="113" y="-4" width="397" height="40" fill="white"/>
<text x="126" y="24" fill="black" font-size="29" font-family="Helvetica" font-weight="bold">
IGHV3-7_star_03-v_5p_del
</text></svg>
