<?xml version="1.0" standalone="no"?>
<svg width="567" height="466" viewBox="0 0 567 466" xmlns="http://www.w3.org/2000/svg">
<title>
/bbx/output/_plots/example/hmm/mute-freqs/j/plots/IGHJ3_star_02.svg
</title>
<desc>
Creator: ROOT Version 5.34/14
CreationDate: Thu Jul 30 17:06:12 2015</desc>
<defs>
</defs>
<rect x="0" y="0" width="567" height="466" fill="white"/>
<rect x="79" y="37" width="443" height="359" fill="none" stroke="black"/>
<rect x="79" y="37" width="443" height="359" fill="none" stroke="black"/>
<path d="M79,396h 443" fill="none" stroke="black" stroke-width="3"/>
<path d="M150,385v 11" fill="none" stroke="black" stroke-width="3"/>
<path d="M169,391v 5" fill="none" stroke="black" stroke-width="3"/>
<path d="M188,391v 5" fill="none" stroke="black" stroke-width="3"/>
<path d="M206,391v 5" fill="none" stroke="black" stroke-width="3"/>
<path d="M225,391v 5" fill="none" stroke="black" stroke-width="3"/>
<path d="M244,385v 11" fill="none" stroke="black" stroke-width="3"/>
<path d="M263,391v 5" fill="none" stroke="black" stroke-width="3"/>
<path d="M282,391v 5" fill="none" stroke="black" stroke-width="3"/>
<path d="M300,391v 5" fill="none" stroke="black" stroke-width="3"/>
<path d="M319,391v 5" fill="none" stroke="black" stroke-width="3"/>
<path d="M338,385v 11" fill="none" stroke="black" stroke-width="3"/>
<path d="M357,391v 5" fill="none" stroke="black" stroke-width="3"/>
<path d="M376,391v 5" fill="none" stroke="black" stroke-width="3"/>
<path d="M395,391v 5" fill="none" stroke="black" stroke-width="3"/>
<path d="M413,391v 5" fill="none" stroke="black" stroke-width="3"/>
<path d="M432,385v 11" fill="none" stroke="black" stroke-width="3"/>
<path d="M150,385v 11" fill="none" stroke="black" stroke-width="3"/>
<path d="M131,391v 5" fill="none" stroke="black" stroke-width="3"/>
<path d="M112,391v 5" fill="none" stroke="black" stroke-width="3"/>
<path d="M93,391v 5" fill="none" stroke="black" stroke-width="3"/>
<path d="M432,385v 11" fill="none" stroke="black" stroke-width="3"/>
<path d="M451,391v 5" fill="none" stroke="black" stroke-width="3"/>
<path d="M470,391v 5" fill="none" stroke="black" stroke-width="3"/>
<path d="M489,391v 5" fill="none" stroke="black" stroke-width="3"/>
<path d="M507,391v 5" fill="none" stroke="black" stroke-width="3"/>
<text x="138" y="416" fill="black" font-size="21" font-family="Times" font-weight="bold">
10
</text>
<text x="232" y="416" fill="black" font-size="21" font-family="Times" font-weight="bold">
20
</text>
<text x="327" y="416" fill="black" font-size="21" font-family="Times" font-weight="bold">
30
</text>
<text x="420" y="416" fill="black" font-size="21" font-family="Times" font-weight="bold">
40
</text>
<path d="M79,37h 443" fill="none" stroke="black" stroke-width="3"/>
<path d="M150,48v -11" fill="none" stroke="black" stroke-width="3"/>
<path d="M169,43v -6" fill="none" stroke="black" stroke-width="3"/>
<path d="M188,43v -6" fill="none" stroke="black" stroke-width="3"/>
<path d="M206,43v -6" fill="none" stroke="black" stroke-width="3"/>
<path d="M225,43v -6" fill="none" stroke="black" stroke-width="3"/>
<path d="M244,48v -11" fill="none" stroke="black" stroke-width="3"/>
<path d="M263,43v -6" fill="none" stroke="black" stroke-width="3"/>
<path d="M282,43v -6" fill="none" stroke="black" stroke-width="3"/>
<path d="M300,43v -6" fill="none" stroke="black" stroke-width="3"/>
<path d="M319,43v -6" fill="none" stroke="black" stroke-width="3"/>
<path d="M338,48v -11" fill="none" stroke="black" stroke-width="3"/>
<path d="M357,43v -6" fill="none" stroke="black" stroke-width="3"/>
<path d="M376,43v -6" fill="none" stroke="black" stroke-width="3"/>
<path d="M395,43v -6" fill="none" stroke="black" stroke-width="3"/>
<path d="M413,43v -6" fill="none" stroke="black" stroke-width="3"/>
<path d="M432,48v -11" fill="none" stroke="black" stroke-width="3"/>
<path d="M150,48v -11" fill="none" stroke="black" stroke-width="3"/>
<path d="M131,43v -6" fill="none" stroke="black" stroke-width="3"/>
<path d="M112,43v -6" fill="none" stroke="black" stroke-width="3"/>
<path d="M93,43v -6" fill="none" stroke="black" stroke-width="3"/>
<path d="M432,48v -11" fill="none" stroke="black" stroke-width="3"/>
<path d="M451,43v -6" fill="none" stroke="black" stroke-width="3"/>
<path d="M470,43v -6" fill="none" stroke="black" stroke-width="3"/>
<path d="M489,43v -6" fill="none" stroke="black" stroke-width="3"/>
<path d="M507,43v -6" fill="none" stroke="black" stroke-width="3"/>
<path d="M79,396v -359" fill="none" stroke="black" stroke-width="3"/>
<path d="M92,396h -13" fill="none" stroke="black" stroke-width="3"/>
<path d="M86,366h -7" fill="none" stroke="black" stroke-width="3"/>
<path d="M86,336h -7" fill="none" stroke="black" stroke-width="3"/>
<path d="M86,306h -7" fill="none" stroke="black" stroke-width="3"/>
<path d="M86,277h -7" fill="none" stroke="black" stroke-width="3"/>
<path d="M92,247h -13" fill="none" stroke="black" stroke-width="3"/>
<path d="M86,217h -7" fill="none" stroke="black" stroke-width="3"/>
<path d="M86,187h -7" fill="none" stroke="black" stroke-width="3"/>
<path d="M86,157h -7" fill="none" stroke="black" stroke-width="3"/>
<path d="M86,127h -7" fill="none" stroke="black" stroke-width="3"/>
<path d="M92,97h -13" fill="none" stroke="black" stroke-width="3"/>
<path d="M92,97h -13" fill="none" stroke="black" stroke-width="3"/>
<path d="M86,67h -7" fill="none" stroke="black" stroke-width="3"/>
<path d="M86,37h -7" fill="none" stroke="black" stroke-width="3"/>
<text x="46" y="404" fill="black" font-size="21" font-family="Times" font-weight="bold">
0.0
</text>
<text x="46" y="254" fill="black" font-size="21" font-family="Times" font-weight="bold">
0.5
</text>
<text x="46" y="105" fill="black" font-size="21" font-family="Times" font-weight="bold">
1.0
</text>
<path d="M522,396v -359" fill="none" stroke="black" stroke-width="3"/>
<path d="M508,396h 14" fill="none" stroke="black" stroke-width="3"/>
<path d="M515,366h 7" fill="none" stroke="black" stroke-width="3"/>
<path d="M515,336h 7" fill="none" stroke="black" stroke-width="3"/>
<path d="M515,306h 7" fill="none" stroke="black" stroke-width="3"/>
<path d="M515,277h 7" fill="none" stroke="black" stroke-width="3"/>
<path d="M508,247h 14" fill="none" stroke="black" stroke-width="3"/>
<path d="M515,217h 7" fill="none" stroke="black" stroke-width="3"/>
<path d="M515,187h 7" fill="none" stroke="black" stroke-width="3"/>
<path d="M515,157h 7" fill="none" stroke="black" stroke-width="3"/>
<path d="M515,127h 7" fill="none" stroke="black" stroke-width="3"/>
<path d="M508,97h 14" fill="none" stroke="black" stroke-width="3"/>
<path d="M508,97h 14" fill="none" stroke="black" stroke-width="3"/>
<path d="M515,67h 7" fill="none" stroke="black" stroke-width="3"/>
<path d="M515,37h 7" fill="none" stroke="black" stroke-width="3"/>
<rect x="113" y="-4" width="248" height="38" fill="white"/>
<text x="131" y="24" fill="black" font-size="30" font-family="Helvetica" font-weight="bold">
IGHJ3_star_02
</text>
<path d="M84,393v -60" fill="none" stroke="#ff0000" stroke-width="6"/>
<g stroke="#ff0000" stroke-width="6" fill="#ff0000">
<circle cx="84" cy="396" r="3.5"/>
</g>
<path d="M93,393v -60" fill="none" stroke="#ff0000" stroke-width="6"/>
<g stroke="#ff0000" stroke-width="6" fill="#ff0000">
<circle cx="93" cy="396" r="3.5"/>
</g>
<path d="M103,393v -60" fill="none" stroke="#ff0000" stroke-width="6"/>
<g stroke="#ff0000" stroke-width="6" fill="#ff0000">
<circle cx="103" cy="396" r="3.5"/>
</g>
<path d="M112,393v -60" fill="none" stroke="#ff0000" stroke-width="6"/>
<g stroke="#ff0000" stroke-width="6" fill="#ff0000">
<circle cx="112" cy="396" r="3.5"/>
</g>
<path d="M122,393v -60" fill="none" stroke="#ff0000" stroke-width="6"/>
<g stroke="#ff0000" stroke-width="6" fill="#ff0000">
<circle cx="122" cy="396" r="3.5"/>
</g>
<path d="M131,393v -60" fill="none" stroke="#ff0000" stroke-width="6"/>
<g stroke="#ff0000" stroke-width="6" fill="#ff0000">
<circle cx="131" cy="396" r="3.5"/>
</g>
<path d="M141,393v -60" fill="none" stroke="#ff0000" stroke-width="6"/>
<g stroke="#ff0000" stroke-width="6" fill="#ff0000">
<circle cx="141" cy="396" r="3.5"/>
</g>
<path d="M150,393v -60" fill="none" stroke="#ff0000" stroke-width="6"/>
<g stroke="#ff0000" stroke-width="6" fill="#ff0000">
<circle cx="150" cy="396" r="3.5"/>
</g>
<path d="M159,393v -60" fill="none" stroke="#ff0000" stroke-width="6"/>
<g stroke="#ff0000" stroke-width="6" fill="#ff0000">
<circle cx="159" cy="396" r="3.5"/>
</g>
<path d="M169,393v -60" fill="none" stroke="#ff0000" stroke-width="6"/>
<g stroke="#ff0000" stroke-width="6" fill="#ff0000">
<circle cx="169" cy="396" r="3.5"/>
</g>
<path d="M178,160v -60" fill="none" stroke="#ff0000" stroke-width="6"/>
<path d="M178,94v -57" fill="none" stroke="#ff0000" stroke-width="6"/>
<path d="M173,97h 2" fill="none" stroke="#ff0000" stroke-width="6"/>
<path d="M181,97h 2" fill="none" stroke="#ff0000" stroke-width="6"/>
<g stroke="#ff0000" stroke-width="6" fill="#ff0000">
<circle cx="178" cy="97" r="3.5"/>
</g>
<path d="M188,393v -60" fill="none" stroke="#ff0000" stroke-width="6"/>
<g stroke="#ff0000" stroke-width="6" fill="#ff0000">
<circle cx="188" cy="396" r="3.5"/>
</g>
<path d="M197,393v -60" fill="none" stroke="#ff0000" stroke-width="6"/>
<g stroke="#ff0000" stroke-width="6" fill="#ff0000">
<circle cx="197" cy="396" r="3.5"/>
</g>
<path d="M206,393v -60" fill="none" stroke="#ff0000" stroke-width="6"/>
<g stroke="#ff0000" stroke-width="6" fill="#ff0000">
<circle cx="206" cy="396" r="3.5"/>
</g>
<path d="M216,393v -60" fill="none" stroke="#ff0000" stroke-width="6"/>
<g stroke="#ff0000" stroke-width="6" fill="#ff0000">
<circle cx="216" cy="396" r="3.5"/>
</g>
<path d="M225,393v -60" fill="none" stroke="#ff0000" stroke-width="6"/>
<g stroke="#ff0000" stroke-width="6" fill="#ff0000">
<circle cx="225" cy="396" r="3.5"/>
</g>
<path d="M235,393v -60" fill="none" stroke="#ff0000" stroke-width="6"/>
<g stroke="#ff0000" stroke-width="6" fill="#ff0000">
<circle cx="235" cy="396" r="3.5"/>
</g>
<path d="M244,393v -60" fill="none" stroke="#ff0000" stroke-width="6"/>
<g stroke="#ff0000" stroke-width="6" fill="#ff0000">
<circle cx="244" cy="396" r="3.5"/>
</g>
<path d="M253,393v -60" fill="none" stroke="#ff0000" stroke-width="6"/>
<g stroke="#ff0000" stroke-width="6" fill="#ff0000">
<circle cx="253" cy="396" r="3.5"/>
</g>
<path d="M263,393v -60" fill="none" stroke="#ff0000" stroke-width="6"/>
<g stroke="#ff0000" stroke-width="6" fill="#ff0000">
<circle cx="263" cy="396" r="3.5"/>
</g>
<path d="M272,393v -60" fill="none" stroke="#ff0000" stroke-width="6"/>
<g stroke="#ff0000" stroke-width="6" fill="#ff0000">
<circle cx="272" cy="396" r="3.5"/>
</g>
<path d="M282,160v -60" fill="none" stroke="#ff0000" stroke-width="6"/>
<path d="M282,94v -57" fill="none" stroke="#ff0000" stroke-width="6"/>
<path d="M277,97h 1" fill="none" stroke="#ff0000" stroke-width="6"/>
<path d="M285,97h 1" fill="none" stroke="#ff0000" stroke-width="6"/>
<g stroke="#ff0000" stroke-width="6" fill="#ff0000">
<circle cx="282" cy="97" r="3.5"/>
</g>
<path d="M291,393v -60" fill="none" stroke="#ff0000" stroke-width="6"/>
<g stroke="#ff0000" stroke-width="6" fill="#ff0000">
<circle cx="291" cy="396" r="3.5"/>
</g>
<path d="M300,393v -60" fill="none" stroke="#ff0000" stroke-width="6"/>
<g stroke="#ff0000" stroke-width="6" fill="#ff0000">
<circle cx="300" cy="396" r="3.5"/>
</g>
<path d="M310,393v -60" fill="none" stroke="#ff0000" stroke-width="6"/>
<g stroke="#ff0000" stroke-width="6" fill="#ff0000">
<circle cx="310" cy="396" r="3.5"/>
</g>
<path d="M319,393v -60" fill="none" stroke="#ff0000" stroke-width="6"/>
<g stroke="#ff0000" stroke-width="6" fill="#ff0000">
<circle cx="319" cy="396" r="3.5"/>
</g>
<path d="M329,393v -60" fill="none" stroke="#ff0000" stroke-width="6"/>
<g stroke="#ff0000" stroke-width="6" fill="#ff0000">
<circle cx="329" cy="396" r="3.5"/>
</g>
<path d="M338,160v -60" fill="none" stroke="#ff0000" stroke-width="6"/>
<path d="M338,94v -57" fill="none" stroke="#ff0000" stroke-width="6"/>
<path d="M333,97h 2" fill="none" stroke="#ff0000" stroke-width="6"/>
<path d="M341,97h 2" fill="none" stroke="#ff0000" stroke-width="6"/>
<g stroke="#ff0000" stroke-width="6" fill="#ff0000">
<circle cx="338" cy="97" r="3.5"/>
</g>
<path d="M348,160v -60" fill="none" stroke="#ff0000" stroke-width="6"/>
<path d="M348,94v -57" fill="none" stroke="#ff0000" stroke-width="6"/>
<path d="M343,97h 1" fill="none" stroke="#ff0000" stroke-width="6"/>
<path d="M351,97h 1" fill="none" stroke="#ff0000" stroke-width="6"/>
<g stroke="#ff0000" stroke-width="6" fill="#ff0000">
<circle cx="348" cy="97" r="3.5"/>
</g>
<path d="M357,393v -60" fill="none" stroke="#ff0000" stroke-width="6"/>
<g stroke="#ff0000" stroke-width="6" fill="#ff0000">
<circle cx="357" cy="396" r="3.5"/>
</g>
<path d="M366,393v -60" fill="none" stroke="#ff0000" stroke-width="6"/>
<g stroke="#ff0000" stroke-width="6" fill="#ff0000">
<circle cx="366" cy="396" r="3.5"/>
</g>
<path d="M376,393v -60" fill="none" stroke="#ff0000" stroke-width="6"/>
<g stroke="#ff0000" stroke-width="6" fill="#ff0000">
<circle cx="376" cy="396" r="3.5"/>
</g>
<path d="M385,393v -60" fill="none" stroke="#ff0000" stroke-width="6"/>
<g stroke="#ff0000" stroke-width="6" fill="#ff0000">
<circle cx="385" cy="396" r="3.5"/>
</g>
<path d="M395,160v -60" fill="none" stroke="#ff0000" stroke-width="6"/>
<path d="M395,94v -57" fill="none" stroke="#ff0000" stroke-width="6"/>
<path d="M390,97h 1" fill="none" stroke="#ff0000" stroke-width="6"/>
<path d="M398,97h 1" fill="none" stroke="#ff0000" stroke-width="6"/>
<g stroke="#ff0000" stroke-width="6" fill="#ff0000">
<circle cx="395" cy="97" r="3.5"/>
</g>
<path d="M404,160v -60" fill="none" stroke="#ff0000" stroke-width="6"/>
<path d="M404,94v -57" fill="none" stroke="#ff0000" stroke-width="6"/>
<path d="M399,97h 2" fill="none" stroke="#ff0000" stroke-width="6"/>
<path d="M407,97h 2" fill="none" stroke="#ff0000" stroke-width="6"/>
<g stroke="#ff0000" stroke-width="6" fill="#ff0000">
<circle cx="404" cy="97" r="3.5"/>
</g>
<path d="M413,393v -60" fill="none" stroke="#ff0000" stroke-width="6"/>
<g stroke="#ff0000" stroke-width="6" fill="#ff0000">
<circle cx="413" cy="396" r="3.5"/>
</g>
<path d="M423,393v -60" fill="none" stroke="#ff0000" stroke-width="6"/>
<g stroke="#ff0000" stroke-width="6" fill="#ff0000">
<circle cx="423" cy="396" r="3.5"/>
</g>
<path d="M432,393v -60" fill="none" stroke="#ff0000" stroke-width="6"/>
<g stroke="#ff0000" stroke-width="6" fill="#ff0000">
<circle cx="432" cy="396" r="3.5"/>
</g>
<path d="M442,393v -60" fill="none" stroke="#ff0000" stroke-width="6"/>
<g stroke="#ff0000" stroke-width="6" fill="#ff0000">
<circle cx="442" cy="396" r="3.5"/>
</g>
<path d="M451,393v -60" fill="none" stroke="#ff0000" stroke-width="6"/>
<g stroke="#ff0000" stroke-width="6" fill="#ff0000">
<circle cx="451" cy="396" r="3.5"/>
</g>
<path d="M460,393v -60" fill="none" stroke="#ff0000" stroke-width="6"/>
<g stroke="#ff0000" stroke-width="6" fill="#ff0000">
<circle cx="460" cy="396" r="3.5"/>
</g>
<path d="M470,393v -60" fill="none" stroke="#ff0000" stroke-width="6"/>
<g stroke="#ff0000" stroke-width="6" fill="#ff0000">
<circle cx="470" cy="396" r="3.5"/>
</g>
<path d="M479,160v -60" fill="none" stroke="#ff0000" stroke-width="6"/>
<path d="M479,94v -57" fill="none" stroke="#ff0000" stroke-width="6"/>
<path d="M475,97h 1" fill="none" stroke="#ff0000" stroke-width="6"/>
<path d="M482,97h 2" fill="none" stroke="#ff0000" stroke-width="6"/>
<g stroke="#ff0000" stroke-width="6" fill="#ff0000">
<circle cx="479" cy="97" r="3.5"/>
</g>
<path d="M489,393v -60" fill="none" stroke="#ff0000" stroke-width="6"/>
<g stroke="#ff0000" stroke-width="6" fill="#ff0000">
<circle cx="489" cy="396" r="3.5"/>
</g>
<path d="M498,160v -60" fill="none" stroke="#ff0000" stroke-width="6"/>
<path d="M498,94v -57" fill="none" stroke="#ff0000" stroke-width="6"/>
<path d="M493,97h 2" fill="none" stroke="#ff0000" stroke-width="6"/>
<path d="M501,97h 2" fill="none" stroke="#ff0000" stroke-width="6"/>
<g stroke="#ff0000" stroke-width="6" fill="#ff0000">
<circle cx="498" cy="97" r="3.5"/>
</g>
<path d="M507,393v -60" fill="none" stroke="#ff0000" stroke-width="6"/>
<g stroke="#ff0000" stroke-width="6" fill="#ff0000">
<circle cx="507" cy="396" r="3.5"/>
</g>
<path d="M517,393v -60" fill="none" stroke="#ff0000" stroke-width="6"/>
<g stroke="#ff0000" stroke-width="6" fill="#ff0000">
<circle cx="517" cy="396" r="3.5"/>
</g>
<path d="M332,107h 42" fill="none" stroke="#ff0000" stroke-width="6"/>
<path d="M206,426v -179" fill="none" stroke="black" stroke-width="3" stroke-dasharray=" 3, 3"/>
<rect x="113" y="-4" width="248" height="38" fill="white"/>
<text x="131" y="24" fill="black" font-size="30" font-family="Helvetica" font-weight="bold">
IGHJ3_star_02
</text></svg>
